<?xml version="1.0" standalone="no"?>
<!DOCTYPE svg PUBLIC "-//W3C//DTD SVG 20010904//EN"
 "http://www.w3.org/TR/2001/REC-SVG-20010904/DTD/svg10.dtd">
<svg version="1.0" xmlns="http://www.w3.org/2000/svg"
 width="1795.000000pt" height="1795.000000pt" viewBox="0 0 1795.000000 1795.000000"
 preserveAspectRatio="xMidYMid meet">
<metadata>
Created by potrace 1.11, written by Peter Selinger 2001-2013
</metadata>
<g transform="translate(0.000000,1795.000000) scale(0.100000,-0.100000)"
fill="#000000" stroke="none">
<path d="M7648 17005 c-1 -1 -64 -5 -138 -9 -74 -3 -162 -8 -195 -11 -33 -2
-89 -7 -125 -9 -36 -3 -81 -8 -100 -10 -19 -3 -60 -8 -90 -11 -55 -6 -114 -13
-160 -20 -14 -2 -45 -6 -70 -10 -25 -4 -58 -9 -75 -11 -16 -2 -41 -6 -55 -9
-14 -3 -41 -7 -60 -10 -181 -28 -565 -114 -762 -170 -10 -3 -26 -7 -35 -9
-148 -38 -624 -193 -708 -231 -16 -8 -88 -37 -160 -65 -348 -136 -857 -394
-1190 -603 -218 -137 -243 -154 -425 -282 -147 -103 -440 -328 -505 -386 -16
-15 -73 -64 -125 -109 -313 -270 -670 -635 -933 -955 -156 -190 -398 -518
-509 -690 -123 -190 -147 -230 -220 -354 -43 -73 -78 -136 -78 -138 0 -3 -8
-17 -19 -31 -20 -30 -258 -496 -280 -552 -8 -19 -30 -69 -48 -110 -19 -41 -64
-149 -100 -240 -36 -91 -71 -178 -78 -195 -16 -37 -158 -470 -179 -545 -9 -30
-27 -95 -41 -145 -32 -113 -119 -491 -141 -610 -21 -116 -25 -135 -32 -165
-10 -42 -12 -2592 -3 -2635 5 -22 12 -58 15 -80 9 -58 24 -137 47 -243 12 -52
22 -99 23 -105 30 -162 153 -601 241 -857 66 -194 189 -512 248 -640 19 -41
51 -112 71 -158 98 -218 350 -681 478 -877 75 -116 176 -268 195 -295 154
-219 240 -332 386 -515 252 -314 633 -705 982 -1007 651 -564 1485 -1071 2260
-1373 66 -26 134 -53 150 -60 131 -57 783 -258 915 -281 14 -3 59 -13 100 -24
95 -24 244 -57 290 -64 19 -3 60 -10 90 -16 85 -16 140 -25 210 -35 25 -3 52
-8 60 -10 8 -2 40 -7 70 -10 30 -4 69 -9 85 -11 17 -2 53 -6 80 -9 28 -2 64
-7 80 -9 17 -3 71 -8 120 -12 50 -3 104 -8 120 -10 198 -25 906 -25 1210 1
109 9 192 16 225 20 19 2 62 6 95 9 163 16 268 59 355 146 98 99 140 207 135
347 -4 123 -43 219 -124 306 -65 70 -179 132 -266 143 -37 5 -141 5 -175 0
-14 -2 -54 -7 -90 -11 -36 -3 -81 -8 -100 -10 -19 -2 -78 -6 -130 -10 -52 -3
-122 -8 -155 -11 -151 -11 -731 -4 -865 11 -19 2 -80 6 -135 10 -55 3 -107 8
-115 10 -8 2 -42 7 -75 10 -33 3 -71 7 -85 10 -14 2 -50 7 -80 10 -30 3 -77
10 -105 15 -27 5 -66 12 -85 14 -19 3 -46 8 -60 11 -14 3 -40 8 -59 11 -18 3
-43 8 -55 10 -11 2 -37 7 -56 10 -19 3 -102 22 -185 41 -82 19 -157 36 -165
38 -64 13 -370 106 -525 158 -192 65 -458 167 -550 212 -27 13 -97 44 -154 70
-231 103 -566 287 -841 463 -757 484 -1437 1134 -1966 1881 -60 85 -118 170
-129 188 -11 18 -52 84 -91 146 -143 225 -313 537 -424 782 -68 148 -84 185
-149 350 -131 328 -283 817 -327 1055 -3 14 -9 41 -14 61 -13 46 -28 125 -36
186 -3 26 -8 50 -9 53 -4 7 -31 161 -40 230 -3 25 -8 56 -10 70 -2 14 -7 54
-10 90 -4 36 -8 67 -10 70 -3 4 -7 52 -20 210 -15 188 -19 304 -20 580 0 274
5 410 20 600 2 25 7 77 10 116 3 39 8 82 10 94 2 12 7 48 10 79 4 31 8 67 10
81 2 14 7 48 11 75 3 28 8 59 10 70 5 23 21 116 28 160 45 275 142 652 251
980 220 660 546 1300 953 1870 104 144 282 374 366 470 34 38 72 83 86 99 184
217 621 635 878 839 48 38 96 76 107 86 118 100 571 404 766 513 24 14 62 35
84 48 22 12 45 26 50 30 25 19 357 186 510 255 379 173 828 328 1232 426 70
17 139 33 153 35 14 3 43 10 65 16 22 5 49 11 60 13 11 2 36 6 55 9 19 4 60
11 90 16 30 6 66 12 80 15 52 10 304 45 430 60 19 2 76 7 125 10 50 4 109 9
132 11 142 12 259 15 508 15 273 -1 326 -2 490 -15 44 -4 107 -9 140 -11 53
-4 98 -9 185 -20 14 -2 54 -7 90 -10 36 -4 72 -9 82 -10 9 -2 38 -7 65 -11 26
-3 57 -8 68 -10 35 -7 149 -26 175 -30 48 -6 356 -75 450 -101 52 -14 118 -31
145 -38 28 -7 71 -20 98 -28 26 -8 50 -15 52 -16 32 -3 462 -152 550 -190 11
-5 92 -39 180 -76 908 -382 1759 -986 2445 -1734 52 -57 100 -109 105 -115 6
-6 28 -33 50 -60 22 -28 51 -61 64 -75 46 -51 259 -329 355 -465 233 -331 497
-791 636 -1107 23 -51 52 -116 65 -144 110 -234 299 -791 370 -1093 23 -99 34
-142 41 -167 5 -17 13 -57 30 -145 8 -47 22 -119 31 -160 8 -41 16 -86 18
-100 27 -203 31 -230 40 -280 2 -14 7 -59 10 -100 4 -41 8 -86 10 -100 2 -14
6 -64 10 -112 l6 -86 -710 -1 -711 0 -1 22 c0 12 -2 29 -3 37 -2 8 -6 44 -10
80 -13 138 -54 405 -80 525 -2 11 -12 56 -21 100 -81 386 -266 910 -455 1285
-231 459 -480 829 -830 1233 -146 169 -438 452 -610 593 -19 16 -37 31 -40 34
-14 14 -236 185 -286 220 -182 127 -362 243 -484 313 -190 108 -443 234 -607
303 -294 123 -665 245 -913 300 -111 25 -244 52 -275 57 -16 3 -57 10 -90 16
-102 18 -103 18 -250 36 -22 3 -69 7 -105 11 -36 3 -76 7 -90 10 -54 9 -305
18 -485 18 -276 0 -478 -11 -695 -39 -8 -1 -42 -5 -75 -9 -64 -8 -88 -11 -175
-26 -99 -17 -115 -20 -140 -25 -14 -3 -38 -7 -55 -10 -16 -3 -59 -12 -94 -21
-36 -9 -74 -18 -85 -20 -48 -11 -62 -14 -82 -18 -49 -10 -317 -90 -429 -128
-733 -250 -1366 -621 -1970 -1153 -177 -156 -465 -460 -619 -655 -37 -47 -77
-96 -89 -110 -63 -74 -387 -554 -387 -573 0 -3 -17 -34 -39 -68 -182 -301
-401 -816 -516 -1214 -14 -49 -32 -112 -40 -140 -12 -41 -51 -207 -71 -300
-12 -59 -63 -368 -69 -420 -4 -32 -8 -66 -10 -75 -3 -18 -13 -117 -21 -225 -3
-44 -7 -100 -10 -125 -5 -60 -5 -518 0 -600 15 -225 19 -272 41 -445 2 -16 7
-52 10 -80 9 -74 64 -375 75 -410 5 -16 12 -43 15 -60 3 -16 8 -39 10 -50 3
-11 7 -29 9 -40 25 -110 156 -534 186 -600 5 -11 27 -65 48 -120 143 -368 395
-837 613 -1140 32 -44 68 -95 81 -113 13 -19 43 -59 68 -90 25 -31 58 -75 75
-97 16 -22 32 -42 35 -45 3 -3 18 -21 34 -40 53 -64 140 -163 216 -244 634
-678 1431 -1197 2290 -1491 192 -66 496 -153 600 -171 14 -3 41 -9 60 -14 43
-11 300 -57 355 -64 22 -3 76 -10 120 -16 44 -7 109 -14 145 -16 36 -2 79 -7
95 -9 49 -8 300 -19 440 -19 171 0 238 22 344 112 103 88 162 214 163 352 1
132 -45 243 -139 337 -104 102 -207 137 -423 142 -63 2 -135 4 -160 6 -78 4
-223 16 -260 21 -134 16 -208 25 -230 29 -14 3 -74 14 -133 25 -60 11 -127 25
-150 31 -23 6 -53 13 -67 15 -14 3 -33 7 -42 10 -9 3 -27 7 -40 9 -67 13 -402
119 -473 150 -16 7 -67 26 -111 44 -351 133 -800 390 -1129 646 -672 523
-1184 1203 -1500 1993 -62 155 -176 505 -191 587 -3 16 -7 32 -9 35 -2 4 -7
21 -10 38 -3 18 -12 60 -20 95 -8 34 -17 80 -20 102 -3 22 -8 51 -11 65 -11
49 -14 67 -30 185 -31 241 -38 352 -38 635 0 218 6 373 19 480 27 219 36 287
40 300 2 8 7 31 10 50 5 30 15 84 29 155 59 288 188 681 311 950 86 187 275
539 316 589 5 6 38 55 73 108 101 153 241 336 370 483 81 93 357 369 425 425
30 25 61 52 70 61 30 29 216 175 301 236 280 200 623 392 915 513 55 23 109
45 120 51 51 23 264 94 400 134 161 46 298 80 430 104 33 6 69 13 80 15 21 4
93 15 135 21 14 2 50 7 80 10 30 3 66 8 80 10 28 4 134 13 250 20 84 5 467 6
545 0 187 -12 420 -40 550 -65 485 -94 845 -212 1253 -412 530 -260 1048 -654
1437 -1093 44 -49 82 -92 85 -95 3 -3 21 -25 40 -50 19 -25 40 -51 47 -58 7
-7 51 -64 97 -126 174 -233 332 -494 467 -773 44 -90 79 -166 79 -171 0 -4 11
-32 25 -60 14 -29 25 -55 25 -59 0 -5 6 -19 13 -33 16 -30 129 -371 152 -455
32 -122 69 -277 80 -335 14 -79 36 -209 40 -235 13 -88 25 -189 25 -205 0 -18
-25 -19 -710 -19 -789 0 -713 -7 -725 69 -39 247 -132 561 -235 790 -420 941
-1228 1625 -2216 1874 -76 19 -152 37 -169 40 -16 3 -70 12 -120 20 -279 45
-597 53 -899 21 -33 -4 -67 -8 -77 -10 -9 -2 -39 -7 -66 -11 -26 -3 -57 -8
-68 -10 -11 -2 -33 -7 -50 -9 -144 -26 -428 -111 -615 -185 -87 -34 -327 -153
-415 -205 -289 -172 -586 -414 -800 -656 -27 -30 -195 -238 -213 -264 -171
-243 -258 -402 -407 -750 -26 -60 -116 -356 -130 -423 -24 -121 -47 -244 -51
-272 -2 -19 -6 -48 -9 -65 -21 -140 -28 -557 -13 -730 6 -74 31 -247 43 -305
3 -14 8 -38 11 -55 32 -183 114 -439 210 -660 199 -459 518 -884 909 -1210 94
-79 289 -225 299 -225 2 0 30 -18 62 -39 82 -54 169 -102 309 -170 270 -132
501 -210 790 -270 93 -19 118 -23 221 -37 22 -3 51 -7 67 -9 186 -25 567 -23
767 4 41 6 98 13 125 16 184 19 349 156 401 330 22 76 23 201 0 275 -29 100
-105 199 -194 257 -123 80 -228 91 -477 54 -59 -9 -485 -7 -535 2 -14 3 -45 8
-70 12 -294 43 -645 172 -892 328 -533 337 -911 862 -1051 1462 -23 99 -30
133 -42 215 -25 164 -25 517 -1 646 2 11 7 42 10 69 14 102 84 364 121 450 7
17 23 55 35 85 26 65 115 243 139 279 10 15 44 66 77 116 87 132 165 226 294
355 295 295 651 501 1055 611 22 6 49 13 60 15 11 2 52 11 90 19 143 31 297
43 501 41 111 -2 205 -6 210 -8 5 -3 36 -8 69 -12 68 -7 82 -10 180 -31 39 -9
81 -18 94 -21 52 -11 216 -67 308 -105 371 -155 682 -389 936 -704 81 -100
161 -215 202 -290 14 -28 38 -70 51 -95 25 -44 103 -215 108 -235 3 -10 5 -15
33 -90 8 -22 30 -97 48 -166 l33 -127 -1177 0 c-1296 -1 -1256 1 -1366 -62
-100 -57 -185 -162 -223 -275 -20 -61 -19 -209 2 -273 61 -181 209 -306 390
-329 57 -7 7595 -8 7666 0 111 11 221 67 295 149 49 54 98 141 109 193 3 17 9
41 12 55 13 63 -1 530 -22 740 -2 25 -6 72 -9 104 -3 33 -7 79 -10 103 -3 23
-7 64 -10 91 -11 92 -56 397 -65 439 -6 24 -13 60 -16 81 -6 41 -38 190 -83
387 -119 517 -368 1207 -608 1680 -197 388 -301 566 -529 910 -174 262 -407
570 -559 739 -5 6 -37 43 -70 81 -87 101 -171 192 -299 325 -108 111 -346 335
-466 440 -52 45 -107 93 -122 106 -14 12 -80 65 -145 116 -65 51 -120 95 -123
98 -3 3 -23 18 -45 35 -22 16 -44 33 -50 38 -81 68 -570 393 -725 481 -36 20
-72 41 -80 46 -103 62 -496 265 -625 322 -33 15 -96 44 -140 64 -254 115 -681
268 -1015 364 -234 66 -586 150 -740 175 -19 3 -57 10 -85 15 -83 16 -280 46
-361 55 -27 3 -65 8 -84 10 -19 3 -60 7 -90 10 -30 3 -75 7 -100 10 -25 2 -83
7 -130 11 -47 3 -110 8 -140 10 -66 6 -757 14 -762 9z"/>
<path d="M17368 9445 c-2 -1 -25 -5 -53 -8 -224 -25 -398 -220 -404 -453 -4
-132 44 -249 139 -343 150 -149 362 -178 559 -79 55 28 149 121 180 179 79
147 80 318 3 459 -55 101 -171 193 -282 223 -54 15 -136 28 -142 22z"/>
<path d="M12429 7556 c-2 -2 -35 -6 -74 -9 -648 -50 -1332 -338 -1851 -782
-76 -65 -296 -284 -355 -355 -329 -389 -555 -818 -684 -1293 -14 -53 -28 -105
-30 -115 -36 -179 -44 -226 -50 -272 -4 -30 -9 -66 -11 -80 -19 -145 -25 -519
-11 -680 11 -116 38 -305 57 -390 6 -25 13 -55 15 -67 8 -36 12 -54 30 -118 9
-33 20 -73 25 -90 76 -275 260 -659 438 -915 48 -69 123 -172 132 -180 3 -3
16 -18 29 -35 79 -103 272 -303 401 -416 379 -332 862 -584 1355 -708 123 -31
154 -37 215 -47 19 -2 46 -7 60 -10 53 -10 67 -12 130 -19 36 -3 79 -9 95 -12
51 -8 515 -11 605 -3 136 12 209 20 305 36 121 19 141 23 205 36 64 14 54 12
105 23 22 4 45 9 50 10 144 31 501 153 665 227 72 33 271 132 325 162 197 111
433 270 507 342 191 185 186 493 -11 680 -141 133 -365 162 -541 68 -40 -22
-218 -139 -246 -163 -27 -23 -216 -127 -332 -183 -173 -83 -317 -137 -513
-192 -127 -36 -298 -70 -404 -82 -33 -3 -67 -8 -76 -9 -120 -23 -542 -23 -629
0 -8 2 -40 6 -71 10 -181 19 -498 122 -704 228 -70 36 -242 137 -270 159 -5 5
-53 40 -105 80 -116 87 -334 304 -415 413 -208 276 -349 565 -425 868 -24 94
-25 107 -11 108 9 0 1184 2 2611 3 2815 2 2629 -2 2742 58 126 67 209 183 245
343 5 24 4 236 -2 285 -2 19 -6 69 -10 110 -6 80 -23 205 -30 230 -2 8 -6 32
-10 53 -16 109 -69 311 -122 467 -192 560 -550 1082 -998 1454 -38 32 -79 66
-90 75 -11 9 -65 49 -120 88 -430 307 -955 515 -1465 583 -41 5 -95 12 -120
16 -48 6 -555 15 -561 10z m540 -961 c218 -32 393 -79 586 -158 554 -227 1016
-675 1256 -1220 47 -104 113 -292 130 -364 13 -58 16 -72 25 -100 5 -18 2 -23
-12 -24 -25 0 -4574 -1 -4595 0 -15 1 -14 13 11 109 53 208 124 384 233 582
37 67 149 233 204 304 160 202 454 455 670 577 152 84 386 187 467 204 11 3
40 11 65 19 59 19 221 55 280 62 25 3 64 9 87 13 22 4 73 9 114 10 41 1 76 4
78 6 8 8 307 -7 401 -20z"/>
<path d="M17243 7539 c-175 -59 -297 -197 -329 -371 -3 -18 -6 -1333 -6 -2923
0 -2881 1 -2890 21 -2955 62 -198 224 -325 428 -335 142 -7 251 36 355 139 72
71 125 174 134 260 2 17 3 1329 4 2916 1 3173 5 2921 -57 3044 -33 65 -125
157 -191 190 -112 57 -255 71 -359 35z"/>
</g>
</svg>
