<?xml version="1.0" encoding="UTF-8"?>
<!DOCTYPE svg PUBLIC "-//W3C//DTD SVG 1.1//EN" "http://www.w3.org/Graphics/SVG/1.1/DTD/svg11.dtd">
<!-- Creator: CorelDRAW 2018 (64-Bit) -->
<svg xmlns="http://www.w3.org/2000/svg" xml:space="preserve" width="65mm" height="15mm" version="1.1" style="shape-rendering:geometricPrecision; text-rendering:geometricPrecision; image-rendering:optimizeQuality; fill-rule:evenodd; clip-rule:evenodd"
viewBox="0 0 6500 1500"
 xmlns:xlink="http://www.w3.org/1999/xlink">
 <defs>
  <style type="text/css">
   <![CDATA[
    .fil1 {fill:#2568EF;fill-rule:nonzero}
    .fil0 {fill:#FF564F;fill-rule:nonzero}
   ]]>
  </style>
 </defs>
 <g id="Слой_x0020_1">
  <metadata id="CorelCorpID_0Corel-Layer"/>
  <g id="_852045659008">
   <path class="fil0" d="M5001.93 16.98c-53.64,-26.58 -117.01,-6.29 -143.9,47.51l-541.8 1083.74 -40.32 -80.61 -119.47 238.66 64.75 129.08c18.01,36.01 55.47,59.06 95.71,59.06 39.66,0 77.33,-23.65 95.03,-59.06l637.51 -1275.16c26.62,-53.23 6,-116.7 -47.51,-143.22zm-926.44 649.79l-64.04 -128.09c-27.09,-53.29 -90.16,-74.61 -143.91,-48.2 -53.79,26.89 -73.88,90.26 -47.51,143.91l135.96 271.39 119.5 -239.01z"/>
   <path class="fil1" d="M238.96 692.09l160.19 0c163.36,0 294.6,131.24 294.6,294.59 0,163.73 -131.07,293.92 -294.6,293.92l-160.19 0 0 -588.51zm160.19 802.33c282.04,0 508.42,-225.47 508.42,-507.74 0,-282.03 -226.39,-508.41 -508.42,-508.41l-266.76 0c-59.43,0 -107.25,47.82 -107.25,107.24l0 801.66c0,60.18 47.07,107.25 107.25,107.25l266.76 0zm1199.12 -669.97l127.62 255.23 -255.23 0 127.61 -255.23zm-448.68 658.43c52.89,26.43 117.13,4.9 143.23,-48.2l70.59 -141.19 469.05 0 71.27 141.19c17.94,36.78 54.81,59.74 95.71,59.74 16.74,0 32.58,-3.85 47.51,-11.54 52.92,-26.47 74.86,-90.37 47.52,-143.23l-400.49 -802.33c-18.44,-36.89 -54.5,-59.05 -95.71,-59.05 -41.21,0 -77.26,22.16 -95.71,59.05l-401.16 802.33c-26.45,52.89 -4.9,117.13 48.19,143.23zm1861.62 -629.92c0,89.05 -72.03,160.19 -160.87,160.19l-293.92 0 0 -321.06 293.92 0c88.77,0 160.87,72.09 160.87,160.87zm-204.99 374.01l236.22 236.22c42.01,42.01 109.15,41.32 151.36,0 41.74,-41.73 41.71,-109.66 0,-151.37l-143.22 -143.22c108.27,-68.82 174.45,-187.12 174.45,-315.64 0,-207.87 -166.83,-374.69 -374.69,-374.69l-400.49 0c-59.43,0 -107.25,47.82 -107.25,107.24l0 801.66c0,60.18 47.07,107.25 107.25,107.25 59.83,0 106.57,-47.62 106.57,-107.25l0 -160.2 249.8 0zm1842.06 -1066.77c26.72,-53.49 5.97,-116.48 -47.52,-143.22 -53.37,-26.68 -116.5,-5.95 -143.22,47.51 -180.6,361.27 -361.18,722.51 -541.8,1083.74l-305.46 -609.55c-26.33,-53.58 -90.63,-74.39 -143.9,-48.2 -53.06,26.53 -73.52,91.02 -47.52,143.91l401.17 800.97c18,36.01 55.46,59.06 95.71,59.06 40.23,0 77.7,-23.04 95.71,-59.06 211.89,-425.16 424.5,-850.08 636.83,-1275.16zm520.2 1334.22c59.83,0 106.57,-47.62 106.57,-107.25l0 -801.66c0,-58.88 -47.49,-107.24 -106.57,-107.24 -59.43,0 -107.25,47.82 -107.25,107.24l0 801.66c0,60.18 47.07,107.25 107.25,107.25zm494.54 -1009.37c-42.6,15.41 -70.6,55.12 -70.6,100.46l0 801.66c0,60.18 47.07,107.25 107.25,107.25 59.83,0 106.57,-47.62 106.57,-107.25l0 -506.38 479.23 574.94c29.43,35.69 75.58,47.53 118.79,32.58 42.36,-15.33 70.59,-56.17 70.59,-101.14l0 -801.66c0,-59.29 -47.94,-107.24 -107.24,-107.24 -59.09,0 -106.58,48.36 -106.58,107.24l0 506.38 -479.22 -574.93c-29.18,-34.65 -76.19,-47.32 -118.79,-31.91z"/>
  </g>
 </g>
</svg>
