<svg width="15" height="15" viewBox="0 0 15 15" fill="none" xmlns="http://www.w3.org/2000/svg">
<path d="M14.0349 6.05007C13.8594 5.90813 13.5675 5.67135 13.5309 5.55914C13.4938 5.4426 13.5898 5.0676 13.6475 4.84445C13.7857 4.30579 13.958 3.63572 13.5719 3.10823C13.1875 2.58446 12.4964 2.53858 11.941 2.50137C11.711 2.48526 11.3255 2.45983 11.2282 2.38916C11.1296 2.31788 10.9815 1.95279 10.8928 1.73397C10.674 1.1916 10.4249 0.576683 9.81677 0.380804C9.21179 0.18308 8.65887 0.533295 8.17228 0.841351C7.95779 0.976468 7.63485 1.18105 7.49974 1.18105C7.37019 1.18105 7.05097 0.973392 6.83897 0.835785C6.37099 0.53142 5.78584 0.154545 5.16908 0.364076C4.56223 0.570502 4.31555 1.18166 4.09673 1.7197C4.00872 1.93664 3.86241 2.29864 3.76201 2.37241C3.66407 2.44492 3.2717 2.47096 3.03738 2.48646C2.45162 2.52613 1.78775 2.57077 1.4146 3.09888C1.04827 3.6177 1.21251 4.2574 1.35756 4.82209C1.4146 5.04648 1.51128 5.42212 1.47656 5.5343C1.43938 5.64153 1.15052 5.87895 0.978193 6.02089C0.542373 6.38048 0 6.82738 0 7.49684C0 8.16194 0.531855 8.60391 0.958916 8.95846C1.14425 9.11218 1.4238 9.34462 1.46162 9.45993C1.4988 9.57399 1.40212 9.94465 1.34385 10.166C1.20252 10.7096 1.02586 11.3865 1.4269 11.9183C1.81805 12.4353 2.50608 12.4811 3.05962 12.5183C3.2896 12.5344 3.67453 12.5592 3.77247 12.6305C3.87041 12.7018 4.01795 13.0663 4.10657 13.2851C4.32601 13.8275 4.57456 14.4424 5.18326 14.6389C5.30537 14.6792 5.42625 14.6965 5.54402 14.6965C6.01017 14.6965 6.44033 14.4238 6.82837 14.1796C7.04221 14.0445 7.36456 13.8399 7.49968 13.8399C7.63172 13.8399 7.94906 14.042 8.15859 14.1759C8.62348 14.4715 9.20367 14.8422 9.8192 14.6314C10.4254 14.425 10.6721 13.8145 10.8909 13.2752C10.9789 13.0589 11.1253 12.6963 11.2257 12.6225C11.3242 12.55 11.7141 12.5239 11.9472 12.5085C12.5286 12.4688 13.1881 12.4248 13.5669 11.9047C13.9481 11.3822 13.7844 10.7356 13.64 10.166C13.5836 9.94345 13.4894 9.57217 13.5235 9.46058C13.5607 9.35335 13.8495 9.11593 14.0213 8.97399C14.4576 8.61446 15 8.16692 15 7.49745C15 6.83359 14.4645 6.39906 14.0349 6.05007ZM13.2334 8.01815C12.8708 8.3163 12.4958 8.62562 12.3482 9.06882C12.1976 9.52008 12.3203 10.0036 12.4387 10.4709C12.4964 10.699 12.5931 11.0803 12.58 11.159C12.4858 11.2296 12.0972 11.2563 11.8647 11.2712C11.4042 11.3022 10.8823 11.3369 10.4936 11.622C10.1087 11.9041 9.92209 12.3646 9.74171 12.8097C9.6537 13.0291 9.50493 13.3967 9.44355 13.4525C9.33073 13.4525 9.01523 13.2498 8.82618 13.1295C8.4363 12.8816 7.99433 12.5996 7.50029 12.5996C7.00564 12.5996 6.55995 12.8822 6.16573 13.1314C5.9748 13.2517 5.65497 13.455 5.5868 13.4699C5.49073 13.401 5.34442 13.0378 5.25642 12.8209C5.07419 12.3702 4.88575 11.9047 4.4971 11.6251C4.11094 11.3468 3.61875 11.314 3.14209 11.2824C2.91832 11.2675 2.50116 11.2396 2.42552 11.1882C2.38708 11.0784 2.4844 10.7034 2.54329 10.4803C2.65796 10.0383 2.78877 9.53748 2.64123 9.08001C2.49308 8.62319 2.09947 8.29527 1.75172 8.0064C1.58188 7.86507 1.26513 7.60163 1.23847 7.50618C1.26636 7.38964 1.59179 7.12125 1.76657 6.97808C2.12918 6.67931 2.50421 6.36999 2.65175 5.92679C2.80362 5.47243 2.67841 4.98522 2.55814 4.51412C2.49987 4.28663 2.40193 3.90604 2.40937 3.83353C2.50421 3.76535 2.88976 3.73931 3.12035 3.72381C3.60445 3.69159 4.10593 3.65748 4.49458 3.37298C4.87951 3.09094 5.0661 2.63101 5.24648 2.18596C5.33449 1.96591 5.48391 1.59894 5.54092 1.54377C5.65559 1.54562 5.97419 1.75266 6.1645 1.87603C6.55749 2.13141 7.0038 2.42089 7.50029 2.42089C7.99433 2.42089 8.44125 2.13824 8.83424 1.88968C9.02517 1.7688 9.345 1.56613 9.4132 1.55124C9.50865 1.62006 9.65558 1.98328 9.74358 2.20023C9.92581 2.65026 10.1142 3.11576 10.5029 3.39531C10.8891 3.67424 11.3819 3.70708 11.8592 3.73869C12.0947 3.75481 12.4896 3.78147 12.5633 3.82609C12.6011 3.93519 12.505 4.31206 12.4468 4.53645C12.3333 4.98027 12.2044 5.48297 12.3526 5.94167C12.5019 6.40348 12.9018 6.72765 13.2545 7.01341C13.4156 7.14481 13.7125 7.38472 13.7584 7.5C13.7144 7.62082 13.4026 7.87805 13.2334 8.01815Z" fill="white"/>
<path d="M10.2717 5.16181C10.0077 4.94114 9.61775 4.97709 9.39896 5.2393L6.63501 8.54378L5.45912 7.36853C5.21675 7.12616 4.82499 7.12616 4.58265 7.36853C4.34027 7.61091 4.34027 8.00266 4.58265 8.24501L6.23768 9.90005C6.35358 10.0172 6.51167 10.0817 6.67594 10.0817C6.68461 10.0817 6.69392 10.0817 6.7026 10.0804C6.87738 10.073 7.03919 9.99242 7.15075 9.85915L10.3492 6.03456C10.5686 5.77177 10.5345 5.38124 10.2717 5.16181Z" fill="white"/>
</svg>
