<?xml version="1.0" encoding="UTF-8"?>
<!DOCTYPE svg PUBLIC "-//W3C//DTD SVG 1.1//EN" "http://www.w3.org/Graphics/SVG/1.1/DTD/svg11.dtd">
<!-- Creator: CorelDRAW 2018 (64-Bit) -->
<svg xmlns="http://www.w3.org/2000/svg" xml:space="preserve" width="297mm" height="80.8mm" version="1.1" style="shape-rendering:geometricPrecision; text-rendering:geometricPrecision; image-rendering:optimizeQuality; fill-rule:evenodd; clip-rule:evenodd"
viewBox="0 0 29700 8080"
 xmlns:xlink="http://www.w3.org/1999/xlink">
 <defs>
  <style type="text/css">
   <![CDATA[
    .fil1 {fill:#2568EF}
    .fil8 {fill:#777777}
    .fil6 {fill:#FF564F}
    .fil0 {fill:white}
    .fil5 {fill:#2568EF;fill-rule:nonzero}
    .fil3 {fill:#2C3038;fill-rule:nonzero}
    .fil4 {fill:#FF564F;fill-rule:nonzero}
    .fil2 {fill:white;fill-rule:nonzero}
    .fil7 {fill:white;fill-opacity:0.650980}
   ]]>
  </style>
 </defs>
 <g id="Слой_x0020_1">
  <metadata id="CorelCorpID_0Corel-Layer"/>
  <polygon class="fil0" points="-0,15.22 8049.53,15.22 8049.53,8064.77 -0,8064.77 "/>
  <polygon class="fil1" points="8049.53,15.22 29700,15.22 29700,8064.77 8049.53,8064.77 "/>
  <path class="fil2" d="M10547.29 2548.95l-239.89 0c-16.93,0 -28.92,12.7 -28.92,28.93l0 407.81c0,16.23 11.99,28.93 28.92,28.93l162.99 0c88.9,0 147.46,-54.33 147.46,-135.47 0,-81.84 -58.56,-136.17 -147.46,-136.17l-136.88 0 0 -144.64 213.78 0c14.12,0 25.4,-10.58 25.4,-24.7 0,-13.4 -11.28,-24.69 -25.4,-24.69zm-82.55 244.12c59.98,0 96.67,32.46 96.67,86.08 0,53.63 -36.69,86.08 -96.67,86.08l-131.23 0 0 -172.16 131.23 0zm395.11 -129.82c-98.07,0 -175.68,79.02 -175.68,179.92 0,102.31 77.61,179.21 182.03,179.21 44.45,0 85.38,-14.11 119.24,-42.33 9.88,-9.17 13.41,-15.52 13.41,-24.7 0,-14.11 -10.59,-23.99 -23.99,-23.99 -6.35,0 -12.7,2.83 -18.35,7.77 -24.69,21.16 -55.74,33.16 -89.6,33.16 -69.15,0 -119.24,-45.16 -126.3,-112.89l242.72 0c21.16,0 33.16,-11.29 33.16,-33.87l0 -3.53c0,-92.43 -65.62,-158.75 -156.64,-158.75zm-1.41 49.39c59.97,0 100.9,40.92 102.31,98.78l-218.02 0c11.99,-58.56 57.15,-98.78 115.71,-98.78zm436.74 120.65c26.82,-16.93 41.63,-43.74 41.63,-76.2 0,-57.86 -47.98,-93.84 -124.18,-93.84 -45.15,0 -86.78,15.52 -113.59,40.22 -8.47,7.76 -11.29,13.4 -11.29,20.46 0,13.4 11.29,24.69 25.4,24.69 6.35,0 12.7,-2.82 19.76,-9.17 17.63,-16.93 43.74,-26.1 77.61,-26.1 46.56,0 70.55,16.93 70.55,47.97 0,30.34 -22.58,47.28 -62.09,47.28l-42.33 0c-14.11,0 -24.69,9.87 -24.69,23.99 0,13.4 10.58,23.98 24.69,23.98l40.92 0c49.39,0 79.02,21.17 79.02,55.74 0,37.4 -31.75,59.98 -83.96,59.98 -35.27,0 -64.2,-11.29 -85.37,-32.46 -7.76,-7.76 -13.41,-10.58 -21.87,-10.58 -14.11,0 -25.4,10.58 -25.4,24.69 0,7.06 3.53,12.7 11.99,21.87 27.52,29.64 71.26,46.57 121.36,46.57 81.84,0 138.99,-42.33 138.99,-103.72 0,-37.39 -21.87,-68.44 -57.15,-85.37zm527.06 -292.1c-71.97,0 -138.99,31.04 -181.33,83.26 -7.76,9.87 -10.58,16.22 -10.58,23.28 0,13.4 11.99,24.69 26.1,24.69 9.18,0 16.94,-3.52 23.29,-11.29 36.69,-45.86 84.67,-69.14 141.82,-69.14 91.72,0 164.39,62.09 181.32,148.87l-228.6 0c-14.11,0 -25.4,10.59 -25.4,24.7 0,13.4 11.29,24.69 25.4,24.69l232.84 0c-4.24,103.72 -82.55,181.33 -185.56,181.33 -57.15,0 -105.13,-23.99 -141.82,-69.14 -6.35,-7.77 -14.11,-11.29 -23.29,-11.29 -14.11,0 -26.1,11.29 -26.1,24.69 0,7.06 2.82,13.41 10.58,23.29 40.93,52.21 108.66,83.25 181.33,83.25 136.17,0 242.01,-105.83 242.01,-240.59 0,-134.77 -105.84,-240.6 -242.01,-240.6zm660.41 0c-15.52,0 -27.52,12.7 -27.52,28.93l0 395.11 -237.77 0 0 -395.11c0,-16.23 -11.99,-28.93 -27.52,-28.93 -16.23,0 -27.51,12.7 -27.51,28.93l0 415.57c0,16.23 11.99,28.93 28.92,28.93l320.33 0 0 78.32c0,16.23 11.29,28.93 27.52,28.93 15.52,0 27.51,-12.7 27.51,-28.93l0 -98.78c0,-16.93 -12.7,-28.93 -28.93,-28.93l-27.51 0 0 -395.11c0,-16.23 -12,-28.93 -27.52,-28.93zm198.97 481.19c15.53,0 27.52,-12.7 27.52,-28.93l0 -395.11 242.71 0 0 395.11c0,16.23 12,28.93 27.52,28.93 16.23,0 27.52,-12.7 27.52,-28.93l0 -415.57c0,-16.23 -12,-28.93 -28.93,-28.93l-294.93 0c-16.93,0 -28.92,12.7 -28.92,28.93l0 415.57c0,16.23 11.28,28.93 27.51,28.93z"/>
  <path class="fil0" d="M9327.43 2712.26l-0.04 0.04c-6.74,-6.74 -16.05,-10.9 -26.32,-10.9 -20.56,0 -37.22,16.67 -37.22,37.22 0,10.27 4.18,19.56 10.9,26.3l-0.04 0.04 169.41 169.39 376.44 -376.44 -0.02 -0.02c6.74,-6.74 10.91,-16.05 10.91,-26.32 0,-20.56 -16.67,-37.22 -37.23,-37.22 -10.26,0 -19.58,4.16 -26.31,10.9l-0.04 -0.04 -323.75 323.75 -116.69 -116.7zm455.23 73.45c0,-1.95 0.14,-3.88 0.44,-5.76l0.02 -0.02 0.02 -0.26c2.05,-18.88 18,-33.53 37.42,-33.53 19.62,0 35.69,15.01 37.46,34.15 0.24,1.77 0.4,3.57 0.4,5.42 0,103.88 -42.13,197.98 -110.23,266.09l-2.2 2.01c-67.92,66.91 -161.15,108.22 -263.93,108.22 -103.81,0 -197.88,-42.14 -265.98,-110.23 -68.25,-68.11 -110.38,-162.21 -110.38,-266.09 0,-103.87 42.13,-197.98 110.24,-266.08l2.19 -2.02c67.93,-66.91 161.15,-108.22 263.93,-108.22 21.81,0 43.69,1.96 65.28,5.75 21.25,3.72 42.5,9.45 63.38,17.04 19.6,7.1 29.73,28.79 22.63,48.39 -7.1,19.6 -28.79,29.73 -48.39,22.63 -16.21,-5.9 -33.22,-10.43 -50.66,-13.5 -17.07,-2.99 -34.59,-4.54 -52.24,-4.54 -82.18,0 -156.65,32.91 -210.88,86.21l-1.69 1.81c-54.37,54.37 -88.03,129.53 -88.03,212.53 0,83 33.66,158.17 88.03,212.54 54.31,54.39 129.51,88.02 212.57,88.02 82.18,0 156.65,-32.92 210.88,-86.21l1.7 -1.81c54.37,-54.37 88.02,-129.54 88.02,-212.54z"/>
  <path class="fil2" d="M10547.29 3659.67l-239.89 0c-16.93,0 -28.92,12.7 -28.92,28.93l0 407.81c0,16.23 11.99,28.93 28.92,28.93l162.99 0c88.9,0 147.46,-54.33 147.46,-135.47 0,-81.84 -58.56,-136.17 -147.46,-136.17l-136.88 0 0 -144.64 213.78 0c14.12,0 25.4,-10.58 25.4,-24.7 0,-13.4 -11.28,-24.69 -25.4,-24.69zm-82.55 244.12c59.98,0 96.67,32.46 96.67,86.08 0,53.63 -36.69,86.08 -96.67,86.08l-131.23 0 0 -172.16 131.23 0zm395.11 -129.82c-98.07,0 -175.68,79.02 -175.68,179.92 0,102.31 77.61,179.21 182.03,179.21 44.45,0 85.38,-14.11 119.24,-42.33 9.88,-9.17 13.41,-15.52 13.41,-24.7 0,-14.11 -10.59,-23.99 -23.99,-23.99 -6.35,0 -12.7,2.83 -18.35,7.77 -24.69,21.16 -55.74,33.16 -89.6,33.16 -69.15,0 -119.24,-45.16 -126.3,-112.89l242.72 0c21.16,0 33.16,-11.29 33.16,-33.87l0 -3.53c0,-92.43 -65.62,-158.75 -156.64,-158.75zm-1.41 49.39c59.97,0 100.9,40.92 102.31,98.78l-218.02 0c11.99,-58.56 57.15,-98.78 115.71,-98.78zm436.74 120.65c26.82,-16.93 41.63,-43.74 41.63,-76.2 0,-57.86 -47.98,-93.84 -124.18,-93.84 -45.15,0 -86.78,15.52 -113.59,40.22 -8.47,7.76 -11.29,13.4 -11.29,20.46 0,13.4 11.29,24.69 25.4,24.69 6.35,0 12.7,-2.82 19.76,-9.17 17.63,-16.93 43.74,-26.1 77.61,-26.1 46.56,0 70.55,16.93 70.55,47.97 0,30.34 -22.58,47.28 -62.09,47.28l-42.33 0c-14.11,0 -24.69,9.87 -24.69,23.99 0,13.4 10.58,23.98 24.69,23.98l40.92 0c49.39,0 79.02,21.17 79.02,55.74 0,37.4 -31.75,59.98 -83.96,59.98 -35.27,0 -64.2,-11.29 -85.37,-32.46 -7.76,-7.76 -13.41,-10.58 -21.87,-10.58 -14.11,0 -25.4,10.58 -25.4,24.69 0,7.06 3.53,12.7 11.99,21.87 27.52,29.64 71.26,46.57 121.36,46.57 81.84,0 138.99,-42.33 138.99,-103.72 0,-37.39 -21.87,-68.44 -57.15,-85.37zm481.91 -170.04c-50.1,0 -95.96,19.05 -125.59,53.62 -7.06,7.76 -9.88,15.53 -9.88,23.29 0,11.29 11.29,22.58 24.69,22.58 7.06,0 14.11,-3.53 21.17,-10.59 23.99,-25.4 52.92,-38.8 86.08,-38.8 52.91,0 83.25,31.04 83.25,86.78l0 29.63 -108.65 0c-74.79,0 -123.48,38.1 -123.48,95.96 0,57.86 47.98,96.66 119.95,96.66 47.98,0 86.78,-17.64 112.18,-47.98l0 19.76c0,15.52 12,28.22 27.52,28.22 14.82,0 26.81,-11.99 26.81,-28.22l0 -191.21c0,-87.49 -50.8,-139.7 -134.05,-139.7zm-25.4 313.98c-43.04,0 -71.27,-21.17 -71.27,-53.63 0,-32.45 25.4,-49.39 74.09,-49.39l102.3 0 0 8.47c0,52.21 -47.27,94.55 -105.12,94.55zm306.21 45.15c15.53,0 26.81,-12.7 26.81,-28.22l0 -274.46 162.28 0c14.11,0 25.4,-10.59 25.4,-24.7 0,-13.4 -11.29,-23.99 -25.4,-23.99l-188.38 0c-16.23,0 -28.22,12.7 -28.22,28.22l0 294.93c0,15.52 11.28,28.22 27.51,28.22zm424.04 -359.13c-98.07,0 -175.68,79.02 -175.68,179.92 0,102.31 77.61,179.21 182.03,179.21 44.45,0 85.38,-14.11 119.24,-42.33 9.88,-9.17 13.41,-15.52 13.41,-24.7 0,-14.11 -10.59,-23.99 -23.99,-23.99 -6.35,0 -12.7,2.83 -18.35,7.77 -24.69,21.16 -55.74,33.16 -89.6,33.16 -69.15,0 -119.24,-45.16 -126.3,-112.89l242.72 0c21.16,0 33.16,-11.29 33.16,-33.87l0 -3.53c0,-92.43 -65.62,-158.75 -156.64,-158.75zm-1.41 49.39c59.97,0 100.9,40.92 102.31,98.78l-218.02 0c11.99,-58.56 57.15,-98.78 115.71,-98.78zm515.06 -49.39c-16.23,0 -26.82,12 -26.82,27.52l0 117.12 -176.39 0 0 -117.12c0,-15.52 -11.99,-27.52 -26.81,-27.52 -16.23,0 -27.51,12 -27.51,27.52l0 304.09c0,15.53 11.28,27.52 27.51,27.52 15.53,0 26.81,-11.99 26.81,-27.52l0 -138.99 176.39 0 0 138.99c0,15.53 11.29,27.52 26.82,27.52 14.81,0 26.81,-11.99 26.81,-27.52l0 -304.09c0,-15.52 -12,-27.52 -26.81,-27.52zm254.7 359.13c14.82,0 26.81,-12.7 26.81,-28.22l0 -274.46 100.19 0c14.11,0 24.7,-10.59 24.7,-24.7 0,-13.4 -10.59,-23.99 -24.7,-23.99l-254 0c-14.11,0 -25.4,10.59 -25.4,23.99 0,14.11 11.29,24.7 25.4,24.7l100.19 0 0 274.46c0,15.52 11.99,28.22 26.81,28.22zm347.14 -359.13c-50.1,0 -95.96,19.05 -125.59,53.62 -7.06,7.76 -9.88,15.53 -9.88,23.29 0,11.29 11.29,22.58 24.69,22.58 7.06,0 14.11,-3.53 21.17,-10.59 23.99,-25.4 52.92,-38.8 86.08,-38.8 52.91,0 83.25,31.04 83.25,86.78l0 29.63 -108.65 0c-74.79,0 -123.48,38.1 -123.48,95.96 0,57.86 47.98,96.66 119.95,96.66 47.98,0 86.78,-17.64 112.18,-47.98l0 19.76c0,15.52 12,28.22 27.52,28.22 14.82,0 26.81,-11.99 26.81,-28.22l0 -191.21c0,-87.49 -50.8,-139.7 -134.05,-139.7zm-25.4 313.98c-43.04,0 -71.27,-21.17 -71.27,-53.63 0,-32.45 25.4,-49.39 74.09,-49.39l102.3 0 0 8.47c0,52.21 -47.27,94.55 -105.12,94.55z"/>
  <path class="fil0" d="M9327.43 3797.29l-0.04 0.04c-6.74,-6.74 -16.05,-10.91 -26.32,-10.91 -20.56,0 -37.22,16.67 -37.22,37.22 0,10.27 4.18,19.56 10.9,26.3l-0.04 0.04 169.41 169.39 376.44 -376.44 -0.02 -0.02c6.74,-6.74 10.91,-16.05 10.91,-26.32 0,-20.55 -16.67,-37.22 -37.23,-37.22 -10.26,0 -19.58,4.17 -26.31,10.9l-0.04 -0.04 -323.75 323.75 -116.69 -116.69zm455.23 73.45c0,-1.96 0.14,-3.89 0.44,-5.77l0.02 -0.02 0.02 -0.26c2.05,-18.88 18,-33.53 37.42,-33.53 19.62,0 35.69,15.01 37.46,34.15 0.24,1.78 0.4,3.57 0.4,5.43 0,103.87 -42.13,197.98 -110.23,266.08l-2.2 2.02c-67.92,66.91 -161.15,108.22 -263.93,108.22 -103.81,0 -197.88,-42.15 -265.98,-110.24 -68.25,-68.1 -110.38,-162.21 -110.38,-266.08 0,-103.88 42.13,-197.98 110.24,-266.09l2.19 -2.01c67.93,-66.91 161.15,-108.22 263.93,-108.22 21.81,0 43.69,1.95 65.28,5.74 21.25,3.73 42.5,9.45 63.38,17.04 19.6,7.1 29.73,28.79 22.63,48.39 -7.1,19.6 -28.79,29.73 -48.39,22.63 -16.21,-5.9 -33.22,-10.43 -50.66,-13.5 -17.07,-2.99 -34.59,-4.54 -52.24,-4.54 -82.18,0 -156.65,32.91 -210.88,86.21l-1.69 1.81c-54.37,54.37 -88.03,129.54 -88.03,212.54 0,83 33.66,158.16 88.03,212.53 54.31,54.39 129.51,88.02 212.57,88.02 82.18,0 156.65,-32.91 210.88,-86.21l1.7 -1.81c54.37,-54.37 88.02,-129.53 88.02,-212.53z"/>
  <path class="fil2" d="M10547.29 4718.99l-239.89 0c-16.93,0 -28.92,12.7 -28.92,28.93l0 407.81c0,16.23 11.99,28.93 28.92,28.93l162.99 0c88.9,0 147.46,-54.33 147.46,-135.47 0,-81.84 -58.56,-136.17 -147.46,-136.17l-136.88 0 0 -144.64 213.78 0c14.12,0 25.4,-10.58 25.4,-24.7 0,-13.4 -11.28,-24.69 -25.4,-24.69zm-82.55 244.12c59.98,0 96.67,32.46 96.67,86.08 0,53.63 -36.69,86.08 -96.67,86.08l-131.23 0 0 -172.16 131.23 0zm395.11 -129.82c-98.07,0 -175.68,79.02 -175.68,179.92 0,102.31 77.61,179.21 182.03,179.21 44.45,0 85.38,-14.11 119.24,-42.33 9.88,-9.17 13.41,-15.52 13.41,-24.7 0,-14.11 -10.59,-23.99 -23.99,-23.99 -6.35,0 -12.7,2.83 -18.35,7.77 -24.69,21.16 -55.74,33.16 -89.6,33.16 -69.15,0 -119.24,-45.16 -126.3,-112.89l242.72 0c21.16,0 33.16,-11.29 33.16,-33.87l0 -3.53c0,-92.43 -65.62,-158.75 -156.64,-158.75zm-1.41 49.39c59.97,0 100.9,40.92 102.31,98.78l-218.02 0c11.99,-58.56 57.15,-98.78 115.71,-98.78zm436.74 120.65c26.82,-16.93 41.63,-43.74 41.63,-76.2 0,-57.86 -47.98,-93.84 -124.18,-93.84 -45.15,0 -86.78,15.52 -113.59,40.22 -8.47,7.76 -11.29,13.4 -11.29,20.46 0,13.4 11.29,24.69 25.4,24.69 6.35,0 12.7,-2.82 19.76,-9.17 17.63,-16.93 43.74,-26.1 77.61,-26.1 46.56,0 70.55,16.93 70.55,47.97 0,30.34 -22.58,47.28 -62.09,47.28l-42.33 0c-14.11,0 -24.69,9.87 -24.69,23.99 0,13.4 10.58,23.98 24.69,23.98l40.92 0c49.39,0 79.02,21.17 79.02,55.74 0,37.4 -31.75,59.98 -83.96,59.98 -35.27,0 -64.2,-11.29 -85.37,-32.46 -7.76,-7.76 -13.41,-10.58 -21.87,-10.58 -14.11,0 -25.4,10.58 -25.4,24.69 0,7.06 3.53,12.7 11.99,21.87 27.52,29.64 71.26,46.57 121.36,46.57 81.84,0 138.99,-42.33 138.99,-103.72 0,-37.39 -21.87,-68.44 -57.15,-85.37zm543.29 -170.04c-53.62,0 -99.48,22.58 -126.3,57.86l0 -31.05c0,-15.52 -11.99,-27.51 -26.81,-27.51 -16.23,0 -27.51,11.99 -27.51,27.51l0 431.81c0,15.52 11.28,28.22 27.51,28.22 14.82,0 26.81,-12 26.81,-28.22l0 -157.34c26.82,35.27 73.38,57.85 126.3,57.85 97.37,0 170.04,-76.9 170.04,-179.92 0,-102.3 -72.67,-179.21 -170.04,-179.21zm-7.76 309.04c-71.97,0 -119.24,-52.22 -119.24,-129.83 0,-76.9 47.98,-129.11 119.24,-129.11 70.55,0 122.06,55.03 122.06,129.82 0,74.08 -51.51,129.12 -122.06,129.12zm424.04 -309.04c-98.07,0 -175.68,79.02 -175.68,179.92 0,102.31 77.61,179.21 182.03,179.21 44.45,0 85.38,-14.11 119.24,-42.33 9.88,-9.17 13.41,-15.52 13.41,-24.7 0,-14.11 -10.59,-23.99 -23.99,-23.99 -6.35,0 -12.7,2.83 -18.35,7.77 -24.69,21.16 -55.74,33.16 -89.6,33.16 -69.15,0 -119.24,-45.16 -126.3,-112.89l242.72 0c21.16,0 33.16,-11.29 33.16,-33.87l0 -3.53c0,-92.43 -65.62,-158.75 -156.64,-158.75zm-1.41 49.39c59.97,0 100.9,40.92 102.31,98.78l-218.02 0c11.99,-58.56 57.15,-98.78 115.71,-98.78zm285.04 309.74c15.53,0 26.81,-12.7 26.81,-28.22l0 -274.46 162.28 0c14.11,0 25.4,-10.59 25.4,-24.7 0,-13.4 -11.29,-23.99 -25.4,-23.99l-188.38 0c-16.23,0 -28.22,12.7 -28.22,28.22l0 294.93c0,15.52 11.28,28.22 27.51,28.22zm551.05 -359.13c-9.88,0 -16.94,4.94 -25.4,16.23l-186.98 248.36 0 -236.37c0,-15.52 -11.99,-28.22 -26.81,-28.22 -16.23,0 -27.51,12.7 -27.51,28.22l0 302.69c0,15.52 11.28,28.22 26.81,28.22 8.46,0 16.23,-4.94 25.4,-15.52l186.97 -243.42 0 230.72c0,15.52 12,28.22 26.81,28.22 15.52,0 27.52,-12.7 27.52,-28.22l0 -302.69c0,-15.52 -12,-28.22 -26.81,-28.22zm306.21 359.13c62.09,0 110.77,-29.63 139.7,-71.26 4.23,-6.35 4.94,-10.58 4.94,-14.82 0,-14.11 -11.29,-24.69 -25.4,-24.69 -5.65,0 -12,1.41 -19.05,9.17 -23.29,28.93 -55.04,51.51 -99.49,51.51 -71.26,0 -124.88,-55.74 -124.88,-129.83 0,-73.37 54.33,-129.11 124.88,-129.11 44.45,0 76.2,22.57 99.49,51.5 7.05,8.47 13.4,9.88 19.75,9.88 13.41,0 24.7,-11.29 24.7,-24.7 0,-4.23 -0.71,-8.46 -4.94,-14.81 -28.23,-42.34 -77.61,-71.97 -139.7,-71.97 -100.19,0 -179.92,79.02 -179.92,179.21 0,100.19 79.73,179.92 179.92,179.92zm337.25 0c14.82,0 26.81,-12.7 26.81,-28.22l0 -274.46 100.19 0c14.11,0 24.7,-10.59 24.7,-24.7 0,-13.4 -10.59,-23.99 -24.7,-23.99l-254 0c-14.11,0 -25.4,10.59 -25.4,23.99 0,14.11 11.29,24.7 25.4,24.7l100.19 0 0 274.46c0,15.52 11.99,28.22 26.81,28.22zm408.52 -359.13c-53.62,0 -99.48,22.58 -126.3,57.86l0 -31.05c0,-15.52 -11.99,-27.51 -26.81,-27.51 -16.23,0 -27.51,11.99 -27.51,27.51l0 431.81c0,15.52 11.28,28.22 27.51,28.22 14.82,0 26.81,-12 26.81,-28.22l0 -157.34c26.82,35.27 73.38,57.85 126.3,57.85 97.37,0 170.04,-76.9 170.04,-179.92 0,-102.3 -72.67,-179.21 -170.04,-179.21zm-7.76 309.04c-71.97,0 -119.24,-52.22 -119.24,-129.83 0,-76.9 47.98,-129.11 119.24,-129.11 70.55,0 122.06,55.03 122.06,129.82 0,74.08 -51.51,129.12 -122.06,129.12zm396.53 -309.04c-50.1,0 -95.96,19.05 -125.59,53.62 -7.06,7.76 -9.88,15.53 -9.88,23.29 0,11.29 11.29,22.58 24.69,22.58 7.06,0 14.11,-3.53 21.17,-10.59 23.99,-25.4 52.92,-38.8 86.08,-38.8 52.91,0 83.25,31.04 83.25,86.78l0 29.63 -108.65 0c-74.79,0 -123.48,38.1 -123.48,95.96 0,57.86 47.98,96.66 119.95,96.66 47.98,0 86.78,-17.64 112.18,-47.98l0 19.76c0,15.52 12,28.22 27.52,28.22 14.82,0 26.81,-11.99 26.81,-28.22l0 -191.21c0,-87.49 -50.8,-139.7 -134.05,-139.7zm-25.4 313.98c-43.04,0 -71.27,-21.17 -71.27,-53.63 0,-32.45 25.4,-49.39 74.09,-49.39l102.3 0 0 8.47c0,52.21 -47.27,94.55 -105.12,94.55zm522.82 -313.98c-16.23,0 -27.52,12.7 -27.52,28.22l0 275.17 -162.28 0 0 -275.17c0,-15.52 -11.99,-28.22 -26.81,-28.22 -16.23,0 -27.51,12.7 -27.51,28.22l0 294.93c0,15.52 11.99,28.22 28.22,28.22l244.12 0 0 79.02c0,15.53 11.29,28.23 27.52,28.23 15.52,0 26.81,-12.7 26.81,-28.23l0 -98.78c0,-16.22 -12.7,-28.22 -28.22,-28.22l-27.52 0 0 -275.17c0,-15.52 -11.29,-28.22 -26.81,-28.22zm441.68 0c-9.88,0 -16.94,4.94 -25.4,16.23l-186.98 248.36 0 -236.37c0,-15.52 -11.99,-28.22 -26.81,-28.22 -16.23,0 -27.51,12.7 -27.51,28.22l0 302.69c0,15.52 11.28,28.22 26.81,28.22 8.46,0 16.23,-4.94 25.4,-15.52l186.97 -243.42 0 230.72c0,15.52 12,28.22 26.81,28.22 15.52,0 27.52,-12.7 27.52,-28.22l0 -302.69c0,-15.52 -12,-28.22 -26.81,-28.22zm421.92 0c-9.88,0 -16.94,4.94 -25.4,16.23l-186.98 248.36 0 -236.37c0,-15.52 -11.99,-28.22 -26.81,-28.22 -16.23,0 -27.51,12.7 -27.51,28.22l0 302.69c0,15.52 11.28,28.22 26.81,28.22 8.46,0 16.23,-4.94 25.4,-15.52l186.97 -243.42 0 230.72c0,15.52 12,28.22 26.81,28.22 15.52,0 27.52,-12.7 27.52,-28.22l0 -302.69c0,-15.52 -12,-28.22 -26.81,-28.22zm-5355.19 705.55c-16.23,0 -26.82,12 -26.82,27.52l0 117.12 -176.39 0 0 -117.12c0,-15.52 -11.99,-27.52 -26.81,-27.52 -16.23,0 -27.51,12 -27.51,27.52l0 304.09c0,15.53 11.28,27.52 27.51,27.52 15.53,0 26.81,-11.99 26.81,-27.52l0 -138.99 176.39 0 0 138.99c0,15.53 11.29,27.52 26.82,27.52 14.81,0 26.81,-11.99 26.81,-27.52l0 -304.09c0,-15.52 -12,-27.52 -26.81,-27.52zm274.46 0c-50.1,0 -95.96,19.05 -125.59,53.62 -7.06,7.76 -9.88,15.53 -9.88,23.29 0,11.29 11.29,22.58 24.69,22.58 7.06,0 14.11,-3.53 21.17,-10.59 23.99,-25.4 52.92,-38.8 86.08,-38.8 52.91,0 83.25,31.04 83.25,86.78l0 29.63 -108.65 0c-74.79,0 -123.48,38.1 -123.48,95.96 0,57.86 47.98,96.66 119.95,96.66 47.98,0 86.78,-17.64 112.18,-47.98l0 19.76c0,15.52 12,28.22 27.52,28.22 14.82,0 26.81,-11.99 26.81,-28.22l0 -191.21c0,-87.49 -50.8,-139.7 -134.05,-139.7zm-25.4 313.98c-43.04,0 -71.27,-21.17 -71.27,-53.63 0,-32.45 25.4,-49.39 74.09,-49.39l102.3 0 0 8.47c0,52.21 -47.27,94.55 -105.12,94.55zm503.07 45.15c15.52,0 27.51,-11.99 27.51,-26.81l0 -275.87 170.75 0 0 275.87c0,14.82 11.29,26.81 26.81,26.81 16.23,0 28.22,-11.99 28.22,-26.81l0 -297.75c0,-14.81 -11.99,-26.81 -26.81,-26.81l-226.48 0c-15.53,0 -26.81,12 -26.81,26.81l0 297.75c0,14.82 11.28,26.81 26.81,26.81zm618.77 -351.37l-173.57 0c-16.23,0 -28.22,12.7 -28.22,28.22l0 27.52c0,150.99 -23.28,220.14 -80.43,243.42 -12.7,4.94 -19.76,13.41 -19.76,23.99 0,13.4 11.29,24.69 25.4,24.69 7.76,0 14.82,-2.11 23.28,-5.64 71.27,-30.34 105.84,-115.71 105.84,-258.24l0 -35.27 122.06 0 0 274.46c0,15.52 11.29,28.22 26.81,28.22 14.82,0 26.81,-12.7 26.81,-28.22l0 -294.93c0,-15.52 -12.7,-28.22 -28.22,-28.22zm306.92 -7.76c-100.9,0 -179.92,78.32 -179.92,179.21 0,99.49 79.02,178.51 179.21,179.22 100.9,0 180.62,-79.73 180.62,-179.22 0,-100.19 -79.72,-179.21 -179.91,-179.21zm0 50.1c70.55,0 124.17,55.74 124.17,129.82 0,72.67 -54.32,128.41 -124.88,128.41 -70.56,0 -123.47,-55.03 -123.47,-128.41 -0.71,-74.08 52.91,-129.82 124.18,-129.82zm788.1 408.52c15.53,0 26.82,-12.7 26.82,-28.23l0 -98.78c0,-16.22 -12.7,-28.22 -28.23,-28.22l-27.51 0 0 -275.17c0,-15.52 -11.29,-28.22 -26.81,-28.22 -16.23,0 -27.52,12.7 -27.52,28.22l0 275.17 -158.05 0 0 -275.17c0,-15.52 -11.99,-28.22 -26.81,-28.22 -16.23,0 -27.51,12.7 -27.51,28.22l0 275.17 -158.76 0 0 -275.17c0,-15.52 -11.99,-28.22 -26.81,-28.22 -16.23,0 -27.51,12.7 -27.51,28.22l0 294.93c0,15.52 11.99,28.22 28.22,28.22l452.97 0 0 79.02c0,15.53 11.29,28.23 27.51,28.23zm238.49 -458.62c-50.1,0 -95.96,19.05 -125.59,53.62 -7.06,7.76 -9.88,15.53 -9.88,23.29 0,11.29 11.29,22.58 24.69,22.58 7.06,0 14.11,-3.53 21.17,-10.59 23.99,-25.4 52.92,-38.8 86.08,-38.8 52.91,0 83.25,31.04 83.25,86.78l0 29.63 -108.65 0c-74.79,0 -123.48,38.1 -123.48,95.96 0,57.86 47.98,96.66 119.95,96.66 47.98,0 86.78,-17.64 112.18,-47.98l0 19.76c0,15.52 12,28.22 27.52,28.22 14.82,0 26.81,-11.99 26.81,-28.22l0 -191.21c0,-87.49 -50.8,-139.7 -134.05,-139.7zm-25.4 313.98c-43.04,0 -71.27,-21.17 -71.27,-53.63 0,-32.45 25.4,-49.39 74.09,-49.39l102.3 0 0 8.47c0,52.21 -47.27,94.55 -105.12,94.55zm596.2 -10.59l-28.93 0 0 -267.41c0,-15.52 -12.7,-28.22 -28.22,-28.22l-165.1 0c-15.53,0 -28.23,12 -28.23,27.52l0 0.7c0,139.71 -20.46,220.14 -67.73,267.41l-7.06 0c-15.52,0 -28.22,12 -28.22,28.22l0 98.78c0,15.53 12,28.23 27.52,28.23 14.82,0 26.81,-12 26.81,-28.23l0 -79.02 273.05 0 0 79.02c0,15.53 11.29,28.23 27.52,28.23 14.82,0 26.81,-12 26.81,-28.23l0 -98.78c0,-16.22 -12.7,-28.22 -28.22,-28.22zm-196.15 -246.94l112.89 0 0 246.94 -171.45 0c41.63,-45.15 57.86,-118.53 58.56,-246.94zm344.31 -56.45c-16.23,0 -27.51,12.7 -27.51,28.22l0 302.69c0,15.52 11.28,28.22 27.51,28.22 15.53,0 26.81,-12.7 26.81,-28.22l0 -302.69c0,-15.52 -11.28,-28.22 -26.81,-28.22zm242.72 313.98l-135.47 -146.76 119.24 -121.36c4.94,-4.94 7.76,-11.99 7.76,-19.75 0,-14.11 -12,-26.11 -26.81,-26.11 -7.76,0 -14.11,2.82 -19.05,7.76l-134.76 138.29c-4.94,5.65 -7.77,12 -7.77,19.05 0,7.06 2.83,14.11 7.06,19.76l151.7 166.51c4.93,4.94 11.28,7.76 19.05,7.76 15.52,0 26.81,-11.99 26.81,-26.1 0,-7.77 -2.83,-14.82 -7.76,-19.05zm233.53 -313.98c-98.07,0 -175.68,79.02 -175.68,179.92 0,102.31 77.61,179.21 182.03,179.21 44.45,0 85.38,-14.11 119.24,-42.33 9.88,-9.17 13.41,-15.52 13.41,-24.7 0,-14.11 -10.59,-23.99 -23.99,-23.99 -6.35,0 -12.7,2.83 -18.35,7.77 -24.69,21.16 -55.74,33.16 -89.6,33.16 -69.15,0 -119.24,-45.16 -126.3,-112.89l242.72 0c21.16,0 33.16,-11.29 33.16,-33.87l0 -3.53c0,-92.43 -65.62,-158.75 -156.64,-158.75zm-1.41 49.39c59.97,0 100.9,40.92 102.31,98.78l-218.02 0c11.99,-58.56 57.15,-98.78 115.71,-98.78z"/>
  <path class="fil0" d="M9327.43 4882.31l-0.04 0.04c-6.74,-6.74 -16.05,-10.91 -26.32,-10.91 -20.56,0 -37.22,16.67 -37.22,37.23 0,10.26 4.18,19.55 10.9,26.29l-0.04 0.04 169.41 169.39 376.44 -376.44 -0.02 -0.02c6.74,-6.74 10.91,-16.05 10.91,-26.32 0,-20.55 -16.67,-37.22 -37.23,-37.22 -10.26,0 -19.58,4.17 -26.31,10.91l-0.04 -0.04 -323.75 323.74 -116.69 -116.69zm455.23 73.45c0,-1.96 0.14,-3.89 0.44,-5.76l0.02 -0.02 0.02 -0.26c2.05,-18.88 18,-33.54 37.42,-33.54 19.62,0 35.69,15.01 37.46,34.15 0.24,1.78 0.4,3.57 0.4,5.43 0,103.87 -42.13,197.98 -110.23,266.08l-2.2 2.02c-67.92,66.91 -161.15,108.22 -263.93,108.22 -103.81,0 -197.88,-42.15 -265.98,-110.24 -68.25,-68.1 -110.38,-162.21 -110.38,-266.08 0,-103.88 42.13,-197.98 110.24,-266.09l2.19 -2.01c67.93,-66.91 161.15,-108.22 263.93,-108.22 21.81,0 43.69,1.95 65.28,5.74 21.25,3.73 42.5,9.45 63.38,17.05 19.6,7.09 29.73,28.79 22.63,48.38 -7.1,19.6 -28.79,29.73 -48.39,22.63 -16.21,-5.9 -33.22,-10.42 -50.66,-13.49 -17.07,-2.99 -34.59,-4.55 -52.24,-4.55 -82.18,0 -156.65,32.92 -210.88,86.21l-1.69 1.81c-54.37,54.37 -88.03,129.54 -88.03,212.54 0,83 33.66,158.16 88.03,212.53 54.31,54.39 129.51,88.03 212.57,88.03 82.18,0 156.65,-32.92 210.88,-86.21l1.7 -1.82c54.37,-54.37 88.02,-129.53 88.02,-212.53z"/>
  <path class="fil2" d="M10547.29 6486.1l-239.89 0c-16.93,0 -28.92,12.7 -28.92,28.93l0 407.81c0,16.23 11.99,28.93 28.92,28.93l162.99 0c88.9,0 147.46,-54.33 147.46,-135.47 0,-81.84 -58.56,-136.17 -147.46,-136.17l-136.88 0 0 -144.64 213.78 0c14.12,0 25.4,-10.58 25.4,-24.7 0,-13.4 -11.28,-24.69 -25.4,-24.69zm-82.55 244.12c59.98,0 96.67,32.46 96.67,86.08 0,53.63 -36.69,86.08 -96.67,86.08l-131.23 0 0 -172.16 131.23 0zm395.11 -129.82c-98.07,0 -175.68,79.02 -175.68,179.92 0,102.31 77.61,179.21 182.03,179.21 44.45,0 85.38,-14.11 119.24,-42.33 9.88,-9.17 13.41,-15.52 13.41,-24.7 0,-14.11 -10.59,-23.99 -23.99,-23.99 -6.35,0 -12.7,2.83 -18.35,7.77 -24.69,21.16 -55.74,33.16 -89.6,33.16 -69.15,0 -119.24,-45.16 -126.3,-112.89l242.72 0c21.16,0 33.16,-11.29 33.16,-33.87l0 -3.53c0,-92.43 -65.62,-158.75 -156.64,-158.75zm-1.41 49.39c59.97,0 100.9,40.92 102.31,98.78l-218.02 0c11.99,-58.56 57.15,-98.78 115.71,-98.78zm436.74 120.65c26.82,-16.93 41.63,-43.74 41.63,-76.2 0,-57.86 -47.98,-93.84 -124.18,-93.84 -45.15,0 -86.78,15.52 -113.59,40.22 -8.47,7.76 -11.29,13.4 -11.29,20.46 0,13.4 11.29,24.69 25.4,24.69 6.35,0 12.7,-2.82 19.76,-9.17 17.63,-16.93 43.74,-26.1 77.61,-26.1 46.56,0 70.55,16.93 70.55,47.97 0,30.34 -22.58,47.28 -62.09,47.28l-42.33 0c-14.11,0 -24.69,9.87 -24.69,23.99 0,13.4 10.58,23.98 24.69,23.98l40.92 0c49.39,0 79.02,21.17 79.02,55.74 0,37.4 -31.75,59.98 -83.96,59.98 -35.27,0 -64.2,-11.29 -85.37,-32.46 -7.76,-7.76 -13.41,-10.58 -21.87,-10.58 -14.11,0 -25.4,10.58 -25.4,24.69 0,7.06 3.53,12.7 11.99,21.87 27.52,29.64 71.26,46.57 121.36,46.57 81.84,0 138.99,-42.33 138.99,-103.72 0,-37.39 -21.87,-68.44 -57.15,-85.37zm390.18 -170.04c-16.23,0 -27.51,12.7 -27.51,28.22l0 302.69c0,15.52 11.28,28.22 27.51,28.22 15.53,0 26.81,-12.7 26.81,-28.22l0 -302.69c0,-15.52 -11.28,-28.22 -26.81,-28.22zm242.72 313.98l-135.47 -146.76 119.24 -121.36c4.94,-4.94 7.76,-11.99 7.76,-19.75 0,-14.11 -12,-26.11 -26.81,-26.11 -7.76,0 -14.11,2.82 -19.05,7.76l-134.76 138.29c-4.94,5.65 -7.77,12 -7.77,19.05 0,7.06 2.83,14.11 7.06,19.76l151.7 166.51c4.93,4.94 11.28,7.76 19.05,7.76 15.52,0 26.81,-11.99 26.81,-26.1 0,-7.77 -2.83,-14.82 -7.76,-19.05zm237.77 -313.98c-100.9,0 -179.92,78.32 -179.92,179.21 0,99.49 79.02,178.51 179.21,179.22 100.9,0 180.62,-79.73 180.62,-179.22 0,-100.19 -79.72,-179.21 -179.91,-179.21zm0 50.1c70.55,0 124.17,55.74 124.17,129.82 0,72.67 -54.32,128.41 -124.88,128.41 -70.56,0 -123.47,-55.03 -123.47,-128.41 -0.71,-74.08 52.91,-129.82 124.18,-129.82zm306.91 309.03c15.53,0 26.81,-12.7 26.81,-28.22l0 -221.55 106.54 138.29c5.65,7.06 12,11.29 21.17,11.29 9.17,0 16.23,-4.23 21.17,-11.29l106.54 -138.29 0 221.55c0,15.52 11.29,28.22 26.81,28.22 16.23,0 27.51,-12.7 27.51,-28.22l0 -302.69c0,-15.52 -11.28,-28.22 -27.51,-28.22 -8.47,0 -16.23,4.23 -21.17,10.58l-133.35 180.63 -133.35 -180.63c-4.94,-6.35 -12.7,-10.58 -21.17,-10.58 -16.23,0 -27.51,12.7 -27.51,28.22l0 302.69c0,15.52 11.28,28.22 27.51,28.22zm731.67 -359.13c-9.88,0 -16.94,4.94 -25.4,16.23l-186.98 248.36 0 -236.37c0,-15.52 -11.99,-28.22 -26.81,-28.22 -16.23,0 -27.51,12.7 -27.51,28.22l0 302.69c0,15.52 11.28,28.22 26.81,28.22 8.46,0 16.23,-4.94 25.4,-15.52l186.97 -243.42 0 230.72c0,15.52 12,28.22 26.81,28.22 15.52,0 27.52,-12.7 27.52,-28.22l0 -302.69c0,-15.52 -12,-28.22 -26.81,-28.22zm306.21 359.13c62.09,0 110.77,-29.63 139.7,-71.26 4.23,-6.35 4.94,-10.58 4.94,-14.82 0,-14.11 -11.29,-24.69 -25.4,-24.69 -5.65,0 -12,1.41 -19.05,9.17 -23.29,28.93 -55.04,51.51 -99.49,51.51 -71.26,0 -124.88,-55.74 -124.88,-129.83 0,-73.37 54.33,-129.11 124.88,-129.11 44.45,0 76.2,22.57 99.49,51.5 7.05,8.47 13.4,9.88 19.75,9.88 13.41,0 24.7,-11.29 24.7,-24.7 0,-4.23 -0.71,-8.46 -4.94,-14.81 -28.23,-42.34 -77.61,-71.97 -139.7,-71.97 -100.19,0 -179.92,79.02 -179.92,179.21 0,100.19 79.73,179.92 179.92,179.92zm381.71 0c62.09,0 110.77,-29.63 139.7,-71.26 4.23,-6.35 4.94,-10.58 4.94,-14.82 0,-14.11 -11.29,-24.69 -25.4,-24.69 -5.65,0 -12,1.41 -19.05,9.17 -23.29,28.93 -55.04,51.51 -99.49,51.51 -71.26,0 -124.88,-55.74 -124.88,-129.83 0,-73.37 54.33,-129.11 124.88,-129.11 44.45,0 76.2,22.57 99.49,51.5 7.05,8.47 13.4,9.88 19.75,9.88 13.41,0 24.7,-11.29 24.7,-24.7 0,-4.23 -0.71,-8.46 -4.94,-14.81 -28.23,-42.34 -77.61,-71.97 -139.7,-71.97 -100.19,0 -179.92,79.02 -179.92,179.21 0,100.19 79.73,179.92 179.92,179.92zm504.47 -359.13c-9.88,0 -16.94,4.94 -25.4,16.23l-186.98 248.36 0 -236.37c0,-15.52 -11.99,-28.22 -26.81,-28.22 -16.23,0 -27.51,12.7 -27.51,28.22l0 302.69c0,15.52 11.28,28.22 26.81,28.22 8.46,0 16.23,-4.94 25.4,-15.52l186.97 -243.42 0 230.72c0,15.52 12,28.22 26.81,28.22 15.52,0 27.52,-12.7 27.52,-28.22l0 -302.69c0,-15.52 -12,-28.22 -26.81,-28.22zm301.97 -59.27c59.27,0 107.95,-46.56 107.95,-100.89 0,-14.11 -9.87,-24.7 -23.28,-24.7 -11.29,0 -21.17,9.18 -22.58,22.58 -3.53,33.16 -29.63,57.86 -62.09,57.86 -31.75,0 -58.56,-24.7 -61.38,-57.86 -1.41,-14.81 -9.88,-22.58 -23.28,-22.58 -12.7,0 -22.58,10.59 -22.58,24.7 0,52.92 50.09,100.89 107.24,100.89zm119.95 59.27c-9.88,0 -16.94,4.94 -25.4,16.23l-186.98 248.36 0 -236.37c0,-15.52 -11.99,-28.22 -26.81,-28.22 -16.23,0 -27.51,12.7 -27.51,28.22l0 302.69c0,15.52 11.28,28.22 26.81,28.22 8.46,0 16.23,-4.94 25.4,-15.52l186.97 -243.42 0 230.72c0,15.52 12,28.22 26.81,28.22 15.52,0 27.52,-12.7 27.52,-28.22l0 -302.69c0,-15.52 -12,-28.22 -26.81,-28.22z"/>
  <path class="fil0" d="M9327.43 6645.74l-0.04 0.04c-6.74,-6.74 -16.05,-10.9 -26.32,-10.9 -20.56,0 -37.22,16.66 -37.22,37.22 0,10.27 4.18,19.56 10.9,26.3l-0.04 0.04 169.41 169.39 376.44 -376.44 -0.02 -0.02c6.74,-6.74 10.91,-16.05 10.91,-26.32 0,-20.56 -16.67,-37.23 -37.23,-37.23 -10.26,0 -19.58,4.17 -26.31,10.91l-0.04 -0.04 -323.75 323.75 -116.69 -116.7zm455.23 73.45c0,-1.95 0.14,-3.89 0.44,-5.76l0.02 -0.02 0.02 -0.26c2.05,-18.88 18,-33.53 37.42,-33.53 19.62,0 35.69,15.01 37.46,34.15 0.24,1.77 0.4,3.57 0.4,5.42 0,103.88 -42.13,197.98 -110.23,266.09l-2.2 2.01c-67.92,66.91 -161.15,108.22 -263.93,108.22 -103.81,0 -197.88,-42.15 -265.98,-110.23 -68.25,-68.11 -110.38,-162.21 -110.38,-266.09 0,-103.87 42.13,-197.98 110.24,-266.08l2.19 -2.02c67.93,-66.91 161.15,-108.22 263.93,-108.22 21.81,0 43.69,1.95 65.28,5.74 21.25,3.73 42.5,9.45 63.38,17.05 19.6,7.1 29.73,28.79 22.63,48.39 -7.1,19.6 -28.79,29.72 -48.39,22.63 -16.21,-5.9 -33.22,-10.43 -50.66,-13.5 -17.07,-2.99 -34.59,-4.55 -52.24,-4.55 -82.18,0 -156.65,32.92 -210.88,86.21l-1.69 1.82c-54.37,54.37 -88.03,129.53 -88.03,212.53 0,83 33.66,158.17 88.03,212.54 54.31,54.38 129.51,88.02 212.57,88.02 82.18,0 156.65,-32.92 210.88,-86.21l1.7 -1.81c54.37,-54.37 88.02,-129.54 88.02,-212.54z"/>
  <path class="fil3" d="M1094.11 5005.03l-126.47 -298.98c-5.29,-12.7 -14.28,-19.05 -26.98,-19.05 -12.18,0 -21.17,6.35 -26.46,19.05l-126.47 298.98c-3.18,6.35 -4.24,11.64 -4.24,15.87 0,14.82 12.17,26.99 27.52,26.99 12.7,0 21.69,-6.88 26.46,-19.58l20.63 -49.21 164.58 0 21.69 49.21c5.29,12.7 13.76,19.58 26.46,19.58 15.35,0 27.52,-12.17 27.52,-26.99 0,-4.23 -1.59,-9.52 -4.24,-15.87zm-153.45 -236.01l61.91 162.45 -124.89 0 62.98 -162.45zm432.33 82.55c18.52,-15.88 29.11,-38.63 29.11,-65.62 0,-55.56 -42.34,-93.13 -104.78,-93.13l-93.13 0c-16.94,0 -29.11,12.17 -29.11,29.1l0 291.05c0,16.93 12.17,29.1 29.11,29.1l120.65 0c67.2,0 113.24,-41.28 113.24,-101.6 0,-43.39 -24.34,-75.67 -65.09,-88.9zm-80.96 -109.54c33.86,0 53.44,16.93 53.44,46.57 0,30.16 -20.1,47.62 -53.44,47.62l-61.92 0 0 -94.19 61.92 0zm28.04 250.83l-89.96 0 0 -108.48 89.96 0c38.1,0 60.86,20.63 60.86,54.5 0,33.87 -22.76,53.98 -60.86,53.98zm293.7 55.03c15.87,0 28.04,-12.17 28.04,-28.57l0 -276.23 94.73 0c14.81,0 25.93,-10.58 25.93,-24.87 0,-14.29 -11.12,-25.4 -25.93,-25.4l-245.01 0c-14.82,0 -25.93,11.11 -25.93,25.4 0,14.29 11.11,24.87 25.93,24.87l94.19 0 0 276.23c0,16.4 12.17,28.57 28.05,28.57zm365.13 -360.89c-102.66,0 -183.1,79.37 -183.1,180.44 0,101.08 80.44,180.45 183.1,180.45 102.66,0 183.62,-79.37 183.62,-180.45 0,-100.54 -80.96,-180.44 -183.62,-180.44zm0.53 51.33c71.96,0 125.41,55.03 125.41,128.58 0,74.62 -53.45,129.65 -125.41,129.65 -72.5,0 -125.42,-54.5 -125.42,-129.65 0,-74.08 52.92,-128.58 125.42,-128.58zm569.38 -51.33c-12.17,0 -20.1,5.29 -30.69,22.75l-107.95 169.34 -107.95 -169.34c-10.58,-17.46 -18.52,-22.75 -30.69,-22.75 -15.35,0 -26.99,12.17 -26.99,28.57l0 303.75c0,16.4 12.17,28.57 28.05,28.57 15.87,0 28.04,-12.17 28.04,-28.57l0 -212.73 81.5 128.06c7.93,13.23 16.4,18.52 28.04,18.52 11.64,0 19.58,-5.29 28.05,-18.52l81.49 -128.06 0 212.73c0,16.4 12.17,28.57 28.05,28.57 15.87,0 28.04,-12.17 28.04,-28.57l0 -303.75c0,-16.4 -11.64,-28.57 -26.99,-28.57zm414.34 318.03l-126.47 -298.98c-5.29,-12.7 -14.28,-19.05 -26.98,-19.05 -12.18,0 -21.17,6.35 -26.46,19.05l-126.47 298.98c-3.18,6.35 -4.24,11.64 -4.24,15.87 0,14.82 12.17,26.99 27.52,26.99 12.7,0 21.69,-6.88 26.46,-19.58l20.63 -49.21 164.58 0 21.69 49.21c5.29,12.7 13.76,19.58 26.46,19.58 15.35,0 27.52,-12.17 27.52,-26.99 0,-4.23 -1.59,-9.52 -4.24,-15.87zm-153.45 -236.01l61.91 162.45 -124.89 0 62.98 -162.45zm304.8 278.87c15.87,0 28.04,-12.17 28.04,-28.57l0 -276.23 94.73 0c14.81,0 25.93,-10.58 25.93,-24.87 0,-14.29 -11.12,-25.4 -25.93,-25.4l-245.01 0c-14.82,0 -25.93,11.11 -25.93,25.4 0,14.29 11.11,24.87 25.93,24.87l94.19 0 0 276.23c0,16.4 12.17,28.57 28.05,28.57zm478.9 -360.89c-12.17,0 -18.52,5.29 -24.87,14.28l-184.68 241.84 0 -227.55c0,-16.4 -11.64,-28.57 -28.04,-28.57 -15.88,0 -28.05,12.17 -28.05,28.57l0 304.8c0,15.35 12.7,27.52 28.05,27.52 9.52,0 16.4,-3.17 22.75,-11.64l186.27 -242.89 0 225.96c0,16.4 12.17,28.57 28.05,28.57 16.4,0 28.04,-12.17 28.04,-28.57l0 -304.81c0,-15.34 -12.17,-27.51 -27.52,-27.51zm316.98 167.74c21.69,-16.4 34.39,-40.74 34.39,-69.85 0,-56.09 -48.15,-97.89 -113.24,-97.89 -41.8,0 -81.49,17.99 -105.83,48.68 -5.29,6.35 -7.41,11.11 -7.41,17.99 0,13.76 11.64,25.4 25.93,25.4 6.88,0 13.76,-3.17 19.58,-9.52 17.99,-20.11 41.8,-31.22 67.73,-31.22 33.87,0 56.62,20.1 56.62,50.27 0,29.1 -20.63,47.62 -52.91,47.62l-34.93 0c-14.29,0 -24.87,10.59 -24.87,23.82 0,13.75 10.58,24.34 24.87,24.34l48.68 0c35.99,0 60.86,21.16 60.86,52.91 0,34.4 -30.16,59.27 -73.03,59.27 -31.22,0 -57.68,-12.7 -81.49,-39.69 -6.35,-6.88 -12.17,-9.52 -19.58,-9.52 -14.29,0 -26.46,11.11 -26.46,25.4 0,5.29 2.12,11.11 6.88,17.46 27.52,36.51 71.97,57.68 121.18,57.68 74.62,0 129.12,-45.51 129.12,-107.95 0,-39.16 -21.17,-69.85 -56.09,-85.2zm403.22 -167.74c-12.17,0 -18.52,5.29 -24.87,14.28l-184.68 241.84 0 -227.55c0,-16.4 -11.64,-28.57 -28.04,-28.57 -15.88,0 -28.05,12.17 -28.05,28.57l0 304.8c0,15.35 12.7,27.52 28.05,27.52 9.52,0 16.4,-3.17 22.75,-11.64l186.27 -242.89 0 225.96c0,16.4 12.17,28.57 28.05,28.57 16.4,0 28.04,-12.17 28.04,-28.57l0 -304.81c0,-15.34 -12.17,-27.51 -27.52,-27.51zm158.23 360.89c15.87,0 28.04,-12.17 28.04,-28.57l0 -112.19 70.91 0c70.38,0 118.54,-43.92 118.54,-107.42 0,-64.03 -47.63,-106.89 -118.54,-106.89l-97.89 0c-16.94,0 -29.11,12.17 -29.11,29.1l0 297.4c0,16.4 12.17,28.57 28.05,28.57zm28.04 -190.5l0 -114.83 70.38 0c38.1,0 61.39,22.22 61.39,57.68 0,35.45 -23.29,57.15 -61.39,57.15l-70.38 0zm429.17 -170.39c-102.66,0 -183.1,79.37 -183.1,180.44 0,101.08 80.44,180.45 183.1,180.45 102.66,0 183.62,-79.37 183.62,-180.45 0,-100.54 -80.96,-180.44 -183.62,-180.44zm0.53 51.33c71.96,0 125.41,55.03 125.41,128.58 0,74.62 -53.45,129.65 -125.41,129.65 -72.5,0 -125.42,-54.5 -125.42,-129.65 0,-74.08 52.92,-128.58 125.42,-128.58zm463.02 113.24c18.52,-15.88 29.11,-38.63 29.11,-65.62 0,-55.56 -42.34,-93.13 -104.78,-93.13l-93.13 0c-16.94,0 -29.11,12.17 -29.11,29.1l0 291.05c0,16.93 12.17,29.1 29.11,29.1l120.65 0c67.2,0 113.24,-41.28 113.24,-101.6 0,-43.39 -24.34,-75.67 -65.09,-88.9zm-80.96 -109.54c33.86,0 53.44,16.93 53.44,46.57 0,30.16 -20.1,47.62 -53.44,47.62l-61.92 0 0 -94.19 61.92 0zm28.04 250.83l-89.96 0 0 -108.48 89.96 0c38.1,0 60.86,20.63 60.86,54.5 0,33.87 -22.76,53.98 -60.86,53.98zm476.26 12.17l-126.47 -298.98c-5.29,-12.7 -14.28,-19.05 -26.98,-19.05 -12.18,0 -21.17,6.35 -26.46,19.05l-126.47 298.98c-3.18,6.35 -4.24,11.64 -4.24,15.87 0,14.82 12.17,26.99 27.52,26.99 12.7,0 21.69,-6.88 26.46,-19.58l20.63 -49.21 164.58 0 21.69 49.21c5.29,12.7 13.76,19.58 26.46,19.58 15.35,0 27.52,-12.17 27.52,-26.99 0,-4.23 -1.59,-9.52 -4.24,-15.87zm-153.45 -236.01l61.91 162.45 -124.89 0 62.98 -162.45zm262.47 278.87c15.87,0 28.04,-12.17 28.04,-28.57l0 -137.06 175.69 0 0 137.06c0,16.4 12.17,28.57 28.04,28.57 15.88,0 28.05,-12.17 28.05,-28.57l0 -303.75c0,-16.4 -11.64,-28.57 -28.05,-28.57 -16.4,0 -28.04,12.17 -28.04,28.57l0 116.42 -175.69 0 0 -116.42c0,-16.4 -11.64,-28.57 -28.04,-28.57 -16.41,0 -28.05,12.17 -28.05,28.57l0 303.75c0,16.4 12.17,28.57 28.05,28.57zm390.53 0c15.87,0 28.04,-12.17 28.04,-28.57l0 -137.06 175.69 0 0 137.06c0,16.4 12.17,28.57 28.04,28.57 15.88,0 28.05,-12.17 28.05,-28.57l0 -303.75c0,-16.4 -11.64,-28.57 -28.05,-28.57 -16.4,0 -28.04,12.17 -28.04,28.57l0 116.42 -175.69 0 0 -116.42c0,-16.4 -11.64,-28.57 -28.04,-28.57 -16.41,0 -28.05,12.17 -28.05,28.57l0 303.75c0,16.4 12.17,28.57 28.05,28.57zm647.17 -42.86l-126.47 -298.98c-5.29,-12.7 -14.28,-19.05 -26.98,-19.05 -12.18,0 -21.17,6.35 -26.46,19.05l-126.47 298.98c-3.18,6.35 -4.24,11.64 -4.24,15.87 0,14.82 12.17,26.99 27.52,26.99 12.7,0 21.69,-6.88 26.46,-19.58l20.63 -49.21 164.58 0 21.69 49.21c5.29,12.7 13.76,19.58 26.46,19.58 15.35,0 27.52,-12.17 27.52,-26.99 0,-4.23 -1.59,-9.52 -4.24,-15.87zm-153.45 -236.01l61.91 162.45 -124.89 0 62.98 -162.45zm449.79 -76.2l-91.01 0c-75.68,0 -127,46.04 -127,114.3 0,43.92 20.63,78.32 55.56,97.89l-66.15 96.84c-4.23,6.35 -6.35,11.64 -6.35,17.99 0,15.88 12.17,28.05 27.52,28.05 8.99,0 16.93,-3.17 22.75,-12.17l76.2 -114.83c5.3,0.53 11.65,1.06 17.47,1.06l64.03 0 0 97.37c0,16.4 11.64,28.57 28.04,28.57 15.88,0 28.05,-12.17 28.05,-28.57l0 -297.4c0,-16.93 -12.7,-29.1 -29.11,-29.1zm-26.98 179.39l-64.56 0c-41.28,0 -68.8,-25.93 -68.8,-65.09 0,-38.63 27.52,-64.56 68.8,-64.56l64.56 0 0 129.65zm-6394.54 810.67c15.87,0 28.04,-12.17 28.04,-28.57l0 -276.23 162.99 0 0 276.23c0,16.4 11.64,28.57 28.04,28.57 15.88,0 28.05,-12.17 28.05,-28.57l0 -297.4c0,-16.93 -12.7,-29.1 -29.1,-29.1l-216.96 0c-16.94,0 -29.11,12.17 -29.11,29.1l0 297.4c0,16.4 12.17,28.57 28.05,28.57zm511.71 -360.89c-102.66,0 -183.1,79.37 -183.1,180.44 0,101.08 80.44,180.45 183.1,180.45 102.66,0 183.62,-79.37 183.62,-180.45 0,-100.54 -80.96,-180.44 -183.62,-180.44zm0.53 51.33c71.96,0 125.41,55.03 125.41,128.58 0,74.62 -53.45,129.65 -125.41,129.65 -72.5,0 -125.42,-54.5 -125.42,-129.65 0,-74.08 52.92,-128.58 125.42,-128.58zm540.28 253.47l-15.34 0 0 -269.88c0,-16.93 -12.7,-29.1 -29.11,-29.1l-145.52 0c-16.93,0 -29.11,12.17 -29.11,29.1l0 20.64c0,122.77 -21.69,201.61 -69.85,249.24l-1.05 0c-16.41,0 -29.11,12.17 -29.11,28.57l0 73.56c0,16.4 12.17,28.57 28.05,28.57 16.4,0 28.04,-12.17 28.04,-28.57l0 -51.86 235.48 0 0 51.86c0,16.4 12.18,28.57 28.05,28.57 16.4,0 28.05,-12.17 28.05,-28.57l0 -73.56c0,-16.4 -12.17,-28.57 -28.58,-28.57zm-165.63 -248.71l94.19 0 0 248.71 -157.69 0c42.86,-50.8 62.44,-129.65 63.5,-248.71zm553.51 261.94l-126.47 -298.98c-5.29,-12.7 -14.28,-19.05 -26.98,-19.05 -12.18,0 -21.17,6.35 -26.46,19.05l-126.47 298.98c-3.18,6.35 -4.24,11.64 -4.24,15.87 0,14.82 12.17,26.99 27.52,26.99 12.7,0 21.69,-6.88 26.46,-19.58l20.63 -49.21 164.58 0 21.69 49.21c5.29,12.7 13.76,19.58 26.46,19.58 15.35,0 27.52,-12.17 27.52,-26.99 0,-4.23 -1.59,-9.52 -4.24,-15.87zm-153.45 -236.01l61.91 162.45 -124.89 0 62.98 -162.45zm427.04 -82.02c-15.88,0 -28.05,12.17 -28.05,28.57l0 144.99c-20.64,7.94 -44.98,12.7 -65.62,12.7 -56.62,0 -90.48,-34.92 -90.48,-93.66l0 -64.03c0,-16.4 -11.65,-28.57 -28.05,-28.57 -15.87,0 -28.05,12.17 -28.05,28.57l0 68.79c0,86.79 55.57,140.76 144.47,140.76 22.75,0 46.56,-3.7 67.73,-10.58l0 104.78c0,16.4 12.17,28.57 28.05,28.57 16.4,0 28.04,-12.17 28.04,-28.57l0 -303.75c0,-16.4 -11.64,-28.57 -28.04,-28.57zm415.39 318.03l-126.47 -298.98c-5.29,-12.7 -14.28,-19.05 -26.98,-19.05 -12.18,0 -21.17,6.35 -26.46,19.05l-126.47 298.98c-3.18,6.35 -4.24,11.64 -4.24,15.87 0,14.82 12.17,26.99 27.52,26.99 12.7,0 21.69,-6.88 26.46,-19.58l20.63 -49.21 164.58 0 21.69 49.21c5.29,12.7 13.76,19.58 26.46,19.58 15.35,0 27.52,-12.17 27.52,-26.99 0,-4.23 -1.59,-9.52 -4.24,-15.87zm-153.45 -236.01l61.91 162.45 -124.89 0 62.98 -162.45zm554.57 85.72c21.69,-16.4 34.39,-40.74 34.39,-69.85 0,-56.09 -48.15,-97.89 -113.24,-97.89 -41.8,0 -81.49,17.99 -105.83,48.68 -5.29,6.35 -7.41,11.11 -7.41,17.99 0,13.76 11.64,25.4 25.93,25.4 6.88,0 13.76,-3.17 19.58,-9.52 17.99,-20.11 41.8,-31.22 67.73,-31.22 33.87,0 56.62,20.1 56.62,50.27 0,29.1 -20.63,47.62 -52.91,47.62l-34.93 0c-14.29,0 -24.87,10.59 -24.87,23.82 0,13.75 10.58,24.34 24.87,24.34l48.68 0c35.99,0 60.86,21.16 60.86,52.91 0,34.4 -30.16,59.27 -73.03,59.27 -31.22,0 -57.68,-12.7 -81.49,-39.69 -6.35,-6.88 -12.17,-9.52 -19.58,-9.52 -14.29,0 -26.46,11.11 -26.46,25.4 0,5.29 2.12,11.11 6.88,17.46 27.52,36.51 71.97,57.68 121.18,57.68 74.62,0 129.12,-45.51 129.12,-107.95 0,-39.16 -21.17,-69.85 -56.09,-85.2zm416.98 150.29l-126.47 -298.98c-5.29,-12.7 -14.28,-19.05 -26.98,-19.05 -12.18,0 -21.17,6.35 -26.46,19.05l-126.47 298.98c-3.18,6.35 -4.24,11.64 -4.24,15.87 0,14.82 12.17,26.99 27.52,26.99 12.7,0 21.69,-6.88 26.46,-19.58l20.63 -49.21 164.58 0 21.69 49.21c5.29,12.7 13.76,19.58 26.46,19.58 15.35,0 27.52,-12.17 27.52,-26.99 0,-4.23 -1.59,-9.52 -4.24,-15.87zm-153.45 -236.01l61.91 162.45 -124.89 0 62.98 -162.45zm449.79 -76.2l-91.01 0c-75.68,0 -127,46.04 -127,114.3 0,43.92 20.63,78.32 55.56,97.89l-66.15 96.84c-4.23,6.35 -6.35,11.64 -6.35,17.99 0,15.88 12.17,28.05 27.52,28.05 8.99,0 16.93,-3.17 22.75,-12.17l76.2 -114.83c5.3,0.53 11.65,1.06 17.47,1.06l64.03 0 0 97.37c0,16.4 11.64,28.57 28.04,28.57 15.88,0 28.05,-12.17 28.05,-28.57l0 -297.4c0,-16.93 -12.7,-29.1 -29.11,-29.1zm-26.98 179.39l-64.56 0c-41.28,0 -68.8,-25.93 -68.8,-65.09 0,-38.63 27.52,-64.56 68.8,-64.56l64.56 0 0 129.65zm356.13 -20.64c18.52,-15.88 29.11,-38.63 29.11,-65.62 0,-55.56 -42.34,-93.13 -104.78,-93.13l-93.13 0c-16.94,0 -29.11,12.17 -29.11,29.1l0 291.05c0,16.93 12.17,29.1 29.11,29.1l120.65 0c67.2,0 113.24,-41.28 113.24,-101.6 0,-43.39 -24.34,-75.67 -65.09,-88.9zm-80.96 -109.54c33.86,0 53.44,16.93 53.44,46.57 0,30.16 -20.1,47.62 -53.44,47.62l-61.92 0 0 -94.19 61.92 0zm28.04 250.83l-89.96 0 0 -108.48 89.96 0c38.1,0 60.86,20.63 60.86,54.5 0,33.87 -22.76,53.98 -60.86,53.98zm358.79 -305.86c-102.66,0 -183.1,79.37 -183.1,180.44 0,101.08 80.44,180.45 183.1,180.45 102.66,0 183.62,-79.37 183.62,-180.45 0,-100.54 -80.96,-180.44 -183.62,-180.44zm0.53 51.33c71.96,0 125.41,55.03 125.41,128.58 0,74.62 -53.45,129.65 -125.41,129.65 -72.5,0 -125.42,-54.5 -125.42,-129.65 0,-74.08 52.92,-128.58 125.42,-128.58zm293.16 -51.33c-16.41,0 -28.05,12.17 -28.05,28.57l0 303.75c0,16.4 12.17,28.57 28.05,28.57 15.87,0 28.04,-12.17 28.04,-28.57l0 -303.75c0,-16.4 -12.17,-28.57 -28.04,-28.57zm238.65 316.44l-135.99 -147.64 122.23 -122.77c6.88,-7.4 9.53,-13.22 9.53,-20.63 0,-14.29 -11.11,-25.4 -25.4,-25.4 -7.94,0 -13.76,3.17 -20.64,10.05l-139.17 140.23c-5.29,5.82 -8.47,12.17 -8.47,18.52 0,6.88 3.18,13.23 8.47,19.05l149.76 161.93c6.87,7.41 14.28,11.11 22.75,11.11 13.76,0 25.93,-11.64 25.93,-25.93 0,-6.88 -2.65,-12.17 -9,-18.52z"/>
  <g id="_218155407984">
   <path class="fil4" d="M5776.7 2249.02c-53.64,-26.58 -117.01,-6.29 -143.9,47.51l-541.8 1083.74 -40.32 -80.61 -119.47 238.66 64.75 129.08c18.01,36.01 55.47,59.06 95.71,59.06 39.66,0 77.33,-23.65 95.03,-59.06l637.51 -1275.16c26.62,-53.23 6,-116.7 -47.51,-143.22zm-926.44 649.79l-64.04 -128.09c-27.09,-53.29 -90.16,-74.61 -143.91,-48.2 -53.79,26.89 -73.88,90.26 -47.51,143.91l135.96 271.39 119.5 -239.01z"/>
   <path class="fil5" d="M1013.73 2924.13l160.19 0c163.36,0 294.6,131.24 294.6,294.59 0,163.73 -131.07,293.92 -294.6,293.92l-160.19 0 0 -588.51zm160.19 802.33c282.04,0 508.42,-225.47 508.42,-507.74 0,-282.03 -226.39,-508.41 -508.42,-508.41l-266.76 0c-59.43,0 -107.25,47.82 -107.25,107.24l0 801.66c0,60.18 47.07,107.25 107.25,107.25l266.76 0zm1199.12 -669.97l127.62 255.23 -255.23 0 127.61 -255.23zm-448.68 658.43c52.89,26.43 117.13,4.9 143.23,-48.2l70.59 -141.19 469.05 0 71.27 141.19c17.94,36.78 54.81,59.74 95.71,59.74 16.74,0 32.58,-3.85 47.51,-11.54 52.92,-26.47 74.86,-90.37 47.52,-143.23l-400.49 -802.33c-18.44,-36.89 -54.5,-59.05 -95.71,-59.05 -41.21,0 -77.26,22.16 -95.71,59.05l-401.16 802.33c-26.45,52.89 -4.9,117.13 48.19,143.23zm1861.62 -629.92c0,89.05 -72.03,160.19 -160.87,160.19l-293.92 0 0 -321.06 293.92 0c88.77,0 160.87,72.09 160.87,160.87zm-204.99 374.01l236.22 236.22c42.01,42.01 109.15,41.32 151.36,0 41.74,-41.73 41.71,-109.66 0,-151.37l-143.22 -143.22c108.27,-68.82 174.45,-187.12 174.45,-315.64 0,-207.87 -166.83,-374.69 -374.69,-374.69l-400.49 0c-59.43,0 -107.25,47.82 -107.25,107.24l0 801.66c0,60.18 47.07,107.25 107.25,107.25 59.83,0 106.57,-47.62 106.57,-107.25l0 -160.2 249.8 0zm1842.06 -1066.77c26.72,-53.49 5.97,-116.48 -47.52,-143.22 -53.37,-26.68 -116.5,-5.95 -143.22,47.51 -180.6,361.27 -361.18,722.51 -541.8,1083.74l-305.46 -609.55c-26.33,-53.58 -90.63,-74.39 -143.9,-48.2 -53.06,26.53 -73.52,91.02 -47.52,143.91l401.17 800.97c18,36.01 55.46,59.06 95.71,59.06 40.23,0 77.7,-23.04 95.71,-59.06 211.89,-425.16 424.5,-850.08 636.83,-1275.16zm520.2 1334.22c59.83,0 106.57,-47.62 106.57,-107.25l0 -801.66c0,-58.88 -47.49,-107.24 -106.57,-107.24 -59.43,0 -107.25,47.82 -107.25,107.24l0 801.66c0,60.18 47.07,107.25 107.25,107.25zm494.54 -1009.37c-42.6,15.41 -70.6,55.12 -70.6,100.46l0 801.66c0,60.18 47.07,107.25 107.25,107.25 59.83,0 106.57,-47.62 106.57,-107.25l0 -506.38 479.23 574.94c29.43,35.69 75.58,47.53 118.79,32.58 42.36,-15.33 70.59,-56.17 70.59,-101.14l0 -801.66c0,-59.29 -47.94,-107.24 -107.24,-107.24 -59.09,0 -106.58,48.36 -106.58,107.24l0 506.38 -479.22 -574.93c-29.18,-34.65 -76.19,-47.32 -118.79,-31.91z"/>
  </g>
  <path class="fil2" d="M9554.61 1102.46c-20.18,0 -38.52,11.01 -46.77,30.27l-143.09 323.78 -156.85 -323.78c-11,-20.18 -26.59,-30.27 -46.77,-30.27 -26.6,0 -49.53,22.93 -49.53,49.53 0,8.26 1.83,17.43 7.33,26.6l192.62 382.48 -0.92 2.75c-22.93,46.78 -52.28,66.04 -110.98,66.04 -11.01,0 -20.18,-0.91 -26.6,-0.91 -26.6,0 -45.86,19.26 -45.86,43.11 0,19.26 11.01,33.93 29.35,40.35 15.59,5.51 34.85,8.26 57.79,8.26 88.97,0 150.42,-42.19 191.69,-129.33l190.79 -412.75c5.5,-10.09 7.33,-18.34 7.33,-25.68 0,-27.52 -22.01,-50.45 -49.53,-50.45zm550.34 -7.33c-27.52,0 -48.61,21.09 -48.61,49.53l0 251.31c-35.78,13.76 -77.97,22.02 -113.74,22.02 -98.14,0 -156.84,-60.54 -156.84,-162.35l0 -110.98c0,-28.44 -20.18,-49.53 -48.62,-49.53 -27.51,0 -48.61,21.09 -48.61,49.53l0 119.23c0,150.43 96.31,243.98 250.4,243.98 39.44,0 80.72,-6.42 117.41,-18.34l0 181.61c0,28.43 21.09,49.53 48.61,49.53 28.43,0 48.61,-21.1 48.61,-49.53l0 -526.48c0,-28.44 -20.18,-49.53 -48.61,-49.53zm707.17 551.24l-219.21 -518.22c-9.17,-22.02 -24.77,-33.02 -46.78,-33.02 -21.1,0 -36.69,11 -45.86,33.02l-219.22 518.22c-5.5,11.01 -7.33,20.18 -7.33,27.52 0,25.68 21.09,46.78 47.69,46.78 22.01,0 37.61,-11.92 45.86,-33.94l35.77 -85.3 285.26 0 37.6 85.3c9.18,22.02 23.85,33.94 45.87,33.94 26.6,0 47.69,-21.1 47.69,-46.78 0,-7.34 -2.75,-16.51 -7.34,-27.52zm-265.99 -409.08l107.31 281.59 -216.46 0 109.15 -281.59zm659.48 483.38c94.47,0 181.61,-39.44 234.8,-105.48 11.93,-15.59 16.51,-26.6 16.51,-38.52 0,-23.85 -20.17,-44.03 -44.94,-44.03 -15.59,0 -28.43,6.42 -39.44,19.26 -44.03,52.28 -99.98,79.8 -166.02,79.8 -125.66,0 -218.3,-95.39 -218.3,-223.8 0,-128.41 92.64,-223.8 218.3,-223.8 66.96,0 122.91,26.6 166.94,79.79 11,12.84 23.84,19.27 38.52,19.27 24.77,0 44.94,-20.18 44.94,-44.03 0,-12.84 -4.58,-23.85 -15.59,-38.52 -55.03,-66.04 -142.17,-105.48 -235.72,-105.48 -178.86,0 -318.28,136.66 -318.28,312.77 0,176.1 139.42,312.77 318.28,312.77zm579.68 0c27.52,0 48.61,-21.1 48.61,-49.53l0 -478.79 164.19 0c25.68,0 44.94,-18.34 44.94,-43.11 0,-24.76 -19.26,-44.03 -44.94,-44.03l-424.68 0c-25.68,0 -44.94,19.27 -44.94,44.03 0,24.77 19.26,43.11 44.94,43.11l163.27 0 0 478.79c0,28.43 21.09,49.53 48.61,49.53zm699.84 -340.29c32.1,-27.52 50.45,-66.96 50.45,-113.73 0,-96.31 -73.38,-161.44 -181.61,-161.44l-161.43 0c-29.35,0 -50.45,21.1 -50.45,50.45l0 504.47c0,29.35 21.1,50.45 50.45,50.45l209.12 0c116.49,0 196.29,-71.54 196.29,-176.11 0,-75.21 -42.19,-131.16 -112.82,-154.09zm-140.34 -189.86c58.71,0 92.64,29.35 92.64,80.71 0,52.28 -34.85,82.55 -92.64,82.55l-107.31 0 0 -163.26 107.31 0zm48.62 434.76l-155.93 0 0 -188.03 155.93 0c66.04,0 105.48,35.77 105.48,94.47 0,58.7 -39.44,93.56 -105.48,93.56zm725.51 -522.82c-20.18,0 -38.52,11.01 -46.77,30.27l-143.09 323.78 -156.85 -323.78c-11,-20.18 -26.59,-30.27 -46.77,-30.27 -26.6,0 -49.53,22.93 -49.53,49.53 0,8.26 1.83,17.43 7.33,26.6l192.62 382.48 -0.92 2.75c-22.93,46.78 -52.28,66.04 -110.98,66.04 -11.01,0 -20.18,-0.91 -26.6,-0.91 -26.6,0 -45.86,19.26 -45.86,43.11 0,19.26 11.01,33.93 29.35,40.35 15.59,5.51 34.85,8.26 57.79,8.26 88.97,0 150.42,-42.19 191.69,-129.33l190.79 -412.75c5.5,-10.09 7.33,-18.34 7.33,-25.68 0,-27.52 -22.01,-50.45 -49.53,-50.45zm416.42 -60.53c77.05,0 145.84,-57.79 145.84,-121.99 0,-22.02 -15.59,-39.44 -38.52,-39.44 -17.43,0 -29.35,11 -36.69,32.1 -10.09,34.85 -35.77,55.95 -70.63,55.95 -33.02,0 -58.7,-20.18 -69.7,-55.95 -8.26,-22.01 -20.18,-32.1 -37.61,-32.1 -22.01,0 -38.52,17.42 -38.52,39.44 0,65.12 69.7,121.99 145.83,121.99zm214.63 53.2c-21.09,0 -32.1,9.17 -43.11,24.76l-320.11 419.17 0 -394.4c0,-28.44 -20.17,-49.53 -48.61,-49.53 -27.51,0 -48.61,21.09 -48.61,49.53l0 528.31c0,26.6 22.01,47.7 48.61,47.7 16.51,0 28.44,-5.5 39.44,-20.18l322.86 -421 0 391.65c0,28.43 21.1,49.53 48.62,49.53 28.43,0 48.61,-21.1 48.61,-49.53l0 -528.32c0,-26.6 -21.1,-47.69 -47.7,-47.69zm403.58 625.54c27.52,0 48.61,-21.1 48.61,-49.53l0 -478.79 164.19 0c25.68,0 44.94,-18.34 44.94,-43.11 0,-24.76 -19.26,-44.03 -44.94,-44.03l-424.68 0c-25.68,0 -44.94,19.27 -44.94,44.03 0,24.77 19.26,43.11 44.94,43.11l163.27 0 0 478.79c0,28.43 21.09,49.53 48.61,49.53zm403.58 -10.09l321.94 0c25.68,0 44.95,-19.26 44.95,-44.03 0,-24.76 -19.27,-43.11 -44.95,-43.11l-271.5 0 0 -191.69 188.03 0c24.77,0 43.11,-18.35 43.11,-42.2 0,-23.84 -18.34,-42.19 -43.11,-42.19l-188.03 0 0 -155.01 260.5 0c25.68,0 44.94,-18.34 44.94,-43.11 0,-24.76 -19.26,-44.03 -44.94,-44.03l-310.94 0c-26.6,0 -46.78,20.18 -46.78,46.78l0 511.81c0,26.6 20.18,46.78 46.78,46.78zm1074.98 -330.2c32.1,-27.52 50.45,-66.96 50.45,-113.73 0,-96.31 -73.38,-161.44 -181.61,-161.44l-161.43 0c-29.35,0 -50.45,21.1 -50.45,50.45l0 504.47c0,29.35 21.1,50.45 50.45,50.45l209.12 0c116.49,0 196.29,-71.54 196.29,-176.11 0,-75.21 -42.19,-131.16 -112.82,-154.09zm-140.34 -189.86c58.71,0 92.64,29.35 92.64,80.71 0,52.28 -34.85,82.55 -92.64,82.55l-107.31 0 0 -163.26 107.31 0zm48.62 434.76l-155.93 0 0 -188.03 155.93 0c66.04,0 105.48,35.77 105.48,94.47 0,58.7 -39.44,93.56 -105.48,93.56zm763.12 95.39c27.52,0 48.61,-21.1 48.61,-49.53l0 -478.79 164.19 0c25.68,0 44.94,-18.34 44.94,-43.11 0,-24.76 -19.26,-44.03 -44.94,-44.03l-424.68 0c-25.68,0 -44.94,19.27 -44.94,44.03 0,24.77 19.26,43.11 44.94,43.11l163.27 0 0 478.79c0,28.43 21.09,49.53 48.61,49.53zm620.04 -625.54c-177.94,0 -317.36,137.58 -317.36,312.77 0,175.19 139.42,312.77 317.36,312.77 177.94,0 318.27,-137.58 318.27,-312.77 0,-174.27 -140.33,-312.77 -318.27,-312.77zm0.92 88.97c124.74,0 217.38,95.39 217.38,222.88 0,129.33 -92.64,224.72 -217.38,224.72 -125.66,0 -217.39,-94.47 -217.39,-224.72 0,-128.41 91.73,-222.88 217.39,-222.88zm495.29 536.57c27.52,0 48.61,-21.1 48.61,-49.53l0 -194.45 122.91 0c121.99,0 205.46,-76.13 205.46,-186.2 0,-110.98 -82.55,-185.28 -205.46,-185.28l-169.68 0c-29.35,0 -50.45,21.1 -50.45,50.45l0 515.48c0,28.43 21.1,49.53 48.61,49.53zm48.61 -330.2l0 -199.04 121.99 0c66.04,0 106.4,38.53 106.4,99.98 0,61.45 -40.36,99.06 -106.4,99.06l-121.99 0zm786.06 -285.26l-285.25 0c-28.44,0 -50.45,21.1 -50.45,50.45l0 515.48c0,28.43 21.1,49.53 48.61,49.53 28.44,0 48.61,-21.1 48.61,-49.53l0 -478.79 238.48 0c25.68,0 44.95,-18.34 44.95,-43.11 0,-24.76 -19.27,-44.03 -44.95,-44.03zm552.16 541.16l-219.21 -518.22c-9.17,-22.02 -24.77,-33.02 -46.78,-33.02 -21.1,0 -36.69,11 -45.86,33.02l-219.22 518.22c-5.5,11.01 -7.33,20.18 -7.33,27.52 0,25.68 21.09,46.78 47.69,46.78 22.01,0 37.61,-11.92 45.86,-33.94l35.77 -85.3 285.26 0 37.6 85.3c9.18,22.02 23.85,33.94 45.87,33.94 26.6,0 47.69,-21.1 47.69,-46.78 0,-7.34 -2.75,-16.51 -7.34,-27.52zm-265.99 -409.08l107.31 281.59 -216.46 0 109.15 -281.59zm822.75 402.66l-169.69 -239.39 156.85 -222.88c10.09,-13.76 13.76,-24.77 13.76,-36.69 0,-25.69 -20.18,-45.86 -46.78,-45.86 -16.51,0 -30.27,7.33 -39.44,20.17l-142.17 204.54 -139.42 -204.54c-10.09,-13.75 -22.93,-20.17 -39.44,-20.17 -26.6,0 -47.7,20.17 -47.7,45.86 0,11 4.59,22.93 13.76,35.77l155.93 223.8 -169.69 238.48c-10.09,12.84 -13.75,23.84 -13.75,34.85 0,25.68 21.09,46.78 47.69,46.78 16.51,0 30.27,-7.34 38.52,-20.18l154.1 -218.3 154.09 218.3c9.17,12.84 22.93,20.18 38.52,20.18 26.6,0 47.7,-21.1 47.7,-46.78 0,-10.09 -3.67,-20.18 -12.84,-33.94z"/>
  <path class="fil6" d="M19816.29 4052.79l8240.88 0c153.76,0 279.56,124.9 279.56,277.57l0 1442.44c0,152.67 -125.8,277.57 -279.56,277.57l-8240.88 0c-153.76,0 -279.56,-124.9 -279.56,-277.57l0 -1442.44c0,-152.67 125.8,-277.57 279.56,-277.57z"/>
  <path class="fil2" d="M20152.13 5276.36c50.38,0 97.3,-21.24 125.95,-56.31 7.4,-8.89 10.37,-16.79 10.37,-24.69 0,-16.3 -13.34,-30.13 -30.62,-30.13 -9.88,0 -18.28,4.45 -26.18,12.84 -21.73,24.7 -47.91,36.55 -79.02,36.55 -61.25,0 -105.2,-44.45 -105.2,-106.68 0,-62.72 43.95,-107.67 105.2,-107.67 31.61,0 58.28,11.86 79.51,36.55 7.41,8.4 16.3,12.84 25.69,12.84 17.28,0 31.11,-13.83 31.11,-30.13 0,-8.89 -3.46,-16.79 -10.37,-24.69 -29.14,-35.07 -76.06,-56.3 -125.94,-56.3 -97.79,0 -173.85,74.08 -173.85,168.91 0,94.82 75.56,168.91 173.35,168.91zm241.51 -337.82c-19.76,0 -33.58,14.81 -33.58,34.07l0 269.67c0,19.26 14.32,34.08 33.58,34.08 18.77,0 33.09,-14.82 33.09,-34.08l0 -269.67c0,-19.26 -14.32,-34.07 -33.09,-34.07zm228.67 285.96l-109.15 -126.44 98.29 -106.18c6.91,-7.41 9.87,-14.33 9.87,-22.23 0,-17.29 -13.83,-31.11 -30.12,-31.11 -9.88,0 -16.8,3.45 -24.2,10.86l-117.55 126.93c-5.93,6.42 -9.38,13.83 -9.38,21.24 0,7.9 3.45,15.8 8.89,22.22l123.96 142.74c7.41,8.89 16.79,13.83 26.67,13.83 16.79,0 31.12,-14.82 31.12,-31.61 0,-6.92 -2.47,-13.34 -8.4,-20.25zm340.29 1.97l-111.12 -265.22c-5.93,-14.81 -16.8,-22.71 -31.61,-22.71 -14.82,0 -25.68,7.9 -31.61,22.71l-111.62 265.22c-2.47,6.92 -3.95,12.84 -3.95,17.78 0,17.78 14.32,32.11 33.09,32.11 14.32,0 25.19,-8.4 31.11,-23.71l13.83 -33.58 137.8 0 13.83 33.58c6.42,15.31 17.28,23.71 31.61,23.71 18.76,0 32.59,-14.33 32.59,-32.11 0,-4.94 -0.98,-10.86 -3.95,-17.78zm-142.73 -189.65l46.42 127.42 -93.84 0 47.42 -127.42zm393.13 -98.28c-19.26,0 -33.09,14.81 -33.09,34.07l0 123.97c-17.78,6.42 -37.54,10.37 -54.82,10.37 -45.94,0 -74.09,-28.64 -74.09,-76.55l0 -57.79c0,-19.26 -14.32,-34.07 -33.09,-34.07 -19.26,0 -33.58,14.81 -33.58,34.07l0 64.21c0,80.5 53.83,131.37 138.29,131.37 19.26,0 39.01,-2.96 57.29,-7.9l0 81.99c0,19.26 14.32,34.08 33.09,34.08 19.26,0 33.58,-14.82 33.58,-34.08l0 -269.67c0,-19.26 -14.32,-34.07 -33.58,-34.07zm383.25 287.93l-111.12 -265.22c-5.93,-14.81 -16.8,-22.71 -31.61,-22.71 -14.82,0 -25.68,7.9 -31.61,22.71l-111.62 265.22c-2.47,6.92 -3.95,12.84 -3.95,17.78 0,17.78 14.32,32.11 33.09,32.11 14.32,0 25.19,-8.4 31.11,-23.71l13.83 -33.58 137.8 0 13.83 33.58c6.42,15.31 17.28,23.71 31.61,23.71 18.76,0 32.59,-14.33 32.59,-32.11 0,-4.94 -0.98,-10.86 -3.95,-17.78zm-142.73 -189.65l46.42 127.42 -93.84 0 47.42 -127.42zm345.23 -124.95c42.47,0 82.48,-32.11 82.48,-67.67 0,-14.81 -10.37,-25.68 -25.19,-25.68 -10.87,0 -18.77,5.93 -25.19,18.77 -5.93,15.8 -17.29,24.2 -32.1,24.2 -14.82,0 -25.69,-7.9 -32.6,-24.2 -6.91,-13.34 -14.32,-18.77 -24.69,-18.77 -14.82,0 -25.69,10.87 -25.69,25.68 0,35.56 40.01,67.67 82.98,67.67zm112.11 26.67c-16.3,0 -23.71,8.89 -32.1,19.75l-150.64 196.08 0 -181.76c0,-19.26 -14.32,-34.07 -33.58,-34.07 -18.77,0 -33.09,14.81 -33.09,34.07l0 270.16c0,18.77 14.81,33.59 33.09,33.59 11.36,0 19.75,-4.45 27.65,-14.33l155.09 -200.52 0 180.77c0,19.26 14.32,34.08 33.09,34.08 19.26,0 33.58,-14.82 33.58,-34.08l0 -270.16c0,-18.77 -14.32,-33.58 -33.09,-33.58zm220.77 337.82c19.26,0 33.58,-14.82 33.58,-34.08l0 -237.56 77.54 0c17.29,0 30.62,-13.34 30.62,-30.13 0,-17.29 -12.84,-30.13 -30.62,-30.13l-221.76 0c-17.28,0 -30.62,12.84 -30.62,30.13 0,16.79 13.34,30.13 30.62,30.13l77.55 0 0 237.56c0,19.26 14.32,34.08 33.09,34.08zm221.75 -5.93l165.46 0c17.28,0 30.62,-12.84 30.62,-30.13 0,-16.79 -12.84,-30.12 -30.62,-30.12l-131.87 0 0 -82.48 86.43 0c16.79,0 29.14,-12.35 29.14,-28.16 0,-16.29 -12.35,-28.64 -29.14,-28.64l-86.43 0 0 -66.18 125.94 0c17.29,0 30.62,-13.34 30.62,-30.13 0,-17.29 -12.84,-30.13 -30.62,-30.13l-159.53 0c-18.77,0 -33.09,14.33 -33.09,33.09l0 259.79c0,18.77 14.32,33.09 33.09,33.09zm421.3 5.93c18.76,0 33.09,-14.82 33.09,-34.08l0 -237.56 133.35 0 0 237.56c0,19.26 14.32,34.08 33.09,34.08 19.26,0 33.58,-14.82 33.58,-34.08l0 -263.74c0,-19.75 -14.81,-34.08 -34.08,-34.08l-198.54 0c-19.76,0 -34.08,14.33 -34.08,34.08l0 263.74c0,19.26 14.32,34.08 33.59,34.08zm347.69 0c18.76,0 33.09,-14.82 33.09,-34.08l0 -86.93 56.3 0c68.65,0 117.05,-43.46 117.05,-105.69 0,-62.72 -47.41,-105.2 -117.05,-105.2l-88.9 0c-19.76,0 -34.08,14.33 -34.08,34.08l0 263.74c0,19.26 14.32,34.08 33.59,34.08zm33.09 -179.29l0 -93.83 55.81 0c30.62,0 49.39,18.27 49.39,46.42 0,29.14 -18.77,47.41 -49.39,47.41l-55.81 0zm387.7 -158.53c-96.8,0 -172.86,74.08 -172.86,168.91 0,94.82 75.56,168.91 172.86,168.91 97.3,0 173.85,-74.58 173.85,-168.91 0,-94.34 -76.55,-168.91 -173.85,-168.91zm0.49 61.73c60.75,0 104.71,44.95 104.71,107.18 0,62.23 -43.96,107.17 -104.71,107.17 -61.24,0 -104.7,-44.45 -104.7,-107.17 0,-62.73 43.46,-107.18 104.7,-107.18zm419.31 -55.81l-148.66 0c-19.75,0 -34.07,14.33 -34.07,34.08l0 263.74c0,19.26 14.32,34.08 33.09,34.08 19.26,0 33.58,-14.82 33.58,-34.08l0 -237.56 116.06 0c17.29,0 30.63,-13.34 30.63,-30.13 0,-17.29 -12.85,-30.13 -30.63,-30.13zm116.56 331.9c18.76,0 33.09,-14.82 33.09,-34.08l0 -86.93 56.3 0c68.65,0 117.05,-43.46 117.05,-105.69 0,-62.72 -47.41,-105.2 -117.05,-105.2l-88.9 0c-19.76,0 -34.08,14.33 -34.08,34.08l0 263.74c0,19.26 14.32,34.08 33.59,34.08zm33.09 -179.29l0 -93.83 55.81 0c30.62,0 49.39,18.27 49.39,46.42 0,29.14 -18.77,47.41 -49.39,47.41l-55.81 0zm462.77 129.4l-111.12 -265.22c-5.93,-14.81 -16.8,-22.71 -31.61,-22.71 -14.82,0 -25.68,7.9 -31.61,22.71l-111.62 265.22c-2.47,6.92 -3.95,12.84 -3.95,17.78 0,17.78 14.32,32.11 33.09,32.11 14.32,0 25.19,-8.4 31.11,-23.71l13.83 -33.58 137.8 0 13.83 33.58c6.42,15.31 17.28,23.71 31.61,23.71 18.76,0 32.59,-14.33 32.59,-32.11 0,-4.94 -0.98,-10.86 -3.95,-17.78zm-142.73 -189.65l46.42 127.42 -93.84 0 47.42 -127.42zm493.89 -98.28c-14.32,0 -23.21,6.91 -35.07,25.68l-91.86 145.7 -91.87 -145.7c-11.35,-18.77 -20.74,-25.68 -35.06,-25.68 -18.77,0 -32.6,14.81 -32.6,34.57l0 269.17c0,19.26 14.32,34.08 33.59,34.08 18.76,0 33.09,-14.82 33.09,-34.08l0 -162 61.24 97.3c9.38,14.82 18.77,21.24 31.61,21.24 13.33,0 22.22,-6.42 31.61,-21.24l61.24 -96.31 0 161.01c0,19.26 14.32,34.08 33.58,34.08 18.77,0 33.09,-14.82 33.09,-34.08l0 -269.17c0,-19.76 -13.82,-34.57 -32.59,-34.57zm400.05 0c-14.32,0 -23.21,6.91 -35.07,25.68l-91.86 145.7 -91.87 -145.7c-11.35,-18.77 -20.74,-25.68 -35.06,-25.68 -18.77,0 -32.6,14.81 -32.6,34.57l0 269.17c0,19.26 14.32,34.08 33.59,34.08 18.76,0 33.09,-14.82 33.09,-34.08l0 -162 61.24 97.3c9.38,14.82 18.77,21.24 31.61,21.24 13.33,0 22.22,-6.42 31.61,-21.24l61.24 -96.31 0 161.01c0,19.26 14.32,34.08 33.58,34.08 18.77,0 33.09,-14.82 33.09,-34.08l0 -269.17c0,-19.76 -13.82,-34.57 -32.59,-34.57zm337.82 2.47c-14.32,0 -26.67,8.39 -32.11,21.23l-65.68 150.15 -75.07 -150.15c-7.41,-13.83 -18.77,-21.23 -32.11,-21.23 -18.76,0 -34.57,15.31 -34.57,34.57 0,5.92 1.98,12.84 4.94,18.77l100.26 190.14c-10.87,20.75 -27.16,30.13 -56.3,30.13 -3.46,0 -6.92,-0.49 -8.89,-0.49 -18.77,0 -31.61,12.34 -31.61,29.63 0,11.85 5.92,20.74 17.28,26.67 8.89,3.95 19.76,5.93 34.08,5.93 52.85,0 88.41,-23.22 111.13,-72.11l98.28 -209.9c3.46,-7.41 4.94,-12.85 4.94,-18.28 0,-19.26 -15.31,-35.06 -34.57,-35.06z"/>
  <path class="fil2" d="M27196.94 5048.43c-3.49,-1.47 -6.76,-3.62 -9.45,-6.31l-141.2 -141.08c-5.74,-5.77 -8.6,-13.2 -8.6,-20.61 0,-7.41 2.86,-14.84 8.52,-20.53l0.11 -0.13c5.72,-5.67 13.14,-8.53 20.55,-8.53 7.41,0 14.84,2.86 20.53,8.53l91.5 91.45 0 -433.6c0,-8.05 3.26,-15.36 8.49,-20.61 5.29,-5.27 12.59,-8.52 20.64,-8.52 8.05,0 15.37,3.26 20.61,8.49 5.26,5.28 8.52,12.59 8.52,20.64l0 433.62 91.25 -91.39c5.75,-5.73 13.2,-8.61 20.61,-8.61 7.43,0 14.88,2.88 20.57,8.55 5.75,5.75 8.61,13.2 8.61,20.64 0,7.45 -2.85,14.91 -8.55,20.61l-141.08 141.08c-2.75,2.77 -5.97,4.92 -9.37,6.34 -3.62,1.5 -7.45,2.26 -11.17,2.26 -3.69,0 -7.49,-0.79 -11.09,-2.29zm355.64 -201.36c5.26,-5.28 12.56,-8.52 20.64,-8.52 8.07,0 15.36,3.28 20.59,8.52 5.29,5.28 8.55,12.6 8.55,20.62l0 201.92c0,41.52 -16.93,79.27 -44.24,106.59 -27.26,27.28 -64.98,44.21 -106.58,44.21l-487.02 0c-41.57,0 -79.32,-16.92 -106.62,-44.21 -27.27,-27.28 -44.2,-65 -44.2,-106.59l0 -205.21c0,-8.08 3.26,-15.36 8.52,-20.62 5.25,-5.28 12.55,-8.52 20.63,-8.52 8.07,0 15.37,3.24 20.63,8.5 5.24,5.28 8.5,12.59 8.5,20.64l0 205.21c0,25.47 10.39,48.63 27.16,65.39 16.74,16.74 39.87,27.14 65.38,27.14l487.02 0c25.47,0 48.63,-10.4 65.4,-27.16 16.76,-16.73 27.15,-39.85 27.15,-65.37l0 -201.92c0,-8.05 3.26,-15.36 8.49,-20.62z"/>
  <path class="fil2" d="M26682.62 5402.39c-4.7,0 -9.01,1.56 -13.71,3.13l-58.75 26.63c-11.36,4.7 -16.45,13.32 -16.45,23.11 0,14.1 10.97,25.07 24.28,25.07 4.7,0 8.62,-1.17 12.15,-2.74l25.06 -10.97 0 176.64c0,16.85 9.4,27.03 26.24,27.03 16.85,0 26.64,-10.18 26.64,-27.03l0 -214.24c0,-14.49 -11.36,-26.63 -25.46,-26.63zm222.86 129.25c24.28,-14.1 38.78,-33.68 38.78,-60.71 0,-44.26 -37.61,-68.54 -85.39,-68.54 -47.78,0 -85.38,24.28 -85.38,68.54 0,27.42 14.88,46.61 39.16,60.71 -30.55,12.14 -50.91,32.9 -50.91,65.02 0,45.43 40.73,73.63 97.13,73.63 56.4,0 96.74,-28.2 96.74,-73.63 0,-32.51 -20.76,-52.88 -50.13,-65.02zm-46.61 -86.56c19.98,0 36.03,10.18 36.03,27.81 0,17.23 -14.1,26.24 -36.03,36.42 -21.93,-10.18 -36.03,-19.19 -36.03,-36.03 0,-18.02 15.66,-28.2 36.03,-28.2zm0 182.13c-29.37,0 -44.26,-13.71 -44.26,-32.51 0,-20.76 18.02,-30.94 44.26,-40.74 26.24,9.4 44.26,19.59 44.26,40.74 0,18.8 -14.49,32.51 -44.26,32.51zm239.7 -224.82c-64.23,0 -102.62,49.35 -102.62,131.99 0,83.82 39.17,135.91 102.62,135.91 63.06,0 102.23,-52.09 102.23,-135.91 0,-82.64 -38.39,-131.99 -102.23,-131.99zm0 48.96c32.12,0 47.78,27.02 47.78,83.42 0,57.19 -16.05,86.56 -47.78,86.56 -31.72,0 -48.17,-29.37 -48.17,-86.56 0,-56.4 15.66,-83.42 48.17,-83.42zm290.23 -48.96c-15.67,0 -26.63,11.75 -26.63,27.02l0 213.85c0,15.28 11.36,27.03 26.63,27.03 14.88,0 26.24,-11.75 26.24,-27.03l0 -213.85c0,-15.27 -11.36,-27.02 -26.24,-27.02zm181.34 226.77l-86.56 -100.26 77.95 -84.21c5.48,-5.88 7.83,-11.36 7.83,-17.63 0,-13.71 -10.97,-24.67 -23.89,-24.67 -7.83,0 -13.32,2.74 -19.19,8.61l-93.22 100.66c-4.7,5.1 -7.44,10.97 -7.44,16.85 0,6.26 2.74,12.53 7.05,17.62l98.31 113.19c5.87,7.05 13.31,10.97 21.15,10.97 13.31,0 24.67,-11.75 24.67,-25.07 0,-5.48 -1.96,-10.57 -6.66,-16.06zm199.76 -222.07l-121.42 0c-15.66,0 -27.02,11.36 -27.02,27.02l0 204.45c0,15.67 11.36,27.03 27.02,27.03l88.13 0c50.52,0 84.99,-31.73 84.99,-77.94 0,-45.44 -34.07,-75.99 -84.99,-75.99l-62.28 0 0 -56.79 95.57 0c14.1,0 24.68,-10.57 24.68,-23.89 0,-13.71 -10.58,-23.89 -24.68,-23.89zm-37.21 148.05c23.11,0 36.82,12.14 36.82,32.51 0,20.76 -13.71,32.51 -36.82,32.51l-58.36 0 0 -65.02 58.36 0z"/>
  <path class="fil7" d="M26110.59 4357.66l0 0c11.45,0 20.82,9.36 20.82,20.81l0 1346.22c0,11.45 -9.37,20.82 -20.82,20.82l0 0c-11.45,0 -20.82,-9.37 -20.82,-20.82l0 -1346.22c0,-11.45 9.37,-20.81 20.82,-20.81z"/>
  <path class="fil2" d="M19926.74 6813.49c13.97,0 24.77,-11.44 24.77,-26.04l0 -355.6 218.44 0 0 355.6c0,14.6 10.79,26.04 24.76,26.04 14.61,0 24.77,-11.44 24.77,-26.04l0 -374.02c0,-14.6 -10.8,-26.03 -26.04,-26.03l-265.43 0c-15.24,0 -26.03,11.43 -26.03,26.03l0 374.02c0,14.6 10.16,26.04 24.76,26.04zm541.03 -323.22c-90.81,0 -161.93,70.48 -161.93,161.29 0,89.53 71.12,160.66 161.29,161.29 90.81,0 162.56,-71.76 162.56,-161.29 0,-90.17 -71.75,-161.29 -161.92,-161.29zm0 45.08c63.5,0 111.76,50.17 111.76,116.84 0,65.41 -48.9,115.57 -112.4,115.57 -63.5,0 -111.12,-49.53 -111.12,-115.57 -0.64,-66.67 47.62,-116.84 111.76,-116.84zm522.61 227.97l-26.04 0 0 -240.67c0,-13.97 -11.43,-25.4 -25.4,-25.4l-148.59 0c-13.97,0 -25.4,10.8 -25.4,24.77l0 0.63c0,125.73 -18.41,198.12 -60.96,240.67l-6.35 0c-13.97,0 -25.4,10.79 -25.4,25.4l0 88.9c0,13.97 10.8,25.4 24.77,25.4 13.33,0 24.13,-10.79 24.13,-25.4l0 -71.12 245.74 0 0 71.12c0,13.97 10.16,25.4 24.77,25.4 13.33,0 24.13,-10.79 24.13,-25.4l0 -88.9c0,-14.61 -11.43,-25.4 -25.4,-25.4zm-176.53 -222.25l101.6 0 0 222.25 -154.31 0c37.47,-40.64 52.07,-106.68 52.71,-222.25zm392.43 -50.8c-45.08,0 -86.36,17.14 -113.03,48.26 -6.35,6.98 -8.89,13.97 -8.89,20.95 0,10.16 10.16,20.32 22.23,20.32 6.35,0 12.7,-3.17 19.05,-9.52 21.59,-22.86 47.62,-34.93 77.47,-34.93 47.62,0 74.93,27.94 74.93,78.11l0 26.67 -97.79 0c-67.31,0 -111.13,34.29 -111.13,86.36 0,52.07 43.18,87 107.95,87 43.18,0 78.11,-15.88 100.97,-43.19l0 17.78c0,13.97 10.79,25.41 24.76,25.41 13.34,0 24.13,-10.8 24.13,-25.41l0 -172.08c0,-78.74 -45.72,-125.73 -120.65,-125.73zm-22.86 282.57c-38.73,0 -64.13,-19.05 -64.13,-48.26 0,-29.21 22.86,-44.45 66.67,-44.45l92.08 0 0 7.62c0,46.99 -42.55,85.09 -94.62,85.09zm457.2 -282.57c-14.6,0 -24.76,11.43 -24.76,25.4l0 127c-19.69,8.25 -45.09,12.7 -67.95,12.7 -59.69,0 -91.44,-33.02 -91.44,-95.25l0 -44.45c0,-13.97 -10.16,-25.4 -24.13,-25.4 -13.33,0 -24.13,10.79 -24.13,25.4l0 46.99c0,85.72 51.44,138.43 136.53,138.43 23.49,0 48.89,-4.45 71.12,-12.7l0 99.69c0,13.97 10.16,25.41 24.76,25.41 13.34,0 24.13,-10.8 24.13,-25.41l0 -272.41c0,-14.61 -10.79,-25.4 -24.13,-25.4zm246.38 0c-45.08,0 -86.36,17.14 -113.03,48.26 -6.35,6.98 -8.89,13.97 -8.89,20.95 0,10.16 10.16,20.32 22.23,20.32 6.35,0 12.7,-3.17 19.05,-9.52 21.59,-22.86 47.62,-34.93 77.47,-34.93 47.62,0 74.93,27.94 74.93,78.11l0 26.67 -97.79 0c-67.31,0 -111.13,34.29 -111.13,86.36 0,52.07 43.18,87 107.95,87 43.18,0 78.11,-15.88 100.97,-43.19l0 17.78c0,13.97 10.79,25.41 24.76,25.41 13.34,0 24.13,-10.8 24.13,-25.41l0 -172.08c0,-78.74 -45.72,-125.73 -120.65,-125.73zm-22.86 282.57c-38.73,0 -64.13,-19.05 -64.13,-48.26 0,-29.21 22.86,-44.45 66.67,-44.45l92.08 0 0 7.62c0,46.99 -42.55,85.09 -94.62,85.09zm596.27 -129.54c24.13,-15.24 37.46,-39.37 37.46,-68.58 0,-52.07 -43.18,-84.45 -111.76,-84.45 -40.64,0 -78.1,13.97 -102.23,36.19 -7.62,6.99 -10.16,12.07 -10.16,18.42 0,12.06 10.16,22.22 22.86,22.22 5.71,0 11.43,-2.54 17.78,-8.25 15.87,-15.24 39.37,-23.5 69.85,-23.5 41.91,0 63.5,15.24 63.5,43.18 0,27.31 -20.32,42.55 -55.88,42.55l-38.1 0c-12.7,0 -22.23,8.89 -22.23,21.59 0,12.06 9.53,21.59 22.23,21.59l36.83 0c44.45,0 71.12,19.05 71.12,50.16 0,33.66 -28.58,53.98 -75.57,53.98 -31.75,0 -57.78,-10.16 -76.83,-29.21 -6.99,-6.99 -12.07,-9.53 -19.69,-9.53 -12.7,0 -22.86,9.53 -22.86,22.23 0,6.35 3.18,11.43 10.8,19.68 24.76,26.67 64.13,41.92 109.22,41.92 73.66,0 125.09,-38.11 125.09,-93.35 0,-33.66 -19.68,-61.6 -51.43,-76.84zm255.9 -153.03c-45.08,0 -86.36,17.14 -113.03,48.26 -6.35,6.98 -8.89,13.97 -8.89,20.95 0,10.16 10.16,20.32 22.23,20.32 6.35,0 12.7,-3.17 19.05,-9.52 21.59,-22.86 47.62,-34.93 77.47,-34.93 47.62,0 74.93,27.94 74.93,78.11l0 26.67 -97.79 0c-67.31,0 -111.13,34.29 -111.13,86.36 0,52.07 43.18,87 107.95,87 43.18,0 78.11,-15.88 100.97,-43.19l0 17.78c0,13.97 10.79,25.41 24.76,25.41 13.34,0 24.13,-10.8 24.13,-25.41l0 -172.08c0,-78.74 -45.72,-125.73 -120.65,-125.73zm-22.86 282.57c-38.73,0 -64.13,-19.05 -64.13,-48.26 0,-29.21 22.86,-44.45 66.67,-44.45l92.08 0 0 7.62c0,46.99 -42.55,85.09 -94.62,85.09zm466.73 -275.59l-110.49 0c-71.76,0 -118.75,41.91 -118.75,105.41 0,42.55 21.59,75.57 58.42,92.08l-71.12 78.74c-4.44,3.81 -6.98,9.52 -6.98,15.87 0,13.34 10.79,24.14 24.13,24.14 6.98,0 13.33,-2.54 19.05,-8.9l83.82 -98.42c3.81,0.63 7.62,0.63 11.43,0.63l86.99 0 0 81.28c0,13.97 10.8,25.41 24.77,25.41 13.97,0 24.13,-11.44 24.13,-25.41l0 -265.43c0,-13.97 -10.8,-25.4 -25.4,-25.4zm-23.5 166.37l-83.18 0c-44.45,0 -72.39,-24.13 -72.39,-61.59 0,-38.1 27.94,-60.96 72.39,-60.96l83.18 0 0 122.55zm371.48 -22.22c19.68,-15.24 30.48,-38.1 30.48,-64.14 0,-48.89 -38.1,-80.01 -98.43,-80.01l-113.66 0c-14.61,0 -25.4,11.43 -25.4,25.4l0 258.45c0,13.97 10.79,25.4 25.4,25.4l126.36 0c63.5,0 106.68,-36.83 106.68,-90.81 0,-34.29 -18.41,-60.32 -51.43,-74.29zm-158.12 -100.33l90.81 0c33.65,0 50.8,13.97 50.8,40.64 0,26.67 -17.78,41.91 -50.8,41.91l-90.81 0 0 -82.55zm99.7 222.25l-99.7 0 0 -96.52 99.7 0c40,0 63.5,17.78 63.5,46.35 0,30.48 -24.13,50.17 -63.5,50.17zm224.79 -273.05c-14.6,0 -24.76,11.43 -24.76,25.4l0 272.41c0,13.97 10.16,25.41 24.76,25.41 13.97,0 24.13,-11.44 24.13,-25.41l0 -272.41c0,-13.97 -10.16,-25.4 -24.13,-25.4zm218.44 282.57l-121.92 -132.08 107.32 -109.22c4.44,-4.44 6.98,-10.79 6.98,-17.78 0,-12.7 -10.79,-23.49 -24.13,-23.49 -6.98,0 -12.7,2.54 -17.14,6.98l-121.29 124.46c-4.44,5.08 -6.98,10.8 -6.98,17.15 0,6.35 2.54,12.7 6.35,17.78l136.52 149.86c4.45,4.45 10.16,6.99 17.15,6.99 13.97,0 24.13,-10.8 24.13,-23.5 0,-6.99 -2.54,-13.34 -6.99,-17.15zm327.67 -282.57c-8.89,0 -15.24,4.44 -22.86,14.6l-168.28 223.52 0 -212.72c0,-13.97 -10.79,-25.4 -24.13,-25.4 -14.6,0 -24.76,11.43 -24.76,25.4l0 272.41c0,13.97 10.16,25.41 24.13,25.41 7.62,0 14.6,-4.45 22.86,-13.98l168.27 -219.07 0 207.64c0,13.97 10.8,25.41 24.13,25.41 13.97,0 24.77,-11.44 24.77,-25.41l0 -272.41c0,-13.97 -10.8,-25.4 -24.13,-25.4zm485.14 153.03c24.13,-15.24 37.46,-39.37 37.46,-68.58 0,-52.07 -43.18,-84.45 -111.76,-84.45 -40.64,0 -78.1,13.97 -102.23,36.19 -7.62,6.99 -10.16,12.07 -10.16,18.42 0,12.06 10.16,22.22 22.86,22.22 5.71,0 11.43,-2.54 17.78,-8.25 15.87,-15.24 39.37,-23.5 69.85,-23.5 41.91,0 63.5,15.24 63.5,43.18 0,27.31 -20.32,42.55 -55.88,42.55l-38.1 0c-12.7,0 -22.23,8.89 -22.23,21.59 0,12.06 9.53,21.59 22.23,21.59l36.83 0c44.45,0 71.12,19.05 71.12,50.16 0,33.66 -28.58,53.98 -75.57,53.98 -31.75,0 -57.78,-10.16 -76.83,-29.21 -6.99,-6.99 -12.07,-9.53 -19.69,-9.53 -12.7,0 -22.86,9.53 -22.86,22.23 0,6.35 3.18,11.43 10.8,19.68 24.76,26.67 64.13,41.92 109.22,41.92 73.66,0 125.09,-38.11 125.09,-93.35 0,-33.66 -19.68,-61.6 -51.43,-76.84zm255.9 -153.03c-45.08,0 -86.36,17.14 -113.03,48.26 -6.35,6.98 -8.89,13.97 -8.89,20.95 0,10.16 10.16,20.32 22.23,20.32 6.35,0 12.7,-3.17 19.05,-9.52 21.59,-22.86 47.62,-34.93 77.47,-34.93 47.62,0 74.93,27.94 74.93,78.11l0 26.67 -97.79 0c-67.31,0 -111.13,34.29 -111.13,86.36 0,52.07 43.18,87 107.95,87 43.18,0 78.11,-15.88 100.97,-43.19l0 17.78c0,13.97 10.79,25.41 24.76,25.41 13.34,0 24.13,-10.8 24.13,-25.41l0 -172.08c0,-78.74 -45.72,-125.73 -120.65,-125.73zm-22.86 282.57c-38.73,0 -64.13,-19.05 -64.13,-48.26 0,-29.21 22.86,-44.45 66.67,-44.45l92.08 0 0 7.62c0,46.99 -42.55,85.09 -94.62,85.09zm521.97 -392.43c-8.25,0 -13.97,2.54 -20.32,5.08l-92.07 38.1c-15.88,6.99 -19.69,15.24 -19.69,24.77 0,13.97 9.53,22.22 20.32,22.22 6.35,0 12.07,-2.54 18.42,-5.08l64.77 -25.4 0 347.98c0,13.97 10.16,25.41 24.76,25.41 13.97,0 24.77,-11.44 24.77,-25.41l0 -382.9c0,-12.7 -8.26,-24.77 -20.96,-24.77zm349.89 433.08c13.97,0 24.13,-11.44 24.13,-25.41l0 -199.39 95.89 124.46c5.08,6.35 10.79,10.16 19.05,10.16 8.25,0 14.6,-3.81 19.05,-10.16l95.88 -124.46 0 199.39c0,13.97 10.16,25.41 24.13,25.41 14.61,0 24.77,-11.44 24.77,-25.41l0 -272.41c0,-13.97 -10.16,-25.4 -24.77,-25.4 -7.62,0 -14.6,3.81 -19.05,9.52l-120.01 162.56 -120.02 -162.56c-4.44,-5.71 -11.43,-9.52 -19.05,-9.52 -14.6,0 -24.76,11.43 -24.76,25.4l0 272.41c0,13.97 10.16,25.41 24.76,25.41zm658.5 -323.22c-8.89,0 -15.24,4.44 -22.86,14.6l-168.28 223.52 0 -212.72c0,-13.97 -10.79,-25.4 -24.13,-25.4 -14.6,0 -24.76,11.43 -24.76,25.4l0 272.41c0,13.97 10.16,25.41 24.13,25.41 7.62,0 14.6,-4.45 22.86,-13.98l168.27 -219.07 0 207.64c0,13.97 10.8,25.41 24.13,25.41 13.97,0 24.77,-11.44 24.77,-25.41l0 -272.41c0,-13.97 -10.8,-25.4 -24.13,-25.4zm371.47 0c-14.6,0 -24.13,10.79 -24.13,24.76l0 105.41 -158.75 0 0 -105.41c0,-13.97 -10.79,-24.76 -24.13,-24.76 -14.6,0 -24.76,10.79 -24.76,24.76l0 273.69c0,13.97 10.16,24.77 24.76,24.77 13.97,0 24.13,-10.8 24.13,-24.77l0 -125.1 158.75 0 0 125.1c0,13.97 10.16,24.77 24.13,24.77 13.34,0 24.13,-10.8 24.13,-24.77l0 -273.69c0,-13.97 -10.79,-24.76 -24.13,-24.76zm383.55 0c-10.16,0 -19.69,6.35 -22.86,15.24l-107.32 232.41 -103.5 -232.41c-3.18,-8.89 -12.7,-15.24 -22.86,-15.24 -12.7,0 -24.13,11.43 -24.13,24.13 0,5.08 1.27,8.25 2.54,11.43l121.28 271.14 -15.87 34.3c-16.51,36.19 -39.37,52.07 -70.49,52.07 -5.08,0 -10.79,-0.64 -17.78,-0.64 -11.43,0 -22.22,9.53 -22.22,21.59 0,10.16 7.62,19.69 19.05,21.59 7.62,1.27 16.51,1.91 24.76,1.91 50.8,0 85.09,-26.67 113.67,-87l147.95 -315.6c1.27,-3.17 1.91,-6.98 1.91,-10.79 0,-12.7 -11.43,-24.13 -24.13,-24.13zm187.96 323.22c13.34,0 24.13,-11.44 24.13,-25.41l0 -247.01 90.17 0c12.7,0 22.23,-9.53 22.23,-22.23 0,-12.06 -9.53,-21.59 -22.23,-21.59l-228.6 0c-12.7,0 -22.86,9.53 -22.86,21.59 0,12.7 10.16,22.23 22.86,22.23l90.17 0 0 247.01c0,13.97 10.8,25.41 24.13,25.41zm452.13 -323.22c-10.16,0 -19.69,6.35 -22.86,15.24l-107.32 232.41 -103.5 -232.41c-3.18,-8.89 -12.7,-15.24 -22.86,-15.24 -12.7,0 -24.13,11.43 -24.13,24.13 0,5.08 1.27,8.25 2.54,11.43l121.28 271.14 -15.87 34.3c-16.51,36.19 -39.37,52.07 -70.49,52.07 -5.08,0 -10.79,-0.64 -17.78,-0.64 -11.43,0 -22.22,9.53 -22.22,21.59 0,10.16 7.62,19.69 19.05,21.59 7.62,1.27 16.51,1.91 24.76,1.91 50.8,0 85.09,-26.67 113.67,-87l147.95 -315.6c1.27,-3.17 1.91,-6.98 1.91,-10.79 0,-12.7 -11.43,-24.13 -24.13,-24.13zm137.16 198.12c13.97,0 24.13,-10.16 24.13,-24.13l3.81 -253.37c0,-18.41 -11.43,-30.48 -27.94,-30.48 -17.14,0 -28.57,12.07 -27.94,30.48l3.81 253.37c0,13.97 10.8,24.13 24.13,24.13zm0 125.1c21.59,0 40.01,-17.79 40.01,-40.01 0,-22.23 -18.42,-40.01 -40.01,-40.01 -21.59,0 -40,17.78 -40,40.01 0,22.22 18.41,40.01 40,40.01z"/>
  <path class="fil8" d="M-0 15.22l29700 0 0 8049.55 -29700 0 0 -8049.55zm29672.24 27.76l-29644.48 0 0 7994.03 29644.48 0 0 -7994.03z"/>
 </g>
</svg>
