<svg xmlns="http://www.w3.org/2000/svg" width="200" height="200" viewBox="0 0 2000 2000" shape-rendering="geometricPrecision" text-rendering="geometricPrecision" image-rendering="optimizeQuality" fill-rule="evenodd" clip-rule="evenodd">
    <path fill-opacity=".06" d="M0 0h2000v2000H0z"/>
    <path d="M1271.5 817.4c17.7 0 98.9-3.2 111.3 3.9 6.3 3.6 15.6 13.6 15.6 23.4v410.2c0 10.5-10.2 21.2-18.2 24.7-11.8 5.2-109 2.6-126.3 2.6H824.2c-24.5-.1-18.6-2-31.7 11.3-6.4 6.4-18.7 15.1-21 23.9h544.9c31.5 0 60.6 3.3 81.7-8.2 17.7-9.5 35.5-29.7 35.5-56.3V846.7c0-36.8-32.9-64.5-70.3-64.5-67.6 0-53.9-5.7-75.7 16.1-5.8 5.9-13.8 10.6-16.1 19.1zm-39.1 97.6c0 47.3 68.4 45.4 68.4 2 0-21.1-18.8-35.2-33.2-35.2-17.3 0-35.2 16-35.2 33.2zm-416 109.4c0 33.1 2.9 60.1 17.6 87.9 3.5-2.3 25.4-22.3 25.4-25.4 0-5.5-2.8-11-4.4-17.1-1.3-5.5-3-12.9-3.4-20-2.1-39.2 2.5-70.6 27-103.8 29.6-40.1 72.2-62.2 125.3-62.2 21.2 0 34.2 5.9 50.8 9.8 6.1-9.1 20.6-16.7 23.4-27.4-7.6-1.8-16.7-7.3-35.1-11.7-73.9-17.9-150.7 12.6-191.4 70.3-6.6 9.3-11.5 16.9-17 28-8.8 17.8-18.2 46-18.2 71.6zm312-66.9c30.7 45.6 26.3 118.5-8.7 165.2-35.9 48-102.5 72.6-162.5 53.9-15.2-4.8-27.3-12.1-33.4-13.5-5.8 3.9-21.7 18.9-23.4 25.4 58.3 30.8 108 41 173.3 13.1 61.4-26.1 109.9-93.1 109.9-159.6 0-52.9-6.2-65.8-29.3-109.4l-25.9 24.9zm-562 475.1c0 11.2 6.4 17.6 17.6 17.6 11.6 0 44.7-37.8 54.2-47.3l739.3-739.3c6.7-6.7 22.9-18.8 22.9-29.8 0-9.7-7.9-17.6-17.6-17.6-11.6 0-44.6 37.9-54.2 47.4l-739.2 739.3c-6.8 6.7-23 18.7-23 29.7zm242.2-650.4H656.3c-28.2 0-46.7 1.2-62.9 13.4-13.1 9.8-27 28.6-27 51.1v406.2c0 34.7 30.2 61.8 62.5 64.5.5-.1 30.9-26.3 33.2-35.2-20.4 0-51.2 5.2-59.4-20.6-5-15.7-.7-18.6-1.4-27.8-2.4-32.5-.5-13.7.2-35.7.2-7.7-1.9-9.3-1.9-19.4 0-9.9 1.7-12.8 1.9-19.6.2-7.8-1.9-9.3-1.9-19.4 0-10 1.7-12.8 1.9-19.7.2-7.7-1.9-9.3-1.9-19.4 0-9.9 1.7-12.8 1.9-19.6.2-7.8-1.9-9.4-1.9-19.5 0-9.9 1.7-12.7 1.9-19.6.2-7.8-1.9-9.3-1.9-19.4 0-10 1.7-12.8 1.9-19.7.2-7.7-1.9-9.3-1.9-19.4 0-9.9 1.7-12.8 1.9-19.6.2-7.8-1.9-9.3-1.9-19.5 0-9.9 1.7-12.7 1.9-19.6.2-7.8-1.9-9.3-1.9-19.4 0-10 1.7-12.8 1.9-19.7.3-10.3-9-43.2 11.2-61 11.4-10 27.5-7.2 47.5-7.2h109.3c67.7 0 47.4 12.9 99.3-64.9 4.9-7.4 20-27.7 21.8-34.7h218.8c1.9 8 39.5 61.3 46.9 72.2l23.9-22.9c-2.6-9.6-22.1-35.8-28.2-45-5.3-7.9-9.6-14.4-14.9-22.3-5.1-7.8-8.2-17.2-19.9-17.2H882.8c-7.8 0-10.4 3.2-13.8 7.7l-60.4 91.9z" fill="#010101" fill-opacity=".22"/>
</svg>