<?xml version="1.0" encoding="utf-8"?>
<!-- Generator: Adobe Illustrator 24.0.1, SVG Export Plug-In . SVG Version: 6.00 Build 0)  -->
<svg version="1.1"
	 id="Слой_1" shape-rendering="geometricPrecision" text-rendering="geometricPrecision" image-rendering="optimizeQuality"
	 xmlns="http://www.w3.org/2000/svg" xmlns:xlink="http://www.w3.org/1999/xlink" x="0px" y="0px" viewBox="0 0 200 200"
	 style="enable-background:new 0 0 200 200;" xml:space="preserve">
<style type="text/css">
	.st0{fill-rule:evenodd;clip-rule:evenodd;fill:#E6EFF4;}
	.st1{fill-rule:evenodd;clip-rule:evenodd;fill:#010101;fill-opacity:0.22;}
</style>
<path class="st0" d="M0,0h200v200H0V0z"/>
<path class="st1" d="M109.8,95.5c0.6,0,3.6-0.1,4,0.1c0.2,0.1,0.6,0.5,0.6,0.8v14.8c0,0.4-0.4,0.8-0.7,0.9c-0.4,0.2-3.9,0.1-4.6,0.1
	H93.7c-0.9,0-0.7-0.1-1.1,0.4c-0.2,0.2-0.7,0.5-0.8,0.9h19.6c1.1,0,2.2,0.1,2.9-0.3c0.6-0.3,1.3-1.1,1.3-2V96.6
	c0-1.3-1.2-2.3-2.5-2.3c-2.4,0-1.9-0.2-2.7,0.6C110.2,95.1,109.9,95.2,109.8,95.5z M108.4,99.1c0,1.7,2.5,1.6,2.5,0.1
	c0-0.8-0.7-1.3-1.2-1.3C109,97.9,108.4,98.4,108.4,99.1L108.4,99.1z M93.4,103c0,1.2,0.1,2.2,0.6,3.2c0.1-0.1,0.9-0.8,0.9-0.9
	c0-0.2-0.1-0.4-0.2-0.6c0-0.2-0.1-0.5-0.1-0.7c-0.1-1.4,0.1-2.5,1-3.7c1.1-1.4,2.6-2.2,4.5-2.2c0.8,0,1.2,0.2,1.8,0.4
	c0.2-0.3,0.7-0.6,0.8-1c-0.3-0.1-0.6-0.3-1.3-0.4c-2.7-0.6-5.4,0.5-6.9,2.5c-0.2,0.3-0.4,0.6-0.6,1C93.7,101.1,93.4,102.1,93.4,103z
	 M104.6,100.6c1.1,1.6,0.9,4.3-0.3,6c-1.3,1.7-3.7,2.6-5.9,1.9c-0.5-0.2-1-0.4-1.2-0.5c-0.2,0.1-0.8,0.7-0.8,0.9
	c2.1,1.1,3.9,1.5,6.2,0.5c2.2-0.9,4-3.4,4-5.8c0-1.9-0.2-2.4-1.1-3.9L104.6,100.6z M84.4,117.7c0,0.4,0.2,0.6,0.6,0.6
	c0.4,0,1.6-1.4,2-1.7L113.6,90c0.2-0.2,0.8-0.7,0.8-1.1c0-0.3-0.3-0.6-0.6-0.6c-0.4,0-1.6,1.4-2,1.7l-26.6,26.6
	C85,116.9,84.4,117.3,84.4,117.7L84.4,117.7z M93.1,94.3h-5.5c-1,0-1.7,0-2.3,0.5c-0.5,0.4-1,1-1,1.8v14.6c0,1.3,1.1,2.2,2.3,2.3
	c0,0,1.1-0.9,1.2-1.3c-0.7,0-1.8,0.2-2.1-0.7c-0.2-0.6,0-0.7-0.1-1c-0.1-1.2,0-0.5,0-1.3c0-0.3-0.1-0.3-0.1-0.7
	c0-0.4,0.1-0.5,0.1-0.7c0-0.3-0.1-0.3-0.1-0.7c0-0.4,0.1-0.5,0.1-0.7c0-0.3-0.1-0.3-0.1-0.7c0-0.4,0.1-0.5,0.1-0.7
	c0-0.3-0.1-0.3-0.1-0.7c0-0.4,0.1-0.5,0.1-0.7c0-0.3-0.1-0.3-0.1-0.7c0-0.4,0.1-0.5,0.1-0.7c0-0.3-0.1-0.3-0.1-0.7
	c0-0.4,0.1-0.5,0.1-0.7c0-0.3-0.1-0.3-0.1-0.7c0-0.4,0.1-0.5,0.1-0.7c0-0.3-0.1-0.3-0.1-0.7c0-0.4,0.1-0.5,0.1-0.7
	c0-0.4-0.3-1.6,0.4-2.2c0.4-0.4,1-0.3,1.7-0.3h3.9c2.4,0,1.7,0.5,3.6-2.3c0.2-0.3,0.7-1,0.8-1.3h7.9c0.1,0.3,1.4,2.2,1.7,2.6
	l0.9-0.8c-0.1-0.3-0.8-1.3-1-1.6c-0.2-0.3-0.3-0.5-0.5-0.8c-0.2-0.3-0.3-0.6-0.7-0.6h-8.4c-0.3,0-0.4,0.1-0.5,0.3
	C95.3,91,93.1,94.3,93.1,94.3z"/>
</svg>
