<?xml version="1.0" encoding="UTF-8"?>
<!DOCTYPE svg PUBLIC "-//W3C//DTD SVG 1.1//EN" "http://www.w3.org/Graphics/SVG/1.1/DTD/svg11.dtd">
<!-- Creator: CorelDRAW 2018 (64-Bit) -->
<svg xmlns="http://www.w3.org/2000/svg" xml:space="preserve" width="14.111mm" height="14.111mm" version="1.1" style="shape-rendering:geometricPrecision; text-rendering:geometricPrecision; image-rendering:optimizeQuality; fill-rule:evenodd; clip-rule:evenodd"
viewBox="0 0 1411.1 1411.1"
 xmlns:xlink="http://www.w3.org/1999/xlink">
 <defs>
  <style type="text/css">
   <![CDATA[
    .fil0 {fill:#077751}
   ]]>
  </style>
 </defs>
 <g id="Слой_x0020_1">
  <metadata id="CorelCorpID_0Corel-Layer"/>
  <path id="i" class="fil0" d="M1373.97 785.68l0 0c20.43,0 37.14,16.71 37.14,37.13l0 445.62c0,20.42 -16.71,37.13 -37.14,37.13l0 0c-20.42,0 -37.13,-16.71 -37.13,-37.13l0 -445.62c0,-20.42 16.71,-37.13 37.13,-37.13zm0 -148.07c20.51,0 37.14,16.62 37.14,37.13 0,20.51 -16.63,37.13 -37.14,37.13 -20.51,0 -37.13,-16.62 -37.13,-37.13 0,-20.51 16.62,-37.13 37.13,-37.13z"/>
  <path class="fil0" d="M630.54 1231.17c25.06,0 50.16,-1.28 75.01,-4.55 23.17,-3.06 37.14,16.93 37.14,37.13 0,20.2 -15.82,34.31 -35.3,37.09 -25.28,3.61 -50.6,4.57 -76.1,4.6l-0.27 0c-348.44,0 -631.02,-282.89 -631.02,-631.28 0,-348.65 282.64,-631.28 631.29,-631.28 348.65,0 631.28,282.63 631.28,631.28l0 0 0 0.06c0,20.42 -16.71,37.14 -37.13,37.14l-594.16 0c-20.42,0 -37.13,-16.71 -37.13,-37.14l0 0c0,-20.42 16.71,-37.13 37.13,-37.13l181.95 0c-17.22,-84.73 -92.13,-148.5 -181.94,-148.5 -102.55,0 -185.67,83.13 -185.67,185.68 0,102.54 83.12,185.67 185.67,185.67l0 0c13.09,0 25.72,-1.3 37.13,-2.99 20.29,-3.02 37.14,16.92 37.14,37.13 0,20.21 -15.5,34.38 -35.36,37.09 -12.08,1.65 -30.11,3.06 -42.24,2.89 -142.69,-1.95 -256.61,-116.89 -256.61,-259.9 0,-143 116.38,-259.94 259.94,-259.94 130.97,0 239.3,96.87 257.29,222.87l112.21 0c-18.6,-187.68 -176.93,-334.27 -369.5,-334.27 -205.09,0 -371.35,166.26 -371.35,371.34 0,205.09 166.26,371.34 371.35,371.34l0 0.12 0 0c20.51,0 37.13,16.63 37.13,37.13 0,20.51 -16.62,37.14 -37.13,37.14 -1.17,0 -2.32,-0.06 -3.46,-0.16 -244.51,-1.86 -442.16,-200.62 -442.16,-445.57 0,-246.1 199.51,-445.61 445.62,-445.61 233.61,0 425.22,179.78 444.06,408.54l111.69 0c-19.08,-290.34 -260.58,-519.94 -555.75,-519.94 -307.63,0 -557.02,249.38 -557.02,557.01 0,307.38 248.99,556.6 556.27,557.01z"/>
  <path class="fil0" d="M1002.63 1231.31l0.01 0c50.97,0 100.63,-16.13 141.87,-46.09l0 0c45.94,-34.47 87.82,25.72 48.08,56.8l0 0 -0.62 0.48 -0.01 0c-54.63,40.94 -121.05,63.08 -189.32,63.08l-0.01 0c-143.57,0 -259.94,-116.38 -259.94,-259.94 0,-143.56 116.37,-259.94 259.94,-259.94 143.56,0 259.94,116.38 259.94,259.94l-0.01 0c0,20.43 -16.71,37.14 -37.13,37.14l-404.76 0c17.21,84.75 92.13,148.53 181.96,148.53zm-181.96 -222.8c17.21,-84.75 92.13,-148.54 181.96,-148.54 89.83,0 164.75,63.79 181.95,148.54l-363.91 0z"/>
 </g>
</svg>
