<?xml version="1.0" encoding="UTF-8"?>
<!DOCTYPE svg PUBLIC "-//W3C//DTD SVG 1.1//EN" "http://www.w3.org/Graphics/SVG/1.1/DTD/svg11.dtd">
<!-- Creator: CorelDRAW 2018 (64-Bit) -->
<svg xmlns="http://www.w3.org/2000/svg" xml:space="preserve" width="297mm" height="210mm" version="1.1" style="shape-rendering:geometricPrecision; text-rendering:geometricPrecision; image-rendering:optimizeQuality; fill-rule:evenodd; clip-rule:evenodd"
viewBox="0 0 29700 21000"
 xmlns:xlink="http://www.w3.org/1999/xlink">
 <defs>
  <style type="text/css">
   <![CDATA[
    .fil3 {fill:#FEFEFE}
    .fil5 {fill:#343743}
    .fil4 {fill:#9AFBDB}
    .fil7 {fill:#D4B4FD}
    .fil10 {fill:#DE749B}
    .fil9 {fill:#EADAFE}
    .fil13 {fill:#EFC7D7}
    .fil8 {fill:#F4D5E1}
    .fil0 {fill:#F8F4FF}
    .fil11 {fill:#343743;fill-rule:nonzero}
    .fil6 {fill:#393B45;fill-rule:nonzero}
    .fil12 {fill:white;fill-rule:nonzero}
    .fil1 {fill:#343743;fill-opacity:0.149020}
    .fil2 {fill:#343743;fill-opacity:0.149020}
   ]]>
  </style>
 </defs>
 <g id="Слой_x0020_1">
  <metadata id="CorelCorpID_0Corel-Layer"/>
  <path class="fil0" d="M7420.3 6217.37c938.16,0 1745.98,240.41 2670.96,240.41 2518.78,0 4828.51,-1270.22 6189.12,-3353.34 1340.78,-1866.06 3529.7,-3081.69 6002.88,-3081.69 4079.92,0 7387.35,3307.43 7387.35,7387.35 0,4079.92 -3307.43,7387.35 -7387.35,7387.35 -902.49,0 -1756.92,-212.03 -2667,-212.03 -2576.38,0 -4844.3,1319.19 -6166.27,3318.63l-12.08 -13.48c-1339.51,1877.39 -3535.56,3101.54 -6017.61,3101.54 -4079.93,0 -7387.37,-3307.44 -7387.37,-7387.37 0,-4079.93 3307.44,-7387.37 7387.37,-7387.37z"/>
  <path class="fil1" d="M20959 4607.44l-12360.73 0c-467.95,0 -848.67,380.71 -848.67,848.67l0 8534.21c0,467.96 380.72,848.67 848.67,848.67l4235.55 0.01 0 617.51c0,566.09 -460.57,1026.66 -1026.66,1026.66l-933.46 0c-178.96,0 -324.07,145.09 -324.07,324.07 2.65,69.18 14.26,66.37 193.22,66.37l8071.72 0.02c178.96,0 191.72,0.14 193.03,-66.39 0,-178.99 -145.12,-324.08 -324.08,-324.08l-933.49 0.01c-566.08,0 -1026.65,-460.57 -1026.65,-1026.66l0 -617.48 4235.54 0c467.95,0 848.7,-380.72 848.7,-848.67l0 -8534.25c0.06,-467.96 -380.66,-848.67 -848.62,-848.67z"/>
  <path class="fil2" d="M24261.29 6408.9l-343.38 0c-915.61,0 -1687.39,-893.34 -2671.39,-964.85l654.54 -2421.91c244.71,-903.26 -1178.16,-1319.07 -1450.12,-311.44l-804.61 2977.22c-592.81,597.44 -1189.44,1189.64 -1784.47,1784.67 -293.92,293.92 -283.3,797.31 25.66,1077.37 72.36,57.27 103.83,54.7 108.18,74.18 54.28,242.99 117.13,509.75 426.32,509.75l292.92 0 -73.57 272.29c-16.53,60.36 -24.71,122.61 -24.71,185.52 0,263.17 145.61,490.69 358.97,613.3l-61.21 244.25 377.69 94.28 60.45 -241.78c341.09,-0.09 631.22,-185.96 722.78,-524.72l143.61 -531.18c825.33,319.88 2146.98,464.7 2961.45,62.06 228,-113.66 482.99,-174.02 737.51,-174.02l343.38 0 0 389.28 5403.56 0 0 -3503.55 -5403.56 0 0 389.28zm-3538.63 973.21l424.35 0c107.2,0 194.64,87.25 194.64,194.64 0,107.4 -87.44,194.64 -194.64,194.64l-529.66 0 105.31 -389.28z"/>
  <path class="fil3" d="M21259 4327.44l-12360.73 0c-467.95,0 -848.67,380.71 -848.67,848.67l0 8534.21c0,467.96 380.72,848.67 848.67,848.67l4235.55 0.01 0 617.51c0,566.09 -460.57,1026.66 -1026.66,1026.66l-933.46 0c-178.96,0 -324.07,145.09 -324.07,324.07 2.65,69.18 14.26,66.37 193.22,66.37l8071.72 0.02c178.96,0 191.72,0.14 193.03,-66.39 0,-178.99 -145.12,-324.08 -324.08,-324.08l-933.49 0.01c-566.08,0 -1026.65,-460.57 -1026.65,-1026.66l0 -617.48 4235.54 0c467.95,0 848.7,-380.72 848.7,-848.67l0 -8534.25c0.06,-467.96 -380.66,-848.67 -848.62,-848.67z"/>
  <path class="fil4" d="M21259 4327.44l-12360.73 0c-467.95,0 -848.67,380.71 -848.67,848.67l0 7218.97 14058.02 42.33 0 -7261.3c0.06,-467.96 -380.66,-848.67 -848.62,-848.67z"/>
  <path class="fil5" d="M8898.27 4716.9c-252.95,0 -459.21,206.26 -459.21,459.21l0 8534.21c0,252.95 206.26,459.21 459.21,459.21l0 1.52c4120.06,0.01 8239.59,-1.48 12360.65,-1.48 252.94,0 459.24,-206.26 459.24,-459.21l0 -8534.36c0,-251.76 -207.06,-459.05 -459.06,-459.07 -1.65,0.06 -11330.78,-0.03 -12360.83,-0.03zm4625.01 9842.1l0 617.51c0,390.56 -158.79,744.62 -415.15,1000.97 -9.54,9.54 -19.23,18.93 -29.04,28.2l3999.02 0c-9.81,-9.27 -19.51,-18.66 -29.05,-28.2 -256.35,-256.35 -415.14,-610.43 -415.14,-1000.97l0 -617.48 0 -0.03 -3110.64 0zm7735.72 -10231.56l-12360.73 0c-467.95,0 -848.67,380.71 -848.67,848.67l0 8534.21c0,467.96 380.72,848.67 848.67,848.67l4235.55 0.01 0 617.51c0,566.09 -460.57,1026.66 -1026.66,1026.66l-933.46 0c-178.96,0 -324.07,145.09 -324.07,324.07 2.65,69.18 14.26,66.37 193.22,66.37l8071.72 0.02c178.96,0 191.72,0.14 193.03,-66.39 0,-178.99 -145.12,-324.08 -324.08,-324.08l-933.49 0.01c-566.08,0 -1026.65,-460.57 -1026.65,-1026.66l0 -617.48 4235.54 0c467.95,0 848.7,-380.72 848.7,-848.67l0 -8534.25c0.06,-467.96 -380.66,-848.67 -848.62,-848.67z"/>
  <path class="fil1" d="M10636 7887.67c722.36,0 1444.71,0 2167.07,0l0 0c91.25,0 165.14,73.98 165.14,165.14l0 3049.83c0,91.25 -73.89,165.14 -165.14,165.14l-2167.07 0 0 597.36c0,91.16 -73.89,165.14 -165.16,165.14 -2107.96,0 -4215.91,0 -6323.87,0 -1352.38,0 -2452.55,-1100.18 -2452.55,-2452.55 0,-1352.29 1100.17,-2452.47 2452.55,-2452.47l6323.87 0.01c91.27,0 165.16,73.89 165.16,165.14l0 597.26z"/>
  <path class="fil3" d="M10856 7567.67c722.36,0 1444.71,0 2167.07,0l0 0c91.25,0 165.14,73.98 165.14,165.14l0 3049.83c0,91.25 -73.89,165.14 -165.14,165.14l-2167.07 0 0 597.36c0,91.16 -73.89,165.14 -165.16,165.14 -2107.96,0 -4215.91,0 -6323.87,0 -1352.38,0 -2452.55,-1100.18 -2452.55,-2452.55 0,-1352.29 1100.17,-2452.47 2452.55,-2452.47l6323.87 0.01c91.27,0 165.16,73.89 165.16,165.14l0 597.26z"/>
  <path class="fil5" d="M10856 7567.67l2167.07 0c91.25,0 165.14,73.98 165.14,165.14l0 3049.83c0,91.25 -73.89,165.14 -165.14,165.14l-2167.07 0 0 597.36c0,91.16 -73.89,165.14 -165.16,165.14l-6323.87 0c-1352.38,0 -2452.55,-1100.18 -2452.55,-2452.55 0,-1352.29 1100.17,-2452.47 2452.55,-2452.47l6323.87 0.01c91.27,0 165.16,73.89 165.16,165.14l0 597.26zm1942.74 389.47l-1942.74 0c-215.09,0 -389.47,-174.38 -389.47,-389.47l0 -374.45 -6099.56 -0.01 0 1.52c-568.67,0 -1084.42,231.41 -1458.04,605.01 -373.62,373.62 -605.04,889.36 -605.04,1457.99 0,568.67 231.41,1084.42 605.03,1458.05 373.62,373.62 889.38,605.03 1458.05,605.03l6099.56 0 0 -373.03c0,-215.09 174.38,-389.47 389.47,-389.47l1942.74 0 0 -2601.17z"/>
  <path class="fil5" d="M11488.61 8560.09l737.47 0 0 389.27 -737.47 0 0 -389.27zm0 0z"/>
  <path class="fil5" d="M11488.21 9567.7l737.47 0 0 389.31 -737.47 0 0 -389.31zm0 0z"/>
  <path class="fil5" d="M10466.45 11220.32l0 -3903.92 389.27 0 0 3903.92 -389.27 0zm0 0z"/>
  <path class="fil5" d="M8049.6 12272.4l14058.02 0 0 389.27 -14058.02 0 0 -389.27zm0 0z"/>
  <path class="fil5" d="M15079.03 13120.89c140.74,0 254.84,114.09 254.84,254.84 0,140.75 -114.1,254.84 -254.84,254.84 -140.74,0 -254.84,-114.09 -254.84,-254.84 0,-140.75 114.1,-254.84 254.84,-254.84z"/>
  <path class="fil5" d="M18158.4 11326.21l-277.8 0.01c-20.43,0 -38.81,-11.48 -47.95,-29.57l-308.95 -617.9 165.11 -264.37c151.49,-242.63 231.53,-521.73 231.53,-807.55 0,-315.95 -257.19,-573.13 -573.14,-573.13 -315.94,0 -573.13,257.18 -573.13,573.13l0 67.63c0,235.17 55.6,470.89 160.82,681.24l151.12 302.05 -402.14 643.47c-9.52,15.49 -27.05,25 -45.43,25l-246.44 0c-24.63,0 -46.09,-16.79 -51.96,-40.67l-98.6 -393.75c-48.51,-194.12 -222.39,-329.76 -422.57,-329.76 -200.19,0 -374.07,135.64 -422.57,329.94l-98.6 393.75c-5.88,23.69 -27.34,40.49 -51.97,40.49l-573.12 0 0 382.08 573.12 0c200.19,0 374.07,-135.64 422.57,-329.94l98.6 -393.75c11.85,-47.76 92.07,-47.76 104.11,0l98.6 393.75c48.32,194.31 222.2,329.94 422.39,329.94l246.45 0c151.31,0 289.64,-76.4 369.49,-204.57l278.36 -445.33 204.57 409.23c74.34,148.42 223.69,240.67 389.73,240.67l448.6 0c324.33,1.84 1105.89,-375.92 1352.91,-1514.77 60.45,-241.78 -316.48,-338.53 -377.7,-94.28 -248.3,1068.86 -870.32,1234.2 -1146.01,1226.96zm-793.47 -1114.53l-41.6 66.5 -46.64 -93.28c-78.92,-157.74 -120.52,-334.32 -120.52,-510.44l0 -67.63c0,-105.41 85.63,-191.04 191.04,-191.04 105.41,0 191.04,85.63 191.04,191.04 0,214.18 -59.79,423.31 -173.32,604.85z"/>
  <path class="fil5" d="M9988.18 5655.45l7490.03 0c107.06,0 194.64,87.58 194.64,194.64l0 0.02c0,107.06 -87.58,194.64 -194.64,194.64l-7490.03 0c-107.06,0 -194.64,-87.58 -194.64,-194.64l0 -0.02c0,-107.06 87.58,-194.64 194.64,-194.64z"/>
  <path class="fil6" d="M5513.8 9594.39c0,124.88 -15.35,237.6 -46.04,338.14 -30.69,100.54 -77.26,186.26 -139.7,257.17 -62.44,70.91 -141.28,125.94 -236.53,165.1 -95.25,39.16 -208.5,58.74 -339.73,58.74 -78.32,0 -153.99,-7.94 -227.01,-23.81 -73.03,-15.88 -138.11,-37.57 -195.26,-65.09 -57.15,-27.52 -102.66,-59.8 -136.53,-96.84 -33.87,-37.04 -50.8,-76.73 -50.8,-119.06 0,-40.22 15.35,-75.14 46.04,-104.78 30.69,-29.63 69.32,-44.45 115.89,-44.45 29.63,0 52.38,4.77 68.26,14.29 15.87,9.53 35.45,21.7 58.74,36.51 48.68,29.64 96.83,52.92 144.46,69.85 47.62,16.94 101.07,25.4 160.34,25.4 80.43,0 148.16,-11.64 203.2,-34.92 55.03,-23.28 98.95,-57.15 131.76,-101.6 32.81,-44.45 56.62,-98.43 71.44,-161.93 14.81,-63.5 22.22,-134.4 22.22,-212.72l0 -161.93 -542.92 0c-48.69,0 -88.9,-16.4 -120.65,-49.21 -31.75,-32.81 -47.63,-72.49 -47.63,-119.06 0,-46.57 16.93,-85.2 50.8,-115.89 33.87,-30.69 73.03,-46.04 117.48,-46.04l542.92 0 0 -161.92c0,-78.32 -7.41,-149.23 -22.22,-212.73 -14.82,-63.5 -38.63,-117.47 -71.44,-161.92 -32.81,-44.45 -76.73,-78.32 -131.76,-101.6 -55.04,-23.28 -122.77,-34.93 -203.2,-34.93 -93.14,0 -173.57,20.11 -241.3,60.33 -29.64,16.93 -59.8,35.98 -90.49,57.15 -30.69,21.17 -64.03,31.75 -100.01,31.75 -46.57,0 -85.2,-14.82 -115.89,-44.45 -30.69,-29.63 -46.04,-65.62 -46.04,-107.95 0,-40.22 16.93,-78.85 50.8,-115.89 33.87,-37.04 79.38,-69.85 136.53,-98.42 57.15,-28.58 122.23,-50.8 195.26,-66.68 73.02,-15.87 148.69,-23.81 227.01,-23.81 131.23,0 244.48,19.58 339.73,58.74 95.25,39.16 174.09,94.19 236.53,165.1 62.44,70.91 109.01,157.16 139.7,258.76 30.69,101.6 46.04,213.78 46.04,336.55l0 654.05zm530.23 793.75c-48.69,0 -89.96,-16.4 -123.83,-49.21 -33.87,-32.81 -50.8,-71.44 -50.8,-115.89l0 -1933.58c0,-46.56 16.93,-86.25 50.8,-119.06 33.87,-32.81 75.14,-49.21 123.83,-49.21 48.68,0 89.95,16.4 123.82,49.21 33.87,32.81 50.8,72.5 50.8,119.06l0 1774.83 771.53 0 0 -1774.83c0,-46.56 17.46,-86.25 52.38,-119.06 34.93,-32.81 75.67,-49.21 122.24,-49.21 48.68,0 89.96,16.4 123.83,49.21 33.86,32.81 50.8,72.5 50.8,119.06l0 1774.83 79.37 0c46.57,0 87.31,16.4 122.24,49.21 34.92,32.81 52.39,71.44 52.39,115.89l0 492.13c0,46.56 -17.47,86.25 -52.39,119.06 -34.93,32.81 -75.67,49.21 -122.24,49.21 -46.57,0 -87.31,-16.4 -122.24,-49.21 -34.92,-32.81 -52.38,-72.5 -52.38,-119.06l0 -333.38 -155.58 0 -3.17 0 -1041.4 0zm3276.6 -136.53c0,44.45 -16.94,83.61 -50.8,117.48 -33.87,33.87 -75.15,50.8 -123.83,50.8 -46.57,0 -87.31,-16.93 -122.24,-50.8 -34.92,-33.87 -52.38,-73.03 -52.38,-117.48l0 -1778 -771.53 0 0 1778c0,44.45 -16.93,83.61 -50.8,117.48 -33.87,33.87 -75.14,50.8 -123.82,50.8 -48.69,0 -89.96,-16.93 -123.83,-50.8 -33.87,-33.87 -50.8,-73.03 -50.8,-117.48l0 -1936.75c0,-44.45 16.93,-83.6 50.8,-117.47 33.87,-33.87 75.14,-50.8 123.83,-50.8l1120.77 0c46.57,0 87.31,16.93 122.24,50.8 34.92,33.87 52.39,73.02 52.39,117.47l0 1936.75z"/>
  <path class="fil5" d="M13930.52 6795.45l3547.69 0c107.06,0 194.64,87.58 194.64,194.64l0 0.02c0,107.06 -87.58,194.64 -194.64,194.64l-3547.69 0c-107.06,0 -194.64,-87.58 -194.64,-194.64l0 -0.02c0,-107.06 87.58,-194.64 194.64,-194.64z"/>
  <path class="fil5" d="M13930.52 7955.45l3547.69 0c107.06,0 194.64,87.58 194.64,194.64l0 0.02c0,107.06 -87.58,194.64 -194.64,194.64l-3547.69 0c-107.06,0 -194.64,-87.58 -194.64,-194.64l0 -0.02c0,-107.06 87.58,-194.64 194.64,-194.64z"/>
  <path class="fil3" d="M24651.29 6058.9l-343.38 0c-254.52,0 -509.52,-60.35 -737.52,-174.2l-1167.85 -583.94c-238.17,-119.08 -500.57,-187.42 -766.02,-206.71l654.54 -2421.91c244.71,-903.26 -1178.16,-1319.07 -1450.12,-311.44l-804.61 2977.22c-592.81,597.44 -1189.44,1189.64 -1784.47,1784.67 -84.87,84.87 -143.7,187.7 -179.43,298.81 -34.79,87.58 -40.75,282.8 -19.49,389.28 33.26,151.78 111.67,286.93 224.58,389.28 72.36,57.27 103.83,54.7 108.18,74.18 23.59,105.6 61.32,229.5 91.12,315.11 67.57,115.85 191.79,194.64 335.2,194.64l292.92 0 -73.57 272.29c-16.53,60.36 -24.71,122.61 -24.71,185.52 0,263.17 145.61,490.69 358.97,613.3l-61.21 244.25 377.69 94.28 60.45 -241.78 37.26 -0.01c320.19,0 601.98,-215.64 685.52,-524.71l143.61 -531.18c825.33,319.88 2146.98,464.7 2961.45,62.06 228,-113.66 482.99,-174.02 737.51,-174.02l343.38 0 0 389.28 3503.56 0 0 -3503.55 -3503.56 0 0 389.28zm-3538.63 973.21l424.35 0c107.2,0 194.64,87.25 194.64,194.64 0,107.4 -87.44,194.64 -194.64,194.64l-529.66 0 105.31 -389.28z"/>
  <polygon class="fil7" points="24885.03,5785.71 29672.39,5785.71 29672.39,8995.99 24885.03,8995.99 "/>
  <path class="fil7" d="M19611.08 9719.22l-507.62 -122.66 243.04 -988.59 1093.61 35.28 -292.97 868.19 -536.06 207.78zm0 -2099.02l1058.92 -43.45 1481.08 -5036.56 -176.39 -405.69 -493.89 -194.03 -405.69 317.5 -1464.03 5362.23z"/>
  <path class="fil5" d="M24651.29 6058.9l-343.38 0c-254.52,0 -509.52,-60.35 -737.52,-174.2l-1167.85 -583.94c-238.17,-119.08 -500.57,-187.42 -766.02,-206.71l654.54 -2421.91c244.71,-903.26 -1178.16,-1319.07 -1450.12,-311.44l-804.61 2977.22c-592.81,597.44 -1189.44,1189.64 -1784.47,1784.67 -84.87,84.87 -143.7,187.7 -179.43,298.81 -34.79,87.58 -40.75,282.8 -19.49,389.28 33.26,151.78 111.67,286.93 224.58,389.28 72.36,57.27 103.83,54.7 108.18,74.18 23.59,105.6 61.32,229.5 91.12,315.11 67.57,115.85 191.79,194.64 335.2,194.64l292.92 0 -73.57 272.29c-16.53,60.36 -24.71,122.61 -24.71,185.52 0,263.17 145.61,490.69 358.97,613.3l-61.21 244.25 377.69 94.28 60.45 -241.78 37.26 -0.01c320.19,0 601.98,-215.64 685.52,-524.71l143.61 -531.18c825.33,319.88 2146.98,464.7 2961.45,62.06 228,-113.66 482.99,-174.02 737.51,-174.02l343.38 0 0 389.28 5023.56 0 0 -3503.55 -5023.56 0 0 389.28zm1742.29 1898.15c140.74,0 254.84,114.09 254.84,254.84 0,140.75 -114.1,254.84 -254.84,254.84 -140.74,0 -254.84,-114.09 -254.84,-254.84 0,-140.75 114.1,-254.84 254.84,-254.84zm-574.44 826.84l3846.43 0 0 -2724.99 -3846.43 0c0,908.33 0,1816.66 0,2724.99zm-389.28 -2724.99l-389.29 0 0 2724.99 389.29 0c0,-908.33 0,-1816.66 0,-2724.99zm-4317.2 973.21l424.35 0c107.2,0 194.64,87.25 194.64,194.64 0,107.4 -87.44,194.64 -194.64,194.64l-529.66 0 105.31 -389.28zm-508.37 389.28l-727.72 0c343.69,-1271.67 687.09,-2543.43 1030.99,-3815l667.56 222.49c-323.56,1197.51 -647.15,2394.98 -970.83,3592.51zm-2052.68 498.49c-78.69,-65.96 -128.87,-162.14 -128.87,-270.39 0,-93.61 37.92,-185.23 104.36,-251.66l1305.28 -1305.47 -359.16 1329.04 -77.27 -0.01c-363.43,0 -677.16,202.63 -844.34,498.49zm2681.18 -5516.79c108.64,-403.83 798.24,-261.1 682.39,167.65l-238.45 881.88 -667.56 -222.49 223.62 -827.04zm-1516.08 7159.37c-176.96,0 -320.76,-143.8 -320.76,-320.76 0,-28.41 3.7,-56.46 11.12,-83.92l101.03 -373.89c233.92,0 492.59,-14.35 723.26,16.16l-142.09 525.58c-37.35,139.33 -164.9,236.84 -309.45,236.84l-63.11 -0.01zm4591.2 -1167.86c-314.49,0 -629.65,74.32 -911.44,215.08 -689.44,344.29 -1936.25,206.5 -2625.38,-69.28 -551.81,-221.06 -1359.64,-145.8 -1959.07,-145.8 0,-321.89 262.03,-583.92 583.93,-583.92l2141.06 0c321.9,0 583.93,-262.03 583.93,-583.93 0,-321.9 -262.03,-583.92 -583.93,-583.92l-319.24 0 314.97 -1165.29c240.54,6.18 480.13,63.96 695.6,171.64l1167.85 583.93c281.89,140.76 597.23,215.08 911.72,215.08l343.38 0 0 1946.41 -343.38 0z"/>
  <path class="fil8" d="M4212.3 14772.37l0 0c78.89,0 143.43,64.54 143.43,143.42l0 286.83 286.81 0c78.88,0 143.42,64.53 143.42,143.41l0 0c0,78.88 -64.54,143.41 -143.42,143.41l-286.81 0 0 286.82c0,78.88 -64.54,143.43 -143.43,143.43l0 0c-78.86,0 -143.4,-64.55 -143.4,-143.43l0 -286.82 -286.83 0c-78.89,0 -143.43,-64.53 -143.43,-143.41l0 0c0,-78.88 64.54,-143.41 143.43,-143.41l286.83 0 0 -286.83c0,-78.88 64.54,-143.42 143.4,-143.42z"/>
  <path class="fil9" d="M14920.47 1445.12l0 0c103.41,0 188.01,84.6 188.01,187.99l0 375.98 375.96 0c103.39,0 187.99,84.6 187.99,187.99l0 0c0,103.39 -84.6,187.99 -187.99,187.99l-375.96 0 0 375.96c0,103.4 -84.6,188.01 -188.01,188.01l0 0c-103.38,0 -187.97,-84.61 -187.97,-188.01l0 -375.96 -375.98 0c-103.41,0 -188.01,-84.6 -188.01,-187.99l0 0c0,-103.39 84.6,-187.99 188.01,-187.99l375.98 0 0 -375.98c0,-103.39 84.59,-187.99 187.97,-187.99z"/>
  <path class="fil10" d="M3691 930.81c1063.8,0 1926.18,862.38 1926.18,1926.18 0,1063.8 -862.38,1926.18 -1926.18,1926.18 -1063.8,0 -1926.18,-862.38 -1926.18,-1926.18 0,-1063.8 862.38,-1926.18 1926.18,-1926.18z"/>
  <g>
   <path class="fil11" d="M5283.25 2114.52c-39.52,-84.75 -2.86,-185.51 81.89,-225.03 84.75,-39.52 185.51,-2.86 225.03,81.89l-306.92 143.14zm503.26 742.47l-338.66 0 0 0 -0.16 -24.05 -0.5 -24.01 -0.82 -23.99 -1.15 -23.99 -1.46 -23.92 -1.81 -23.88 -2.13 -23.9 -2.44 -23.82 -2.77 -23.78 -3.09 -23.72 -3.42 -23.66 -3.74 -23.63 -4.06 -23.58 -4.38 -23.51 -4.7 -23.45 -5.02 -23.39 -5.32 -23.29 -5.66 -23.22 -5.96 -23.16 -6.29 -23.06 -6.59 -23 -6.91 -22.9 -7.23 -22.84 -7.54 -22.73 -7.84 -22.61 -8.15 -22.48 -8.49 -22.46 -8.77 -22.32 -9.09 -22.19 -9.4 -22.11 -9.69 -21.96 -10.02 -21.86 306.92 -143.14 11.94 26.06 11.59 26.24 11.2 26.33 10.85 26.51 10.47 26.62 10.09 26.7 9.75 26.9 9.36 27.01 8.98 27.09 8.61 27.2 8.25 27.32 7.87 27.42 7.49 27.52 7.12 27.62 6.74 27.72 6.36 27.81 5.98 27.87 5.6 27.97 5.22 28.03 4.84 28.1 4.46 28.17 4.08 28.26 3.69 28.32 3.31 28.36 2.92 28.42 2.53 28.42 2.15 28.54 1.76 28.56 1.37 28.57 0.98 28.63 0.58 28.65 0.2 28.67 0 0zm-2095.51 2095.51l0 -338.66 0 0 90.58 -2.29 89.29 -6.79 87.92 -11.17 86.48 -15.45 84.94 -19.6 83.31 -23.67 81.57 -27.59 79.73 -31.44 77.77 -35.16 75.72 -38.79 73.57 -42.3 71.29 -45.7 68.88 -48.98 66.4 -52.19 63.78 -55.25 61.05 -58.2 58.2 -61.05 55.25 -63.78 52.19 -66.4 48.98 -68.88 45.7 -71.29 42.3 -73.57 38.79 -75.72 35.16 -77.77 31.44 -79.73 27.59 -81.57 23.67 -83.31 19.6 -84.94 15.45 -86.48 11.17 -87.92 6.79 -89.29 2.29 -90.58 338.66 0 -2.73 107.66 -8.07 106.35 -13.33 104.88 -18.43 103.22 -23.42 101.44 -28.25 99.51 -32.97 97.43 -37.54 95.21 -41.98 92.87 -46.29 90.38 -50.46 87.75 -54.5 85.03 -58.42 82.14 -62.19 79.14 -65.83 76 -69.36 72.73 -72.73 69.36 -76 65.83 -79.14 62.19 -82.14 58.42 -85.03 54.5 -87.75 50.46 -90.38 46.29 -92.87 41.98 -95.21 37.54 -97.43 32.97 -99.51 28.25 -101.44 23.42 -103.22 18.43 -104.88 13.33 -106.35 8.07 -107.66 2.73 0 0zm-2095.51 -2095.51l338.66 0 0 0 2.29 90.58 6.79 89.29 11.17 87.92 15.45 86.48 19.6 84.94 23.67 83.31 27.59 81.57 31.44 79.73 35.16 77.77 38.79 75.72 42.3 73.57 45.7 71.29 48.98 68.88 52.19 66.4 55.25 63.78 58.19 61.05 61.06 58.2 63.78 55.25 66.4 52.19 68.88 48.98 71.29 45.7 73.57 42.3 75.72 38.79 77.77 35.16 79.73 31.44 81.57 27.59 83.31 23.67 84.94 19.6 86.48 15.45 87.92 11.17 89.29 6.79 90.58 2.29 0 338.66 -107.66 -2.73 -106.35 -8.07 -104.88 -13.33 -103.22 -18.43 -101.44 -23.42 -99.51 -28.25 -97.43 -32.97 -95.21 -37.54 -92.87 -41.98 -90.38 -46.29 -87.75 -50.46 -85.03 -54.5 -82.14 -58.42 -79.14 -62.19 -76 -65.83 -72.74 -69.36 -69.35 -72.73 -65.83 -76 -62.19 -79.14 -58.42 -82.14 -54.5 -85.03 -50.46 -87.75 -46.29 -90.38 -41.98 -92.87 -37.54 -95.21 -32.97 -97.43 -28.25 -99.51 -23.42 -101.44 -18.43 -103.22 -13.33 -104.88 -8.07 -106.35 -2.73 -107.66 0 0zm2095.51 -2095.51l0 338.66 0 0 -90.58 2.29 -89.29 6.79 -87.92 11.17 -86.48 15.45 -84.94 19.6 -83.31 23.67 -81.57 27.59 -79.73 31.44 -77.77 35.16 -75.72 38.79 -73.57 42.3 -71.29 45.7 -68.88 48.98 -66.4 52.19 -63.79 55.25 -61.05 58.19 -58.19 61.05 -55.25 63.79 -52.19 66.4 -48.98 68.88 -45.7 71.29 -42.3 73.57 -38.79 75.72 -35.16 77.77 -31.44 79.73 -27.59 81.57 -23.67 83.31 -19.6 84.94 -15.45 86.48 -11.17 87.92 -6.79 89.29 -2.29 90.58 -338.66 0 2.73 -107.66 8.07 -106.35 13.33 -104.88 18.43 -103.22 23.42 -101.44 28.25 -99.51 32.97 -97.43 37.54 -95.21 41.98 -92.87 46.29 -90.38 50.46 -87.75 54.5 -85.03 58.42 -82.14 62.19 -79.14 65.83 -75.99 69.35 -72.75 72.75 -69.35 75.99 -65.83 79.14 -62.19 82.14 -58.42 85.03 -54.5 87.75 -50.46 90.38 -46.29 92.87 -41.98 95.21 -37.54 97.43 -32.97 99.51 -28.25 101.44 -23.42 103.22 -18.43 104.88 -13.33 106.35 -8.07 107.66 -2.73 0 0zm1201.93 378.96l-194.24 277.42 -27.85 -19.1 -28.18 -18.54 -28.49 -17.99 -28.79 -17.39 -29.11 -16.84 -29.36 -16.26 -29.64 -15.66 -29.93 -15.11 -30.16 -14.5 -30.47 -13.93 -30.68 -13.35 -30.89 -12.73 -31.16 -12.16 -31.34 -11.55 -31.57 -10.94 -31.79 -10.36 -31.95 -9.74 -32.13 -9.14 -32.3 -8.51 -32.5 -7.92 -32.63 -7.29 -32.79 -6.67 -32.91 -6.06 -33.03 -5.41 -33.19 -4.8 -33.29 -4.17 -33.38 -3.54 -33.48 -2.89 -33.57 -2.26 -33.62 -1.61 -33.73 -0.97 -33.78 -0.33 0 -338.66 40.28 0.39 40.19 1.15 40.16 1.93 40.03 2.7 39.94 3.45 39.84 4.22 39.69 4.97 39.55 5.72 39.43 6.47 39.27 7.22 39.09 7.95 38.93 8.71 38.72 9.42 38.56 10.17 38.35 10.9 38.11 11.62 37.87 12.34 37.65 13.06 37.42 13.79 37.12 14.48 36.91 15.21 36.58 15.91 36.27 16.59 36.04 17.32 35.69 18.01 35.38 18.7 35.04 19.4 34.67 20.06 34.35 20.77 33.97 21.43 33.6 22.1 33.23 22.8zm0 0c76.6,53.63 95.22,159.23 41.59,235.83 -53.63,76.6 -159.23,95.22 -235.83,41.59l194.24 -277.42z"/>
  </g>
  <path class="fil12" d="M3630.66 2229l-292.17 185.13c-25.07,15.43 -49.66,28.93 -73.77,40.5 -24.1,11.57 -49.66,17.36 -76.66,17.36 -32.78,0 -64.6,-11.09 -95.46,-33.27 -30.85,-22.18 -46.28,-55.44 -46.28,-99.8 0,-59.78 23.14,-103.17 69.42,-130.17l572.78 -350.03c15.42,-9.64 30.37,-16.39 44.83,-20.25 14.47,-3.86 29.41,-5.78 44.84,-5.78 48.21,0 88.71,15.42 121.5,46.28 32.78,30.86 49.18,68.46 49.18,112.82l0 1781.95c0,38.57 -15.43,73.28 -46.29,104.14 -30.86,30.86 -68.46,46.29 -112.82,46.29 -44.35,0 -81.96,-15.43 -112.82,-46.29 -30.85,-30.86 -46.28,-65.57 -46.28,-104.14l0 -1544.74z"/>
  <path class="fil13" d="M8692.3 2374.04c165.69,0 300,134.31 300,300 0,165.69 -134.31,300 -300,300 -165.69,0 -300,-134.31 -300,-300 0,-165.69 134.31,-300 300,-300z"/>
  <path class="fil9" d="M24492.25 11915.27c110.46,0 200,89.54 200,200 0,110.46 -89.54,200 -200,200 -110.46,0 -200,-89.54 -200,-200 0,-110.46 89.54,-200 200,-200z"/>
  <g>
   <path class="fil9" d="M16623.97 17527.14c276.14,0 500,223.86 500,500 0,276.14 -223.86,500 -500,500 -276.14,0 -500,-223.86 -500,-500 0,-276.14 223.86,-500 500,-500zm203.89 296.11c-52.16,-52.16 -124.26,-84.44 -203.89,-84.44 -79.63,0 -151.73,32.28 -203.89,84.44 -52.16,52.16 -84.44,124.26 -84.44,203.89 0,79.63 32.28,151.73 84.44,203.89 52.16,52.17 124.26,84.44 203.89,84.44 79.63,0 151.73,-32.27 203.89,-84.44 52.17,-52.16 84.44,-124.26 84.44,-203.89 0,-79.63 -32.27,-151.73 -84.44,-203.89z"/>
  </g>
  <path class="fil9" d="M24687.7 2576.01l0.02 0c85.27,0 155.04,69.76 155.04,155.04l0 310.11c0,85.28 -69.77,155.04 -155.04,155.04l-0.02 0c-85.28,0 -155.04,-69.76 -155.04,-155.04l0 -310.11c0,-85.28 69.76,-155.04 155.04,-155.04zm155.41 775.6l0 -0.02c0,-85.27 69.76,-155.03 155.03,-155.03l310.12 0c85.27,0 155.03,69.76 155.03,155.03l0 0.02c0,85.28 -69.76,155.04 -155.03,155.04l-310.12 0c-85.27,0 -155.03,-69.76 -155.03,-155.04zm-931 0l0 -0.02c0,-85.27 69.76,-155.03 155.04,-155.03l310.11 0c85.28,0 155.04,69.76 155.04,155.03l0 0.02c0,85.28 -69.76,155.04 -155.04,155.04l-310.11 0c-85.28,0 -155.04,-69.76 -155.04,-155.04zm775.59 155.39l0.02 0c85.27,0 155.04,69.76 155.04,155.04l0 310.11c0,85.28 -69.77,155.04 -155.04,155.04l-0.02 0c-85.28,0 -155.04,-69.76 -155.04,-155.04l0 -310.11c0,-85.28 69.76,-155.04 155.04,-155.04z"/>
 </g>
</svg>
