<?xml version="1.0" encoding="UTF-8"?>
<!DOCTYPE svg PUBLIC "-//W3C//DTD SVG 1.1//EN" "http://www.w3.org/Graphics/SVG/1.1/DTD/svg11.dtd">
<!-- Creator: CorelDRAW 2018 (64-Bit) -->
<svg xmlns="http://www.w3.org/2000/svg" xml:space="preserve" width="297mm" height="210mm" version="1.1" style="shape-rendering:geometricPrecision; text-rendering:geometricPrecision; image-rendering:optimizeQuality; fill-rule:evenodd; clip-rule:evenodd"
viewBox="0 0 29700 21000"
 xmlns:xlink="http://www.w3.org/1999/xlink">
 <defs>
  <style type="text/css">
   <![CDATA[
    .fil3 {fill:#343743}
    .fil2 {fill:#9AFBDB}
    .fil6 {fill:#D4B4FD}
    .fil11 {fill:#DE749B}
    .fil9 {fill:#EADAFE}
    .fil8 {fill:#F4D5E1}
    .fil0 {fill:#F8F4FF}
    .fil5 {fill:white}
    .fil12 {fill:#343743;fill-rule:nonzero}
    .fil7 {fill:#343743;fill-rule:nonzero}
    .fil13 {fill:white;fill-rule:nonzero}
    .fil4 {fill:#343743;fill-opacity:0.149020}
    .fil1 {fill:#343743;fill-opacity:0.149020}
    .fil10 {fill:#EFC7D7;fill-opacity:0.501961}
   ]]>
  </style>
 </defs>
 <g id="Слой_x0020_1">
  <metadata id="CorelCorpID_0Corel-Layer"/>
  <path class="fil0" d="M7420.3 6217.37c938.16,0 1745.98,240.41 2670.96,240.41 2518.78,0 4828.51,-1270.22 6189.12,-3353.34 1340.78,-1866.06 3529.7,-3081.69 6002.88,-3081.69 4079.92,0 7387.35,3307.43 7387.35,7387.35 0,4079.92 -3307.43,7387.35 -7387.35,7387.35 -902.49,0 -1756.92,-212.03 -2667,-212.03 -2576.38,0 -4844.3,1319.19 -6166.27,3318.63l-12.08 -13.48c-1339.51,1877.39 -3535.56,3101.54 -6017.61,3101.54 -4079.93,0 -7387.37,-3307.44 -7387.37,-7387.37 0,-4079.93 3307.44,-7387.37 7387.37,-7387.37z"/>
  <path class="fil1" d="M7181.29 14763.61l0 699.68c-1.4,9.62 -2.14,19.45 -2.14,29.46l0 3246.77c-447.63,0 -811.68,364.04 -811.68,811.7 0,447.66 364.05,811.69 811.69,811.69l2232.16 0 2.35 -0.03 1213.73 -0.01 1.49 0.02 1.49 -0.02 808.67 0 1.49 0.02 4058.48 -0.01 811.69 0 1420.45 0c447.66,0.03 811.71,-364.02 811.71,-811.66 0,-447.63 -364.05,-811.7 -811.69,-811.7l0 -3246.77c0,-4.86 -0.18,-9.67 -0.52,-14.44l0.04 -713.71 465.76 465.76c38.76,38.76 90.7,59.45 143.47,59.45 26.18,0 52.55,-5.07 77.72,-15.44 75.69,-31.46 125.19,-105.51 125.19,-187.5l0 -5073.05c0.03,-112 -90.88,-202.92 -202.89,-202.92l-151.83 0 -0.06 -0.31c-903.25,0 -1829.18,0.16 -2752.27,0.31l-1222.21 0c-2.58,0 -5.15,0.07 -7.71,0.16l-854.79 0.05 -752.44 -752.44c-39.78,-39.79 -91.94,-59.45 -144.08,-59.45 -52.15,0 -104.3,19.69 -144.09,59.45l-753.2 753.34 -840.33 -0.11c-6.64,-0.65 -13.37,-1 -20.18,-1l-270.83 -0.01 -0.01 -1420.46c0,-112.01 -90.91,-202.92 -202.91,-202.92l-1623.38 0c-112,0 -202.92,90.91 -202.92,202.92 0,496.13 -0.04,947.93 -0.04,1420.45l-1826.28 0c-53.77,0 -105.52,21.31 -143.47,59.45 -38.15,37.97 -59.45,89.72 -59.45,143.49l0.8 5073.08c0,82.18 49.52,156.04 125.43,187.51 25.15,10.33 51.33,15.43 77.51,15.43 52.97,0 104.93,-20.69 143.47,-59.45l466.61 -466.78z"/>
  <path class="fil2" d="M7423.31 14386.58c1.78,1.42 -0.26,1.93 -2.02,3.7 0,1204.04 0,3103.17 0,4307.22 -447.32,41.39 -728.22,139.88 -728.22,590.92 0,482.3 391.13,874.46 872.17,874.46 3004.04,0 6675.14,-0.03 10288.41,-0.03 481.21,0 871.83,-391.94 871.83,-874.36 0.11,-0.02 0.21,-0.05 0.32,-0.07 0,-451.01 -307.99,-531.48 -755.29,-572.84l0.19 -4235.21 -0.46 -2.12c103.14,104.49 172.19,210.52 279.91,318.52 80.45,80.67 199.63,103.16 303.38,60.43 0.11,0 0.22,0 0.33,0 103.48,-43.13 171.91,-145.55 171.91,-257.97 0,-1653.1 0,-2981.26 0,-4634.36 0,-77.06 -31.21,-146.91 -81.61,-197.45 -50.19,-50.31 -138.97,-156.5 -216.04,-156.51 -0.01,-0.12 -0.03,-0.21 -0.06,-0.32 -1605.78,0 -3283.22,0.52 -4888.99,0.52 -10.62,0 -13.24,0.42 -13.24,0.42 -237.07,-237.7 -382.33,-399.89 -619.4,-637.58 -51.93,-52.07 -124.18,-81.84 -197.6,-81.84 -73.62,0 -145.21,29.66 -197.28,81.84 -0.11,0 -0.21,0 -0.32,0 -237.02,237.69 -402.9,400.39 -639.93,638.07 0,0 -1295.48,-0.19 -1318.47,-0.13 0.45,-717.82 19.12,75 19.99,-1233.93 0,-77.1 -31.22,-146.96 -81.64,-197.51 -5.52,0 -117.69,-81.85 -197,-81.85 -527.6,0 -816.35,0 -1343.95,0 -76.68,0 -146.25,31.31 -196.67,81.85 -52.52,52.65 -81.95,122.96 -81.95,197.51 0,1374.39 -1.03,868.54 0.86,1307.59 -566.93,0 -1133.84,0 -1700.77,0 -73.53,0 -144.76,29.73 -196.68,81.84 -0.11,0.11 -0.21,0.23 -0.32,0.34 -51.99,52.1 -81.63,123.46 -81.63,197.21 0.1,0 0.21,0 0.3,0 0.27,1653.09 0.53,2908.99 0.8,4562.08 -0.1,0 -0.21,0 -0.3,0 0,133.37 94.8,247.61 224.47,274.02 90.92,18.15 185.68,-10.78 251.15,-76.79 108.07,-108.39 150.34,-232.82 253.82,-337.67z"/>
  <path class="fil3" d="M9839.42 18975c-82.4,-477.08 -499.41,-841.31 -999.81,-841.31 -399.55,0 -745.75,232.14 -911.13,568.58 -32.68,-23.33 -67.59,-44.04 -103.49,-62.71l0 -3346.81c0,-112 -90.91,-202.91 -202.92,-202.91 -112,0 -202.92,90.9 -202.92,202.91l0 3246.77c-447.63,0 -811.68,364.04 -811.68,811.7 0,447.66 364.05,811.69 811.69,811.69l2232.16 0c335.63,0 608.77,-273.14 608.77,-608.77 0,-270.1 -176.76,-499.59 -420.67,-579.14zm623.59 -4088.1l-1623.38 0c-112,0 -202.92,90.91 -202.92,202.92l0 2232.16 -202.93 0c-112,0 -202.92,90.9 -202.92,202.91 0,112.01 90.92,202.94 202.92,202.94l2435.08 0c112,0 202.92,-90.91 202.92,-202.92 0,-112.01 -90.91,-202.92 -202.92,-202.92l-202.91 0.01 0 -2232.16c0,-112.03 -90.92,-202.94 -202.94,-202.94zm-202.92 2435.08l-1217.54 0 0 -811.69 1217.54 0 0 811.69zm0 -1217.55l-1217.54 0 0 -811.68 1217.54 0 0 811.68zm4464.3 3043.85c0,-112 -90.9,-202.91 -202.91,-202.91l-608.77 0 0 -3855.53c0,-112.01 -90.91,-202.93 -202.91,-202.93l-2029.23 0.01c-112,0 -202.92,90.91 -202.92,202.92l0 3855.53 -608.76 0c-112,0 -202.93,90.91 -202.93,202.91l0 811.7c0,112 90.92,202.91 202.93,202.91 112,0 202.91,-90.91 202.91,-202.91l0 -608.77 3449.68 -0.01c112,0.02 202.91,-90.89 202.91,-202.92zm-1217.53 -2232.14l-202.92 0c-112.01,0 -202.92,90.91 -202.92,202.92 0,112.01 90.91,202.92 202.92,202.92l202.92 0 0 1623.39 -1623.4 0 0 -3652.62 1623.4 0 0 1623.39zm3043.85 -2029.24l-1623.4 0c-112,0 -202.92,90.91 -202.92,202.92l0 2232.16 -202.91 0c-112,0 -202.92,90.9 -202.92,202.91 0,112.01 90.91,202.93 202.92,202.93l2435.08 -0.01c112,0 202.92,-90.92 202.92,-202.93 0,-112 -90.91,-202.91 -202.92,-202.91l-202.91 0.01 0 -2232.16c0,-112.01 -90.92,-202.92 -202.94,-202.92zm-202.92 2435.08l-1217.54 0 0 -811.69 1217.54 0 0 811.69zm0 -1217.55l-1217.54 0 0 -811.68 1217.54 0 0 811.68zm-2840.93 -4058.44c0,-447.67 -364.05,-811.7 -811.69,-811.7 -447.66,0 -811.69,364.06 -811.69,811.7 0,447.63 364.03,811.68 811.69,811.68 447.66,0 811.69,-364.05 811.69,-811.68zm-1217.54 0c0,-223.82 182.01,-405.86 405.85,-405.86 223.82,0 405.85,182.01 405.85,405.86 0,223.82 -182.01,405.85 -405.85,405.85 -223.82,-0.02 -405.85,-182.03 -405.85,-405.85zm5681.86 6493.53l0 -3246.77c0,-112 -90.91,-202.91 -202.92,-202.91 -112.01,0 -202.91,90.9 -202.91,202.91l0 3346.81c-35.91,18.67 -70.82,39.36 -103.5,62.71 -165.38,-336.44 -511.57,-568.58 -911.13,-568.58 -500.4,0 -917.41,364.24 -999.81,841.31 -243.91,79.55 -420.66,309.05 -420.66,579.14 0,71.63 14.59,139.21 37.54,202.92l-3487.25 0c-112,0 -202.91,90.91 -202.91,202.92 0,112 90.91,202.91 202.91,202.91l4058.48 -0.01 811.69 0 1420.45 0c447.66,0.03 811.71,-364.02 811.71,-811.66 0,-447.63 -364.05,-811.7 -811.69,-811.7zm0 1217.54l-1420.45 0 -811.71 0c-111.82,0 -202.92,-91.1 -202.92,-202.92 0,-111.81 91.1,-202.92 202.92,-202.92 112,0 202.92,-90.91 202.92,-202.92 0,-335.63 273.14,-608.76 608.77,-608.76 335.63,0 608.77,273.13 608.77,608.76 0,98.22 70.22,182.23 166.79,199.68 96.38,17.65 191.98,-36.74 226.26,-128.64 61.07,-163.96 229.31,-273.95 418.63,-273.95 223.82,0 405.85,182.01 405.85,405.85 0,223.85 -182.01,405.82 -405.83,405.82zm608.77 -10146.16l-4126.37 0c-112,0 -202.91,90.91 -202.91,202.92 0,112.01 90.9,202.91 202.91,202.91l3923.44 0 0 4380.33 -5538.38 -5538.39c-39.78,-39.79 -91.94,-59.45 -144.08,-59.45 -52.15,0 -104.3,19.69 -144.09,59.45l-5537.15 5538.17 0 -4380.11 1826.28 -1.92c112,0 202.91,-90.9 202.91,-202.91 -0.01,-678.41 0.04,-875.8 0.04,-1418.54l1217.54 0 0.05 1418.54c0,112 90.91,202.91 202.92,202.91l473.7 1.92c112,0 202.91,-90.9 202.91,-202.91 0,-112.01 -90.9,-202.92 -202.91,-202.92l-270.83 -0.01 -0.01 -1420.46c0,-112.01 -90.91,-202.92 -202.91,-202.92l-1623.38 0c-112,0 -202.92,90.91 -202.92,202.92 0,496.13 -0.04,947.93 -0.04,1420.45l-1826.28 0c-53.77,0 -105.52,21.31 -143.47,59.45 -38.15,37.97 -59.45,89.72 -59.45,143.49l0.8 5073.08c0,82.18 49.52,156.04 125.43,187.51 25.15,10.33 51.33,15.43 77.51,15.43 52.97,0 104.93,-20.69 143.47,-59.45l5739.87 -5741.95 5741.91 5741.92c38.76,38.76 90.7,59.45 143.47,59.45 26.18,0 52.55,-5.07 77.72,-15.44 75.69,-31.46 125.19,-105.51 125.19,-187.5l0 -5073.05c0.03,-112 -90.88,-202.92 -202.89,-202.92zm-8928.63 10146.16l-2232.16 0c-223.82,0 -405.86,-182.02 -405.86,-405.85 0,-223.85 182.04,-405.84 405.86,-405.84 189.34,0 357.55,109.99 418.62,273.95 34.29,91.93 129.27,146.1 226.27,128.65 96.6,-17.46 166.79,-101.47 166.79,-199.69 0,-335.63 273.14,-608.77 608.77,-608.77 335.63,0 608.77,273.14 608.77,608.77 0,112 90.91,202.92 202.91,202.92 111.82,0 202.92,91.1 202.92,202.92 0,111.82 -91.07,202.94 -202.89,202.94z"/>
  <path class="fil1" d="M19456.99 1350.23l6791.34 0c1314.99,0 2389.47,1074.48 2389.47,2389.47l0 1734c0,1314.99 -1074.48,2389.47 -2389.47,2389.47l-5040.1 0 -2079.13 1455.07c-193.24,94.1 -426.2,13.72 -520.3,-179.52 -66.43,-138.33 -2.64,-284.47 316.32,-1329.29l-242.15 -75.56c-960.2,-330.9 -1615.45,-1239.31 -1615.45,-2260.17l0 -1734c0,-1314.99 1074.48,-2389.47 2389.47,-2389.47z"/>
  <path class="fil4" d="M-160 1343.23l7455.63 18.47c7.75,-1.25 16.07,-1.97 23.89,-1.92l1172.54 9.99c40.02,0.35 76.19,16.95 102.3,43.49 25.96,26.57 41.89,62.92 41.55,102.8l-5.4 634.9 392.48 -74.98c104.71,-57.29 201.66,-100.05 318.03,-130.15 100.08,-25.9 203.52,-39.52 307.94,-40.24l2012.62 -12.25c145.58,-3.49 290.75,28 421.87,91.31 553.97,-236.38 2422.48,-1128.01 2857.43,-1218.91 74.79,-26.83 157.3,11.75 184.84,86.23l0.59 1.28c172.53,485.11 -76.38,1019.16 -558.72,1199.16l-708.06 275.05 2223.51 392.74 0.25 -0.49c41,8.09 68.96,13.48 100.42,45.69 35.61,36.48 49.21,88.07 36.84,137.04 -90.72,354.57 -377.93,624.36 -737.48,692.7 -258.35,49.44 -513.93,-35.15 -764.88,-88.99l1194.69 1021.03 0.12 -0.03c69.25,59.72 67.23,166.9 -4.09,223.65 -393.8,315.05 -953.56,314.76 -1347.21,-0.4l-713.53 -567.45 681.94 1749.27c37.96,97.63 -37.32,201.68 -140.78,197.49l-4.6 -0.25c-163.33,-11.62 -324.04,-50.17 -474.81,-113.99 202.26,252.92 318.9,554.71 346.31,864.37 52.5,593.64 -229.43,1169.55 -722.42,1493.61 -177.7,116.82 -375.73,196.25 -581.47,235.82 -205.67,39.56 -419.04,39.28 -627.46,-3.28 -550.73,-112.45 -1009.71,-507.75 -1200.1,-1041.2 -92.09,-258.03 -118.52,-539.53 -69.9,-818.07 -116.17,153.58 -810.46,708.14 -846,320.71l-171.93 -1871.07c-433.28,29.59 -857.78,-132.24 -1161.45,-442.77l-267.42 17.87 -4.78 562.01c-0.68,78.76 -64.22,142.66 -142.9,143.81 -164.37,31.4 -948.33,-8.16 -1175.81,-10 -12.38,-0.11 -24.39,-1.76 -35.85,-4.79l-7408.74 -17.91 0 -4101.35zm12503.41 4091.67c325.35,-62.33 661.66,-22.83 963.48,113.22 -71.29,-93.39 -131.56,-195.24 -179.01,-302.71l-469.65 -1061.84c-178.89,-404.74 -658.84,-580.29 -1056.69,-387.57 -178.75,86.57 -324.76,240.78 -396.28,442.32 -0.46,557.43 54.34,1112.66 96.92,1667.95 5.24,68.11 4.79,136.31 -1.23,203.83l-2.22 22.51c5.96,-9.01 10.51,-18.43 17.64,-26.44l0.93 -1.08c240.35,-349.89 609.12,-590.75 1026.11,-670.19z"/>
  <path class="fil5" d="M5905.07 1158.37l1559.82 18.67c7.76,-1.25 16.09,-1.98 23.9,-1.92l1172.53 9.99c40.03,0.35 76.2,16.94 102.28,43.49 25.99,26.57 41.91,62.91 41.58,102.79l-5.41 634.91 392.48 -74.98c104.71,-57.29 201.66,-100.05 318.03,-130.15 100.09,-25.9 203.53,-39.53 307.95,-40.24l2012.61 -12.25c145.59,-3.49 290.75,28 421.87,91.31 553.98,-236.38 2422.48,-1128.02 2857.43,-1218.91 74.8,-26.83 157.3,11.74 184.85,86.23l0.59 1.28c172.52,485.1 -76.38,1019.16 -558.72,1199.15l-708.07 275.06 2223.52 392.73 0.25 -0.48c41,8.09 68.95,13.48 100.42,45.68 35.6,36.48 49.21,88.08 36.84,137.05 -90.72,354.57 -377.94,624.36 -737.49,692.7 -258.34,49.44 -513.92,-35.16 -764.87,-88.99l1194.68 1021.02 0.13 -0.02c69.25,59.72 67.22,166.9 -4.09,223.65 -393.8,315.04 -953.57,314.76 -1347.21,-0.4l-713.54 -567.45 681.95 1749.27c37.95,97.63 -37.32,201.67 -140.79,197.48l-4.6 -0.25c-163.33,-11.61 -324.04,-50.16 -474.8,-113.99 202.25,252.92 318.9,554.72 346.3,864.38 52.51,593.64 -229.43,1169.54 -722.42,1493.61 -177.69,116.82 -375.73,196.24 -581.47,235.81 -205.66,39.57 -419.04,39.28 -627.46,-3.27 -550.72,-112.46 -1009.7,-507.75 -1200.1,-1041.2 -92.08,-258.03 -118.51,-539.54 -69.9,-818.08 -116.16,153.59 -810.45,708.15 -846,320.71l-171.93 -1871.06c-433.28,29.59 -857.78,-132.24 -1161.44,-442.77l-267.42 17.87 -4.78 562.01c-0.69,78.75 -64.23,142.65 -142.91,143.81 -164.36,31.4 -948.32,-8.16 -1175.8,-10 -12.38,-0.11 -24.39,-1.77 -35.86,-4.8l-1496.23 -18.09 -16.7 -4101.36zm6607.61 4091.87c325.34,-62.33 661.66,-22.83 963.48,113.21 -71.29,-93.38 -131.56,-195.23 -179.01,-302.7l-469.65 -1061.85c-178.9,-404.74 -658.85,-580.28 -1056.7,-387.56 -178.76,86.57 -324.76,240.77 -396.28,442.32 -0.45,557.42 54.35,1112.65 96.93,1667.95 5.24,68.1 4.79,136.31 -1.24,203.83l-2.21 22.51c5.95,-9.01 10.5,-18.43 17.64,-26.44l0.92 -1.09c240.35,-349.88 609.13,-590.74 1026.12,-670.18z"/>
  <path class="fil6" d="M-0 1164.48l7464.88 12.56c7.77,-1.25 16.1,-1.98 23.91,-1.92l1172.53 9.99c40.03,0.35 76.2,16.94 102.28,43.49 25.99,26.57 41.91,62.91 41.58,102.79l-32.61 3817.42c-0.69,78.75 -64.23,142.65 -142.91,143.81 -164.36,31.4 -948.32,-8.15 -1175.8,-10 -12.38,-0.11 -24.39,-1.77 -35.86,-4.8l-7418 -12 0 -4101.34z"/>
  <path class="fil3" d="M6740.22 4232.15c135.62,-25.91 266.57,63.03 292.47,198.65 25.91,135.62 -63.02,266.56 -198.64,292.47 -135.62,25.91 -266.56,-63.03 -292.47,-198.65 -25.91,-135.61 63.03,-266.56 198.64,-292.47zm6777.86 -1500.6l1799.21 385.57 0.43 -0.08c292.13,69.96 590.05,-57.26 733.26,-322.6l-2543.55 -449.1 -219.41 85.25c94.17,85.44 172.32,187.64 230.06,300.96zm-13518.08 2248.91l7311.27 11.09 30.22 -3530.27 -7341.49 -11.39 0 -285.41 7464.88 12.56c7.77,-1.25 16.1,-1.98 23.91,-1.92l1172.53 9.99c79.92,0.69 144.52,66.36 143.86,146.28l-5.41 634.91 392.48 -74.98 29.11 -15.93c183.18,-99.97 388.19,-153.03 596.87,-154.46l2012.61 -12.25c145.59,-3.49 290.75,28 421.87,91.31 553.98,-236.38 2422.48,-1128.02 2857.43,-1218.91 74.8,-26.83 157.3,11.74 184.85,86.23l0.59 1.28c172.52,485.1 -76.38,1019.17 -558.72,1199.15l-708.07 275.06 2223.52 392.73 0.25 -0.48c41,8.09 68.95,13.48 100.42,45.68 35.6,36.48 49.21,88.08 36.84,137.05 -90.72,354.57 -377.94,624.36 -737.49,692.7 -258.34,49.44 -513.91,-35.16 -764.87,-88.99l1194.68 1021.02 0.13 -0.02c69.11,59.6 67.27,166.87 -4.09,223.65 -393.8,315.04 -953.57,314.76 -1347.21,-0.4l-713.54 -567.45 681.95 1749.27c37.95,97.63 -37.32,201.67 -140.79,197.48l-4.6 -0.25c-163.33,-11.61 -324.04,-50.16 -474.8,-113.99 202.25,252.92 318.9,554.72 346.3,864.38 96.15,1087.04 -887.48,1939.29 -1931.35,1726.15 -857.76,-175.16 -1419.38,-1003.37 -1270,-1859.28 -116.16,153.59 -810.45,708.15 -846,320.71l-171.93 -1871.06c-433.28,29.59 -857.78,-132.24 -1161.44,-442.77l-267.42 17.87 -4.78 562.01c-0.69,78.75 -64.23,142.65 -142.91,143.81 -164.36,31.4 -948.32,-8.15 -1175.8,-10 -12.38,-0.11 -24.39,-1.77 -35.86,-4.8l-7418 -12 0 -285.36zm15744.27 -545.42l-1452.3 -1241.07 -641.74 -137.53 158.75 407.32c369.31,289.32 735.31,583.04 1102.52,875.04 236.08,189.22 559.95,226.57 832.77,96.24zm-2651.05 -552.52l470.79 1064.55c145.13,326.49 428.16,570.95 772.12,667.04l-1046.37 -2684.4c-61.63,-157.5 -174.36,-289.67 -320.02,-375.56l-796.94 -468.62c-101.41,-59.66 -218.17,-89.95 -335.81,-87.02 -319.33,61 -1598.48,9.8 -2016.88,12.35 -160.47,1.17 -318.77,42.11 -459.65,118.95 -28.42,15.54 -59.87,36.2 -91.68,42.27l-471.57 90.09 -17.36 2033.71 314.01 -20.99c43.92,-2.91 87.16,14.61 116.78,47.12l2.82 2.99c275.34,308.92 691.17,453.6 1098.8,382.38l11.25 -1.52c79.64,-7.29 150.39,51.28 157.72,131l168.34 1831.26c350.67,-168.9 562.26,-535.9 532.72,-924.23 -43.77,-570.84 -99.59,-1141.43 -97.73,-1714.47 0.03,-14.83 2.49,-30.19 7.06,-44.29 305.54,-943.67 1608.87,-990.41 2001.21,-103.44l0.39 0.83zm-11.85 1361.04c135.63,22.76 268.37,62.91 394.79,119.89 -71.29,-93.38 -131.56,-195.23 -179.01,-302.7l-469.65 -1061.85c-288.01,-651.61 -1219.86,-602.14 -1452.98,54.76 -0.44,557.42 54.35,1112.65 96.93,1667.95 5.24,68.1 4.79,136.31 -1.24,203.83l-2.21 22.51 5.6 -8.48 0.65 -1.23c1.36,-2.71 2.74,-5.47 5.18,-9.01 2.24,-3.25 4.23,-5.5 6.21,-7.72l0.92 -1.09c353.83,-515.08 978.71,-780.19 1594.81,-676.86zm-5479.98 -249.86l882.28 7.54 30.13 -3527.24 -882.28 -7.55 -30.13 3527.25zm7031.6 -3396.73c1.24,-0.54 2.52,-1.11 4.08,-1.6 277.38,-104.04 450.1,-382.19 420.09,-676.72l-2489.94 1062.53 428.49 251.91c520.02,-202.03 1116.93,-467.63 1637.28,-636.12z"/>
  <path class="fil2" d="M12568.86 5541.15c715.74,-136.74 1406.84,332.63 1543.58,1048.4 136.74,715.76 -332.66,1406.84 -1048.4,1543.57 -715.73,136.74 -1406.83,-332.63 -1543.57,-1048.39 -136.74,-715.77 332.66,-1406.84 1048.39,-1543.58z"/>
  <path class="fil7" d="M12426.19 6907.92l0 -815.73c0,-90.19 79.13,-159.43 167.4,-159.43l297.59 0c390.65,0 637.7,211.02 637.7,608.48 0,409 -284.2,573.93 -674.91,573.93l-135.51 0 0 138.18 337.46 0c54.55,0 103.63,41.94 103.63,98.31 0,59.53 -45.71,98.3 -103.63,98.3l-337.46 0 0 239.14c0,65.45 -79.95,140.84 -146.13,140.84 -77.8,0 -146.14,-61.52 -146.14,-140.84l0 -239.14 -185.4 0c-57.83,0 -103.62,-38.77 -103.62,-98.3 0,-56.37 49.08,-98.31 103.62,-98.31l185.4 0 0 -148.8 -185.4 0c-57.83,0 -103.62,-38.78 -103.62,-98.31 0,-56.37 49.08,-98.32 103.62,-98.32l185.4 0zm292.27 -37.19l172.72 0c230.27,0 376.28,-110.72 376.28,-332.15 0,-223.95 -153.52,-332.12 -376.28,-332.12l-172.72 0 0 664.27z"/>
  <path class="fil5" d="M19656.99 1579.7l6791.34 0c1100,0 2000,900.26 2000,2000l0 1734c0,1099.74 -900.26,2000 -2000,2000l-5129.49 0 -2160.13 1494.63 498.28 -1494.63c-1100,0 -2000,-900 -2000,-2000l0 -1734c0,-1100 900,-2000 2000,-2000z"/>
  <path class="fil6" d="M19656.99 1190.23l6791.34 0c657.51,0 1254.98,268.71 1687.87,701.6 432.89,432.89 701.6,1030.36 701.6,1687.87l0 1734c0,657.51 -268.71,1254.98 -701.6,1687.87 -432.89,432.89 -1030.36,701.6 -1687.87,701.6l-5040.1 0 -2079.13 1455.07c-193.24,94.1 -426.2,13.72 -520.3,-179.52 -66.43,-138.33 -2.64,-284.47 316.32,-1329.29l-242.15 -75.56c-347.4,-119.72 -659.13,-317.58 -913.85,-572.3 -432.89,-432.89 -701.6,-1030.36 -701.6,-1687.87l0 -1734c0,-657.51 268.71,-1254.98 701.6,-1687.87 432.89,-432.89 1030.36,-701.6 1687.87,-701.6zm0 389.47l6791.34 0c1100,0 2000,900 2000,2000l0 1734c0,1100 -900,2000 -2000,2000l-5129.49 0 -2160.13 1494.63 498.28 -1494.63c-1100,0 -2000,-900 -2000,-2000l0 -1734c0,-1100 900,-2000 2000,-2000z"/>
  <path class="fil7" d="M19922.39 3754.26l-356.31 225.78c-30.57,18.81 -60.56,35.28 -89.95,49.39 -29.4,14.11 -60.56,21.16 -93.49,21.16 -39.98,0 -78.79,-13.52 -116.42,-40.57 -37.63,-27.04 -56.44,-67.61 -56.44,-121.7 0,-72.91 28.22,-125.83 84.66,-158.75l698.51 -426.86c18.81,-11.76 37.04,-20 54.68,-24.7 17.63,-4.7 35.86,-7.05 54.68,-7.05 58.79,0 108.18,18.81 148.16,56.44 39.98,37.63 59.98,83.49 59.98,137.58l0 2173.12c0,47.03 -18.82,89.37 -56.45,127 -37.63,37.63 -83.49,56.44 -137.58,56.44 -54.1,0 -99.96,-18.81 -137.59,-56.44 -37.63,-37.63 -56.44,-79.97 -56.44,-127l0 -1883.84zm1813.28 -172.86c-136.4,0 -233.42,41.75 -291.04,125.24 -57.62,83.49 -86.43,192.26 -86.43,326.32l0 1037.16c0,122.3 31.75,220.49 95.25,294.57 63.5,74.09 157.57,111.13 282.22,111.13 122.3,0 215.79,-37.04 280.46,-111.13 64.68,-74.08 97.02,-172.27 97.02,-294.57l0 -1037.16c0,-134.06 -29.4,-242.83 -88.2,-326.32 -58.8,-83.49 -155.22,-125.24 -289.28,-125.24zm0 -345.72c131.71,0 245.77,21.75 342.2,65.26 96.42,43.51 175.8,102.31 238.12,176.39 62.33,74.08 108.19,161.69 137.59,262.82 29.39,101.13 44.09,208.14 44.09,321.03l0 1008.94c0,105.84 -16.46,204.61 -49.39,296.34 -32.92,91.72 -81.72,171.68 -146.4,239.89 -64.67,68.2 -144.64,121.7 -239.89,160.51 -95.25,38.81 -204.02,58.21 -326.32,58.21 -124.65,0 -234.01,-19.4 -328.08,-58.21 -94.07,-38.81 -173.45,-92.31 -238.13,-160.51 -64.67,-68.21 -113.47,-148.17 -146.4,-239.89 -32.92,-91.73 -49.39,-190.5 -49.39,-296.34l0 -1008.94c0,-112.89 14.7,-219.9 44.1,-321.03 29.4,-101.13 75.26,-188.74 137.58,-262.82 62.33,-74.08 141.11,-132.88 236.36,-176.39 95.25,-43.51 209.91,-65.26 343.96,-65.26zm1834.45 345.72c-136.4,0 -233.42,41.75 -291.04,125.24 -57.62,83.49 -86.43,192.26 -86.43,326.32l0 1037.16c0,122.3 31.75,220.49 95.25,294.57 63.5,74.09 157.57,111.13 282.22,111.13 122.3,0 215.79,-37.04 280.46,-111.13 64.68,-74.08 97.02,-172.27 97.02,-294.57l0 -1037.16c0,-134.06 -29.4,-242.83 -88.2,-326.32 -58.8,-83.49 -155.22,-125.24 -289.28,-125.24zm0 -345.72c131.71,0 245.77,21.75 342.2,65.26 96.42,43.51 175.8,102.31 238.12,176.39 62.33,74.08 108.19,161.69 137.59,262.82 29.39,101.13 44.09,208.14 44.09,321.03l0 1008.94c0,105.84 -16.46,204.61 -49.39,296.34 -32.92,91.72 -81.72,171.68 -146.4,239.89 -64.67,68.2 -144.64,121.7 -239.89,160.51 -95.25,38.81 -204.02,58.21 -326.32,58.21 -124.65,0 -234.01,-19.4 -328.08,-58.21 -94.07,-38.81 -173.45,-92.31 -238.13,-160.51 -64.67,-68.21 -113.47,-148.17 -146.4,-239.89 -32.92,-91.73 -49.39,-190.5 -49.39,-296.34l0 -1008.94c0,-112.89 14.7,-219.9 44.1,-321.03 29.4,-101.13 75.26,-188.74 137.58,-262.82 62.33,-74.08 141.11,-132.88 236.36,-176.39 95.25,-43.51 209.91,-65.26 343.96,-65.26zm2794.01 2589.39c-87.02,0 -164.04,-15.29 -231.07,-45.86 -67.03,-30.58 -122.88,-72.32 -167.57,-125.24 -44.69,-52.92 -78.2,-115.24 -100.54,-186.97 -22.34,-71.73 -33.52,-149.93 -33.52,-234.6 0,-82.31 11.76,-159.34 35.28,-231.07 23.52,-71.73 57.62,-134.05 102.31,-186.97 44.68,-52.92 99.95,-94.66 165.8,-125.24 65.86,-30.57 142.29,-45.86 229.31,-45.86 84.67,0 160.51,15.29 227.54,45.86 67.03,30.58 122.89,72.32 167.57,125.24 44.69,52.92 78.79,115.24 102.31,186.97 23.51,71.73 35.27,148.76 35.27,231.07 0,84.67 -11.76,162.87 -35.27,234.6 -23.52,71.73 -57.62,134.05 -102.31,186.97 -44.68,52.92 -99.95,94.66 -165.81,125.24 -65.85,30.57 -142.28,45.86 -229.3,45.86zm-1037.17 -116.42c-21.17,39.98 -51.74,67.03 -91.72,81.14 -39.98,14.11 -82.32,15.29 -127,3.53 -44.69,-16.47 -77.02,-45.28 -97.01,-86.43 -20,-41.16 -24.11,-84.08 -12.35,-128.77l14.11 -35.27 1188.86 -2190.76c23.52,-37.63 54.68,-62.91 93.49,-75.84 38.8,-12.94 79.37,-13.53 121.71,-1.77 42.33,11.76 75.25,36.46 98.77,74.09 23.52,37.63 29.4,77.61 17.64,119.94 -2.35,7.06 -4.7,15.29 -7.05,24.7 -2.35,9.4 -5.88,16.46 -10.59,21.16l-1188.86 2194.28zm1037.17 -190.5c68.2,0 119.36,-25.28 153.46,-75.85 34.1,-50.56 51.15,-122.88 51.15,-216.95 0,-87.02 -17.05,-154.64 -51.15,-202.85 -34.1,-48.22 -85.26,-72.32 -153.46,-72.32 -70.56,0 -122.3,24.1 -155.22,72.32 -32.93,48.21 -49.39,115.83 -49.39,202.85 0,94.07 16.46,166.39 49.39,216.95 32.92,50.57 84.66,75.85 155.22,75.85zm-1202.97 -1375.83c68.2,0 119.35,-25.29 153.45,-75.85 34.11,-50.57 51.16,-122.88 51.16,-216.96 0,-87.02 -17.05,-154.63 -51.16,-202.85 -34.1,-48.21 -85.25,-72.32 -153.45,-72.32 -70.56,0 -122.3,24.11 -155.23,72.32 -32.92,48.22 -49.39,115.83 -49.39,202.85 0,94.08 16.47,166.39 49.39,216.96 32.93,50.56 84.67,75.85 155.23,75.85zm0 306.91c-87.02,0 -163.46,-15.28 -229.31,-45.86 -65.85,-30.57 -121.12,-72.32 -165.81,-125.23 -44.68,-52.92 -78.78,-115.24 -102.3,-186.98 -23.52,-71.73 -35.28,-149.93 -35.28,-234.59 0,-82.32 11.17,-159.34 33.52,-231.07 22.34,-71.73 55.85,-134.06 100.54,-186.98 44.68,-52.91 100.54,-94.66 167.57,-125.23 67.02,-30.58 144.05,-45.86 231.07,-45.86 87.01,0 163.45,15.28 229.3,45.86 65.85,30.57 121.12,72.32 165.81,125.23 44.68,52.92 78.78,115.25 102.3,186.98 23.52,71.73 35.28,148.75 35.28,231.07 0,84.66 -11.76,162.86 -35.28,234.59 -23.52,71.74 -57.62,134.06 -102.3,186.98 -44.69,52.91 -99.96,94.66 -165.81,125.23 -65.85,30.58 -142.29,45.86 -229.3,45.86z"/>
  <path class="fil8" d="M4904.32 8574.06l0 0c100.57,0 182.84,82.27 182.84,182.83l0 365.66 365.65 0c100.56,0 182.83,82.28 182.83,182.84l0 0c0,100.55 -82.27,182.83 -182.83,182.83l-365.65 0 0 365.64c0,100.56 -82.27,182.85 -182.84,182.85l0 0c-100.54,0 -182.82,-82.29 -182.82,-182.85l0 -365.64 -365.66 0c-100.58,0 -182.85,-82.28 -182.85,-182.83l0 0c0,-100.56 82.27,-182.84 182.85,-182.84l365.66 0 0 -365.66c0,-100.56 82.28,-182.83 182.82,-182.83z"/>
  <g>
   <path class="fil9" d="M27091.74 14628.88c437.45,0 792.07,354.62 792.07,792.07 0,437.45 -354.62,792.07 -792.07,792.07 -437.45,0 -792.07,-354.62 -792.07,-792.07 0,-437.45 354.62,-792.07 792.07,-792.07zm350.57 441.5c-89.69,-89.68 -213.64,-145.17 -350.57,-145.17 -136.92,0 -260.88,55.49 -350.57,145.17 -89.68,89.69 -145.17,213.65 -145.17,350.57 0,136.93 55.49,260.88 145.17,350.57 89.68,89.68 213.65,145.17 350.57,145.17 136.93,0 260.89,-55.49 350.57,-145.17 89.68,-89.68 145.17,-213.64 145.17,-350.57 0,-136.92 -55.49,-260.89 -145.17,-350.57z"/>
  </g>
  <path class="fil9" d="M23615.91 9335.11l0.02 0c100.23,0 182.23,81.99 182.23,182.23l0 364.5c0,100.23 -82,182.22 -182.23,182.22l-0.02 0c-100.23,0 -182.23,-81.99 -182.23,-182.22l0 -364.5c0,-100.24 82,-182.23 182.23,-182.23zm182.66 911.63l0 -0.03c0,-100.23 82,-182.22 182.23,-182.22l364.5 0c100.23,0 182.22,81.99 182.22,182.22l0 0.03c0,100.23 -81.99,182.22 -182.22,182.22l-364.5 0c-100.23,0 -182.23,-81.99 -182.23,-182.22zm-1094.27 0l0 -0.03c0,-100.23 82,-182.22 182.23,-182.22l364.5 0c100.23,0 182.23,81.99 182.23,182.22l0 0.03c0,100.23 -82,182.22 -182.23,182.22l-364.5 0c-100.23,0 -182.23,-81.99 -182.23,-182.22zm911.61 182.64l0.02 0c100.23,0 182.23,81.99 182.23,182.22l0 364.5c0,100.23 -82,182.23 -182.23,182.23l-0.02 0c-100.23,0 -182.23,-82 -182.23,-182.23l0 -364.5c0,-100.23 82,-182.22 182.23,-182.22z"/>
  <path class="fil9" d="M2237.32 6003.39c210.42,0 381,170.58 381,381 0,210.42 -170.58,381 -381,381 -210.42,0 -381,-170.58 -381,-381 0,-210.42 170.58,-381 381,-381z"/>
  <path class="fil10" d="M21469.82 16557.59c165.69,0 300,134.31 300,300 0,165.69 -134.31,300 -300,300 -165.69,0 -300,-134.31 -300,-300 0,-165.69 134.31,-300 300,-300z"/>
  <path class="fil9" d="M2702.95 15951.68l0 0c116.45,0 211.7,95.26 211.7,211.68l0 423.37 423.35 0c116.42,0 211.68,95.25 211.68,211.68l0 0c0,116.43 -95.26,211.68 -211.68,211.68l-423.35 0 0 423.35c0,116.42 -95.25,211.7 -211.7,211.7l0 0c-116.4,0 -211.66,-95.28 -211.66,-211.7l0 -423.35 -423.37 0c-116.44,0 -211.7,-95.25 -211.7,-211.68l0 0c0,-116.43 95.26,-211.68 211.7,-211.68l423.37 0 0 -423.37c0,-116.42 95.26,-211.68 211.66,-211.68z"/>
  <path class="fil11" d="M3694.19 936.01c1063.8,0 1926.18,862.38 1926.18,1926.18 0,1063.8 -862.38,1926.18 -1926.18,1926.18 -1063.8,0 -1926.18,-862.38 -1926.18,-1926.18 0,-1063.8 862.38,-1926.18 1926.18,-1926.18z"/>
  <g>
   <path class="fil12" d="M5286.44 2119.72c-39.52,-84.75 -2.86,-185.51 81.89,-225.03 84.75,-39.52 185.51,-2.86 225.03,81.89l-306.92 143.14zm503.26 742.47l-338.66 0 0 0 -0.16 -24.05 -0.5 -24.01 -0.82 -23.99 -1.15 -23.99 -1.46 -23.92 -1.81 -23.88 -2.13 -23.9 -2.44 -23.82 -2.77 -23.78 -3.09 -23.72 -3.42 -23.66 -3.74 -23.63 -4.06 -23.58 -4.38 -23.51 -4.7 -23.45 -5.02 -23.39 -5.32 -23.29 -5.66 -23.22 -5.96 -23.16 -6.29 -23.06 -6.59 -23 -6.91 -22.9 -7.23 -22.84 -7.54 -22.73 -7.84 -22.61 -8.15 -22.48 -8.49 -22.46 -8.77 -22.32 -9.09 -22.19 -9.4 -22.11 -9.69 -21.96 -10.02 -21.86 306.92 -143.14 11.94 26.06 11.59 26.24 11.2 26.33 10.85 26.51 10.47 26.62 10.09 26.7 9.75 26.9 9.36 27.01 8.98 27.09 8.61 27.2 8.25 27.32 7.87 27.42 7.49 27.52 7.12 27.62 6.74 27.72 6.36 27.81 5.98 27.87 5.6 27.97 5.22 28.03 4.84 28.1 4.46 28.17 4.08 28.26 3.69 28.32 3.31 28.36 2.92 28.42 2.53 28.42 2.15 28.54 1.76 28.56 1.37 28.57 0.98 28.63 0.58 28.65 0.2 28.67 0 0zm-2095.51 2095.51l0 -338.66 0 0 90.58 -2.29 89.29 -6.79 87.92 -11.17 86.48 -15.45 84.94 -19.6 83.31 -23.67 81.57 -27.59 79.73 -31.44 77.77 -35.16 75.72 -38.79 73.57 -42.3 71.29 -45.7 68.88 -48.98 66.4 -52.19 63.78 -55.25 61.05 -58.2 58.2 -61.05 55.25 -63.78 52.19 -66.4 48.98 -68.88 45.7 -71.29 42.3 -73.57 38.79 -75.72 35.16 -77.77 31.44 -79.73 27.59 -81.57 23.67 -83.31 19.6 -84.94 15.45 -86.48 11.17 -87.92 6.79 -89.29 2.29 -90.58 338.66 0 -2.73 107.66 -8.07 106.35 -13.33 104.88 -18.43 103.22 -23.42 101.44 -28.25 99.51 -32.97 97.43 -37.54 95.21 -41.98 92.87 -46.29 90.38 -50.46 87.75 -54.5 85.03 -58.42 82.14 -62.19 79.14 -65.83 76 -69.36 72.73 -72.73 69.36 -76 65.83 -79.14 62.19 -82.14 58.42 -85.03 54.5 -87.75 50.46 -90.38 46.29 -92.87 41.98 -95.21 37.54 -97.43 32.97 -99.51 28.25 -101.44 23.42 -103.22 18.43 -104.88 13.33 -106.35 8.07 -107.66 2.73 0 0zm-2095.51 -2095.51l338.66 0 0 0 2.29 90.58 6.79 89.29 11.17 87.92 15.45 86.48 19.6 84.94 23.67 83.31 27.59 81.57 31.44 79.73 35.16 77.77 38.79 75.72 42.3 73.57 45.7 71.29 48.98 68.88 52.19 66.4 55.25 63.78 58.19 61.05 61.06 58.2 63.78 55.25 66.4 52.19 68.88 48.98 71.29 45.7 73.57 42.3 75.72 38.79 77.77 35.16 79.73 31.44 81.57 27.59 83.31 23.67 84.94 19.6 86.48 15.45 87.92 11.17 89.29 6.79 90.58 2.29 0 338.66 -107.66 -2.73 -106.35 -8.07 -104.88 -13.33 -103.22 -18.43 -101.44 -23.42 -99.51 -28.25 -97.43 -32.97 -95.21 -37.54 -92.87 -41.98 -90.38 -46.29 -87.75 -50.46 -85.03 -54.5 -82.14 -58.42 -79.14 -62.19 -76 -65.83 -72.74 -69.36 -69.35 -72.73 -65.83 -76 -62.19 -79.14 -58.42 -82.14 -54.5 -85.03 -50.46 -87.75 -46.29 -90.38 -41.98 -92.87 -37.54 -95.21 -32.97 -97.43 -28.25 -99.51 -23.42 -101.44 -18.43 -103.22 -13.33 -104.88 -8.07 -106.35 -2.73 -107.66 0 0zm2095.51 -2095.51l0 338.66 0 0 -90.58 2.29 -89.29 6.79 -87.92 11.17 -86.48 15.45 -84.94 19.6 -83.31 23.67 -81.57 27.59 -79.73 31.44 -77.77 35.16 -75.72 38.79 -73.57 42.3 -71.29 45.7 -68.88 48.98 -66.4 52.19 -63.79 55.25 -61.05 58.19 -58.19 61.05 -55.25 63.79 -52.19 66.4 -48.98 68.88 -45.7 71.29 -42.3 73.57 -38.79 75.72 -35.16 77.77 -31.44 79.73 -27.59 81.57 -23.67 83.31 -19.6 84.94 -15.45 86.48 -11.17 87.92 -6.79 89.29 -2.29 90.58 -338.66 0 2.73 -107.66 8.07 -106.35 13.33 -104.88 18.43 -103.22 23.42 -101.44 28.25 -99.51 32.97 -97.43 37.54 -95.21 41.98 -92.87 46.29 -90.38 50.46 -87.75 54.5 -85.03 58.42 -82.14 62.19 -79.14 65.83 -75.99 69.35 -72.75 72.75 -69.35 75.99 -65.83 79.14 -62.19 82.14 -58.42 85.03 -54.5 87.75 -50.46 90.38 -46.29 92.87 -41.98 95.21 -37.54 97.43 -32.97 99.51 -28.25 101.44 -23.42 103.22 -18.43 104.88 -13.33 106.35 -8.07 107.66 -2.73 0 0zm1201.93 378.96l-194.24 277.42 -27.85 -19.1 -28.18 -18.54 -28.49 -17.99 -28.79 -17.39 -29.11 -16.84 -29.36 -16.26 -29.64 -15.66 -29.93 -15.11 -30.16 -14.5 -30.47 -13.93 -30.68 -13.35 -30.89 -12.73 -31.16 -12.16 -31.34 -11.55 -31.57 -10.94 -31.79 -10.36 -31.95 -9.74 -32.13 -9.14 -32.3 -8.51 -32.5 -7.92 -32.63 -7.29 -32.79 -6.67 -32.91 -6.06 -33.03 -5.41 -33.19 -4.8 -33.29 -4.17 -33.38 -3.54 -33.48 -2.89 -33.57 -2.26 -33.62 -1.61 -33.73 -0.97 -33.78 -0.33 0 -338.66 40.28 0.39 40.19 1.15 40.16 1.93 40.03 2.7 39.94 3.45 39.84 4.22 39.69 4.97 39.55 5.72 39.43 6.47 39.27 7.22 39.09 7.95 38.93 8.71 38.72 9.42 38.56 10.17 38.35 10.9 38.11 11.62 37.87 12.34 37.65 13.06 37.42 13.79 37.12 14.48 36.91 15.21 36.58 15.91 36.27 16.59 36.04 17.32 35.69 18.01 35.38 18.7 35.04 19.4 34.67 20.06 34.35 20.77 33.97 21.43 33.6 22.1 33.23 22.8zm0 0c76.6,53.63 95.22,159.23 41.59,235.83 -53.63,76.6 -159.23,95.22 -235.83,41.59l194.24 -277.42z"/>
  </g>
  <path class="fil13" d="M2978.37 2234.2l-292.17 185.13c-25.07,15.43 -49.66,28.93 -73.77,40.5 -24.1,11.57 -49.66,17.36 -76.66,17.36 -32.78,0 -64.6,-11.09 -95.46,-33.27 -30.85,-22.18 -46.28,-55.44 -46.28,-99.8 0,-59.78 23.14,-103.17 69.42,-130.17l572.78 -350.03c15.42,-9.64 30.37,-16.39 44.83,-20.25 14.47,-3.86 29.41,-5.78 44.84,-5.78 48.21,0 88.71,15.42 121.5,46.28 32.78,30.86 49.18,68.46 49.18,112.82l0 1781.95c0,38.57 -15.43,73.28 -46.29,104.14 -30.86,30.86 -68.46,46.29 -112.82,46.29 -44.35,0 -81.96,-15.43 -112.82,-46.29 -30.85,-30.86 -46.28,-65.57 -46.28,-104.14l0 -1544.74zm1255.04 -141.75c-111.85,0 -191.4,34.23 -238.65,102.69 -47.25,68.47 -70.87,157.66 -70.87,267.59l0 850.47c0,100.29 26.03,180.8 78.1,241.55 52.07,60.75 129.21,91.12 231.42,91.12 100.29,0 176.94,-30.37 229.98,-91.12 53.03,-60.75 79.55,-141.26 79.55,-241.55l0 -850.47c0,-109.93 -24.11,-199.12 -72.32,-267.59 -48.21,-68.46 -127.28,-102.69 -237.21,-102.69zm0 -283.49c108,0 201.53,17.84 280.6,53.51 79.07,35.68 144.16,83.89 195.27,144.64 51.1,60.75 88.71,132.59 112.81,215.51 24.11,82.93 36.16,170.68 36.16,263.25l0 827.33c0,86.79 -13.5,167.78 -40.5,243 -26.99,75.21 -67.01,140.78 -120.05,196.71 -53.03,55.92 -118.6,99.8 -196.71,131.62 -78.1,31.82 -167.29,47.73 -267.58,47.73 -102.21,0 -191.88,-15.91 -269.03,-47.73 -77.14,-31.82 -142.22,-75.7 -195.26,-131.62 -53.03,-55.93 -93.05,-121.5 -120.05,-196.71 -27,-75.22 -40.5,-156.21 -40.5,-243l0 -827.33c0,-92.57 12.06,-180.32 36.16,-263.25 24.11,-82.92 61.71,-154.76 112.82,-215.51 51.11,-60.75 115.71,-108.96 193.82,-144.64 78.1,-35.67 172.12,-53.51 282.04,-53.51z"/>
 </g>
</svg>
