<?xml version="1.0" encoding="UTF-8"?>
<!DOCTYPE svg PUBLIC "-//W3C//DTD SVG 1.1//EN" "http://www.w3.org/Graphics/SVG/1.1/DTD/svg11.dtd">
<!-- Creator: CorelDRAW 2018 (64-Bit) -->
<svg xmlns="http://www.w3.org/2000/svg" xml:space="preserve" width="297mm" height="210mm" version="1.1" style="shape-rendering:geometricPrecision; text-rendering:geometricPrecision; image-rendering:optimizeQuality; fill-rule:evenodd; clip-rule:evenodd"
viewBox="0 0 29700 21000"
 xmlns:xlink="http://www.w3.org/1999/xlink">
 <defs>
  <style type="text/css">
   <![CDATA[
    .fil6 {fill:#FEFEFE}
    .fil11 {fill:#343743}
    .fil7 {fill:#9AFBDB}
    .fil10 {fill:#D4B4FD}
    .fil2 {fill:#DE749B}
    .fil12 {fill:#EADAFE}
    .fil13 {fill:#F4D5E1}
    .fil0 {fill:#F8F4FF}
    .fil9 {fill:white}
    .fil3 {fill:#343743;fill-rule:nonzero}
    .fil8 {fill:#343743;fill-rule:nonzero}
    .fil4 {fill:white;fill-rule:nonzero}
    .fil5 {fill:#343743;fill-opacity:0.149020}
    .fil1 {fill:#343743;fill-opacity:0.149020}
    .fil14 {fill:#EFC7D7;fill-opacity:0.501961}
   ]]>
  </style>
 </defs>
 <g id="Слой_x0020_1">
  <metadata id="CorelCorpID_0Corel-Layer"/>
  <path class="fil0" d="M7420.3 6217.37c938.16,0 1745.98,240.41 2670.96,240.41 2518.78,0 4828.51,-1270.22 6189.12,-3353.34 1340.78,-1866.06 3529.7,-3081.69 6002.88,-3081.69 4079.92,0 7387.35,3307.43 7387.35,7387.35 0,4079.92 -3307.43,7387.35 -7387.35,7387.35 -902.49,0 -1756.92,-212.03 -2667,-212.03 -2576.38,0 -4844.3,1319.19 -6166.27,3318.63l-12.08 -13.48c-1339.51,1877.39 -3535.56,3101.54 -6017.61,3101.54 -4079.93,0 -7387.37,-3307.44 -7387.37,-7387.37 0,-4079.93 3307.44,-7387.37 7387.37,-7387.37z"/>
  <path class="fil1" d="M2586.91 12260.02c0,-1.76 -0.04,-3.56 0,-5.32 0,-79.88 -65.42,-145.26 -145.23,-145.26l-2576.15 0c0,1072.46 -0.01,2144.96 -0.01,3217.43l1384.46 0 0 45.56c-1.52,8.38 -2.31,17.01 -2.31,25.82l0 0c0,8.8 0.79,17.41 2.31,25.79l0 40.73c-1.52,8.39 -2.3,17.02 -2.3,25.83l0 0c0,79.91 65.34,145.27 145.26,145.27l1048.7 0c79.93,0 145.27,-65.36 145.27,-145.27l0 0c0,-107.71 0,-215.41 0,-323.12l118.25 0 0 -0.1c9.6,0.01 19.16,1.61 28.27,4.65l0.1 0c8.86,2.94 17.44,7.46 25.44,13.31l338.71 254.11c32.21,24.1 67.94,42.7 105.68,55.33 37.7,12.58 77.48,19.14 117.82,19.19l0 0.11 4801.63 0 0 -6983.99c-1326.74,-0.45 -2653.51,-0.02 -3980.25,-0.02l0 787.37 -1640.03 439.43 593.07 2213.68 -345.74 345.85c-8.38,8.29 -18.3,14.83 -29.11,19.35 -10.84,4.47 -22.46,6.88 -34.21,6.92l0 -0.11 -99.63 0c0,-27.51 0,-55.03 0,-82.54z"/>
  <path class="fil2" d="M3694.19 936.01c1063.8,0 1926.18,862.38 1926.18,1926.18 0,1063.8 -862.38,1926.18 -1926.18,1926.18 -1063.8,0 -1926.18,-862.38 -1926.18,-1926.18 0,-1063.8 862.38,-1926.18 1926.18,-1926.18z"/>
  <g>
   <path class="fil3" d="M5286.44 2119.72c-39.52,-84.75 -2.86,-185.51 81.89,-225.03 84.75,-39.52 185.51,-2.86 225.03,81.89l-306.92 143.14zm503.26 742.47l-338.66 0 0 0 -0.16 -24.05 -0.5 -24.01 -0.82 -23.99 -1.15 -23.99 -1.46 -23.92 -1.81 -23.88 -2.13 -23.9 -2.44 -23.82 -2.77 -23.78 -3.09 -23.72 -3.42 -23.66 -3.74 -23.63 -4.06 -23.58 -4.38 -23.51 -4.7 -23.45 -5.02 -23.39 -5.32 -23.29 -5.66 -23.22 -5.96 -23.16 -6.29 -23.06 -6.59 -23 -6.91 -22.9 -7.23 -22.84 -7.54 -22.73 -7.84 -22.61 -8.15 -22.48 -8.49 -22.46 -8.77 -22.32 -9.09 -22.19 -9.4 -22.11 -9.69 -21.96 -10.02 -21.86 306.92 -143.14 11.94 26.06 11.59 26.24 11.2 26.33 10.85 26.51 10.47 26.62 10.09 26.7 9.75 26.9 9.36 27.01 8.98 27.09 8.61 27.2 8.25 27.32 7.87 27.42 7.49 27.52 7.12 27.62 6.74 27.72 6.36 27.81 5.98 27.87 5.6 27.97 5.22 28.03 4.84 28.1 4.46 28.17 4.08 28.26 3.69 28.32 3.31 28.36 2.92 28.42 2.53 28.42 2.15 28.54 1.76 28.56 1.37 28.57 0.98 28.63 0.58 28.65 0.2 28.67 0 0zm-2095.51 2095.51l0 -338.66 0 0 90.58 -2.29 89.29 -6.79 87.92 -11.17 86.48 -15.45 84.94 -19.6 83.31 -23.67 81.57 -27.59 79.73 -31.44 77.77 -35.16 75.72 -38.79 73.57 -42.3 71.29 -45.7 68.88 -48.98 66.4 -52.19 63.78 -55.25 61.05 -58.2 58.2 -61.05 55.25 -63.78 52.19 -66.4 48.98 -68.88 45.7 -71.29 42.3 -73.57 38.79 -75.72 35.16 -77.77 31.44 -79.73 27.59 -81.57 23.67 -83.31 19.6 -84.94 15.45 -86.48 11.17 -87.92 6.79 -89.29 2.29 -90.58 338.66 0 -2.73 107.66 -8.07 106.35 -13.33 104.88 -18.43 103.22 -23.42 101.44 -28.25 99.51 -32.97 97.43 -37.54 95.21 -41.98 92.87 -46.29 90.38 -50.46 87.75 -54.5 85.03 -58.42 82.14 -62.19 79.14 -65.83 76 -69.36 72.73 -72.73 69.36 -76 65.83 -79.14 62.19 -82.14 58.42 -85.03 54.5 -87.75 50.46 -90.38 46.29 -92.87 41.98 -95.21 37.54 -97.43 32.97 -99.51 28.25 -101.44 23.42 -103.22 18.43 -104.88 13.33 -106.35 8.07 -107.66 2.73 0 0zm-2095.51 -2095.51l338.66 0 0 0 2.29 90.58 6.79 89.29 11.17 87.92 15.45 86.48 19.6 84.94 23.67 83.31 27.59 81.57 31.44 79.73 35.16 77.77 38.79 75.72 42.3 73.57 45.7 71.29 48.98 68.88 52.19 66.4 55.25 63.78 58.19 61.05 61.06 58.2 63.78 55.25 66.4 52.19 68.88 48.98 71.29 45.7 73.57 42.3 75.72 38.79 77.77 35.16 79.73 31.44 81.57 27.59 83.31 23.67 84.94 19.6 86.48 15.45 87.92 11.17 89.29 6.79 90.58 2.29 0 338.66 -107.66 -2.73 -106.35 -8.07 -104.88 -13.33 -103.22 -18.43 -101.44 -23.42 -99.51 -28.25 -97.43 -32.97 -95.21 -37.54 -92.87 -41.98 -90.38 -46.29 -87.75 -50.46 -85.03 -54.5 -82.14 -58.42 -79.14 -62.19 -76 -65.83 -72.74 -69.36 -69.35 -72.73 -65.83 -76 -62.19 -79.14 -58.42 -82.14 -54.5 -85.03 -50.46 -87.75 -46.29 -90.38 -41.98 -92.87 -37.54 -95.21 -32.97 -97.43 -28.25 -99.51 -23.42 -101.44 -18.43 -103.22 -13.33 -104.88 -8.07 -106.35 -2.73 -107.66 0 0zm2095.51 -2095.51l0 338.66 0 0 -90.58 2.29 -89.29 6.79 -87.92 11.17 -86.48 15.45 -84.94 19.6 -83.31 23.67 -81.57 27.59 -79.73 31.44 -77.77 35.16 -75.72 38.79 -73.57 42.3 -71.29 45.7 -68.88 48.98 -66.4 52.19 -63.79 55.25 -61.05 58.19 -58.19 61.05 -55.25 63.79 -52.19 66.4 -48.98 68.88 -45.7 71.29 -42.3 73.57 -38.79 75.72 -35.16 77.77 -31.44 79.73 -27.59 81.57 -23.67 83.31 -19.6 84.94 -15.45 86.48 -11.17 87.92 -6.79 89.29 -2.29 90.58 -338.66 0 2.73 -107.66 8.07 -106.35 13.33 -104.88 18.43 -103.22 23.42 -101.44 28.25 -99.51 32.97 -97.43 37.54 -95.21 41.98 -92.87 46.29 -90.38 50.46 -87.75 54.5 -85.03 58.42 -82.14 62.19 -79.14 65.83 -75.99 69.35 -72.75 72.75 -69.35 75.99 -65.83 79.14 -62.19 82.14 -58.42 85.03 -54.5 87.75 -50.46 90.38 -46.29 92.87 -41.98 95.21 -37.54 97.43 -32.97 99.51 -28.25 101.44 -23.42 103.22 -18.43 104.88 -13.33 106.35 -8.07 107.66 -2.73 0 0zm1201.93 378.96l-194.24 277.42 -27.85 -19.1 -28.18 -18.54 -28.49 -17.99 -28.79 -17.39 -29.11 -16.84 -29.36 -16.26 -29.64 -15.66 -29.93 -15.11 -30.16 -14.5 -30.47 -13.93 -30.68 -13.35 -30.89 -12.73 -31.16 -12.16 -31.34 -11.55 -31.57 -10.94 -31.79 -10.36 -31.95 -9.74 -32.13 -9.14 -32.3 -8.51 -32.5 -7.92 -32.63 -7.29 -32.79 -6.67 -32.91 -6.06 -33.03 -5.41 -33.19 -4.8 -33.29 -4.17 -33.38 -3.54 -33.48 -2.89 -33.57 -2.26 -33.62 -1.61 -33.73 -0.97 -33.78 -0.33 0 -338.66 40.28 0.39 40.19 1.15 40.16 1.93 40.03 2.7 39.94 3.45 39.84 4.22 39.69 4.97 39.55 5.72 39.43 6.47 39.27 7.22 39.09 7.95 38.93 8.71 38.72 9.42 38.56 10.17 38.35 10.9 38.11 11.62 37.87 12.34 37.65 13.06 37.42 13.79 37.12 14.48 36.91 15.21 36.58 15.91 36.27 16.59 36.04 17.32 35.69 18.01 35.38 18.7 35.04 19.4 34.67 20.06 34.35 20.77 33.97 21.43 33.6 22.1 33.23 22.8zm0 0c76.6,53.63 95.22,159.23 41.59,235.83 -53.63,76.6 -159.23,95.22 -235.83,41.59l194.24 -277.42z"/>
  </g>
  <path class="fil4" d="M3058.37 2234.2l-292.17 185.13c-25.07,15.43 -49.66,28.93 -73.77,40.5 -24.1,11.57 -49.66,17.36 -76.66,17.36 -32.78,0 -64.6,-11.09 -95.46,-33.27 -30.85,-22.18 -46.28,-55.44 -46.28,-99.8 0,-59.78 23.14,-103.17 69.42,-130.17l572.78 -350.03c15.42,-9.64 30.37,-16.39 44.83,-20.25 14.47,-3.86 29.41,-5.78 44.84,-5.78 48.21,0 88.71,15.42 121.5,46.28 32.78,30.86 49.18,68.46 49.18,112.82l0 1781.95c0,38.57 -15.43,73.28 -46.29,104.14 -30.86,30.86 -68.46,46.29 -112.82,46.29 -44.35,0 -81.96,-15.43 -112.82,-46.29 -30.85,-30.86 -46.28,-65.57 -46.28,-104.14l0 -1544.74zm1272.4 0l-292.17 185.13c-25.07,15.43 -49.66,28.93 -73.77,40.5 -24.1,11.57 -49.66,17.36 -76.66,17.36 -32.78,0 -64.6,-11.09 -95.46,-33.27 -30.85,-22.18 -46.28,-55.44 -46.28,-99.8 0,-59.78 23.14,-103.17 69.42,-130.17l572.78 -350.03c15.42,-9.64 30.37,-16.39 44.83,-20.25 14.47,-3.86 29.41,-5.78 44.84,-5.78 48.21,0 88.71,15.42 121.5,46.28 32.78,30.86 49.18,68.46 49.18,112.82l0 1781.95c0,38.57 -15.43,73.28 -46.29,104.14 -30.86,30.86 -68.46,46.29 -112.82,46.29 -44.35,0 -81.96,-15.43 -112.82,-46.29 -30.85,-30.86 -46.28,-65.57 -46.28,-104.14l0 -1544.74z"/>
  <path class="fil5" d="M21841.7 6740.19l-12317.75 0c-466.33,0 -845.73,379.39 -845.73,845.73l0 8504.54c0,466.33 379.4,845.72 845.73,845.72l4220.82 0.01 0 615.36c0,564.12 -458.96,1023.09 -1023.09,1023.09l-930.21 0c-178.34,0 -322.95,144.59 -322.95,322.94 2.64,68.94 14.21,66.14 192.55,66.14l8043.66 0.02c178.34,0 191.05,0.14 192.35,-66.16 0,-178.37 -144.61,-322.95 -322.95,-322.95l-930.25 0.01c-564.1,0 -1023.07,-458.97 -1023.07,-1023.09l0 -615.33 4220.81 0c466.33,0 845.75,-379.4 845.75,-845.73l0 -8504.57c0.06,-466.34 -379.34,-845.73 -845.67,-845.73z"/>
  <path class="fil6" d="M22140.66 6461.17l-12317.76 0c-466.32,0 -845.72,379.39 -845.72,845.72l0 8504.54c0,466.33 379.4,845.72 845.72,845.72l4220.83 0.01 0 615.36c0,564.12 -458.97,1023.09 -1023.09,1023.09l-930.22 0c-178.34,0 -322.94,144.59 -322.94,322.94 2.64,68.94 14.2,66.14 192.55,66.14l8043.65 0.02c178.35,0 191.06,0.14 192.36,-66.16 0,-178.37 -144.61,-322.95 -322.95,-322.95l-930.25 0.01c-564.1,0 -1023.07,-458.97 -1023.07,-1023.09l0 -615.33 4220.81 0c466.32,0 845.75,-379.4 845.75,-845.72l0 -8504.58c0.06,-466.33 -379.34,-845.72 -845.67,-845.72z"/>
  <path class="fil7" d="M14365.72 9201.55l0.32 0.25c-0.3,0.3 -0.64,0.58 -0.94,0.88 0,368.66 0,737.32 0,1105.98 -137.32,12.67 -242.95,128.51 -242.95,266.61 0,147.68 120.08,267.75 267.75,267.75 922.19,0 2049.17,-0.01 3158.4,-0.01 147.72,0 267.64,-120 267.64,-267.72 0.03,0 0.06,-0.01 0.09,-0.02 0,-138.09 -105.63,-253.94 -242.94,-266.61 0.02,-368.68 0.04,-737.36 0.05,-1106.03 -0.08,-0.09 -0.33,-0.21 -0.42,-0.3l0.28 -0.35c31.67,31.99 63.95,64.45 97.02,97.52 24.69,24.7 61.28,31.59 93.13,18.5 0.03,0 0.07,0 0.1,0 31.77,-13.2 52.77,-44.56 52.77,-78.98 0,-506.15 0,-1012.31 0,-1518.46 0,-23.6 -9.58,-44.98 -25.05,-60.46 -15.4,-15.4 -36.8,-24.95 -60.45,-24.96 0,-0.03 -0.01,-0.06 -0.02,-0.1 -492.95,0 -985.91,0 -1478.86,0 -3.26,0 -4.06,0.13 -4.06,0.13 -72.78,-72.78 -145.23,-145.24 -218.01,-218.02 -15.94,-15.94 -38.12,-25.05 -60.66,-25.05 -22.6,0 -44.58,9.08 -60.56,25.05 -0.04,0 -0.07,0 -0.1,0 -72.76,72.78 -145.53,145.56 -218.3,218.34 0,0 -296.66,-0.07 -303.71,-0.05 0.13,-219.78 0,0 0.27,-400.77 0,-23.6 -9.59,-44.99 -25.07,-60.47 -1.69,0 -36.13,-25.06 -60.47,-25.06 -161.97,0 -323.93,0 -485.9,0 -23.54,0 -44.9,9.58 -60.38,25.06 -16.12,16.12 -25.15,37.65 -25.15,60.47 0,420.82 -0.32,265.94 0.26,400.36 -174.04,0 -348.07,0 -522.11,0 -22.57,0 -44.44,9.11 -60.38,25.06 -0.03,0.04 -0.06,0.07 -0.1,0.11 -15.96,15.95 -25.06,37.8 -25.06,60.38 0.03,0 0.07,0 0.1,0 0.08,506.15 0.16,1012.3 0.24,1518.45 -0.03,0 -0.06,0 -0.09,0 0,17.22 5.24,33.65 14.5,47.5 9.2,13.74 22.42,24.85 38.44,31.48 5.38,2.21 10.73,3.85 15.97,4.92 5.51,1.09 11.07,1.64 16.62,1.64 11.18,0 22.34,-2.24 32.78,-6.6 10.22,-4.25 19.67,-10.49 27.7,-18.56 33.17,-33.18 65.54,-65.76 97.31,-97.86z"/>
  <path class="fil8" d="M14185.42 10370.96c11.86,-11.79 24.71,-22.58 38.4,-32.2 13.55,-9.51 28.04,-17.95 43.27,-25.11 13.16,-6.19 26.88,-11.43 41,-15.58 11.57,-3.41 23.47,-6.13 35.59,-8.07l0 -929.57c0,-50.73 36.28,-94.77 85.94,-104.64 6.75,-1.35 13.7,-2.06 20.77,-2.06 7.03,0 13.97,0.72 20.7,2.05 49.63,9.88 86,53.91 86,104.65l0 918.18c3.55,-3.88 7.09,-7.59 10.62,-11.13 851.06,2176.01 -706.15,427.34 -382.29,103.48zm629.38 -1177.98l485.92 0c31.34,0 55.64,11.62 75.35,31.26 20.01,19.97 31.36,47.17 31.36,75.45l0 622.15 14.76 0c58.87,0 106.71,48.26 106.71,106.7 0,43.02 -26.05,82.09 -65.94,98.6 -12.6,5.21 -26.39,8.11 -40.77,8.11l-728.85 0c-7.04,0 -14,-0.71 -20.75,-2.06 -42.6,-8.47 -75.14,-39.69 -83.91,-83.94 -1.34,-6.75 -2.05,-13.69 -2.05,-20.71 0,-7.03 0.71,-13.98 2.05,-20.73 9.9,-49.71 53.85,-85.98 104.66,-85.98l14.77 0 0 -622.15c0,-28.09 11.39,-55.57 31.26,-75.44 19.99,-19.99 47.16,-31.26 75.43,-31.26zm106.71 728.85l272.5 0 0 -151.01 -272.5 0 0 151.01zm0 -364.42l272.5 0 0 -151.02 -272.5 0 0 151.02zm636.94 850.34l0 -1108.06c0,-28.12 11.36,-55.55 31.25,-75.44 19.88,-19.88 47.35,-31.25 75.46,-31.25l607.38 0c28.04,0 54.99,11.2 74.9,30.91l0.47 0.46c19.95,19.99 31.33,47.05 31.33,75.32l0 1108.06c728.47,227.51 -1847.17,219.34 -820.79,0zm607.37 -1001.36l-393.97 0 0 1001.36 393.97 0c0,-440.27 0,-562.95 0,-1001.36zm471.13 -213.41l485.92 0c28.22,0 55.7,11.52 75.44,31.26 19.91,19.91 31.26,47.32 31.26,75.44l0 622.15 14.77 0c58.6,0 106.71,48.09 106.71,106.7 0,58.81 -47.91,106.71 -106.71,106.71 -242.92,-0.38 -485.92,-1.56 -728.82,-0.04 -50.77,0.29 -94.8,-36.37 -104.69,-85.9 -1.34,-6.78 -2.05,-13.73 -2.05,-20.76 0,-58.71 48,-106.71 106.71,-106.71l14.77 0 0 -622.15c0,-7.05 0.71,-14.01 2.05,-20.78 1.36,-6.88 3.43,-13.6 6.1,-20.03 2.69,-6.47 6.03,-12.66 9.9,-18.44 3.88,-5.79 8.34,-11.23 13.23,-16.12 4.89,-4.93 10.31,-9.38 16.13,-13.28 5.79,-3.87 11.99,-7.21 18.48,-9.9 6.43,-2.67 13.14,-4.74 20,-6.1 6.79,-1.34 13.75,-2.05 20.8,-2.05zm106.71 728.85l272.5 0 0 -151.01 -272.5 0 0 151.01zm0 -364.42l272.5 0 0 -151.02 -272.5 0 0 151.02zm-485.91 -1168.8c0,159.2 -129.7,288.92 -288.91,288.92 -19.19,0 -38.05,-1.92 -56.3,-5.54 -134.89,-26.78 -232.62,-145.89 -232.62,-283.38 0,-158.35 128.68,-288.91 288.92,-288.91 159.28,0 288.91,129.63 288.91,288.91zm-364.43 0c0,35.2 24.68,66.22 59.08,73.85 4.03,0.89 8.24,1.48 12.54,1.69l3.9 -0.02c35.88,0 67.17,-25.46 74.08,-60.72 0.93,-4.72 1.43,-9.7 1.43,-14.8 0,-35.89 -25.47,-67.14 -60.73,-74.08 -4.71,-0.93 -9.68,-1.43 -14.78,-1.43 -41.73,0 -75.52,33.78 -75.52,75.51zm1700.68 971.82l0 929.58c12.11,1.94 24,4.65 35.57,8.05 14.18,4.17 27.91,9.41 41.04,15.59 88,41.46 -290.61,-35.68 -290.02,-35.03l0 -918.19c0,-58.96 48.01,-106.7 106.71,-106.7 58.62,0 106.7,48.06 106.7,106.7zm-1017.78 -1746.63l1168.58 0 0.44 1.17c3.58,0.5 7.09,1.18 10.5,2.02 5.2,1.28 10.33,2.98 15.28,5.02 6.49,2.67 12.69,5.99 18.44,9.83 5.92,3.94 11.36,8.4 16.19,13.23 4.9,4.9 9.35,10.32 13.24,16.13 3.87,5.79 7.21,11.99 9.9,18.48 2.67,6.51 4.74,13.24 6.1,20.1 1.33,6.73 2.05,13.67 2.05,20.7l0 1518.45c0,42.78 -26.37,82.09 -65.84,98.49 -2.49,1.02 -4.86,1.81 -7.22,2.61 -34.62,11.84 -73.16,4.15 -101.43,-18.78 -2.87,-2.36 -5.46,-4.67 -7.65,-6.86l-1686.23 -1686.23 -1685.44 1686.05c-2.41,2.42 -4.99,4.76 -7.72,7 -29.07,23.95 -63.72,29.51 -98.5,19.77l-4.73 -1.57 -5.03 -1.94c-34.83,-14.45 -59.32,-45.68 -65.01,-82.98 -0.77,-5.15 -1.18,-10.37 -1.18,-15.55 0,-498.73 0.03,-998.26 -0.05,-1497.27l-0.18 0c0,-27.62 -0.6,-46.64 12.7,-71.45 1.61,-3 3.42,-6 5.39,-8.94 17.76,-26.63 46.61,-43.8 78.45,-46.95 3.59,-0.36 6.99,-0.55 10.16,-0.55l500.94 0 -0.3 -61.16 0.08 -318.04c-0.12,-20.94 6.38,-41.76 17.99,-59.15 3.94,-5.91 8.4,-11.35 13.23,-16.18l0.11 -0.11c20.16,-19.87 46.95,-31.26 75.32,-31.26l485.92 0c25.05,0 49.32,8.97 68.47,25.06l0.77 0 6.2 6.2c19.89,19.89 31.27,47.32 31.27,75.44l-0.35 379.77 6.45 0.02c7.13,-0.02 14.07,0.66 20.67,1.97 49.67,9.86 86.03,53.86 86.03,104.64 0,7.03 -0.72,13.98 -2.05,20.71 -8.39,42.26 -41.69,75.57 -83.95,83.95 -6.73,1.33 -13.67,2.05 -20.7,2.05l-219.4 -0.63 -0.03 -485.77 -272.68 0 0.01 485.92 -607.3 0 0 1154.08 1585.07 -1585.39 0.79 0c17.23,-13.95 36.29,-22.32 58.47,-24.51 3.61,-0.36 7.03,-0.55 10.2,-0.55 3.2,0 6.65,0.19 10.29,0.56 24.46,2.52 47.9,13.27 65.33,30.7l1579.26 1579.25 0 -1154.14 -1047.32 0c-58.64,0 -106.7,-48.07 -106.7,-106.71 0,-58.74 47.96,-106.7 106.7,-106.7z"/>
  <path class="fil9" d="M22839.74 12967.14c-1506.32,0 -3014.79,-1.16 -4519.61,-1.16 -145.3,0 -263.53,-118.22 -263.53,-263.52l0 -76.32 -206.07 111.23 68.52 66.77c169.18,164.4 170.95,433.5 8.46,600.68 -123.67,127.27 -314.13,163.78 -475.79,92.71 -40.47,109.21 -124.78,197.38 -232.33,242.76 -157.08,66.26 -339.48,32.3 -461.74,-86.55l-24.08 -23.39c-8.23,18.28 -17.79,36.06 -28.67,53.16 -45.7,71.54 -112.11,128.58 -190.17,162.21 -111.58,48.1 -240.73,45.83 -350.37,-6.4 -42.03,101.59 -195.36,277.99 -285.52,325.95 -101.3,53.94 -222.48,62.72 -330.37,23.88 -139.31,-50.17 -240.39,-171.54 -264.64,-317.54l-12.04 0.28c-94.97,0 -185.93,-33.03 -259.19,-93.37 -76.64,-63.15 -127.11,-150.36 -143.27,-248.33l-11.42 0.25c-94.85,0 -186.37,-32.86 -259.57,-93.16 -76.65,-63.16 -127.07,-150.33 -143.25,-248.31l-11.43 0.26c-94.82,0 -186.37,-32.85 -259.54,-93.16 -80.29,-66.13 -131.81,-159.6 -145.21,-262.71 -61.44,-47.58 -105.37,-83.7 -181.01,-108.98 -11.29,136.19 -125.8,241.6 -262.63,241.6 -1429.66,0 -2862.28,1.16 -4293.38,1.16 0,-124.63 0,-2733.88 0,-2860.97 1431.13,0 2862.25,0 4293.38,0 71.07,0 135.62,28.35 183.02,74.32 43.75,42.41 72.86,99.91 78.98,164.01l436.35 0.01c452.17,-56.42 1092.06,-245.85 1538.15,-214.88 180.32,21.17 357.36,70.39 526.01,147.02l0.87 0.43 1714.92 0c18.27,-48.51 50.5,-90.28 91.73,-120.38 43.55,-31.77 97.07,-50.53 154.83,-50.53 1506.54,0 3013.07,0 4519.61,0 0,26.18 0,2832.2 0,2860.97z"/>
  <path class="fil10" d="M22839.74 12967.14c-1506.32,0 -3014.79,-1.16 -4519.61,-1.16 -34.21,0 -66.93,-6.56 -96.95,-18.48l0 -2822.79c30.04,-11.96 62.75,-18.54 96.95,-18.54 1506.54,0 3013.07,0 4519.61,0 0,26.18 0,2832.2 0,2860.97zm-9132.12 -26.38c-34.18,16.18 -72.31,25.22 -112.35,25.22 -1429.66,0 -2862.28,1.16 -4293.38,1.16 0,-124.63 0,-2733.88 0,-2860.97 1431.13,0 2862.25,0 4293.38,0 40.17,0 78.26,9.06 112.35,25.24l0 2809.35z"/>
  <path class="fil11" d="M18588.77 12685l255.3 0 0 -675.29c0,-38.77 15.74,-73.91 41.16,-99.33 25.41,-25.43 60.56,-41.15 99.32,-41.15 38.79,0 73.92,15.72 99.34,41.15 25.42,25.5 41.14,60.6 41.14,99.33l0 675.29 3714.71 0 0 282.14 -4250.97 0 0 -1.16 -268.64 0c-72.65,0 -138.56,-29.56 -186.25,-77.28 -47.72,-47.71 -77.28,-113.6 -77.28,-186.24l0 -76.32 -206.07 111.23 68.52 66.77c40.66,39.51 72.44,85.8 94.22,136.35 21.73,50.47 33.56,105.37 34.36,162.2 0.81,56.69 -9.44,111.85 -29.79,163.04 -20.37,51.24 -50.83,98.45 -90.33,139.09 -40.75,41.94 -88.18,73.67 -139.02,95.12 -52.89,22.31 -109.36,33.5 -165.71,33.5 -32.51,0 -65.11,-3.74 -97.08,-11.22 -25.18,-5.89 -49.96,-14.13 -73.98,-24.69 -8.98,24.23 -20.24,47.77 -33.72,70.26 -16.47,27.48 -36.33,53.48 -59.56,77.39 -40.74,41.91 -88.19,73.65 -139.05,95.11 -52.87,22.3 -109.33,33.5 -165.67,33.5 -54.36,0 -108.8,-10.38 -160.02,-31.13 -49.27,-19.95 -95.59,-49.59 -136.05,-88.92l-24.08 -23.39c-8.23,18.28 -17.79,36.06 -28.67,53.16 -15.37,24.06 -33.28,46.84 -53.75,67.92 -39.57,40.7 -85.87,72.51 -136.42,94.29 -50.5,21.77 -105.41,33.6 -162.24,34.4l-6.18 0.13c-35.03,0 -69.56,-4.29 -102.93,-12.59 -27.22,-6.78 -53.68,-16.27 -79.02,-28.34 -6.43,15.54 -13.83,30.75 -22.23,45.5 -11.35,20.01 -24.65,39.39 -39.85,57.85l-100.05 121.46c-34.7,42.11 -76.6,76.25 -123.39,101.14 -46.8,24.92 -98.53,40.62 -152.84,45.86 -6.88,0.66 -13.6,1.15 -20.12,1.46 -7.36,0.36 -13.99,0.54 -19.89,0.54 -47.18,0 -93.6,-8.17 -137.52,-23.98 -43.68,-15.73 -84.8,-39.04 -121.64,-69.38 -41.06,-33.83 -73.79,-74.01 -97.93,-117.9 -22.44,-40.8 -37.54,-84.93 -45.07,-130.26l-12.04 0.28c-47.18,0 -93.61,-8.17 -137.53,-23.98 -43.71,-15.73 -84.8,-39.03 -121.66,-69.39 -40.58,-33.44 -73.72,-73.51 -98.3,-118.16 -22.1,-40.15 -37.36,-84.04 -44.97,-130.17l-11.42 0.25c-46.47,0 -93.21,-7.94 -138.02,-24 -43.06,-15.45 -84.27,-38.45 -121.55,-69.16 -40.57,-33.43 -73.7,-73.49 -98.27,-118.12 -22.1,-40.15 -37.36,-84.05 -44.98,-130.19l-11.43 0.26c-46.46,0 -93.2,-7.93 -138.01,-24 -43.06,-15.46 -84.26,-38.44 -121.53,-69.16 -41.83,-34.45 -75.05,-75.57 -99.34,-120.5 -24.06,-44.48 -39.45,-92.81 -45.87,-142.21l-51.66 -40.01c-22.35,-17.32 -46.29,-32.34 -71.31,-44.88 -18.68,-9.37 -38.11,-17.43 -58.04,-24.09 -5.3,63.92 -33.52,121.47 -76.37,164.32 -47.7,47.72 -113.61,77.28 -186.26,77.28l-332.21 0 0 1.16 -3961.17 0 0 -282.14 3488.47 0 0 -638.37c0,-38.77 15.74,-73.91 41.17,-99.34 25.47,-25.41 60.61,-41.16 99.32,-41.16 38.71,0 73.83,15.75 99.28,41.19 25.46,25.4 41.2,60.54 41.2,99.31l0 638.37 191.73 0 314.76 0 0 -2297.86 -314.76 0 -191.73 0 0 650.55c0,38.73 -15.74,73.83 -41.15,99.27 -25.42,25.49 -60.56,41.21 -99.33,41.21 -38.71,0 -73.85,-15.75 -99.3,-41.18 -25.45,-25.4 -41.19,-60.54 -41.19,-99.3l0 -650.55 -3488.47 0 0 -280.97 3628.96 0 332.21 0 332.21 0c71.07,0 135.62,28.35 183.02,74.32 43.75,42.41 72.86,99.91 78.98,164.01l436.35 0.01 992.49 -193.69c181.83,-35.48 365.4,-42.35 545.66,-21.19 180.32,21.17 357.36,70.39 526.01,147.02l0.87 0.43 1714.92 0c18.27,-48.51 50.5,-90.28 91.73,-120.38 43.55,-31.77 97.07,-50.53 154.83,-50.53l268.64 0 395.78 0 3855.19 0 0 280.97 -3714.71 0 0 669.41c0,38.73 -15.72,73.85 -41.14,99.31 -25.42,25.44 -60.55,41.18 -99.34,41.18 -38.76,0 -73.91,-15.74 -99.32,-41.15 -25.42,-25.41 -41.16,-60.57 -41.16,-99.34l0 -669.41 -255.3 0 -251.2 0 0 2297.86 251.2 0zm-5604.12 -1278.56c16.85,6.97 32.43,17.28 45.49,30.4 13.09,13.02 23.38,28.6 30.4,45.56 7.02,17.04 10.79,35.3 10.79,53.73 0,18.39 -3.77,36.67 -10.79,53.62 -7.03,16.92 -17.32,32.51 -30.36,45.62 -13.05,13.11 -28.68,23.4 -45.61,30.44 -17.05,7.04 -35.34,10.81 -53.72,10.81 -18.39,0 -36.65,-3.77 -53.65,-10.81 -17.01,-7.04 -32.63,-17.33 -45.67,-30.37 -13.05,-13.19 -23.36,-28.82 -30.38,-45.76 -7.02,-16.95 -10.79,-35.19 -10.79,-53.55 0,-18.43 3.77,-36.69 10.79,-53.67 7.04,-17.01 17.36,-32.64 30.38,-45.65 13.08,-13.09 28.66,-23.4 45.5,-30.37 17.09,-7.05 35.42,-10.81 53.82,-10.81 18.44,0 36.8,3.76 53.8,10.81zm6053.69 0c16.87,6.97 32.45,17.28 45.5,30.4 13.04,12.96 23.33,28.58 30.39,45.58 7.04,16.95 10.8,35.25 10.8,53.71 0,18.36 -3.76,36.6 -10.78,53.55 -7.01,16.94 -17.33,32.57 -30.38,45.69 -13.04,13.11 -28.65,23.4 -45.61,30.44 -17.03,7.04 -35.32,10.81 -53.71,10.81 -18.37,0 -36.65,-3.77 -53.64,-10.81 -16.96,-7 -32.55,-17.32 -45.62,-30.37 -13.07,-13.01 -23.37,-28.65 -30.42,-45.66 -7.04,-16.99 -10.8,-35.28 -10.8,-53.65 0,-18.46 3.76,-36.76 10.79,-53.73 7.07,-16.98 17.36,-32.6 30.37,-45.59 13.09,-13.09 28.67,-23.4 45.52,-30.37 17,-7.05 35.36,-10.81 53.8,-10.81 18.4,0 36.73,3.76 53.79,10.81zm-4494.71 1454.36l99.15 -120.37c22.41,-27.2 31.67,-61.05 28.51,-93.68 -3.13,-32.57 -18.71,-63.98 -45.92,-86.38 -11.54,-9.51 -24.4,-16.84 -38,-21.73 -13.58,-4.88 -28.13,-7.42 -43.05,-7.42l-6.35 0.11 -6.2 0.45c-16.96,1.63 -33.13,6.56 -47.83,14.38 -14.64,7.71 -27.76,18.43 -38.6,31.6l-100.08 121.47c-22.41,27.19 -31.66,61.03 -28.53,93.66 3.16,32.58 18.73,64 45.93,86.39l0.79 0.64c27.07,21.97 60.58,31.02 92.87,27.91 32.58,-3.15 63.98,-18.73 86.36,-45.88l0.95 -1.15zm414.24 341.23l99.14 -120.35c10.87,-13.22 18.87,-28.15 23.69,-43.96 4.83,-15.83 6.55,-32.67 4.92,-49.72 -1.66,-17.01 -6.56,-33.2 -14.33,-47.79 -7.87,-14.68 -18.56,-27.83 -31.67,-38.62 -11.54,-9.52 -24.42,-16.82 -38.04,-21.73 -13.56,-4.89 -28.09,-7.41 -43.02,-7.41 -4.57,0 -8.76,0.19 -12.54,0.57 -17.08,1.64 -33.26,6.54 -47.85,14.3 -14.68,7.88 -27.81,18.56 -38.6,31.67l-100.07 121.48c-10.87,13.19 -18.87,28.12 -23.69,43.92 -4.83,15.84 -6.54,32.69 -4.91,49.75 1.63,16.89 6.58,33.07 14.38,47.78 7.82,14.68 18.5,27.81 31.61,38.61l0.57 0.47c27.11,22.08 60.7,31.18 93.1,28.06 32.58,-3.16 63.97,-18.72 86.36,-45.89l0.95 -1.14zm413.31 342.31l100.09 -121.48c22.4,-27.2 31.65,-61.04 28.52,-93.66 -3.16,-32.59 -18.73,-63.99 -45.93,-86.4 -11.68,-9.61 -24.56,-16.82 -38.01,-21.65 -13.83,-4.94 -28.47,-7.4 -43.2,-7.4 -18.9,0 -37.68,4.11 -54.78,12.17 -16.59,7.75 -31.71,19.25 -44.08,34.28l-100.06 121.46c-10.88,13.22 -18.87,28.12 -23.68,43.93 -4.85,15.86 -6.56,32.69 -4.92,49.74 1.62,16.91 6.56,33.07 14.39,47.78 7.72,14.64 18.42,27.78 31.62,38.63 13.19,10.88 28.1,18.88 43.92,23.7 15.84,4.82 32.67,6.52 49.75,4.87 16.9,-1.63 33.07,-6.56 47.78,-14.38 14.64,-7.71 27.74,-18.41 38.59,-31.59zm414.23 341.23l100.06 -121.46c10.88,-13.2 18.87,-28.12 23.69,-43.92 4.82,-15.85 6.55,-32.71 4.9,-49.76 -1.63,-17.02 -6.55,-33.2 -14.31,-47.78 -7.88,-14.68 -18.56,-27.82 -31.67,-38.61 -11.55,-9.51 -24.43,-16.84 -38.05,-21.73 -13.57,-4.88 -28.09,-7.41 -43.02,-7.41l-6.28 0.1 -6.26 0.45c-17.08,1.65 -33.26,6.56 -47.86,14.33 -14.68,7.86 -27.81,18.53 -38.6,31.63l-100.16 121.6c-22.34,27.18 -31.58,60.96 -28.43,93.55 3.14,32.58 18.71,63.99 45.91,86.39l0.5 0.43c13.09,10.68 27.84,18.54 43.47,23.31 15.82,4.83 32.66,6.53 49.7,4.86 17.01,-1.63 33.19,-6.53 47.77,-14.3 14.63,-7.77 27.76,-18.49 38.64,-31.68zm1940.79 -676.72c13.38,-13.78 23.69,-29.73 30.51,-46.93 6.9,-17.31 10.34,-36.06 10.07,-55.32 -0.26,-19.11 -4.3,-37.73 -11.72,-54.95 -7.38,-17.14 -18.17,-32.83 -31.94,-46.21l-1325.98 -1291.98 -325.62 0 -972.14 549.23c-34.56,19.54 -70.73,34.08 -107.58,43.78 -38.02,10 -76.78,14.94 -115.24,14.94 -46.15,-0.07 -92.1,-7.1 -136.15,-20.92 22.24,12.22 43.51,26.63 63.5,43.09 41.03,33.83 73.78,74.02 97.91,117.91 22.47,40.82 37.56,84.96 45.09,130.29 46.73,-1.36 92.75,5.21 136.46,19.23 48.54,15.58 94.21,40.4 134.77,73.8 40.58,33.44 73.7,73.5 98.27,118.13 22.13,40.17 37.37,84.1 44.99,130.25 45.88,-1.27 92.08,5.1 136.53,19.35 47.72,15.29 93.41,39.72 134.43,73.5 41.07,33.84 73.82,74.06 97.98,117.97 22.42,40.84 37.53,85.02 45.04,130.42 45.9,-1.31 92.17,5.08 136.67,19.32 47.74,15.3 93.44,39.71 134.49,73.48l6.67 5.78 6.76 5.24c2.62,2.26 5.08,4.42 7.23,6.51l178.85 173.79c13.86,13.47 29.93,23.85 47.26,30.73 17.32,6.9 36.04,10.35 55.14,10.01 19.16,-0.25 37.77,-4.3 54.99,-11.72 17.15,-7.39 32.86,-18.17 46.23,-31.92 27.66,-28.46 41.18,-65.57 40.67,-102.46 -0.52,-36.82 -15.11,-73.49 -43.59,-101.17l-638.82 -620.79c-27.65,-27.02 -41.82,-62.71 -42.33,-98.59 -0.5,-35.92 12.69,-72.05 39.7,-99.84l0.15 -0.19c27.03,-27.67 62.72,-41.83 98.61,-42.33 35.92,-0.52 72.05,12.68 99.83,39.67 90.38,66.6 217.56,218.91 310.86,301.71l638.6 620.63c28.47,27.67 65.58,41.17 102.47,40.65 36.82,-0.5 73.5,-15.1 101.16,-43.57 27.67,-28.47 41.18,-65.57 40.66,-102.46 -0.52,-36.82 -15.11,-73.49 -43.58,-101.18l-638.8 -620.78c-27.67,-27.02 -41.84,-62.71 -42.35,-98.61 -0.49,-35.9 12.69,-72.03 39.69,-99.83l0.15 -0.19c27.01,-27.67 62.73,-41.83 98.62,-42.33 35.91,-0.51 72.07,12.69 99.84,39.69 106.02,103.05 715.61,717.82 811.43,788.43 28.45,27.56 65.45,41.03 102.25,40.52 36.82,-0.53 73.48,-15.11 101.16,-43.59l0.15 -0.19zm-3221.47 -956.62c53.86,-5.18 107.14,0.2 157.43,15.37 -40.66,-21.8 -78.48,-50.06 -111.81,-84.54 -85.87,-88.82 -127.99,-204.71 -126.71,-320.09 1.27,-115.43 46,-230.41 133.81,-317.28l931.6 -921.76c51.55,-51.01 106.95,-96.78 165.49,-137.04 42.78,-29.42 87.22,-55.88 133.03,-79.3 -64.73,-7.11 -129.82,-9.94 -194.95,-8.48 -84.05,1.89 -168.56,11.02 -252.73,27.41l-1005.58 196.24c-8.95,1.77 -17.98,2.65 -26.92,2.65l-448.62 0 0 1809.22c45.92,9.18 90.86,22.81 134.04,40.62 42.27,17.4 82.9,38.85 121.22,63.98l1.76 -2.39c3.96,-5.33 8.19,-10.73 12.66,-16.15l100.07 -121.48c34.69,-42.11 76.58,-76.22 123.38,-101.13 46.8,-24.91 98.53,-40.6 152.83,-45.85zm3134.96 279.72l416.91 -224.99 0 -1748.91 -1723.98 0c-121.85,0 -240.1,23.55 -349.4,68.48 -109.39,44.97 -210.01,111.36 -296.53,196.98l-931.62 921.75c-33.43,33.08 -50.47,76.83 -50.96,120.72 -0.47,43.93 15.57,88.09 48.26,121.9 27.26,28.2 62.38,45.44 99.21,50.79 36.93,5.34 75.57,-1.17 109.74,-20.49l1004.4 -567.47c10.61,-5.99 21.83,-10.55 33.32,-13.58 11.72,-3.07 23.73,-4.66 35.72,-4.66l808.45 0c38.78,0 73.9,15.74 99.32,41.15 25.42,25.5 41.15,60.6 41.15,99.35 0,38.77 -15.73,73.9 -41.15,99.33 -25.42,25.41 -60.54,41.15 -99.32,41.15l-43.63 -0.09 840.11 818.59z"/>
  <path class="fil11" d="M15982.18 15224.05c140.25,0 253.95,113.69 253.95,253.95 0,140.26 -113.7,253.96 -253.95,253.96 -140.26,0 -253.96,-113.7 -253.96,-253.96 0,-140.26 113.7,-253.95 253.96,-253.95zm-6159.28 -8374.78c-252.07,0 -457.61,205.55 -457.61,457.62l0 7071.62 13232.93 0 0 -7071.73c0,-250.89 -206.34,-457.46 -457.46,-457.48 -1.64,0.06 -11291.39,-0.03 -12317.86,-0.03zm-457.61 7917.15l0 1045.01c0,252.07 205.54,457.61 457.61,457.61l0 1.52c4105.74,0.01 8210.95,-1.48 12317.68,-1.48 252.06,0 457.64,-205.54 457.64,-457.61l0 -1045.05 -13232.93 0zm5066.54 1890.74l0 615.36c0,389.2 -158.23,742.03 -413.7,997.49 -9.51,9.51 -19.17,18.87 -28.94,28.1l3985.12 0c-9.78,-9.23 -19.45,-18.59 -28.95,-28.1 -255.46,-255.46 -413.7,-608.31 -413.7,-997.49l0 -615.33 0 -0.03 -3099.83 0zm7708.83 -10195.99l-12317.76 0c-466.32,0 -845.72,379.38 -845.72,845.72l0 7071.62 0 387.91 0 1045.01c0,466.33 379.4,845.72 845.72,845.72l4220.83 0.01 0 615.36c0,564.12 -458.97,1023.09 -1023.09,1023.09l-930.22 0c-178.34,0 -322.94,144.59 -322.94,322.95 2.64,68.94 14.21,66.14 192.55,66.14l8043.66 0.02c178.33,0 191.05,0.13 192.35,-66.16 0,-178.37 -144.61,-322.96 -322.95,-322.96l-930.24 0.01c-564.12,0 -1023.08,-458.97 -1023.08,-1023.09l0 -615.33 4220.81 0c466.32,0 845.75,-379.4 845.75,-845.72l0 -1045.05 0 -387.91 0 -7071.62c0.06,-466.34 -379.34,-845.72 -845.67,-845.72z"/>
  <path class="fil10" d="M2706.91 12084.12c0,-1.76 -0.04,-3.56 0,-5.31l0 0c0,-79.9 -65.42,-145.27 -145.24,-145.27l-2576.13 0 -0.01 3100.99 1384.45 0 0 137.9c-1.52,8.38 -2.31,17.01 -2.31,25.82l0 0c0,79.91 65.34,145.28 145.27,145.28l1048.7 0c79.92,0 145.27,-65.37 145.27,-145.28l0 0c-1.21,-96.61 0,-194.07 0,-290.78l0 -2823.35z"/>
  <polygon class="fil9" points="2586.91,12260.02 2610.61,14802.68 2958.98,14837.96 3399.96,15168.69 6050.21,15159.87 6239.83,14533.69 6669.81,14250.42 6618.91,13816.98 7051.22,13691.43 7121.78,13237.22 6645.53,13052.01 6645.53,12491.98 6072.25,12379.87 3629.37,12393.09 3367.58,11814.18 2810.72,12255.52 "/>
  <path class="fil7" d="M2791.27 9636.56l729.67 2757.12c961.29,-5.2 1922.57,-10.41 2883.86,-15.61 432.88,225.42 345.45,442.81 19.84,785.84 1144.31,-130.94 722.5,647.03 194.27,653.07 161.89,319.97 61.54,567.83 -246.95,758.47 -134.61,435.41 -329.12,559.38 -534.37,676.89l2374.35 -13.23 -48.5 -6820.83 -3786.22 17.62 -17.64 778.56 -1568.31 422.1z"/>
  <path class="fil11" d="M2706.91 12060.02c0,-1.76 -0.04,-3.56 0,-5.32 0,-79.88 -65.42,-145.26 -145.23,-145.26l-2576.15 0 0 290.53 2430.84 0 0 2945.37 -755.85 0c0,-935.12 0,-1209.39 0,-2144.64 0,-79.94 -65.38,-145.31 -145.28,-145.31l0 0c-79.89,0 -145.26,65.37 -145.26,145.31l0 1835.63 -1384.46 0 0 290.54 1384.46 0 0 137.9c-1.52,8.39 -2.3,17.02 -2.3,25.83l0 0c0,79.91 65.34,145.27 145.26,145.27l1048.7 0c79.93,0 145.27,-65.36 145.27,-145.27l0 0 0 -323.12 118.25 0 0 -0.1c9.6,0.01 19.16,1.61 28.27,4.65l0.1 0c8.86,2.94 17.44,7.46 25.44,13.31l338.71 254.11c32.21,24.1 67.94,42.7 105.68,55.33 37.7,12.58 77.48,19.14 117.82,19.19l0 0.11 4801.63 0 0 -6983.99c-1326.74,-0.45 -2653.51,-0.02 -3980.25,-0.02l0 787.37 -1640.03 439.43 593.07 2213.68 -345.74 345.85c-8.38,8.29 -18.3,14.83 -29.11,19.35 -10.84,4.47 -22.46,6.88 -34.21,6.92l0 -0.11 -99.63 0 0 -82.54zm0 2624.27l0 -2258.54 99.63 0 0 -0.11c49.44,0.15 97.85,-9.59 142.57,-28.11l0.09 0c44.74,-18.54 85.89,-45.93 120.83,-80.96l230.25 -230.25 47.84 178.66c21.79,81.45 69.65,150.54 133.13,199.26 63.46,48.71 142.55,77.04 226.83,77.04l0 -0.1 2660.14 -0.01 0 0.11c56.6,0 107.87,22.95 144.95,60.05 37.1,37.09 60.05,88.35 60.05,144.96 0,56.6 -22.95,107.86 -60.05,144.95 -37.08,37.1 -88.35,60.05 -144.95,60.05l-1527.99 0 0 283.19 1990.12 0c56.61,0 107.87,22.95 144.96,60.05 37.09,37.09 60.05,88.36 60.05,144.96 0,56.6 -22.96,107.87 -60.05,144.95 -37.09,37.1 -88.36,60.05 -144.96,60.05l-1990.12 0 0 283.07 1527.99 0.02 0 0.1c56.6,0 107.87,22.96 144.95,60.05 37.1,37.09 60.05,88.35 60.05,144.95 0,56.61 -22.95,107.87 -60.05,144.96 -37.08,37.09 -88.35,60.05 -144.95,60.05l-1527.99 0 0 283.19 1065.85 0c56.6,0 107.87,22.95 144.96,60.05 37.1,37.09 60.05,88.36 60.05,144.96 0,56.6 -22.95,107.86 -60.05,144.95 -37.09,37.1 -88.36,60.05 -144.96,60.05l-2464.67 0 0 0.11c-9.59,-0.02 -19.15,-1.62 -28.26,-4.66l-0.11 0c-8.85,-2.95 -17.44,-7.46 -25.43,-13.32l-338.71 -254.1c-32.24,-24.13 -68.01,-42.75 -105.79,-55.34 -37.7,-12.57 -77.45,-19.13 -117.72,-19.18l0 -0.11 -118.48 0zm3430.24 -4852.39l257.13 0 0 745.2 -283.19 0.01 0 -745.21 26.06 0zm-2425.71 909.71l406.19 1516.49 144.93 0 0 -2369.66 -69.71 18.49c16.18,175.85 -23.95,347.47 -108.26,493.67 -84.34,146.22 -212.79,266.96 -373.15,341.01zm551.12 -1146.25l0 -184.89 -1292.54 346.52 651.83 2434.81c5.25,19.6 16.72,36.17 31.89,47.82 15.23,11.68 34.24,18.48 54.56,18.48l116.25 0 -456.83 -1705.76 136.99 -36.34c70.68,-18.97 136.18,-51.58 193.11,-95.28 56.93,-43.7 105.31,-98.48 141.76,-161.74 36.53,-63.36 59.73,-132.74 69.03,-203.93 9.29,-71.04 4.69,-144.02 -14.35,-214.74l-36.82 -137.11 405.12 -107.84zm2567.79 4332.32l-20.9 0c11.99,25.22 21.77,51.44 29.25,78.33 11.39,40.96 17.37,83.54 17.61,126.57l0.1 0.1c0,134.79 -54.66,256.86 -143,345.19 -36.56,36.56 -78.91,67.35 -125.53,90.89l228.49 0c30.2,-174.06 113.48,-329.27 232.66,-448.46 119.19,-119.18 274.4,-202.46 448.46,-232.66l0 -4131.24c-174.06,-30.2 -329.27,-113.47 -448.46,-232.66 -119.18,-119.18 -202.46,-274.4 -232.66,-448.45l-1127.38 0c-30.19,174.04 -113.47,329.26 -232.65,448.45 -119.2,119.19 -274.4,202.46 -448.46,232.66l0 2501.7 533.3 0c-109.69,-178.25 -144.54,-383.71 -111.23,-577.38 35.92,-208.75 151,-403.93 336.8,-536.74 185.73,-132.73 407.62,-178.36 616.73,-144.76 209.18,33.62 405.61,146.49 540.38,330.74 134.82,184.33 182.93,405.69 151.63,615.13 -30.13,201.6 -133.85,392.23 -304.55,528.26 50.91,73.11 79.29,157.45 84.52,243.14 4.86,79.65 -10.27,160.56 -45.86,234.8l20.75 0c134.79,0 256.85,54.65 345.19,142.99 88.34,88.35 142.99,210.41 142.99,345.21 0,134.8 -54.65,256.86 -142.99,345.2 -88.34,88.34 -210.4,142.99 -345.19,142.99zm-1105.9 -1948.08c32.71,108.26 98.55,206.47 192.65,278.5l451.11 0 0 0.1c32.09,-0.03 63.8,3.04 94.61,9.1 26.65,5.25 52.97,12.8 78.67,22.58 99.85,-61.37 174.84,-150.94 218.6,-253.76 45.36,-106.56 57.26,-227.33 28.66,-345.7 -28.64,-118.38 -94.4,-220.39 -183.37,-294.43 -88.97,-74.01 -201.19,-120.12 -322.76,-126.75 -121.63,-6.65 -238.26,26.98 -334.78,90.91 -96.55,63.96 -173.03,158.18 -214.32,272.67 -41.29,114.5 -42.57,235.88 -9.07,346.78zm622.86 3051.29l1612.31 0 0 -6417.74 -3413.88 0 0 3644.95 178.95 0 0 -2772.68 141.6 -0.02c152.15,-0.18 289.99,-62.01 389.85,-161.86 99.84,-99.85 161.68,-237.69 161.85,-389.85l-0.1 0 0 -141.59 1669.58 0 0 141.59 -0.1 0c0.17,152.17 62.01,290 161.86,389.85 99.86,99.86 237.69,161.68 389.85,161.87l141.6 -0.01 0 4673.23 -141.6 0.02c-152.15,0.17 -289.99,62.01 -389.85,161.85 -99.85,99.86 -161.68,237.7 -161.86,389.85l0.1 0 0 141.6 -694.13 0c-2.03,34.17 -7.68,67.9 -16.77,100.6 -7.48,26.89 -17.27,53.12 -29.26,78.34zm-5258.67 -589.38l0 0.03c0,79.89 -65.43,145.24 -145.25,145.24l-0.03 0c-79.82,0 -145.23,-65.41 -145.23,-145.24l0 -0.03c0,-79.84 65.35,-145.24 145.23,-145.24l0.03 0c79.88,0 145.25,65.35 145.25,145.24z"/>
  <path class="fil1" d="M23568.88 7222.17l833.74 -833.72c29.9,-28.89 68.72,-43.14 107.4,-42.81 38.66,0.34 77.23,15.28 106.68,44.68l0.13 0.13c29.4,29.43 44.33,68 44.66,106.66 0.34,38.69 -13.91,77.49 -42.8,107.4l-833.67 833.81c-19.2,19.58 -42.85,33.38 -68.28,40.49 -25.61,7.17 -53.17,7.65 -79.86,0.66 -26.9,-7.04 -50.73,-20.94 -69.5,-39.71 -18.77,-18.92 -32.71,-42.75 -39.71,-69.5 -6.99,-26.71 -6.51,-54.26 0.66,-79.87 7.11,-25.43 20.91,-49.08 40.55,-68.22zm2020.88 -5006.12l1776.61 1776.66c436.57,12.19 829.34,195.88 1113.95,485.69 287.66,292.91 465,694.27 465.61,1136.47l2.34 1746.38c-0.01,3.44 -0.05,6.87 -0.13,10.3l-0.05 1.78 -0.31 8.53 -0.11 2.38 -0.48 8.32 -0.17 2.42c-0.21,2.99 -0.45,5.97 -0.72,8.95l-0.19 1.99c-0.25,2.65 -0.51,5.3 -0.81,7.94l-0.42 3.64 -0.82 6.49 -0.64 4.63 -0.86 5.77 -0.84 5.2 -0.2 1.21 -0.79 4.58 -0.05 0.25 -0.6 3.27 -1.28 6.58 -0.66 3.26 -1.56 7.15 -0.96 4.17 -1.46 6.08 -0.9 3.59 -1.99 7.52 -0.64 2.32c-0.81,2.9 -1.63,5.8 -2.5,8.68l-0.07 0.25c-0.95,3.18 -1.95,6.35 -2.96,9.5l-0.14 0.43 -0.04 0.13c-15.01,46.36 -36.91,89.9 -64.7,129.25 -41.33,58.48 -95.71,107.76 -159.88,143.27l-1.36 0.75 -6 3.25c-35.87,19.19 -74.56,34.04 -115.4,43.9l-1.24 0.3 -6.21 1.45 -1.25 0.28 -7.48 1.62 -0.58 0.12 -0.67 0.13c-3.34,0.69 -6.67,1.34 -10.03,1.94 -26.85,4.88 -54.21,7.41 -81.67,7.52l-0.26 0c-37.76,-0.17 -74.99,-4.89 -110.8,-13.94 -35.92,-9.06 -70.94,-22.6 -104.22,-40.37l-2.25 -1.32c-7.81,-4.98 -15.53,-10.09 -23.15,-15.29 -110.68,-66.89 -202.22,-173.9 -267.03,-289.28 -34.38,-60.18 -61.73,-124.58 -81.17,-191.97l-13.84 7.46 -4.41 2.25 -0.88 0.45 -0.89 0.44 -0.26 0.14 -0.62 0.31 -0.89 0.44 -0.89 0.43 -0.89 0.44 -0.89 0.43 -0.89 0.44 -0.89 0.43 -0.51 0.25 -0.38 0.17 -0.9 0.43 -0.89 0.42 -0.9 0.43 -0.89 0.42c-22.93,10.8 -46.43,19.72 -70.31,26.71 -52.67,15.74 -107.3,21.69 -161.21,18.02 -8.03,-0.55 -16.04,-1.31 -24.03,-2.28l-0.19 -0.03 -5.43 -0.69 -3.28 -0.45 -0.08 -0.01 -2.99 -0.44c-37.64,-5.55 -74.79,-15.89 -110.7,-31.15l-2.81 -1.21 -2.81 -1.22 -2.45 -1.09 -0.34 -0.15 -2.79 -1.27 -2.79 -1.28 -2.78 -1.3 -2.58 -1.22 -0.19 -0.1 -2.76 -1.34 -2.76 -1.36 -0.78 -0.39 -1.96 -0.99 -2.74 -1.4 -0.41 -0.21 -2.29 -1.19 -5.48 -2.91 -2.11 -1.32c-96.43,-61.35 -178.93,-140.26 -243.82,-231.53 -56.54,-79.54 -99.82,-168.49 -127.39,-263.43l-11.78 6.25c-18.19,9.34 -36.81,17.48 -55.65,24.31 -3.32,1.25 -6.65,2.47 -9.99,3.64l-4.48 1.55 -2.91 0.98c-99.71,33.71 -192.68,31.04 -277.53,2.99 -27.76,-8.57 -54.86,-19.85 -80.91,-33.8l-2.25 -1.32c-7.24,-4.62 -14.39,-9.34 -21.47,-14.15 -83.02,-51.11 -156.04,-125.84 -217.38,-210.68l-5.15 -7.16c-65.02,-91.48 -112.55,-195.28 -138.91,-306.25 -30.78,-116.43 -44.04,-238.41 -46.68,-357.09l-0.06 -2.51 -0.05 -2.51 -0.04 -1.51 -0.01 -1 -0.05 -2.51 -0.04 -2.51 -0.04 -2.52 -0.04 -2.51c-64.07,28.87 -133.56,39.39 -201.15,32.29 -86.61,-9.1 -170.19,-47.02 -235.41,-112.12 -0.18,0 -1976.94,-1977.07 -1976.94,-1977.32 -65.1,-65.19 -103.02,-148.77 -112.12,-235.39 -7.1,-67.58 3.41,-137.06 32.28,-201.1l-7.52 -0.12 -2.5 -0.04 -1.02 -0.02 -1.49 -0.03 -2.5 -0.06 -2.5 -0.06c-118.4,-2.62 -240,-15.85 -356.1,-46.5l0 0.01c-107.43,-25.52 -208.16,-70.85 -297.52,-132.66l-0.57 -0.39 -8.62 -6.05c-3.11,-2.21 -6.22,-4.44 -9.3,-6.7 -79,-57.47 -148.36,-125.12 -198.28,-200.91 -8.46,-11.91 -16.65,-24.04 -24.55,-36.41l-1.32 -2.25c-17.06,-32 -30.11,-65.57 -39.08,-99.97 -28.2,-98.43 -22.27,-206.36 33.37,-320.61l0.41 -0.85c1.65,-3.41 3.34,-6.81 5.08,-10.19l6.14 -11.6 -8.88 -2.63 -0.69 -0.21 -0.07 -0.02 -8.08 -2.49 -1.38 -0.43 -0.76 -0.24 -6.67 -2.14 -2.05 -0.67 -0.43 -0.14 -7.99 -2.67 -1.02 -0.34 -1.65 -0.57 -7.74 -2.69 -0.97 -0.34 -8 -2.88 -0.38 -0.14 -0.3 -0.11 -4.32 -1.6 -4.32 -1.62 -0.36 -0.13 -3.94 -1.51 -4.29 -1.66 -1.02 -0.39 -3.26 -1.29 -4.28 -1.71 -1.67 -0.67 -2.59 -1.06 -4.25 -1.75 -2.32 -0.96 -1.92 -0.81 -4.23 -1.8 -2.96 -1.26 -1.27 -0.55 -4.21 -1.84 -1.24 -0.55 -2.95 -1.31 -4.19 -1.88 -4.18 -1.9 -0.02 0 -4.15 -1.93 -4.15 -1.94 -0.65 -0.3 -3.5 -1.67 -0.91 -0.44 -7.06 -3.41 -0.28 -0.14 -4.11 -2.03 -0.21 -0.1 -3.89 -1.96 -4.09 -2.07 -2.5 -1.27 -1.58 -0.82 -4.06 -2.11 -0.79 -0.42 -3.26 -1.72 -4.04 -2.15 -1.25 -0.68 -2.78 -1.5 -4.02 -2.2 -0.93 -0.52 -5.57 -3.09 -1.5 -0.84 -3.98 -2.26 -0.87 -0.49 -3.09 -1.79 -3.96 -2.3 -1.46 -0.85 -2.48 -1.47 -3.93 -2.34 -0.15 -0.09 -3.63 -2.18 -0.14 -0.09 -3.91 -2.38 -2.61 -1.6 -1.28 -0.8 -3.88 -2.42 -3.18 -2 -0.69 -0.44 -6.22 -3.99 -1.36 -0.88 -0.11 -0.08 -3.83 -2.5 -3.82 -2.52 -0.46 -0.3 -3.34 -2.24 -3.78 -2.56 -2.57 -1.76c-4.17,-2.85 -8.32,-5.73 -12.45,-8.67 -67.06,-47.65 -127.44,-104.81 -179.09,-170.01l-0.7 -0.89 -5.85 -7.48 -0.25 -0.33 -6.02 -7.89 -0.18 -0.23 -5.75 -7.73 -0.6 -0.81c-3.56,-4.84 -7.06,-9.72 -10.52,-14.64l-0.49 -0.69 -1.4 -2.01 -3.04 -4.38 -1.23 -1.79 -0.39 -0.58 -4.39 -6.47 -0.81 -1.2 -0.72 -1.09c-3.45,-5.17 -6.83,-10.38 -10.18,-15.63l-1.32 -2.11 -2.89 -5.45 -0.51 -0.98 -0.11 -0.22 -2.19 -4.29 -0.99 -1.96 -0.39 -0.79 -1.36 -2.77 -0.55 -1.13 -2.1 -4.41 -1.3 -2.78 -1.28 -2.79 -1.26 -2.8c-22.35,-49.92 -35.12,-102.36 -38.65,-155.23l-0.01 -0.09 -0.19 -3 -0.11 -1.81 -0.07 -1.2 -0.15 -3 -0.07 -1.44 -0.01 -0.25c-2.33,-52.38 4.37,-105.29 20.28,-156.32 6.56,-21.38 14.67,-42.43 24.3,-63.03l0.42 -0.89 0.41 -0.89 0.42 -0.89 0.42 -0.88 0.43 -0.89 0.42 -0.89 0.43 -0.88 0.42 -0.88 0.43 -0.89 0.43 -0.88 0.44 -0.88 0.43 -0.88 0.44 -0.88 0.88 -1.75 0.44 -0.87 1.33 -2.62 0.45 -0.87 0.45 -0.87 7.27 -13.48c-76.52,-22.08 -149.16,-54.33 -216.15,-95.51 -107.72,-64.82 -206.7,-153.21 -268.89,-258.47 -3.87,-5.76 -7.67,-11.58 -11.4,-17.44l-1.32 -2.11c-31.24,-58.11 -49.14,-121.63 -53.41,-186.05 -0.27,-4.02 -0.48,-8.04 -0.64,-12.06l-0.03 -0.74 -0.02 -0.69c-0.12,-3.36 -0.21,-6.72 -0.25,-10.09l-0.04 -4.67 0.01 -6.04c0.7,-94.67 30.14,-183.51 80.06,-258.16 33.39,-50.75 75.83,-94.29 124.65,-128.69 72.17,-50.85 158.48,-81.85 250.25,-86.88l0.42 -0.02c4.08,-0.22 8.16,-0.4 12.26,-0.51l0.62 -0.02c4.12,-0.12 8.26,-0.17 12.41,-0.18l1746.64 2.39c442.19,0.61 843.55,177.92 1136.46,465.59 289.79,284.61 473.47,677.38 485.65,1113.97zm-3044.81 2874.61c-18.47,7.65 -38.29,11.71 -58.35,11.71 -30.79,0 -60.18,-9.36 -84.92,-25.89 -24.59,-16.44 -44.44,-40.07 -56.26,-68.66 -11.83,-28.55 -14.49,-59.18 -8.76,-88.04 5.77,-29.04 19.98,-56.43 41.81,-78.29 0,-27.76 755.88,-775.01 833.8,-833.81 29.9,-28.89 68.72,-43.13 107.4,-42.8 38.72,0.34 77.34,15.31 106.81,44.8 29.4,29.41 44.33,67.98 44.66,106.69 0.34,38.69 -13.9,77.48 -42.79,107.39l-833.68 833.8c-14.27,14.27 -31.18,25.46 -49.59,33.1l-0.13 0zm-58.38 1202.04c-39.11,0 -78.25,-14.94 -108.1,-44.79l0 -0.13c-29.85,-29.86 -44.79,-68.95 -44.79,-107.98 0,-39.11 14.94,-78.25 44.79,-108.1l833.8 -833.61c29.91,-28.89 68.71,-43.13 107.39,-42.81 38.71,0.33 77.29,15.24 106.69,44.62l0.13 0.13c29.4,29.41 44.33,67.98 44.66,106.7 0.34,38.67 -13.9,77.48 -42.79,107.43l-833.68 833.75c-29.85,29.85 -68.99,44.79 -108.1,44.79zm2131.71 -1094.22c29.86,29.86 44.8,68.99 44.8,108.09 0,39.02 -14.94,78.1 -44.79,107.99l-1309.41 1309.49c-19.18,19.6 -42.82,33.4 -68.27,40.54 -25.62,7.18 -53.18,7.66 -79.88,0.67 -26.91,-7.04 -50.78,-20.97 -69.54,-39.73 -18.78,-18.78 -32.67,-42.61 -39.67,-69.48 -6.98,-26.67 -6.51,-54.19 0.65,-79.78l0 -0.13c7.11,-25.43 20.9,-49.07 40.57,-68.24l1309.49 -1309.42c29.86,-29.84 68.93,-44.78 107.96,-44.78 39.11,0 78.25,14.94 108.09,44.78zm1190.36 1406.56l-833.22 833.28c-19.11,19.52 -42.77,33.29 -68.34,40.46 -25.6,7.2 -53.15,7.68 -79.86,0.69 -26.78,-7.01 -50.57,-20.93 -69.37,-39.71l-0.13 -0.13c-18.78,-18.8 -32.71,-42.6 -39.7,-69.37 -6.99,-26.7 -6.51,-54.26 0.67,-79.88 7.13,-25.45 20.92,-49.08 40.59,-68.21l833.69 -833.72c29.94,-28.89 68.75,-43.14 107.43,-42.81 38.81,0.34 77.42,15.28 106.82,44.68 29.37,29.53 44.3,68.12 44.63,106.8 0.33,38.69 -13.92,77.51 -42.81,107.39l-0.4 0.53z"/>
  <path class="fil10" d="M25669.76 2036.05l1776.61 1776.66c436.57,12.19 829.34,195.88 1113.95,485.69 287.66,292.91 465,694.27 465.61,1136.47l2.34 1746.38c-0.46,234.14 -169.01,431.93 -398.15,473.57 -26.85,4.88 -54.21,7.41 -81.67,7.52l-0.26 0c-292.01,-1.31 -515.47,-298.61 -588.62,-552.17l-13.84 7.46c-136.98,70.97 -297.15,73.24 -433.81,-0.63l-2.11 -1.32c-96.43,-61.35 -178.93,-140.26 -243.82,-231.53 -56.54,-79.54 -99.82,-168.49 -127.39,-263.43l-11.78 6.25c-18.19,9.34 -36.81,17.48 -55.65,24.31 -259.92,98.17 -475.3,-51.42 -622.07,-257.95 -138.81,-195.31 -182.72,-445.51 -185.92,-680.92 -64.07,28.87 -133.56,39.39 -201.15,32.29 -86.61,-9.1 -170.19,-47.02 -235.41,-112.12 -0.18,0 -1976.94,-1977.07 -1976.94,-1977.32 -65.1,-65.19 -103.02,-148.77 -112.12,-235.39 -7.1,-67.58 3.41,-137.06 32.28,-201.1 -235.33,-3.17 -485.11,-47.16 -680.34,-185.92 -224.61,-159.63 -376.02,-400.59 -233.67,-677.89l6.14 -11.6c-204.59,-59.39 -380.53,-191.31 -494.92,-371.12l-1.32 -2.11c-73.72,-136.91 -71.71,-297.09 -0.52,-434.22l7.27 -13.48c-241.64,-69.71 -532.76,-281.84 -551.17,-559.58 -18.05,-273.67 206.14,-508.29 479.7,-508.75l1746.64 2.39c442.19,0.61 843.55,177.92 1136.46,465.59 289.79,284.61 473.47,677.38 485.65,1113.97z"/>
  <path class="fil11" d="M23648.88 7042.17l833.74 -833.72c29.9,-28.89 68.72,-43.14 107.4,-42.81 38.66,0.34 77.23,15.28 106.68,44.68l0.13 0.13c29.4,29.43 44.33,68 44.66,106.66 0.34,38.69 -13.91,77.49 -42.8,107.4l-833.67 833.81c-19.2,19.58 -42.85,33.38 -68.28,40.49 -25.61,7.17 -53.17,7.65 -79.86,0.66 -26.9,-7.04 -50.73,-20.94 -69.5,-39.71 -18.77,-18.92 -32.71,-42.75 -39.71,-69.5 -6.99,-26.71 -6.51,-54.26 0.66,-79.87 7.11,-25.43 20.91,-49.08 40.55,-68.22zm2020.88 -5006.12l1776.61 1776.66c436.57,12.19 829.34,195.88 1113.95,485.69 287.66,292.91 465,694.27 465.61,1136.47l2.34 1746.38c-0.2,101.58 -32.23,197.57 -88.05,276.56 -55.93,79.14 -135.75,141.44 -231.41,175.55 -25.55,9.38 -51.89,16.59 -78.69,21.46 -26.85,4.88 -54.21,7.41 -81.67,7.52l-0.26 0c-37.76,-0.17 -74.99,-4.89 -110.8,-13.94 -35.92,-9.06 -70.94,-22.6 -104.22,-40.37l-2.25 -1.32c-96.47,-61.52 -179,-140.57 -243.86,-231.99 -56.68,-79.88 -99.99,-169.22 -127.49,-264.55l-13.84 7.46c-18.76,9.72 -38.16,18.17 -58.04,25.25 -61.49,22.99 -126.42,32.15 -190.35,27.8 -64.23,-4.37 -127.53,-22.39 -185.42,-53.68l-2.11 -1.32c-96.43,-61.35 -178.93,-140.26 -243.82,-231.53 -56.54,-79.54 -99.82,-168.49 -127.39,-263.43l-11.78 6.25c-18.19,9.34 -36.81,17.48 -55.65,24.31 -61.48,23.22 -126.46,32.59 -190.52,28.4 -64.07,-4.18 -127.31,-21.97 -185.3,-53.04l-2.25 -1.32c-96.47,-61.53 -179.04,-140.58 -244,-231.99 -65.1,-91.6 -112.67,-195.55 -139.01,-306.68l0.12 -0.03c-17.06,-70.89 -29.52,-142.49 -37.31,-214.29 -5.75,-52.93 -8.99,-106.3 -9.72,-159.92 -64.07,28.87 -133.56,39.39 -201.15,32.29 -86.61,-9.1 -170.19,-47.02 -235.41,-112.12 -0.18,0 -1976.94,-1977.07 -1976.94,-1977.32 -65.1,-65.19 -103.02,-148.77 -112.12,-235.39 -7.1,-67.58 3.41,-137.06 32.28,-201.1 -53.46,-0.72 -106.67,-3.95 -159.45,-9.67 -71.74,-7.78 -143.3,-20.23 -214.15,-37.27l-0.03 0.12c-111.13,-26.39 -215.1,-73.99 -306.71,-139.1 -91.43,-64.98 -170.52,-147.54 -232.13,-244.02l-1.32 -2.25c-31.02,-58.16 -48.75,-121.53 -52.88,-185.65 -4.13,-64.17 5.3,-129.25 28.56,-190.82 6.77,-18.66 14.84,-37.11 24.1,-55.15l6.14 -11.6c-94.9,-27.55 -183.81,-70.79 -263.31,-127.27 -91.32,-64.88 -170.25,-147.4 -231.61,-243.85l-1.32 -2.11c-31.24,-58.02 -49.21,-121.4 -53.59,-185.69 -4.36,-64.05 4.81,-129.14 27.83,-190.84 7.17,-19.86 15.62,-39.16 25.24,-57.69l7.27 -13.48c-95.43,-27.53 -184.82,-70.89 -264.74,-127.65 -91.33,-64.85 -170.29,-147.33 -231.7,-243.77l-1.32 -2.11c-31.24,-58.11 -49.14,-121.63 -53.41,-186.05 -4.24,-64.28 5.14,-129.55 28.44,-191.27 34.35,-95.07 96.51,-174.36 175.3,-229.87 78.88,-55.58 174.64,-87.44 275.96,-87.61l1746.64 2.39c442.19,0.61 843.55,177.92 1136.46,465.59 289.79,284.61 473.47,677.38 485.65,1113.97zm550.41 3323.85l1053.35 -1053.76 -1184.96 -131.95 131.61 1185.71zm-912 -1965.42l-131.85 -1185.63 -1053.79 1053.28 1185.64 132.35zm1882.52 594.84l-1697.49 -1697.48 168.94 1519.36c0.25,2.35 1.33,4.51 2.96,6.16 1.65,1.63 3.82,2.72 6.17,2.97l1519.42 168.99zm-4082.63 -1407.87c1.31,21.46 7.28,42.65 17.76,61.96 41.17,58.53 92.56,108.6 151.21,148.16 58.94,39.76 125.1,68.77 195.41,84.98 81.66,17.34 164.38,29.06 247.51,35.08 83.27,6.04 166.89,6.4 250.22,1.03l1.06 0c26.01,-0.87 48.48,-1.03 70.36,-1.06l975.75 -975.62c49.53,-47.44 109.6,-80.4 173.9,-97.24 48.14,-12.59 98.7,-16.11 149,-9.88 -58.48,-300.33 -216.74,-561.02 -436.86,-749.52 -231.61,-198.33 -531.66,-316.75 -855.88,-317.33l-1746.23 -2.4c-36.8,0.48 -71.55,12.31 -100.23,32.61 -28.6,20.24 -51.28,49.13 -64.02,83.77l-0.4 0.93c-8.44,20.98 -11.92,43.38 -10.52,65.45 1.36,21.58 7.41,42.88 17.99,62.27 41.14,58.55 92.42,108.47 150.84,147.76 58.96,39.65 125.22,68.49 195.7,84.42l0.39 0c60.96,14.44 122.31,24.77 183.6,30.93 61.93,6.22 124.22,8.35 186.36,6.37l1.46 0c45.67,0.62 90.75,-0.03 135.75,-0.67l35.15 -0.52c38.98,-0.58 78.09,-1.18 103.88,-1.18l745.05 0c32.63,0 63.59,10.51 89.08,28.81 25.32,18.17 45.12,44.13 55.63,75.13 8.04,23.49 10.19,48.23 6.79,72.13 -3.38,23.75 -12.35,46.83 -26.59,67.19 -13.95,20.26 -32.49,36.54 -53.67,47.85 -21.15,11.29 -45.03,17.61 -69.75,17.99l-0.4 0.14 -1093.57 0 0 -0.13c-36.3,0.6 -70.65,12.43 -99.04,32.67 -28.46,20.29 -50.88,49.03 -63.25,83.32l-0.4 1.05c-8.29,20.88 -11.63,43.23 -10.14,65.33 1.46,21.58 7.67,42.93 18.48,62.41 40.81,58.39 91.8,108.3 150.01,147.68 58.78,39.77 124.83,68.75 195.08,84.84l0.4 0.13c44.59,10.85 89.59,19.2 134.75,24.98 44.6,5.71 89.5,9.01 134.46,9.81 12.41,-1.4 22.95,-1.41 32.47,-1.41l600.16 0c42.2,0 80.43,17.13 108.09,44.79 27.66,27.66 44.79,65.89 44.79,108.09 0,42.22 -17.13,80.46 -44.79,108.12 -27.8,27.66 -66,44.81 -108.09,44.81 -46.48,0 -89.86,0.45 -140.38,0.95l-184.67 1.71c-62.74,0.46 -116.63,0.78 -148.97,0.78l0 -0.14c-48.38,0 -96.76,0.63 -145.11,-0.59l0 0.12 -7.65 0c-30.8,5.43 -59.11,18.77 -82.53,38.05 -24.2,19.92 -43.2,46.23 -54.35,76.75l-0.4 1.19c-8.47,20.93 -11.99,43.23 -10.65,65.15zm2234.79 1124.78l-1136.82 -126.9 1696.98 1697.75 -125.81 -1136.98 -139.12 -15.53c-73.73,-7.88 -139.79,-40.97 -189.37,-90.54 -49.58,-49.44 -82.65,-115.51 -90.52,-189.37l-15.34 -138.43zm3196.62 3650.14c21.94,1.43 44.2,-2.01 65.05,-10.42l13.58 -5.48c29.19,-13.16 53.73,-33.71 71.68,-58.91 20.48,-28.77 32.42,-63.59 32.95,-100.4l-2.34 -1746.18c-0.63,-323.65 -118.7,-623.24 -316.52,-854.66 -187.94,-219.85 -447.87,-378.16 -747.48,-437.16 6.28,50.49 2.54,101.2 -10.46,149.34 -17.37,64.34 -51.29,124.29 -99.91,173.2l-975.71 975.91c-0.37,20.5 -0.37,44.6 -0.37,68.84l-0.14 2.12c-5.36,83.35 -5.01,167.01 1.01,250.3 6.01,83.22 17.71,166.04 35.01,247.78 16.22,70.16 45.21,136.19 84.91,195.03 39.5,58.52 89.47,109.83 147.88,150.92 19.23,10.44 40.36,16.38 61.81,17.73 21.94,1.36 44.16,-2.08 64.96,-10.41l1.06 -0.4c30.69,-11.18 57.13,-30.25 77.13,-54.55 19.39,-23.57 32.8,-52.06 38.26,-83.08l0 -12.01 0.11 0c-1.06,-35.93 -1.48,-85.74 -1.5,-142.34 -0.01,-56.72 0.4,-120.06 0.93,-183.02l0.55 -46.71c0.25,-18.73 0.51,-37.45 0.51,-69.8l0.14 -0.53c1.16,-63.98 1.17,-130.92 1.17,-171.88 0,-42.11 17.13,-80.29 44.79,-107.96l0 -0.13c27.66,-27.66 65.91,-44.79 108.09,-44.79 42.12,0 80.32,17.12 108,44.79l0.13 0c27.66,27.66 44.8,65.89 44.8,108.09l0 600.33 -0.45 16.59 -0.84 16.01c0.94,44.78 4.36,89.61 10.21,134.26 5.91,45.12 14.39,90.13 25.38,134.79l0.13 0.53c16.14,70.15 45.13,136.16 84.9,194.93 39.4,58.24 89.46,109.35 148.12,150.34 19.3,10.56 40.37,16.64 61.68,18.1 21.99,1.51 44.34,-1.81 65.36,-10.07l0.92 -0.4c34.65,-12.38 63.58,-34.84 83.88,-63.32 20.36,-28.57 32.21,-63.15 32.67,-99.66l-0.14 0 0 -1092.87c0,-24.37 5.94,-48.19 16.91,-69.62 10.87,-21.26 26.75,-40 46.67,-54.37 20.05,-14.42 42.86,-23.59 66.35,-27.18 23.37,-3.55 47.75,-1.59 71.14,6.19l0.04 -0.13c31.42,10.39 58.02,30.16 77,55.64 18.86,25.34 30.13,56.4 31.05,89.58l0.14 0.93 0 744.45c0,26.31 -0.62,66.18 -1.21,105.63l-0.24 15.78c-0.54,25.75 -1,51.27 -1.22,76.22 -0.21,25.23 -0.21,50.5 0.13,75.79l0 1.46c-2.11,62.52 -0.07,125.11 6.12,187.33 6.15,61.82 16.49,123.58 30.97,184.82l0 0.26c15.98,70.32 44.88,136.52 84.62,195.53 39.59,58.77 89.97,110.3 149.05,151.52 18.84,10.19 39.53,16.02 60.58,17.38zm-5914.52 -2445.71c-18.47,7.65 -38.29,11.71 -58.35,11.71 -30.79,0 -60.18,-9.36 -84.92,-25.89 -24.59,-16.44 -44.44,-40.07 -56.26,-68.66 -11.83,-28.55 -14.49,-59.18 -8.76,-88.04 5.77,-29.04 19.98,-56.43 41.81,-78.29 0,-27.76 755.88,-775.01 833.8,-833.81 29.9,-28.89 68.72,-43.13 107.4,-42.8 38.72,0.34 77.34,15.31 106.81,44.8 29.4,29.41 44.33,67.98 44.66,106.69 0.34,38.69 -13.9,77.48 -42.79,107.39l-833.68 833.8c-14.27,14.27 -31.18,25.46 -49.59,33.1l-0.13 0zm-58.38 1202.04c-39.11,0 -78.25,-14.94 -108.1,-44.79l0 -0.13c-29.85,-29.86 -44.79,-68.95 -44.79,-107.98 0,-39.11 14.94,-78.25 44.79,-108.1l833.8 -833.61c29.91,-28.89 68.71,-43.13 107.39,-42.81 38.71,0.33 77.29,15.24 106.69,44.62l0.13 0.13c29.4,29.41 44.33,67.98 44.66,106.7 0.34,38.67 -13.9,77.48 -42.79,107.43l-833.68 833.75c-29.85,29.85 -68.99,44.79 -108.1,44.79zm2131.71 -1094.22c29.86,29.86 44.8,68.99 44.8,108.09 0,39.02 -14.94,78.1 -44.79,107.99l-1309.41 1309.49c-19.18,19.6 -42.82,33.4 -68.27,40.54 -25.62,7.18 -53.18,7.66 -79.88,0.67 -26.91,-7.04 -50.78,-20.97 -69.54,-39.73 -18.78,-18.78 -32.67,-42.61 -39.67,-69.48 -6.98,-26.67 -6.51,-54.19 0.65,-79.78l0 -0.13c7.11,-25.43 20.9,-49.07 40.57,-68.24l1309.49 -1309.42c29.86,-29.84 68.93,-44.78 107.96,-44.78 39.11,0 78.25,14.94 108.09,44.78zm1190.36 1406.56l-833.22 833.28c-19.11,19.52 -42.77,33.29 -68.34,40.46 -25.6,7.2 -53.15,7.68 -79.86,0.69 -26.78,-7.01 -50.57,-20.93 -69.37,-39.71l-0.13 -0.13c-18.78,-18.8 -32.71,-42.6 -39.7,-69.37 -6.99,-26.7 -6.51,-54.26 0.67,-79.88 7.13,-25.45 20.92,-49.08 40.59,-68.21l833.69 -833.72c29.94,-28.89 68.75,-43.14 107.43,-42.81 38.81,0.34 77.42,15.28 106.82,44.68 29.37,29.53 44.3,68.12 44.63,106.8 0.33,38.69 -13.92,77.51 -42.81,107.39l-0.4 0.53z"/>
  <g>
   <path class="fil12" d="M10529.64 3526.01c437.45,0 792.07,354.62 792.07,792.07 0,437.45 -354.62,792.07 -792.07,792.07 -437.45,0 -792.07,-354.62 -792.07,-792.07 0,-437.45 354.62,-792.07 792.07,-792.07zm350.57 441.5c-89.68,-89.68 -213.65,-145.17 -350.57,-145.17 -136.93,0 -260.89,55.49 -350.57,145.17 -89.68,89.68 -145.17,213.64 -145.17,350.57 0,136.92 55.49,260.89 145.17,350.57 89.69,89.68 213.64,145.17 350.57,145.17 136.92,0 260.88,-55.49 350.57,-145.17 89.68,-89.69 145.17,-213.65 145.17,-350.57 0,-136.93 -55.49,-260.88 -145.17,-350.57z"/>
  </g>
  <path class="fil13" d="M18007.41 2974.77l0 0c100.57,0 182.84,82.27 182.84,182.83l0 365.66 365.65 0c100.56,0 182.83,82.28 182.83,182.84l0 0c0,100.55 -82.27,182.83 -182.83,182.83l-365.65 0 0 365.64c0,100.56 -82.27,182.85 -182.84,182.85l0 0c-100.54,0 -182.82,-82.29 -182.82,-182.85l0 -365.64 -365.66 0c-100.58,0 -182.85,-82.28 -182.85,-182.83l0 0c0,-100.56 82.27,-182.84 182.85,-182.84l365.66 0 0 -365.66c0,-100.56 82.28,-182.83 182.82,-182.83z"/>
  <path class="fil12" d="M26603.62 9310.78l0.02 0c100.23,0 182.23,81.99 182.23,182.23l0 364.5c0,100.23 -82,182.22 -182.23,182.22l-0.02 0c-100.23,0 -182.23,-81.99 -182.23,-182.22l0 -364.5c0,-100.24 82,-182.23 182.23,-182.23zm182.66 911.63l0 -0.03c0,-100.23 82,-182.22 182.23,-182.22l364.5 0c100.23,0 182.22,81.99 182.22,182.22l0 0.03c0,100.23 -81.99,182.22 -182.22,182.22l-364.5 0c-100.23,0 -182.23,-81.99 -182.23,-182.22zm-1094.27 0l0 -0.03c0,-100.23 82,-182.22 182.23,-182.22l364.5 0c100.23,0 182.23,81.99 182.23,182.22l0 0.03c0,100.23 -82,182.22 -182.23,182.22l-364.5 0c-100.23,0 -182.23,-81.99 -182.23,-182.22zm911.61 182.64l0.02 0c100.23,0 182.23,81.99 182.23,182.22l0 364.5c0,100.23 -82,182.23 -182.23,182.23l-0.02 0c-100.23,0 -182.23,-82 -182.23,-182.23l0 -364.5c0,-100.23 82,-182.22 182.23,-182.22z"/>
  <path class="fil12" d="M6689.62 17307.31l0 0c116.45,0 211.7,95.26 211.7,211.68l0 423.37 423.35 0c116.42,0 211.68,95.25 211.68,211.68l0 0c0,116.43 -95.26,211.68 -211.68,211.68l-423.35 0 0 423.35c0,116.42 -95.25,211.7 -211.7,211.7l0 0c-116.4,0 -211.66,-95.28 -211.66,-211.7l0 -423.35 -423.37 0c-116.44,0 -211.7,-95.25 -211.7,-211.68l0 0c0,-116.43 95.26,-211.68 211.7,-211.68l423.37 0 0 -423.37c0,-116.42 95.26,-211.68 211.66,-211.68z"/>
  <path class="fil14" d="M23411.32 17519.05c165.69,0 300,134.31 300,300 0,165.69 -134.31,300 -300,300 -165.69,0 -300,-134.31 -300,-300 0,-165.69 134.31,-300 300,-300z"/>
  <path class="fil12" d="M27432.98 15444.72c210.42,0 381,170.58 381,381 0,210.42 -170.58,381 -381,381 -210.42,0 -381,-170.58 -381,-381 0,-210.42 170.58,-381 381,-381z"/>
 </g>
</svg>
