<?xml version="1.0" encoding="UTF-8"?>
<!DOCTYPE svg PUBLIC "-//W3C//DTD SVG 1.1//EN" "http://www.w3.org/Graphics/SVG/1.1/DTD/svg11.dtd">
<!-- Creator: CorelDRAW 2018 (64-Bit) -->
<svg xmlns="http://www.w3.org/2000/svg" xml:space="preserve" width="297mm" height="210mm" version="1.1" style="shape-rendering:geometricPrecision; text-rendering:geometricPrecision; image-rendering:optimizeQuality; fill-rule:evenodd; clip-rule:evenodd"
viewBox="0 0 29700 21000"
 xmlns:xlink="http://www.w3.org/1999/xlink">
 <defs>
  <style type="text/css">
   <![CDATA[
    .fil7 {fill:#343743}
    .fil6 {fill:#9AFBDB}
    .fil8 {fill:#D4B4FD}
    .fil1 {fill:#DE749B}
    .fil9 {fill:#EADAFE}
    .fil10 {fill:#F4D5E1}
    .fil0 {fill:#F8F4FF}
    .fil5 {fill:white}
    .fil2 {fill:#343743;fill-rule:nonzero}
    .fil3 {fill:white;fill-rule:nonzero}
    .fil4 {fill:#343743;fill-opacity:0.149020}
    .fil11 {fill:#EFC7D7;fill-opacity:0.501961}
   ]]>
  </style>
 </defs>
 <g id="Слой_x0020_1">
  <metadata id="CorelCorpID_0Corel-Layer"/>
  <path class="fil0" d="M7420.3 6217.37c938.16,0 1745.98,240.41 2670.96,240.41 2518.78,0 4828.51,-1270.22 6189.12,-3353.34 1340.78,-1866.06 3529.7,-3081.69 6002.88,-3081.69 4079.92,0 7387.35,3307.43 7387.35,7387.35 0,4079.92 -3307.43,7387.35 -7387.35,7387.35 -902.49,0 -1756.92,-212.03 -2667,-212.03 -2576.38,0 -4844.3,1319.19 -6166.27,3318.63l-12.08 -13.48c-1339.51,1877.39 -3535.56,3101.54 -6017.61,3101.54 -4079.93,0 -7387.37,-3307.44 -7387.37,-7387.37 0,-4079.93 3307.44,-7387.37 7387.37,-7387.37z"/>
  <path class="fil1" d="M3694.19 936.01c1063.8,0 1926.18,862.38 1926.18,1926.18 0,1063.8 -862.38,1926.18 -1926.18,1926.18 -1063.8,0 -1926.18,-862.38 -1926.18,-1926.18 0,-1063.8 862.38,-1926.18 1926.18,-1926.18z"/>
  <g>
   <path class="fil2" d="M5286.44 2119.72c-39.52,-84.75 -2.86,-185.51 81.89,-225.03 84.75,-39.52 185.51,-2.86 225.03,81.89l-306.92 143.14zm503.26 742.47l-338.66 0 0 0 -0.16 -24.05 -0.5 -24.01 -0.82 -23.99 -1.15 -23.99 -1.46 -23.92 -1.81 -23.88 -2.13 -23.9 -2.44 -23.82 -2.77 -23.78 -3.09 -23.72 -3.42 -23.66 -3.74 -23.63 -4.06 -23.58 -4.38 -23.51 -4.7 -23.45 -5.02 -23.39 -5.32 -23.29 -5.66 -23.22 -5.96 -23.16 -6.29 -23.06 -6.59 -23 -6.91 -22.9 -7.23 -22.84 -7.54 -22.73 -7.84 -22.61 -8.15 -22.48 -8.49 -22.46 -8.77 -22.32 -9.09 -22.19 -9.4 -22.11 -9.69 -21.96 -10.02 -21.86 306.92 -143.14 11.94 26.06 11.59 26.24 11.2 26.33 10.85 26.51 10.47 26.62 10.09 26.7 9.75 26.9 9.36 27.01 8.98 27.09 8.61 27.2 8.25 27.32 7.87 27.42 7.49 27.52 7.12 27.62 6.74 27.72 6.36 27.81 5.98 27.87 5.6 27.97 5.22 28.03 4.84 28.1 4.46 28.17 4.08 28.26 3.69 28.32 3.31 28.36 2.92 28.42 2.53 28.42 2.15 28.54 1.76 28.56 1.37 28.57 0.98 28.63 0.58 28.65 0.2 28.67 0 0zm-2095.51 2095.51l0 -338.66 0 0 90.58 -2.29 89.29 -6.79 87.92 -11.17 86.48 -15.45 84.94 -19.6 83.31 -23.67 81.57 -27.59 79.73 -31.44 77.77 -35.16 75.72 -38.79 73.57 -42.3 71.29 -45.7 68.88 -48.98 66.4 -52.19 63.78 -55.25 61.05 -58.2 58.2 -61.05 55.25 -63.78 52.19 -66.4 48.98 -68.88 45.7 -71.29 42.3 -73.57 38.79 -75.72 35.16 -77.77 31.44 -79.73 27.59 -81.57 23.67 -83.31 19.6 -84.94 15.45 -86.48 11.17 -87.92 6.79 -89.29 2.29 -90.58 338.66 0 -2.73 107.66 -8.07 106.35 -13.33 104.88 -18.43 103.22 -23.42 101.44 -28.25 99.51 -32.97 97.43 -37.54 95.21 -41.98 92.87 -46.29 90.38 -50.46 87.75 -54.5 85.03 -58.42 82.14 -62.19 79.14 -65.83 76 -69.36 72.73 -72.73 69.36 -76 65.83 -79.14 62.19 -82.14 58.42 -85.03 54.5 -87.75 50.46 -90.38 46.29 -92.87 41.98 -95.21 37.54 -97.43 32.97 -99.51 28.25 -101.44 23.42 -103.22 18.43 -104.88 13.33 -106.35 8.07 -107.66 2.73 0 0zm-2095.51 -2095.51l338.66 0 0 0 2.29 90.58 6.79 89.29 11.17 87.92 15.45 86.48 19.6 84.94 23.67 83.31 27.59 81.57 31.44 79.73 35.16 77.77 38.79 75.72 42.3 73.57 45.7 71.29 48.98 68.88 52.19 66.4 55.25 63.78 58.19 61.05 61.06 58.2 63.78 55.25 66.4 52.19 68.88 48.98 71.29 45.7 73.57 42.3 75.72 38.79 77.77 35.16 79.73 31.44 81.57 27.59 83.31 23.67 84.94 19.6 86.48 15.45 87.92 11.17 89.29 6.79 90.58 2.29 0 338.66 -107.66 -2.73 -106.35 -8.07 -104.88 -13.33 -103.22 -18.43 -101.44 -23.42 -99.51 -28.25 -97.43 -32.97 -95.21 -37.54 -92.87 -41.98 -90.38 -46.29 -87.75 -50.46 -85.03 -54.5 -82.14 -58.42 -79.14 -62.19 -76 -65.83 -72.74 -69.36 -69.35 -72.73 -65.83 -76 -62.19 -79.14 -58.42 -82.14 -54.5 -85.03 -50.46 -87.75 -46.29 -90.38 -41.98 -92.87 -37.54 -95.21 -32.97 -97.43 -28.25 -99.51 -23.42 -101.44 -18.43 -103.22 -13.33 -104.88 -8.07 -106.35 -2.73 -107.66 0 0zm2095.51 -2095.51l0 338.66 0 0 -90.58 2.29 -89.29 6.79 -87.92 11.17 -86.48 15.45 -84.94 19.6 -83.31 23.67 -81.57 27.59 -79.73 31.44 -77.77 35.16 -75.72 38.79 -73.57 42.3 -71.29 45.7 -68.88 48.98 -66.4 52.19 -63.79 55.25 -61.05 58.19 -58.19 61.05 -55.25 63.79 -52.19 66.4 -48.98 68.88 -45.7 71.29 -42.3 73.57 -38.79 75.72 -35.16 77.77 -31.44 79.73 -27.59 81.57 -23.67 83.31 -19.6 84.94 -15.45 86.48 -11.17 87.92 -6.79 89.29 -2.29 90.58 -338.66 0 2.73 -107.66 8.07 -106.35 13.33 -104.88 18.43 -103.22 23.42 -101.44 28.25 -99.51 32.97 -97.43 37.54 -95.21 41.98 -92.87 46.29 -90.38 50.46 -87.75 54.5 -85.03 58.42 -82.14 62.19 -79.14 65.83 -75.99 69.35 -72.75 72.75 -69.35 75.99 -65.83 79.14 -62.19 82.14 -58.42 85.03 -54.5 87.75 -50.46 90.38 -46.29 92.87 -41.98 95.21 -37.54 97.43 -32.97 99.51 -28.25 101.44 -23.42 103.22 -18.43 104.88 -13.33 106.35 -8.07 107.66 -2.73 0 0zm1201.93 378.96l-194.24 277.42 -27.85 -19.1 -28.18 -18.54 -28.49 -17.99 -28.79 -17.39 -29.11 -16.84 -29.36 -16.26 -29.64 -15.66 -29.93 -15.11 -30.16 -14.5 -30.47 -13.93 -30.68 -13.35 -30.89 -12.73 -31.16 -12.16 -31.34 -11.55 -31.57 -10.94 -31.79 -10.36 -31.95 -9.74 -32.13 -9.14 -32.3 -8.51 -32.5 -7.92 -32.63 -7.29 -32.79 -6.67 -32.91 -6.06 -33.03 -5.41 -33.19 -4.8 -33.29 -4.17 -33.38 -3.54 -33.48 -2.89 -33.57 -2.26 -33.62 -1.61 -33.73 -0.97 -33.78 -0.33 0 -338.66 40.28 0.39 40.19 1.15 40.16 1.93 40.03 2.7 39.94 3.45 39.84 4.22 39.69 4.97 39.55 5.72 39.43 6.47 39.27 7.22 39.09 7.95 38.93 8.71 38.72 9.42 38.56 10.17 38.35 10.9 38.11 11.62 37.87 12.34 37.65 13.06 37.42 13.79 37.12 14.48 36.91 15.21 36.58 15.91 36.27 16.59 36.04 17.32 35.69 18.01 35.38 18.7 35.04 19.4 34.67 20.06 34.35 20.77 33.97 21.43 33.6 22.1 33.23 22.8zm0 0c76.6,53.63 95.22,159.23 41.59,235.83 -53.63,76.6 -159.23,95.22 -235.83,41.59l194.24 -277.42z"/>
  </g>
  <path class="fil3" d="M3038.37 2234.2l-292.17 185.13c-25.07,15.43 -49.66,28.93 -73.77,40.5 -24.1,11.57 -49.66,17.36 -76.66,17.36 -32.78,0 -64.6,-11.09 -95.46,-33.27 -30.85,-22.18 -46.28,-55.44 -46.28,-99.8 0,-59.78 23.14,-103.17 69.42,-130.17l572.78 -350.03c15.42,-9.64 30.37,-16.39 44.83,-20.25 14.47,-3.86 29.41,-5.78 44.84,-5.78 48.21,0 88.71,15.42 121.5,46.28 32.78,30.86 49.18,68.46 49.18,112.82l0 1781.95c0,38.57 -15.43,73.28 -46.29,104.14 -30.86,30.86 -68.46,46.29 -112.82,46.29 -44.35,0 -81.96,-15.43 -112.82,-46.29 -30.85,-30.86 -46.28,-65.57 -46.28,-104.14l0 -1544.74zm1888.56 1524.49c0,40.5 -14.94,74.73 -44.84,102.69 -29.89,27.97 -67.01,41.95 -111.37,41.95l-951.72 0c-48.22,0 -87.27,-14.95 -117.16,-44.84 -29.89,-29.89 -44.84,-67.01 -44.84,-111.37 0,-19.29 0.97,-40.02 2.89,-62.19 1.93,-22.18 7.72,-42.91 17.36,-62.2 54,-121.5 125.35,-230.46 214.07,-326.88 88.71,-96.43 182.24,-190.93 280.6,-283.5 44.35,-42.42 92.08,-85.82 143.19,-130.17 51.1,-44.36 97.87,-91.12 140.3,-140.3 42.43,-49.18 77.62,-101.25 105.58,-156.21 27.97,-54.96 41.95,-113.3 41.95,-175.01 0,-88.72 -26.52,-163.93 -79.55,-225.64 -53.04,-61.71 -131.62,-92.57 -235.76,-92.57 -52.07,0 -98.84,4.34 -140.3,13.02 -41.47,8.68 -81.48,20.73 -120.05,36.16 -32.79,15.43 -64.13,32.78 -94.02,52.07 -29.89,19.28 -61.23,28.92 -94.01,28.92 -38.57,0 -73.77,-13.01 -105.59,-39.05 -31.82,-26.03 -47.73,-60.26 -47.73,-102.69 0,-44.36 21.21,-83.41 63.64,-117.16 42.43,-33.75 94.98,-62.19 157.66,-85.34 62.67,-23.14 128.73,-40.49 198.15,-52.07 69.43,-11.57 131.14,-17.35 185.14,-17.35 98.35,0 186.1,14.94 263.24,44.84 77.14,29.89 142.71,70.39 196.71,121.49 54,51.11 94.98,111.37 122.95,180.8 27.96,69.43 41.94,143.68 41.94,222.74 0,121.5 -20.73,225.16 -62.19,310.98 -41.47,85.82 -94.02,162.48 -157.66,229.97 -54,57.86 -110.89,114.75 -170.67,170.68 -59.79,55.93 -118.61,111.85 -176.46,167.78 -57.86,55.93 -112.82,112.82 -164.89,170.67 -52.07,57.86 -96.43,119.57 -133.07,185.14l720.3 0c44.36,0 81.48,13.98 111.37,41.95 29.9,27.96 44.84,62.19 44.84,102.69z"/>
  <path class="fil4" d="M6976.52 17477.68c-2.41,0 -4.87,0.06 -7.27,0 -109.22,0 -198.6,89.46 -198.6,198.57l0 3522.11 68.73 0 68.73 0 68.73 0 68.73 0 68.73 0 53.57 0 3604.42 0.01 53.56 0 68.74 0 68.73 0 68.73 0 68.73 0 68.73 0 0 -1892.83 3.46 0c20.78,0.03 41.75,0.3 62.78,0.67 10.22,1.64 20.69,2.49 31.36,2.49l0 0c7.9,0 15.7,-0.48 23.37,-1.39 33.93,0.71 67.84,1.37 101.29,1.39l0.46 0 0.57 0 0.56 0c109.25,0 198.62,-89.35 198.62,-198.62l0 -1433.78c0,-109.27 -89.37,-198.62 -198.62,-198.62l-126.25 0 -382.78 0 -2.38 0 -6.2 0 -3.54 0 -2.66 0 -251.86 0 825.29 -2802.15c87.04,-227.57 117.1,-472.96 87.62,-714.82 -172.26,-1337.51 -1204.96,-2873.98 -1424.21,-3187.83l0 -3038.93 1447 0c54.85,0.03 107.44,-21.72 146.2,-60.51 38.79,-38.79 60.54,-91.37 60.51,-146.2l0 -1033.58c-0.63,-570.56 -462.98,-1032.91 -1033.54,-1033.59l-6201.49 0c-570.56,0.68 -1032.91,463.03 -1033.59,1033.59l0 7855.22c0.37,342.34 277.81,619.78 620.15,620.15l2980.22 0.01 -4.3 29.96 -0.4 2.8 -1.38 9.93 -3.08 22.07 -0.92 6.73 -3.42 25.2 -1.59 12.01 -2.72 20.67 -1.64 12.69 -2.75 21.59 -1.68 13.4 -2.38 19.33 -1.92 15.87 -2.5 20.99 -1.51 12.88 -2.19 19.13 -2.07 18.2 -2.1 19.09 -1.67 15.25 -1.76 16.6 -2.21 21.03 -3.53 34.91c-2.03,20.48 -3.99,41.22 -5.9,62.09l-1.01 10.9 -2.06 23.43 -1.23 14.02 -2.12 25.41 -0.91 11.05 -2.1 26.35 -0.99 12.79 -1.77 23.67 -1.11 15.32 -1.85 26.44 -0.51 7.62 -2.13 32.45 -0.22 3.62 -2.11 34.69 -0.18 3.17c-5.11,88.2 -8.86,178.78 -10.91,271.2l-0.02 0.91c-10.59,480.73 25.24,1011.05 158.44,1513.18l-155.97 0 -0.11 0 -0.12 0 -0.11 0 -0.11 0 -0.03 0 -0.09 0 -0.11 0 -0.11 0 -0.12 0 -0.11 0 -0.11 0 -0.12 0 -5.91 0 -0.11 0 -25.68 0zm4416.84 1831.02l0 0zm0 -1831.02l0 0z"/>
  <path class="fil5" d="M7216.52 17277.68c-2.41,0 -4.87,0.06 -7.27,0 -109.22,0 -198.6,89.46 -198.6,198.57l0 3522.11c1466.25,0 2932.6,0.01 4398.86,0.01l0 -1892.83c73.84,0 150,3.16 223.85,3.16l0 0c109.25,0 198.62,-89.35 198.62,-198.62l0 -1433.78c0,-109.27 -89.37,-198.62 -198.62,-198.62l0 0c-258.56,0 -517.11,0 -775.67,0l825.29 -2802.15c87.04,-227.57 117.1,-472.96 87.62,-714.82 -172.26,-1337.51 -1204.96,-2873.98 -1424.21,-3187.83l0 -3038.93 1447 0c54.85,0.03 107.44,-21.72 146.2,-60.51 38.79,-38.79 60.54,-91.37 60.51,-146.2l0 -1033.58c-0.63,-570.56 -462.98,-1032.91 -1033.54,-1033.59l-6201.49 0c-570.56,0.68 -1032.91,463.03 -1033.59,1033.59l0 7855.22c0.37,342.34 277.81,619.78 620.15,620.15l2980.22 0.01c-92.15,633.75 -163.26,1615.78 73.59,2508.64 -62.97,0 -125.95,0 -188.92,0z"/>
  <path class="fil6" d="M7249.47 17277.68c-2.41,0 -4.87,0.06 -7.27,0l0 0c-109.22,0 -198.6,89.45 -198.6,198.57l0 3522.08 4239.66 0.02 0 -1892.81 188.54 0c11.46,2.07 23.26,3.16 35.31,3.16l0 0c109.24,0 198.62,-89.35 198.62,-198.62l0 -1433.78c0,-109.27 -89.38,-198.62 -198.62,-198.62l0 0c-132.09,1.66 -265.35,0 -397.56,0l-3860.08 0z"/>
  <path class="fil7" d="M7216.52 17277.68c-2.41,0 -4.87,0.06 -7.27,0 -109.22,0 -198.6,89.46 -198.6,198.57l0 3522.11 397.22 0 0 -3323.46 4026.89 0 0 1033.41c-1278.49,0 -1653.48,0 -2932.14,0 -109.29,0 -198.66,89.37 -198.66,198.62l0 0c0,109.22 89.37,198.6 198.66,198.6l2509.67 0 0 1892.84 397.22 0 0 -1892.84 188.54 0c11.47,2.08 23.27,3.17 35.31,3.17l0 0c109.25,0 198.62,-89.35 198.62,-198.62l0 -1433.78c0,-109.27 -89.37,-198.62 -198.62,-198.62l0 0 -4416.84 0zm3255.96 2212.51l0.06 0c109.22,0 198.58,89.45 198.58,198.58l0 0.03c0,109.13 -89.44,198.58 -198.58,198.58l-0.06 0c-109.14,0 -198.58,-89.37 -198.58,-198.58l0 -0.03c0,-109.21 89.36,-198.58 198.58,-198.58z"/>
  <path class="fil7" d="M10966.56 5260.07l-6201.49 0c-570.56,0.68 -1032.91,463.03 -1033.59,1033.59l0 7855.22c0.37,342.34 277.81,619.78 620.15,620.15l2980.22 0.01c-100.67,692.36 -176.32,1800.41 147.36,2753.72 28.44,83.92 107.22,140.36 195.81,140.31l2914.63 0c91.69,0.02 172.41,-60.39 198.23,-148.37l895.1 -3039.17c87.04,-227.57 117.1,-472.96 87.62,-714.82 -172.26,-1337.51 -1204.96,-2873.98 -1424.21,-3187.83l0 -3038.93 1447 0c54.85,0.03 107.44,-21.72 146.2,-60.51 38.79,-38.79 60.54,-91.37 60.51,-146.2l0 -1033.58c-0.63,-570.56 -462.98,-1032.91 -1033.54,-1033.59zm-3514.18 6614.93l0 2248.84c-9.48,39.27 -28.13,121.44 -49.98,231.76l-3050.77 -0.01c-114.15,-0.07 -206.63,-92.58 -206.71,-206.71l0 -7855.22c0.37,-342.34 277.81,-619.79 620.15,-620.15l5379.92 0c-136.73,177.88 -211.22,395.78 -212.02,620.15l0 4324.64c-0.46,5.57 -2.62,10.71 -2.62,16.41l0 3307.44c0,228.34 -185.09,413.44 -413.43,413.44 -228.34,0 -413.44,-185.1 -413.44,-413.44l0 -2067.15c0.65,-295.37 -156.54,-568.6 -412.25,-716.49 -255.69,-147.89 -570.93,-147.89 -826.62,0 -255.67,147.86 -412.89,421.1 -412.23,716.49zm3908.04 1938.16c21.34,176.74 -1.4,356.03 -66.2,521.84 -2.01,5.26 -3.83,10.49 -5.46,15.94l-853.72 3023.08 -2608.4 0c-390.01,-1346.48 28.47,-3156.92 32.9,-3174.29 4.09,-16.64 6.2,-33.71 6.25,-50.87l0 -2273.88c0,-147.24 78.56,-283.28 206.06,-356.9 127.49,-73.61 284.61,-73.62 412.13,0 127.52,73.62 206.05,209.66 206.05,356.9l0 2067.17c0,456.66 370.2,826.86 826.86,826.86 456.66,0 826.86,-370.2 826.86,-826.86l0 -2611.6c372.69,612.88 904.83,1613.14 1016.67,2482.61zm226.29 -6692.64l-1240.3 0 0 -826.86c0,-342.49 277.64,-620.15 620.15,-620.15 342.51,0 620.15,277.66 620.15,620.15l0 826.86z"/>
  <path class="fil8" d="M5511.75 11272.12c483.84,0 876.15,392.28 876.15,876.17 0,483.9 -392.31,876.17 -876.15,876.17 -483.85,0 -876.15,-392.27 -876.15,-876.17 0,-483.89 392.3,-876.17 876.15,-876.17z"/>
  <path class="fil7" d="M8494.85 10110.99l-3700.49 0c-106.15,0 -192.23,86.07 -192.23,192.23 0,106.17 86.08,192.23 192.23,192.23l3700.49 0c106.15,0 192.23,-86.06 192.23,-192.23 -0.01,-106.16 -86.08,-192.23 -192.23,-192.23zm778.54 -910.92l-4479.03 0c-106.15,0 -192.23,86.06 -192.23,192.23 0,106.17 86.08,192.23 192.23,192.23l4479.02 0c106.15,0 192.22,-86.06 192.22,-192.23 0.02,-106.17 -86.06,-192.23 -192.21,-192.23zm0 -867.49l-4479.03 0c-106.15,0 -192.23,86.06 -192.23,192.23 0,106.17 86.08,192.23 192.23,192.23l4479.02 -0.01c106.15,0 192.22,-86.06 192.22,-192.23 0.02,-106.17 -86.06,-192.22 -192.21,-192.22zm0 -892.56l-4479.03 0c-106.15,0 -192.23,86.06 -192.23,192.23 0,106.17 86.08,192.23 192.23,192.23l4479.02 -0.01c106.15,0 192.22,-86.06 192.22,-192.23 0,-106.17 -86.06,-192.22 -192.21,-192.22zm-3765.75 3832.11c-483.39,0 -876.67,393.26 -876.67,876.67 0,483.42 393.3,876.68 876.67,876.68 483.41,0 876.69,-393.26 876.69,-876.68 0.03,-483.39 -393.26,-876.67 -876.69,-876.67zm0 1368.91c-271.41,0 -492.21,-220.82 -492.21,-492.22 0,-271.42 220.8,-492.21 492.21,-492.21 271.41,0 492.23,220.8 492.23,492.21 0,271.4 -220.79,492.22 -492.23,492.22z"/>
  <path class="fil9" d="M2591.46 15130.7l0.02 0c100.23,0 182.23,81.99 182.23,182.23l0 364.5c0,100.23 -82,182.22 -182.23,182.22l-0.02 0c-100.23,0 -182.23,-81.99 -182.23,-182.22l0 -364.5c0,-100.24 82,-182.23 182.23,-182.23zm182.66 911.63l0 -0.03c0,-100.23 82,-182.22 182.23,-182.22l364.5 0c100.23,0 182.22,81.99 182.22,182.22l0 0.03c0,100.23 -81.99,182.22 -182.22,182.22l-364.5 0c-100.23,0 -182.23,-81.99 -182.23,-182.22zm-1094.27 0l0 -0.03c0,-100.23 82,-182.22 182.23,-182.22l364.5 0c100.23,0 182.23,81.99 182.23,182.22l0 0.03c0,100.23 -82,182.22 -182.23,182.22l-364.5 0c-100.23,0 -182.23,-81.99 -182.23,-182.22zm911.61 182.64l0.02 0c100.23,0 182.23,81.99 182.23,182.22l0 364.5c0,100.23 -82,182.23 -182.23,182.23l-0.02 0c-100.23,0 -182.23,-82 -182.23,-182.23l0 -364.5c0,-100.23 82,-182.22 182.23,-182.22z"/>
  <path class="fil10" d="M10423.72 2500.67l0 0c100.57,0 182.84,82.27 182.84,182.83l0 365.66 365.65 0c100.56,0 182.83,82.28 182.83,182.84l0 0c0,100.55 -82.27,182.83 -182.83,182.83l-365.65 0 0 365.64c0,100.56 -82.27,182.85 -182.84,182.85l0 0c-100.54,0 -182.82,-82.29 -182.82,-182.85l0 -365.64 -365.66 0c-100.58,0 -182.85,-82.28 -182.85,-182.83l0 0c0,-100.56 82.27,-182.84 182.85,-182.84l365.66 0 0 -365.66c0,-100.56 82.28,-182.83 182.82,-182.83z"/>
  <path class="fil11" d="M15278.57 1013.5c165.69,0 300,134.31 300,300 0,165.69 -134.31,300 -300,300 -165.69,0 -300,-134.31 -300,-300 0,-165.69 134.31,-300 300,-300z"/>
  <g>
   <path class="fil9" d="M23735.82 4199.4c437.45,0 792.07,354.62 792.07,792.07 0,437.45 -354.62,792.07 -792.07,792.07 -437.45,0 -792.07,-354.62 -792.07,-792.07 0,-437.45 354.62,-792.07 792.07,-792.07zm350.57 441.5c-89.68,-89.68 -213.64,-145.17 -350.57,-145.17 -136.92,0 -260.89,55.49 -350.57,145.17 -89.68,89.69 -145.17,213.64 -145.17,350.57 0,136.92 55.49,260.88 145.17,350.57 89.69,89.68 213.65,145.17 350.57,145.17 136.93,0 260.88,-55.49 350.57,-145.17 89.68,-89.68 145.17,-213.65 145.17,-350.57 0,-136.93 -55.49,-260.89 -145.17,-350.57z"/>
  </g>
  <path class="fil9" d="M27851.53 7197.75l0 0c116.45,0 211.7,95.26 211.7,211.68l0 423.37 423.35 0c116.42,0 211.68,95.25 211.68,211.68l0 0c0,116.43 -95.26,211.68 -211.68,211.68l-423.35 0 0 423.35c0,116.42 -95.25,211.7 -211.7,211.7l0 0c-116.4,0 -211.66,-95.28 -211.66,-211.7l0 -423.35 -423.37 0c-116.44,0 -211.7,-95.25 -211.7,-211.68l0 0c0,-116.43 95.26,-211.68 211.7,-211.68l423.37 0 0 -423.37c0,-116.42 95.26,-211.68 211.66,-211.68z"/>
  <path class="fil9" d="M27506.91 1805.45c210.42,0 381,170.58 381,381 0,210.42 -170.58,381 -381,381 -210.42,0 -381,-170.58 -381,-381 0,-210.42 170.58,-381 381,-381z"/>
  <path class="fil4" d="M23100.01 16340.88l360.17 0c120.73,0 219.91,98.99 219.91,219.99l0 0.01c0,121 -99.18,219.99 -219.91,219.99l-360.17 0c-120.73,0 -219.92,-98.99 -219.92,-219.99l0 -0.01c0,-121 99.19,-219.99 219.92,-219.99zm-755.57 0.29l-220.75 0 0 -452.46c0,-1036.1 -276.31,-1835.78 -821.23,-2376.81 -683.01,-678.11 -1537.59,-691.1 -1599.32,-691.1 -1.06,0 -1.88,0.02 -2.47,0.02l-1106.17 0.01 0 -669.32c0,-11.66 -1.18,-23.05 -2.94,-34.24 524.29,-216.63 905.53,-540.36 1178.85,-865.59 127.69,184.78 340.86,306.16 581.99,306.16 357.27,0 653.24,-266.39 700.31,-610.94 56.48,10.73 114.26,16.56 172.95,16.56 508.84,0 922.87,-414.03 922.87,-922.92 0,-207.11 -71.13,-403.1 -192.13,-560.97 329.22,-169.91 554.97,-513.25 554.97,-908.55 0,-316.87 -144.96,-600.53 -372.08,-788.13 296.42,-206.24 490.96,-549.17 490.96,-936.84 0,-624.53 -504.37,-1133.48 -1127.2,-1140.76l-41.19 -4.85c-232.76,-581.69 -530.94,-1179.4 -1065.74,-1679.73 -713.72,-667.76 -1708.19,-1006.3 -2955.91,-1006.3 -5.12,0 -10.12,0.41 -15.15,0.76 -5.01,-0.35 -10.01,-0.76 -15.14,-0.76 -1247.72,0 -2242.2,338.54 -2955.85,1006.21 -534.79,500.32 -832.98,1098.02 -1065.74,1679.73l-41.18 4.86c-622.84,7.25 -1127.22,516.2 -1127.22,1140.74 0,387.68 194.52,730.61 490.96,936.84 -227.11,187.6 -372.07,471.23 -372.07,788.13 0,395.31 225.76,738.66 554.96,908.56 -121,157.86 -192.12,353.88 -192.12,560.97 0,508.89 414.02,922.91 922.88,922.91 58.67,0 116.46,-5.83 172.93,-16.56 47.08,344.56 343.06,610.94 700.32,610.94 238.12,0 448.91,-118.42 577.13,-299.36 272.91,322.94 652.56,643.67 1173.19,858.79 -1.76,11.19 -2.95,22.58 -2.95,34.24l0 669.31 -1104.55 0.01c-37.75,0.56 -908.81,1.51 -1603.39,691.1 -544.93,541.04 -821.22,1340.75 -821.22,2376.84l0 452.43 -50.82 0c-121.98,0 -220.81,98.87 -220.81,220.82 0,121.94 98.83,220.8 220.81,220.8l9679.26 0.01c121.98,0 220.81,-98.86 220.81,-220.8 0,-121.89 -98.86,-220.76 -220.81,-220.76zm-4003.1 -5818.78c0,-121.94 -98.83,-220.8 -220.81,-220.8l-1401.38 0c-121.98,0 -220.82,98.86 -220.82,220.8 0,121.94 98.84,220.8 220.82,220.8l1401.38 0.01c121.95,0 220.81,-98.86 220.81,-220.81zm909.37 -2797.93c0,-145.53 -117.98,-263.52 -263.52,-263.52 -145.55,0 -263.53,117.99 -263.53,263.52 0,145.55 117.98,263.53 263.53,263.53 145.54,0 263.52,-117.98 263.52,-263.53zm-3134.73 0c0,-145.53 -117.99,-263.52 -263.52,-263.52 -145.55,0 -263.53,117.99 -263.53,263.52 0,145.55 117.98,263.53 263.53,263.53 145.53,0 263.52,-117.98 263.52,-263.53zm3586.28 5537.95c5.59,-0.08 723.07,0.91 1289.04,562.84 458.37,455.08 690.78,1149.36 690.78,2063.46l0 452.46 -3500.31 0c-0.61,-15.78 -2.85,-31.71 -7.04,-47.6l-402.01 -1524.87 699.93 1201.19c34.51,59.18 94.48,99 162.43,107.81 9.49,1.24 18.96,1.82 28.38,1.82 58.21,0 114.48,-22.99 156.15,-64.68l745.86 -745.89c48.43,-48.42 71.66,-116.61 62.84,-184.53 -8.81,-67.92 -48.61,-127.92 -107.79,-162.39l-1499.82 -873.96c282.1,-168.7 487.73,-452.31 552.08,-785.73l1129.48 0 0 0.07zm-2282.6 78.19c276.4,0 530.62,-96.21 731.47,-256.57 -23.12,383.44 -342.28,688.39 -731.47,688.39 -389.17,0 -708.34,-304.95 -731.46,-688.39 200.82,160.39 455.06,256.57 731.46,256.57zm-726.22 -1076.62c209.36,53.14 436.73,90.3 684.3,106.34 4.77,0.29 9.5,0.47 14.27,0.47l55.56 0c4.76,0 9.51,-0.15 14.28,-0.47 247.46,-16.03 474.71,-53.17 683.97,-106.26 -48.07,357.95 -355.29,634.93 -726.18,634.93 -370.9,0 -678.11,-277.04 -726.2,-635.01zm740.36 2951.61l296.76 1125.55 -593.53 0 296.77 -1125.55zm800.49 -531.87l816.25 475.62 -340.6 340.62 -475.65 -816.24zm-3736.56 -3567.56c-146.35,0 -265.41,-119.06 -265.41,-265.44 0,-68.51 26.04,-133.55 73.25,-183.09 11.19,-11.72 20.7,-24.42 28.82,-37.71 1.54,-1.82 3.13,-3.55 4.66,-5.4 77.22,-94.38 63.29,-233.5 -31.09,-310.72 -94.37,-77.19 -233.48,-63.29 -310.73,31.09 -91.94,112.39 -227.81,176.86 -372.78,176.86 -265.38,0 -481.27,-215.9 -481.27,-481.3 0,-211.33 141.23,-401.05 343.45,-461.32 116.89,-34.83 183.4,-157.81 148.53,-274.68 -33.24,-111.61 -146.84,-177.12 -258.84,-152.42 -5.18,-0.36 -10.37,-0.8 -15.6,-0.8 -320,0 -580.35,-260.34 -580.35,-580.33 0,-320.01 260.35,-580.34 580.35,-580.34 121.96,0 220.8,-98.88 220.8,-220.82 0,-0.65 -0.09,-1.24 -0.09,-1.88 0,-0.64 0.09,-1.26 0.09,-1.88 0,-121.94 -98.84,-220.81 -220.8,-220.81 -385.57,0 -699.23,-313.66 -699.23,-699.22 0,-385.56 313.66,-699.23 699.23,-699.23 8.62,0 17.22,-0.49 25.78,-1.5l184.63 -21.72c81.26,-9.57 150.54,-63.24 180.1,-139.52 221.39,-571.28 496.28,-1165.45 1004.49,-1640.9 638.05,-596.89 1506.27,-887.05 2654.2,-887.05 5.12,0 10.13,-0.42 15.17,-0.77 5.03,0.35 10.03,0.77 15.16,0.77 1147.93,0 2016.11,290.16 2654.13,887.05 508.21,475.45 783.13,1069.62 1004.5,1640.9 29.55,76.28 98.83,129.95 180.09,139.52l184.63 21.72c8.57,1.01 17.16,1.5 25.79,1.5 385.56,0 699.23,313.67 699.23,699.23 0,385.56 -313.67,699.22 -699.23,699.22 -121.97,0 -220.81,98.87 -220.81,220.81 0,0.65 0.09,1.24 0.09,1.88 0,0.64 -0.09,1.24 -0.09,1.88 0,121.94 98.84,220.82 220.81,220.82 319.99,0 580.35,260.33 580.35,580.34 0,320.02 -260.36,580.33 -580.35,580.33 -5.3,0 -10.43,0.44 -15.61,0.8 -112.11,-24.7 -225.6,40.81 -258.84,152.42 -34.86,116.85 31.64,239.82 148.53,274.68 202.23,60.27 343.45,249.98 343.45,461.32 0,265.37 -215.89,481.3 -481.26,481.3 -144.98,0 -280.85,-64.45 -372.79,-176.86 -77.22,-94.41 -216.36,-108.28 -310.72,-31.09 -94.39,77.22 -108.32,216.34 -31.08,310.72 1.52,1.85 3.14,3.57 4.64,5.4 8.09,13.3 17.64,25.99 28.83,37.71 47.21,49.57 73.24,114.58 73.24,183.09 0,146.35 -119.06,265.44 -265.41,265.44 -146.38,0 -265.44,-119.06 -265.44,-265.44 0,-11.87 0.76,-23.79 2.32,-35.42 0.74,-5.56 1.04,-11.1 1.36,-16.63 365,-616.91 450.42,-1181.74 454.04,-1206.9 1.54,-10.52 2.3,-21.08 2.3,-31.68l0 -2374.81c4.59,-63.94 -18.52,-129.36 -68.83,-176.71l-464.27 -436.94 0 -513.5c0,-66.23 -29.72,-128.96 -80.98,-170.91 -57.65,-47.16 -617.91,-460.89 -2510.09,-460.89 -1892.17,0 -2452.43,413.73 -2510.07,460.89 -51.26,41.92 -80.99,104.68 -80.99,170.91l0 512.84 -468.77 436.84c-0.89,0.83 -1.62,1.74 -2.47,2.57 -3,2.86 -5.8,5.86 -8.63,8.89 -2.24,2.38 -4.51,4.79 -6.63,7.27 -2.44,2.86 -4.67,5.83 -6.97,8.81 -2.15,2.82 -4.35,5.62 -6.38,8.54 -1.98,2.87 -3.8,5.85 -5.63,8.82 -1.94,3.12 -3.95,6.21 -5.71,9.42 -1.74,3.09 -3.24,6.26 -4.8,9.43 -1.59,3.19 -3.24,6.42 -4.65,9.68 -1.51,3.38 -2.75,6.89 -4.06,10.39 -1.21,3.19 -2.45,6.32 -3.51,9.54 -1.18,3.65 -2.12,7.39 -3.11,11.12 -0.83,3.18 -1.77,6.36 -2.46,9.6 -0.78,3.66 -1.38,7.34 -1.99,11.07 -0.6,3.48 -1.19,6.97 -1.62,10.49 -0.42,3.43 -0.61,6.88 -0.85,10.38 -0.26,3.92 -0.54,7.83 -0.59,11.75 -0.03,1.27 -0.21,2.48 -0.21,3.77l0 2390.74c0,10.6 0.77,21.19 2.3,31.68 3.65,25.43 91,602.33 466.1,1227.01 1.28,10.54 2.1,21.22 2.1,31.94 -0.01,146.38 -119.09,265.44 -265.45,265.44zm3525.74 -4171c-69.9,20.47 -125.21,74.07 -147.82,143.32 -4.63,14.13 -59.36,185.98 -75.94,412.34 -309.24,-69.36 -578.28,-45.51 -771.47,-3.29 -16.88,-224.73 -71.07,-394.99 -75.67,-409.05 -22.61,-69.25 -77.92,-122.86 -147.82,-143.32 -369.99,-108.31 -750.63,-163.22 -1131.36,-163.22 -164.23,0 -315.34,10.3 -451.1,26.08 32.76,-39.41 51.14,-89.14 51.14,-140.99l0 -482.65c201.05,-96.63 806.74,-316.44 2149.46,-316.44 1342.19,0 1945.46,218.29 2149.46,316.91l0 482.18c0,52.79 18.96,103.49 52.88,143.27 -140.64,-17.12 -298.35,-28.36 -470.38,-28.36 -380.76,0 -761.39,54.91 -1131.38,163.22zm-2350.1 278.39c297.92,0 595.94,37.87 887.76,112.65 38.57,184.91 64.6,489.54 -66.73,680.03 -88.92,128.88 -244.28,197.51 -475.01,209.7 -174.33,9.21 -299.95,13.33 -407.41,13.33 -565.47,0 -767.94,-43.04 -819.55,-899.15 169.53,-48.46 479.3,-116.56 880.94,-116.56zm2593.63 112.65c291.83,-74.79 589.88,-112.65 887.79,-112.65 398.37,0 710.21,68.58 880.88,117 -51.64,855.65 -254.16,898.69 -819.52,898.69 -107.45,0 -233.11,-4.12 -407.41,-13.32 -230.73,-12.2 -386.09,-80.81 -475,-209.72 -131.36,-190.55 -105.22,-495.37 -66.74,-680zm-3067.33 3351.47c-345.49,-530.25 -449.48,-1055.21 -465.41,-1145.66l0 -1088.68c195.77,163.16 478.21,227.52 877.75,227.52 115.54,0 248.36,-4.3 430.69,-13.92 372.47,-19.69 647.22,-154.92 816.56,-401.87 64.47,-94.03 106.86,-196.82 133.8,-301.18 106.72,-36.74 312.21,-87.57 572.07,-56.15l0 839.19c0,48.7 -39.62,88.33 -88.32,88.33l-113.9 0c-48.71,0 -88.34,-39.63 -88.34,-88.33 0,-121.94 -98.81,-220.8 -220.79,-220.8 -121.98,0 -220.81,98.86 -220.81,220.8 0,292.21 237.74,529.94 529.94,529.94l113.89 0c284.55,0 516.81,-225.63 528.79,-507.3 0.74,-7.44 1.15,-14.98 1.15,-22.64l0 -431.07c171.17,214.65 432.73,332.81 778.75,351.11 182.29,9.62 315.16,13.93 430.69,13.93 0.06,0 -0.02,0 0.02,0 407.18,0 693.02,-66.54 889.19,-236.8l0 1097.89c-16.15,91.48 -120.24,615.94 -465.41,1145.72 -494.9,759.51 -1234.97,1177.2 -2199.66,1241.49l-41.06 0.01c-964.66,-64.33 -1704.76,-482.01 -2199.59,-1241.53zm-2042.13 5201.04c0,-2596.01 1899.75,-2626.3 1981.41,-2626.3l1127.65 0c64.98,336.74 274.19,622.56 560.59,790.6l-1491.36 869.07c-59.17,34.47 -98.98,94.48 -107.79,162.4 -8.8,67.91 14.39,136.08 62.86,184.5l745.88 745.87c41.66,41.68 97.92,64.68 156.14,64.68 9.41,0 18.92,-0.59 28.37,-1.83 67.95,-8.8 127.93,-48.63 162.43,-107.81l720.63 -1236.67 -411.4 1560.35c-4.21,15.89 -6.43,31.82 -7.04,47.57l-3528.37 0 0 -452.43zm3464.46 -1204.99l-475.62 816.24 -340.58 -340.62 816.2 -475.62z"/>
  <path class="fil5" d="M23220.01 16220.88l360.17 0c120.73,0 219.91,98.99 219.91,219.99l0 0.01c0,121 -99.18,219.99 -219.91,219.99l-360.17 0c-120.73,0 -219.92,-98.99 -219.92,-219.99l0 -0.01c0,-121 99.19,-219.99 219.92,-219.99zm-755.57 0.29l-220.75 0 0 -452.46c0,-1036.1 -276.31,-1835.78 -821.23,-2376.81 -683.01,-678.11 -1537.59,-691.1 -1599.32,-691.1 -1.06,0 -1.88,0.02 -2.47,0.02l-1106.17 0.01 0 -669.32c0,-11.66 -1.18,-23.05 -2.94,-34.24 524.29,-216.63 905.53,-540.36 1178.85,-865.59 127.69,184.78 340.86,306.16 581.99,306.16 357.27,0 653.24,-266.39 700.31,-610.94 56.48,10.73 114.26,16.56 172.95,16.56 508.84,0 922.87,-414.03 922.87,-922.92 0,-207.11 -71.13,-403.1 -192.13,-560.97 329.22,-169.91 554.97,-513.25 554.97,-908.55 0,-316.87 -144.96,-600.53 -372.08,-788.13 296.42,-206.24 490.96,-549.17 490.96,-936.84 0,-624.53 -504.37,-1133.48 -1127.2,-1140.76l-41.19 -4.85c-232.76,-581.69 -530.94,-1179.4 -1065.74,-1679.73 -713.72,-667.76 -1708.19,-1006.3 -2955.91,-1006.3 -5.12,0 -10.12,0.41 -15.15,0.76 -5.01,-0.35 -10.01,-0.76 -15.14,-0.76 -1247.72,0 -2242.2,338.54 -2955.85,1006.21 -534.79,500.32 -832.98,1098.02 -1065.74,1679.73l-41.18 4.86c-622.84,7.25 -1127.22,516.2 -1127.22,1140.74 0,387.68 194.52,730.61 490.96,936.84 -227.11,187.6 -372.07,471.23 -372.07,788.13 0,395.31 225.76,738.66 554.96,908.56 -121,157.86 -192.12,353.88 -192.12,560.97 0,508.89 414.02,922.91 922.88,922.91 58.67,0 116.46,-5.83 172.93,-16.56 47.08,344.56 343.06,610.94 700.32,610.94 238.12,0 448.91,-118.42 577.13,-299.36 272.91,322.94 652.56,643.67 1173.19,858.79 -1.76,11.19 -2.95,22.58 -2.95,34.24l0 669.31 -1104.55 0.01c-37.75,0.56 -908.81,1.51 -1603.39,691.1 -544.93,541.04 -821.22,1340.75 -821.22,2376.84l0 452.43 -50.82 0c-121.98,0 -220.81,98.87 -220.81,220.82 0,121.94 98.83,220.8 220.81,220.8l9679.26 0.01c121.98,0 220.81,-98.86 220.81,-220.8 0,-121.89 -98.86,-220.76 -220.81,-220.76z"/>
  <path class="fil7" d="M23220.01 16220.88l360.17 0c120.73,0 219.91,98.99 219.91,219.99l0 0.01c0,121 -99.18,219.99 -219.91,219.99l-360.17 0c-120.73,0 -219.92,-98.99 -219.92,-219.99l0 -0.01c0,-121 99.19,-219.99 219.92,-219.99zm-755.57 0.29l-220.75 0 0 -452.46c0,-1036.1 -276.31,-1835.78 -821.23,-2376.81 -683.01,-678.11 -1537.59,-691.1 -1599.32,-691.1 -1.06,0 -1.88,0.02 -2.47,0.02l-1106.17 0.01 0 -669.32c0,-11.66 -1.18,-23.05 -2.94,-34.24 524.29,-216.63 905.53,-540.36 1178.85,-865.59 127.69,184.78 340.86,306.16 581.99,306.16 357.27,0 653.24,-266.39 700.31,-610.94 56.48,10.73 114.26,16.56 172.95,16.56 508.84,0 922.87,-414.03 922.87,-922.92 0,-207.11 -71.13,-403.1 -192.13,-560.97 329.22,-169.91 554.97,-513.25 554.97,-908.55 0,-316.87 -144.96,-600.53 -372.08,-788.13 296.42,-206.24 490.96,-549.17 490.96,-936.84 0,-624.53 -504.37,-1133.48 -1127.2,-1140.76l-41.19 -4.85c-232.76,-581.69 -530.94,-1179.4 -1065.74,-1679.73 -713.72,-667.76 -1708.19,-1006.3 -2955.91,-1006.3 -5.12,0 -10.12,0.41 -15.15,0.76 -5.01,-0.35 -10.01,-0.76 -15.14,-0.76 -1247.72,0 -2242.2,338.54 -2955.85,1006.21 -534.79,500.32 -832.98,1098.02 -1065.74,1679.73l-41.18 4.86c-622.84,7.25 -1127.22,516.2 -1127.22,1140.74 0,387.68 194.52,730.61 490.96,936.84 -227.11,187.6 -372.07,471.23 -372.07,788.13 0,395.31 225.76,738.66 554.96,908.56 -121,157.86 -192.12,353.88 -192.12,560.97 0,508.89 414.02,922.91 922.88,922.91 58.67,0 116.46,-5.83 172.93,-16.56 47.08,344.56 343.06,610.94 700.32,610.94 238.12,0 448.91,-118.42 577.13,-299.36 272.91,322.94 652.56,643.67 1173.19,858.79 -1.76,11.19 -2.95,22.58 -2.95,34.24l0 669.31 -1104.55 0.01c-37.75,0.56 -908.81,1.51 -1603.39,691.1 -544.93,541.04 -821.22,1340.75 -821.22,2376.84l0 452.43 -50.82 0c-121.98,0 -220.81,98.87 -220.81,220.82 0,121.94 98.83,220.8 220.81,220.8l9679.26 0.01c121.98,0 220.81,-98.86 220.81,-220.8 0,-121.89 -98.86,-220.76 -220.81,-220.76zm-4003.1 -5818.78c0,-121.94 -98.83,-220.8 -220.81,-220.8l-1401.38 0c-121.98,0 -220.82,98.86 -220.82,220.8 0,121.94 98.84,220.8 220.82,220.8l1401.38 0.01c121.95,0 220.81,-98.86 220.81,-220.81zm909.37 -2797.93c0,-145.53 -117.98,-263.52 -263.52,-263.52 -145.55,0 -263.53,117.99 -263.53,263.52 0,145.55 117.98,263.53 263.53,263.53 145.54,0 263.52,-117.98 263.52,-263.53zm-3134.73 0c0,-145.53 -117.99,-263.52 -263.52,-263.52 -145.55,0 -263.53,117.99 -263.53,263.52 0,145.55 117.98,263.53 263.53,263.53 145.53,0 263.52,-117.98 263.52,-263.53zm3586.28 5537.95c5.59,-0.08 723.07,0.91 1289.04,562.84 458.37,455.08 690.78,1149.36 690.78,2063.46l0 452.46 -3500.31 0c-0.61,-15.78 -2.85,-31.71 -7.04,-47.6l-402.01 -1524.87 699.93 1201.19c34.51,59.18 94.48,99 162.43,107.81 9.49,1.24 18.96,1.82 28.38,1.82 58.21,0 114.48,-22.99 156.15,-64.68l745.86 -745.89c48.43,-48.42 71.66,-116.61 62.84,-184.53 -8.81,-67.92 -48.61,-127.92 -107.79,-162.39l-1499.82 -873.96c282.1,-168.7 487.73,-452.31 552.08,-785.73l1129.48 0 0 0.07zm-2282.6 78.19c276.4,0 530.62,-96.21 731.47,-256.57 -23.12,383.44 -342.28,688.39 -731.47,688.39 -389.17,0 -708.34,-304.95 -731.46,-688.39 200.82,160.39 455.06,256.57 731.46,256.57zm-726.22 -1076.62c209.36,53.14 436.73,90.3 684.3,106.34 4.77,0.29 9.5,0.47 14.27,0.47l55.56 0c4.76,0 9.51,-0.15 14.28,-0.47 247.46,-16.03 474.71,-53.17 683.97,-106.26 -48.07,357.95 -355.29,634.93 -726.18,634.93 -370.9,0 -678.11,-277.04 -726.2,-635.01zm740.36 2951.61l296.76 1125.55 -593.53 0 296.77 -1125.55zm800.49 -531.87l816.25 475.62 -340.6 340.62 -475.65 -816.24zm-3736.56 -3567.56c-146.35,0 -265.41,-119.06 -265.41,-265.44 0,-68.51 26.04,-133.55 73.25,-183.09 11.19,-11.72 20.7,-24.42 28.82,-37.71 1.54,-1.82 3.13,-3.55 4.66,-5.4 77.22,-94.38 63.29,-233.5 -31.09,-310.72 -94.37,-77.19 -233.48,-63.29 -310.73,31.09 -91.94,112.39 -227.81,176.86 -372.78,176.86 -265.38,0 -481.27,-215.9 -481.27,-481.3 0,-211.33 141.23,-401.05 343.45,-461.32 116.89,-34.83 183.4,-157.81 148.53,-274.68 -33.24,-111.61 -146.84,-177.12 -258.84,-152.42 -5.18,-0.36 -10.37,-0.8 -15.6,-0.8 -320,0 -580.35,-260.34 -580.35,-580.33 0,-320.01 260.35,-580.34 580.35,-580.34 121.96,0 220.8,-98.88 220.8,-220.82 0,-0.65 -0.09,-1.24 -0.09,-1.88 0,-0.64 0.09,-1.26 0.09,-1.88 0,-121.94 -98.84,-220.81 -220.8,-220.81 -385.57,0 -699.23,-313.66 -699.23,-699.22 0,-385.56 313.66,-699.23 699.23,-699.23 8.62,0 17.22,-0.49 25.78,-1.5l184.63 -21.72c81.26,-9.57 150.54,-63.24 180.1,-139.52 221.39,-571.28 496.28,-1165.45 1004.49,-1640.9 638.05,-596.89 1506.27,-887.05 2654.2,-887.05 5.12,0 10.13,-0.42 15.17,-0.77 5.03,0.35 10.03,0.77 15.16,0.77 1147.93,0 2016.11,290.16 2654.13,887.05 508.21,475.45 783.13,1069.62 1004.5,1640.9 29.55,76.28 98.83,129.95 180.09,139.52l184.63 21.72c8.57,1.01 17.16,1.5 25.79,1.5 385.56,0 699.23,313.67 699.23,699.23 0,385.56 -313.67,699.22 -699.23,699.22 -121.97,0 -220.81,98.87 -220.81,220.81 0,0.65 0.09,1.24 0.09,1.88 0,0.64 -0.09,1.24 -0.09,1.88 0,121.94 98.84,220.82 220.81,220.82 319.99,0 580.35,260.33 580.35,580.34 0,320.02 -260.36,580.33 -580.35,580.33 -5.3,0 -10.43,0.44 -15.61,0.8 -112.11,-24.7 -225.6,40.81 -258.84,152.42 -34.86,116.85 31.64,239.82 148.53,274.68 202.23,60.27 343.45,249.98 343.45,461.32 0,265.37 -215.89,481.3 -481.26,481.3 -144.98,0 -280.85,-64.45 -372.79,-176.86 -77.22,-94.41 -216.36,-108.28 -310.72,-31.09 -94.39,77.22 -108.32,216.34 -31.08,310.72 1.52,1.85 3.14,3.57 4.64,5.4 8.09,13.3 17.64,25.99 28.83,37.71 47.21,49.57 73.24,114.58 73.24,183.09 0,146.35 -119.06,265.44 -265.41,265.44 -146.38,0 -265.44,-119.06 -265.44,-265.44 0,-11.87 0.76,-23.79 2.32,-35.42 0.74,-5.56 1.04,-11.1 1.36,-16.63 365,-616.91 450.42,-1181.74 454.04,-1206.9 1.54,-10.52 2.3,-21.08 2.3,-31.68l0 -2374.81c4.59,-63.94 -18.52,-129.36 -68.83,-176.71l-464.27 -436.94 0 -513.5c0,-66.23 -29.72,-128.96 -80.98,-170.91 -57.65,-47.16 -617.91,-460.89 -2510.09,-460.89 -1892.17,0 -2452.43,413.73 -2510.07,460.89 -51.26,41.92 -80.99,104.68 -80.99,170.91l0 512.84 -468.77 436.84c-0.89,0.83 -1.62,1.74 -2.47,2.57 -3,2.86 -5.8,5.86 -8.63,8.89 -2.24,2.38 -4.51,4.79 -6.63,7.27 -2.44,2.86 -4.67,5.83 -6.97,8.81 -2.15,2.82 -4.35,5.62 -6.38,8.54 -1.98,2.87 -3.8,5.85 -5.63,8.82 -1.94,3.12 -3.95,6.21 -5.71,9.42 -1.74,3.09 -3.24,6.26 -4.8,9.43 -1.59,3.19 -3.24,6.42 -4.65,9.68 -1.51,3.38 -2.75,6.89 -4.06,10.39 -1.21,3.19 -2.45,6.32 -3.51,9.54 -1.18,3.65 -2.12,7.39 -3.11,11.12 -0.83,3.18 -1.77,6.36 -2.46,9.6 -0.78,3.66 -1.38,7.34 -1.99,11.07 -0.6,3.48 -1.19,6.97 -1.62,10.49 -0.42,3.43 -0.61,6.88 -0.85,10.38 -0.26,3.92 -0.54,7.83 -0.59,11.75 -0.03,1.27 -0.21,2.48 -0.21,3.77l0 2390.74c0,10.6 0.77,21.19 2.3,31.68 3.65,25.43 91,602.33 466.1,1227.01 1.28,10.54 2.1,21.22 2.1,31.94 -0.01,146.38 -119.09,265.44 -265.45,265.44zm3525.74 -4171c-69.9,20.47 -125.21,74.07 -147.82,143.32 -4.63,14.13 -59.36,185.98 -75.94,412.34 -309.24,-69.36 -578.28,-45.51 -771.47,-3.29 -16.88,-224.73 -71.07,-394.99 -75.67,-409.05 -22.61,-69.25 -77.92,-122.86 -147.82,-143.32 -369.99,-108.31 -750.63,-163.22 -1131.36,-163.22 -164.23,0 -315.34,10.3 -451.1,26.08 32.76,-39.41 51.14,-89.14 51.14,-140.99l0 -482.65c201.05,-96.63 806.74,-316.44 2149.46,-316.44 1342.19,0 1945.46,218.29 2149.46,316.91l0 482.18c0,52.79 18.96,103.49 52.88,143.27 -140.64,-17.12 -298.35,-28.36 -470.38,-28.36 -380.76,0 -761.39,54.91 -1131.38,163.22zm-2350.1 278.39c297.92,0 595.94,37.87 887.76,112.65 38.57,184.91 64.6,489.54 -66.73,680.03 -88.92,128.88 -244.28,197.51 -475.01,209.7 -174.33,9.21 -299.95,13.33 -407.41,13.33 -565.47,0 -767.94,-43.04 -819.55,-899.15 169.53,-48.46 479.3,-116.56 880.94,-116.56zm2593.63 112.65c291.83,-74.79 589.88,-112.65 887.79,-112.65 398.37,0 710.21,68.58 880.88,117 -51.64,855.65 -254.16,898.69 -819.52,898.69 -107.45,0 -233.11,-4.12 -407.41,-13.32 -230.73,-12.2 -386.09,-80.81 -475,-209.72 -131.36,-190.55 -105.22,-495.37 -66.74,-680zm-3067.33 3351.47c-345.49,-530.25 -449.48,-1055.21 -465.41,-1145.66l0 -1088.68c195.77,163.16 478.21,227.52 877.75,227.52 115.54,0 248.36,-4.3 430.69,-13.92 372.47,-19.69 647.22,-154.92 816.56,-401.87 64.47,-94.03 106.86,-196.82 133.8,-301.18 106.72,-36.74 312.21,-87.57 572.07,-56.15l0 839.19c0,48.7 -39.62,88.33 -88.32,88.33l-113.9 0c-48.71,0 -88.34,-39.63 -88.34,-88.33 0,-121.94 -98.81,-220.8 -220.79,-220.8 -121.98,0 -220.81,98.86 -220.81,220.8 0,292.21 237.74,529.94 529.94,529.94l113.89 0c284.55,0 516.81,-225.63 528.79,-507.3 0.74,-7.44 1.15,-14.98 1.15,-22.64l0 -431.07c171.17,214.65 432.73,332.81 778.75,351.11 182.29,9.62 315.16,13.93 430.69,13.93 0.06,0 -0.02,0 0.02,0 407.18,0 693.02,-66.54 889.19,-236.8l0 1097.89c-16.15,91.48 -120.24,615.94 -465.41,1145.72 -494.9,759.51 -1234.97,1177.2 -2199.66,1241.49l-41.06 0.01c-964.66,-64.33 -1704.76,-482.01 -2199.59,-1241.53zm-2042.13 5201.04c0,-2596.01 1899.75,-2626.3 1981.41,-2626.3l1127.65 0c64.98,336.74 274.19,622.56 560.59,790.6l-1491.36 869.07c-59.17,34.47 -98.98,94.48 -107.79,162.4 -8.8,67.91 14.39,136.08 62.86,184.5l745.88 745.87c41.66,41.68 97.92,64.68 156.14,64.68 9.41,0 18.92,-0.59 28.37,-1.83 67.95,-8.8 127.93,-48.63 162.43,-107.81l720.63 -1236.67 -411.4 1560.35c-4.21,15.89 -6.43,31.82 -7.04,47.57l-3528.37 0 0 -452.43zm3464.46 -1204.99l-475.62 816.24 -340.58 -340.62 816.2 -475.62z"/>
  <path class="fil4" d="M25454.22 10517.55c216.25,0 391.56,175.31 391.56,391.56 0,115.67 -50.16,219.6 -129.92,291.29l-0.01 456.23 2416.19 -0.01c107.13,0 193.99,86.86 193.99,193.98 0,44.64 -15.7,85.29 -41.06,118.06l1156.31 2317c18.24,36.55 22.96,76.11 16.85,113.52 0.64,7.31 0.94,14.68 0.24,22.25 -65.79,686.7 -644.27,1223.69 -1348.2,1223.69 -703.89,0 -1282.39,-536.99 -1348.16,-1223.69 -0.75,-7.57 -0.41,-14.94 0.23,-22.22 -6.1,-37.44 -1.38,-77.03 16.86,-113.59l1118.43 -2241.08 -2181.67 0 0 5053.68 1804.69 0.01c217.13,0 393.14,36 393.14,253.12 0,103.49 -83.91,187.39 -187.4,187.39l-4544.07 -0.01c-103.48,0 -187.38,-83.89 -187.38,-187.38 0,-217.13 176,-253.13 393.12,-253.13l1804.69 0.01 0 -5053.66 -2200.39 0 1137.12 2278.54c18.25,36.56 22.97,76.1 16.86,113.56 0.64,7.31 0.94,14.69 0.23,22.25 -65.77,686.71 -644.31,1223.69 -1348.2,1223.69 -703.89,0 -1282.37,-536.99 -1348.15,-1223.69 -0.74,-7.53 -0.41,-14.94 0.23,-22.2 -6.11,-37.51 -1.39,-77.05 16.85,-113.6l1167.96 -2340.35c-32.43,-34.68 -52.71,-80.93 -52.71,-132.17 0,-107.12 86.86,-193.98 193.99,-193.98l21.5 0 0.33 -0.68 0.34 0.68 2394.01 0.01 -0.04 -456.21c-79.75,-71.68 -129.93,-175.63 -129.93,-291.31 0,-216.25 175.31,-391.56 391.57,-391.56zm-3571.01 3810.66l915.03 -1833.54 915.02 1833.54 -1830.05 0zm5311.93 -37.46l915.03 -1833.53 915.02 1833.53 -1830.05 0z"/>
  <path class="fil8" d="M25554.22 10437.55c216.25,0 391.56,175.31 391.56,391.56 0,115.67 -50.16,219.6 -129.92,291.29l-0.01 456.23 2416.19 -0.01c107.13,0 193.99,86.86 193.99,193.98 0,44.64 -15.7,85.29 -41.06,118.06l1156.31 2317c18.24,36.55 22.96,76.11 16.85,113.52 0.64,7.31 0.94,14.68 0.24,22.25 -65.79,686.7 -644.27,1223.69 -1348.2,1223.69 -703.89,0 -1282.39,-536.99 -1348.16,-1223.69 -0.75,-7.57 -0.41,-14.94 0.23,-22.22 -6.1,-37.44 -1.38,-77.03 16.86,-113.59l1118.43 -2241.08 -2181.67 0 0 5053.68 1804.69 0.01c217.13,0 393.14,36 393.14,253.12 0,103.49 -83.91,187.39 -187.4,187.39l-4544.07 -0.01c-103.48,0 -187.38,-83.89 -187.38,-187.38 0,-217.13 176,-253.13 393.12,-253.13l1804.69 0.01 0 -5053.66 -2200.39 0 1137.12 2278.54c18.25,36.56 22.97,76.1 16.86,113.56 0.64,7.31 0.94,14.69 0.23,22.25 -65.77,686.71 -644.31,1223.69 -1348.2,1223.69 -703.89,0 -1282.37,-536.99 -1348.15,-1223.69 -0.74,-7.53 -0.41,-14.94 0.23,-22.2 -6.11,-37.51 -1.39,-77.05 16.85,-113.6l1167.96 -2340.35c-32.43,-34.68 -52.71,-80.93 -52.71,-132.17 0,-107.12 86.86,-193.98 193.99,-193.98l21.5 0 0.33 -0.68 0.34 0.68 2394.01 0.01 -0.04 -456.21c-79.75,-71.68 -129.93,-175.63 -129.93,-291.31 0,-216.25 175.31,-391.56 391.57,-391.56zm-3571.01 3810.66l915.03 -1833.54 915.02 1833.54 -1830.05 0zm5311.93 -37.46l915.03 -1833.53 915.02 1833.53 -1830.05 0z"/>
 </g>
</svg>
