<?xml version="1.0" encoding="UTF-8"?>
<!DOCTYPE svg PUBLIC "-//W3C//DTD SVG 1.1//EN" "http://www.w3.org/Graphics/SVG/1.1/DTD/svg11.dtd">
<!-- Creator: CorelDRAW 2018 (64-Bit) -->
<svg xmlns="http://www.w3.org/2000/svg" xml:space="preserve" width="297mm" height="210mm" version="1.1" style="shape-rendering:geometricPrecision; text-rendering:geometricPrecision; image-rendering:optimizeQuality; fill-rule:evenodd; clip-rule:evenodd"
viewBox="0 0 29700 21000"
 xmlns:xlink="http://www.w3.org/1999/xlink">
 <defs>
  <style type="text/css">
   <![CDATA[
    .fil3 {fill:#FEFEFE}
    .fil4 {fill:#343743}
    .fil13 {fill:#9AFBDB}
    .fil12 {fill:#D4B4FD}
    .fil11 {fill:#D8D2E1}
    .fil7 {fill:#DE749B}
    .fil6 {fill:#EADAFE}
    .fil10 {fill:#EFC7D7}
    .fil5 {fill:#F4D5E1}
    .fil0 {fill:#F8F4FF}
    .fil15 {fill:white}
    .fil8 {fill:#343743;fill-rule:nonzero}
    .fil9 {fill:white;fill-rule:nonzero}
    .fil2 {fill:#343743;fill-opacity:0.149020}
    .fil1 {fill:#343743;fill-opacity:0.149020}
    .fil14 {fill:#EADAFE}
   ]]>
  </style>
 </defs>
 <g id="Слой_x0020_1">
  <metadata id="CorelCorpID_0Corel-Layer"/>
  <path class="fil0" d="M7420.3 6217.37c938.16,0 1745.98,240.41 2670.96,240.41 2518.78,0 4828.51,-1270.22 6189.12,-3353.34 1340.78,-1866.06 3529.7,-3081.69 6002.88,-3081.69 4079.92,0 7387.35,3307.43 7387.35,7387.35 0,4079.92 -3307.43,7387.35 -7387.35,7387.35 -902.49,0 -1756.92,-212.03 -2667,-212.03 -2576.38,0 -4844.3,1319.19 -6166.27,3318.63l-12.08 -13.48c-1339.51,1877.39 -3535.56,3101.54 -6017.61,3101.54 -4079.93,0 -7387.37,-3307.44 -7387.37,-7387.37 0,-4079.93 3307.44,-7387.37 7387.37,-7387.37z"/>
  <path class="fil1" d="M21061.44 10315.37l-2706.09 -2675.22c327.22,-567.03 497.74,-1142.55 497.74,-1800.28 0,-1950.76 -1592.79,-3504.43 -3504.53,-3504.43 -1942.41,0 -3504.43,1582.39 -3504.43,3504.43 0,1970.73 1553.58,3504.54 3504.42,3504.54 657.58,0 1233.2,-170.54 1800.15,-497.61l2706.09 2675.21c328.19,328.19 866.24,329.38 1195.93,10.74 338.23,-338.91 352.19,-875.65 10.72,-1217.38z"/>
  <path class="fil2" d="M18639 5787.44l-12360.73 0c-467.95,0 -848.67,380.71 -848.67,848.67l0 8534.21c0,467.96 380.72,848.67 848.67,848.67l4235.55 0.01 0 617.51c0,566.09 -460.57,1026.66 -1026.66,1026.66l-933.46 0c-178.96,0 -324.07,145.09 -324.07,324.07 2.65,69.18 14.26,66.37 193.22,66.37l8071.72 0.02c178.96,0 191.72,0.14 193.03,-66.39 0,-178.99 -145.12,-324.08 -324.08,-324.08l-933.49 0.01c-566.08,0 -1026.65,-460.57 -1026.65,-1026.66l0 -617.48 4235.54 0c467.95,0 848.7,-380.72 848.7,-848.67l0 -8534.25c0.06,-467.96 -380.66,-848.67 -848.62,-848.67z"/>
  <path class="fil3" d="M18939 5507.44l-12360.73 0c-467.95,0 -848.67,380.71 -848.67,848.67l0 8534.21c0,467.96 380.72,848.67 848.67,848.67l4235.55 0.01 0 617.51c0,566.09 -460.57,1026.66 -1026.66,1026.66l-933.46 0c-178.96,0 -324.07,145.09 -324.07,324.07 2.65,69.18 14.26,66.37 193.22,66.37l8071.72 0.02c178.96,0 191.72,0.14 193.03,-66.39 0,-178.99 -145.12,-324.08 -324.08,-324.08l-933.49 0.01c-566.08,0 -1026.65,-460.57 -1026.65,-1026.66l0 -617.48 4235.54 0c467.95,0 848.7,-380.72 848.7,-848.67l0 -8534.25c0.06,-467.96 -380.66,-848.67 -848.62,-848.67z"/>
  <path class="fil4" d="M6578.27 5896.9c-252.95,0 -459.21,206.26 -459.21,459.21l0 8534.21c0,252.95 206.26,459.21 459.21,459.21l0 1.52c4120.06,0.01 8239.59,-1.48 12360.65,-1.48 252.94,0 459.24,-206.26 459.24,-459.21l0 -8534.36c0,-251.76 -207.06,-459.05 -459.06,-459.07 -1.65,0.06 -11330.78,-0.03 -12360.83,-0.03zm4625.01 9842.1l0 617.51c0,390.56 -158.79,744.62 -415.15,1000.97 -9.54,9.54 -19.23,18.93 -29.04,28.2l3999.02 0c-9.81,-9.27 -19.51,-18.66 -29.05,-28.2 -256.35,-256.35 -415.14,-610.43 -415.14,-1000.97l0 -617.48 0 -0.03 -3110.64 0zm7735.72 -10231.56l-12360.73 0c-467.95,0 -848.67,380.71 -848.67,848.67l0 8534.21c0,467.96 380.72,848.67 848.67,848.67l4235.55 0.01 0 617.51c0,566.09 -460.57,1026.66 -1026.66,1026.66l-933.46 0c-178.96,0 -324.07,145.09 -324.07,324.07 2.65,69.18 14.26,66.37 193.22,66.37l8071.72 0.02c178.96,0 191.72,0.14 193.03,-66.39 0,-178.99 -145.12,-324.08 -324.08,-324.08l-933.49 0.01c-566.08,0 -1026.65,-460.57 -1026.65,-1026.66l0 -617.48 4235.54 0c467.95,0 848.7,-380.72 848.7,-848.67l0 -8534.25c0.06,-467.96 -380.66,-848.67 -848.62,-848.67z"/>
  <path class="fil4" d="M5729.6 13452.4l14058.02 0 0 389.27 -14058.02 0 0 -389.27zm0 0z"/>
  <path class="fil4" d="M12759.03 14300.89c140.74,0 254.84,114.09 254.84,254.84 0,140.75 -114.1,254.84 -254.84,254.84 -140.74,0 -254.84,-114.09 -254.84,-254.84 0,-140.75 114.1,-254.84 254.84,-254.84z"/>
  <path class="fil4" d="M7338.88 7235.45l10864.32 0c107.07,0 194.65,87.58 194.65,194.64l0 0.02c0,107.06 -87.58,194.64 -194.65,194.64l-10864.32 0c-107.07,0 -194.65,-87.58 -194.65,-194.64l0 -0.02c0,-107.06 87.58,-194.64 194.65,-194.64z"/>
  <path class="fil5" d="M4801.24 17041.22l0 0c78.89,0 143.43,64.54 143.43,143.42l0 286.83 286.81 0c78.88,0 143.42,64.53 143.42,143.41l0 0c0,78.88 -64.54,143.41 -143.42,143.41l-286.81 0 0 286.82c0,78.88 -64.54,143.43 -143.43,143.43l0 0c-78.86,0 -143.4,-64.55 -143.4,-143.43l0 -286.82 -286.83 0c-78.89,0 -143.43,-64.53 -143.43,-143.41l0 0c0,-78.88 64.54,-143.41 143.43,-143.41l286.83 0 0 -286.83c0,-78.88 64.54,-143.42 143.4,-143.42z"/>
  <path class="fil6" d="M25849.92 9092.12l0 0c103.41,0 188.01,84.6 188.01,187.99l0 375.98 375.96 0c103.39,0 187.99,84.6 187.99,187.99l0 0c0,103.39 -84.6,187.99 -187.99,187.99l-375.96 0 0 375.96c0,103.4 -84.6,188.01 -188.01,188.01l0 0c-103.38,0 -187.97,-84.61 -187.97,-188.01l0 -375.96 -375.98 0c-103.41,0 -188.01,-84.6 -188.01,-187.99l0 0c0,-103.39 84.6,-187.99 188.01,-187.99l375.98 0 0 -375.98c0,-103.39 84.59,-187.99 187.97,-187.99z"/>
  <path class="fil7" d="M3694.19 936.01c1063.8,0 1926.18,862.38 1926.18,1926.18 0,1063.8 -862.38,1926.18 -1926.18,1926.18 -1063.8,0 -1926.18,-862.38 -1926.18,-1926.18 0,-1063.8 862.38,-1926.18 1926.18,-1926.18z"/>
  <g>
   <path class="fil8" d="M5286.44 2119.72c-39.52,-84.75 -2.86,-185.51 81.89,-225.03 84.75,-39.52 185.51,-2.86 225.03,81.89l-306.92 143.14zm503.26 742.47l-338.66 0 0 0 -0.16 -24.05 -0.5 -24.01 -0.82 -23.99 -1.15 -23.99 -1.46 -23.92 -1.81 -23.88 -2.13 -23.9 -2.44 -23.82 -2.77 -23.78 -3.09 -23.72 -3.42 -23.66 -3.74 -23.63 -4.06 -23.58 -4.38 -23.51 -4.7 -23.45 -5.02 -23.39 -5.32 -23.29 -5.66 -23.22 -5.96 -23.16 -6.29 -23.06 -6.59 -23 -6.91 -22.9 -7.23 -22.84 -7.54 -22.73 -7.84 -22.61 -8.15 -22.48 -8.49 -22.46 -8.77 -22.32 -9.09 -22.19 -9.4 -22.11 -9.69 -21.96 -10.02 -21.86 306.92 -143.14 11.94 26.06 11.59 26.24 11.2 26.33 10.85 26.51 10.47 26.62 10.09 26.7 9.75 26.9 9.36 27.01 8.98 27.09 8.61 27.2 8.25 27.32 7.87 27.42 7.49 27.52 7.12 27.62 6.74 27.72 6.36 27.81 5.98 27.87 5.6 27.97 5.22 28.03 4.84 28.1 4.46 28.17 4.08 28.26 3.69 28.32 3.31 28.36 2.92 28.42 2.53 28.42 2.15 28.54 1.76 28.56 1.37 28.57 0.98 28.63 0.58 28.65 0.2 28.67 0 0zm-2095.51 2095.51l0 -338.66 0 0 90.58 -2.29 89.29 -6.79 87.92 -11.17 86.48 -15.45 84.94 -19.6 83.31 -23.67 81.57 -27.59 79.73 -31.44 77.77 -35.16 75.72 -38.79 73.57 -42.3 71.29 -45.7 68.88 -48.98 66.4 -52.19 63.78 -55.25 61.05 -58.2 58.2 -61.05 55.25 -63.78 52.19 -66.4 48.98 -68.88 45.7 -71.29 42.3 -73.57 38.79 -75.72 35.16 -77.77 31.44 -79.73 27.59 -81.57 23.67 -83.31 19.6 -84.94 15.45 -86.48 11.17 -87.92 6.79 -89.29 2.29 -90.58 338.66 0 -2.73 107.66 -8.07 106.35 -13.33 104.88 -18.43 103.22 -23.42 101.44 -28.25 99.51 -32.97 97.43 -37.54 95.21 -41.98 92.87 -46.29 90.38 -50.46 87.75 -54.5 85.03 -58.42 82.14 -62.19 79.14 -65.83 76 -69.36 72.73 -72.73 69.36 -76 65.83 -79.14 62.19 -82.14 58.42 -85.03 54.5 -87.75 50.46 -90.38 46.29 -92.87 41.98 -95.21 37.54 -97.43 32.97 -99.51 28.25 -101.44 23.42 -103.22 18.43 -104.88 13.33 -106.35 8.07 -107.66 2.73 0 0zm-2095.51 -2095.51l338.66 0 0 0 2.29 90.58 6.79 89.29 11.17 87.92 15.45 86.48 19.6 84.94 23.67 83.31 27.59 81.57 31.44 79.73 35.16 77.77 38.79 75.72 42.3 73.57 45.7 71.29 48.98 68.88 52.19 66.4 55.25 63.78 58.19 61.05 61.06 58.2 63.78 55.25 66.4 52.19 68.88 48.98 71.29 45.7 73.57 42.3 75.72 38.79 77.77 35.16 79.73 31.44 81.57 27.59 83.31 23.67 84.94 19.6 86.48 15.45 87.92 11.17 89.29 6.79 90.58 2.29 0 338.66 -107.66 -2.73 -106.35 -8.07 -104.88 -13.33 -103.22 -18.43 -101.44 -23.42 -99.51 -28.25 -97.43 -32.97 -95.21 -37.54 -92.87 -41.98 -90.38 -46.29 -87.75 -50.46 -85.03 -54.5 -82.14 -58.42 -79.14 -62.19 -76 -65.83 -72.74 -69.36 -69.35 -72.73 -65.83 -76 -62.19 -79.14 -58.42 -82.14 -54.5 -85.03 -50.46 -87.75 -46.29 -90.38 -41.98 -92.87 -37.54 -95.21 -32.97 -97.43 -28.25 -99.51 -23.42 -101.44 -18.43 -103.22 -13.33 -104.88 -8.07 -106.35 -2.73 -107.66 0 0zm2095.51 -2095.51l0 338.66 0 0 -90.58 2.29 -89.29 6.79 -87.92 11.17 -86.48 15.45 -84.94 19.6 -83.31 23.67 -81.57 27.59 -79.73 31.44 -77.77 35.16 -75.72 38.79 -73.57 42.3 -71.29 45.7 -68.88 48.98 -66.4 52.19 -63.79 55.25 -61.05 58.19 -58.19 61.05 -55.25 63.79 -52.19 66.4 -48.98 68.88 -45.7 71.29 -42.3 73.57 -38.79 75.72 -35.16 77.77 -31.44 79.73 -27.59 81.57 -23.67 83.31 -19.6 84.94 -15.45 86.48 -11.17 87.92 -6.79 89.29 -2.29 90.58 -338.66 0 2.73 -107.66 8.07 -106.35 13.33 -104.88 18.43 -103.22 23.42 -101.44 28.25 -99.51 32.97 -97.43 37.54 -95.21 41.98 -92.87 46.29 -90.38 50.46 -87.75 54.5 -85.03 58.42 -82.14 62.19 -79.14 65.83 -75.99 69.35 -72.75 72.75 -69.35 75.99 -65.83 79.14 -62.19 82.14 -58.42 85.03 -54.5 87.75 -50.46 90.38 -46.29 92.87 -41.98 95.21 -37.54 97.43 -32.97 99.51 -28.25 101.44 -23.42 103.22 -18.43 104.88 -13.33 106.35 -8.07 107.66 -2.73 0 0zm1201.93 378.96l-194.24 277.42 -27.85 -19.1 -28.18 -18.54 -28.49 -17.99 -28.79 -17.39 -29.11 -16.84 -29.36 -16.26 -29.64 -15.66 -29.93 -15.11 -30.16 -14.5 -30.47 -13.93 -30.68 -13.35 -30.89 -12.73 -31.16 -12.16 -31.34 -11.55 -31.57 -10.94 -31.79 -10.36 -31.95 -9.74 -32.13 -9.14 -32.3 -8.51 -32.5 -7.92 -32.63 -7.29 -32.79 -6.67 -32.91 -6.06 -33.03 -5.41 -33.19 -4.8 -33.29 -4.17 -33.38 -3.54 -33.48 -2.89 -33.57 -2.26 -33.62 -1.61 -33.73 -0.97 -33.78 -0.33 0 -338.66 40.28 0.39 40.19 1.15 40.16 1.93 40.03 2.7 39.94 3.45 39.84 4.22 39.69 4.97 39.55 5.72 39.43 6.47 39.27 7.22 39.09 7.95 38.93 8.71 38.72 9.42 38.56 10.17 38.35 10.9 38.11 11.62 37.87 12.34 37.65 13.06 37.42 13.79 37.12 14.48 36.91 15.21 36.58 15.91 36.27 16.59 36.04 17.32 35.69 18.01 35.38 18.7 35.04 19.4 34.67 20.06 34.35 20.77 33.97 21.43 33.6 22.1 33.23 22.8zm0 0c76.6,53.63 95.22,159.23 41.59,235.83 -53.63,76.6 -159.23,95.22 -235.83,41.59l194.24 -277.42z"/>
  </g>
  <path class="fil9" d="M4310.01 3758.69c0,40.5 -14.94,74.73 -44.84,102.69 -29.89,27.97 -67.01,41.95 -111.37,41.95l-951.72 0c-48.22,0 -87.27,-14.95 -117.16,-44.84 -29.89,-29.89 -44.84,-67.01 -44.84,-111.37 0,-19.29 0.97,-40.02 2.89,-62.19 1.93,-22.18 7.72,-42.91 17.36,-62.2 54,-121.5 125.35,-230.46 214.07,-326.88 88.71,-96.43 182.24,-190.93 280.6,-283.5 44.35,-42.42 92.08,-85.82 143.19,-130.17 51.1,-44.36 97.87,-91.12 140.3,-140.3 42.43,-49.18 77.62,-101.25 105.58,-156.21 27.97,-54.96 41.95,-113.3 41.95,-175.01 0,-88.72 -26.52,-163.93 -79.55,-225.64 -53.04,-61.71 -131.62,-92.57 -235.76,-92.57 -52.07,0 -98.84,4.34 -140.3,13.02 -41.47,8.68 -81.48,20.73 -120.05,36.16 -32.79,15.43 -64.13,32.78 -94.02,52.07 -29.89,19.28 -61.23,28.92 -94.01,28.92 -38.57,0 -73.77,-13.01 -105.59,-39.05 -31.82,-26.03 -47.73,-60.26 -47.73,-102.69 0,-44.36 21.21,-83.41 63.64,-117.16 42.43,-33.75 94.98,-62.19 157.66,-85.34 62.67,-23.14 128.73,-40.49 198.15,-52.07 69.43,-11.57 131.14,-17.35 185.14,-17.35 98.35,0 186.1,14.94 263.24,44.84 77.14,29.89 142.71,70.39 196.71,121.49 54,51.11 94.98,111.37 122.95,180.8 27.96,69.43 41.94,143.68 41.94,222.74 0,121.5 -20.73,225.16 -62.19,310.98 -41.47,85.82 -94.02,162.48 -157.66,229.97 -54,57.86 -110.89,114.75 -170.67,170.68 -59.79,55.93 -118.61,111.85 -176.46,167.78 -57.86,55.93 -112.82,112.82 -164.89,170.67 -52.07,57.86 -96.43,119.57 -133.07,185.14l720.3 0c44.36,0 81.48,13.98 111.37,41.95 29.9,27.96 44.84,62.19 44.84,102.69z"/>
  <path class="fil10" d="M23027.69 11837.13c165.69,0 300,134.31 300,300 0,165.69 -134.31,300 -300,300 -165.69,0 -300,-134.31 -300,-300 0,-165.69 134.31,-300 300,-300z"/>
  <path class="fil6" d="M10010.19 3752.68c110.46,0 200,89.54 200,200 0,110.46 -89.54,200 -200,200 -110.46,0 -200,-89.54 -200,-200 0,-110.46 89.54,-200 200,-200z"/>
  <path class="fil7" d="M7344.14 6693.32c110.45,0 200,-89.54 200,-200 0,-110.46 -89.55,-200 -200,-200 -110.45,0 -200,89.54 -200,200 0,110.46 89.55,200 200,200z"/>
  <path class="fil11" d="M8024.14 6693.32c110.45,0 200,-89.54 200,-200 0,-110.46 -89.55,-200 -200,-200 -110.45,0 -200,89.54 -200,200 0,110.46 89.55,200 200,200z"/>
  <path class="fil12" d="M8724.14 6693.32c110.45,0 200,-89.54 200,-200 0,-110.46 -89.55,-200 -200,-200 -110.45,0 -200,89.54 -200,200 0,110.46 89.55,200 200,200z"/>
  <path class="fil13" d="M11214.35 8430.83l3100.02 0c110,0 199.99,90 199.99,200.01l0 1999.99c0,110.01 -89.99,200 -199.99,200l-3100.02 0c-110,0 -199.99,-89.99 -199.99,-200l0 -1999.99c0,-110.01 89.99,-200.01 199.99,-200.01z"/>
  <path class="fil13" d="M7344.27 8430.82l3100.02 0c110,0 199.99,90 199.99,200.01l0 1999.99c0,110.01 -89.99,200 -199.99,200l-3100.02 0c-110,0 -199.99,-89.99 -199.99,-200l0 -1999.99c0,-110.01 89.99,-200.01 199.99,-200.01z"/>
  <path class="fil13" d="M15094.91 8430.83l3100.02 0c110,0 199.99,90 199.99,200.01l0 1999.99c0,110.01 -89.99,200 -199.99,200l-3100.02 0c-110,0 -199.99,-89.99 -199.99,-200l0 -1999.99c0,-110.01 89.99,-200.01 199.99,-200.01z"/>
  <path class="fil13" d="M11214.35 11210.83l3100.02 0c110,0 199.99,90 199.99,200l0 2041.57 -3500 0 0 -2041.57c0,-110 89.99,-200 199.99,-200z"/>
  <path class="fil13" d="M7344.27 11210.82l3100.02 0c110,0 199.99,90 199.99,200l0 2041.58 -3500 0 0 -2041.58c0,-110 89.99,-200 199.99,-200z"/>
  <path class="fil13" d="M15094.91 11210.83l3100.02 0c110,0 199.99,90 199.99,200l0 2041.57 -3500 0 0 -2041.57c0,-110 89.99,-200 199.99,-200z"/>
  <path id="_2" class="fil14" d="M23675.07 1338.1c1378.98,0 2507.25,1072.66 2596.41,2429.09l-521.8 0c-88.05,-1068.71 -983.19,-1908.63 -2074.61,-1908.63 -1149.77,0 -2081.84,932.07 -2081.84,2081.83 0,1144.38 923.38,2072.94 2065.7,2081.64 5.32,0.49 10.69,0.75 16.14,0.75 95.81,0 173.48,-77.68 173.48,-173.49 0,-95.82 -77.67,-173.5 -173.48,-173.5l-0.01 0 0 -0.54c-958.14,0 -1734.85,-776.72 -1734.85,-1734.86 0,-958.13 776.72,-1734.85 1734.86,-1734.85 899.67,0 1639.35,684.84 1726.27,1561.65l-524.22 0c-84.08,-588.64 -590.17,-1041.2 -1202.05,-1041.2 -670.7,0 -1214.41,543.71 -1214.41,1214.4 0,665.5 535.33,1205.87 1198.85,1214.21 9.95,0.89 19.87,0.93 29.83,0.12 56.08,-0.66 112.05,-5.2 167.51,-13.6 91.96,-4.33 165.19,-80.25 165.19,-173.29 0,-95.81 -77.67,-173.48 -173.49,-173.48 -7.72,0 -15.32,0.5 -22.78,1.48l0 0c-49.73,8.77 -100.21,12.49 -150.7,12.49l-0.01 0c-479.07,-0.01 -867.42,-388.37 -867.42,-867.44 0,-479.06 388.36,-867.43 867.43,-867.43 419.57,0 769.56,297.91 850.01,693.74l-850.03 0c-95.4,0 -173.47,78.06 -173.47,173.48l0 0.01c0,95.41 78.07,173.48 173.47,173.48l2775.81 0c95.39,0 173.47,-78.07 173.47,-173.48l0 -0.01 -0.01 -0.28 0.01 0c0,-1628.83 -1320.43,-2949.26 -2949.26,-2949.26 -1628.84,0 -2949.27,1320.43 -2949.27,2949.26 0,1628.84 1320.43,2949.27 2949.26,2949.27l0 -346.97c-1437.21,-0.01 -2602.29,-1165.09 -2602.29,-2602.3 0,-1437.2 1165.09,-2602.29 2602.3,-2602.29zm3469.72 3123.3l0 0c95.42,0 173.48,78.07 173.48,173.47l0 2081.85c0,95.4 -78.06,173.48 -173.48,173.48l0 0c-95.42,0 -173.49,-78.08 -173.49,-173.48l0 -2081.85c0,-95.4 78.07,-173.47 173.49,-173.47zm-847.39 2131.96l-0.01 -0.03c40.63,-31.75 66.75,-81.21 66.75,-136.76 0,-95.81 -77.67,-173.49 -173.49,-173.49 -45.2,0 -86.37,17.31 -117.23,45.64l-0.64 -0.75c-192.66,139.97 -424.69,215.36 -662.82,215.36l0 346.98c318.95,0 629.27,-103.43 884.47,-294.71l0.05 -0.02 2.92 -2.22zm326.88 -917.46l0.06 0c0,-670.7 -543.7,-1214.4 -1214.42,-1214.4 -670.72,0 -1214.41,543.7 -1214.41,1214.4 0,670.69 543.69,1214.41 1214.41,1214.41l0 -346.98c-419.68,0 -769.7,-298 -850.06,-693.94l1890.95 0c95.41,0 173.47,-78.08 173.47,-173.49zm-2064.42 -173.49c80.37,-395.93 430.4,-693.93 850.06,-693.93 419.66,0 769.7,298 850.07,693.93l-1700.13 0zm2584.93 -1732.79c95.82,0 173.48,77.66 173.48,173.48 0,95.81 -77.66,173.49 -173.48,173.49 -95.82,0 -173.49,-77.68 -173.49,-173.49 0,-95.82 77.67,-173.48 173.49,-173.48zm-3122.76 2751.77c95.81,0 173.48,77.67 173.48,173.48 0,92.94 -73.07,168.8 -164.9,173.28 -117.97,14.33 -236.7,21.51 -355.54,21.51l0 -346.97c106.01,0 212,-5.83 317.22,-18.75l0 0c9.66,-1.67 19.6,-2.55 29.74,-2.55z"/>
  <path id="_2_0" class="fil13" d="M23715.07 1278.1c1378.98,0 2507.25,1072.66 2596.41,2429.09l-521.8 0c-88.05,-1068.71 -983.19,-1908.63 -2074.61,-1908.63 -1149.77,0 -2081.84,932.07 -2081.84,2081.83 0,1144.38 923.38,2072.94 2065.7,2081.64 5.32,0.49 10.69,0.75 16.14,0.75 95.81,0 173.48,-77.68 173.48,-173.49 0,-95.82 -77.67,-173.5 -173.48,-173.5l-0.01 0 0 -0.54c-958.14,0 -1734.85,-776.72 -1734.85,-1734.86 0,-958.13 776.72,-1734.85 1734.86,-1734.85 899.67,0 1639.35,684.84 1726.27,1561.65l-524.22 0c-84.08,-588.64 -590.17,-1041.2 -1202.05,-1041.2 -670.7,0 -1214.41,543.71 -1214.41,1214.4 0,665.5 535.33,1205.87 1198.85,1214.21 9.95,0.89 19.87,0.93 29.83,0.12 56.08,-0.66 112.05,-5.2 167.51,-13.6 91.96,-4.33 165.19,-80.25 165.19,-173.29 0,-95.81 -77.67,-173.48 -173.49,-173.48 -7.72,0 -15.32,0.5 -22.78,1.48l0 0c-49.73,8.77 -100.21,12.49 -150.7,12.49l-0.01 0c-479.07,-0.01 -867.42,-388.37 -867.42,-867.44 0,-479.06 388.36,-867.43 867.43,-867.43 419.57,0 769.56,297.91 850.01,693.74l-850.03 0c-95.4,0 -173.47,78.06 -173.47,173.48l0 0.01c0,95.41 78.07,173.48 173.47,173.48l2775.81 0c95.39,0 173.47,-78.07 173.47,-173.48l0 -0.01 -0.01 -0.28 0.01 0c0,-1628.83 -1320.43,-2949.26 -2949.26,-2949.26 -1628.84,0 -2949.27,1320.43 -2949.27,2949.26 0,1628.84 1320.43,2949.27 2949.26,2949.27l0 -346.97c-1437.21,-0.01 -2602.29,-1165.09 -2602.29,-2602.3 0,-1437.2 1165.09,-2602.29 2602.3,-2602.29zm346.96 5183.29c95.81,0 173.48,77.67 173.48,173.48 0,92.94 -73.07,168.8 -164.9,173.28 -117.97,14.33 -236.7,21.51 -355.54,21.51l0 -346.97c106.01,0 212,-5.83 317.22,-18.75l0 0c9.66,-1.67 19.6,-2.55 29.74,-2.55z"/>
  <path id="i" class="fil15" d="M27184.79 4401.4l0 0c95.42,0 173.48,78.07 173.48,173.47l0 2081.85c0,95.4 -78.06,173.48 -173.48,173.48l0 0c-95.42,0 -173.49,-78.08 -173.49,-173.48l0 -2081.85c0,-95.4 78.07,-173.47 173.49,-173.47zm-847.39 2131.96l-0.01 -0.03c40.63,-31.75 66.75,-81.21 66.75,-136.76 0,-95.81 -77.67,-173.49 -173.49,-173.49 -45.2,0 -86.37,17.31 -117.23,45.64l-0.64 -0.75c-192.66,139.97 -424.69,215.36 -662.82,215.36l0 346.98c318.95,0 629.27,-103.43 884.47,-294.71l0.05 -0.02 2.92 -2.22zm326.88 -917.46l0.06 0c0,-670.7 -543.7,-1214.4 -1214.42,-1214.4 -670.72,0 -1214.41,543.7 -1214.41,1214.4 0,670.69 543.69,1214.41 1214.41,1214.41l0 -346.98c-419.68,0 -769.7,-298 -850.06,-693.94l1890.95 0c95.41,0 173.47,-78.08 173.47,-173.49zm-2064.42 -173.49c80.37,-395.93 430.4,-693.93 850.06,-693.93 419.66,0 769.7,298 850.07,693.93l-1700.13 0zm2584.93 -1732.79c95.82,0 173.48,77.66 173.48,173.48 0,95.81 -77.66,173.49 -173.48,173.49 -95.82,0 -173.49,-77.68 -173.49,-173.49 0,-95.82 77.67,-173.48 173.49,-173.48z"/>
  <path class="fil15" d="M21381.44 10195.37l-2706.09 -2675.22c327.22,-567.03 497.74,-1142.55 497.74,-1800.28 0,-1950.76 -1592.79,-3504.43 -3504.53,-3504.43 -1942.41,0 -3504.43,1582.39 -3504.43,3504.43 0,1970.73 1553.58,3504.54 3504.42,3504.54 657.58,0 1233.2,-170.54 1800.15,-497.61l2706.09 2675.21c328.19,328.19 866.24,329.38 1195.93,10.74 338.23,-338.91 352.19,-875.65 10.72,-1217.38z"/>
  <path class="fil12" d="M21381.44 10195.37l-2706.09 -2675.22c327.22,-567.03 497.74,-1142.55 497.74,-1800.28 0,-1950.76 -1592.79,-3504.43 -3504.53,-3504.43 -1942.41,0 -3504.43,1582.39 -3504.43,3504.43 0,1970.73 1553.58,3504.54 3504.42,3504.54 657.58,0 1233.2,-170.54 1800.15,-497.61l2706.09 2675.21c328.19,328.19 866.24,329.38 1195.93,10.74 338.23,-338.91 352.19,-875.65 10.72,-1217.38z"/>
  <path class="fil15" d="M15656.31 3580.38c1187.42,0 2150,962.59 2150,2150 0,1187.41 -962.58,2150 -2150,2150 -1187.42,0 -2150,-962.59 -2150,-2150 0,-1187.41 962.58,-2150 2150,-2150z"/>
  <path class="fil4" d="M15668.55 8065.52c1286.16,0 2345.65,-1044.86 2345.65,-2345.65 0,-1286.15 -1044.83,-2345.67 -2345.65,-2345.67 -1300.76,0 -2345.66,1059.57 -2345.66,2345.67 0,1300.79 1059.53,2345.65 2345.66,2345.65zm0 -3117.67c205.11,0 400.71,81.36 545.72,226.35 144.99,144.96 226.39,340.6 226.39,545.67 0,107.25 86.54,193.52 193.54,193.52 107.38,0 193.52,-86.14 193.52,-193.52 0,-308.54 -121.78,-601.08 -339.91,-819.19 -218.15,-218.13 -510.69,-339.89 -819.26,-339.89 -107.01,0 -193.53,86.33 -193.53,193.54 0,107.02 86.28,193.52 193.53,193.52zm5712.89 5247.52l-2706.09 -2675.22c327.22,-567.03 497.74,-1142.55 497.74,-1800.28 0,-1950.76 -1592.79,-3504.43 -3504.53,-3504.43 -1942.41,0 -3504.43,1582.39 -3504.43,3504.43 0,1970.73 1553.58,3504.54 3504.42,3504.54 657.58,0 1233.2,-170.54 1800.15,-497.61l2706.09 2675.21c328.19,328.19 866.24,329.38 1195.93,10.74l10.72 -10.74c326.7,-326.74 332.88,-858.98 13.66,-1192.98l-13.66 -13.66zm-5712.89 -7592.86c1709.12,0 3117.35,1388.79 3117.35,3117.36 0,1718.77 -1398.59,3117.35 -3117.35,3117.35 -1709.01,0 -3117.36,-1388.81 -3117.36,-3117.35 0,-1709.12 1388.79,-3117.36 3117.36,-3117.36zm5439.12 8525.74l-0.1 0.12c-181.01,181.02 -477.65,180.86 -658.69,0l5.82 -5.85c-935.91,-854.68 -1758.72,-1715.88 -2659.94,-2617.18 256.95,-207.33 450.89,-401.03 659.12,-659.11l2653.79 2622.91c180.61,180.6 182.61,476.51 0,659.11zm-5439.12 -7366.86c1085.96,0 1958.59,884.7 1958.59,1958.48 0,1079.9 -878.71,1958.59 -1958.59,1958.59 -1073.77,0 -1958.47,-872.64 -1958.47,-1958.59 0,-1073.75 872.5,-1958.48 1958.47,-1958.48z"/>
  <g>
   <path class="fil6" d="M21209.4 15876.84c276.14,0 500,223.86 500,500 0,276.14 -223.86,500 -500,500 -276.14,0 -500,-223.86 -500,-500 0,-276.14 223.86,-500 500,-500zm203.89 296.11c-52.16,-52.16 -124.26,-84.44 -203.89,-84.44 -79.63,0 -151.73,32.28 -203.89,84.44 -52.16,52.16 -84.44,124.26 -84.44,203.89 0,79.63 32.28,151.73 84.44,203.89 52.16,52.17 124.26,84.44 203.89,84.44 79.63,0 151.73,-32.27 203.89,-84.44 52.17,-52.16 84.44,-124.26 84.44,-203.89 0,-79.63 -32.27,-151.73 -84.44,-203.89z"/>
  </g>
  <path class="fil6" d="M2871.1 9477.18l0.02 0c85.27,0 155.04,69.76 155.04,155.04l0 310.11c0,85.28 -69.77,155.04 -155.04,155.04l-0.02 0c-85.28,0 -155.04,-69.76 -155.04,-155.04l0 -310.11c0,-85.28 69.76,-155.04 155.04,-155.04zm155.41 775.6l0 -0.02c0,-85.27 69.76,-155.03 155.03,-155.03l310.12 0c85.27,0 155.03,69.76 155.03,155.03l0 0.02c0,85.28 -69.76,155.04 -155.03,155.04l-310.12 0c-85.27,0 -155.03,-69.76 -155.03,-155.04zm-931 0l0 -0.02c0,-85.27 69.76,-155.03 155.04,-155.03l310.11 0c85.28,0 155.04,69.76 155.04,155.03l0 0.02c0,85.28 -69.76,155.04 -155.04,155.04l-310.11 0c-85.28,0 -155.04,-69.76 -155.04,-155.04zm775.59 155.39l0.02 0c85.27,0 155.04,69.76 155.04,155.04l0 310.11c0,85.28 -69.77,155.04 -155.04,155.04l-0.02 0c-85.28,0 -155.04,-69.76 -155.04,-155.04l0 -310.11c0,-85.28 69.76,-155.04 155.04,-155.04z"/>
 </g>
</svg>
