<?xml version="1.0" encoding="UTF-8"?>
<!DOCTYPE svg PUBLIC "-//W3C//DTD SVG 1.1//EN" "http://www.w3.org/Graphics/SVG/1.1/DTD/svg11.dtd">
<!-- Creator: CorelDRAW 2018 (64-Bit) -->
<svg xmlns="http://www.w3.org/2000/svg" xml:space="preserve" width="297mm" height="210mm" version="1.1" style="shape-rendering:geometricPrecision; text-rendering:geometricPrecision; image-rendering:optimizeQuality; fill-rule:evenodd; clip-rule:evenodd"
viewBox="0 0 29700 21000"
 xmlns:xlink="http://www.w3.org/1999/xlink">
 <defs>
  <style type="text/css">
   <![CDATA[
    .fil11 {fill:#FEFEFE}
    .fil12 {fill:#343743}
    .fil13 {fill:#D4B4FD}
    .fil4 {fill:#DE749B}
    .fil3 {fill:#EADAFE}
    .fil7 {fill:#EFC7D7}
    .fil2 {fill:#F4D5E1}
    .fil1 {fill:#F8F4FF}
    .fil5 {fill:#343743;fill-rule:nonzero}
    .fil10 {fill:#343743;fill-rule:nonzero}
    .fil9 {fill:#9AFBDB;fill-rule:nonzero}
    .fil6 {fill:white;fill-rule:nonzero}
    .fil0 {fill:#343743;fill-opacity:0.149020}
    .fil8 {fill:#343743;fill-rule:nonzero;fill-opacity:0.149020}
   ]]>
  </style>
 </defs>
 <g id="Слой_x0020_1">
  <metadata id="CorelCorpID_0Corel-Layer"/>
  <path class="fil0" d="M22288.92 18300.47c386.28,386.26 1019.1,386.18 1405.4,0 386.25,-386.23 386.24,-1019.18 0.05,-1405.45l-2967.87 -2967.95c1065.64,-1708.54 803.23,-3963.43 -622.62,-5389.21 -1701.67,-1701.67 -4470.4,-1701.67 -6172.02,0 -1696.29,1696.27 -1696.25,4475.71 0,6171.99 1425.13,1425.13 3680.82,1682.55 5388.54,621.92l2968.52 2968.7z"/>
  <path class="fil1" d="M7420.3 6217.37c938.16,0 1745.98,240.41 2670.96,240.41 2518.78,0 4828.51,-1270.22 6189.12,-3353.34 1340.78,-1866.06 3529.7,-3081.69 6002.88,-3081.69 4079.92,0 7387.35,3307.43 7387.35,7387.35 0,4079.92 -3307.43,7387.35 -7387.35,7387.35 -902.49,0 -1756.92,-212.03 -2667,-212.03 -2576.38,0 -4844.3,1319.19 -6166.27,3318.63l-12.08 -13.48c-1339.51,1877.39 -3535.56,3101.54 -6017.61,3101.54 -4079.93,0 -7387.37,-3307.44 -7387.37,-7387.37 0,-4079.93 3307.44,-7387.37 7387.37,-7387.37z"/>
  <path class="fil0" d="M12478.97 8390.59l1561.57 -2896.57c76.55,-143.91 52.06,-321.5 -67.36,-434.79 -404.17,-394.98 -832.83,-587.88 -1310.5,-587.88 -753.76,0 -1393.34,535.83 -1935.12,535.83 -64.3,0 -119.42,-9.19 -174.53,-30.62 -728.73,-266.38 -1289.06,-431.73 -1831.01,-431.73 -685.87,0 -1270.7,275.57 -1843.27,863.47 -119.41,122.47 -137.79,315.37 -42.86,459.28l1684.05 2544.45c-2491.96,1850.67 -4332.61,4773.49 -4332.61,7936.46 0,1570.76 1279.88,2850.64 2850.64,2850.64l6950.52 -0.01c1570.76,0 2850.64,-1279.88 2850.64,-2850.64 0,-3164.24 -1855.03,-6120.75 -4360.16,-7957.89z"/>
  <path class="fil2" d="M2289.74 15680.8l0 0c78.89,0 143.43,64.54 143.43,143.42l0 286.83 286.81 0c78.88,0 143.42,64.53 143.42,143.41l0 0c0,78.88 -64.54,143.41 -143.42,143.41l-286.81 0 0 286.82c0,78.88 -64.54,143.43 -143.43,143.43l0 0c-78.86,0 -143.4,-64.55 -143.4,-143.43l0 -286.82 -286.83 0c-78.89,0 -143.43,-64.53 -143.43,-143.41l0 0c0,-78.88 64.54,-143.41 143.43,-143.41l286.83 0 0 -286.83c0,-78.88 64.54,-143.42 143.4,-143.42z"/>
  <path class="fil3" d="M5180.38 7359.17l0 0c103.41,0 188.01,84.6 188.01,187.99l0 375.98 375.96 0c103.39,0 187.99,84.6 187.99,187.99l0 0c0,103.39 -84.6,187.99 -187.99,187.99l-375.96 0 0 375.96c0,103.4 -84.6,188.01 -188.01,188.01l0 0c-103.38,0 -187.97,-84.61 -187.97,-188.01l0 -375.96 -375.98 0c-103.41,0 -188.01,-84.6 -188.01,-187.99l0 0c0,-103.39 84.6,-187.99 188.01,-187.99l375.98 0 0 -375.98c0,-103.39 84.59,-187.99 187.97,-187.99z"/>
  <path class="fil4" d="M3694.19 936.01c1063.8,0 1926.18,862.38 1926.18,1926.18 0,1063.8 -862.38,1926.18 -1926.18,1926.18 -1063.8,0 -1926.18,-862.38 -1926.18,-1926.18 0,-1063.8 862.38,-1926.18 1926.18,-1926.18z"/>
  <g>
   <path class="fil5" d="M5286.44 2119.72c-39.52,-84.75 -2.86,-185.51 81.89,-225.03 84.75,-39.52 185.51,-2.86 225.03,81.89l-306.92 143.14zm503.26 742.47l-338.66 0 0 0 -0.16 -24.05 -0.5 -24.01 -0.82 -23.99 -1.15 -23.99 -1.46 -23.92 -1.81 -23.88 -2.13 -23.9 -2.44 -23.82 -2.77 -23.78 -3.09 -23.72 -3.42 -23.66 -3.74 -23.63 -4.06 -23.58 -4.38 -23.51 -4.7 -23.45 -5.02 -23.39 -5.32 -23.29 -5.66 -23.22 -5.96 -23.16 -6.29 -23.06 -6.59 -23 -6.91 -22.9 -7.23 -22.84 -7.54 -22.73 -7.84 -22.61 -8.15 -22.48 -8.49 -22.46 -8.77 -22.32 -9.09 -22.19 -9.4 -22.11 -9.69 -21.96 -10.02 -21.86 306.92 -143.14 11.94 26.06 11.59 26.24 11.2 26.33 10.85 26.51 10.47 26.62 10.09 26.7 9.75 26.9 9.36 27.01 8.98 27.09 8.61 27.2 8.25 27.32 7.87 27.42 7.49 27.52 7.12 27.62 6.74 27.72 6.36 27.81 5.98 27.87 5.6 27.97 5.22 28.03 4.84 28.1 4.46 28.17 4.08 28.26 3.69 28.32 3.31 28.36 2.92 28.42 2.53 28.42 2.15 28.54 1.76 28.56 1.37 28.57 0.98 28.63 0.58 28.65 0.2 28.67 0 0zm-2095.51 2095.51l0 -338.66 0 0 90.58 -2.29 89.29 -6.79 87.92 -11.17 86.48 -15.45 84.94 -19.6 83.31 -23.67 81.57 -27.59 79.73 -31.44 77.77 -35.16 75.72 -38.79 73.57 -42.3 71.29 -45.7 68.88 -48.98 66.4 -52.19 63.78 -55.25 61.05 -58.2 58.2 -61.05 55.25 -63.78 52.19 -66.4 48.98 -68.88 45.7 -71.29 42.3 -73.57 38.79 -75.72 35.16 -77.77 31.44 -79.73 27.59 -81.57 23.67 -83.31 19.6 -84.94 15.45 -86.48 11.17 -87.92 6.79 -89.29 2.29 -90.58 338.66 0 -2.73 107.66 -8.07 106.35 -13.33 104.88 -18.43 103.22 -23.42 101.44 -28.25 99.51 -32.97 97.43 -37.54 95.21 -41.98 92.87 -46.29 90.38 -50.46 87.75 -54.5 85.03 -58.42 82.14 -62.19 79.14 -65.83 76 -69.36 72.73 -72.73 69.36 -76 65.83 -79.14 62.19 -82.14 58.42 -85.03 54.5 -87.75 50.46 -90.38 46.29 -92.87 41.98 -95.21 37.54 -97.43 32.97 -99.51 28.25 -101.44 23.42 -103.22 18.43 -104.88 13.33 -106.35 8.07 -107.66 2.73 0 0zm-2095.51 -2095.51l338.66 0 0 0 2.29 90.58 6.79 89.29 11.17 87.92 15.45 86.48 19.6 84.94 23.67 83.31 27.59 81.57 31.44 79.73 35.16 77.77 38.79 75.72 42.3 73.57 45.7 71.29 48.98 68.88 52.19 66.4 55.25 63.78 58.19 61.05 61.06 58.2 63.78 55.25 66.4 52.19 68.88 48.98 71.29 45.7 73.57 42.3 75.72 38.79 77.77 35.16 79.73 31.44 81.57 27.59 83.31 23.67 84.94 19.6 86.48 15.45 87.92 11.17 89.29 6.79 90.58 2.29 0 338.66 -107.66 -2.73 -106.35 -8.07 -104.88 -13.33 -103.22 -18.43 -101.44 -23.42 -99.51 -28.25 -97.43 -32.97 -95.21 -37.54 -92.87 -41.98 -90.38 -46.29 -87.75 -50.46 -85.03 -54.5 -82.14 -58.42 -79.14 -62.19 -76 -65.83 -72.74 -69.36 -69.35 -72.73 -65.83 -76 -62.19 -79.14 -58.42 -82.14 -54.5 -85.03 -50.46 -87.75 -46.29 -90.38 -41.98 -92.87 -37.54 -95.21 -32.97 -97.43 -28.25 -99.51 -23.42 -101.44 -18.43 -103.22 -13.33 -104.88 -8.07 -106.35 -2.73 -107.66 0 0zm2095.51 -2095.51l0 338.66 0 0 -90.58 2.29 -89.29 6.79 -87.92 11.17 -86.48 15.45 -84.94 19.6 -83.31 23.67 -81.57 27.59 -79.73 31.44 -77.77 35.16 -75.72 38.79 -73.57 42.3 -71.29 45.7 -68.88 48.98 -66.4 52.19 -63.79 55.25 -61.05 58.19 -58.19 61.05 -55.25 63.79 -52.19 66.4 -48.98 68.88 -45.7 71.29 -42.3 73.57 -38.79 75.72 -35.16 77.77 -31.44 79.73 -27.59 81.57 -23.67 83.31 -19.6 84.94 -15.45 86.48 -11.17 87.92 -6.79 89.29 -2.29 90.58 -338.66 0 2.73 -107.66 8.07 -106.35 13.33 -104.88 18.43 -103.22 23.42 -101.44 28.25 -99.51 32.97 -97.43 37.54 -95.21 41.98 -92.87 46.29 -90.38 50.46 -87.75 54.5 -85.03 58.42 -82.14 62.19 -79.14 65.83 -75.99 69.35 -72.75 72.75 -69.35 75.99 -65.83 79.14 -62.19 82.14 -58.42 85.03 -54.5 87.75 -50.46 90.38 -46.29 92.87 -41.98 95.21 -37.54 97.43 -32.97 99.51 -28.25 101.44 -23.42 103.22 -18.43 104.88 -13.33 106.35 -8.07 107.66 -2.73 0 0zm1201.93 378.96l-194.24 277.42 -27.85 -19.1 -28.18 -18.54 -28.49 -17.99 -28.79 -17.39 -29.11 -16.84 -29.36 -16.26 -29.64 -15.66 -29.93 -15.11 -30.16 -14.5 -30.47 -13.93 -30.68 -13.35 -30.89 -12.73 -31.16 -12.16 -31.34 -11.55 -31.57 -10.94 -31.79 -10.36 -31.95 -9.74 -32.13 -9.14 -32.3 -8.51 -32.5 -7.92 -32.63 -7.29 -32.79 -6.67 -32.91 -6.06 -33.03 -5.41 -33.19 -4.8 -33.29 -4.17 -33.38 -3.54 -33.48 -2.89 -33.57 -2.26 -33.62 -1.61 -33.73 -0.97 -33.78 -0.33 0 -338.66 40.28 0.39 40.19 1.15 40.16 1.93 40.03 2.7 39.94 3.45 39.84 4.22 39.69 4.97 39.55 5.72 39.43 6.47 39.27 7.22 39.09 7.95 38.93 8.71 38.72 9.42 38.56 10.17 38.35 10.9 38.11 11.62 37.87 12.34 37.65 13.06 37.42 13.79 37.12 14.48 36.91 15.21 36.58 15.91 36.27 16.59 36.04 17.32 35.69 18.01 35.38 18.7 35.04 19.4 34.67 20.06 34.35 20.77 33.97 21.43 33.6 22.1 33.23 22.8zm0 0c76.6,53.63 95.22,159.23 41.59,235.83 -53.63,76.6 -159.23,95.22 -235.83,41.59l194.24 -277.42z"/>
  </g>
  <path class="fil6" d="M4191.41 2132.95c-73.29,92.57 -146.57,183.69 -219.85,273.37 -73.29,89.67 -146.57,180.8 -219.85,273.36 79.06,7.72 151.87,26.04 218.4,54.97 66.53,28.92 123.43,67.98 170.67,117.15 47.25,49.18 84.38,107.52 111.38,175.02 27,67.5 40.49,142.71 40.49,225.63 0,77.15 -12.53,155.73 -37.6,235.77 -25.07,80.03 -64.12,152.35 -117.16,216.95 -53.03,64.61 -120.53,117.64 -202.49,159.11 -81.97,41.46 -180.8,62.19 -296.51,62.19 -32.79,0 -81,-2.89 -144.64,-8.68 -63.64,-5.78 -127.77,-17.35 -192.37,-34.71 -64.61,-17.36 -121.02,-41.94 -169.23,-73.77 -48.21,-31.82 -72.32,-73.76 -72.32,-125.83 0,-38.57 13.98,-72.32 41.95,-101.25 27.96,-28.93 63.16,-43.39 105.58,-43.39 25.07,0 50.63,5.79 76.66,17.36 26.04,11.57 54.48,24.1 85.34,37.6 30.85,13.5 64.6,26.04 101.25,37.61 36.64,11.57 79.06,17.36 127.28,17.36 71.35,0 131.62,-11.58 180.8,-34.72 49.17,-23.14 88.23,-53.03 117.15,-89.67 28.93,-36.65 49.66,-77.63 62.2,-122.95 12.53,-45.32 18.8,-90.16 18.8,-134.51 0,-113.78 -34.23,-195.26 -102.69,-244.44 -68.46,-49.18 -154.77,-73.77 -258.91,-73.77 -21.21,0 -38.08,1.45 -50.62,4.34 -12.53,2.89 -24.59,6.75 -36.16,11.57 -11.57,4.82 -22.66,8.68 -33.27,11.57 -10.6,2.9 -24.58,4.34 -41.94,4.34 -38.57,0 -70.87,-13.98 -96.91,-41.94 -26.03,-27.97 -39.05,-60.27 -39.05,-96.91 0,-11.57 1.44,-25.55 4.34,-41.95 2.89,-16.39 6.26,-28.44 10.12,-36.16l474.42 -598.8 -552.52 0c-44.36,0 -81.48,-14.46 -111.38,-43.39 -29.89,-28.93 -44.83,-63.64 -44.83,-104.14 0,-34.72 14.94,-69.43 44.83,-104.14 29.9,-34.72 67.02,-52.07 111.38,-52.07l807.08 0c44.36,0 83.41,14.94 117.16,44.84 33.75,29.89 50.62,69.9 50.62,120.05 0,36.64 -12.53,72.32 -37.6,107.03z"/>
  <path class="fil7" d="M26276.5 12115.02c165.69,0 300,134.31 300,300 0,165.69 -134.31,300 -300,300 -165.69,0 -300,-134.31 -300,-300 0,-165.69 134.31,-300 300,-300z"/>
  <path class="fil3" d="M11839 2698.8c110.46,0 200,89.54 200,200 0,110.46 -89.54,200 -200,200 -110.46,0 -200,-89.54 -200,-200 0,-110.46 89.54,-200 200,-200z"/>
  <g>
   <path class="fil3" d="M25472.31 14639.72c276.14,0 500,223.86 500,500 0,276.14 -223.86,500 -500,500 -276.14,0 -500,-223.86 -500,-500 0,-276.14 223.86,-500 500,-500zm203.89 296.11c-52.16,-52.16 -124.26,-84.44 -203.89,-84.44 -79.63,0 -151.73,32.28 -203.89,84.44 -52.16,52.16 -84.44,124.26 -84.44,203.89 0,79.63 32.28,151.73 84.44,203.89 52.16,52.17 124.26,84.44 203.89,84.44 79.63,0 151.73,-32.27 203.89,-84.44 52.17,-52.16 84.44,-124.26 84.44,-203.89 0,-79.63 -32.27,-151.73 -84.44,-203.89z"/>
  </g>
  <path class="fil3" d="M22593.66 8577.15l0.02 0c85.27,0 155.04,69.76 155.04,155.04l0 310.11c0,85.28 -69.77,155.04 -155.04,155.04l-0.02 0c-85.28,0 -155.04,-69.76 -155.04,-155.04l0 -310.11c0,-85.28 69.76,-155.04 155.04,-155.04zm155.41 775.6l0 -0.02c0,-85.27 69.76,-155.03 155.03,-155.03l310.12 0c85.27,0 155.03,69.76 155.03,155.03l0 0.02c0,85.28 -69.76,155.04 -155.03,155.04l-310.12 0c-85.27,0 -155.03,-69.76 -155.03,-155.04zm-931 0l0 -0.02c0,-85.27 69.76,-155.03 155.04,-155.03l310.11 0c85.28,0 155.04,69.76 155.04,155.03l0 0.02c0,85.28 -69.76,155.04 -155.04,155.04l-310.11 0c-85.28,0 -155.04,-69.76 -155.04,-155.04zm775.59 155.39l0.02 0c85.27,0 155.04,69.76 155.04,155.04l0 310.11c0,85.28 -69.77,155.04 -155.04,155.04l-0.02 0c-85.28,0 -155.04,-69.76 -155.04,-155.04l0 -310.11c0,-85.28 69.76,-155.04 155.04,-155.04z"/>
  <path class="fil8" d="M24597.62 6824.42l1415.73 2428.56c44.43,76.24 36.1,172.14 -20.71,239.64 -56.9,67.62 -150.21,91.97 -232.62,61.17 -1572.78,-586.36 -3675.65,-1830.89 -4074.53,-3602.33l-2324.21 -1222.64c-1883.62,942.06 -4551.71,-49.16 -6228.12,-1035.02 -76.11,-44.73 -115.83,-132.41 -99.28,-219.13 16.58,-86.68 85.77,-153.58 172.99,-167.16l3308.03 -515.41c1017.54,-1944.43 3338.65,-1920.6 5141.12,-1260.93l342.86 -394.55c61.51,-70.75 162.75,-91.94 247.43,-51.63l1243.88 591.98c98.63,46.93 144.38,162.13 104.96,263.97l-171.45 442.92c1677.39,1041.42 2632.24,2737.03 1173.92,4440.56z"/>
  <path class="fil9" d="M24737.62 6684.42l1415.73 2428.56c44.43,76.24 36.1,172.14 -20.71,239.64 -56.9,67.62 -150.21,91.97 -232.62,61.17 -1572.78,-586.36 -3675.65,-1830.89 -4074.53,-3602.33l-2324.21 -1222.64c-1883.62,942.06 -4551.71,-49.16 -6228.12,-1035.02 -76.11,-44.73 -115.83,-132.41 -99.28,-219.13 16.58,-86.68 85.77,-153.58 172.99,-167.16l3308.03 -515.41c1017.54,-1944.43 3338.65,-1920.6 5141.12,-1260.93l342.86 -394.55c61.51,-70.75 162.75,-91.94 247.43,-51.63l1243.88 591.98c98.63,46.93 144.38,162.13 104.96,263.97l-171.45 442.92c1677.39,1041.42 2632.24,2737.03 1173.92,4440.56z"/>
  <path class="fil10" d="M24737.62 6684.42l1415.73 2428.56c44.43,76.24 36.1,172.14 -20.71,239.64 -56.9,67.62 -150.21,91.97 -232.62,61.17 -1572.78,-586.36 -3675.65,-1830.89 -4074.53,-3602.33l-2324.21 -1222.64c-1883.62,942.06 -4551.71,-49.16 -6228.12,-1035.02 -76.11,-44.73 -115.83,-132.41 -99.28,-219.13 16.58,-86.68 85.77,-153.58 172.99,-167.16l3308.03 -515.41c1017.54,-1944.43 3338.65,-1920.6 5141.12,-1260.93l342.86 -394.55c61.51,-70.75 162.75,-91.94 247.43,-51.63l1243.88 591.98c98.63,46.93 144.38,162.13 104.96,263.97l-171.45 442.92c1677.39,1041.42 2632.24,2737.03 1173.92,4440.56zm-5703.91 -2353.47l-2277.51 -1272.01 -2745.43 427.76c1431.61,753.21 3411.31,1403.42 5022.94,844.25zm1560.41 -920.03l-763.91 879.02 2071.58 1089.76 1373.96 -3548.79 -925.66 -440.58 -1310.94 1508.49c-75.68,87.08 -207.49,96.36 -294.6,20.71 -87.04,-75.67 -96.37,-207.52 -20.68,-294.59l777.86 -895.12c-1555.34,-535.03 -3486.46,-570.22 -4427.88,1028.21l2379.45 1328.91 825.54 -949.92c75.67,-87.05 207.52,-96.39 294.59,-20.69 87.05,75.67 96.38,207.51 20.69,294.59zm2816.03 -770.51l-1128.83 2915.72 2141.12 852.94c1246.05,-1476.66 416.9,-2859.45 -1012.29,-3768.66zm2074.71 6155.12l-1149.31 -1971.54 -2005.97 -799.12c513.81,1309.42 1918.59,2229.07 3155.28,2770.66z"/>
  <g>
   <path class="fil11" d="M12738.97 8130.59l1561.57 -2896.57c76.55,-143.91 52.06,-321.5 -67.36,-434.79 -404.17,-394.98 -832.83,-587.88 -1310.5,-587.88 -753.76,0 -1393.34,535.83 -1935.12,535.83 -64.3,0 -119.42,-9.19 -174.53,-30.62 -728.73,-266.38 -1289.06,-431.73 -1831.01,-431.73 -685.87,0 -1270.7,275.57 -1843.27,863.47 -119.41,122.47 -137.79,315.37 -42.86,459.28l1684.05 2544.45c-2491.96,1850.67 -4332.61,4773.49 -4332.61,7936.46 0,1570.76 1279.88,2850.64 2850.64,2850.64l6950.52 -0.01c1570.76,0 2850.64,-1279.88 2850.64,-2850.64 0,-3164.24 -1855.03,-6120.75 -4360.16,-7957.89z"/>
   <path id="1" class="fil12" d="M12396.66 7946.5l1553.19 -2881.02c-165.77,-159.81 -332.56,-277.5 -502.58,-353.83 -165.22,-74.17 -339.32,-110.83 -524.59,-110.83 -331.45,0 -668.07,141.07 -976.95,270.51 -329.07,137.9 -633.11,265.32 -958.17,265.32 -52.11,0 -103.41,-4.23 -156.13,-13.36 -50.11,-8.69 -99.74,-22.39 -150.72,-41.7l-0.04 0.1c-350.39,-128.08 -660.25,-231.87 -947.51,-303.59 -267.54,-66.79 -512.59,-103.8 -751.14,-103.8 -287.37,0 -550.95,56.5 -799.81,173.24 -255.21,119.71 -503.26,304.95 -753.12,559.36l1674.9 2530.62 203 306.72 -295.8 219.67c-1249.76,928.14 -2329.31,2134.09 -3077.91,3505.39 -688.74,1261.63 -1096.48,2664.32 -1096.48,4119.19 0,677.86 276.32,1293.12 722.18,1738.99 445.87,445.86 1061.13,722.18 1738.99,722.18l0 1.52 6950.52 -0.01 0 -1.52c677.86,0 1293.12,-276.32 1738.99,-722.18 445.86,-445.87 722.18,-1061.13 722.18,-1738.99 0,-1457.14 -412.65,-2870.02 -1108.77,-4140.54 -753.99,-1376.14 -1838.49,-2584.95 -3091.65,-3503.95l-272.89 -200.12 160.31 -297.37zm-7949.33 8141.99c0,1570.76 1279.88,2850.64 2850.64,2850.64l6950.52 -0.01c1570.76,0 2850.64,-1279.88 2850.64,-2850.64 0,-3164.24 -1855.03,-6120.75 -4360.16,-7957.89l1561.57 -2896.57c76.55,-143.91 52.06,-321.5 -67.36,-434.79 -404.17,-394.98 -832.83,-587.88 -1310.5,-587.88 -753.76,0 -1393.34,535.83 -1935.12,535.83 -64.3,0 -119.42,-9.19 -174.53,-30.62 -728.73,-266.38 -1289.06,-431.73 -1831.01,-431.73 -685.87,0 -1270.7,275.57 -1843.27,863.47 -119.41,122.47 -137.79,315.37 -42.86,459.28l1684.05 2544.45c-2491.96,1850.67 -4332.61,4773.49 -4332.61,7936.46zm9509.74 -11036.41l0.18 -0.33 -0.27 -0.15c0.03,0.12 0.06,0.28 0.09,0.48z"/>
  </g>
  <path class="fil12" d="M8959.72 7999.51l3599.47 0c98.89,0 179.79,80.9 179.79,179.79l0 0.02c0,98.89 -80.9,179.79 -179.79,179.79l-3599.47 0c-98.89,0 -179.79,-80.9 -179.79,-179.79l0 -0.02c0,-98.89 80.9,-179.79 179.79,-179.79z"/>
  <path class="fil13" d="M7618.19 14256.47l0.66 0.52c-0.63,0.61 -1.31,1.18 -1.93,1.8 0,755.73 0,1511.46 0,2267.19 -281.5,25.98 -498.03,263.45 -498.03,546.55 0,302.72 246.14,548.86 548.86,548.86 1890.45,0 4200.69,-0.02 6474.53,-0.02 302.83,0 548.65,-246 548.65,-548.8 0.07,-0.01 0.13,-0.03 0.2,-0.04 0,-283.08 -216.54,-520.58 -498.03,-546.54 0.04,-755.77 0.08,-1511.54 0.12,-2267.31 -0.17,-0.17 -0.68,-0.42 -0.87,-0.6l0.58 -0.73c64.91,65.58 131.08,132.13 198.87,199.92 50.63,50.63 125.63,64.75 190.92,37.93 0.07,0 0.14,0 0.21,0 65.12,-27.07 108.18,-91.36 108.18,-161.92 0,-1037.58 0,-2075.17 0,-3112.75 0,-48.37 -19.64,-92.21 -51.36,-123.93 -31.58,-31.58 -75.43,-51.16 -123.92,-51.17 -0.01,-0.07 -0.03,-0.13 -0.04,-0.2 -1010.52,0 -2021.05,0 -3031.57,0 -6.69,0 -8.33,0.26 -8.33,0.26 -149.19,-149.19 -297.72,-297.73 -446.91,-446.92 -32.68,-32.68 -78.15,-51.37 -124.35,-51.37 -46.33,0 -91.38,18.62 -124.15,51.37 -0.07,0 -0.13,0 -0.2,0 -149.16,149.19 -298.33,298.38 -447.49,447.57 0,0 -608.14,-0.13 -622.6,-0.09 0.28,-450.55 0,0 0.55,-821.56 0,-48.39 -19.65,-92.24 -51.38,-123.97 -3.47,0 -74.06,-51.37 -123.97,-51.37 -332.02,0 -664.04,0 -996.06,0 -48.26,0 -92.04,19.65 -123.77,51.37 -33.05,33.05 -51.57,77.18 -51.57,123.97 0,862.65 -0.65,545.15 0.54,820.72 -356.77,0 -713.53,0 -1070.3,0 -46.27,0 -91.1,18.66 -123.77,51.37 -0.07,0.07 -0.13,0.14 -0.2,0.21 -32.72,32.7 -51.37,77.49 -51.37,123.78 0.06,0 0.13,0 0.19,0 0.17,1037.58 0.33,2075.15 0.5,3112.73 -0.06,0 -0.13,0 -0.19,0 0,35.3 10.75,68.99 29.72,97.37 18.86,28.18 45.97,50.95 78.8,64.55 11.04,4.53 22.01,7.89 32.74,10.07 11.3,2.25 22.71,3.37 34.08,3.37 22.92,0 45.79,-4.59 67.19,-13.54 20.95,-8.7 40.33,-21.49 56.78,-38.03 68.01,-68.03 134.37,-134.81 199.49,-200.62z"/>
  <path class="fil10" d="M8971.64 16432.69c111.77,94.04 192.63,223.63 224.94,371.07 73.92,30.16 137.51,80.57 183.76,144.26 50.85,70 80.87,156.01 80.87,248.84 0,117 -47.6,223.11 -124.44,299.93 -76.83,76.83 -182.93,124.43 -299.93,124.43l-1369.61 0c-151.37,0 -288.59,-61.54 -387.95,-160.91 -99.37,-99.36 -160.91,-236.58 -160.91,-387.95 0,-151.37 61.54,-288.61 160.91,-387.97 88.11,-88.12 206,-146.48 337.12,-158.58l0 -1943.65c0,-48.25 19.65,-92.03 51.37,-123.76l0.2 -0.21c31.73,-31.72 75.51,-51.36 123.77,-51.36 48.16,0 91.93,19.63 123.75,51.37l0.21 0.21c31.75,31.82 51.37,75.6 51.37,123.75l0 2010.71c54.66,-87.77 128.84,-162.07 216.36,-216.69 103.26,-64.43 225.1,-101.71 355.37,-101.71 164.48,0 315.57,59.54 432.84,158.22zm-432.83 -2150.39l996.07 0c48.22,0 92.04,19.68 123.87,51.48l0.1 -0.1c31.73,31.73 51.38,75.58 51.38,123.98l0 1318.77 73.67 0c48.26,0 92.04,19.65 123.77,51.37l0.2 0.2c31.72,31.73 51.37,75.52 51.37,123.77 0,48.39 -19.65,92.24 -51.38,123.97 -31.72,31.72 -75.57,51.37 -123.96,51.37l-1494.11 0c-48.21,0 -92.03,-19.69 -123.86,-51.48l-0.1 0.1c-31.73,-31.73 -51.38,-75.58 -51.38,-123.97 0,-48.25 19.65,-92.04 51.37,-123.76l0.2 -0.21c31.73,-31.72 75.51,-51.36 123.77,-51.36l73.68 0 0 -1318.79c0,-48.39 19.65,-92.24 51.37,-123.96 31.73,-31.73 75.58,-51.38 123.97,-51.38zm175.33 1494.13l645.4 0 0 -396.38 -645.4 0 0 396.38zm0 -747.07l645.4 0 0 -396.37 -645.4 0 0 396.37zm3434.8 1794.62l0.1 -0.11c31.73,31.73 51.37,75.57 51.37,123.96l-0.19 0.04c-0.01,48.38 -19.59,92.15 -51.17,123.74l0 0.2c-31.72,31.72 -75.56,51.36 -123.94,51.36l-0.03 -0.19 -2065.82 0.01 0 322.89c0,48.39 -19.65,92.24 -51.38,123.97 -31.72,31.72 -75.57,51.36 -123.96,51.36 -48.25,0 -92.04,-19.64 -123.77,-51.36l-0.2 -0.21c-31.72,-31.73 -51.37,-75.51 -51.37,-123.76l0 -498.05c0,-48.39 19.65,-92.24 51.37,-123.96 31.73,-31.73 75.58,-51.37 123.97,-51.37l322.69 0 0 -2314.84c0,-48.4 19.65,-92.24 51.37,-123.96 31.73,-31.73 75.58,-51.38 123.97,-51.38l1245.09 0c48.17,0 91.94,19.64 123.76,51.38l0.21 0.2c31.74,31.82 51.37,75.6 51.37,123.76l0 2314.84 322.7 0c48.2,0 92.02,19.67 123.86,51.48zm-870.93 -1296.58l73.68 0 0 -894.41 -894.42 0 0 2139.51 894.42 0 0 -894.41 -73.68 0c-48.25,0 -92.03,-19.65 -123.76,-51.37l-0.21 -0.2c-31.72,-31.73 -51.36,-75.52 -51.36,-123.77 0,-48.25 19.64,-92.04 51.36,-123.77l0 -0.2c31.73,-31.73 75.58,-51.38 123.97,-51.38zm996.08 -1245.1l996.08 0c48.25,0 92.04,19.65 123.77,51.37l0.2 0c31.73,31.73 51.38,75.58 51.38,123.97l0 1318.98 73.67 -0.01 0 -0.19c48.16,0 91.94,19.63 123.76,51.37l0.2 0.21c31.75,31.82 51.38,75.6 51.38,123.75 0,48.4 -19.65,92.24 -51.38,123.97 -31.72,31.72 -75.57,51.37 -123.96,51.37l0 -0.19 -1494.11 0 0 0.2c-48.26,0 -92.04,-19.65 -123.77,-51.37l-0.2 -0.2c-31.72,-31.73 -51.37,-75.51 -51.37,-123.77 0,-48.25 19.65,-92.04 51.37,-123.76l0.2 -0.21c31.73,-31.72 75.51,-51.36 123.77,-51.36l73.67 0 0 -1318.79c0,-48.39 19.65,-92.24 51.37,-123.96 31.73,-31.73 75.57,-51.38 123.97,-51.38zm175.34 1494.13l645.4 0 0 -396.38 -645.4 0 0 396.38zm0 -747.07l645.4 0 0 -396.37 -645.4 0 0 396.37zm-1156.99 -2827.31c99.37,99.37 160.91,236.59 160.91,387.96 0,151.37 -61.54,288.59 -160.91,387.95 -99.36,99.37 -236.58,160.91 -387.95,160.91 -151.37,0 -288.59,-61.54 -387.96,-160.91 -99.37,-99.36 -160.9,-236.58 -160.9,-387.95 0,-151.37 61.53,-288.59 160.9,-387.96 99.37,-99.37 236.59,-160.9 387.96,-160.9 151.37,0 288.59,61.53 387.95,160.9zm-528.02 247.89c-35.88,35.87 -58.12,85.44 -58.12,140.07 0,54.62 22.24,104.18 58.12,140.06 36,36 85.58,58.32 140.07,58.32l0 -0.19c54.63,0 104.19,-22.25 140.07,-58.12 35.88,-35.88 58.12,-85.44 58.12,-140.07 0,-54.63 -22.24,-104.2 -58.12,-140.07 -35.88,-35.88 -85.44,-58.12 -140.07,-58.12 -54.63,0 -104.19,22.24 -140.07,58.12zm3428.16 2132.22l0 1943.66c131.11,12.09 249.01,70.45 337.12,158.58 99.36,99.36 160.91,236.59 160.91,387.96l-0.2 0.04c0,151.46 -61.47,288.68 -160.71,387.91 -99.36,99.35 -236.58,160.89 -387.94,160.89l-1369.62 0 0 -0.19 -2490.21 0.01 0 0.19c-48.25,0 -92.03,-19.64 -123.76,-51.36l-0.21 -0.21c-31.72,-31.73 -51.36,-75.51 -51.36,-123.76 0,-48.21 19.67,-92.03 51.47,-123.86l-0.1 -0.11c31.73,-31.72 75.57,-51.37 123.96,-51.37l2073.07 0c-4.63,-24.09 -7.23,-48.65 -7.23,-73.68 0,-92.83 30.03,-178.84 80.86,-248.84 46.26,-63.68 109.85,-114.08 183.76,-144.25 32.3,-147.45 113.17,-277.03 224.95,-371.08 117.27,-98.68 268.36,-158.22 432.84,-158.22 130.27,0 252.1,37.28 355.36,101.71 87.53,54.62 161.71,128.92 216.36,216.69l0 -2010.71c0,-48.39 19.64,-92.24 51.37,-123.97l0.2 0c31.73,-31.72 75.51,-51.36 123.77,-51.36 48.16,0 91.94,19.63 123.76,51.37l0.2 0.21c31.75,31.82 51.38,75.6 51.38,123.75zm-922.4 2688.38l871.57 0c54.62,0 104.18,-22.23 140.06,-58.11 35.87,-35.88 58.11,-85.43 58.11,-140.06 0,-54.63 -22.25,-104.2 -58.12,-140.07 -35.88,-35.88 -85.45,-58.12 -140.07,-58.12 -48.06,0 -93.27,13.85 -130.18,38 -36.23,23.7 -64.43,57.18 -79.23,96.92 -14.82,39.75 -42.86,71.37 -77.57,91.09 -34.69,19.74 -76.18,27.66 -117.85,20.03 -41.73,-7.62 -77.71,-29.49 -103.18,-59.98 -25.65,-30.7 -40.86,-70.07 -40.86,-112.39 0,-88.92 -36.2,-169.61 -94.65,-228.05 -58.43,-58.43 -139.12,-94.65 -228.04,-94.65 -88.93,0 -169.61,36.22 -228.04,94.65 -58.45,58.44 -94.66,139.12 -94.66,228.05 0,48.21 -19.68,92.03 -51.47,123.86l0.1 0.1c-31.73,31.73 -75.57,51.38 -123.96,51.38 -20.35,0 -38.81,8.24 -52.15,21.53l0.1 0.1c-13.35,13.35 -21.64,31.78 -21.64,52.04 0,20.27 8.29,38.69 21.65,52.05 13.34,13.34 31.77,21.63 52.04,21.63l498.04 0zm-1120.6 -6225.48l2365.69 0 0.04 0.2c48.49,0.01 92.34,19.59 123.92,51.17 31.72,31.72 51.36,75.56 51.36,123.93l0 3112.75c0,35.23 -10.76,68.92 -29.72,97.34 -18.86,28.24 -45.87,51.03 -78.46,64.58l-0.21 0c-11.22,4.61 -22.19,7.96 -32.75,10.07l-0.2 0c-11.38,2.24 -22.76,3.37 -34,3.37 -22.87,0 -45.71,-4.59 -67.11,-13.47 -21.12,-8.86 -40.53,-21.57 -56.86,-37.9l-3487.26 -3487.27 -3485.84 3487.09c-16.45,16.54 -35.83,29.33 -56.78,38.03 -21.4,8.95 -44.27,13.54 -67.19,13.54 -11.37,0 -22.78,-1.12 -34.08,-3.37 -10.73,-2.18 -21.7,-5.54 -32.74,-10.07 -32.83,-13.6 -59.94,-36.37 -78.8,-64.55 -18.97,-28.38 -29.72,-62.07 -29.72,-97.37l0.19 0 -0.5 -3112.73 -0.19 0c0,-22.96 4.66,-45.73 13.46,-66.99l0 -0.2c8.64,-20.86 21.45,-40.14 37.91,-56.59l0.2 -0.21c16.43,-16.45 35.73,-29.26 56.58,-37.91l0.21 0c21.25,-8.79 44.02,-13.46 66.98,-13.46l1070.3 0c-1.19,-275.57 -0.54,41.93 -0.54,-820.72 0,-48.26 19.65,-92.04 51.37,-123.77l0.2 -0.2c31.73,-31.72 75.51,-51.37 123.77,-51.37l996.06 0c48.26,0 92.04,19.65 123.77,51.37l0.2 0c31.73,31.73 51.38,75.58 51.38,123.97 -0.55,821.56 -0.27,371.01 -0.55,821.56l56.47 0.18c48.16,0 91.93,19.64 123.76,51.38l0.2 0.2c31.75,31.82 51.38,75.61 51.38,123.76 0,48.39 -19.65,92.24 -51.38,123.97 -31.72,31.72 -75.57,51.36 -123.96,51.36l-406.57 -1c-0.03,-996.07 -0.03,-994.15 -0.03,-996.07l-645.4 0c0,5.66 0,0 0.02,996.08l-1245.11 0 0 2513.98 3310.71 -3311.32 0.2 0c16.72,-16.71 36.14,-29.36 56.92,-37.93 21.75,-8.98 44.63,-13.44 67.23,-13.44 22.6,0 45.48,4.46 67.24,13.43 21.01,8.68 40.5,21.33 57.11,37.94l3311.47 3311.47 0 -2514.13 -2190.35 0c-48.25,0 -92.04,-19.65 -123.76,-51.37l-0.21 -0.2c-31.72,-31.73 -51.37,-75.52 -51.37,-123.77 0,-48.39 19.65,-92.24 51.37,-123.96 31.73,-31.73 75.58,-51.38 123.97,-51.38zm-4482.35 6225.48l1369.61 0c20.39,0 38.8,-8.21 52.03,-21.44l0 -0.2c13.35,-13.35 21.63,-31.79 21.63,-52.05 0,-20.35 -8.23,-38.81 -21.53,-52.15l-0.1 0.1c-13.35,-13.34 -31.77,-21.63 -52.04,-21.63 -48.25,0 -92.04,-19.65 -123.77,-51.37l-0.2 -0.2c-31.72,-31.73 -51.37,-75.51 -51.37,-123.77 0,-88.92 -36.21,-169.61 -94.65,-228.04 -58.43,-58.43 -139.12,-94.65 -228.04,-94.65 -88.94,0 -169.61,36.21 -228.05,94.65 -58.44,58.43 -94.66,139.12 -94.66,228.04 0,42.33 -15.19,81.69 -40.85,112.41 -25.5,30.52 -61.55,52.4 -103.38,59.96 -41.81,7.53 -83.17,-0.37 -117.75,-20.04 -34.7,-19.71 -62.64,-51.3 -77.48,-91.07 -14.8,-39.75 -42.99,-73.23 -79.22,-96.94 -36.9,-24.14 -82.11,-37.99 -130.18,-37.99 -54.63,0 -104.19,22.24 -140.07,58.12 -35.87,35.88 -58.12,85.44 -58.12,140.07 0,54.63 22.25,104.19 58.12,140.07 35.89,35.89 85.44,58.12 140.07,58.12z"/>
  <path class="fil11" d="M22388.92 18020.47c386.28,386.26 1019.1,386.18 1405.4,0 386.25,-386.23 386.24,-1019.18 0.05,-1405.45l-2967.87 -2967.95c1065.64,-1708.54 803.23,-3963.43 -622.62,-5389.21 -1701.67,-1701.67 -4470.4,-1701.67 -6172.02,0 -1696.29,1696.27 -1696.25,4475.71 0,6171.99 1425.13,1425.13 3680.82,1682.55 5388.54,621.92 989.52,989.56 1978.97,1979.18 2968.52,2968.7z"/>
  <polygon class="fil7" points="16537.42,11987.06 17139.46,12566.73 17747.06,11952.71 "/>
  <polygon class="fil7" points="15376.93,9493.99 15401.29,10267.68 16026.54,9869.75 "/>
  <polygon class="fil7" points="18939.99,9493.99 18232.33,9910.49 18848.76,10284.26 "/>
  <path class="fil13" d="M23728.96 16744.98l-3076.51 -3063.27 -1206.66 1206.65 3076.52 3063.26c328.19,328.19 866.24,329.38 1195.93,10.74 338.23,-338.91 352.19,-875.65 10.72,-1217.38z"/>
  <path class="fil12" d="M22664.29 17745.1c117.05,117.04 272.02,175.57 427.28,175.57 155.9,0 311.15,-58.3 428.13,-174.82l-0.75 -0.75c118.06,-118.06 177.11,-272.98 177.11,-427.32 0,-154.39 -59.03,-309.33 -177.06,-427.39l-2967.87 -2967.95c-135.77,-135.77 -150.31,-346.84 -43.67,-498.77 476.37,-773.07 655.54,-1668.07 555.73,-2532.04 -100.55,-870.41 -485.05,-1708.8 -1134.68,-2358.4 -774.8,-774.77 -1792.68,-1162.15 -2810.66,-1162.15 -1017.98,0 -2035.85,387.38 -2810.57,1162.1 -772.11,772.1 -1158.15,1791.22 -1158.15,2810.65 0,1019.45 386.05,2038.58 1158.1,2810.65 648.52,648.52 1485.88,1031.51 2355.39,1131.87 871.75,100.61 1775.02,-81.91 2552.4,-564.72 156.56,-97.39 355.47,-69.98 480.37,55.15l0.38 -0.38 2968.52 2968.7zm-275.37 275.37c386.28,386.26 1019.1,386.18 1405.4,0 386.25,-386.23 386.24,-1019.18 0.05,-1405.45l-2967.87 -2967.95c1065.64,-1708.54 803.23,-3963.43 -622.62,-5389.21 -1701.67,-1701.67 -4470.4,-1701.67 -6172.02,0 -1696.29,1696.27 -1696.25,4475.71 0,6171.99 1425.13,1425.13 3680.82,1682.55 5388.54,621.92l2968.52 2968.7z"/>
  <path class="fil10" d="M16542.31 11127.56c48.63,48.65 78.72,115.73 78.72,189.72 0,74 -30.09,141.08 -78.72,189.73l0 0.31c-48.63,48.63 -115.83,78.72 -190.03,78.72 -73.83,0 -140.93,-30.08 -189.72,-78.73l-0.31 -0.31c-48.64,-48.78 -78.73,-115.87 -78.73,-189.72 0,-73.92 30.16,-141.06 78.89,-189.86l-0.16 -0.16c48.64,-48.63 115.84,-78.73 190.03,-78.73 73.99,0 141.08,30.1 189.72,78.72l0.31 0.31zm2389.11 -1821.45c39.84,1.76 79.26,13.99 113.89,36.46 34.48,22.36 61.65,53.36 79.53,89.1 17.93,35.82 26.5,76.15 23.76,117.02l-44.07 653.94c-2.9,42.9 -17.64,83.04 -41.62,116.72 -23.81,33.44 -56.87,60.43 -96.58,77.33l0.05 0.11c-14.05,5.96 -28.73,10.47 -43.76,13.54 -15.9,3.25 -31.12,4.87 -45.42,4.87 -26.41,0 -52.86,-4.74 -78.1,-14.03 -24.55,-9.02 -47.82,-22.45 -68.72,-40.07 -99.38,-83.92 -194.08,-146.95 -278.38,-194.13 -83.55,-46.75 -156.35,-77.62 -213.18,-97.77 -42.55,-15.08 -78.63,-42.05 -104.86,-76.45 -26.3,-34.47 -42.77,-76.43 -46.07,-121.49 -3.3,-44.88 6.84,-88.66 27.75,-126.49 21.01,-38.02 52.92,-70.09 92.99,-91.31l606.44 -321.26c36.28,-19.21 76.52,-27.85 116.35,-26.09zm-293.86 579.6c46.16,26.6 94.66,57.08 144.9,92l17.3 -256.77 -235.3 124.65c23.53,12.26 47.92,25.61 73.1,40.12zm-3155.2 -553.52l606.45 321.25c40.07,21.24 71.97,53.31 92.98,91.33 20.9,37.83 31.05,81.62 27.75,126.49 -3.3,45.05 -19.77,87.04 -46.07,121.51 -26.25,34.42 -62.34,61.37 -104.86,76.43 -64.76,22.95 -150.11,59.75 -248.23,117.93 -75.1,44.52 -157.42,101.43 -243.33,173.97 -20.88,17.61 -44.15,31.05 -68.71,40.07 -25.25,9.29 -51.69,14.03 -78.1,14.03 -14.31,0 -29.52,-1.61 -45.42,-4.87 -15.03,-3.07 -29.71,-7.58 -43.76,-13.54l0.05 -0.11c-39.69,-16.88 -72.77,-43.87 -96.59,-77.33 -23.98,-33.68 -38.72,-73.82 -41.61,-116.72l-44.07 -653.94c-2.76,-40.87 5.82,-81.19 23.74,-117.03 17.88,-35.74 45.05,-66.74 79.53,-89.1 34.63,-22.48 74.04,-34.69 113.88,-36.45 39.82,-1.76 80.07,6.88 116.37,26.08zm15.29 388.75l17.3 256.78c50.24,-34.91 98.75,-65.41 144.89,-92.01 25.18,-14.51 49.57,-27.85 73.1,-40.12l-235.29 -124.65zm3873.93 -1153.55c42.55,2.54 84.46,16.06 121.93,40.36 37.27,24.17 66.67,56.88 86.39,94.75l0.14 -0.06c19.57,37.65 29.42,80.54 27.78,125.22l-19.53 531.91c-1.72,46.55 -22.01,87.91 -53.46,117.13 -31.48,29.26 -74.16,46.48 -120.59,44.8 -46.53,-1.72 -87.9,-22.02 -117.11,-53.47 -29.24,-31.48 -46.52,-74.18 -44.83,-120.58l14.32 -390.25 -1508.63 740.55c-43.56,21.38 -89.56,36.12 -136.61,43.96 -47.44,7.92 -96.07,9.11 -144.5,3.36 -107.81,-12.88 -217.78,-19.32 -328.16,-19.32 -110.39,0 -220.35,6.44 -328.15,19.32 -48.4,5.78 -97,4.6 -144.44,-3.31 -47.07,-7.85 -93.09,-22.62 -136.68,-44.01l-1508.63 -740.55 58.47 1594.08c1.91,52.29 -3.9,104 -17.08,153.68 -13.34,50.29 -33.9,98.43 -61.29,142.93l-0.31 0c-59.29,96.27 -110.01,196.87 -151.8,300.58 -33.13,82.24 -60.57,166.41 -82.13,251.89l1177.23 416.13c43.66,15.42 76.99,47.24 95.6,86.14l0.31 0c16.32,34.2 21.11,74 11.35,113.01l0 2.31 -4.65 13.15c-12.04,34.08 -34.02,61.93 -61.58,81.4l-0.15 -0.2c-28.36,20.03 -62.23,31.19 -96.89,31.19 -8.99,0 -18.47,-0.84 -28.31,-2.54 -8.8,-1.51 -17.95,-3.93 -27.39,-7.24l-0.31 0 -1118.91 -395.48 -0.93 13.96c-2.23,35.93 -3.4,73.74 -3.4,113.48 0,147.76 16.47,292.39 48.87,432.49 27.33,118.24 66.17,233.94 116.15,346.3l958.24 -338.68c43.88,-15.49 89.75,-11.79 128.46,6.69l0 0.3c38.91,18.59 70.71,51.92 86.15,95.57 15.38,43.6 11.61,89.48 -6.94,128.39l0.26 0.12c-18.55,38.84 -52,70.63 -95.91,86.16l-905.76 320.13c20.72,30.99 42.59,61.91 65.61,92.74 41.98,56.23 86.84,110.71 134.49,163.28l2.52 2.77c31.19,34.32 45.53,78.11 43.49,121.14 -1.99,41.91 -19.5,83.05 -52.02,113.95l-2.74 2.54c-15.64,14.21 -33.5,24.99 -52.54,32.36 -19.96,7.71 -40.55,11.57 -60.62,11.57 -23.11,0 -46.33,-4.85 -68,-14.44 -20.88,-9.22 -40.21,-22.85 -56.48,-40.75 -59.16,-65.05 -115.15,-133.87 -167.78,-205.98 -39.16,-53.65 -75.92,-108.57 -110.2,-164.58l-468.42 165.56c-9.16,3.24 -18.45,5.66 -27.64,7.24 -9.88,1.7 -19.37,2.53 -28.35,2.53 -34.66,0 -68.52,-11.16 -96.89,-31.19l-0.15 0.21c-27.56,-19.49 -49.53,-47.34 -61.57,-81.41 -15.39,-43.55 -11.6,-89.42 6.95,-128.34l-0.25 -0.12c18.54,-38.83 51.98,-70.64 95.9,-86.16l423.94 -149.84c-55.11,-128.23 -98.41,-260.79 -129.31,-396.15 -37.1,-162.58 -56.19,-328.27 -56.19,-494.43 0,-49.97 1.86,-101.19 5.51,-153.49 2.07,-29.85 4.79,-59.76 8.11,-89.7l-252.06 -89.09c-43.67,-15.43 -77.01,-47.24 -95.6,-86.16l-0.31 0c-18.49,-38.73 -22.19,-84.62 -6.7,-128.46 15.44,-43.66 47.26,-77 86.16,-95.6 38.94,-18.6 84.84,-22.42 128.42,-7.02l203.22 71.82c24.94,-93.27 55.96,-185.46 92.93,-275.99 47.97,-117.46 105.71,-231.38 172.9,-340.52 10.01,-16.27 17.55,-33.85 22.42,-52.14 4.9,-18.41 7.08,-37.25 6.4,-55.93l-63.66 -1735.71c-1.64,-44.66 8.19,-87.53 27.76,-125.2 19.58,-37.67 49.01,-70.37 86.54,-94.7 37.41,-24.28 79.33,-37.82 121.9,-40.38 42.39,-2.52 85.52,5.93 125.53,25.59l1635.94 803.01c13.74,6.74 28.71,11.45 44.4,14.02 15.6,2.57 32.14,2.88 49.13,0.86 121.8,-14.54 245.07,-21.82 367.87,-21.82 122.81,0 246.07,7.28 367.88,21.82 16.99,2.04 33.52,1.74 49.09,-0.82 15.68,-2.57 30.67,-7.29 44.43,-14.06l1635.94 -802.99c40.02,-19.66 83.14,-28.12 125.51,-25.59zm360.03 4189.4l422.36 149.29c43.94,15.53 77.38,47.32 95.91,86.14 18.48,38.72 22.17,84.6 6.71,128.4 -11.98,33.86 -33.98,61.59 -61.6,81.15 -28.4,20.09 -62.32,31.29 -97.03,31.29 -8.99,0 -18.48,-0.83 -28.32,-2.53 -9.24,-1.59 -18.51,-4.01 -27.68,-7.25l-467.02 -165.06c-57.6,93.6 -122.39,184.34 -194.15,271.67 -85.44,104 -179.87,202.24 -282.89,293.76 -261,231.87 -564.79,411.63 -895.37,533.4 -330.09,121.58 -686.69,185.32 -1053.83,185.32 -297.92,0 -589.19,-41.9 -866.1,-123.42 -276.84,-81.5 -538.8,-202.65 -778.14,-361.14l-0.31 0 0.07 -0.16c-38.37,-25.49 -62.92,-64.35 -71.56,-106.54 -8.42,-41.08 -1.57,-85.23 22.35,-123.15l2.06 -3.19 0 -0.31 0.16 0.06c25.58,-38.53 64.46,-63.09 106.54,-71.65 41.08,-8.35 85.23,-1.5 123.18,22.42l3.21 2.06c211.55,140.09 443.3,247.17 688.42,319.22 245.03,72.03 504.03,109.06 770.12,109.06 459.28,0 888.72,-112.5 1254.9,-307.86 347.81,-185.56 638.83,-445.77 844.33,-755.13l-904.43 -319.65c-43.66,-15.43 -77,-47.25 -95.59,-86.15 -18.61,-38.95 -22.42,-84.87 -7.01,-128.49l1.31 -3.55c15.86,-41.91 47,-73.96 84.83,-92.04 38.94,-18.6 84.84,-22.41 128.46,-7.02l956.77 338.19c49.84,-111.91 89.29,-228.27 117.2,-348.1 32.3,-138.66 49.31,-282.54 49.31,-430.19 0,-39.31 -1.13,-76.65 -3.31,-112.07l-1.02 -15.37 -1118.93 395.47c-9.18,3.24 -18.44,5.65 -27.66,7.24 -9.86,1.71 -19.35,2.54 -28.34,2.54 -34.7,0 -68.63,-11.19 -97.05,-31.29 -27.63,-19.56 -49.64,-47.29 -61.57,-81.09 -15.39,-43.57 -11.61,-89.45 6.96,-128.35l-0.26 -0.12c18.55,-38.84 52,-70.64 95.91,-86.16l1177.25 -416.09c-21.56,-85.46 -49,-169.63 -82.12,-251.85 -41.8,-103.72 -92.53,-204.34 -151.83,-300.63 -27.73,-45.06 -48.41,-93.16 -61.59,-142.89 -13.17,-49.68 -19,-101.39 -17.09,-153.71l20.38 -579.41c1.68,-45.44 21.09,-85.96 51.28,-115.1 30.39,-29.35 71.65,-47.33 116.67,-47.33l1.24 0.32 4.73 0.06c46.44,1.64 87.84,21.91 117.15,53.36 29.24,31.38 46.54,73.97 44.92,120.24l-20.41 579.84c-0.68,18.76 1.49,37.62 6.38,56.02 4.73,17.73 12.36,35.31 22.75,52.18l-0.23 0.14c67.16,109.07 124.87,222.95 172.83,340.36 36.98,90.55 68.01,182.75 92.94,276.04l203.18 -71.82c43.87,-15.51 89.76,-11.78 128.46,6.69l0 0.31c38.89,18.59 70.7,51.92 86.13,95.55 1.33,3.77 2.49,7.49 3.53,11.21l1.14 3.41 0 0.91c9.67,38.83 4.78,78.62 -11.66,113 -18.57,38.9 -51.93,70.71 -95.58,86.15l-252.06 89.08c3.32,29.96 6.04,59.88 8.12,89.73 3.65,52.31 5.5,103.5 5.5,153.45 0,168.17 -18.86,334.43 -55.65,496.88 -30.59,135.12 -73.53,266.9 -128.26,394.25zm-2231.96 58.03c39.81,14.02 86.86,21.09 140.84,21.09 46.49,0 88.58,18.85 119.05,49.32 30.46,30.46 49.32,72.57 49.32,119.06 0,46.13 -18.84,88.12 -49.32,118.74l-0.31 0.31c-30.61,30.49 -72.59,49.32 -118.74,49.32 -96.76,0 -185.1,-14.95 -264.44,-44.63 -81.05,-30.31 -151.52,-75.69 -210.82,-135.91 -5.69,-5.77 -11.19,-11.6 -16.51,-17.48 -5.32,5.87 -10.82,11.71 -16.51,17.48 -59.29,60.22 -129.76,105.59 -210.8,135.91 -79.36,29.68 -167.7,44.63 -264.46,44.63 -46.13,0 -88.12,-18.83 -118.74,-49.32l-0.31 -0.31c-30.48,-30.61 -49.32,-72.61 -49.32,-118.74 0,-46.48 18.85,-88.58 49.32,-119.06 30.46,-30.46 72.57,-49.32 119.05,-49.32 54.22,0 101.52,-7.15 141.55,-21.34 37.4,-13.26 68.84,-32.75 94.04,-58.32 28.95,-29.4 48.44,-65.27 61.55,-99.74 4.58,-12.05 8.37,-23.8 11.52,-35 -53.78,-24.56 -105.53,-57.36 -153.88,-97.27 -61.73,-50.96 -117.82,-113.39 -165.26,-184.77l-15.2 -22.35c-45.67,-65.98 -108.14,-156.23 -102.98,-272.18 3.02,-68.23 29.97,-123.99 80.44,-166.9 43.94,-37.37 105.14,-62.65 183.21,-75.56 54.5,-9.01 109.25,-16 163.81,-20.88 53.55,-4.81 105.88,-7.39 156.5,-7.69l0.31 -0.32 71.8 0 0.31 0.32c50.85,0.3 103.25,2.88 156.86,7.68 54.66,4.89 109.44,11.88 163.98,20.9 78.07,12.9 139.27,38.19 183.2,75.55 50.46,42.92 77.42,98.67 80.45,166.9 2.65,59.66 -13.1,113.6 -35.72,161.39 -20.46,43.2 -45.85,79.88 -67.27,110.79l-8.03 11.64c-2.17,3.32 0.86,-1 -7.16,11.02l-0.14 -0.09c-37.93,57.06 -98.86,136.36 -179.72,202.2 -41.04,33.42 -87.07,63.35 -137.75,85.42 3.05,10.47 6.66,21.3 10.93,32.27 13.07,33.53 32.49,68.38 61.28,97.35 25.22,25.37 56.67,44.72 94.07,57.89zm-353.42 -485.96c6.36,0.69 12.67,0.64 18.94,-0.13l0.81 -0.1c26.73,-3.53 58.41,-20.05 92.03,-47.13 38.5,-31 77.2,-74.59 112.68,-127.97 3.86,-5.83 10.84,-15.9 18.1,-26.38l-0.2 -0.13 1.41 -1.85c-26.45,-3.56 -52.26,-6.47 -77.36,-8.74 -44.51,-4.01 -87.59,-6.17 -128.82,-6.43l0 0.32 -70.74 0 0 -0.32c-40.99,0.26 -83.94,2.42 -128.43,6.44 -25.07,2.26 -50.87,5.18 -77.34,8.75l0.83 1.2c7.52,10.88 14.86,21.49 18.61,27.14 28.66,43.12 61.1,79.94 95.6,109 33.07,27.85 68.31,48.84 104.1,61.59 6.98,2.48 13.57,4.08 19.78,4.74zm988.68 -1201.6l0.31 0.31c48.65,48.78 78.73,115.88 78.73,189.71 0,74.2 -30.09,141.4 -78.72,190.03 -48.63,48.64 -115.83,78.73 -190.03,78.73 -73.98,0 -141.07,-30.09 -189.72,-78.72l-0.3 -0.31c-48.63,-48.65 -78.73,-115.74 -78.73,-189.73 0,-73.99 30.1,-141.07 78.73,-189.72l0.3 -0.31c48.65,-48.62 115.74,-78.72 189.72,-78.72 73.84,0 140.93,30.09 189.71,78.73z"/>
  <path class="fil12" d="M17118.36 15315.87c1097.1,0 2089.38,-444 2806.76,-1161.9 718.23,-718.75 1162.47,-1712.35 1162.47,-2810.49 0,-1098.14 -444.24,-2091.75 -1162.46,-2810.49 -717.39,-717.9 -1709.67,-1161.91 -2806.77,-1161.91 -1097.1,0 -2089.38,444.01 -2806.77,1161.91 -718.22,718.74 -1162.46,1712.35 -1162.46,2810.49 0,1098.14 444.24,2091.74 1162.47,2810.49 717.37,717.89 1709.66,1161.9 2806.76,1161.9zm0 389.47c2407.24,0 4358.7,-1952.59 4358.7,-4361.86 0,-2409.28 -1951.46,-4361.87 -4358.7,-4361.87 -2407.24,0 -4358.7,1952.59 -4358.7,4361.87 0,2409.27 1951.46,4361.86 4358.7,4361.86z"/>
 </g>
</svg>
