<?xml version="1.0" encoding="UTF-8"?>
<!DOCTYPE svg PUBLIC "-//W3C//DTD SVG 1.1//EN" "http://www.w3.org/Graphics/SVG/1.1/DTD/svg11.dtd">
<!-- Creator: CorelDRAW 2018 (64-Bit) -->
<svg xmlns="http://www.w3.org/2000/svg" xml:space="preserve" width="297mm" height="210mm" version="1.1" style="shape-rendering:geometricPrecision; text-rendering:geometricPrecision; image-rendering:optimizeQuality; fill-rule:evenodd; clip-rule:evenodd"
viewBox="0 0 29700 21000"
 xmlns:xlink="http://www.w3.org/1999/xlink">
 <defs>
  <style type="text/css">
   <![CDATA[
    .fil7 {fill:#343743}
    .fil8 {fill:#9AFBDB}
    .fil9 {fill:#D4B4FD}
    .fil2 {fill:#DE749B}
    .fil5 {fill:#EADAFE}
    .fil11 {fill:#EFC7D7}
    .fil12 {fill:#F4D5E1}
    .fil1 {fill:#F8F4FF}
    .fil6 {fill:white}
    .fil3 {fill:#343743;fill-rule:nonzero}
    .fil4 {fill:white;fill-rule:nonzero}
    .fil0 {fill:#343743;fill-opacity:0.149020}
    .fil10 {fill:#343743;fill-opacity:0.200000}
   ]]>
  </style>
 </defs>
 <g id="Слой_x0020_1">
  <metadata id="CorelCorpID_0Corel-Layer"/>
  <path class="fil0" d="M28729.97 16016.01l-2294.44 -2268.27c277.44,-480.77 422.02,-968.74 422.02,-1526.42 0,-1654.02 -1350.49,-2971.34 -2971.42,-2971.34 -1646.93,0 -2971.34,1341.68 -2971.34,2971.34 0,1670.94 1317.25,2971.43 2971.33,2971.43 557.55,0 1045.61,-144.59 1526.31,-421.92l2294.44 2268.26c278.27,278.27 734.47,279.28 1014.01,9.11 286.78,-287.35 298.61,-742.45 9.09,-1032.19z"/>
  <path class="fil1" d="M7420.3 6217.37c938.16,0 1745.98,240.41 2670.96,240.41 2518.78,0 4828.51,-1270.22 6189.12,-3353.34 1340.78,-1866.06 3529.7,-3081.69 6002.88,-3081.69 4079.92,0 7387.35,3307.43 7387.35,7387.35 0,4079.92 -3307.43,7387.35 -7387.35,7387.35 -902.49,0 -1756.92,-212.03 -2667,-212.03 -2576.38,0 -4844.3,1319.19 -6166.27,3318.63l-12.08 -13.48c-1339.51,1877.39 -3535.56,3101.54 -6017.61,3101.54 -4079.93,0 -7387.37,-3307.44 -7387.37,-7387.37 0,-4079.93 3307.44,-7387.37 7387.37,-7387.37z"/>
  <path class="fil2" d="M3694.19 936.01c1063.8,0 1926.18,862.38 1926.18,1926.18 0,1063.8 -862.38,1926.18 -1926.18,1926.18 -1063.8,0 -1926.18,-862.38 -1926.18,-1926.18 0,-1063.8 862.38,-1926.18 1926.18,-1926.18z"/>
  <g>
   <path class="fil3" d="M5286.44 2119.72c-39.52,-84.75 -2.86,-185.51 81.89,-225.03 84.75,-39.52 185.51,-2.86 225.03,81.89l-306.92 143.14zm503.26 742.47l-338.66 0 0 0 -0.16 -24.05 -0.5 -24.01 -0.82 -23.99 -1.15 -23.99 -1.46 -23.92 -1.81 -23.88 -2.13 -23.9 -2.44 -23.82 -2.77 -23.78 -3.09 -23.72 -3.42 -23.66 -3.74 -23.63 -4.06 -23.58 -4.38 -23.51 -4.7 -23.45 -5.02 -23.39 -5.32 -23.29 -5.66 -23.22 -5.96 -23.16 -6.29 -23.06 -6.59 -23 -6.91 -22.9 -7.23 -22.84 -7.54 -22.73 -7.84 -22.61 -8.15 -22.48 -8.49 -22.46 -8.77 -22.32 -9.09 -22.19 -9.4 -22.11 -9.69 -21.96 -10.02 -21.86 306.92 -143.14 11.94 26.06 11.59 26.24 11.2 26.33 10.85 26.51 10.47 26.62 10.09 26.7 9.75 26.9 9.36 27.01 8.98 27.09 8.61 27.2 8.25 27.32 7.87 27.42 7.49 27.52 7.12 27.62 6.74 27.72 6.36 27.81 5.98 27.87 5.6 27.97 5.22 28.03 4.84 28.1 4.46 28.17 4.08 28.26 3.69 28.32 3.31 28.36 2.92 28.42 2.53 28.42 2.15 28.54 1.76 28.56 1.37 28.57 0.98 28.63 0.58 28.65 0.2 28.67 0 0zm-2095.51 2095.51l0 -338.66 0 0 90.58 -2.29 89.29 -6.79 87.92 -11.17 86.48 -15.45 84.94 -19.6 83.31 -23.67 81.57 -27.59 79.73 -31.44 77.77 -35.16 75.72 -38.79 73.57 -42.3 71.29 -45.7 68.88 -48.98 66.4 -52.19 63.78 -55.25 61.05 -58.2 58.2 -61.05 55.25 -63.78 52.19 -66.4 48.98 -68.88 45.7 -71.29 42.3 -73.57 38.79 -75.72 35.16 -77.77 31.44 -79.73 27.59 -81.57 23.67 -83.31 19.6 -84.94 15.45 -86.48 11.17 -87.92 6.79 -89.29 2.29 -90.58 338.66 0 -2.73 107.66 -8.07 106.35 -13.33 104.88 -18.43 103.22 -23.42 101.44 -28.25 99.51 -32.97 97.43 -37.54 95.21 -41.98 92.87 -46.29 90.38 -50.46 87.75 -54.5 85.03 -58.42 82.14 -62.19 79.14 -65.83 76 -69.36 72.73 -72.73 69.36 -76 65.83 -79.14 62.19 -82.14 58.42 -85.03 54.5 -87.75 50.46 -90.38 46.29 -92.87 41.98 -95.21 37.54 -97.43 32.97 -99.51 28.25 -101.44 23.42 -103.22 18.43 -104.88 13.33 -106.35 8.07 -107.66 2.73 0 0zm-2095.51 -2095.51l338.66 0 0 0 2.29 90.58 6.79 89.29 11.17 87.92 15.45 86.48 19.6 84.94 23.67 83.31 27.59 81.57 31.44 79.73 35.16 77.77 38.79 75.72 42.3 73.57 45.7 71.29 48.98 68.88 52.19 66.4 55.25 63.78 58.19 61.05 61.06 58.2 63.78 55.25 66.4 52.19 68.88 48.98 71.29 45.7 73.57 42.3 75.72 38.79 77.77 35.16 79.73 31.44 81.57 27.59 83.31 23.67 84.94 19.6 86.48 15.45 87.92 11.17 89.29 6.79 90.58 2.29 0 338.66 -107.66 -2.73 -106.35 -8.07 -104.88 -13.33 -103.22 -18.43 -101.44 -23.42 -99.51 -28.25 -97.43 -32.97 -95.21 -37.54 -92.87 -41.98 -90.38 -46.29 -87.75 -50.46 -85.03 -54.5 -82.14 -58.42 -79.14 -62.19 -76 -65.83 -72.74 -69.36 -69.35 -72.73 -65.83 -76 -62.19 -79.14 -58.42 -82.14 -54.5 -85.03 -50.46 -87.75 -46.29 -90.38 -41.98 -92.87 -37.54 -95.21 -32.97 -97.43 -28.25 -99.51 -23.42 -101.44 -18.43 -103.22 -13.33 -104.88 -8.07 -106.35 -2.73 -107.66 0 0zm2095.51 -2095.51l0 338.66 0 0 -90.58 2.29 -89.29 6.79 -87.92 11.17 -86.48 15.45 -84.94 19.6 -83.31 23.67 -81.57 27.59 -79.73 31.44 -77.77 35.16 -75.72 38.79 -73.57 42.3 -71.29 45.7 -68.88 48.98 -66.4 52.19 -63.79 55.25 -61.05 58.19 -58.19 61.05 -55.25 63.79 -52.19 66.4 -48.98 68.88 -45.7 71.29 -42.3 73.57 -38.79 75.72 -35.16 77.77 -31.44 79.73 -27.59 81.57 -23.67 83.31 -19.6 84.94 -15.45 86.48 -11.17 87.92 -6.79 89.29 -2.29 90.58 -338.66 0 2.73 -107.66 8.07 -106.35 13.33 -104.88 18.43 -103.22 23.42 -101.44 28.25 -99.51 32.97 -97.43 37.54 -95.21 41.98 -92.87 46.29 -90.38 50.46 -87.75 54.5 -85.03 58.42 -82.14 62.19 -79.14 65.83 -75.99 69.35 -72.75 72.75 -69.35 75.99 -65.83 79.14 -62.19 82.14 -58.42 85.03 -54.5 87.75 -50.46 90.38 -46.29 92.87 -41.98 95.21 -37.54 97.43 -32.97 99.51 -28.25 101.44 -23.42 103.22 -18.43 104.88 -13.33 106.35 -8.07 107.66 -2.73 0 0zm1201.93 378.96l-194.24 277.42 -27.85 -19.1 -28.18 -18.54 -28.49 -17.99 -28.79 -17.39 -29.11 -16.84 -29.36 -16.26 -29.64 -15.66 -29.93 -15.11 -30.16 -14.5 -30.47 -13.93 -30.68 -13.35 -30.89 -12.73 -31.16 -12.16 -31.34 -11.55 -31.57 -10.94 -31.79 -10.36 -31.95 -9.74 -32.13 -9.14 -32.3 -8.51 -32.5 -7.92 -32.63 -7.29 -32.79 -6.67 -32.91 -6.06 -33.03 -5.41 -33.19 -4.8 -33.29 -4.17 -33.38 -3.54 -33.48 -2.89 -33.57 -2.26 -33.62 -1.61 -33.73 -0.97 -33.78 -0.33 0 -338.66 40.28 0.39 40.19 1.15 40.16 1.93 40.03 2.7 39.94 3.45 39.84 4.22 39.69 4.97 39.55 5.72 39.43 6.47 39.27 7.22 39.09 7.95 38.93 8.71 38.72 9.42 38.56 10.17 38.35 10.9 38.11 11.62 37.87 12.34 37.65 13.06 37.42 13.79 37.12 14.48 36.91 15.21 36.58 15.91 36.27 16.59 36.04 17.32 35.69 18.01 35.38 18.7 35.04 19.4 34.67 20.06 34.35 20.77 33.97 21.43 33.6 22.1 33.23 22.8zm0 0c76.6,53.63 95.22,159.23 41.59,235.83 -53.63,76.6 -159.23,95.22 -235.83,41.59l194.24 -277.42z"/>
  </g>
  <path class="fil4" d="M4165.37 3781.83c0,42.43 -14.94,77.63 -44.84,105.59 -29.89,27.96 -67.01,41.95 -111.37,41.95 -44.35,0 -81.48,-13.99 -111.37,-41.95 -29.89,-27.96 -44.84,-63.16 -44.84,-105.59l0 -292.17 -679.8 0c-48.21,0 -87.27,-15.91 -117.16,-47.73 -29.89,-31.82 -44.84,-68.94 -44.84,-111.37 0,-5.79 1.93,-18.32 5.79,-37.61 3.86,-19.28 10.61,-36.64 20.25,-52.07l555.41 -1336.46c11.57,-27 30.38,-48.7 56.41,-65.09 26.04,-16.39 53.52,-24.59 82.45,-24.59 38.57,0 74.24,14.95 107.03,44.84 32.78,29.89 49.18,65.09 49.18,105.59 0,7.71 -0.49,15.91 -1.45,24.59 -0.96,8.67 -3.38,17.83 -7.23,27.48 -13.5,32.78 -33.27,80.03 -59.3,141.74 -26.04,61.72 -54.97,131.14 -86.79,208.28 -31.82,77.14 -65.57,157.66 -101.25,241.55 -35.67,83.89 -69.42,164.41 -101.24,241.55 -31.82,77.14 -60.75,146.57 -86.79,208.28 -26.03,61.71 -45.8,108.96 -59.3,141.74l468.63 0 0 -503.34c0,-42.43 14.95,-77.62 44.84,-105.59 29.89,-27.96 67.02,-41.94 111.37,-41.94 42.43,0 79.07,13.98 109.93,41.94 30.85,27.97 46.28,63.16 46.28,105.59l0 503.34 81 0c42.43,0 78.11,14.47 107.03,43.4 28.93,28.92 43.4,62.67 43.4,101.24 0,40.5 -14.47,74.73 -43.4,102.7 -28.92,27.96 -64.6,41.94 -107.03,41.94l-81 0 0 292.17z"/>
  <g>
   <path class="fil5" d="M16549.99 17876.44c276.14,0 500,223.86 500,500 0,276.14 -223.86,500 -500,500 -276.14,0 -500,-223.86 -500,-500 0,-276.14 223.86,-500 500,-500zm203.89 296.11c-52.16,-52.16 -124.26,-84.44 -203.89,-84.44 -79.63,0 -151.73,32.28 -203.89,84.44 -52.16,52.16 -84.44,124.26 -84.44,203.89 0,79.63 32.28,151.73 84.44,203.89 52.16,52.17 124.26,84.44 203.89,84.44 79.63,0 151.73,-32.27 203.89,-84.44 52.17,-52.16 84.44,-124.26 84.44,-203.89 0,-79.63 -32.27,-151.73 -84.44,-203.89z"/>
  </g>
  <path class="fil0" d="M8594.23 15950.15l0 -255.73 673.45 0c507.62,0 920.61,-412.98 920.61,-920.63l-6.1 -1395.23 1041.37 0.01c113.15,0 204.87,-91.75 204.87,-204.87l0 -2671.77c15.94,2.35 31.87,4.64 47.79,6.89l6.33 0.89c16.18,2.27 32.35,4.49 48.5,6.66l2.44 0.33c16.31,2.18 32.6,4.32 48.89,6.41l8.81 1.12c14.92,1.89 29.84,3.74 44.74,5.55l5.82 0.71c34.59,4.18 69.14,8.13 103.63,11.86l1.03 0.11c16.63,1.8 33.25,3.55 49.86,5.25l2.89 0.3 2.97 0.29c16.42,1.66 32.83,3.3 49.23,4.87l1.69 0.16c16.91,1.61 33.78,3.2 50.66,4.71l1.45 0.13 0.86 0.08c16.31,1.46 32.6,2.87 48.87,4.24l5.71 0.48c34.23,2.86 68.38,5.52 102.44,7.98l0.48 0.04c16.79,1.21 33.58,2.38 50.33,3.5l1.88 0.13 1.4 0.09c51.63,3.43 103.04,6.42 154.2,8.99l2.13 0.1c34.04,1.7 67.98,3.22 101.8,4.56l0.72 0.02c137.3,5.42 272.61,7.9 405.22,7.9l33.5 -0.05 0 -0.01c44.6,-0.14 88.88,-0.55 132.81,-1.22l0 -0.01 16.46 -0.26 0 -0.01 16.43 -0.28 0 -0.01c21.88,-0.39 43.68,-0.85 65.38,-1.38l0 -0.01 16.26 -0.4 0 -0.01 16.23 -0.42 16.19 -0.45 0 -0.01 16.16 -0.46 0 -0.01 16.12 -0.49 0 -0.01 16.08 -0.51 0.01 0 16.05 -0.54 16.01 -0.56 15.98 -0.58 0 -0.01 15.94 -0.59 0 -0.01 15.91 -0.62 15.86 -0.64 0 -0.01 15.83 -0.66 15.8 -0.68 0 -0.01 15.75 -0.7 15.71 -0.72 0 -0.01 15.68 -0.74 15.64 -0.76 0 -0.01 15.59 -0.78 15.56 -0.8 15.52 -0.82 15.47 -0.84 0.01 0 15.43 -0.86 15.39 -0.87 0.01 -0.01 15.35 -0.89 15.31 -0.91 15.27 -0.93 15.23 -0.94 15.18 -0.97 15.14 -0.98 0.01 0 15.09 -0.99 15.05 -1.01 0.01 -0.01 15.01 -1.02 14.96 -1.05 0.01 0 14.91 -1.06 0.01 0 14.87 -1.07 0.01 -0.01 14.82 -1.09 0.01 0 14.78 -1.1 0.01 0 14.73 -1.12 0.01 0 14.69 -1.14 14.65 -1.15 14.6 -1.16 0 -0.01 14.55 -1.17 0.01 0 14.5 -1.2 0.01 0 14.45 -1.2 0.01 0 14.4 -1.22 0.01 0 14.35 -1.23 0.01 0 14.31 -1.25 0.01 0 4.02 -0.39 0.01 0 4 -0.47 0.01 0 3.98 -0.55 0.01 0 3.96 -0.62 0.01 0 3.93 -0.7 0.01 0 3.91 -0.77 0.01 0 3.88 -0.85 0.01 0 3.86 -0.92 3.83 -0.99 0.01 0 3.81 -1.07 3.78 -1.14 3.75 -1.2 3.72 -1.28 3.69 -1.35 3.66 -1.41 3.62 -1.48 3.59 -1.55 3.56 -1.62 3.52 -1.68 3.48 -1.74 3.45 -1.81 3.4 -1.88 0.01 0 3.36 -1.94 0.01 0 3.32 -1.99 0.01 0 3.28 -2.06 0.01 0 3.24 -2.12 3.21 -2.19 3.16 -2.24 3.12 -2.29 3.07 -2.36 3.03 -2.42 2.99 -2.47 2.93 -2.52 2.89 -2.58 2.84 -2.64 2.79 -2.69 2.73 -2.74 0.01 0 2.68 -2.8 2.64 -2.84 2.58 -2.9 2.53 -2.95 2.47 -3 2.42 -3.04 2.36 -3.1 2.31 -3.14 2.25 -3.19 2.18 -3.23 2.13 -3.28 2.07 -3.32 2.01 -3.37 1.94 -3.41 1.89 -3.46 1.82 -3.49 1.75 -3.54 1.69 -3.58 1.62 -3.61 1.56 -3.66 1.48 -3.69 1.42 -3.73 1.35 -3.77 1.28 -3.81 1.21 -3.84 1.14 -3.87 1.06 -3.91 0.99 -3.93 0.9 -3.93 0.01 -0.01 0.82 -3.93 0 -0.01 0.75 -3.94 0.67 -3.95 0.59 -3.94 0 -0.01 0.51 -3.94 0 -0.01 0.43 -3.94 0 -0.01 0.36 -3.94 0.28 -3.95 0.2 -3.94 0.12 -3.94 0.01 0 0.04 -3.93 -0.02 -3.93 -0.1 -3.92 -0.18 -3.91 0 -0.01 -0.25 -3.89 0 -0.01 -0.32 -3.89 -0.01 0 -0.39 -3.88 -0.01 0c-0.29,-2.59 -0.62,-5.15 -1.01,-7.72l-0.62 -3.84 -0.69 -3.83c-0.49,-2.54 -1.01,-5.08 -1.59,-7.6l-0.01 0 -0.9 -3.77c-0.94,-3.76 -1.99,-7.49 -3.14,-11.19l0 -0.01c-0.77,-2.46 -1.58,-4.91 -2.44,-7.35l-1.32 -3.64c-1.36,-3.63 -2.82,-7.22 -4.38,-10.76l0 -0.01c-1.04,-2.37 -2.13,-4.7 -3.26,-7.03l-1.72 -3.47 -0.01 0 -1.79 -3.44 -1.86 -3.4 0 -0.01 -1.92 -3.37 -0.01 0 -1.99 -3.34 -2.05 -3.3 -0.01 0c-1.39,-2.19 -2.81,-4.35 -4.29,-6.49l-0.01 0 -2.24 -3.19 -0.01 0 -2.3 -3.15 -0.01 0 -2.36 -3.11 -0.01 0 -2.43 -3.07 -2.49 -3.02 -0.01 0 -2.55 -2.98 -0.01 0 -2.61 -2.93 -0.01 0 -2.67 -2.89 -0.01 0 -2.73 -2.84 -0.01 0 -2.79 -2.8 -0.01 0 -2.85 -2.74 -0.01 0 -2.91 -2.7 -0.01 0 -2.97 -2.64 -0.01 0 -3.03 -2.59 -0.01 0 -3.09 -2.54 -3.15 -2.48 -0.01 0 -3.2 -2.43 -0.01 0 -3.26 -2.37 -0.01 0 -3.31 -2.32 -0.01 0 -2482.77 -1694.1 -0.51 -11.28 -0.6 -11.73 -0.69 -12.18 -0.79 -12.62 -0.89 -13.05 -1 -13.48 -1.11 -13.9 -1.23 -14.32 -1.35 -14.72 -1.49 -15.12 -1.61 -15.52 -1.76 -15.9 0 -0.01 -1.91 -16.28 -2.06 -16.66 -2.22 -17.02 0 -0.01 -2.37 -17.38 0 -0.01 -2.55 -17.73 0 -0.01 -2.72 -18.08 0 -0.01c-0.93,-6.08 -1.91,-12.22 -2.91,-18.42l0 -0.01 -3.08 -18.76 -3.28 -19.09 -3.47 -19.41 0 -0.01 -3.68 -19.72 -3.88 -20.03 0 -0.01 -4.1 -20.33c-1.41,-6.83 -2.83,-13.71 -4.31,-20.63 -1.47,-6.92 -2.99,-13.89 -4.54,-20.91l0 -0.01 -4.77 -21.19 0 -0.01c-1.62,-7.11 -3.29,-14.26 -5,-21.46l0 -0.01c-1.7,-7.2 -3.46,-14.44 -5.25,-21.73l0 -0.01 -5.49 -21.99 0 -0.01c-1.87,-7.38 -3.78,-14.79 -5.74,-22.25l-6 -22.5c-2.04,-7.54 -4.13,-15.12 -6.26,-22.74l0 -0.01c-2.13,-7.62 -4.31,-15.28 -6.53,-22.97 -2.22,-7.69 -4.49,-15.44 -6.8,-23.21 -2.31,-7.77 -4.67,-15.58 -7.08,-23.42 -2.41,-7.85 -4.87,-15.73 -7.37,-23.64 -2.51,-7.92 -5.06,-15.87 -7.66,-23.85 -2.6,-7.98 -5.25,-16 -7.95,-24.05 -2.71,-8.05 -5.46,-16.13 -8.26,-24.24 -2.81,-8.11 -5.65,-16.25 -8.56,-24.43l0 -0.01c-2.9,-8.17 -5.87,-16.38 -8.88,-24.61 -3.01,-8.24 -6.07,-16.49 -9.19,-24.78 -3.12,-8.29 -6.29,-16.61 -9.52,-24.96 -3.23,-8.34 -6.5,-16.71 -9.84,-25.11 -3.34,-8.4 -6.73,-16.82 -10.18,-25.27 -3.45,-8.45 -6.96,-16.92 -10.52,-25.42 -3.57,-8.5 -7.19,-17.02 -10.87,-25.56 -3.68,-8.54 -7.42,-17.1 -11.22,-25.69 -3.79,-8.59 -7.65,-17.19 -11.57,-25.82 -3.92,-8.63 -7.9,-17.27 -11.94,-25.94 -4.04,-8.67 -8.14,-17.36 -12.3,-26.06 -4.17,-8.7 -8.39,-17.42 -12.68,-26.16 -4.29,-8.74 -8.64,-17.5 -13.06,-26.27 -4.41,-8.77 -8.89,-17.56 -13.44,-26.36 -4.54,-8.8 -9.15,-17.62 -13.83,-26.45 -4.68,-8.83 -9.42,-17.66 -14.23,-26.52l0 -0.01c-4.8,-8.85 -9.69,-17.72 -14.63,-26.6 -4.94,-8.88 -9.95,-17.77 -15.03,-26.67 -5.08,-8.9 -10.23,-17.81 -15.45,-26.73 -5.21,-8.92 -10.5,-17.85 -15.86,-26.79 -5.36,-8.93 -10.79,-17.88 -16.29,-26.83 -5.5,-8.96 -11.08,-17.92 -16.72,-26.88 -273.69,-434.68 -660.97,-793.36 -1151.13,-1066.08 -568.15,-316.14 -1276.66,-515.96 -2107.42,-595l-122.95 -442.11 -1.2 -4.13 -1.28 -4.1 -1.35 -4.05 -1.44 -4.01 -1.52 -3.97 -1.59 -3.92 -1.67 -3.88 -1.74 -3.83 -1.82 -3.79 -1.89 -3.74 -1.96 -3.69 -2.03 -3.65 -2.1 -3.59 -0.01 0 -2.17 -3.55 -2.24 -3.49 -2.3 -3.44 -2.37 -3.39 -2.44 -3.34 -2.5 -3.28 -2.56 -3.23 -2.62 -3.17 -0.01 0 -2.68 -3.11 -2.74 -3.06 -0.01 0 -2.8 -3 -2.86 -2.94 -2.91 -2.88 -0.01 0 -2.97 -2.83 -3.02 -2.76 -0.01 0 -3.07 -2.7 -0.01 0 -3.12 -2.63 -0.01 0 -3.18 -2.58 -3.23 -2.51 -0.01 0 -3.28 -2.44 -3.33 -2.38 -3.38 -2.31 -3.42 -2.24 -0.01 0 -3.46 -2.18 -0.01 0 -3.51 -2.11 -3.56 -2.04 -3.6 -1.96 -3.64 -1.9 -3.68 -1.83 -3.72 -1.75 -3.76 -1.68 -3.79 -1.6 -0.01 0 -3.82 -1.53 -0.01 0 -3.86 -1.45 -3.9 -1.38 -3.93 -1.3 -0.01 0 -3.96 -1.22 -4 -1.14 -4.02 -1.06 -4.06 -0.99 -4.08 -0.9 -4.11 -0.82 -4.13 -0.73 -0.01 0 -4.15 -0.65 -0.01 0 -4.18 -0.57 -4.2 -0.48 -0.01 0 -4.22 -0.4 -4.25 -0.31 -4.27 -0.22 -4.29 -0.14 -4.3 -0.04 -1240.15 0 -5.01 0.06 -4.99 0.18 -4.95 0.3 -4.93 0.41 -4.89 0.54 -4.86 0.64 -4.82 0.76 -4.79 0.87 -4.75 0.98 -4.71 1.09 -4.67 1.2 -4.62 1.3 -4.58 1.41 -4.54 1.51 -4.49 1.62 -4.44 1.71 -4.39 1.82 -4.35 1.91 -4.28 2.01 -4.24 2.11 -4.18 2.2 -4.12 2.3 -4.06 2.38 -4.01 2.48 -3.94 2.56 -3.88 2.66 -3.82 2.73 -3.75 2.83 -3.68 2.91 -3.62 2.99 -3.54 3.07 -0.01 0 -3.47 3.15 -3.4 3.22 -3.33 3.31 -3.25 3.38c-1.08,1.13 -2.13,2.3 -3.18,3.46l-3.09 3.53 -0.01 0 -3.01 3.6 -2.94 3.67 -2.85 3.74 -2.77 3.8 -2.68 3.88 -2.6 3.93 -2.51 4 -2.41 4.07 -0.01 0 -2.32 4.12 -2.23 4.19 -0.01 0 -2.13 4.24 -0.01 0 -2.04 4.3 -1.94 4.35 -0.01 0 -1.84 4.41 -0.01 0 -1.74 4.47 -1.65 4.51 -1.54 4.56 -0.01 0 -1.43 4.62 -0.01 0 -1.32 4.66 -0.01 0 -1.22 4.7 -0.01 0 -1.11 4.75 -1 4.8 -0.01 0 -0.89 4.84 -0.01 0 -0.77 4.87 -0.01 0 -0.66 4.92 -0.01 0 -0.54 4.96 -0.01 0 -0.43 4.99 -0.01 0 -30.91 412.49 -11.76 1.35 -11.73 1.38 -0.01 0 -11.71 1.39 -11.69 1.4 -11.68 1.43 -11.65 1.44 0 0.01 -11.62 1.46 -0.01 0 -11.6 1.48 -11.59 1.5 -11.56 1.51 0 0.01 -11.54 1.53 -11.52 1.55 0 0.01 -11.49 1.56 0 0.01 -22.92 3.19 -0.01 0 -11.42 1.63 -11.4 1.64 -0.01 0c-11.39,1.65 -22.75,3.33 -34.07,5.04l0 0.01 -11.31 1.71 -22.55 3.48 0 0.01 -11.24 1.76 0 0.01 -22.4 3.59 -0.01 0 -22.3 3.67 -0.01 0 -11.11 1.86 -0.01 0 -11.09 1.88 -11.07 1.89 0 0.01 -11.04 1.91 -0.01 0 -22.01 3.88 0 0.01 -10.97 1.96 -10.95 1.99 -10.92 2 0 0.01 -10.89 2.02 -10.87 2.04 -10.84 2.06 -0.01 0 -10.81 2.07 -10.79 2.1 -10.77 2.11 -10.74 2.13 -10.71 2.15 -10.69 2.17 -10.66 2.18 -10.63 2.2 -0.01 0 -10.6 2.22 -10.58 2.24 -10.56 2.26 -10.52 2.27 -10.5 2.29 -10.48 2.31 -10.44 2.33 -10.42 2.34 -10.39 2.37 -10.36 2.38 -10.34 2.4 -10.3 2.41 -10.28 2.44 -10.25 2.45 -10.23 2.47 -10.19 2.49c-4.1,1.01 -8.13,2.14 -12.11,3.38 -468.66,130.8 -675.74,228.84 -776.04,279l-0.33 0.16 -0.01 0c-15.06,7.54 -29.93,15.14 -44.65,22.82l-0.01 0c-14.72,7.67 -29.25,15.42 -43.63,23.23l-0.01 0c-14.38,7.81 -28.58,15.69 -42.62,23.63l-0.01 0c-14.04,7.94 -27.91,15.95 -41.62,24.02l-0.01 0c-13.7,8.07 -27.25,16.19 -40.63,24.39 -13.38,8.2 -26.6,16.45 -39.66,24.77 -13.06,8.32 -25.96,16.68 -38.69,25.11l-0.01 0c-12.74,8.42 -25.31,16.92 -37.73,25.46 -24.84,17.08 -49.05,34.4 -72.65,51.91l-0.01 0c-11.8,8.75 -23.45,17.56 -34.93,26.42l-0.01 0c-11.49,8.86 -22.84,17.76 -34.02,26.72l-0.01 0c-11.19,8.95 -22.23,17.95 -33.12,27l-0.01 0c-10.89,9.04 -21.64,18.14 -32.24,27.28 -10.6,9.13 -21.06,18.32 -31.37,27.54 -10.31,9.23 -20.48,18.49 -30.5,27.8 -10.02,9.31 -19.91,18.65 -29.65,28.03 -9.74,9.39 -19.35,18.81 -28.81,28.27 -9.47,9.45 -18.79,18.95 -27.98,28.48 -9.19,9.53 -18.23,19.09 -27.15,28.69l-0.01 0c-8.91,9.59 -17.69,19.22 -26.34,28.88l-0.01 0c-8.65,9.66 -17.16,19.35 -25.55,29.07 -8.38,9.72 -16.65,19.46 -24.77,29.23l0 0.01c-8.12,9.76 -16.12,19.56 -23.99,29.39l0 0.01c-7.87,9.82 -15.61,19.67 -23.23,29.54l0 0.01c-7.62,9.86 -15.11,19.76 -22.48,29.68 -7.36,9.92 -14.62,19.85 -21.74,29.81l0 0.01c-14.25,19.9 -28.02,39.91 -41.31,59.96 -6.65,10.03 -13.18,20.06 -19.59,30.12 -6.41,10.06 -12.71,20.13 -18.89,30.21 -6.19,10.08 -12.25,20.17 -18.21,30.27l0 0.01c-5.96,10.09 -11.8,20.21 -17.54,30.33 -5.74,10.12 -11.36,20.25 -16.88,30.38 -5.51,10.13 -10.93,20.27 -16.23,30.41l0 0.01c-5.3,10.14 -10.5,20.28 -15.59,30.43l0 0.01c-5.1,10.15 -10.07,20.3 -14.96,30.45 -4.88,10.15 -9.67,20.3 -14.35,30.45l0 0.01c-4.68,10.15 -9.26,20.29 -13.74,30.44 -4.48,10.14 -8.86,20.29 -13.15,30.42l-0.01 0c-4.29,10.14 -8.47,20.27 -12.56,30.39l-0.01 0c-4.09,10.12 -8.09,20.24 -12,30.34l0 0.01c-3.9,10.11 -7.72,20.19 -11.44,30.28l0 0.01c-3.73,10.08 -7.35,20.15 -10.89,30.21l0 0.01c-3.54,10.06 -6.99,20.1 -10.36,30.14 -3.36,10.03 -6.64,20.05 -9.83,30.05l-0.01 0.01c-3.19,10 -6.29,19.98 -9.31,29.95l-0.01 0c-3.02,9.97 -5.95,19.91 -8.81,29.84l-0.01 0c-2.86,9.93 -5.63,19.83 -8.32,29.71l-0.01 0.01c-2.7,9.88 -5.3,19.73 -7.84,29.57l0 0.01c-2.54,9.84 -5,19.64 -7.38,29.43l-0.01 0c-2.38,9.78 -4.68,19.54 -6.91,29.27l-0.01 0c-2.23,9.74 -4.38,19.44 -6.47,29.11l-0.01 0c-2.09,9.68 -4.1,19.31 -6.04,28.92 -1.94,9.61 -3.82,19.19 -5.62,28.73l-0.01 0.01c-1.8,9.55 -3.53,19.04 -5.2,28.52l-0.01 0c-1.67,9.47 -3.26,18.91 -4.8,28.31l-0.01 0.01c-1.54,9.4 -3,18.75 -4.41,28.08l-0.01 0c-1.42,9.33 -2.75,18.61 -4.04,27.85l-0.01 0c-1.29,9.24 -2.5,18.44 -3.67,27.6l-0.01 0c-1.16,9.16 -2.26,18.27 -3.31,27.34l-0.01 0c-1.05,9.07 -2.03,18.08 -2.97,27.06l-0.01 0c-0.94,8.97 -1.81,17.9 -2.64,26.78l-0.01 0c-0.83,8.88 -1.6,17.71 -2.32,26.49l-0.01 0 -1.47 18.8 -0.01 0 -1.32 18.71 -0.01 0 -1.19 18.64 -1.05 18.55 -0.01 0 -0.9 18.46 -0.01 0 -0.77 18.37 -0.01 0 -0.64 18.29 -0.51 18.19 -0.01 0 -0.38 18.09 -0.01 0 -0.26 17.99 -0.01 0 -0.14 17.89 -0.02 17.79 0.08 17.69 0.01 0 0.19 17.57 0.01 0 0.3 17.46 0.01 0c0.24,11.61 0.55,23.14 0.94,34.59l0.62 17.12 0.01 0 0.72 16.99 0.82 16.88 0.01 0 0.91 16.75 1 16.62 0.01 0 1.09 16.49 0.01 0 1.17 16.36 0.01 0 1.26 16.22 1.34 16.09 0.01 0c0.92,10.68 1.89,21.26 2.91,31.75l0.01 0 1.56 15.66 1.64 15.51 0 0.01 1.7 15.36 0.01 0c1.74,15.29 3.56,30.35 5.48,45.17l0 0.01 1.94 14.74 0.01 0c1.31,9.78 2.66,19.44 4.04,29 1.38,9.56 2.79,19.01 4.23,28.34l0.01 0c2.16,14 4.38,27.74 6.65,41.22l0.01 0 2.28 13.39 0.01 0c1.53,8.86 3.09,17.61 4.66,26.23l0.01 0 2.37 12.84 0.01 0 2.39 12.65 0.01 0 2.41 12.46 0.01 0 2.43 12.27 0.01 0 2.44 12.07 0.01 0 2.45 11.88 0.01 0 4.95 23.15 0.01 0 2.47 11.27 0.01 0 2.48 11.06 2.48 10.86 0.01 0 2.47 10.64 0.01 0 2.46 10.43 0.01 0 2.45 10.21 0.01 0 2.44 9.99 0.01 0 2.43 9.78 0.01 0 2.4 9.54 0.01 0 2.39 9.33 0.01 0 2.36 9.09 -2080.81 1419.84 -3.32 2.32 -3.27 2.37 -3.21 2.43 -3.15 2.48 -3.1 2.54 -3.03 2.59 -0.01 0 -2.97 2.64 -2.92 2.7 -2.86 2.74 -2.8 2.8 -2.74 2.84 -2.68 2.89 -2.62 2.93 -2.56 2.98 -2.49 3.02 -0.01 0 -2.43 3.07 -2.37 3.11 -2.31 3.15 -2.24 3.19 -0.01 0 -2.17 3.22 -0.01 0 -2.11 3.27 -0.01 0 -2.05 3.3 -1.99 3.34 -1.92 3.37 -1.86 3.41 -1.79 3.44 -0.01 0 -1.72 3.47 -1.66 3.5 -1.59 3.53 -0.01 0 -1.52 3.56 -1.46 3.59 -1.39 3.62 -1.32 3.64 -0.01 0 -1.25 3.66 -1.18 3.69 -1.11 3.71 -0.01 0 -1.04 3.73 -0.97 3.76 -0.01 0 -0.9 3.77 -0.83 3.79 -0.76 3.81 -0.69 3.83 -0.62 3.84 -0.54 3.85 -0.47 3.87 -0.4 3.88 -0.32 3.89 -0.01 0 -0.25 3.9 -0.17 3.92 -0.1 3.92 -0.03 3.92 0.05 3.94 0.13 3.94 0.2 3.94 0.28 3.95 0.36 3.94 0.43 3.95 0.52 3.95 0.59 3.95 0.67 3.95 0.75 3.94 0.82 3.94 0.91 3.94 0.99 3.93 1.06 3.91 1.14 3.87 1.21 3.84 1.28 3.81 1.35 3.77 1.42 3.73 1.48 3.69 1.56 3.66 1.62 3.61 1.69 3.58 1.75 3.54 1.82 3.49 1.89 3.45 1.94 3.42 2.01 3.36 2.07 3.33 2.13 3.28 2.18 3.23 2.25 3.19 2.31 3.14 2.36 3.09 2.42 3.05 2.47 2.99 2.53 2.95 2.58 2.9 2.64 2.84 2.68 2.8 0.01 0 2.73 2.74 2.79 2.69 2.84 2.64 2.89 2.58 2.93 2.52 2.99 2.47 3.03 2.42 3.07 2.35 3.12 2.3 3.16 2.24 3.21 2.18 3.24 2.12 0.01 0 3.28 2.06 0.01 0 3.32 2 0.01 0 3.36 1.94 0.01 0 3.4 1.87 3.45 1.81 3.48 1.75 3.52 1.68 3.56 1.62 3.59 1.54 3.62 1.49 3.66 1.41 3.69 1.35 3.72 1.28 3.75 1.2 3.78 1.14 3.81 1.07 0.01 0 3.83 0.99 3.86 0.92 0.01 0 3.88 0.85 0.01 0 3.91 0.77 0.01 0 3.93 0.7 0.01 0 3.96 0.63 0.01 0 3.98 0.54 0.01 0 4 0.48 0.01 0 4.02 0.39 0.01 0 12.3 1.07 0.01 0 12.33 1.06 0.01 0 12.38 1.05 0.01 0 12.42 1.03 0.01 0 12.47 1.03 12.51 1.01 0.01 0 12.54 1 0.01 0 12.59 0.99 0.01 0 12.62 0.97 0.01 0 12.67 0.97 0.01 0 12.7 0.95 0.01 0 12.75 0.94 12.79 0.92 12.83 0.91 0.01 0 12.86 0.9 0.01 0 12.9 0.88 12.95 0.87 12.98 0.86 13.02 0.84 13.06 0.83 13.09 0.81 0.01 0 13.13 0.8 13.16 0.79 0.01 0 13.2 0.76 13.24 0.76 13.27 0.73 13.31 0.73 13.35 0.7 13.38 0.69 13.41 0.67 13.45 0.66 13.48 0.64 13.52 0.63 13.54 0.6 13.58 0.59 0.01 0 13.61 0.57 13.64 0.56 13.68 0.54 13.71 0.52 13.74 0.5 13.78 0.48 13.8 0.46 13.83 0.45 13.87 0.42 13.89 0.41 13.93 0.39 13.95 0.37 13.99 0.35 14.01 0.33 14.04 0.31 14.07 0.29 14.1 0.27 14.12 0.25 14.15 0.23 14.18 0.2 14.21 0.19 14.24 0.16 14.26 0.15 14.28 0.12 14.32 0.1 14.33 0.08 14.37 0.05 14.39 0.04 14.41 0.01 40.55 -0.09 2.43 -0.01 1.77 -0.01 41.38 -0.3 0.13 0 40.71 -0.48 6.06 -0.09 36 -0.6 8.91 -0.17 35.56 -0.78 6.89 -0.16 33.35 -0.89 10.76 -0.3 37.3 -1.2 3.24 -0.1 3.42 -0.12c12.58,-0.43 25.17,-0.9 37.79,-1.4l3.1 -0.11 0.93 -0.04 0.55 -0.02c13.78,-0.56 27.58,-1.13 41.41,-1.75l1.58 -0.07 2.47 -0.12 34.59 -1.63 15.65 -0.79 32.64 -1.73 10.44 -0.58 34.07 -1.99 9.33 -0.57c11.62,-0.71 23.26,-1.46 34.91,-2.23l11.04 -0.74 30.54 -2.12 20.02 -1.45 23.81 -1.79 22.1 -1.73 22.41 -1.82 22.8 -1.92 22.86 -1.98 25.92 -2.34 15.6 -1.45 27.26 -2.61 15.56 -1.54 30.36 -3.08 3.45 -0.35 21.61 -2.29 20.91 -2.27 0.71 -0.08 21.64 -2.41 1.04 -0.12 19.27 -2.21 1.35 -0.15 21.67 -2.55 2.26 -0.27 19.42 -2.35 21.7 -2.69 0.79 -0.1 31.54 -4.03 16.29 -2.13 32.26 -4.35 11.08 -1.52c11.84,-1.64 23.67,-3.32 35.51,-5.02l5.5 -0.79c27.54,-3.99 55.1,-8.14 82.67,-12.47l9.11 -1.44 34.82 -5.61 1.62 -0.26 21.81 -3.62 21.81 -3.7 21.81 -3.76 2.09 -0.37 19.73 -3.48 0 5595.15 -776.76 0 -5.29 0.07 -5.25 0.2 -5.22 0.33 -5.18 0.46 -5.15 0.59 -5.11 0.71 -5.06 0.84 -5.02 0.96 -4.98 1.09 -4.94 1.2 -4.88 1.32 -4.84 1.44 -4.78 1.55 -4.74 1.67 -4.67 1.78 -4.63 1.89 -4.57 2 -4.5 2.1 -4.45 2.21 -4.39 2.32 -4.32 2.41 -4.26 2.52 -4.19 2.62 -4.12 2.71 -4.05 2.81 -3.98 2.9 -3.91 3 -3.83 3.08 -3.76 3.18 -3.67 3.26 -3.6 3.35 -3.52 3.44 -3.43 3.52 -3.35 3.59 -3.27 3.68 -3.17 3.76 -3.09 3.83 -2.99 3.91 -2.91 3.98 -2.8 4.05 -0.01 0 -2.71 4.13 -2.61 4.19 -0.01 0 -2.51 4.26 -2.41 4.32 -0.01 0 -2.31 4.39 -2.21 4.44 -2.1 4.51 -0.01 0 -1.99 4.57 -1.89 4.63 -1.78 4.68 -1.66 4.73 -0.01 0 -1.55 4.79 -1.43 4.84 -0.01 0 -1.31 4.88 -0.01 0 -1.2 4.94 -1.08 4.98 -0.01 0 -0.95 5.02 -0.01 0 -0.83 5.07 -0.01 0 -0.7 5.11 -0.01 0 -0.58 5.15 -0.01 0 -0.45 5.18 -0.01 0 -0.32 5.22 -0.01 0 -0.18 5.26 -0.01 0c-0.05,1.76 -0.06,3.52 -0.06,5.29l-0.01 0 0 1935.85 0.01 0c0,1.77 0.01,3.53 0.06,5.29l0.01 0 0.19 5.25 0.01 0 0.32 5.22 0.01 0 0.45 5.19 0.01 0 0.58 5.15 0.01 0 0.7 5.1 0.01 0 0.83 5.07 0.01 0 0.95 5.02 0.01 0 1.08 4.98 0.01 0 1.19 4.93 0.01 0.01 1.31 4.88 0.01 0 1.43 4.84 0.01 0 1.54 4.78 0.01 0 1.66 4.74 0.01 0 1.77 4.68 0.01 0 1.88 4.62 0.01 0 1.99 4.57 0.01 0 2.09 4.51 0.01 0 2.2 4.44 0.01 0.01 2.31 4.38 2.41 4.32 0.01 0 2.51 4.26 0.01 0 2.6 4.19 0.01 0 2.71 4.12 2.81 4.05 0 0.01 2.9 3.97 0.01 0.01 2.98 3.9 0.01 0 3.08 3.83 0.01 0.01 3.17 3.75 3.26 3.68 0.01 0 3.34 3.59 0.01 0.01 3.42 3.51 0.01 0.01 3.51 3.42 0.01 0.01c1.18,1.14 2.38,2.24 3.59,3.34l0 0.01 3.68 3.26 3.75 3.17 0.01 0.01 3.82 3.08 0.01 0 3.9 2.99 0.01 0.01 3.97 2.9 0.01 0 4.04 2.8 0.01 0.01 4.12 2.71 4.19 2.61 0 0.01 4.25 2.51 0.01 0.01 4.32 2.41 4.38 2.31 0 0.01 4.45 2.2 0 0.01 4.51 2.09 0 0.01 4.56 1.99 0.01 0.01 4.62 1.88 0 0.01 4.68 1.77 0 0.01 4.73 1.66 0 0.01 4.79 1.54 0 0.01 4.83 1.43 0 0.01 4.89 1.31 0 0.01 4.93 1.19 0 0.01 4.98 1.08 0 0.01 5.02 0.95 0 0.01 5.07 0.83 0 0.01 5.11 0.7 0 0.01 5.14 0.58 0 0.01 5.19 0.45 0 0.01 5.22 0.32 0 0.01 5.25 0.19 0 0.01 5.29 0.06 0 0.01c1884.45,-0.01 5341.7,0.01 7226.14,0.01 51.04,0 99.47,-19.03 136.54,-52.16l2.37 -2.14 0.03 -0.04 2.34 -2.17 0.03 -0.04 2.31 -2.22 0.03 -0.04 2.27 -2.26 0.03 -0.04 2.23 -2.3 0.03 -0.04 2.21 -2.33 0.03 -0.04 2.16 -2.38 0.03 -0.04 2.13 -2.41 0.03 -0.04 2.1 -2.45 0.03 -0.04 2.05 -2.48 0.03 -0.04 2.02 -2.53 0.03 -0.04 1.98 -2.56 0.03 -0.04 1.95 -2.59 0.03 -0.04 1.9 -2.64 0.03 -0.04 1.86 -2.66 0.03 -0.04 1.83 -2.71 0.03 -0.04 1.78 -2.74 0.03 -0.04 1.74 -2.77 0.03 -0.04 1.7 -2.8 0.03 -0.04 1.64 -2.83 0.03 -0.04 1.6 -2.84 0.03 -0.04 1.54 -2.86 0.03 -0.04 1.5 -2.89 0.03 -0.04 1.45 -2.9 0.03 -0.04 1.4 -2.92 0.02 -0.04c1.39,-2.96 2.72,-5.93 3.96,-8.95l0.02 -0.04c1.25,-3.01 2.42,-6.04 3.51,-9.09l0.02 -0.04c1.1,-3.06 2.11,-6.12 3.06,-9.21l0.02 -0.04c0.63,-2.05 1.22,-4.13 1.78,-6.2l0.02 -0.04c13.05,-47.95 8.38,-99.74 -14.46,-145.4l-967.94 -1935.83 -1.65 -3.22 0 -0.01 -1.71 -3.19 0 -0.01 -1.76 -3.15 0 -0.01c-1.19,-2.08 -2.41,-4.15 -3.66,-6.19l0 -0.01 -1.91 -3.03 0 -0.01 -1.96 -2.99 0 -0.01c-1.33,-1.98 -2.67,-3.95 -4.06,-5.88l0 -0.01 -2.1 -2.86 0 -0.01c-3.54,-4.76 -7.27,-9.36 -11.18,-13.76l0 -0.01c-2.34,-2.64 -4.76,-5.21 -7.23,-7.72l0 -0.01 -2.49 -2.48 0 -0.01c-2.5,-2.46 -5.09,-4.86 -7.72,-7.19l0 -0.01c-4.38,-3.88 -8.92,-7.56 -13.61,-11.04l0 -0.01 -2.83 -2.06 0 -0.01c-4.75,-3.4 -9.63,-6.59 -14.65,-9.57l0 -0.01c-2.01,-1.19 -4.03,-2.35 -6.08,-3.47l0 -0.01c-2.04,-1.13 -4.12,-2.21 -6.2,-3.26l0 -0.01 -3.14 -1.54 0 -0.01 -3.17 -1.49 0 -0.01c-3.18,-1.48 -6.4,-2.87 -9.66,-4.18l0 -0.01 -3.27 -1.27 0 -0.01 -3.3 -1.22 0 -0.01c-3.31,-1.2 -6.64,-2.31 -10.02,-3.34l0 -0.01c-2.25,-0.69 -4.51,-1.33 -6.79,-1.94l0 -0.01c-2.28,-0.62 -4.57,-1.17 -6.87,-1.7l0 -0.01c-14.96,-3.47 -30.45,-5.28 -46.22,-5.28l-357.8 0zm2071.62 -2091.42c437.34,0 801.97,316.47 877.52,732.35 203.01,39.57 371.48,185.61 436.35,388.62l436.83 1367.52 930.39 0c60.05,0 117.05,26.34 155.96,72.02 38.93,45.71 55.82,106.19 46.27,165.46l-123.21 764.04c-86.93,538.91 -546.2,930.03 -1092.08,930.03 -536.38,0 -994.28,-383.19 -1088.85,-911.14l-378.24 -2111.81c-30.08,-167.88 15.5,-339.2 124.95,-470.04 42.34,-50.58 92.41,-92.73 147.67,-125.5 -42.53,-222.79 -238.55,-391.83 -473.58,-391.83 -113.13,0 -204.87,-91.71 -204.87,-204.87 0,-113.15 91.76,-204.85 204.89,-204.85z"/>
  <path class="fil6" d="M3915.42 9890.04c0,2254.05 0,3810.66 0,6048.49 1716.67,29.29 3202.14,6.11 4918.81,35.4 0,-358.42 0,-327.55 0,-685.96 192.63,3.85 558.56,3.45 779.22,15.72 356.06,2.14 595.54,-224.34 615.01,-670.95 -4.72,-615.47 10.22,-1101.1 8.89,-1704.37 416.31,5.4 832.62,10.81 1248.93,16.22 -7.57,-994.93 -15.15,-1989.85 -22.72,-2984.78 -1376.36,-242.69 -2182.3,-698.94 -2839.49,-1355.02 -1026.63,-4.18 -1656,25.7 -2635.08,29.16 -361.96,751.53 -1044.19,1134.09 -2073.57,1256.09z"/>
  <path class="fil7" d="M5472.56 12980.19c111.81,-17.8 216.76,58.33 234.58,170.06 85.04,533.4 358.17,1020.22 769.03,1370.8 410.9,350.58 934.67,543.64 1474.78,543.64l1556.71 0c281.72,0 510.9,-229.19 510.9,-510.9l-3.11 -710.37 -644.69 0.01c-113.15,0 -204.87,-91.71 -204.87,-204.86 0,-113.16 91.74,-204.88 204.87,-204.88l642.9 0 -2.1 -479.88c0,-113.12 91.71,-204.87 204.87,-204.87l0.22 0c2.26,-0.07 4.51,-0.12 6.78,-0.12l1035.26 0 0 -2584.14c0,-113.13 91.71,-204.87 204.87,-204.87 113.13,0 204.87,91.72 204.87,204.87l0 2789.02c0,113.12 -91.72,204.87 -204.87,204.87l-1041.37 -0.01 6.1 1395.23c0,507.65 -412.99,920.63 -920.61,920.63l-1556.69 0c-637.54,0 -1255.73,-227.91 -1740.75,-641.7 -485.02,-413.78 -807.39,-988.4 -907.73,-1618.01 -17.81,-111.66 58.33,-216.71 170.05,-234.52zm-1352.27 -2549.44l900.57 6.08c466.01,0 857.98,323.21 963.42,757.31 217.43,-73.88 374.33,-280.06 374.33,-522.2l0.01 -1212.57c0,-113.16 91.71,-204.87 204.86,-204.87l3166.95 6.93c113.15,0 204.86,91.7 204.86,204.87 0,113.13 -91.71,204.87 -204.86,204.87l-2962.1 -6.93 0 1007.69c0,529.93 -431.14,961.05 -961.06,961.05 -113.15,0 -204.87,-91.71 -204.87,-204.86 0,-320.7 -260.88,-581.55 -581.57,-581.55l-900.54 -6.07 0 4966.58c0,135.28 -91.72,244.99 -204.87,244.99 -113.17,0 -204.88,-109.67 -204.88,-244.99l0 -5785.58c0,-135.29 91.71,-244.99 204.88,-244.99 113.12,0 204.87,109.67 204.87,244.98l0 409.26zm4677.92 269.36c80.02,-80.01 209.75,-80.01 289.71,0 111.24,111.24 259.19,172.53 416.54,172.53 157.37,0 305.29,-61.26 416.58,-172.53 80.02,-80.01 209.75,-79.99 289.73,0 80.01,80.02 80.01,209.74 0,289.76 -188.64,188.63 -439.47,292.54 -706.27,292.54 -266.81,0 -517.6,-103.87 -706.25,-292.54 -80.05,-80.02 -80.05,-209.74 -0.04,-289.76z"/>
  <path class="fil8" d="M1390.36 9836.55l2080.81 -1419.84c-50.34,-191.54 -118.53,-540.7 -85.39,-942.51 46.34,-561.82 303.83,-1332.84 1267.64,-1815.17 101.03,-50.54 310.72,-149.9 788.48,-282.54 217.17,-53.27 453.79,-94.37 704.85,-123.06l30.92 -412.49c8.03,-106.89 97.11,-189.54 204.35,-189.54l1240.15 0c92,0 172.72,61.35 197.39,149.99l122.95 442.11c830.76,79.04 1539.27,278.86 2107.42,595 490.16,272.72 877.44,631.4 1151.13,1066.08 361.24,573.75 425.99,1123.89 436.08,1359.58l2482.77 1694.1c71.52,48.78 104.65,137.3 82.73,221.05 -21.9,83.75 -94.08,144.71 -180.34,152.25 -304.87,26.71 -643.1,44.72 -1001.1,44.72 -1061.87,0 -2296.73,-158.5 -3344.22,-718.44 -643.51,-343.99 -988.85,-718.76 -1127.22,-894.17l-2346.05 94c-122.57,154.4 -421.66,476.33 -973,771.06 -903.48,482.97 -1967.3,619.56 -2881.84,619.56 -307.75,0 -598.77,-15.5 -860.83,-38.44 -86.26,-7.57 -158.44,-68.5 -180.34,-152.25 -21.94,-83.76 11.16,-172.27 82.66,-221.05z"/>
  <path class="fil7" d="M1390.36 9836.55l2080.82 -1419.84c-50.34,-191.55 -118.54,-540.7 -85.39,-942.51 46.33,-561.83 303.82,-1332.84 1267.62,-1815.17 101.13,-50.6 224.27,-9.63 274.88,91.5 50.63,101.18 9.65,224.27 -91.53,274.9 -1285.78,643.48 -1078.06,1882.53 -971.95,2280.63l2043.09 133.25 207.65 -2769.49c-204.82,26.01 -397.91,60.93 -576.01,104.63 -16.42,4 -32.8,5.94 -48.97,5.94 -92.17,0 -175.87,-62.6 -198.82,-156.12 -26.96,-109.9 40.3,-220.83 150.15,-247.78 217.17,-53.27 453.78,-94.38 704.85,-123.06l30.91 -412.49c8.04,-106.89 97.12,-189.54 204.36,-189.54l1240.15 0c92.01,0 172.72,61.35 197.39,149.99l122.95 442.11c830.76,79.04 1539.27,278.86 2107.42,595 490.16,272.72 877.44,631.4 1151.13,1066.08 361.24,573.75 425.99,1123.88 436.08,1359.58l2482.78 1694.1c71.51,48.78 104.65,137.29 82.72,221.05 -21.9,83.75 -94.08,144.71 -180.33,152.25 -304.88,26.71 -643.11,44.71 -1001.12,44.71 -1061.86,0 -2296.71,-158.49 -3344.21,-718.43 -643.51,-343.99 -988.85,-718.76 -1127.22,-894.17l-2346.05 94c-122.57,154.4 -421.66,476.33 -973,771.06 -903.48,482.97 -1967.3,619.56 -2881.84,619.56 -307.75,0 -598.77,-15.5 -860.84,-38.44 -86.25,-7.57 -158.43,-68.5 -180.33,-152.25 -21.94,-83.76 11.15,-172.27 82.66,-221.05zm12005.8 123.95l-2019.98 -1378.33 -2300.62 150.04c485.61,465.13 1739.89,1324.23 4320.6,1228.29zm-4592.84 -1621.14l2417.49 -157.65c-21.69,-225.67 -98.87,-633.67 -366.56,-1058.82 -236.59,-375.8 -574.24,-687.47 -1003.59,-926.35 -483.11,-268.8 -1084.33,-446.09 -1790.2,-528.63l742.86 2671.45zm-419.47 20.9l-917.42 -3299.14 -894.39 0 -253.54 3381.88 2065.35 -82.74zm-3375.7 922.64c294.52,-154.08 508,-316.26 654.35,-449.02l-1894.71 -123.58 -1649.2 1125.33c898.5,23.23 1986.03,-80.01 2889.56,-552.73z"/>
  <path class="fil9" d="M11783.37 14371.08c203.01,39.57 371.48,185.61 436.35,388.62l436.83 1367.52 930.39 0c60.05,0 117.05,26.34 155.96,72.02 38.93,45.71 55.82,106.19 46.27,165.46l-123.21 764.04c-86.93,538.91 -546.2,930.03 -1092.08,930.03 -536.38,0 -994.28,-383.19 -1088.85,-911.14l-378.24 -2111.81c-30.08,-167.88 15.5,-339.2 124.95,-470.04 42.34,-50.58 92.41,-92.73 147.67,-125.5l403.96 -69.2z"/>
  <path class="fil7" d="M10905.85 13638.73c437.34,0 801.97,316.47 877.52,732.35 203.01,39.57 371.48,185.61 436.35,388.62l436.83 1367.52 930.39 0c60.05,0 117.05,26.34 155.96,72.02 38.93,45.71 55.82,106.19 46.27,165.46l-123.21 764.04c-86.93,538.91 -546.2,930.03 -1092.08,930.03 -536.38,0 -994.28,-383.19 -1088.85,-911.14l-378.24 -2111.81c-30.08,-167.88 15.5,-339.2 124.95,-470.04 42.34,-50.58 92.41,-92.73 147.67,-125.5 -42.53,-222.79 -238.55,-391.83 -473.58,-391.83 -113.13,0 -204.87,-91.71 -204.87,-204.87 0,-113.15 91.76,-204.85 204.89,-204.85zm604.31 1324.88l378.24 2111.8c59.53,332.4 347.83,573.67 685.53,573.67 343.69,0 632.82,-246.25 687.55,-585.53l84.94 -526.53 -834.77 0c-3.18,0.05 -6.33,0.07 -9.45,0l-45.32 0 -15.23 320.31c-5.38,113 -101.48,200.3 -214.37,194.89 -113.02,-5.38 -200.27,-101.35 -194.91,-214.37l24.51 -515.44c4.66,-97.64 77.08,-176.63 170.52,-192.31l-397.91 -1245.7c-21.9,-68.57 -85.01,-114.66 -157.01,-114.66 -66.99,0 -107.97,36.99 -126.39,59.05 -18.53,22.01 -47.74,68.88 -35.93,134.82z"/>
  <path class="fil8" d="M2933.78 15730.15l6258.24 0.01c77.63,0 148.54,43.86 183.25,113.27l967.91 1935.86c31.78,63.52 28.39,138.93 -8.96,199.33 -37.34,60.4 -103.28,97.18 -174.28,97.18 -1884.44,0 -5341.69,-0.02 -7226.14,-0.01 -113.15,0 -204.86,-91.72 -204.86,-204.88l0 -1935.85c-0.04,-113.19 91.71,-204.91 204.84,-204.91z"/>
  <path class="fil7" d="M2933.78 15730.15l4685.43 0c77.62,0 148.54,43.86 183.25,113.27l967.91 1935.86c31.77,63.52 28.38,138.93 -8.96,199.33 -37.34,60.4 -103.28,97.18 -174.28,97.18l-1807.36 -0.01c-113.13,0 -204.87,-91.71 -204.87,-204.87 0,-113.13 91.71,-204.86 204.87,-204.86l1475.88 -0.01 -763.04 -1526.12 -4353.91 0 0 1526.12 2958.11 0c113.13,0 204.87,91.71 204.87,204.87 0,113.15 -91.71,204.87 -204.87,204.87l-3163.01 0c-113.15,0 -204.87,-91.71 -204.87,-204.87l0 -1935.85c-0.03,-113.19 91.72,-204.91 204.85,-204.91z"/>
  <path class="fil7" d="M8473.16 15730.15l718.87 0c77.62,0 148.54,43.86 183.24,113.27l967.94 1935.83c31.78,63.52 28.38,138.93 -8.96,199.33 -37.34,60.4 -103.28,97.18 -174.28,97.18l-908.35 -0.01c-113.13,0 -204.87,-91.71 -204.87,-204.87 0,-113.15 91.72,-204.84 204.87,-204.84l576.87 0 -763.07 -1526.12 -592.26 0c-113.12,0 -204.86,-91.71 -204.86,-204.86 -0.01,-113.19 91.71,-204.91 204.86,-204.91z"/>
  <path class="fil10" d="M24975.97 3195.82l-9174.78 0c-796.23,0 -1444.04,641.75 -1444.04,1428l-59.12 8078.86 -1790.51 0c-126.89,0 -223.82,112.19 -223.82,239.08l0 1111.85c0,1040.82 832.93,1892.03 1838.18,1938.71l0 13.35 7726.12 -0.01 0 -15.04c57.45,2.36 92.22,15.04 131.72,15.04l5.49 0c1072.12,-6.28 1936.36,-880.16 1930.75,-1952.28l0 -7066.31 2332.4 0c126.89,0 223.82,-114.89 223.82,-241.67l0 -2040.02c1.46,-829.11 -667.1,-1503.63 -1496.21,-1509.57l0 0.01z"/>
  <path class="fil6" d="M25235.97 2995.82l-9174.78 0c-796.23,0 -1444.04,641.75 -1444.04,1428l-59.12 8078.86 -1790.51 0c-126.89,0 -223.82,112.19 -223.82,239.08l0 1111.85c0,1040.82 832.93,1892.03 1838.18,1938.71l0 13.35 7726.12 -0.01 0 -15.04c57.45,2.36 92.22,15.04 131.72,15.04l5.49 0c1072.12,-6.28 1936.36,-880.16 1930.75,-1952.28l0 -7066.31 2332.4 0c126.89,0 223.82,-114.89 223.82,-241.67l0 -2040.02c1.46,-829.11 -667.1,-1503.63 -1496.21,-1509.57l0 0.01z"/>
  <path class="fil7" d="M25235.97 2995.82l-9174.78 0c-796.23,0 -1444.04,641.75 -1444.04,1428l-59.12 8078.86 -1790.51 0c-126.89,0 -223.82,112.19 -223.82,239.08l0 1111.85c0,1040.82 832.93,1892.03 1838.18,1938.71l0 13.35 7726.12 -0.01 0 -15.04c57.45,2.36 92.22,15.04 131.72,15.04l5.49 0c1072.12,-6.28 1936.36,-880.16 1930.75,-1952.28l0 -7066.31 2332.4 0c126.89,0 223.82,-114.89 223.82,-241.67l0 -2040.02c1.46,-829.11 -667.1,-1503.63 -1496.21,-1509.57l0 0.01zm-10753.56 12350.3l-1.57 0c-817.34,0 -1477.6,-675.52 -1477.6,-1492.74l0 -891.16 7295.3 0 0 887.34c-1.79,517.22 202.51,1013.78 567.7,1379.99 38.82,39.05 79.44,59.12 120.94,116.57l-6504.77 0zm9234 -1492.97c0,817.45 -653.87,1492.96 -1471.53,1492.96l-4.72 0.01c-821.7,-5.94 -1483.98,-674.73 -1482.08,-1496.44l0 -1107.92c0.68,-128.68 -101.08,-234.6 -229.77,-239.08l-5510.74 0 59.12 -8077.29c0,-534.38 441.6,-970.03 984.5,-970.03l8089.97 0c-261.86,287.22 -434.75,650.61 -434.75,1056.19l0 9341.6zm2556.22 -9343.73l0 1818.11 -2096.67 0 0 -1816.42c0,-575.1 478.4,-1055.74 1053.27,-1055.74l6.4 -0.01c576.34,5.72 1039.7,475.92 1037,1052.38l0 1.68zm0 0z"/>
  <path class="fil7" d="M22108 9386.04l-5514.55 0c-126.89,0 -229.77,102.88 -229.77,229.77 0,126.88 102.88,229.77 229.77,229.77l5514.55 0.01c126.9,0 229.77,-102.89 229.77,-229.77 0,-126.89 -102.88,-229.78 -229.77,-229.78l0 0zm0 0z"/>
  <path class="fil7" d="M20603.58 11181.48l-4070.31 0c-93.66,0 -169.59,102.88 -169.59,229.77 0,126.89 75.94,229.77 169.59,229.77l4070.31 0.01c93.66,0 169.6,-102.88 169.6,-229.77 0,-126.89 -75.94,-229.77 -169.6,-229.77l0 -0.01zm0 0z"/>
  <path class="fil7" d="M22108 5624.63l-5514.55 0c-126.89,0 -229.77,102.89 -229.77,229.77 0,126.89 102.88,229.77 229.77,229.77l5514.55 0.01c126.9,0 229.77,-102.88 229.77,-229.77 0,-126.88 -102.88,-229.77 -229.77,-229.77l0 -0.01zm0 0z"/>
  <path class="fil7" d="M22108 7517.77l-5514.55 0c-126.89,0 -229.77,102.89 -229.77,229.78 0,126.88 102.88,229.77 229.77,229.77l5514.55 0.01c126.9,0 229.77,-102.89 229.77,-229.78 0,-126.88 -102.88,-229.77 -229.77,-229.77l0 -0.01zm0 0z"/>
  <path class="fil6" d="M28921.3 15774.26l-2294.45 -2268.26c277.44,-480.78 422.02,-968.75 422.02,-1526.43 0,-1654.01 -1350.49,-2971.33 -2971.42,-2971.33 -1646.93,0 -2971.34,1341.67 -2971.34,2971.33 0,1670.95 1317.25,2971.44 2971.33,2971.44 557.55,0 1045.61,-144.6 1526.31,-421.92l2294.45 2268.26c278.26,278.26 734.46,279.27 1014,9.11 286.78,-287.36 298.62,-742.45 9.1,-1032.2z"/>
  <path class="fil9" d="M28921.3 15774.26l-2294.45 -2268.26c277.44,-480.78 422.02,-968.75 422.02,-1526.43 0,-1654.01 -1350.49,-2971.33 -2971.42,-2971.33 -1646.93,0 -2971.34,1341.67 -2971.34,2971.33 0,1670.95 1317.25,2971.44 2971.33,2971.44 557.55,0 1045.61,-144.6 1526.31,-421.92l2294.45 2268.26c278.26,278.26 734.46,279.27 1014,9.11 286.78,-287.36 298.62,-742.45 9.1,-1032.2z"/>
  <path class="fil6" d="M24067.06 10165.54c1006.79,0 1822.95,816.16 1822.95,1822.94 0,1006.79 -816.16,1822.95 -1822.95,1822.95 -1006.78,0 -1822.94,-816.16 -1822.94,-1822.95 0,-1006.78 816.16,-1822.94 1822.94,-1822.94z"/>
  <path class="fil7" d="M24077.44 13968.4c1090.51,0 1988.83,-885.92 1988.83,-1988.83 0,-1090.5 -885.88,-1988.84 -1988.83,-1988.84 -1102.89,0 -1988.84,898.38 -1988.84,1988.84 0,1102.91 898.36,1988.83 1988.84,1988.83zm0 -2643.41c173.91,0 339.75,68.98 462.71,191.92 122.93,122.91 191.95,288.79 191.95,462.66 0,90.94 73.38,164.08 164.1,164.08 91.04,0 164.08,-73.03 164.08,-164.08 0,-261.6 -103.25,-509.64 -288.2,-694.57 -184.97,-184.95 -433.01,-288.19 -694.64,-288.19 -90.73,0 -164.09,73.2 -164.09,164.1 0,90.74 73.16,164.08 164.09,164.08zm4843.86 4449.27l-2294.45 -2268.26c277.44,-480.78 422.02,-968.75 422.02,-1526.43 0,-1654.01 -1350.49,-2971.33 -2971.42,-2971.33 -1646.93,0 -2971.34,1341.67 -2971.34,2971.33 0,1670.95 1317.25,2971.44 2971.33,2971.44 557.55,0 1045.61,-144.6 1526.31,-421.92l2294.45 2268.26c278.26,278.26 734.46,279.27 1014,9.11l9.1 -9.11c277,-277.04 282.23,-728.31 11.57,-1011.5l-11.57 -11.59zm-4843.86 -6437.84c1449.13,0 2643.14,1177.53 2643.14,2643.15 0,1457.31 -1185.83,2643.15 -2643.14,2643.15 -1449.03,0 -2643.15,-1177.55 -2643.15,-2643.15 0,-1449.13 1177.53,-2643.15 2643.15,-2643.15zm4611.73 7228.82l-0.09 0.1c-153.47,153.48 -404.99,153.34 -558.49,0l4.94 -4.96c-793.55,-724.67 -1491.19,-1454.86 -2255.32,-2219.06 217.87,-175.8 382.31,-340.02 558.86,-558.85l2250.1 2223.92c153.13,153.12 154.83,404.02 0,558.85zm-4611.73 -6246.22c920.77,0 1660.65,750.12 1660.65,1660.55 0,915.63 -745.04,1660.66 -1660.65,1660.66 -910.43,0 -1660.55,-739.9 -1660.55,-1660.66 0,-910.41 739.78,-1660.55 1660.55,-1660.55z"/>
  <path class="fil11" d="M24423.05 16594.78c165.69,0 300,134.31 300,300 0,165.69 -134.31,300 -300,300 -165.69,0 -300,-134.31 -300,-300 0,-165.69 134.31,-300 300,-300z"/>
  <path class="fil5" d="M11911.01 2631.9l0 0c103.41,0 188.01,84.6 188.01,187.99l0 375.98 375.96 0c103.39,0 187.99,84.6 187.99,187.99l0 0c0,103.39 -84.6,187.99 -187.99,187.99l-375.96 0 0 375.96c0,103.4 -84.6,188.01 -188.01,188.01l0 0c-103.38,0 -187.97,-84.61 -187.97,-188.01l0 -375.96 -375.98 0c-103.41,0 -188.01,-84.6 -188.01,-187.99l0 0c0,-103.39 84.6,-187.99 188.01,-187.99l375.98 0 0 -375.98c0,-103.39 84.59,-187.99 187.97,-187.99z"/>
  <path class="fil5" d="M1739.43 12214.5c110.46,0 200,89.54 200,200 0,110.46 -89.54,200 -200,200 -110.46,0 -200,-89.54 -200,-200 0,-110.46 89.54,-200 200,-200z"/>
  <path class="fil12" d="M2800.36 18821.27l0 0c78.89,0 143.43,64.54 143.43,143.42l0 286.83 286.81 0c78.88,0 143.42,64.53 143.42,143.41l0 0c0,78.88 -64.54,143.41 -143.42,143.41l-286.81 0 0 286.82c0,78.88 -64.54,143.43 -143.43,143.43l0 0c-78.86,0 -143.4,-64.55 -143.4,-143.43l0 -286.82 -286.83 0c-78.89,0 -143.43,-64.53 -143.43,-143.41l0 0c0,-78.88 64.54,-143.41 143.43,-143.41l286.83 0 0 -286.83c0,-78.88 64.54,-143.42 143.4,-143.42z"/>
  <path class="fil5" d="M27739.16 1119.08l0.02 0c85.27,0 155.04,69.76 155.04,155.04l0 310.11c0,85.28 -69.77,155.04 -155.04,155.04l-0.02 0c-85.28,0 -155.04,-69.76 -155.04,-155.04l0 -310.11c0,-85.28 69.76,-155.04 155.04,-155.04zm155.41 775.6l0 -0.02c0,-85.27 69.76,-155.03 155.03,-155.03l310.12 0c85.27,0 155.03,69.76 155.03,155.03l0 0.02c0,85.28 -69.76,155.04 -155.03,155.04l-310.12 0c-85.27,0 -155.03,-69.76 -155.03,-155.04zm-931 0l0 -0.02c0,-85.27 69.76,-155.03 155.04,-155.03l310.11 0c85.28,0 155.04,69.76 155.04,155.03l0 0.02c0,85.28 -69.76,155.04 -155.04,155.04l-310.11 0c-85.28,0 -155.04,-69.76 -155.04,-155.04zm775.59 155.39l0.02 0c85.27,0 155.04,69.76 155.04,155.04l0 310.11c0,85.28 -69.77,155.04 -155.04,155.04l-0.02 0c-85.28,0 -155.04,-69.76 -155.04,-155.04l0 -310.11c0,-85.28 69.76,-155.04 155.04,-155.04z"/>
 </g>
</svg>
