<?xml version="1.0" encoding="UTF-8"?>
<!DOCTYPE svg PUBLIC "-//W3C//DTD SVG 1.1//EN" "http://www.w3.org/Graphics/SVG/1.1/DTD/svg11.dtd">
<!-- Creator: CorelDRAW 2018 (64-Bit) -->
<svg xmlns="http://www.w3.org/2000/svg" xml:space="preserve" width="297mm" height="210mm" version="1.1" style="shape-rendering:geometricPrecision; text-rendering:geometricPrecision; image-rendering:optimizeQuality; fill-rule:evenodd; clip-rule:evenodd"
viewBox="0 0 29700 21000"
 xmlns:xlink="http://www.w3.org/1999/xlink">
 <defs>
  <style type="text/css">
   <![CDATA[
    .fil7 {fill:#343743}
    .fil6 {fill:#D4B4FD}
    .fil1 {fill:#DE749B}
    .fil12 {fill:#EADAFE}
    .fil13 {fill:#EFC7D7}
    .fil11 {fill:#F4D5E1}
    .fil10 {fill:#F5CC9D}
    .fil0 {fill:#F8F4FF}
    .fil5 {fill:white}
    .fil2 {fill:#343743;fill-rule:nonzero}
    .fil9 {fill:#343743;fill-rule:nonzero}
    .fil3 {fill:white;fill-rule:nonzero}
    .fil4 {fill:#343743;fill-opacity:0.149020}
    .fil8 {fill:#343743;fill-opacity:0.149020}
   ]]>
  </style>
 </defs>
 <g id="Слой_x0020_1">
  <metadata id="CorelCorpID_0Corel-Layer"/>
  <path class="fil0" d="M7420.3 6217.37c938.16,0 1745.98,240.41 2670.96,240.41 2518.78,0 4828.51,-1270.22 6189.12,-3353.34 1340.78,-1866.06 3529.7,-3081.69 6002.88,-3081.69 4079.92,0 7387.35,3307.43 7387.35,7387.35 0,4079.92 -3307.43,7387.35 -7387.35,7387.35 -902.49,0 -1756.92,-212.03 -2667,-212.03 -2576.38,0 -4844.3,1319.19 -6166.27,3318.63l-12.08 -13.48c-1339.51,1877.39 -3535.56,3101.54 -6017.61,3101.54 -4079.93,0 -7387.37,-3307.44 -7387.37,-7387.37 0,-4079.93 3307.44,-7387.37 7387.37,-7387.37z"/>
  <path class="fil1" d="M3694.19 936.01c1063.8,0 1926.18,862.38 1926.18,1926.18 0,1063.8 -862.38,1926.18 -1926.18,1926.18 -1063.8,0 -1926.18,-862.38 -1926.18,-1926.18 0,-1063.8 862.38,-1926.18 1926.18,-1926.18z"/>
  <g>
   <path class="fil2" d="M5286.44 2119.72c-39.52,-84.75 -2.86,-185.51 81.89,-225.03 84.75,-39.52 185.51,-2.86 225.03,81.89l-306.92 143.14zm503.26 742.47l-338.66 0 0 0 -0.16 -24.05 -0.5 -24.01 -0.82 -23.99 -1.15 -23.99 -1.46 -23.92 -1.81 -23.88 -2.13 -23.9 -2.44 -23.82 -2.77 -23.78 -3.09 -23.72 -3.42 -23.66 -3.74 -23.63 -4.06 -23.58 -4.38 -23.51 -4.7 -23.45 -5.02 -23.39 -5.32 -23.29 -5.66 -23.22 -5.96 -23.16 -6.29 -23.06 -6.59 -23 -6.91 -22.9 -7.23 -22.84 -7.54 -22.73 -7.84 -22.61 -8.15 -22.48 -8.49 -22.46 -8.77 -22.32 -9.09 -22.19 -9.4 -22.11 -9.69 -21.96 -10.02 -21.86 306.92 -143.14 11.94 26.06 11.59 26.24 11.2 26.33 10.85 26.51 10.47 26.62 10.09 26.7 9.75 26.9 9.36 27.01 8.98 27.09 8.61 27.2 8.25 27.32 7.87 27.42 7.49 27.52 7.12 27.62 6.74 27.72 6.36 27.81 5.98 27.87 5.6 27.97 5.22 28.03 4.84 28.1 4.46 28.17 4.08 28.26 3.69 28.32 3.31 28.36 2.92 28.42 2.53 28.42 2.15 28.54 1.76 28.56 1.37 28.57 0.98 28.63 0.58 28.65 0.2 28.67 0 0zm-2095.51 2095.51l0 -338.66 0 0 90.58 -2.29 89.29 -6.79 87.92 -11.17 86.48 -15.45 84.94 -19.6 83.31 -23.67 81.57 -27.59 79.73 -31.44 77.77 -35.16 75.72 -38.79 73.57 -42.3 71.29 -45.7 68.88 -48.98 66.4 -52.19 63.78 -55.25 61.05 -58.2 58.2 -61.05 55.25 -63.78 52.19 -66.4 48.98 -68.88 45.7 -71.29 42.3 -73.57 38.79 -75.72 35.16 -77.77 31.44 -79.73 27.59 -81.57 23.67 -83.31 19.6 -84.94 15.45 -86.48 11.17 -87.92 6.79 -89.29 2.29 -90.58 338.66 0 -2.73 107.66 -8.07 106.35 -13.33 104.88 -18.43 103.22 -23.42 101.44 -28.25 99.51 -32.97 97.43 -37.54 95.21 -41.98 92.87 -46.29 90.38 -50.46 87.75 -54.5 85.03 -58.42 82.14 -62.19 79.14 -65.83 76 -69.36 72.73 -72.73 69.36 -76 65.83 -79.14 62.19 -82.14 58.42 -85.03 54.5 -87.75 50.46 -90.38 46.29 -92.87 41.98 -95.21 37.54 -97.43 32.97 -99.51 28.25 -101.44 23.42 -103.22 18.43 -104.88 13.33 -106.35 8.07 -107.66 2.73 0 0zm-2095.51 -2095.51l338.66 0 0 0 2.29 90.58 6.79 89.29 11.17 87.92 15.45 86.48 19.6 84.94 23.67 83.31 27.59 81.57 31.44 79.73 35.16 77.77 38.79 75.72 42.3 73.57 45.7 71.29 48.98 68.88 52.19 66.4 55.25 63.78 58.19 61.05 61.06 58.2 63.78 55.25 66.4 52.19 68.88 48.98 71.29 45.7 73.57 42.3 75.72 38.79 77.77 35.16 79.73 31.44 81.57 27.59 83.31 23.67 84.94 19.6 86.48 15.45 87.92 11.17 89.29 6.79 90.58 2.29 0 338.66 -107.66 -2.73 -106.35 -8.07 -104.88 -13.33 -103.22 -18.43 -101.44 -23.42 -99.51 -28.25 -97.43 -32.97 -95.21 -37.54 -92.87 -41.98 -90.38 -46.29 -87.75 -50.46 -85.03 -54.5 -82.14 -58.42 -79.14 -62.19 -76 -65.83 -72.74 -69.36 -69.35 -72.73 -65.83 -76 -62.19 -79.14 -58.42 -82.14 -54.5 -85.03 -50.46 -87.75 -46.29 -90.38 -41.98 -92.87 -37.54 -95.21 -32.97 -97.43 -28.25 -99.51 -23.42 -101.44 -18.43 -103.22 -13.33 -104.88 -8.07 -106.35 -2.73 -107.66 0 0zm2095.51 -2095.51l0 338.66 0 0 -90.58 2.29 -89.29 6.79 -87.92 11.17 -86.48 15.45 -84.94 19.6 -83.31 23.67 -81.57 27.59 -79.73 31.44 -77.77 35.16 -75.72 38.79 -73.57 42.3 -71.29 45.7 -68.88 48.98 -66.4 52.19 -63.79 55.25 -61.05 58.19 -58.19 61.05 -55.25 63.79 -52.19 66.4 -48.98 68.88 -45.7 71.29 -42.3 73.57 -38.79 75.72 -35.16 77.77 -31.44 79.73 -27.59 81.57 -23.67 83.31 -19.6 84.94 -15.45 86.48 -11.17 87.92 -6.79 89.29 -2.29 90.58 -338.66 0 2.73 -107.66 8.07 -106.35 13.33 -104.88 18.43 -103.22 23.42 -101.44 28.25 -99.51 32.97 -97.43 37.54 -95.21 41.98 -92.87 46.29 -90.38 50.46 -87.75 54.5 -85.03 58.42 -82.14 62.19 -79.14 65.83 -75.99 69.35 -72.75 72.75 -69.35 75.99 -65.83 79.14 -62.19 82.14 -58.42 85.03 -54.5 87.75 -50.46 90.38 -46.29 92.87 -41.98 95.21 -37.54 97.43 -32.97 99.51 -28.25 101.44 -23.42 103.22 -18.43 104.88 -13.33 106.35 -8.07 107.66 -2.73 0 0zm1201.93 378.96l-194.24 277.42 -27.85 -19.1 -28.18 -18.54 -28.49 -17.99 -28.79 -17.39 -29.11 -16.84 -29.36 -16.26 -29.64 -15.66 -29.93 -15.11 -30.16 -14.5 -30.47 -13.93 -30.68 -13.35 -30.89 -12.73 -31.16 -12.16 -31.34 -11.55 -31.57 -10.94 -31.79 -10.36 -31.95 -9.74 -32.13 -9.14 -32.3 -8.51 -32.5 -7.92 -32.63 -7.29 -32.79 -6.67 -32.91 -6.06 -33.03 -5.41 -33.19 -4.8 -33.29 -4.17 -33.38 -3.54 -33.48 -2.89 -33.57 -2.26 -33.62 -1.61 -33.73 -0.97 -33.78 -0.33 0 -338.66 40.28 0.39 40.19 1.15 40.16 1.93 40.03 2.7 39.94 3.45 39.84 4.22 39.69 4.97 39.55 5.72 39.43 6.47 39.27 7.22 39.09 7.95 38.93 8.71 38.72 9.42 38.56 10.17 38.35 10.9 38.11 11.62 37.87 12.34 37.65 13.06 37.42 13.79 37.12 14.48 36.91 15.21 36.58 15.91 36.27 16.59 36.04 17.32 35.69 18.01 35.38 18.7 35.04 19.4 34.67 20.06 34.35 20.77 33.97 21.43 33.6 22.1 33.23 22.8zm0 0c76.6,53.63 95.22,159.23 41.59,235.83 -53.63,76.6 -159.23,95.22 -235.83,41.59l194.24 -277.42z"/>
  </g>
  <path class="fil3" d="M4292.65 3237.99c0,82.93 -12.05,165.37 -36.15,247.33 -24.11,81.97 -61.24,155.73 -111.38,221.3 -50.14,65.57 -115.23,118.6 -195.26,159.1 -80.03,40.5 -175.01,60.75 -284.94,60.75 -32.78,0 -82.44,-2.89 -148.98,-8.68 -66.53,-5.78 -133.55,-17.35 -201.04,-34.71 -67.5,-17.36 -126.8,-41.94 -177.91,-73.77 -51.11,-31.82 -76.66,-73.76 -76.66,-125.83 0,-38.57 13.98,-72.32 41.95,-101.25 27.96,-28.93 64.12,-43.39 108.48,-43.39 23.14,0 47.24,5.79 72.31,17.36 25.08,11.57 53.04,24.1 83.9,37.6 30.85,13.5 64.6,26.04 101.24,37.61 36.64,11.57 80.04,17.36 130.18,17.36 71.35,0 131.62,-11.58 180.8,-34.72 49.17,-23.14 88.23,-53.51 117.15,-91.12 28.93,-37.61 49.66,-80.03 62.2,-127.28 12.53,-47.25 18.8,-95.95 18.8,-146.09 0,-63.64 -8.19,-118.12 -24.59,-163.44 -16.39,-45.32 -39.05,-83.41 -67.98,-114.27 -28.92,-30.85 -63.16,-53.51 -102.69,-67.98 -39.54,-14.46 -81.48,-21.69 -125.84,-21.69 -38.57,0 -72.32,3.86 -101.24,11.57 -28.93,7.71 -56.9,19.28 -83.89,34.71 -7.72,3.86 -18.33,10.61 -31.83,20.25 -13.49,9.65 -27.96,19.29 -43.39,28.93 -15.43,9.64 -32.3,18.32 -50.62,26.04 -18.32,7.71 -37.12,11.57 -56.41,11.57 -46.28,0 -84.37,-14.95 -114.26,-44.84 -29.9,-29.89 -44.84,-68.95 -44.84,-117.16l28.93 -830.23c1.92,-50.14 20.73,-89.67 56.4,-118.6 35.68,-28.93 75.7,-43.39 120.05,-43.39l697.16 0c19.29,0 39.06,2.41 59.31,7.23 20.25,4.82 39.05,13.02 56.41,24.59 17.35,11.57 31.82,27 43.39,46.28 11.57,19.29 17.35,42.43 17.35,69.43 0,52.07 -18.8,88.71 -56.4,109.92 -37.61,21.22 -77.63,31.83 -120.06,31.83l-584.34 0c-3.85,82.92 -7.23,165.85 -10.12,248.77 -2.89,82.93 -6.27,166.82 -10.13,251.68 36.65,-17.36 74.25,-29.41 112.82,-36.16 38.57,-6.75 79.07,-10.13 121.5,-10.13 92.57,0 177.42,14.47 254.56,43.39 77.14,28.93 143.68,70.39 199.61,124.39 55.92,54 99.31,120.54 130.17,199.6 30.86,79.07 46.28,167.79 46.28,266.14z"/>
  <path class="fil4" d="M9112.6 6406.52l-7395.49 0c-118.81,0 -215.16,96.33 -215.16,215.17l0 10370.98c0,118.84 96.35,215.17 215.16,215.17l5623.48 0c57.07,0 111.77,-22.68 152.14,-63.02l1772.03 -1772.04c40.34,-40.34 63.01,-95.07 63.01,-152.15l0.01 -8598.94c0,-118.84 -96.35,-215.17 -215.18,-215.17z"/>
  <path class="fil5" d="M9323.97 6233.58l-7395.49 0c-118.81,0 -215.16,96.33 -215.16,215.17l0 10370.98c0,118.84 96.35,215.17 215.16,215.17l5623.48 0c57.07,0 111.77,-22.68 152.15,-63.02l1772.02 -1772.05c40.34,-40.33 63.02,-95.06 63.02,-152.14l0 -8598.94c0,-118.84 -96.35,-215.17 -215.18,-215.17z"/>
  <path class="fil6" d="M3922.51 13996.52c541.57,0 980.68,439.07 980.68,980.69 0,541.62 -439.11,980.69 -980.68,980.69 -541.56,0 -980.67,-439.07 -980.67,-980.69 0,-541.62 439.11,-980.69 980.67,-980.69z"/>
  <path class="fil7" d="M9323.97 6233.58l-7395.49 0c-118.81,0 -215.16,96.33 -215.16,215.17l0 10370.98c0,118.84 96.35,215.17 215.16,215.17l5623.48 0c57.07,0 111.77,-22.68 152.15,-63.02l1772.02 -1772.05c40.34,-40.33 63.02,-95.06 63.02,-152.14l0 -8598.94c0,-118.84 -96.35,-215.17 -215.18,-215.17zm-5655.04 2428.33c0,29.4 -11.16,54.44 -33.48,75.12 -22.32,20.69 -49.26,31.03 -80.83,31.03l-432.76 0c-19.6,0 -38.65,-1.9 -57.16,-5.71 -18.51,-3.81 -34.84,-10.07 -48.99,-18.78 -14.16,-8.71 -25.32,-20.69 -33.48,-35.93 -8.17,-15.24 -12.25,-33.75 -12.25,-55.52l0 -919.41c0,-14.16 3.27,-28.31 9.8,-42.46 6.53,-14.16 15.24,-26.68 26.13,-37.56 10.88,-10.89 23.95,-19.6 39.19,-26.13 15.24,-6.54 32.12,-9.8 50.63,-9.8l442.56 0c31.57,0 58.51,10.61 80.83,31.85 22.32,21.22 33.48,45.99 33.48,74.3 0,29.39 -11.16,53.62 -33.48,72.67 -22.32,19.05 -49.26,28.58 -80.83,28.58l-339.68 0 0 262.92 308.65 0c28.3,0 54.16,9.8 77.56,29.39 23.41,19.6 35.12,44.1 35.12,73.49 0,29.4 -10.89,54.16 -32.66,74.31 -21.78,20.14 -48.45,30.21 -80.02,30.21l-308.65 0 0 266.18 356.01 0c30.48,0 57.15,9.8 80.01,29.4 22.87,19.6 34.3,43.55 34.3,71.85zm489.96 14.7c0,28.31 -11.16,52.81 -33.48,73.49 -22.32,20.69 -49.26,31.03 -80.83,31.03 -31.58,0 -58.53,-10.34 -80.85,-31.03 -22.31,-20.68 -33.47,-45.18 -33.47,-73.49l0 -947.17c0,-14.15 2.99,-27.76 8.98,-40.83 5.99,-13.06 14.42,-25.04 25.31,-35.92 10.89,-10.89 23.96,-19.6 39.2,-26.13 15.24,-6.54 31.57,-9.8 48.99,-9.8l444.19 0c31.57,0 58.24,10.34 80.02,31.03 21.77,20.69 32.66,45.18 32.66,73.48 0,29.4 -10.89,53.9 -32.66,73.49 -21.78,19.6 -48.45,29.4 -80.02,29.4l-338.04 0 0 852.45zm942.32 -300.48l0 298.85c0,28.31 -11.17,53.35 -33.48,75.12 -22.32,21.78 -49.27,32.66 -80.84,32.66 -30.48,0 -57.16,-10.61 -80.02,-31.84 -22.86,-21.23 -34.29,-46.55 -34.29,-75.94l0 -940.64c0,-16.33 3.53,-31.57 10.61,-45.73 7.08,-14.15 16.33,-26.39 27.76,-36.74 11.43,-10.34 24.77,-18.78 40.01,-25.31 15.24,-6.54 31.58,-9.8 49,-9.8l240.05 0c76.21,0 140.99,10.61 194.34,31.85 53.34,21.22 96.35,49.53 129.01,84.92 32.66,35.38 56.34,75.93 71.03,121.65 14.7,45.73 22.05,93.64 22.05,143.71 0,60.97 -9.79,114.86 -29.39,161.68 -19.6,46.81 -47.63,86.01 -84.11,117.58 -36.47,31.57 -80.29,55.79 -131.45,72.67 -51.18,16.88 -108.33,25.31 -171.48,25.31l-138.8 0zm0 -207.4l138.8 0c62.06,0 108.87,-13.88 140.45,-41.64 31.57,-27.76 47.36,-71.04 47.36,-129.83 0,-20.68 -2.73,-41.37 -8.17,-62.05 -5.44,-20.69 -14.97,-39.2 -28.58,-55.53 -13.61,-16.33 -32.66,-29.67 -57.16,-40.01 -24.49,-10.34 -55.79,-15.51 -93.9,-15.51l-138.8 0 0 344.57zm1606.96 614.03c-67.5,0 -126.83,-10.88 -178,-32.66 -51.17,-21.77 -93.9,-51.44 -128.2,-89 -34.29,-37.56 -59.87,-81.38 -76.75,-131.46 -16.88,-50.08 -25.31,-103.97 -25.31,-161.68l0 -73.48 -146.98 0 0 382.13c0,28.31 -11.16,53.08 -33.47,74.31 -22.32,21.23 -49.27,31.84 -80.84,31.84 -31.58,0 -58.52,-10.61 -80.84,-31.84 -22.32,-21.23 -33.47,-46 -33.47,-74.31l0 -970.03c0,-28.31 11.15,-52.8 33.47,-73.49 22.32,-20.68 49.26,-31.03 80.84,-31.03 31.57,0 58.52,10.35 80.84,31.03 22.31,20.69 33.47,45.18 33.47,73.49l0 380.5 146.98 0 0 -71.86c0,-56.61 7.34,-109.95 22.04,-160.04 14.7,-50.07 38.38,-93.9 71.04,-131.45 32.66,-37.57 74.85,-67.23 126.56,-89.01 51.71,-21.77 114.59,-32.66 188.62,-32.66 72.94,0 135.27,10.89 186.98,32.66 51.72,21.78 93.91,51.44 126.57,89.01 32.66,37.55 56.61,81.38 71.85,131.45 15.24,50.09 22.87,103.43 22.87,160.04l0 352.74c0,57.71 -8.44,111.6 -25.32,161.68 -16.87,50.08 -42.46,93.9 -76.75,131.46 -34.3,37.56 -77.03,67.23 -128.2,89 -51.16,21.78 -110.5,32.66 -178,32.66zm0 -973.3c-66.41,0 -112.95,18.78 -139.63,56.34 -26.67,37.56 -40,87.37 -40,149.42l0 352.74c0,62.06 14.42,112.14 43.27,150.24 28.85,38.11 74.31,57.16 136.36,57.16 62.06,0 107.51,-19.05 136.36,-57.16 28.85,-38.1 43.28,-88.18 43.28,-150.24l0 -352.74c0,-62.05 -13.34,-111.86 -40.01,-149.42 -26.68,-37.56 -73.22,-56.34 -139.63,-56.34zm872.09 -75.12c1.09,-16.33 5.17,-31.57 12.25,-45.73 7.08,-14.15 16.33,-26.39 27.76,-36.74 11.43,-10.34 24.5,-18.78 39.2,-25.31 14.69,-6.54 30.75,-9.8 48.17,-9.8l445.83 0c17.41,0 33.74,3.26 48.99,9.8 15.24,6.53 28.58,14.97 40,25.31 11.44,10.35 20.69,22.59 27.77,36.74 7.08,14.16 10.61,29.4 10.61,45.73l0 943.9c-2.18,28.31 -14.15,52.26 -35.92,71.86 -21.78,19.6 -47.91,29.4 -78.39,29.4 -32.66,0 -59.88,-9.8 -81.65,-29.4 -21.78,-19.6 -32.66,-44.09 -32.66,-73.49l0 -854.09 -254.76 0 -47.36 648.33c-4.36,44.63 -12.25,86.01 -23.68,124.11 -11.43,38.1 -27.49,70.76 -48.18,97.98 -20.68,27.22 -45.99,48.45 -75.93,63.69 -29.94,15.25 -65.05,22.87 -105.33,22.87 -21.78,0 -43.01,-0.55 -63.69,-1.64 -20.69,-1.09 -39.2,-4.89 -55.53,-11.43 -16.33,-6.53 -29.39,-16.87 -39.19,-31.03 -9.8,-14.15 -14.7,-34.29 -14.7,-60.42 0,-38.1 11.16,-65.59 33.48,-82.47 22.32,-16.87 47.63,-25.31 75.94,-25.31 6.53,0 12.24,0.81 17.14,2.45 4.9,1.63 11.16,2.45 18.78,2.45l9.8 0c23.95,0 38.65,-32.66 44.1,-97.99l57.15 -739.77zm-318.77 4962.53l-4141.95 0c-118.81,0 -215.16,96.32 -215.16,215.16 0,118.83 96.35,215.16 215.16,215.16l4141.95 0c118.81,0 215.16,-96.33 215.16,-215.16 0,-118.84 -96.35,-215.16 -215.16,-215.16zm871.42 -1019.6l-5013.37 0c-118.81,0 -215.16,96.33 -215.16,215.17 0,118.83 96.35,215.16 215.16,215.16l5013.35 0c118.82,0 215.16,-96.33 215.16,-215.16 0.02,-118.84 -96.32,-215.17 -215.14,-215.17zm0 -970.98l-5013.37 0c-118.81,0 -215.16,96.33 -215.16,215.16 0,118.84 96.35,215.16 215.16,215.16l5013.35 0c118.82,0 215.16,-96.33 215.16,-215.16 0.02,-118.84 -96.32,-215.16 -215.14,-215.16zm0 -999.04l-5013.37 0c-118.81,0 -215.16,96.33 -215.16,215.16 0,118.84 96.35,215.16 215.16,215.16l5013.35 0c118.82,0 215.16,-96.33 215.16,-215.16 0,-118.84 -96.32,-215.16 -215.14,-215.16zm-1409.34 5089.92l-1183.41 0c-118.82,0 -215.17,96.32 -215.17,215.16 0,118.83 96.35,215.16 215.17,215.16l1183.41 0c118.82,0 215.17,-96.33 215.17,-215.16 0,-118.84 -96.35,-215.16 -215.17,-215.16zm-2805.66 -800.65c-541.06,0 -981.25,440.18 -981.25,981.26 0,541.09 440.21,981.27 981.25,981.27 541.08,0 981.28,-440.18 981.28,-981.27 0.04,-541.06 -440.18,-981.26 -981.28,-981.26zm0 1532.22c-303.79,0 -550.93,-247.16 -550.93,-550.94 0,-303.79 247.15,-550.93 550.93,-550.93 303.79,0 550.95,247.14 550.95,550.93 0,303.78 -247.12,550.94 -550.95,550.94zm3848.81 791.92l-0.92 -1079.14 1059.14 0.95 -1058.22 1078.19zm1382.1 -1488.24l-1598.21 -1.41c-118.94,0 -215.45,96.36 -215.35,215.34l1.4 1578.23 -5233.02 0 0 -10000.67 7045.18 0 0 8208.51z"/>
  <path class="fil8" d="M14071.61 4502.31l517.09 0c104.75,0 189.67,84.92 189.67,189.68 0,1953.89 0,3907.77 0,5861.67 0,1273.73 -1036.17,2309.9 -2309.9,2309.9 -1273.71,0 -2309.82,-1036.21 -2309.82,-2309.9l0.15 0 0.01 -5861.68 -0.15 0c0,-104.71 85.01,-189.67 189.67,-189.67l517.01 0 0 -357.39 0 -1531.73 0 -119.57 3.55 0c17.42,-88.58 95.54,-153.07 186.11,-153.07l2826.94 0c104.83,0 189.5,84.91 189.52,189.68l0.15 0 0 1972.08z"/>
  <polygon class="fil5" points="11094.06,2454.85 14085.93,2454.85 14085.93,4540.57 11094.06,4540.57 "/>
  <path class="fil6" d="M14817.41 4343.97c104.76,0 189.68,84.92 189.68,189.67 0,6562.26 0,5756.82 0,5861.68 0,1273.73 -1036.17,2309.9 -2309.91,2309.9 -1273.7,0 -2309.81,-1036.21 -2309.81,-2309.9l0.14 0 0.01 -5861.68 -0.14 0c0,-104.71 85,-189.67 189.67,-189.67 5812.37,0 -2516.04,0 4240.36,0z"/>
  <path class="fil7" d="M11094.06 3986.58l0 -1651.3 3.55 0c17.42,-88.58 95.54,-153.07 186.11,-153.07l2826.93 0c104.84,0 189.51,84.9 189.52,189.68l0.15 0 0 1972.08 517.09 0c104.76,0 189.68,84.92 189.68,189.67l0 4158.82c0,104.75 -84.92,189.67 -189.68,189.67 -104.76,0 -189.67,-84.92 -189.67,-189.67l0 -3969.15 -3861.03 0 0 5672.01 -0.14 0c0,1064.35 866.26,1930.55 1930.61,1930.55l0 0.15c1064.38,0 1930.56,-866.35 1930.56,-1930.7l0 -1073.99c0,-104.62 85.04,-189.67 189.67,-189.67 104.76,0 189.51,84.97 189.53,189.67l0.15 0 0 1073.99c0,1273.73 -1036.17,2309.9 -2309.91,2309.9 -1273.7,0 -2309.81,-1036.21 -2309.81,-2309.9l0.14 0 0.01 -5861.68 -0.14 0c0,-104.71 85,-189.67 189.67,-189.67l3343.92 0 0 -1782.41 -2447.7 0 -0.01 1425.02 0.14 0c0,104.74 -84.93,189.66 -189.67,189.66 -104.71,0 -189.67,-84.95 -189.67,-189.66z"/>
  <path class="fil7" d="M12100.76 3794.51l0 -683.57 306.15 0 0 683.57 -306.15 0zm0 0z"/>
  <path class="fil7" d="M12987.55 3794.51l0 -683.57 306.15 0 0 683.57 -306.15 0zm0 0z"/>
  <path class="fil9" d="M12962.4 9759.99c103.57,0 197.05,12.72 280.43,38.18 83.38,25.45 154.48,64.07 213.28,115.86 58.81,51.78 104.45,117.17 136.93,196.17 32.47,78.99 48.71,172.91 48.71,281.74 0,64.96 -6.58,127.71 -19.75,188.27 -13.16,60.57 -31.15,114.55 -53.98,161.94 -22.82,47.4 -49.59,85.14 -80.31,113.23 -30.72,28.09 -63.63,42.13 -98.74,42.13 -33.35,0 -62.32,-12.73 -86.89,-38.18 -24.58,-25.45 -36.87,-57.49 -36.87,-96.11 0,-24.57 3.95,-43.45 11.85,-56.62 7.9,-13.16 17.99,-29.4 30.28,-48.71 24.58,-40.37 43.89,-80.31 57.93,-119.8 14.04,-39.5 21.06,-83.83 21.06,-132.98 0,-66.71 -9.65,-122.88 -28.96,-168.52 -19.31,-45.64 -47.4,-82.07 -84.26,-109.28 -36.86,-27.21 -81.63,-46.96 -134.29,-59.25 -52.66,-12.28 -111.47,-18.43 -176.42,-18.43l-134.29 0 0 450.27c0,40.38 -13.61,73.73 -40.82,100.06 -27.2,26.34 -60.12,39.5 -98.74,39.5 -38.62,0 -70.66,-14.04 -96.11,-42.13 -25.45,-28.08 -38.18,-60.56 -38.18,-97.43l0 -450.27 -134.29 0c-64.95,0 -123.76,6.15 -176.42,18.43 -52.67,12.29 -97.43,32.04 -134.3,59.25 -36.86,27.21 -64.95,63.64 -84.26,109.28 -19.31,45.64 -28.96,101.81 -28.96,168.52 0,77.24 16.67,143.95 50.03,200.12 14.04,24.57 29.84,49.59 47.4,75.05 17.55,25.45 26.33,53.1 26.33,82.94 0,38.62 -12.29,70.66 -36.87,96.11 -24.57,25.45 -54.42,38.18 -89.52,38.18 -33.36,0 -65.39,-14.04 -96.12,-42.13 -30.71,-28.09 -57.92,-65.83 -81.62,-113.23 -23.7,-47.39 -42.13,-101.37 -55.3,-161.94 -13.16,-60.56 -19.75,-123.31 -19.75,-188.27 0,-108.83 16.24,-202.75 48.71,-281.74 32.48,-79 78.12,-144.39 136.93,-196.17 58.81,-51.79 130.34,-90.41 214.6,-115.86 84.26,-25.46 177.3,-38.18 279.12,-38.18l542.43 0zm658.29 -631.08c0,40.37 -13.61,74.61 -40.82,102.69 -27.21,28.09 -59.24,42.13 -96.11,42.13l-1603.59 0c-38.62,0 -71.53,-14.04 -98.74,-42.13 -27.21,-28.08 -40.82,-62.32 -40.82,-102.69 0,-40.37 13.61,-74.61 40.82,-102.69 27.21,-28.09 60.12,-42.14 98.74,-42.14l1471.93 0 0 -639.85 -1471.93 0c-38.62,0 -71.53,-14.49 -98.74,-43.45 -27.21,-28.96 -40.82,-62.75 -40.82,-101.37 0,-40.38 13.61,-74.61 40.82,-102.7 27.21,-28.08 60.12,-42.13 98.74,-42.13l1471.93 0 0 -65.83c0,-38.62 13.61,-72.41 40.82,-101.38 27.21,-28.96 59.24,-43.44 96.11,-43.44l408.14 0c38.62,0 71.53,14.48 98.74,43.44 27.21,28.97 40.81,62.76 40.81,101.38 0,38.62 -13.6,72.41 -40.81,101.38 -27.21,28.96 -60.12,43.44 -98.74,43.44l-276.48 0 0 129.03 0 2.63 0 863.68zm-113.23 -2908.76c36.86,0 69.34,14.05 97.43,42.13 28.08,28.09 42.13,62.32 42.13,102.7 0,38.62 -14.05,72.41 -42.13,101.37 -28.09,28.97 -60.57,43.45 -97.43,43.45l-1474.57 0 0 639.86 1474.57 0c36.86,0 69.34,14.04 97.43,42.13 28.08,28.08 42.13,62.32 42.13,102.69 0,40.37 -14.05,74.61 -42.13,102.69 -28.09,28.09 -60.57,42.14 -97.43,42.14l-1606.22 0c-36.87,0 -69.35,-14.05 -97.43,-42.14 -28.09,-28.08 -42.13,-62.32 -42.13,-102.69l0 -929.5c0,-38.62 14.04,-72.42 42.13,-101.38 28.08,-28.96 60.56,-43.45 97.43,-43.45l1606.22 0z"/>
  <polygon class="fil8" points="24893.18,4764.21 24893.18,2257.05 17502,2257.05 17502,11710.89 18361.44,11710.89 18361.44,12570.33 25752.62,12570.33 25752.62,5623.64 "/>
  <polygon class="fil5" points="25153.18,4524.21 25153.18,2017.05 17762,2017.05 17762,11470.89 18621.44,11470.89 18621.44,12330.33 26012.62,12330.33 26012.62,5383.64 "/>
  <path class="fil7" d="M24465.63 6314.25l-4297.2 0c-94.89,0 -171.89,76.83 -171.89,171.88 0,95.06 77,171.9 171.89,171.9l4297.2 0c94.89,0 171.89,-76.84 171.89,-171.9 0,-95.05 -77,-171.88 -171.89,-171.88zm687.55 -1790.04l0 -2507.16 -7391.18 0 0 9453.84 859.44 0 0 859.44 7391.18 0 0 -6946.69 -859.44 -859.43zm-1546.99 -1060.9l1546.99 1547 272.62 272.61 -1819.61 0 0 -1819.61zm-5500.42 7663.81l0 -8766.3 6703.63 0 0 1819.61 -1303.94 -1303.94 -4884.02 0 0 8250.63 -515.67 0zm859.45 859.44l0 -515.67 0 -8250.63 4297.19 0 0 2406.44 2406.44 0 0 6359.86 -6703.63 0zm5500.41 -1547l-4297.2 0c-94.89,0 -171.89,76.84 -171.89,171.9 0,95.05 77,171.88 171.89,171.88l4297.2 0c94.89,0 171.89,-76.83 171.89,-171.88 0,-95.06 -77,-171.9 -171.89,-171.9zm0 -1375.1l-4297.2 0c-94.89,0 -171.89,76.83 -171.89,171.88 0,95.06 77,171.9 171.89,171.9l4297.2 0c94.89,0 171.89,-76.84 171.89,-171.9 0,-95.05 -77,-171.88 -171.89,-171.88zm0 -1375.11l-4297.2 0c-94.89,0 -171.89,76.84 -171.89,171.9 0,95.05 77,171.88 171.89,171.88l4297.2 0c94.89,0 171.89,-76.83 171.89,-171.88 0,-95.06 -77,-171.9 -171.89,-171.9zm-4297.2 -2406.43l1718.88 0c94.88,0 171.88,-76.83 171.88,-171.88 0,-95.06 -77,-171.9 -171.88,-171.9l-1718.88 0c-94.89,0 -171.89,76.84 -171.89,171.9 0,95.05 77,171.88 171.89,171.88z"/>
  <path class="fil8" d="M16984.28 9618.89l4335.1 3637.6c302.07,253.51 341.8,705.12 88.26,1007.27 -375.7,447.74 -4749.54,5703.48 -4975.06,5929 -254.05,299.98 -703.99,338.42 -1005.17,85.72l-4335.11 -3637.6c-38.82,-32.57 -60.78,-77.76 -64.87,-124.44 -4.07,-46.6 9.67,-94.82 42.19,-133.6l5656.61 -6741.26c32.58,-38.83 77.78,-60.78 124.44,-64.87 46.61,-4.08 94.86,9.67 133.61,42.18z"/>
  <path class="fil1" d="M17261.48 9539.69l4335.1 3637.6c302.07,253.51 341.8,705.12 88.26,1007.27 -375.7,447.74 -4749.54,5703.48 -4975.06,5929 -254.05,299.98 -703.99,338.42 -1005.17,85.72l-4335.11 -3637.6c-38.82,-32.57 -60.78,-77.76 -64.87,-124.44 -4.07,-46.6 9.67,-94.82 42.19,-133.6l5656.61 -6741.26c32.58,-38.83 77.78,-60.78 124.44,-64.87 46.61,-4.08 94.86,9.67 133.61,42.18z"/>
  <path class="fil7" d="M13894.44 15964.86c46.61,-4.07 94.84,9.68 133.6,42.21 647.38,543.21 1600.95,1251.68 2171.05,1821.77 37.14,32.4 58.18,76.57 62.17,122.12 4.07,46.61 -9.68,94.82 -42.21,133.6l-2.28 2.67c-32.4,37.18 -76.57,58.23 -122.17,62.21 -46.59,4.04 -94.82,-9.7 -133.58,-42.22 -675.79,-567.05 -1553.31,-1226.9 -2171.02,-1821.73 -37.17,-32.39 -58.23,-76.55 -62.21,-122.15 -4.08,-46.58 9.67,-94.81 42.19,-133.59l2.33 -2.72c32.39,-37.14 76.56,-58.18 122.13,-62.17zm3367.04 -6425.17l4335.1 3637.6c151.14,126.84 236.57,303.19 252.52,485.55 15.95,182.26 -37.54,370.7 -164.26,521.72l-3769.45 4492.25c-32.58,38.83 -77.78,60.78 -124.44,64.87 -46.59,4.08 -94.83,-9.65 -133.58,-42.18 -38.83,-32.58 -60.79,-77.78 -64.88,-124.44 -4.08,-46.59 9.65,-94.84 42.18,-133.59l3769.42 -4492.21c61.76,-73.59 87.8,-165.58 80.02,-254.62 -7.78,-88.97 -49.38,-174.97 -122.91,-236.66l-4194.82 -3519.87 -5421.13 6460.66 4194.89 3519.93c73.58,61.65 165.48,87.67 254.46,79.89 88.96,-7.79 174.93,-49.38 236.62,-122.89l861.61 -1026.8c32.62,-38.83 77.77,-60.8 124.44,-64.87 46.6,-4.07 94.84,9.69 133.58,42.19l3.34 2.95c36.76,32.43 57.6,76.29 61.55,121.5 4.07,46.56 -9.68,94.76 -42.17,133.5 -294.52,294.53 -569.26,734.86 -863.79,1029.39 -126.64,149.54 -302.04,234.15 -483.39,250.01 -182.29,15.95 -370.73,-37.56 -521.78,-164.29l-4335.11 -3637.6c-38.82,-32.57 -60.78,-77.76 -64.87,-124.44 -4.07,-46.6 9.67,-94.82 42.19,-133.6l5656.61 -6741.26c32.58,-38.83 77.78,-60.78 124.44,-64.87 46.61,-4.08 94.86,9.67 133.61,42.18zm-413.56 8323.24l-2968.66 -2491c-38.83,-32.58 -60.79,-77.75 -64.88,-124.43 -4.07,-46.61 9.67,-94.83 42.19,-133.61 32.59,-38.83 77.76,-60.8 124.44,-64.87 46.61,-4.08 94.84,9.68 133.61,42.2l2968.67 2491.02c38.83,32.59 60.78,77.76 64.85,124.41 3.93,44.86 -8.66,91.23 -38.63,129.22l-3.56 4.4c-32.59,38.83 -77.78,60.77 -124.45,64.86 -46.61,4.07 -94.82,-9.67 -133.58,-42.2z"/>
  <path class="fil10" d="M16074.02 15770.66c166.3,-198.19 140.45,-493.71 -57.75,-660.02l-1004.64 -842.97c-125.45,-105.28 -141.96,-294.05 -36.71,-419.51l1959.62 -2335.38c105.27,-125.43 294.03,-141.96 419.49,-36.68l2703.74 2268.7c125.46,105.27 141.97,294.06 36.71,419.5l-1959.61 2335.37c-105.26,125.46 -294.05,141.98 -419.5,36.7l-981.35 -823.45c-198.21,-166.31 -493.7,-140.45 -660,57.74z"/>
  <path class="fil7" d="M16074.02 15770.66c166.3,-198.19 140.45,-493.71 -57.75,-660.02l-1004.64 -842.97c-125.45,-105.28 -141.96,-294.05 -36.71,-419.51l1959.62 -2335.38c105.27,-125.43 294.03,-141.96 419.49,-36.68l2703.74 2268.7c125.46,105.27 141.97,294.06 36.71,419.5l-1959.61 2335.37c-105.26,125.46 -294.05,141.98 -419.5,36.7l-981.35 -823.45c-198.21,-166.31 -493.7,-140.45 -660,57.74zm3777.12 -1806.03l-2688.09 -2255.56 -1955.15 2330.06 1001.68 840.49c135.25,113.5 221.81,263.23 257.32,422.72 163.06,7.15 325.36,66.24 460.43,179.56l968.23 812.44c3.62,2.72 7.21,5.5 10.73,8.39 2.83,-3.29 5.75,-6.51 8.75,-9.7l1937.41 -2308.92c2.71,-3.62 5.5,-7.21 8.38,-10.73l-9.69 -8.75z"/>
  <path class="fil11" d="M9731.49 17639.5l0 0c78.89,0 143.43,64.54 143.43,143.42l0 286.83 286.81 0c78.88,0 143.42,64.53 143.42,143.41l0 0c0,78.88 -64.54,143.41 -143.42,143.41l-286.81 0 0 286.82c0,78.88 -64.54,143.43 -143.43,143.43l0 0c-78.86,0 -143.4,-64.55 -143.4,-143.43l0 -286.82 -286.83 0c-78.89,0 -143.43,-64.53 -143.43,-143.41l0 0c0,-78.88 64.54,-143.41 143.43,-143.41l286.83 0 0 -286.83c0,-78.88 64.54,-143.42 143.4,-143.42z"/>
  <path class="fil12" d="M23315.73 16515.61l0 0c103.41,0 188.01,84.6 188.01,187.99l0 375.98 375.96 0c103.39,0 187.99,84.6 187.99,187.99l0 0c0,103.39 -84.6,187.99 -187.99,187.99l-375.96 0 0 375.96c0,103.4 -84.6,188.01 -188.01,188.01l0 0c-103.38,0 -187.97,-84.61 -187.97,-188.01l0 -375.96 -375.98 0c-103.41,0 -188.01,-84.6 -188.01,-187.99l0 0c0,-103.39 84.6,-187.99 188.01,-187.99l375.98 0 0 -375.98c0,-103.39 84.59,-187.99 187.97,-187.99z"/>
  <path class="fil12" d="M8230.77 2916.91l0.02 0c85.27,0 155.04,69.76 155.04,155.04l0 310.11c0,85.28 -69.77,155.04 -155.04,155.04l-0.02 0c-85.28,0 -155.04,-69.76 -155.04,-155.04l0 -310.11c0,-85.28 69.76,-155.04 155.04,-155.04zm155.41 775.6l0 -0.02c0,-85.27 69.76,-155.03 155.03,-155.03l310.12 0c85.27,0 155.03,69.76 155.03,155.03l0 0.02c0,85.28 -69.76,155.04 -155.03,155.04l-310.12 0c-85.27,0 -155.03,-69.76 -155.03,-155.04zm-931 0l0 -0.02c0,-85.27 69.76,-155.03 155.04,-155.03l310.11 0c85.28,0 155.04,69.76 155.04,155.03l0 0.02c0,85.28 -69.76,155.04 -155.04,155.04l-310.11 0c-85.28,0 -155.04,-69.76 -155.04,-155.04zm775.59 155.39l0.02 0c85.27,0 155.04,69.76 155.04,155.04l0 310.11c0,85.28 -69.77,155.04 -155.04,155.04l-0.02 0c-85.28,0 -155.04,-69.76 -155.04,-155.04l0 -310.11c0,-85.28 69.76,-155.04 155.04,-155.04z"/>
  <path class="fil13" d="M26861 3209.23c165.69,0 300,134.31 300,300 0,165.69 -134.31,300 -300,300 -165.69,0 -300,-134.31 -300,-300 0,-165.69 134.31,-300 300,-300z"/>
  <path class="fil12" d="M27443.24 14950.9c110.46,0 200,89.54 200,200 0,110.46 -89.54,200 -200,200 -110.46,0 -200,-89.54 -200,-200 0,-110.46 89.54,-200 200,-200z"/>
  <g>
   <path class="fil12" d="M4753.51 18249.24c276.14,0 500,223.86 500,500 0,276.14 -223.86,500 -500,500 -276.14,0 -500,-223.86 -500,-500 0,-276.14 223.86,-500 500,-500zm203.89 296.11c-52.16,-52.16 -124.26,-84.44 -203.89,-84.44 -79.63,0 -151.73,32.28 -203.89,84.44 -52.17,52.16 -84.44,124.26 -84.44,203.89 0,79.63 32.27,151.73 84.44,203.89 52.16,52.17 124.26,84.44 203.89,84.44 79.63,0 151.73,-32.27 203.89,-84.44 52.16,-52.16 84.44,-124.26 84.44,-203.89 0,-79.63 -32.28,-151.73 -84.44,-203.89z"/>
  </g>
 </g>
</svg>
