<?xml version="1.0" encoding="UTF-8"?>
<!DOCTYPE svg PUBLIC "-//W3C//DTD SVG 1.1//EN" "http://www.w3.org/Graphics/SVG/1.1/DTD/svg11.dtd">
<!-- Creator: CorelDRAW 2018 (64-Bit) -->
<svg xmlns="http://www.w3.org/2000/svg" xml:space="preserve" width="297mm" height="210mm" version="1.1" style="shape-rendering:geometricPrecision; text-rendering:geometricPrecision; image-rendering:optimizeQuality; fill-rule:evenodd; clip-rule:evenodd"
viewBox="0 0 29700 21000"
 xmlns:xlink="http://www.w3.org/1999/xlink">
 <defs>
  <style type="text/css">
   <![CDATA[
    .fil10 {fill:#343743}
    .fil11 {fill:#9AFBDB}
    .fil9 {fill:#D4B4FD}
    .fil3 {fill:#DE749B}
    .fil12 {fill:#EADAFE}
    .fil14 {fill:#F4D5E1}
    .fil0 {fill:#F8F4FF}
    .fil6 {fill:white}
    .fil4 {fill:#343743;fill-rule:nonzero}
    .fil7 {fill:#D4B4FD;fill-rule:nonzero}
    .fil8 {fill:#F7E3EB;fill-rule:nonzero}
    .fil5 {fill:white;fill-rule:nonzero}
    .fil1 {fill:#343743;fill-opacity:0.149020}
    .fil2 {fill:#343743;fill-rule:nonzero;fill-opacity:0.149020}
    .fil13 {fill:#EFC7D7;fill-opacity:0.501961}
   ]]>
  </style>
 </defs>
 <g id="Слой_x0020_1">
  <metadata id="CorelCorpID_0Corel-Layer"/>
  <path class="fil0" d="M7420.3 6217.37c938.16,0 1745.98,240.41 2670.96,240.41 2518.78,0 4828.51,-1270.22 6189.12,-3353.34 1340.78,-1866.06 3529.7,-3081.69 6002.88,-3081.69 4079.92,0 7387.35,3307.43 7387.35,7387.35 0,4079.92 -3307.43,7387.35 -7387.35,7387.35 -902.49,0 -1756.92,-212.03 -2667,-212.03 -2576.38,0 -4844.3,1319.19 -6166.27,3318.63l-12.08 -13.48c-1339.51,1877.39 -3535.56,3101.54 -6017.61,3101.54 -4079.93,0 -7387.37,-3307.44 -7387.37,-7387.37 0,-4079.93 3307.44,-7387.37 7387.37,-7387.37z"/>
  <path class="fil1" d="M9395.66 3846.18c1135.07,0 2055.36,920.3 2055.36,2055.38 0,1135.07 -920.29,2055.37 -2055.36,2055.37 -1135.08,0 -2055.37,-920.3 -2055.37,-2055.37 0,-1135.08 920.29,-2055.38 2055.37,-2055.38zm2.89 -400.51l-4.94 0c-136.57,0 -248.28,-111.72 -248.28,-248.28l0 0c0,-136.57 111.71,-248.29 248.28,-248.29l4.94 0c136.56,0 248.28,111.72 248.28,248.29l0 0c0,136.56 -111.72,248.28 -248.28,248.28zm-2.47 -773.31l-0.01 0c-137.92,0 -250.74,-112.83 -250.74,-250.74l0 -730.85c0,-137.92 112.82,-250.75 250.74,-250.75l0.01 0c137.91,0 250.75,112.83 250.75,250.75l0 730.85c0,137.91 -112.84,250.74 -250.75,250.74zm1810.05 -1607.66l-4.94 0c-136.57,0 -248.29,111.7 -248.29,248.28l0 0c0,136.55 111.72,248.28 248.29,248.28l4.94 0c136.56,0 248.28,-111.73 248.28,-248.28l0 0c0,-136.58 -111.72,-248.28 -248.28,-248.28zm-2.47 773.3l-0.02 0c-137.91,0 -250.74,112.83 -250.74,250.73l0 1546.28c0,137.91 112.83,250.74 250.74,250.74l0.02 0c137.91,0 250.75,-112.83 250.75,-250.74l0 -1546.28c0,-137.9 -112.84,-250.73 -250.75,-250.73zm-3581.49 321.16l-0.01 0c-137.92,0 -250.74,112.84 -250.74,250.75l0 1375.66c0,137.91 112.82,250.74 250.74,250.74l0.01 0c137.91,0 250.75,-112.83 250.75,-250.74l0 -1375.66c0,-137.91 -112.84,-250.75 -250.75,-250.75z"/>
  <path class="fil1" d="M25204.41 16710.46c3.17,-3008.47 9.49,-6018.98 9.49,-9029.39 0,-791.26 -643.7,-1434.97 -1434.96,-1434.97l-120.07 0 -2675.14 0 -0.02 0 -0.02 -2020.52 -6471.16 -0.01 -497.76 0 -6.25 2020.53 -2588.51 0 -199.02 0c-791.28,0 -1434.98,643.71 -1434.98,1434.97l0 9029.39 -863.27 0c-194.04,0 -351.39,157.34 -351.39,351.4l0 547.8c0,1096.94 892.47,1989.37 1989.37,1989.37l13878.38 0c1096.94,0 1989.36,-892.41 1989.36,-1989.32l0 -547.85c0.05,-194.1 -157.32,-351.4 -351.36,-351.4l-872.69 0z"/>
  <path class="fil2" d="M8810.37 17921.87l0 588.64 -750.81 0 0 -0.34c-155.23,0.16 -282.24,127.2 -282.42,282.42 -0.52,481.31 -389.45,870.23 -870.76,870.77l0 0.34 -802.04 0 0 -0.34c-481.31,-0.54 -870.26,-389.45 -870.76,-870.77 1.48,-383.06 -68.38,-759.92 -202.72,-1112.5 -286.81,-752.73 -868.6,-1187.25 -1247.01,-1900.22l-602.36 0 0 -0.34c-378.9,-0.42 -684.76,-306.28 -685.18,-685.18l-0.34 0 0 -2482.75 0.34 0c0.38,-378.9 306.26,-684.88 685.18,-685.26l0 -0.34 595.59 0c712.29,-1125.42 1438.67,-1904.25 2718.55,-2434.05 27.57,-468.54 -30.21,-812.78 -188.08,-1273.62 -63.02,-183.96 80.85,-380.39 281.16,-380.41l0 -0.34 0.04 0.34c862.28,0.23 1670.34,421.76 2163.82,1128.67 313.92,-45.67 630.05,-68.3 947.28,-68.41l0 -0.34c1398.62,0 2677.43,478.41 3649.17,1264.93 960.77,777.62 1621.16,1856.83 1800.91,3073.34 646.33,2423.69 -1473.23,4810.46 -6339.56,4685.76z"/>
  <path class="fil1" d="M28099.85 3305.7c0,-1177.67 -954.65,-2132.22 -2132.2,-2132.22 -1177.58,0 -2132.22,954.54 -2132.22,2132.22 0,1177.51 954.64,2132.12 2132.22,2132.12 1177.55,0 2132.2,-954.61 2132.2,-2132.12z"/>
  <path class="fil3" d="M3694.19 936.01c1063.8,0 1926.18,862.38 1926.18,1926.18 0,1063.8 -862.38,1926.18 -1926.18,1926.18 -1063.8,0 -1926.18,-862.38 -1926.18,-1926.18 0,-1063.8 862.38,-1926.18 1926.18,-1926.18z"/>
  <g>
   <path class="fil4" d="M5286.44 2119.72c-39.52,-84.75 -2.86,-185.51 81.89,-225.03 84.75,-39.52 185.51,-2.86 225.03,81.89l-306.92 143.14zm503.26 742.47l-338.66 0 0 0 -0.16 -24.05 -0.5 -24.01 -0.82 -23.99 -1.15 -23.99 -1.46 -23.92 -1.81 -23.88 -2.13 -23.9 -2.44 -23.82 -2.77 -23.78 -3.09 -23.72 -3.42 -23.66 -3.74 -23.63 -4.06 -23.58 -4.38 -23.51 -4.7 -23.45 -5.02 -23.39 -5.32 -23.29 -5.66 -23.22 -5.96 -23.16 -6.29 -23.06 -6.59 -23 -6.91 -22.9 -7.23 -22.84 -7.54 -22.73 -7.84 -22.61 -8.15 -22.48 -8.49 -22.46 -8.77 -22.32 -9.09 -22.19 -9.4 -22.11 -9.69 -21.96 -10.02 -21.86 306.92 -143.14 11.94 26.06 11.59 26.24 11.2 26.33 10.85 26.51 10.47 26.62 10.09 26.7 9.75 26.9 9.36 27.01 8.98 27.09 8.61 27.2 8.25 27.32 7.87 27.42 7.49 27.52 7.12 27.62 6.74 27.72 6.36 27.81 5.98 27.87 5.6 27.97 5.22 28.03 4.84 28.1 4.46 28.17 4.08 28.26 3.69 28.32 3.31 28.36 2.92 28.42 2.53 28.42 2.15 28.54 1.76 28.56 1.37 28.57 0.98 28.63 0.58 28.65 0.2 28.67 0 0zm-2095.51 2095.51l0 -338.66 0 0 90.58 -2.29 89.29 -6.79 87.92 -11.17 86.48 -15.45 84.94 -19.6 83.31 -23.67 81.57 -27.59 79.73 -31.44 77.77 -35.16 75.72 -38.79 73.57 -42.3 71.29 -45.7 68.88 -48.98 66.4 -52.19 63.78 -55.25 61.05 -58.2 58.2 -61.05 55.25 -63.78 52.19 -66.4 48.98 -68.88 45.7 -71.29 42.3 -73.57 38.79 -75.72 35.16 -77.77 31.44 -79.73 27.59 -81.57 23.67 -83.31 19.6 -84.94 15.45 -86.48 11.17 -87.92 6.79 -89.29 2.29 -90.58 338.66 0 -2.73 107.66 -8.07 106.35 -13.33 104.88 -18.43 103.22 -23.42 101.44 -28.25 99.51 -32.97 97.43 -37.54 95.21 -41.98 92.87 -46.29 90.38 -50.46 87.75 -54.5 85.03 -58.42 82.14 -62.19 79.14 -65.83 76 -69.36 72.73 -72.73 69.36 -76 65.83 -79.14 62.19 -82.14 58.42 -85.03 54.5 -87.75 50.46 -90.38 46.29 -92.87 41.98 -95.21 37.54 -97.43 32.97 -99.51 28.25 -101.44 23.42 -103.22 18.43 -104.88 13.33 -106.35 8.07 -107.66 2.73 0 0zm-2095.51 -2095.51l338.66 0 0 0 2.29 90.58 6.79 89.29 11.17 87.92 15.45 86.48 19.6 84.94 23.67 83.31 27.59 81.57 31.44 79.73 35.16 77.77 38.79 75.72 42.3 73.57 45.7 71.29 48.98 68.88 52.19 66.4 55.25 63.78 58.19 61.05 61.06 58.2 63.78 55.25 66.4 52.19 68.88 48.98 71.29 45.7 73.57 42.3 75.72 38.79 77.77 35.16 79.73 31.44 81.57 27.59 83.31 23.67 84.94 19.6 86.48 15.45 87.92 11.17 89.29 6.79 90.58 2.29 0 338.66 -107.66 -2.73 -106.35 -8.07 -104.88 -13.33 -103.22 -18.43 -101.44 -23.42 -99.51 -28.25 -97.43 -32.97 -95.21 -37.54 -92.87 -41.98 -90.38 -46.29 -87.75 -50.46 -85.03 -54.5 -82.14 -58.42 -79.14 -62.19 -76 -65.83 -72.74 -69.36 -69.35 -72.73 -65.83 -76 -62.19 -79.14 -58.42 -82.14 -54.5 -85.03 -50.46 -87.75 -46.29 -90.38 -41.98 -92.87 -37.54 -95.21 -32.97 -97.43 -28.25 -99.51 -23.42 -101.44 -18.43 -103.22 -13.33 -104.88 -8.07 -106.35 -2.73 -107.66 0 0zm2095.51 -2095.51l0 338.66 0 0 -90.58 2.29 -89.29 6.79 -87.92 11.17 -86.48 15.45 -84.94 19.6 -83.31 23.67 -81.57 27.59 -79.73 31.44 -77.77 35.16 -75.72 38.79 -73.57 42.3 -71.29 45.7 -68.88 48.98 -66.4 52.19 -63.79 55.25 -61.05 58.19 -58.19 61.05 -55.25 63.79 -52.19 66.4 -48.98 68.88 -45.7 71.29 -42.3 73.57 -38.79 75.72 -35.16 77.77 -31.44 79.73 -27.59 81.57 -23.67 83.31 -19.6 84.94 -15.45 86.48 -11.17 87.92 -6.79 89.29 -2.29 90.58 -338.66 0 2.73 -107.66 8.07 -106.35 13.33 -104.88 18.43 -103.22 23.42 -101.44 28.25 -99.51 32.97 -97.43 37.54 -95.21 41.98 -92.87 46.29 -90.38 50.46 -87.75 54.5 -85.03 58.42 -82.14 62.19 -79.14 65.83 -75.99 69.35 -72.75 72.75 -69.35 75.99 -65.83 79.14 -62.19 82.14 -58.42 85.03 -54.5 87.75 -50.46 90.38 -46.29 92.87 -41.98 95.21 -37.54 97.43 -32.97 99.51 -28.25 101.44 -23.42 103.22 -18.43 104.88 -13.33 106.35 -8.07 107.66 -2.73 0 0zm1201.93 378.96l-194.24 277.42 -27.85 -19.1 -28.18 -18.54 -28.49 -17.99 -28.79 -17.39 -29.11 -16.84 -29.36 -16.26 -29.64 -15.66 -29.93 -15.11 -30.16 -14.5 -30.47 -13.93 -30.68 -13.35 -30.89 -12.73 -31.16 -12.16 -31.34 -11.55 -31.57 -10.94 -31.79 -10.36 -31.95 -9.74 -32.13 -9.14 -32.3 -8.51 -32.5 -7.92 -32.63 -7.29 -32.79 -6.67 -32.91 -6.06 -33.03 -5.41 -33.19 -4.8 -33.29 -4.17 -33.38 -3.54 -33.48 -2.89 -33.57 -2.26 -33.62 -1.61 -33.73 -0.97 -33.78 -0.33 0 -338.66 40.28 0.39 40.19 1.15 40.16 1.93 40.03 2.7 39.94 3.45 39.84 4.22 39.69 4.97 39.55 5.72 39.43 6.47 39.27 7.22 39.09 7.95 38.93 8.71 38.72 9.42 38.56 10.17 38.35 10.9 38.11 11.62 37.87 12.34 37.65 13.06 37.42 13.79 37.12 14.48 36.91 15.21 36.58 15.91 36.27 16.59 36.04 17.32 35.69 18.01 35.38 18.7 35.04 19.4 34.67 20.06 34.35 20.77 33.97 21.43 33.6 22.1 33.23 22.8zm0 0c76.6,53.63 95.22,159.23 41.59,235.83 -53.63,76.6 -159.23,95.22 -235.83,41.59l194.24 -277.42z"/>
  </g>
  <path class="fil5" d="M3352.5 2720.18c55.93,-42.42 113.78,-71.35 173.57,-86.78 59.78,-15.43 119.57,-23.14 179.35,-23.14 82.93,0 162,13.5 237.21,40.5 75.21,27 141.26,67.01 198.15,120.05 56.9,53.03 101.73,120.05 134.52,201.04 32.78,81 49.18,174.54 49.18,280.6 0,92.57 -13.5,179.84 -40.5,261.8 -27,81.96 -67.02,153.8 -120.05,215.51 -53.04,61.72 -120.05,110.41 -201.05,146.09 -81,35.68 -176.46,53.52 -286.39,53.52 -125.35,0 -229.97,-24.59 -313.86,-73.77 -83.89,-49.18 -150.43,-117.64 -199.61,-205.39 -49.17,-87.75 -83.89,-191.89 -104.14,-312.42 -20.25,-120.53 -30.37,-253.12 -30.37,-397.76 0,-356.77 55.45,-629.66 166.33,-818.65 110.89,-189 282.05,-283.49 513.47,-283.49 28.93,0 70.39,1.92 124.39,5.78 54,3.86 108,13.02 162,27.48 54,14.47 101.25,34.72 141.74,60.75 40.5,26.04 60.75,62.2 60.75,108.48 0,32.78 -13.01,63.16 -39.05,91.12 -26.03,27.97 -60.27,41.95 -102.69,41.95 -40.5,0 -85.34,-8.68 -134.52,-26.04 -49.17,-17.35 -107.51,-27.96 -175.01,-31.82 -79.07,0 -143.19,15.43 -192.37,46.29 -49.18,30.85 -88.23,73.76 -117.16,128.73 -28.93,54.96 -49.66,119.08 -62.19,192.36 -12.54,73.29 -19.77,152.36 -21.7,237.21zm-5.78 361.6c0,73.28 4.34,143.19 13.01,209.73 8.68,66.53 25.56,124.87 50.63,175.01 25.07,50.14 60.26,90.64 105.58,121.5 45.32,30.85 103.66,46.28 175.02,46.28 59.78,0 109.92,-10.61 150.42,-31.82 40.5,-21.21 73.29,-49.18 98.36,-83.89 25.07,-34.71 42.91,-74.73 53.51,-120.05 10.61,-45.32 15.91,-92.09 15.91,-140.3 0,-123.43 -29.41,-214.07 -88.23,-271.92 -58.82,-57.86 -137.4,-86.78 -235.76,-86.78 -67.5,0 -131.62,12.05 -192.37,36.16 -60.75,24.1 -109.44,55.44 -146.08,94.01l0 52.07z"/>
  <path class="fil6" d="M9499.18 3993.64c996.53,0 1804.38,807.86 1804.38,1804.39 0,996.53 -807.85,1804.38 -1804.38,1804.38 -996.53,0 -1804.38,-807.85 -1804.38,-1804.38 0,-996.53 807.85,-1804.39 1804.38,-1804.39z"/>
  <path class="fil7" d="M9499.18 3742.65c1135.07,0 2055.37,920.3 2055.37,2055.38 0,1135.07 -920.3,2055.37 -2055.37,2055.37 -1135.07,0 -2055.37,-920.3 -2055.37,-2055.37 0,-1135.08 920.3,-2055.38 2055.37,-2055.38zm0 501.98c-857.98,0 -1553.39,695.41 -1553.39,1553.4 0,857.98 695.41,1553.39 1553.39,1553.39 857.99,0 1553.39,-695.41 1553.39,-1553.39 0,-857.99 -695.4,-1553.4 -1553.39,-1553.4z"/>
  <path class="fil7" d="M8990.35 5831.25l0 -1020.25c0,-112.81 98.97,-199.4 209.37,-199.4l372.21 0c488.6,0 797.6,263.93 797.6,761.03 0,511.55 -355.47,717.84 -844.14,717.84l-169.49 0 0 172.83 422.08 0c68.22,0 129.61,52.46 129.61,122.96 0,74.46 -57.17,122.95 -129.61,122.95l-422.08 0 0 299.1c0,81.86 -99.99,176.14 -182.77,176.14 -97.31,0 -182.78,-76.93 -182.78,-176.14l0 -299.1 -231.88 0c-72.34,0 -129.61,-48.49 -129.61,-122.95 0,-70.5 61.39,-122.96 129.61,-122.96l231.88 0 0 -186.11 -231.88 0c-72.34,0 -129.61,-48.5 -129.61,-122.96 0,-70.5 61.39,-122.98 129.61,-122.98l231.88 0zm365.55 -46.51l216.03 0c288.01,0 470.63,-138.48 470.63,-415.42 0,-280.11 -192.02,-415.41 -470.63,-415.41l-216.03 0 0 830.83z"/>
  <path class="fil8" d="M8990.37 17761.87l0 588.64 -750.81 0 0 -0.34c-155.23,0.16 -282.24,127.2 -282.42,282.42 -0.52,481.31 -389.45,870.23 -870.76,870.77l0 0.34 -802.04 0 0 -0.34c-481.31,-0.54 -870.26,-389.45 -870.76,-870.77 1.48,-383.06 -68.38,-759.92 -202.72,-1112.5 -286.81,-752.73 -868.6,-1187.25 -1247.01,-1900.22l-602.36 0 0 -0.34c-378.9,-0.42 -684.76,-306.28 -685.18,-685.18l-0.34 0 0 -2482.75 0.34 0c0.38,-378.9 306.26,-684.88 685.18,-685.26l0 -0.34 595.59 0c712.29,-1125.42 1438.67,-1904.25 2718.55,-2434.05 27.57,-468.54 -30.21,-812.78 -188.08,-1273.62 -63.02,-183.96 80.85,-380.39 281.16,-380.41l0 -0.34 0.04 0.34c862.28,0.23 1670.34,421.76 2163.82,1128.67 313.92,-45.67 630.05,-68.3 947.28,-68.41l0 -0.34c1398.62,0 2677.43,478.41 3649.17,1264.93 960.77,777.62 1621.16,1856.83 1800.91,3073.34 646.33,2423.69 -1473.23,4810.46 -6339.56,4685.76z"/>
  <path class="fil4" d="M7287.25 11511.66c162.23,0 294.52,132.29 294.52,294.52 0,534.72 -428.62,967.81 -965.13,964.45 -529.55,-3.4 -956.17,-434.78 -953.03,-964.45l-0.34 0c0,-162.42 132.08,-294.52 294.5,-294.52 162.23,0 294.52,132.29 294.52,294.52l-0.34 0.66c0,207.93 165.32,375.7 373.87,373.91l0.66 -0.34 0.02 0.33c204.23,-2.14 368.38,-169.7 366.6,-373.9l-0.34 -0.66c0,-162.63 131.86,-294.52 294.49,-294.52zm952.31 6250.17l750.81 0.04 0 588.64 -750.81 0 0 -0.34c-155.23,0.16 -282.24,127.2 -282.42,282.42 -0.52,481.31 -389.45,870.23 -870.76,870.77l0 0.34 -802.04 0 0 -0.34c-481.31,-0.54 -870.26,-389.45 -870.76,-870.77 1.48,-383.06 -68.38,-759.92 -202.72,-1112.5 -286.81,-752.73 -868.6,-1187.25 -1247.01,-1900.22l-602.36 0 0 -0.34c-378.9,-0.42 -684.76,-306.28 -685.18,-685.18l-0.34 0 0 -2482.75 0.34 0c0.38,-378.9 306.26,-684.88 685.18,-685.26l0 -0.34 595.59 0c712.29,-1125.42 1438.67,-1904.25 2718.55,-2434.05 27.57,-468.54 -30.21,-812.78 -188.08,-1273.62 -63.02,-183.96 80.85,-380.39 281.16,-380.41l0 -0.34 0.04 0.34c862.28,0.23 1670.34,421.76 2163.82,1128.67 313.92,-45.67 630.05,-68.3 947.28,-68.41l0 -0.34c1398.62,0 2677.43,478.41 3649.17,1264.93 960.77,777.62 1621.16,1856.83 1800.91,3073.34 372.78,-92.47 635.45,-427.88 635.99,-812.46l-0.34 0c0,-162.21 132.3,-294.51 294.51,-294.51 162.14,0 294.51,132.37 294.51,294.51l-0.34 0c-0.92,690.31 -496.33,1281.97 -1175.43,1403.42l1.54 120.28 -588.76 0 -0.92 -84.01c-13.16,-1207.56 -567.37,-2301.31 -1454.29,-3093.28 -887.97,-792.9 -2109.56,-1283.23 -3456.7,-1283.23l0 -0.34c-216.84,0.17 -434.52,12.25 -650.12,35.55 118.94,304.7 179.8,629.23 179.62,956.36l0.34 0c0,162.63 -131.86,294.5 -294.49,294.5 -162.36,0 -294.52,-132.05 -294.52,-294.5l0.34 0c-1.28,-977.73 -692.19,-1820.23 -1650.13,-2012.13 98.49,414.71 123.82,843.19 74.8,1266.67 -12.98,112.17 -89.34,207.35 -196.03,244.29 -1347.62,506.18 -1975.89,1285.17 -2681.82,2400.54 -53.95,85.27 -147.77,137.3 -248.75,137.3l-757.45 0 0 -0.34c-26.36,0.03 -50.51,10.98 -68.19,28.66 -17.68,17.68 -28.65,41.84 -28.68,68.21l0.34 0 0 2482.59 -0.34 0c0.06,52.95 43.86,96.82 96.87,96.88l0 -0.34 783.97 0c113.95,0 217.52,65.86 266.14,168.86l0.13 -0.06c390.08,817.4 1008.11,1216.14 1348.95,2109.67 159.7,418.67 242.83,866.95 241.24,1323.39 0.18,155.2 127.22,282.25 282.42,282.43l0 -0.34 802.04 0 0 0.34c155.2,-0.18 282.25,-127.23 282.43,-282.43 0.52,-481.35 389.43,-870.18 870.75,-870.76z"/>
  <path class="fil6" d="M11540.01 6066.1l-1369.65 1208.79 0 9549.83 -1181.17 25.13c-134.78,1319.45 419.62,2048.14 1457.61,2362.32l14274.48 -50.26c1222.03,-353.17 1659.69,-1163.05 1558.13,-2286.93l-955.34 -23.3 9.83 -9350.61 -1555.03 -1434.97 -2676.47 0 1.29 -2020.52 -6968.92 -0.01 -6.25 2020.53 -2588.51 0z"/>
  <path class="fil9" d="M18704.21 9129.72c388.29,-305.51 627.2,-762.67 656.32,-1255.91 0,-1645.67 -947.53,-1991.13 -1742.23,-1991.13 -794.72,0 -1742.24,345.46 -1742.24,1991.13 28.88,493.49 267.83,950.96 656.32,1256.66 -659.75,81.3 -1155.08,642.16 -1154.12,1306.93l0 920.9 497.8 0 0 -920.9c0,-453.61 367.73,-821.35 821.33,-821.35l1841.81 0c453.59,0 821.33,367.75 821.33,821.35l0 920.9 497.79 0 0 -920.9c1.33,-665.04 -494.08,-1226.35 -1154.11,-1307.68zm1901.75 1985.79c0,137.44 111.43,248.89 248.89,248.89l843.74 0 -4079.33 2447.6 -4079.34 -2447.6 843.74 0c137.46,0 248.91,-111.45 248.91,-248.89 0,-2356.67 -0.04,-4713.31 -0.04,-7069.94l-497.76 0c0,2273.68 0,4547.37 0,6821.05l-1493.35 0c-137.45,0.03 -248.87,111.5 -248.79,248.97 0.03,87.34 45.79,168.23 120.65,213.25l4977.83 2986.7c78.86,47.37 177.48,47.37 256.35,0l4977.83 -2986.7c117.8,-70.84 155.88,-223.75 85.06,-341.57 -44.98,-74.82 -125.91,-120.62 -213.22,-120.65l-1493.36 0c-0.01,-2273.71 -0.08,-4547.38 -0.08,-6821.04l-497.75 0c0,2356.64 0.02,4713.27 0.02,7069.93zm-4219.19 -3505.26c67.45,-834.04 459.96,-1229.78 1231.53,-1229.78 706.34,0 1095.11,334.01 1206.36,1030.9l-829.3 -497.77c-117.89,-70.72 -270.77,-32.5 -341.48,85.39 -9.33,15.57 -16.92,32.05 -22.66,49.26 -125.92,377.81 -805.9,520.67 -1244.45,562zm1231.53 1508.03c-555.12,-94.56 -1016.91,-479.5 -1209.87,-1008.51l0 -0.75c426.11,-35.1 1194.68,-164.02 1553.09,-635.67l889.53 533.63c-99.8,610.28 -850.71,1111.3 -1232.75,1111.3z"/>
  <path class="fil10" d="M25964.44 17334.72c0,709.4 -577.16,1524.02 -1286.58,1524.02l-14115.87 0c-709.43,0 -1286.59,-814.62 -1286.59,-1524.07l0 -196.42 6516.45 0c153.31,540.16 650.97,936.92 1239.6,936.92l1167.72 0c588.6,0 1086.28,-396.76 1239.59,-936.92l6525.61 0 0 196.47 0.07 0zm-2411.24 -9781.43c194.04,0 351.4,157.35 351.4,351.38l0 7510.69c0,194.03 -157.36,351.38 -351.4,351.38l-11748.58 0c-194.04,0 -351.39,-157.35 -351.39,-351.38l0 -7510.69c0,-194.03 157.35,-351.38 351.39,-351.38l2330.15 0 0 560.31 -2121.26 0 0 7092.82 11330.78 0 0 -7092.82 -2240.56 0 0 -560.31 2449.47 0zm1429.43 7570.69c194.07,0 351.39,157.33 351.39,351.39 0,194.07 -157.32,351.39 -351.39,351.39 -194.08,0 -351.39,-157.32 -351.39,-351.39 0,-194.06 157.31,-351.39 351.39,-351.39zm1214.47 1406.48l-7060.99 0c-194.04,0 -351.39,157.34 -351.39,351.4 0,322.85 -262.67,585.52 -585.53,585.52l-1167.72 0c-322.85,0 -585.51,-262.67 -585.51,-585.52 0,-194.06 -157.34,-351.4 -351.4,-351.4l-5628.24 0 0 -9029.39c0,-403.7 470.94,-850.93 874.67,-850.93l2793.78 -0.01 0 -584.03 -2793.78 0c-791.28,0 -1434.98,643.71 -1434.98,1434.97l0 9029.39 -863.27 0c-194.04,0 -351.39,157.34 -351.39,351.4l0 547.8c0,1096.94 892.47,1989.37 1989.37,1989.37l13878.38 0c1096.94,0 1989.36,-892.41 1989.36,-1989.32l0 -547.85c0.05,-194.1 -157.32,-351.4 -351.36,-351.4zm-5093.37 -9880.38l2866.44 -0.01c403.72,0 779.7,447.22 779.7,850.92l0 6442.55c0,194.04 109.85,351.41 303.89,351.41 194.04,0 280.14,-157.37 280.14,-351.41l0 -6442.47c0,-791.26 -643.7,-1434.97 -1434.96,-1434.97l-2795.21 0 0 583.98z"/>
  <path class="fil9" d="M9502.07 3342.14l-4.93 0c-136.57,0 -248.28,-111.72 -248.28,-248.28l0 0c0,-136.57 111.71,-248.28 248.28,-248.28l4.93 0c136.57,0 248.29,111.71 248.29,248.28l0 0c0,136.56 -111.72,248.28 -248.29,248.28zm1805.12 -1607.67l-0.02 0c-137.91,0 -250.75,112.83 -250.75,250.74l0 1546.27c0,137.91 112.84,250.75 250.75,250.75l0.02 0c137.91,0 250.74,-112.84 250.74,-250.75l0 -1546.27c0,-137.91 -112.83,-250.74 -250.74,-250.74zm-3581.49 321.17l-0.01 0c-137.92,0 -250.75,112.83 -250.75,250.74l0 1375.66c0,137.91 112.83,250.75 250.75,250.75l0.01 0c137.91,0 250.74,-112.84 250.74,-250.75l0 -1375.66c0,-137.91 -112.83,-250.74 -250.74,-250.74zm3583.95 -1094.47l-4.93 0c-136.57,0 -248.3,111.71 -248.3,248.28l0 0c0,136.55 111.73,248.28 248.3,248.28l4.93 0c136.57,0 248.28,-111.73 248.28,-248.28l0 0c0,-136.57 -111.71,-248.28 -248.28,-248.28zm-1810.04 1607.67l-0.01 0c-137.92,0 -250.74,-112.84 -250.74,-250.75l0 -730.84c0,-137.92 112.82,-250.76 250.74,-250.76l0.01 0c137.91,0 250.75,112.84 250.75,250.76l0 730.84c0,137.91 -112.84,250.75 -250.75,250.75z"/>
  <path class="fil11" d="M28219.85 3145.7c0,-1177.67 -954.65,-2132.22 -2132.2,-2132.22 -1177.58,0 -2132.22,954.54 -2132.22,2132.22 0,1177.51 954.64,2132.12 2132.22,2132.12 1177.55,0 2132.2,-954.61 2132.2,-2132.12z"/>
  <path class="fil6" d="M25713.06 3665.68c-372.63,-442.01 -281.97,-332.21 -372.63,-442.01 -277.91,-336.6 -690.77,3.02 -437.97,306.25 209.54,251.35 420.84,503.12 632.64,752.4 53.46,62.83 275.73,191.41 407.93,-10.05 892.33,-1359.71 889.61,-1360.36 1332.32,-2069.52 165.4,-264.98 -65.15,-440.32 -313.98,-122.12 -615.87,787.52 -622.52,793.82 -1248.31,1585.05z"/>
  <path class="fil12" d="M27624.59 13624.93l0.02 0c85.27,0 155.04,69.76 155.04,155.04l0 310.11c0,85.28 -69.77,155.04 -155.04,155.04l-0.02 0c-85.28,0 -155.04,-69.76 -155.04,-155.04l0 -310.11c0,-85.28 69.76,-155.04 155.04,-155.04zm155.41 775.6l0 -0.02c0,-85.27 69.76,-155.03 155.03,-155.03l310.12 0c85.27,0 155.03,69.76 155.03,155.03l0 0.02c0,85.28 -69.76,155.04 -155.03,155.04l-310.12 0c-85.27,0 -155.03,-69.76 -155.03,-155.04zm-931 0l0 -0.02c0,-85.27 69.76,-155.03 155.04,-155.03l310.11 0c85.28,0 155.04,69.76 155.04,155.03l0 0.02c0,85.28 -69.76,155.04 -155.04,155.04l-310.11 0c-85.28,0 -155.04,-69.76 -155.04,-155.04zm775.59 155.39l0.02 0c85.27,0 155.04,69.76 155.04,155.04l0 310.11c0,85.28 -69.77,155.04 -155.04,155.04l-0.02 0c-85.28,0 -155.04,-69.76 -155.04,-155.04l0 -310.11c0,-85.28 69.76,-155.04 155.04,-155.04z"/>
  <g>
   <path class="fil12" d="M2381.46 5778.31c276.14,0 500,223.86 500,500 0,276.14 -223.86,500 -500,500 -276.14,0 -500,-223.86 -500,-500 0,-276.14 223.86,-500 500,-500zm203.89 296.11c-52.16,-52.17 -124.26,-84.44 -203.89,-84.44 -79.63,0 -151.73,32.27 -203.89,84.44 -52.17,52.16 -84.44,124.26 -84.44,203.89 0,79.63 32.27,151.73 84.44,203.89 52.16,52.16 124.26,84.44 203.89,84.44 79.63,0 151.73,-32.28 203.89,-84.44 52.16,-52.16 84.44,-124.26 84.44,-203.89 0,-79.63 -32.28,-151.73 -84.44,-203.89z"/>
  </g>
  <path class="fil12" d="M16766.93 1745.23l0 0c103.41,0 188.01,84.6 188.01,187.99l0 375.98 375.96 0c103.39,0 187.99,84.6 187.99,187.99l0 0c0,103.39 -84.6,187.99 -187.99,187.99l-375.96 0 0 375.96c0,103.4 -84.6,188.01 -188.01,188.01l0 0c-103.38,0 -187.97,-84.61 -187.97,-188.01l0 -375.96 -375.98 0c-103.41,0 -188.01,-84.6 -188.01,-187.99l0 0c0,-103.39 84.6,-187.99 188.01,-187.99l375.98 0 0 -375.98c0,-103.39 84.59,-187.99 187.97,-187.99z"/>
  <path class="fil13" d="M4718.54 8067.82c165.69,0 300,134.31 300,300 0,165.69 -134.31,300 -300,300 -165.69,0 -300,-134.31 -300,-300 0,-165.69 134.31,-300 300,-300z"/>
  <path class="fil14" d="M1995.69 17217.32l0 0c100.57,0 182.84,82.27 182.84,182.83l0 365.66 365.65 0c100.56,0 182.83,82.28 182.83,182.84l0 0c0,100.55 -82.27,182.83 -182.83,182.83l-365.65 0 0 365.64c0,100.56 -82.27,182.85 -182.84,182.85l0 0c-100.54,0 -182.82,-82.29 -182.82,-182.85l0 -365.64 -365.66 0c-100.58,0 -182.85,-82.28 -182.85,-182.83l0 0c0,-100.56 82.27,-182.84 182.85,-182.84l365.66 0 0 -365.66c0,-100.56 82.28,-182.83 182.82,-182.83z"/>
  <path class="fil12" d="M27694.98 6426.34c172.13,0 311.67,139.54 311.67,311.67 0,172.13 -139.54,311.67 -311.67,311.67 -172.13,0 -311.67,-139.54 -311.67,-311.67 0,-172.13 139.54,-311.67 311.67,-311.67z"/>
 </g>
</svg>
