<?xml version="1.0" encoding="UTF-8"?>
<!DOCTYPE svg PUBLIC "-//W3C//DTD SVG 1.1//EN" "http://www.w3.org/Graphics/SVG/1.1/DTD/svg11.dtd">
<!-- Creator: CorelDRAW 2018 (64-Bit) -->
<svg xmlns="http://www.w3.org/2000/svg" xml:space="preserve" width="297mm" height="210mm" version="1.1" style="shape-rendering:geometricPrecision; text-rendering:geometricPrecision; image-rendering:optimizeQuality; fill-rule:evenodd; clip-rule:evenodd"
viewBox="0 0 29700 21000"
 xmlns:xlink="http://www.w3.org/1999/xlink">
 <defs>
  <style type="text/css">
   <![CDATA[
    .fil7 {fill:#343743}
    .fil6 {fill:#9AFBDB}
    .fil9 {fill:#D4B4FD}
    .fil1 {fill:#DE749B}
    .fil14 {fill:#EADAFE}
    .fil12 {fill:#F4D5E1}
    .fil0 {fill:#F8F4FF}
    .fil5 {fill:white}
    .fil2 {fill:#343743;fill-rule:nonzero}
    .fil10 {fill:#343743;fill-rule:nonzero}
    .fil11 {fill:#D4B4FD;fill-rule:nonzero}
    .fil4 {fill:white;fill-rule:nonzero}
    .fil3 {fill:#343743;fill-opacity:0.149020}
    .fil8 {fill:#343743;fill-opacity:0.149020}
    .fil13 {fill:#EFC7D7;fill-opacity:0.501961}
   ]]>
  </style>
 </defs>
 <g id="Слой_x0020_1">
  <metadata id="CorelCorpID_0Corel-Layer"/>
  <path class="fil0" d="M7420.3 6217.37c938.16,0 1745.98,240.41 2670.96,240.41 2518.78,0 4828.51,-1270.22 6189.12,-3353.34 1340.78,-1866.06 3529.7,-3081.69 6002.88,-3081.69 4079.92,0 7387.35,3307.43 7387.35,7387.35 0,4079.92 -3307.43,7387.35 -7387.35,7387.35 -902.49,0 -1756.92,-212.03 -2667,-212.03 -2576.38,0 -4844.3,1319.19 -6166.27,3318.63l-12.08 -13.48c-1339.51,1877.39 -3535.56,3101.54 -6017.61,3101.54 -4079.93,0 -7387.37,-3307.44 -7387.37,-7387.37 0,-4079.93 3307.44,-7387.37 7387.37,-7387.37z"/>
  <path class="fil1" d="M3694.19 936.01c1063.8,0 1926.18,862.38 1926.18,1926.18 0,1063.8 -862.38,1926.18 -1926.18,1926.18 -1063.8,0 -1926.18,-862.38 -1926.18,-1926.18 0,-1063.8 862.38,-1926.18 1926.18,-1926.18z"/>
  <g>
   <path class="fil2" d="M5286.44 2119.72c-39.52,-84.75 -2.86,-185.51 81.89,-225.03 84.75,-39.52 185.51,-2.86 225.03,81.89l-306.92 143.14zm503.26 742.47l-338.66 0 0 0 -0.16 -24.05 -0.5 -24.01 -0.82 -23.99 -1.15 -23.99 -1.46 -23.92 -1.81 -23.88 -2.13 -23.9 -2.44 -23.82 -2.77 -23.78 -3.09 -23.72 -3.42 -23.66 -3.74 -23.63 -4.06 -23.58 -4.38 -23.51 -4.7 -23.45 -5.02 -23.39 -5.32 -23.29 -5.66 -23.22 -5.96 -23.16 -6.29 -23.06 -6.59 -23 -6.91 -22.9 -7.23 -22.84 -7.54 -22.73 -7.84 -22.61 -8.15 -22.48 -8.49 -22.46 -8.77 -22.32 -9.09 -22.19 -9.4 -22.11 -9.69 -21.96 -10.02 -21.86 306.92 -143.14 11.94 26.06 11.59 26.24 11.2 26.33 10.85 26.51 10.47 26.62 10.09 26.7 9.75 26.9 9.36 27.01 8.98 27.09 8.61 27.2 8.25 27.32 7.87 27.42 7.49 27.52 7.12 27.62 6.74 27.72 6.36 27.81 5.98 27.87 5.6 27.97 5.22 28.03 4.84 28.1 4.46 28.17 4.08 28.26 3.69 28.32 3.31 28.36 2.92 28.42 2.53 28.42 2.15 28.54 1.76 28.56 1.37 28.57 0.98 28.63 0.58 28.65 0.2 28.67 0 0zm-2095.51 2095.51l0 -338.66 0 0 90.58 -2.29 89.29 -6.79 87.92 -11.17 86.48 -15.45 84.94 -19.6 83.31 -23.67 81.57 -27.59 79.73 -31.44 77.77 -35.16 75.72 -38.79 73.57 -42.3 71.29 -45.7 68.88 -48.98 66.4 -52.19 63.78 -55.25 61.05 -58.2 58.2 -61.05 55.25 -63.78 52.19 -66.4 48.98 -68.88 45.7 -71.29 42.3 -73.57 38.79 -75.72 35.16 -77.77 31.44 -79.73 27.59 -81.57 23.67 -83.31 19.6 -84.94 15.45 -86.48 11.17 -87.92 6.79 -89.29 2.29 -90.58 338.66 0 -2.73 107.66 -8.07 106.35 -13.33 104.88 -18.43 103.22 -23.42 101.44 -28.25 99.51 -32.97 97.43 -37.54 95.21 -41.98 92.87 -46.29 90.38 -50.46 87.75 -54.5 85.03 -58.42 82.14 -62.19 79.14 -65.83 76 -69.36 72.73 -72.73 69.36 -76 65.83 -79.14 62.19 -82.14 58.42 -85.03 54.5 -87.75 50.46 -90.38 46.29 -92.87 41.98 -95.21 37.54 -97.43 32.97 -99.51 28.25 -101.44 23.42 -103.22 18.43 -104.88 13.33 -106.35 8.07 -107.66 2.73 0 0zm-2095.51 -2095.51l338.66 0 0 0 2.29 90.58 6.79 89.29 11.17 87.92 15.45 86.48 19.6 84.94 23.67 83.31 27.59 81.57 31.44 79.73 35.16 77.77 38.79 75.72 42.3 73.57 45.7 71.29 48.98 68.88 52.19 66.4 55.25 63.78 58.19 61.05 61.06 58.2 63.78 55.25 66.4 52.19 68.88 48.98 71.29 45.7 73.57 42.3 75.72 38.79 77.77 35.16 79.73 31.44 81.57 27.59 83.31 23.67 84.94 19.6 86.48 15.45 87.92 11.17 89.29 6.79 90.58 2.29 0 338.66 -107.66 -2.73 -106.35 -8.07 -104.88 -13.33 -103.22 -18.43 -101.44 -23.42 -99.51 -28.25 -97.43 -32.97 -95.21 -37.54 -92.87 -41.98 -90.38 -46.29 -87.75 -50.46 -85.03 -54.5 -82.14 -58.42 -79.14 -62.19 -76 -65.83 -72.74 -69.36 -69.35 -72.73 -65.83 -76 -62.19 -79.14 -58.42 -82.14 -54.5 -85.03 -50.46 -87.75 -46.29 -90.38 -41.98 -92.87 -37.54 -95.21 -32.97 -97.43 -28.25 -99.51 -23.42 -101.44 -18.43 -103.22 -13.33 -104.88 -8.07 -106.35 -2.73 -107.66 0 0zm2095.51 -2095.51l0 338.66 0 0 -90.58 2.29 -89.29 6.79 -87.92 11.17 -86.48 15.45 -84.94 19.6 -83.31 23.67 -81.57 27.59 -79.73 31.44 -77.77 35.16 -75.72 38.79 -73.57 42.3 -71.29 45.7 -68.88 48.98 -66.4 52.19 -63.79 55.25 -61.05 58.19 -58.19 61.05 -55.25 63.79 -52.19 66.4 -48.98 68.88 -45.7 71.29 -42.3 73.57 -38.79 75.72 -35.16 77.77 -31.44 79.73 -27.59 81.57 -23.67 83.31 -19.6 84.94 -15.45 86.48 -11.17 87.92 -6.79 89.29 -2.29 90.58 -338.66 0 2.73 -107.66 8.07 -106.35 13.33 -104.88 18.43 -103.22 23.42 -101.44 28.25 -99.51 32.97 -97.43 37.54 -95.21 41.98 -92.87 46.29 -90.38 50.46 -87.75 54.5 -85.03 58.42 -82.14 62.19 -79.14 65.83 -75.99 69.35 -72.75 72.75 -69.35 75.99 -65.83 79.14 -62.19 82.14 -58.42 85.03 -54.5 87.75 -50.46 90.38 -46.29 92.87 -41.98 95.21 -37.54 97.43 -32.97 99.51 -28.25 101.44 -23.42 103.22 -18.43 104.88 -13.33 106.35 -8.07 107.66 -2.73 0 0zm1201.93 378.96l-194.24 277.42 -27.85 -19.1 -28.18 -18.54 -28.49 -17.99 -28.79 -17.39 -29.11 -16.84 -29.36 -16.26 -29.64 -15.66 -29.93 -15.11 -30.16 -14.5 -30.47 -13.93 -30.68 -13.35 -30.89 -12.73 -31.16 -12.16 -31.34 -11.55 -31.57 -10.94 -31.79 -10.36 -31.95 -9.74 -32.13 -9.14 -32.3 -8.51 -32.5 -7.92 -32.63 -7.29 -32.79 -6.67 -32.91 -6.06 -33.03 -5.41 -33.19 -4.8 -33.29 -4.17 -33.38 -3.54 -33.48 -2.89 -33.57 -2.26 -33.62 -1.61 -33.73 -0.97 -33.78 -0.33 0 -338.66 40.28 0.39 40.19 1.15 40.16 1.93 40.03 2.7 39.94 3.45 39.84 4.22 39.69 4.97 39.55 5.72 39.43 6.47 39.27 7.22 39.09 7.95 38.93 8.71 38.72 9.42 38.56 10.17 38.35 10.9 38.11 11.62 37.87 12.34 37.65 13.06 37.42 13.79 37.12 14.48 36.91 15.21 36.58 15.91 36.27 16.59 36.04 17.32 35.69 18.01 35.38 18.7 35.04 19.4 34.67 20.06 34.35 20.77 33.97 21.43 33.6 22.1 33.23 22.8zm0 0c76.6,53.63 95.22,159.23 41.59,235.83 -53.63,76.6 -159.23,95.22 -235.83,41.59l194.24 -277.42z"/>
  </g>
  <path class="fil3" d="M4198.18 13796.87l0 775.07c-1.56,10.66 -2.37,21.55 -2.37,32.64l0 3596.67c-495.87,0 -899.15,403.27 -899.15,899.18 0,495.9 403.28,899.16 899.16,899.16l2472.72 0 3.2 -0.04 1343.37 -0.01 2.21 0.03 2.21 -0.03 894.37 0 2.55 0.03 4495.85 -0.01 899.16 0 1573.53 0c495.91,0.03 899.19,-403.25 899.19,-899.13 0,-495.88 -403.28,-899.18 -899.16,-899.18l0 -3596.67c0,-5.39 -0.21,-10.74 -0.58,-16.04l0.04 -790.59 515.96 515.96c42.94,42.94 100.47,65.86 158.93,65.86 29,0 58.21,-5.61 86.09,-17.1 83.85,-34.85 138.69,-116.88 138.69,-207.71l0 -5619.76c0.03,-124.07 -100.68,-224.79 -224.76,-224.79l-168.19 0 -0.07 -0.35c-1018,0 -2062,0.18 -3102.25,0.35l-1300.55 0c-3,0 -5.97,0.07 -8.94,0.19l-946.5 0.05 -833.54 -833.54c-44.07,-44.07 -101.85,-65.85 -159.61,-65.85 -57.77,0 -115.54,21.81 -159.61,65.85l-834.38 834.53 -930.84 -0.12c-7.37,-0.73 -14.84,-1.11 -22.4,-1.11l-300.02 -0.01 -0.01 -1573.54c0,-124.08 -100.71,-224.79 -224.78,-224.79l-1798.32 0c-124.07,0 -224.79,100.71 -224.79,224.79 0,549.6 -0.05,1050.08 -0.05,1573.53l-2023.09 0c-59.57,0 -116.89,23.6 -158.93,65.85 -42.26,42.07 -65.86,99.39 -65.86,158.96l0.89 5619.79c0,91.04 54.85,172.86 138.94,207.72 27.86,11.45 56.87,17.09 85.87,17.09 58.67,0 116.23,-22.91 158.93,-65.85l516.89 -517.08z"/>
  <path class="fil4" d="M4298.44 2017.24c0,9.64 -0.96,21.69 -2.89,36.16 -1.93,14.46 -5.79,27.48 -11.57,39.05l-720.31 1741.45c-9.64,25.07 -26.03,47.25 -49.17,66.54 -23.15,19.28 -54,28.93 -92.57,28.93 -42.43,0 -79.55,-12.06 -111.37,-36.16 -31.82,-24.11 -48.7,-57.38 -50.63,-99.81 0,-9.64 0.97,-20.73 2.9,-33.26 1.92,-12.54 4.82,-23.63 8.67,-33.27l656.66 -1564.99 -720.3 0c-40.5,0 -76.17,-14.47 -107.03,-43.4 -30.86,-28.92 -46.28,-64.6 -46.28,-107.03 0,-42.43 14.46,-78.1 43.39,-107.03 28.92,-28.93 65.57,-43.39 109.92,-43.39l925.69 0c44.36,0 82.93,14.94 115.71,44.84 32.79,29.89 49.18,67.01 49.18,111.37z"/>
  <path class="fil5" d="M4460.42 13380.76c1.97,1.57 -0.28,2.13 -2.24,4.09 0,1333.81 0,3437.59 0,4771.4 -495.52,45.85 -806.69,154.96 -806.69,654.61 0,534.28 433.28,968.7 966.16,968.7 3327.77,0 7394.51,-0.04 11397.17,-0.04 533.07,0 965.79,-434.17 965.79,-968.59 0.12,-0.02 0.23,-0.05 0.35,-0.07 0,-499.61 -341.18,-588.76 -836.69,-634.58l0.21 -4691.62 -0.51 -2.35c114.26,115.74 190.75,233.2 310.08,352.84 89.12,89.36 221.15,114.28 336.08,66.95 0.12,0 0.24,0 0.37,0 114.63,-47.78 190.43,-161.25 190.43,-285.78 0,-1831.25 0,-3302.54 0,-5133.79 0,-85.37 -34.58,-162.74 -90.41,-218.73 -55.59,-55.73 -153.94,-173.37 -239.32,-173.38 -0.02,-0.13 -0.03,-0.23 -0.07,-0.36 -1778.82,0 -3637.04,0.59 -5415.87,0.59 -11.76,0 -14.66,0.45 -14.66,0.45 -262.62,-263.3 -423.53,-442.97 -686.15,-706.28 -57.53,-57.68 -137.57,-90.67 -218.89,-90.67 -81.56,0 -160.86,32.87 -218.55,90.67 -0.12,0 -0.23,0 -0.35,0 -262.57,263.31 -446.32,443.54 -708.89,706.83 0,0 -1435.09,-0.21 -1460.56,-0.14 0.49,-795.19 21.17,83.08 22.14,-1366.91 0,-85.41 -34.59,-162.8 -90.44,-218.8 -6.11,0 -130.37,-90.67 -218.23,-90.67 -584.46,0 -904.32,0 -1488.78,0 -84.95,0 -162.02,34.68 -217.87,90.67 -58.18,58.33 -90.78,136.21 -90.78,218.8 0,1522.51 -1.15,962.14 0.95,1448.5 -628.03,0 -1256.03,0 -1884.06,0 -81.45,0 -160.36,32.94 -217.87,90.67 -0.13,0.12 -0.23,0.24 -0.35,0.37 -57.6,57.71 -90.43,136.76 -90.43,218.46 0.1,0 0.23,0 0.33,0 0.3,1831.25 0.58,3222.49 0.88,5053.73 -0.1,0 -0.23,0 -0.33,0 0,147.75 105.02,274.29 248.66,303.55 100.72,20.11 205.69,-11.95 278.22,-85.07 119.71,-120.06 166.54,-257.9 281.17,-374.05z"/>
  <path class="fil6" d="M13275.69 19779.52l2739.13 0c533.07,0 965.79,-434.17 965.79,-968.59 0.12,-0.02 0.23,-0.05 0.35,-0.07 0,-499.61 -341.18,-588.76 -836.69,-634.58l0.21 -4691.62 -0.51 -2.35c114.26,115.74 190.75,233.2 310.08,352.84 89.12,89.36 221.15,114.28 336.08,66.95 0.12,0 0.24,0 0.37,0 114.63,-47.78 190.43,-161.25 190.43,-285.78 0,-1831.25 0,-3302.54 0,-5133.79 0,-85.37 -34.58,-162.74 -90.41,-218.73 -55.59,-55.73 -153.94,-173.37 -239.32,-173.38 -0.02,-0.13 -0.03,-0.23 -0.07,-0.36l-3375.44 0.39 0 11689.07z"/>
  <path class="fil7" d="M7136.91 18463.66c-91.28,-528.49 -553.23,-931.98 -1107.56,-931.98 -442.61,0 -826.11,257.16 -1009.32,629.86 -36.2,-25.85 -74.87,-48.79 -114.64,-69.47l0 -3707.49c0,-124.07 -100.71,-224.78 -224.79,-224.78 -124.07,0 -224.79,100.7 -224.79,224.78l0 3596.67c-495.87,0 -899.15,403.27 -899.15,899.18 0,495.9 403.28,899.16 899.16,899.16l2472.72 0c371.8,0 674.38,-302.58 674.38,-674.38 0,-299.2 -195.81,-553.43 -466.01,-641.55zm690.79 -4528.67l-1798.32 0c-124.07,0 -224.79,100.71 -224.79,224.79l0 2472.72 -224.8 0c-124.07,0 -224.79,100.7 -224.79,224.78 0,124.08 100.72,224.81 224.79,224.81l2697.5 0c124.07,0 224.79,-100.71 224.79,-224.79 0,-124.08 -100.71,-224.79 -224.79,-224.79l-224.78 0.01 0 -2472.72c0,-124.1 -100.71,-224.81 -224.81,-224.81zm-224.78 2697.51l-1348.76 0 0 -899.17 1348.76 0 0 899.17zm0 -1348.76l-1348.76 0 0 -899.16 1348.76 0 0 899.16zm4945.41 3371.88c0,-124.07 -100.7,-224.78 -224.78,-224.78l-674.38 0 0 -4271.04c0,-124.08 -100.7,-224.79 -224.78,-224.79l-2247.91 0.01c-124.07,0 -224.79,100.7 -224.79,224.78l0 4271.04 -674.37 0c-124.07,0 -224.79,100.7 -224.79,224.78l0 899.17c0,124.07 100.71,224.78 224.79,224.78 124.08,0 224.78,-100.71 224.78,-224.78l0 -674.38 3821.45 -0.01c124.07,0.03 224.78,-100.68 224.78,-224.78zm-1348.75 -2472.7l-224.78 0c-124.08,0 -224.79,100.71 -224.79,224.79 0,124.08 100.71,224.79 224.79,224.79l224.78 0 0 1798.34 -1798.35 0 0 -4046.26 1798.35 0 0 1798.34zm3371.88 -2247.93l-1798.35 0c-124.07,0 -224.78,100.71 -224.78,224.79l0 2472.72 -224.78 0c-124.07,0 -224.79,100.7 -224.79,224.78 0,124.08 100.71,224.79 224.79,224.79l2697.5 -0.01c124.07,0 224.79,-100.71 224.79,-224.79 0,-124.07 -100.71,-224.78 -224.79,-224.78l-224.78 0.01 0 -2472.72c0,-124.08 -100.71,-224.79 -224.81,-224.79zm-224.78 2697.51l-1348.76 0 0 -899.17 1348.76 0 0 899.17zm0 -1348.76l-1348.76 0 0 -899.16 1348.76 0 0 899.16zm-3147.1 -4495.82c0,-495.91 -403.28,-899.17 -899.16,-899.17 -495.9,0 -899.16,403.29 -899.16,899.17 0,495.87 403.26,899.16 899.16,899.16 495.9,0 899.16,-403.29 899.16,-899.16zm-1348.75 0c0,-247.94 201.63,-449.59 449.59,-449.59 247.94,0 449.59,201.62 449.59,449.59 0,247.94 -201.63,449.59 -449.59,449.59 -247.94,-0.02 -449.59,-201.65 -449.59,-449.59zm6294.19 7193.33l0 -3596.67c0,-124.07 -100.71,-224.78 -224.79,-224.78 -124.08,0 -224.78,100.7 -224.78,224.78l0 3707.49c-39.78,20.68 -78.45,43.6 -114.65,69.47 -183.21,-372.7 -566.71,-629.86 -1009.32,-629.86 -554.33,0 -1016.28,403.5 -1107.56,931.98 -270.2,88.12 -466,342.36 -466,641.55 0,79.35 16.17,154.22 41.59,224.79l-3863.06 0c-124.07,0 -224.78,100.71 -224.78,224.79 0,124.07 100.7,224.78 224.78,224.78l4495.85 -0.01 899.16 0 1573.53 0c495.91,0.03 899.19,-403.25 899.19,-899.13 0,-495.88 -403.28,-899.18 -899.16,-899.18zm0 1348.75l-1573.53 0 -899.19 0c-123.87,0 -224.79,-100.92 -224.79,-224.79 0,-123.86 100.92,-224.78 224.79,-224.78 124.07,0 224.79,-100.71 224.79,-224.79 0,-371.8 302.57,-674.37 674.37,-674.37 371.8,0 674.38,302.57 674.38,674.37 0,108.8 77.79,201.87 184.76,221.2 106.77,19.55 212.67,-40.7 250.65,-142.51 67.65,-181.63 254.02,-303.47 463.74,-303.47 247.94,0 449.59,201.63 449.59,449.59 0,247.97 -201.62,449.55 -449.56,449.55zm674.37 -11239.59l-4571.06 0c-124.07,0 -224.78,100.71 -224.78,224.79 0,124.08 100.7,224.78 224.78,224.78l4346.26 0 0 4852.38 -6135.24 -6135.25c-44.07,-44.07 -101.85,-65.85 -159.61,-65.85 -57.77,0 -115.54,21.81 -159.61,65.85l-6133.88 6135.01 0 -4852.14 2023.09 -2.13c124.07,0 224.78,-100.7 224.78,-224.78 -0.01,-751.52 0.04,-970.18 0.04,-1571.41l1348.76 0 0.05 1571.41c0,124.07 100.71,224.78 224.79,224.78l524.75 2.13c124.07,0 224.78,-100.7 224.78,-224.78 0,-124.08 -100.7,-224.79 -224.78,-224.79l-300.02 -0.01 -0.01 -1573.54c0,-124.08 -100.71,-224.79 -224.78,-224.79l-1798.32 0c-124.07,0 -224.79,100.71 -224.79,224.79 0,549.6 -0.05,1050.08 -0.05,1573.53l-2023.09 0c-59.57,0 -116.89,23.6 -158.93,65.85 -42.26,42.07 -65.86,99.39 -65.86,158.96l0.89 5619.79c0,91.04 54.85,172.86 138.94,207.72 27.86,11.45 56.87,17.09 85.87,17.09 58.67,0 116.23,-22.91 158.93,-65.85l6358.44 -6360.75 6360.71 6360.71c42.94,42.94 100.47,65.86 158.93,65.86 29,0 58.21,-5.61 86.09,-17.1 83.85,-34.85 138.69,-116.88 138.69,-207.71l0 -5619.76c0.03,-124.07 -100.68,-224.79 -224.76,-224.79zm-9890.85 11239.59l-2472.72 0c-247.94,0 -449.59,-201.63 -449.59,-449.59 0,-247.97 201.65,-449.57 449.59,-449.57 209.75,0 396.09,121.84 463.74,303.47 37.98,101.84 143.2,161.85 250.65,142.51 107.01,-19.34 184.77,-112.4 184.77,-221.2 0,-371.8 302.57,-674.38 674.37,-674.38 371.8,0 674.38,302.58 674.38,674.38 0,124.07 100.71,224.78 224.78,224.78 123.87,0 224.79,100.92 224.79,224.79 0,123.87 -100.89,224.81 -224.76,224.81z"/>
  <path class="fil8" d="M18845.65 1055.23l7091.34 0c657.51,0 1254.98,268.71 1687.87,701.6 432.89,432.89 701.6,1030.36 701.6,1687.87l0 1334c0,657.51 -268.71,1254.98 -701.6,1687.87 -432.89,432.89 -1030.36,701.6 -1687.87,701.6l-5340.1 0 -2979.13 1455.07c-193.24,94.1 -426.2,13.72 -520.3,-179.52 -78.35,-160.9 -35.72,-349.33 92.3,-462.21l881.87 -942.64c-347.4,-119.72 -659.13,-317.58 -913.85,-572.3 -432.89,-432.89 -701.6,-1030.36 -701.6,-1687.87l0 -1334c0,-657.51 268.71,-1254.98 701.6,-1687.87 432.89,-432.89 1030.36,-701.6 1687.87,-701.6z"/>
  <path class="fil5" d="M19025.65 1344.7l7091.34 0c1100,0 2000,900 2000,2000l0 1334c0,1100 -900,2000 -2000,2000l-5429.49 0 -3060.13 1494.63 1398.28 -1494.63c-1100,0 -2000,-900 -2000,-2000l0 -1334c0,-1100 900,-2000 2000,-2000z"/>
  <path class="fil9" d="M19025.65 955.23l7091.34 0c657.51,0 1254.98,268.71 1687.87,701.6 432.89,432.89 701.6,1030.36 701.6,1687.87l0 1334c0,657.51 -268.71,1254.98 -701.6,1687.87 -432.89,432.89 -1030.36,701.6 -1687.87,701.6l-5340.1 0 -2979.13 1455.07c-193.24,94.1 -426.2,13.72 -520.3,-179.52 -78.35,-160.9 -35.72,-349.33 92.3,-462.21l881.87 -942.64c-347.4,-119.72 -659.13,-317.58 -913.85,-572.3 -432.89,-432.89 -701.6,-1030.36 -701.6,-1687.87l0 -1334c0,-657.51 268.71,-1254.98 701.6,-1687.87 432.89,-432.89 1030.36,-701.6 1687.87,-701.6zm0 389.47l7091.34 0c1100,0 2000,900 2000,2000l0 1334c0,1100 -900,2000 -2000,2000l-5429.49 0 -3060.13 1494.63 1398.28 -1494.63c-1100,0 -2000,-900 -2000,-2000l0 -1334c0,-1100 900,-2000 2000,-2000z"/>
  <path class="fil10" d="M19704.27 4391c0,93.14 -13.76,185.21 -41.27,276.23 -27.52,91.02 -71.44,173.57 -131.77,247.65 -60.32,74.08 -137.05,133.88 -230.18,179.39 -93.14,45.51 -204.26,68.26 -333.38,68.26 -38.1,0 -96.31,-3.7 -174.62,-11.11 -78.32,-7.41 -157.17,-21.7 -236.54,-42.87 -79.38,-21.16 -149.23,-51.85 -209.55,-92.07 -60.33,-40.22 -90.49,-93.13 -90.49,-158.75 0,-52.92 20.11,-98.95 60.33,-138.11 40.21,-39.16 91.01,-58.74 152.4,-58.74 31.75,0 61.38,6.35 88.9,19.05 27.51,12.7 57.67,25.93 90.48,39.69 32.81,13.76 68.79,26.98 107.95,39.68 39.16,12.7 85.2,19.05 138.12,19.05 69.85,0 128.58,-10.58 176.21,-31.75 47.62,-21.16 85.72,-49.21 114.3,-84.13 28.57,-34.93 48.68,-75.14 60.32,-120.65 11.64,-45.51 17.47,-91.55 17.47,-138.12 0,-118.53 -29.11,-205.31 -87.32,-260.35 -58.21,-55.03 -130.7,-82.55 -217.48,-82.55 -35.99,0 -67.21,3.18 -93.67,9.53 -26.46,6.35 -53.44,16.93 -80.96,31.75 -25.4,19.05 -50.8,35.98 -76.2,50.8 -23.28,12.7 -48.15,23.81 -74.61,33.34 -26.46,9.52 -52.39,14.28 -77.79,14.28 -63.5,0 -116.95,-20.1 -160.34,-60.32 -43.39,-40.22 -64.03,-92.08 -61.91,-155.58l31.75 -876.3c2.12,-67.73 28.05,-120.12 77.79,-157.16 49.74,-37.04 104.24,-55.56 163.51,-55.56l765.18 0c27.51,0 56.09,3.7 85.72,11.11 29.63,7.41 55.56,19.05 77.79,34.93 22.22,15.87 40.74,36.51 55.56,61.91 14.82,25.4 22.23,56.09 22.23,92.07 0,35.99 -7.41,66.15 -22.23,90.49 -14.82,24.34 -33.34,44.45 -55.56,60.33 -22.23,15.87 -48.16,26.98 -77.79,33.33 -29.63,6.35 -58.21,9.53 -85.72,9.53l-593.73 0 -19.05 412.75c31.75,-10.58 65.09,-17.46 100.01,-20.64 34.93,-3.17 70.38,-4.76 106.37,-4.76 107.95,0 207.43,16.4 298.45,49.21 91.01,32.81 169.33,79.91 234.95,141.29 65.61,61.38 116.41,136 152.4,223.84 35.98,87.84 53.97,187.85 53.97,300.03zm1435.1 -206.37c0,55.03 -20.11,101.07 -60.32,138.11 -40.22,37.04 -89.96,55.56 -149.23,55.56l-790.57 0c-61.39,0 -112.19,-18.52 -152.4,-55.56 -40.22,-37.04 -60.33,-83.08 -60.33,-138.11 0,-52.92 20.11,-98.43 60.33,-136.53 40.21,-38.1 91.01,-57.15 152.4,-57.15l790.57 0c59.27,0 109.01,19.05 149.23,57.15 40.21,38.1 60.32,83.61 60.32,136.53zm1692.28 752.47c0,55.04 -21.17,102.13 -63.5,141.29 -42.33,39.16 -94.19,58.74 -155.57,58.74l-1044.58 0c-67.73,0 -122.24,-20.11 -163.51,-60.33 -41.28,-40.21 -61.91,-89.95 -61.91,-149.22 0,-23.28 1.58,-48.15 4.76,-74.61 3.17,-26.46 10.05,-51.33 20.64,-74.62 31.75,-69.85 69.32,-135.46 112.71,-196.85 43.39,-61.38 90.49,-119.59 141.29,-174.62 50.8,-55.03 104.24,-108.48 160.33,-160.34 56.09,-51.86 112.72,-103.19 169.87,-153.99 44.45,-40.21 91.54,-81.49 141.28,-123.82 49.74,-42.33 95.78,-87.31 138.12,-134.94 42.33,-47.62 77.78,-97.36 106.36,-149.22 28.57,-51.86 42.86,-107.42 42.86,-166.69 0,-80.43 -24.87,-148.7 -74.61,-204.79 -49.74,-56.09 -124.36,-84.14 -223.84,-84.14 -55.03,0 -103.72,4.24 -146.05,12.7 -42.33,8.47 -82.55,21.17 -120.65,38.1 -35.98,14.82 -70.91,32.81 -104.77,53.98 -33.87,21.17 -74.09,31.75 -120.65,31.75 -55.04,0 -104.78,-17.46 -149.23,-52.39 -44.45,-34.92 -66.67,-82.02 -66.67,-141.29 0,-57.15 24.87,-106.89 74.61,-149.22 49.74,-42.33 111.12,-76.73 184.15,-103.19 73.02,-26.46 150.81,-46.04 233.36,-58.74 82.55,-12.7 155.58,-19.05 219.08,-19.05 116.41,0 220.13,16.94 311.15,50.8 91.01,33.87 167.74,79.91 230.18,138.12 62.44,58.21 110.07,126.47 142.88,204.78 32.81,78.32 49.21,161.93 49.21,250.83 0,135.47 -23.28,250.3 -69.85,344.49 -46.57,94.19 -106.89,179.38 -180.97,255.58 -52.92,55.04 -109.54,109.01 -169.87,161.93 -60.32,52.92 -119.59,106.36 -177.8,160.34 -58.21,53.97 -114.83,107.95 -169.86,161.92 -55.03,53.98 -103.72,110.6 -146.05,169.86l708.03 0c61.38,0 113.24,19.05 155.57,57.15 42.33,38.1 63.5,84.67 63.5,139.7zm971.55 -1708.15c-105.83,0 -180.97,32.28 -225.42,96.84 -44.45,64.56 -66.68,147.64 -66.68,249.24l0 895.35c0,91.02 24.87,164.57 74.61,220.66 49.74,56.09 122.24,84.14 217.49,84.14 95.25,0 167.75,-28.05 217.49,-84.14 49.74,-56.09 74.61,-129.64 74.61,-220.66l0 -895.35c0,-101.6 -22.22,-184.68 -66.67,-249.24 -44.45,-64.56 -119.6,-96.84 -225.43,-96.84zm0 -387.35c127,0 237.07,19.58 330.2,58.74 93.13,39.16 169.33,93.14 228.6,161.93 59.27,68.79 103.19,149.22 131.76,241.3 28.58,92.07 42.87,189.97 42.87,293.68l0 873.13c0,97.37 -15.88,188.38 -47.63,273.05 -31.75,84.67 -78.85,158.22 -141.29,220.66 -62.44,62.44 -139.17,111.66 -230.18,147.64 -91.02,35.98 -195.8,53.98 -314.33,53.98 -118.53,0 -223.31,-18 -314.32,-53.98 -91.02,-35.98 -167.75,-85.2 -230.19,-147.64 -62.44,-62.44 -109.54,-135.99 -141.29,-220.66 -31.75,-84.67 -47.62,-175.68 -47.62,-273.05l0 -873.13c0,-103.71 14.28,-201.61 42.86,-293.68 28.57,-92.08 72.49,-172.51 131.76,-241.3 59.27,-68.79 135.47,-122.77 228.6,-161.93 93.13,-39.16 203.2,-58.74 330.2,-58.74zm2625.73 2324.11c-82.55,0 -156.11,-14.29 -220.67,-42.87 -64.56,-28.57 -118,-67.73 -160.33,-117.47 -42.34,-49.74 -74.62,-108.48 -96.84,-176.22 -22.23,-67.73 -33.34,-140.75 -33.34,-219.07 0,-78.32 11.11,-151.34 33.34,-219.08 22.22,-67.73 55.03,-126.47 98.42,-176.21 43.39,-49.74 96.84,-88.9 160.34,-117.47 63.5,-28.58 136.53,-42.87 219.08,-42.87 82.55,0 155.57,14.29 219.07,42.87 63.5,28.57 116.95,67.73 160.34,117.47 43.39,49.74 76.2,108.48 98.42,176.21 22.23,67.74 33.34,140.76 33.34,219.08 0,78.32 -11.11,151.34 -33.34,219.07 -22.22,67.74 -54.5,126.48 -96.83,176.22 -42.34,49.74 -95.78,88.9 -160.34,117.47 -64.56,28.58 -138.11,42.87 -220.66,42.87zm-936.63 -123.83c-25.4,42.33 -61.38,71.44 -107.95,87.31 -46.57,15.88 -96.31,18.52 -149.22,7.94 -50.8,-16.93 -88.38,-49.21 -112.72,-96.84 -24.34,-47.62 -29.1,-96.84 -14.28,-147.64l15.87 -34.92 1069.98 -1892.3c27.51,-42.33 64.02,-71.44 109.53,-87.31 45.51,-15.88 92.61,-16.41 141.29,-1.59 48.68,14.82 86.78,41.8 114.3,80.96 27.52,39.16 34.93,83.08 22.23,131.76 -2.12,10.59 -4.77,21.17 -7.94,31.75 -3.18,10.59 -6.88,19.05 -11.11,25.4l-1069.98 1895.48zm936.63 -231.78c91.01,0 136.52,-68.79 136.52,-206.37 0,-61.38 -11.11,-109.01 -33.34,-142.88 -22.22,-33.86 -56.62,-50.8 -103.18,-50.8 -46.57,0 -80.97,16.94 -103.19,50.8 -22.23,33.87 -33.34,81.5 -33.34,142.88 0,137.58 45.51,206.37 136.53,206.37zm-1177.93 -1187.45c91.02,0 136.53,-68.79 136.53,-206.37 0,-61.38 -11.12,-109.01 -33.34,-142.88 -22.23,-33.86 -56.62,-50.8 -103.19,-50.8 -46.57,0 -80.96,16.94 -103.19,50.8 -22.22,33.87 -33.33,81.5 -33.33,142.88 0,137.58 45.5,206.37 136.52,206.37zm0 355.6c-82.55,0 -155.57,-14.28 -219.07,-42.86 -63.5,-28.57 -116.95,-67.73 -160.34,-117.47 -43.39,-49.74 -76.2,-108.48 -98.43,-176.22 -22.22,-67.73 -33.33,-140.75 -33.33,-219.07 0,-78.32 11.11,-151.34 33.33,-219.08 22.23,-67.73 54.51,-126.47 96.84,-176.21 42.33,-49.74 95.78,-88.9 160.34,-117.47 64.56,-28.58 138.11,-42.87 220.66,-42.87 82.55,0 156.1,14.29 220.66,42.87 64.56,28.57 118.01,67.73 160.34,117.47 42.33,49.74 74.61,108.48 96.84,176.21 22.22,67.74 33.34,140.76 33.34,219.08 0,78.32 -11.12,151.34 -33.34,219.07 -22.23,67.74 -55.04,126.48 -98.43,176.22 -43.39,49.74 -96.83,88.9 -160.33,117.47 -63.5,28.58 -136.53,42.86 -219.08,42.86z"/>
  <path class="fil8" d="M14022.34 4060.41c880.69,0 1594.74,714.05 1594.74,1594.74 0,880.69 -714.05,1594.74 -1594.74,1594.74 -880.69,0 -1594.74,-714.05 -1594.74,-1594.74 0,-880.69 714.05,-1594.74 1594.74,-1594.74zm-3778.66 -2808.42l-3.85 0c-105.96,0 -192.63,86.68 -192.63,192.63l0 0.02c0,105.95 86.67,192.63 192.63,192.63l3.85 0c105.96,0 192.63,-86.68 192.63,-192.63l0 -0.02c0,-105.95 -86.67,-192.63 -192.63,-192.63zm-1.92 600l-0.01 0c-107.01,0 -194.55,87.54 -194.55,194.55l0 621.69c0,107.01 87.54,194.55 194.55,194.55l0.01 0c107.01,0 194.55,-87.54 194.55,-194.55l0 -621.69c0,-107.01 -87.54,-194.55 -194.55,-194.55zm-1397.4 -176.15l-0.01 0c-107.01,0 -194.55,87.54 -194.55,194.55l0 1067.36c0,107.01 87.54,194.55 194.55,194.55l0.01 0c107.01,0 194.55,-87.54 194.55,-194.55l0 -1067.36c0,-107.01 -87.54,-194.55 -194.55,-194.55zm809.54 1584.41c880.69,0 1594.74,714.05 1594.74,1594.74 0,880.69 -714.05,1594.74 -1594.74,1594.74 -880.69,0 -1594.74,-714.05 -1594.74,-1594.74 0,-880.69 714.05,-1594.74 1594.74,-1594.74zm3696.97 512.23l-3.85 0c-105.96,0 -192.63,-86.68 -192.63,-192.63l0 -0.02c0,-105.95 86.67,-192.63 192.63,-192.63l3.85 0c105.96,0 192.63,86.68 192.63,192.63l0 0.02c0,105.95 -86.67,192.63 -192.63,192.63zm-1.92 -600l-0.01 0c-107.01,0 -194.55,-87.54 -194.55,-194.55l0 -621.69c0,-107.01 87.54,-194.55 194.55,-194.55l0.01 0c107.01,0 194.55,87.54 194.55,194.55l0 621.69c0,107.01 -87.54,194.55 -194.55,194.55zm1360.81 -142.42l-0.01 0c-107.01,0 -194.55,-87.54 -194.55,-194.55l0 -1261.91c0,-107.01 87.54,-194.55 194.55,-194.55l0.01 0c107.01,0 194.55,87.54 194.55,194.55l0 1261.91c0,107.01 -87.54,194.55 -194.55,194.55z"/>
  <path class="fil5" d="M14122.34 4195.15c773.19,0 1400,626.8 1400,1400 0,773.2 -626.81,1400 -1400,1400 -773.19,0 -1400,-626.8 -1400,-1400 0,-773.2 626.81,-1400 1400,-1400z"/>
  <path class="fil11" d="M14122.34 4000.41c880.69,0 1594.74,714.05 1594.74,1594.74 0,880.69 -714.05,1594.74 -1594.74,1594.74 -880.69,0 -1594.74,-714.05 -1594.74,-1594.74 0,-880.69 714.05,-1594.74 1594.74,-1594.74zm0 389.48c-665.7,0 -1205.26,539.56 -1205.26,1205.26 0,665.7 539.56,1205.26 1205.26,1205.26 665.7,0 1205.26,-539.56 1205.26,-1205.26 0,-665.7 -539.56,-1205.26 -1205.26,-1205.26z"/>
  <path class="fil11" d="M13727.54 5620.93l0 -791.6c0,-87.53 76.8,-154.72 162.45,-154.72l288.79 0c379.11,0 618.85,204.78 618.85,590.48 0,396.91 -275.8,556.97 -654.95,556.97l-131.51 0 0 134.09 327.49 0c52.93,0 100.56,40.7 100.56,95.4 0,57.77 -44.36,95.4 -100.56,95.4l-327.49 0 0 232.07c0,63.51 -77.58,136.67 -141.81,136.67 -75.5,0 -141.82,-59.7 -141.82,-136.67l0 -232.07 -179.91 0c-56.13,0 -100.56,-37.63 -100.56,-95.4 0,-54.7 47.63,-95.4 100.56,-95.4l179.91 0 0 -144.4 -179.91 0c-56.13,0 -100.56,-37.63 -100.56,-95.4 0,-54.7 47.63,-95.42 100.56,-95.42l179.91 0zm283.63 -36.09l167.61 0c223.47,0 365.16,-107.44 365.16,-322.32 0,-217.33 -148.99,-322.31 -365.16,-322.31l-167.61 0 0 644.63z"/>
  <path class="fil9" d="M14809.76 2970.06l-0.01 0c-107.01,0 -194.55,-87.54 -194.55,-194.55l0 -1261.91c0,-107.01 87.54,-194.55 194.55,-194.55l0.01 0c107.01,0 194.55,87.54 194.55,194.55l0 1261.91c0,107.01 -87.54,194.55 -194.55,194.55z"/>
  <path class="fil9" d="M13448.95 3112.48l-0.01 0c-107.01,0 -194.55,-87.54 -194.55,-194.55l0 -621.69c0,-107.01 87.54,-194.55 194.55,-194.55l0.01 0c107.01,0 194.55,87.54 194.55,194.55l0 621.69c0,107.01 -87.54,194.55 -194.55,194.55z"/>
  <path class="fil9" d="M13450.87 3712.48l-3.85 0c-105.96,0 -192.63,-86.68 -192.63,-192.63l0 -0.02c0,-105.95 86.67,-192.63 192.63,-192.63l3.85 0c105.96,0 192.63,86.68 192.63,192.63l0 0.02c0,105.95 -86.67,192.63 -192.63,192.63z"/>
  <path class="fil5" d="M9753.9 3394.99c773.19,0 1400,626.8 1400,1400 0,773.2 -626.81,1400 -1400,1400 -773.19,0 -1400,-626.8 -1400,-1400 0,-773.2 626.81,-1400 1400,-1400z"/>
  <path class="fil11" d="M9753.9 3200.25c880.69,0 1594.74,714.05 1594.74,1594.74 0,880.69 -714.05,1594.74 -1594.74,1594.74 -880.69,0 -1594.74,-714.05 -1594.74,-1594.74 0,-880.69 714.05,-1594.74 1594.74,-1594.74zm0 389.48c-665.7,0 -1205.26,539.56 -1205.26,1205.26 0,665.7 539.56,1205.26 1205.26,1205.26 665.7,0 1205.26,-539.56 1205.26,-1205.26 0,-665.7 -539.56,-1205.26 -1205.26,-1205.26z"/>
  <path class="fil11" d="M9359.1 4820.77l0 -791.6c0,-87.53 76.8,-154.72 162.45,-154.72l288.79 0c379.11,0 618.85,204.78 618.85,590.48 0,396.91 -275.8,556.97 -654.95,556.97l-131.51 0 0 134.09 327.49 0c52.93,0 100.56,40.7 100.56,95.4 0,57.77 -44.36,95.4 -100.56,95.4l-327.49 0 0 232.07c0,63.51 -77.58,136.67 -141.81,136.67 -75.5,0 -141.82,-59.7 -141.82,-136.67l0 -232.07 -179.91 0c-56.13,0 -100.56,-37.63 -100.56,-95.4 0,-54.7 47.63,-95.4 100.56,-95.4l179.91 0 0 -144.4 -179.91 0c-56.13,0 -100.56,-37.63 -100.56,-95.4 0,-54.7 47.63,-95.42 100.56,-95.42l179.91 0zm283.63 -36.09l167.61 0c223.47,0 365.16,-107.44 365.16,-322.32 0,-217.33 -148.99,-322.31 -365.16,-322.31l-167.61 0 0 644.63z"/>
  <path class="fil9" d="M8944.36 1615.84l-0.01 0c-107.01,0 -194.55,87.54 -194.55,194.55l0 1067.36c0,107.01 87.54,194.55 194.55,194.55l0.01 0c107.01,0 194.55,-87.54 194.55,-194.55l0 -1067.36c0,-107.01 -87.54,-194.55 -194.55,-194.55z"/>
  <path class="fil9" d="M10341.76 1791.99l-0.01 0c-107.01,0 -194.55,87.54 -194.55,194.55l0 621.69c0,107.01 87.54,194.55 194.55,194.55l0.01 0c107.01,0 194.55,-87.54 194.55,-194.55l0 -621.69c0,-107.01 -87.54,-194.55 -194.55,-194.55z"/>
  <path class="fil9" d="M10343.68 1191.99l-3.85 0c-105.96,0 -192.63,86.68 -192.63,192.63l0 0.02c0,105.95 86.67,192.63 192.63,192.63l3.85 0c105.96,0 192.63,-86.68 192.63,-192.63l0 -0.02c0,-105.95 -86.67,-192.63 -192.63,-192.63z"/>
  <path class="fil12" d="M20876.72 9833.32l0 0c100.57,0 182.84,82.27 182.84,182.83l0 365.66 365.65 0c100.56,0 182.83,82.28 182.83,182.84l0 0c0,100.55 -82.27,182.83 -182.83,182.83l-365.65 0 0 365.64c0,100.56 -82.27,182.85 -182.84,182.85l0 0c-100.54,0 -182.82,-82.29 -182.82,-182.85l0 -365.64 -365.66 0c-100.58,0 -182.85,-82.28 -182.85,-182.83l0 0c0,-100.56 82.27,-182.84 182.85,-182.84l365.66 0 0 -365.66c0,-100.56 82.28,-182.83 182.82,-182.83z"/>
  <path class="fil13" d="M2958.04 6569.98c165.69,0 300,134.31 300,300 0,165.69 -134.31,300 -300,300 -165.69,0 -300,-134.31 -300,-300 0,-165.69 134.31,-300 300,-300z"/>
  <path class="fil14" d="M2153.88 15506.68l0.02 0c85.27,0 155.04,69.76 155.04,155.04l0 310.11c0,85.28 -69.77,155.04 -155.04,155.04l-0.02 0c-85.28,0 -155.04,-69.76 -155.04,-155.04l0 -310.11c0,-85.28 69.76,-155.04 155.04,-155.04zm155.41 775.6l0 -0.02c0,-85.27 69.76,-155.03 155.03,-155.03l310.12 0c85.27,0 155.03,69.76 155.03,155.03l0 0.02c0,85.28 -69.76,155.04 -155.03,155.04l-310.12 0c-85.27,0 -155.03,-69.76 -155.03,-155.04zm-931 0l0 -0.02c0,-85.27 69.76,-155.03 155.04,-155.03l310.11 0c85.28,0 155.04,69.76 155.04,155.03l0 0.02c0,85.28 -69.76,155.04 -155.04,155.04l-310.11 0c-85.28,0 -155.04,-69.76 -155.04,-155.04zm775.59 155.39l0.02 0c85.27,0 155.04,69.76 155.04,155.04l0 310.11c0,85.28 -69.77,155.04 -155.04,155.04l-0.02 0c-85.28,0 -155.04,-69.76 -155.04,-155.04l0 -310.11c0,-85.28 69.76,-155.04 155.04,-155.04z"/>
  <path class="fil14" d="M24886.71 9760.32c110.46,0 200,89.54 200,200 0,110.46 -89.54,200 -200,200 -110.46,0 -200,-89.54 -200,-200 0,-110.46 89.54,-200 200,-200z"/>
  <path class="fil14" d="M25841.7 15158.69l0 0c103.41,0 188.01,84.6 188.01,187.99l0 375.98 375.96 0c103.39,0 187.99,84.6 187.99,187.99l0 0c0,103.39 -84.6,187.99 -187.99,187.99l-375.96 0 0 375.96c0,103.4 -84.6,188.01 -188.01,188.01l0 0c-103.38,0 -187.97,-84.61 -187.97,-188.01l0 -375.96 -375.98 0c-103.41,0 -188.01,-84.6 -188.01,-187.99l0 0c0,-103.39 84.6,-187.99 188.01,-187.99l375.98 0 0 -375.98c0,-103.39 84.59,-187.99 187.97,-187.99z"/>
  <g>
   <path class="fil14" d="M19570.39 16858.02c276.14,0 500,223.86 500,500 0,276.14 -223.86,500 -500,500 -276.14,0 -500,-223.86 -500,-500 0,-276.14 223.86,-500 500,-500zm203.89 296.11c-52.16,-52.16 -124.26,-84.44 -203.89,-84.44 -79.63,0 -151.73,32.28 -203.89,84.44 -52.16,52.16 -84.44,124.26 -84.44,203.89 0,79.63 32.28,151.73 84.44,203.89 52.16,52.17 124.26,84.44 203.89,84.44 79.63,0 151.73,-32.27 203.89,-84.44 52.17,-52.16 84.44,-124.26 84.44,-203.89 0,-79.63 -32.27,-151.73 -84.44,-203.89z"/>
  </g>
 </g>
</svg>
