<?xml version="1.0" encoding="UTF-8"?>
<!DOCTYPE svg PUBLIC "-//W3C//DTD SVG 1.1//EN" "http://www.w3.org/Graphics/SVG/1.1/DTD/svg11.dtd">
<!-- Creator: CorelDRAW 2018 (64-Bit) -->
<svg xmlns="http://www.w3.org/2000/svg" xml:space="preserve" width="297mm" height="210mm" version="1.1" style="shape-rendering:geometricPrecision; text-rendering:geometricPrecision; image-rendering:optimizeQuality; fill-rule:evenodd; clip-rule:evenodd"
viewBox="0 0 29700 21000"
 xmlns:xlink="http://www.w3.org/1999/xlink">
 <defs>
  <style type="text/css">
   <![CDATA[
    .fil12 {fill:#343743}
    .fil11 {fill:#9AFBDB}
    .fil5 {fill:#D4B4FD}
    .fil1 {fill:#DE749B}
    .fil8 {fill:#EADAFE}
    .fil7 {fill:#F4D5E1}
    .fil0 {fill:#F8F4FF}
    .fil10 {fill:white}
    .fil2 {fill:#343743;fill-rule:nonzero}
    .fil6 {fill:#D4B4FD;fill-rule:nonzero}
    .fil3 {fill:white;fill-rule:nonzero}
    .fil4 {fill:#343743;fill-opacity:0.149020}
    .fil9 {fill:#343743;fill-opacity:0.149020}
    .fil13 {fill:#EFC7D7;fill-opacity:0.501961}
   ]]>
  </style>
 </defs>
 <g id="Слой_x0020_1">
  <metadata id="CorelCorpID_0Corel-Layer"/>
  <path class="fil0" d="M7420.3 6217.37c938.16,0 1745.98,240.41 2670.96,240.41 2518.78,0 4828.51,-1270.22 6189.12,-3353.34 1340.78,-1866.06 3529.7,-3081.69 6002.88,-3081.69 4079.92,0 7387.35,3307.43 7387.35,7387.35 0,4079.92 -3307.43,7387.35 -7387.35,7387.35 -902.49,0 -1756.92,-212.03 -2667,-212.03 -2576.38,0 -4844.3,1319.19 -6166.27,3318.63l-12.08 -13.48c-1339.51,1877.39 -3535.56,3101.54 -6017.61,3101.54 -4079.93,0 -7387.37,-3307.44 -7387.37,-7387.37 0,-4079.93 3307.44,-7387.37 7387.37,-7387.37z"/>
  <path class="fil1" d="M3694.19 936.01c1063.8,0 1926.18,862.38 1926.18,1926.18 0,1063.8 -862.38,1926.18 -1926.18,1926.18 -1063.8,0 -1926.18,-862.38 -1926.18,-1926.18 0,-1063.8 862.38,-1926.18 1926.18,-1926.18z"/>
  <g>
   <path class="fil2" d="M5286.44 2119.72c-39.52,-84.75 -2.86,-185.51 81.89,-225.03 84.75,-39.52 185.51,-2.86 225.03,81.89l-306.92 143.14zm503.26 742.47l-338.66 0 0 0 -0.16 -24.05 -0.5 -24.01 -0.82 -23.99 -1.15 -23.99 -1.46 -23.92 -1.81 -23.88 -2.13 -23.9 -2.44 -23.82 -2.77 -23.78 -3.09 -23.72 -3.42 -23.66 -3.74 -23.63 -4.06 -23.58 -4.38 -23.51 -4.7 -23.45 -5.02 -23.39 -5.32 -23.29 -5.66 -23.22 -5.96 -23.16 -6.29 -23.06 -6.59 -23 -6.91 -22.9 -7.23 -22.84 -7.54 -22.73 -7.84 -22.61 -8.15 -22.48 -8.49 -22.46 -8.77 -22.32 -9.09 -22.19 -9.4 -22.11 -9.69 -21.96 -10.02 -21.86 306.92 -143.14 11.94 26.06 11.59 26.24 11.2 26.33 10.85 26.51 10.47 26.62 10.09 26.7 9.75 26.9 9.36 27.01 8.98 27.09 8.61 27.2 8.25 27.32 7.87 27.42 7.49 27.52 7.12 27.62 6.74 27.72 6.36 27.81 5.98 27.87 5.6 27.97 5.22 28.03 4.84 28.1 4.46 28.17 4.08 28.26 3.69 28.32 3.31 28.36 2.92 28.42 2.53 28.42 2.15 28.54 1.76 28.56 1.37 28.57 0.98 28.63 0.58 28.65 0.2 28.67 0 0zm-2095.51 2095.51l0 -338.66 0 0 90.58 -2.29 89.29 -6.79 87.92 -11.17 86.48 -15.45 84.94 -19.6 83.31 -23.67 81.57 -27.59 79.73 -31.44 77.77 -35.16 75.72 -38.79 73.57 -42.3 71.29 -45.7 68.88 -48.98 66.4 -52.19 63.78 -55.25 61.05 -58.2 58.2 -61.05 55.25 -63.78 52.19 -66.4 48.98 -68.88 45.7 -71.29 42.3 -73.57 38.79 -75.72 35.16 -77.77 31.44 -79.73 27.59 -81.57 23.67 -83.31 19.6 -84.94 15.45 -86.48 11.17 -87.92 6.79 -89.29 2.29 -90.58 338.66 0 -2.73 107.66 -8.07 106.35 -13.33 104.88 -18.43 103.22 -23.42 101.44 -28.25 99.51 -32.97 97.43 -37.54 95.21 -41.98 92.87 -46.29 90.38 -50.46 87.75 -54.5 85.03 -58.42 82.14 -62.19 79.14 -65.83 76 -69.36 72.73 -72.73 69.36 -76 65.83 -79.14 62.19 -82.14 58.42 -85.03 54.5 -87.75 50.46 -90.38 46.29 -92.87 41.98 -95.21 37.54 -97.43 32.97 -99.51 28.25 -101.44 23.42 -103.22 18.43 -104.88 13.33 -106.35 8.07 -107.66 2.73 0 0zm-2095.51 -2095.51l338.66 0 0 0 2.29 90.58 6.79 89.29 11.17 87.92 15.45 86.48 19.6 84.94 23.67 83.31 27.59 81.57 31.44 79.73 35.16 77.77 38.79 75.72 42.3 73.57 45.7 71.29 48.98 68.88 52.19 66.4 55.25 63.78 58.19 61.05 61.06 58.2 63.78 55.25 66.4 52.19 68.88 48.98 71.29 45.7 73.57 42.3 75.72 38.79 77.77 35.16 79.73 31.44 81.57 27.59 83.31 23.67 84.94 19.6 86.48 15.45 87.92 11.17 89.29 6.79 90.58 2.29 0 338.66 -107.66 -2.73 -106.35 -8.07 -104.88 -13.33 -103.22 -18.43 -101.44 -23.42 -99.51 -28.25 -97.43 -32.97 -95.21 -37.54 -92.87 -41.98 -90.38 -46.29 -87.75 -50.46 -85.03 -54.5 -82.14 -58.42 -79.14 -62.19 -76 -65.83 -72.74 -69.36 -69.35 -72.73 -65.83 -76 -62.19 -79.14 -58.42 -82.14 -54.5 -85.03 -50.46 -87.75 -46.29 -90.38 -41.98 -92.87 -37.54 -95.21 -32.97 -97.43 -28.25 -99.51 -23.42 -101.44 -18.43 -103.22 -13.33 -104.88 -8.07 -106.35 -2.73 -107.66 0 0zm2095.51 -2095.51l0 338.66 0 0 -90.58 2.29 -89.29 6.79 -87.92 11.17 -86.48 15.45 -84.94 19.6 -83.31 23.67 -81.57 27.59 -79.73 31.44 -77.77 35.16 -75.72 38.79 -73.57 42.3 -71.29 45.7 -68.88 48.98 -66.4 52.19 -63.79 55.25 -61.05 58.19 -58.19 61.05 -55.25 63.79 -52.19 66.4 -48.98 68.88 -45.7 71.29 -42.3 73.57 -38.79 75.72 -35.16 77.77 -31.44 79.73 -27.59 81.57 -23.67 83.31 -19.6 84.94 -15.45 86.48 -11.17 87.92 -6.79 89.29 -2.29 90.58 -338.66 0 2.73 -107.66 8.07 -106.35 13.33 -104.88 18.43 -103.22 23.42 -101.44 28.25 -99.51 32.97 -97.43 37.54 -95.21 41.98 -92.87 46.29 -90.38 50.46 -87.75 54.5 -85.03 58.42 -82.14 62.19 -79.14 65.83 -75.99 69.35 -72.75 72.75 -69.35 75.99 -65.83 79.14 -62.19 82.14 -58.42 85.03 -54.5 87.75 -50.46 90.38 -46.29 92.87 -41.98 95.21 -37.54 97.43 -32.97 99.51 -28.25 101.44 -23.42 103.22 -18.43 104.88 -13.33 106.35 -8.07 107.66 -2.73 0 0zm1201.93 378.96l-194.24 277.42 -27.85 -19.1 -28.18 -18.54 -28.49 -17.99 -28.79 -17.39 -29.11 -16.84 -29.36 -16.26 -29.64 -15.66 -29.93 -15.11 -30.16 -14.5 -30.47 -13.93 -30.68 -13.35 -30.89 -12.73 -31.16 -12.16 -31.34 -11.55 -31.57 -10.94 -31.79 -10.36 -31.95 -9.74 -32.13 -9.14 -32.3 -8.51 -32.5 -7.92 -32.63 -7.29 -32.79 -6.67 -32.91 -6.06 -33.03 -5.41 -33.19 -4.8 -33.29 -4.17 -33.38 -3.54 -33.48 -2.89 -33.57 -2.26 -33.62 -1.61 -33.73 -0.97 -33.78 -0.33 0 -338.66 40.28 0.39 40.19 1.15 40.16 1.93 40.03 2.7 39.94 3.45 39.84 4.22 39.69 4.97 39.55 5.72 39.43 6.47 39.27 7.22 39.09 7.95 38.93 8.71 38.72 9.42 38.56 10.17 38.35 10.9 38.11 11.62 37.87 12.34 37.65 13.06 37.42 13.79 37.12 14.48 36.91 15.21 36.58 15.91 36.27 16.59 36.04 17.32 35.69 18.01 35.38 18.7 35.04 19.4 34.67 20.06 34.35 20.77 33.97 21.43 33.6 22.1 33.23 22.8zm0 0c76.6,53.63 95.22,159.23 41.59,235.83 -53.63,76.6 -159.23,95.22 -235.83,41.59l194.24 -277.42z"/>
  </g>
  <path class="fil3" d="M4359.19 3321.88c0,86.78 -16.88,167.78 -50.62,242.99 -33.75,75.22 -80.52,139.82 -140.3,193.82 -59.79,54 -131.63,96.43 -215.52,127.28 -83.89,30.86 -175.97,46.29 -276.26,46.29 -98.35,0 -189.47,-14.95 -273.36,-44.84 -83.9,-29.89 -156.22,-71.36 -216.96,-124.39 -60.75,-53.03 -108.48,-116.19 -143.2,-189.48 -34.71,-73.28 -52.07,-153.31 -52.07,-240.1 0,-119.57 30.86,-220.33 92.57,-302.29 61.72,-81.97 137.89,-149.95 228.53,-203.94 -73.28,-50.15 -133.07,-111.86 -179.35,-185.14 -46.28,-73.29 -69.43,-160.07 -69.43,-260.35 0,-82.93 16.4,-158.14 49.18,-225.64 32.79,-67.5 76.66,-124.39 131.62,-170.67 54.97,-46.29 119.57,-81.97 193.82,-107.04 74.25,-25.07 152.83,-37.6 235.76,-37.6 84.85,0 164.41,13.02 238.65,39.05 74.25,26.04 138.86,62.2 193.82,108.48 54.96,46.28 98.36,102.21 130.18,167.78 31.82,65.57 47.73,137.89 47.73,216.96 0,92.57 -21.22,174.53 -63.64,245.89 -42.43,71.35 -104.14,134.03 -185.14,188.03 92.57,55.92 169.71,124.87 231.42,206.83 61.71,81.96 92.57,184.66 92.57,308.08zm-384.74 -940.15c0,-79.07 -28.93,-143.19 -86.78,-192.37 -57.86,-49.18 -128.25,-73.77 -211.18,-73.77 -86.78,0 -158.62,24.59 -215.51,73.77 -56.89,49.18 -85.34,113.3 -85.34,192.37 0,82.92 30.38,150.42 91.13,202.49 60.74,52.07 132.58,85.82 215.51,101.25 81,-19.29 149.94,-54.96 206.83,-107.03 56.89,-52.07 85.34,-117.64 85.34,-196.71zm69.43 940.15c0,-50.14 -10.61,-94.98 -31.82,-134.51 -21.22,-39.54 -49.18,-74.25 -83.9,-104.14 -34.71,-29.9 -74.73,-54.48 -120.05,-73.77 -45.32,-19.28 -92.08,-33.75 -140.3,-43.39 -102.21,21.21 -188.03,62.19 -257.45,122.94 -69.43,60.75 -104.14,138.37 -104.14,232.87 0,46.29 9.16,89.68 27.48,130.18 18.32,40.5 44.35,75.21 78.1,104.14 33.75,28.92 73.29,51.58 118.61,67.98 45.32,16.39 94.01,24.59 146.08,24.59 54,0 103.18,-8.68 147.53,-26.04 44.36,-17.36 82.93,-40.5 115.72,-69.43 32.78,-28.92 58.33,-63.16 76.65,-102.69 18.33,-39.53 27.49,-82.44 27.49,-128.73z"/>
  <path class="fil4" d="M9248.81 1267.81c1443.88,0 2614.39,1170.5 2614.39,2614.39 0,1443.88 -1170.51,2614.39 -2614.39,2614.39 -1443.88,0 -2614.39,-1170.51 -2614.39,-2614.39 0,-1443.89 1170.51,-2614.39 2614.39,-2614.39z"/>
  <path class="fil4" d="M9072.55 1205.67c1512.93,0 2739.6,1226.67 2739.6,2739.6 0,1512.94 -1226.67,2739.6 -2739.6,2739.6 -1512.94,0 -2739.6,-1226.66 -2739.6,-2739.6 0,-1512.93 1226.66,-2739.6 2739.6,-2739.6z"/>
  <path class="fil3" d="M9212.55 1065.67c1512.93,0 2739.6,1226.67 2739.6,2739.6 0,1512.94 -1226.67,2739.6 -2739.6,2739.6 -1512.94,0 -2739.6,-1226.66 -2739.6,-2739.6 0,-1512.93 1226.66,-2739.6 2739.6,-2739.6z"/>
  <path class="fil5" d="M9212.55 1065.67c1512.93,0 2739.6,1226.67 2739.6,2739.6 0,1512.94 -1226.67,2739.6 -2739.6,2739.6 -1512.94,0 -2739.6,-1226.66 -2739.6,-2739.6 0,-1512.93 1226.66,-2739.6 2739.6,-2739.6zm1655.07 1084.53c-423.57,-423.56 -1008.75,-685.56 -1655.07,-685.56 -646.33,0 -1231.51,262 -1655.07,685.56 -423.56,423.56 -685.57,1008.74 -685.57,1655.07 0,646.32 262.01,1231.5 685.57,1655.07 423.56,423.56 1008.74,685.57 1655.07,685.57 646.32,0 1231.5,-262.01 1655.07,-685.57 423.56,-423.57 685.56,-1008.75 685.56,-1655.07 0,-646.33 -262,-1231.51 -685.56,-1655.07z"/>
  <path class="fil6" d="M8534.33 3849.56l0 -1359.9c0,-150.36 131.92,-265.78 279.07,-265.78l496.11 0c651.26,0 1063.12,351.8 1063.12,1014.39 0,681.84 -473.8,956.8 -1125.15,956.8l-225.91 0 0 230.36 562.59 0c90.93,0 172.75,69.93 172.75,163.89 0,99.25 -76.2,163.89 -172.75,163.89l-562.59 0 0 398.67c0,109.11 -133.28,234.78 -243.62,234.78 -129.7,0 -243.62,-102.55 -243.62,-234.78l0 -398.67 -309.08 0c-96.42,0 -172.75,-64.64 -172.75,-163.89 0,-93.96 81.82,-163.89 172.75,-163.89l309.08 0 0 -248.07 -309.08 0c-96.42,0 -172.75,-64.64 -172.75,-163.89 0,-93.96 81.82,-163.91 172.75,-163.91l309.08 0zm487.24 -62l287.94 0c383.89,0 627.3,-184.58 627.3,-553.71 0,-373.35 -255.94,-553.69 -627.3,-553.69l-287.94 0 0 1107.4z"/>
  <path class="fil7" d="M23791.88 7650.39l0 0c127.37,0 231.57,104.2 231.57,231.55l0 463.11 463.09 0c127.35,0 231.55,104.2 231.55,231.55l0 0c0,127.36 -104.2,231.56 -231.55,231.56l-463.09 0 0 463.08c0,127.36 -104.2,231.58 -231.57,231.58l0 0c-127.34,0 -231.53,-104.22 -231.53,-231.58l0 -463.08 -463.11 0c-127.38,0 -231.58,-104.2 -231.58,-231.56l0 0c0,-127.35 104.2,-231.55 231.58,-231.55l463.11 0 0 -463.11c0,-127.35 104.19,-231.55 231.53,-231.55z"/>
  <g>
   <path class="fil8" d="M3868.3 11969.22c437.45,0 792.07,354.62 792.07,792.07 0,437.45 -354.62,792.07 -792.07,792.07 -437.45,0 -792.07,-354.62 -792.07,-792.07 0,-437.45 354.62,-792.07 792.07,-792.07zm350.57 441.5c-89.69,-89.68 -213.65,-145.17 -350.57,-145.17 -136.93,0 -260.88,55.49 -350.57,145.17 -89.68,89.68 -145.17,213.65 -145.17,350.57 0,136.93 55.49,260.89 145.17,350.57 89.68,89.68 213.64,145.17 350.57,145.17 136.92,0 260.89,-55.49 350.57,-145.17 89.68,-89.69 145.17,-213.64 145.17,-350.57 0,-136.92 -55.49,-260.88 -145.17,-350.57z"/>
  </g>
  <path class="fil4" d="M15559.06 1604.08c1286.97,0 2330.29,1042.08 2330.29,2327.53 0,1285.46 -1043.32,2327.53 -2330.29,2327.53 -1286.98,0 -2330.29,-1042.07 -2330.29,-2327.53 0,-1285.45 1043.31,-2327.53 2330.29,-2327.53z"/>
  <g>
   <path class="fil3" d="M15681.98 1455.15c1286.9,0 2330.29,1043.4 2330.29,2330.29 0,1286.89 -1043.39,2330.29 -2330.29,2330.29 -1286.89,0 -2330.29,-1043.4 -2330.29,-2330.29 0,-1286.89 1043.4,-2330.29 2330.29,-2330.29z"/>
   <path id="1" class="fil5" d="M15681.98 1455.15c1286.9,0 2330.29,1043.4 2330.29,2330.29 0,1286.89 -1043.39,2330.29 -2330.29,2330.29 -1286.89,0 -2330.29,-1043.4 -2330.29,-2330.29 0,-1286.89 1043.4,-2330.29 2330.29,-2330.29zm1372.36 957.93c-351.21,-351.21 -836.43,-568.46 -1372.36,-568.46 -535.92,0 -1021.15,217.25 -1372.36,568.46 -351.21,351.21 -568.46,836.43 -568.46,1372.36 0,535.92 217.25,1021.15 568.46,1372.36 351.21,351.21 836.44,568.46 1372.36,568.46 535.93,0 1021.15,-217.25 1372.36,-568.46 351.21,-351.21 568.46,-836.43 568.46,-1372.36 0,-535.93 -217.25,-1021.15 -568.46,-1372.36z"/>
  </g>
  <path class="fil6" d="M15105.09 3823.11l0 -1156.72c0,-127.9 112.21,-226.07 237.37,-226.07l422 0c553.96,0 904.28,299.23 904.28,862.83 0,579.97 -403.01,813.85 -957.04,813.85l-192.16 0 0 195.94 478.53 0c77.34,0 146.94,59.48 146.94,139.41 0,84.42 -64.81,139.4 -146.94,139.4l-478.53 0 0 339.11c0,92.81 -113.37,199.7 -207.23,199.7 -110.32,0 -207.22,-87.22 -207.22,-199.7l0 -339.11 -262.9 0c-82.01,0 -146.94,-54.98 -146.94,-139.4 0,-79.93 69.6,-139.41 146.94,-139.41l262.9 0 0 -211 -262.9 0c-82.01,0 -146.94,-54.98 -146.94,-139.4 0,-79.93 69.6,-139.43 146.94,-139.43l262.9 0zm414.45 -52.73l244.92 0c326.53,0 533.58,-157.01 533.58,-470.99 0,-317.57 -217.71,-470.97 -533.58,-470.97l-244.92 0 0 941.96z"/>
  <path class="fil4" d="M21441.74 2012.71c1062.42,0 1923.7,861.27 1923.7,1923.7 0,1062.43 -861.28,1923.7 -1923.7,1923.7 -1062.43,0 -1923.71,-861.27 -1923.71,-1923.7 0,-1062.43 861.28,-1923.7 1923.71,-1923.7z"/>
  <g>
   <path class="fil3" d="M21544.17 1869.3c1062.36,0 1923.71,861.34 1923.71,1923.7 0,1062.36 -861.35,1923.7 -1923.71,1923.7 -1062.35,0 -1923.7,-861.34 -1923.7,-1923.7 0,-1062.36 861.35,-1923.7 1923.7,-1923.7z"/>
   <path id="1" class="fil5" d="M21544.17 1869.3c1062.36,0 1923.71,861.34 1923.71,1923.7 0,1062.36 -861.35,1923.7 -1923.71,1923.7 -1062.35,0 -1923.7,-861.34 -1923.7,-1923.7 0,-1062.36 861.35,-1923.7 1923.7,-1923.7zm1084.87 838.84c-277.63,-277.63 -661.21,-449.37 -1084.87,-449.37 -423.66,0 -807.23,171.74 -1084.86,449.37 -277.63,277.63 -449.37,661.2 -449.37,1084.86 0,423.66 171.74,807.23 449.37,1084.86 277.63,277.63 661.2,449.37 1084.86,449.37 423.66,0 807.24,-171.74 1084.87,-449.37 277.63,-277.63 449.37,-661.2 449.37,-1084.86 0,-423.66 -171.74,-807.23 -449.37,-1084.86z"/>
  </g>
  <path class="fil6" d="M21067.94 3824.1l0 -954.9c0,-105.58 92.63,-186.62 195.96,-186.62l348.36 0c457.3,0 746.5,247.02 746.5,712.28 0,478.78 -332.69,671.85 -790.05,671.85l-158.64 0 0 161.76 395.04 0c63.85,0 121.31,49.1 121.31,115.08 0,69.69 -53.51,115.08 -121.31,115.08l-395.04 0 0 279.93c0,76.62 -93.59,164.86 -171.06,164.86 -91.08,0 -171.07,-72 -171.07,-164.86l0 -279.93 -217.03 0c-67.7,0 -121.3,-45.39 -121.3,-115.08 0,-65.98 57.45,-115.08 121.3,-115.08l217.03 0 0 -174.19 -217.03 0c-67.7,0 -121.3,-45.39 -121.3,-115.08 0,-65.98 57.45,-115.1 121.3,-115.1l217.03 0zm342.13 -43.54l202.19 0c269.56,0 440.48,-129.61 440.48,-388.81 0,-262.15 -179.72,-388.79 -440.48,-388.79l-202.19 0 0 777.6z"/>
  <path class="fil9" d="M18089.43 10130.4c-211.79,0 -347.71,57.64 -527.55,156.13 -156.84,-408.63 -455.01,-687.64 -915.01,-687.64 -216.69,0 -363.29,62.56 -547.34,170.28 -173.26,-377.02 -460.42,-627.12 -895.19,-627.12 -199.35,0 -320.64,52.69 -495.45,132.19l0 -1549.19c0,-522.19 -424.89,-947.1 -947.08,-947.1 -522.19,0 -947.09,424.9 -947.09,947.1l-0.22 4333.88 -422.19 -781.75c-255.68,-473.42 -831.99,-654.38 -1312.35,-411.94 -410.57,207.14 -622.62,665.11 -514.77,1112.19l549.14 2276.16c245.31,1016.88 882.78,1735.47 1486.69,2561.85 -2.74,0 -5.55,0.07 -8.28,0l0 0c-124.35,0 -226.11,101.72 -226.11,226.08l0 3958.48 6206.1 0.01 0 -2103.56 214.65 0c13.06,2.37 26.49,3.6 40.2,3.6l0 0c124.38,0 226.13,-101.72 226.13,-226.12l0 -1632.36c0,-124.41 -101.75,-226.13 -226.13,-226.13 -150.87,1.9 -301.75,0 -452.62,0 356.71,-1137.49 661.57,-1986.95 661.57,-3206.95l0.29 -2531.07c0,-522 -425.46,-947.02 -947.39,-947.02z"/>
  <path class="fil10" d="M18289.43 10150.4c-211.79,0 -347.71,57.64 -527.55,156.13 -156.84,-408.63 -455.01,-687.64 -915.01,-687.64 -216.69,0 -363.29,62.56 -547.34,170.28 -173.26,-377.02 -460.42,-627.12 -895.19,-627.12 -199.35,0 -320.64,52.69 -495.45,132.19l0 -1549.19c0,-522.19 -424.89,-947.1 -947.08,-947.1 -522.19,0 -947.09,424.9 -947.09,947.1l-0.22 4333.88 -422.19 -781.75c-255.68,-473.42 -831.99,-654.38 -1312.35,-411.94 -410.57,207.14 -622.62,665.11 -514.77,1112.19l549.14 2276.16c245.31,1016.88 882.78,1735.47 1486.69,2561.85 -2.74,0 -5.55,0.07 -8.28,0l0 0c-124.35,0 -226.11,101.71 -226.11,226.08l0 3696.3c0,124.38 101.76,226.08 226.11,226.08l0 0c439.49,0 5629.63,0 5753.86,0l0 0c124.37,0 226.13,-101.76 226.13,-226.07l0 -1841.38 214.65 0c13.06,2.37 26.49,3.6 40.2,3.6l0 0c124.38,0 226.13,-101.72 226.13,-226.12l0 -1632.36c0,-124.41 -101.75,-226.13 -226.13,-226.13l0 0c-150.38,1.89 -302.09,0 -452.62,0 356.71,-1137.49 661.57,-1986.95 661.57,-3206.95l0.29 -2531.07c0,-522 -425.46,-947.02 -947.39,-947.02z"/>
  <path class="fil11" d="M12801.02 16835.44c-2.74,0 -5.55,0.07 -8.28,0l0 0c-124.35,0 -226.11,101.72 -226.11,226.08l-0.01 3938.48 6206.1 0.01 0.01 -2083.56 214.65 0c13.06,2.37 26.49,3.6 40.2,3.6l0 0c124.38,0 226.13,-101.72 226.13,-226.12l0 -1632.36c0,-124.41 -101.75,-226.13 -226.13,-226.13l0 0c-150.38,1.89 -302.09,0 -452.62,0l-5773.94 0z"/>
  <path class="fil12" d="M18289.43 10150.4c-211.79,0 -347.71,57.64 -527.55,156.13 -156.84,-408.63 -455.01,-687.64 -915.01,-687.64 -216.69,0 -363.29,62.56 -547.34,170.28 -173.26,-377.02 -460.42,-627.12 -895.19,-627.12 -199.35,0 -320.64,52.69 -495.45,132.19l0 -1549.19c0,-261.09 -106.23,-497.87 -277.72,-669.37 -171.49,-171.5 -408.27,-277.73 -669.36,-277.73 -261.1,0 -497.88,106.23 -669.37,277.73 -171.49,171.49 -277.72,408.26 -277.72,669.37l-0.22 4333.88 -422.19 -781.75c-255.68,-473.42 -831.99,-654.38 -1312.35,-411.94 -410.57,207.14 -622.62,665.11 -514.77,1112.19l549.14 2276.16c245.31,1016.88 882.78,1735.47 1486.69,2561.85 -2.74,0 -5.55,0.07 -8.28,0l0 0c-124.35,0 -226.11,101.79 -226.11,226.08l-0.01 3938.48 452.24 0 0.01 -3712.32 5782.6 0 0 1176.53c-1455.56,0 -2911.69,0 -4367.44,0 -124.43,0 -226.18,101.75 -226.18,226.13l0 0c0,124.35 101.75,226.11 226.18,226.11l3886.46 0 0 2083.55 452.24 0 0 -2083.55 214.65 0c136.18,24.74 266.33,-80.15 266.33,-222.52l0 -1632.36c0,-124.41 -101.75,-226.13 -226.13,-226.13l0 0c-150.38,1.89 -302.09,0 -452.62,0 356.71,-1137.49 661.57,-1986.95 661.57,-3206.95l0.29 -2531.07c0,-522 -425.46,-947.02 -947.39,-947.02zm-4928.58 6685.04c-605.48,-828.55 -1362.46,-1654.11 -1606.94,-2667.78l-549.14 -2276.19c-58.45,-242.22 56.32,-490.44 278.8,-602.7 260.18,-131.26 572.78,-33.04 711.22,223.35l847.07 1568.51c49.27,91.21 153.91,136.84 254.34,111.5 100.61,-25.43 170.26,-115.3 170.26,-219l0.29 0 -0.38 -5228.06c0,-273.2 222.24,-495.44 495.44,-495.44 273.21,0 495.45,222.23 495.45,495.44l0 4232.72c0,124.72 101.1,225.82 225.82,225.82 124.73,0 225.83,-101.09 225.83,-225.82l0 -1868.7c0,-273.23 222.21,-495.45 495.44,-495.45 273.22,0 495.45,222.23 495.45,495.45l0 1868.7c0,124.72 101.1,225.82 225.82,225.82 124.74,0 225.83,-101.09 225.83,-225.82l0 -1411.82c0,-273.24 222.2,-495.48 495.45,-495.48 273.24,0 495.45,222.23 495.45,495.48l0 1411.82c0,124.72 101.09,225.82 225.82,225.82 124.73,0 225.83,-101.09 225.83,-225.82l0 -880.37c0,-273.2 222.23,-495.44 495.44,-495.44 273.21,0 495.45,222.23 495.45,495.44l0 2531.07c0,1207.46 -329.27,2077.27 -683.52,3206.95l-4740.52 0zm4345.07 2518.94l0.07 0c124.35,0 226.08,101.75 226.08,226.08l0 0.04c0,124.34 -101.73,226.08 -226.08,226.08l-0.07 0c-124.35,0 -226.08,-101.74 -226.08,-226.08l0 -0.04c0,-124.33 101.73,-226.08 226.08,-226.08z"/>
  <path class="fil8" d="M9464.35 15510.83l0 0c137.5,0 249.98,112.48 249.98,249.95l0 499.91 499.88 0c137.47,0 249.95,112.48 249.95,249.95l0 0c0,137.47 -112.48,249.95 -249.95,249.95l-499.88 0 0 499.88c0,137.48 -112.48,249.98 -249.98,249.98l0 0c-137.45,0 -249.93,-112.5 -249.93,-249.98l0 -499.88 -499.9 0c-137.5,0 -249.98,-112.48 -249.98,-249.95l0 0c0,-137.47 112.48,-249.95 249.98,-249.95l499.9 0 0 -499.91c0,-137.47 112.48,-249.95 249.93,-249.95z"/>
  <path class="fil8" d="M27314.42 1686.84c173.38,0 313.93,140.55 313.93,313.93 0,173.38 -140.55,313.93 -313.93,313.93 -173.38,0 -313.93,-140.55 -313.93,-313.93 0,-173.38 140.55,-313.93 313.93,-313.93z"/>
  <path class="fil13" d="M5058.9 7285.49c165.69,0 300,134.31 300,300 0,165.69 -134.31,300 -300,300 -165.69,0 -300,-134.31 -300,-300 0,-165.69 134.31,-300 300,-300z"/>
  <path class="fil8" d="M24920.57 15507.2l0.03 0c141.95,0 258.07,116.12 258.07,258.06l0 516.2c0,141.94 -116.12,258.06 -258.07,258.06l-0.03 0c-141.95,0 -258.07,-116.12 -258.07,-258.06l0 -516.2c0,-141.94 116.12,-258.06 258.07,-258.06zm258.68 1291.02l0 -0.03c0,-141.94 116.12,-258.06 258.06,-258.06l516.2 0c141.95,0 258.06,116.12 258.06,258.06l0 0.03c0,141.95 -116.11,258.07 -258.06,258.07l-516.2 0c-141.94,0 -258.06,-116.12 -258.06,-258.07zm-1549.67 0l0 -0.03c0,-141.94 116.12,-258.06 258.06,-258.06l516.2 0c141.94,0 258.06,116.12 258.06,258.06l0 0.03c0,141.95 -116.12,258.07 -258.06,258.07l-516.2 0c-141.94,0 -258.06,-116.12 -258.06,-258.07zm1290.99 258.65l0.03 0c141.95,0 258.07,116.12 258.07,258.07l0 516.19c0,141.95 -116.12,258.07 -258.07,258.07l-0.03 0c-141.95,0 -258.07,-116.12 -258.07,-258.07l0 -516.19c0,-141.95 116.12,-258.07 258.07,-258.07z"/>
 </g>
</svg>
