<?xml version="1.0" encoding="UTF-8"?>
<!DOCTYPE svg PUBLIC "-//W3C//DTD SVG 1.1//EN" "http://www.w3.org/Graphics/SVG/1.1/DTD/svg11.dtd">
<!-- Creator: CorelDRAW 2018 (64-Bit) -->
<svg xmlns="http://www.w3.org/2000/svg" xml:space="preserve" width="297mm" height="210mm" version="1.1" style="shape-rendering:geometricPrecision; text-rendering:geometricPrecision; image-rendering:optimizeQuality; fill-rule:evenodd; clip-rule:evenodd"
viewBox="0 0 29700 21000"
 xmlns:xlink="http://www.w3.org/1999/xlink">
 <defs>
  <style type="text/css">
   <![CDATA[
    .fil10 {fill:#343743}
    .fil11 {fill:#9AFBDB}
    .fil8 {fill:#D4B4FD}
    .fil1 {fill:#DE749B}
    .fil4 {fill:#EADAFE}
    .fil12 {fill:#F4D5E1}
    .fil0 {fill:#F8F4FF}
    .fil7 {fill:white}
    .fil2 {fill:#343743;fill-rule:nonzero}
    .fil9 {fill:#343743;fill-rule:nonzero}
    .fil3 {fill:white;fill-rule:nonzero}
    .fil6 {fill:#343743;fill-opacity:0.149020}
    .fil5 {fill:#EFC7D7;fill-opacity:0.501961}
   ]]>
  </style>
 </defs>
 <g id="Слой_x0020_1">
  <metadata id="CorelCorpID_0Corel-Layer"/>
  <path class="fil0" d="M7420.3 6217.37c938.16,0 1745.98,240.41 2670.96,240.41 2518.78,0 4828.51,-1270.22 6189.12,-3353.34 1340.78,-1866.06 3529.7,-3081.69 6002.88,-3081.69 4079.92,0 7387.35,3307.43 7387.35,7387.35 0,4079.92 -3307.43,7387.35 -7387.35,7387.35 -902.49,0 -1756.92,-212.03 -2667,-212.03 -2576.38,0 -4844.3,1319.19 -6166.27,3318.63l-12.08 -13.48c-1339.51,1877.39 -3535.56,3101.54 -6017.61,3101.54 -4079.93,0 -7387.37,-3307.44 -7387.37,-7387.37 0,-4079.93 3307.44,-7387.37 7387.37,-7387.37z"/>
  <path class="fil1" d="M3694.19 936.01c1063.8,0 1926.18,862.38 1926.18,1926.18 0,1063.8 -862.38,1926.18 -1926.18,1926.18 -1063.8,0 -1926.18,-862.38 -1926.18,-1926.18 0,-1063.8 862.38,-1926.18 1926.18,-1926.18z"/>
  <g>
   <path class="fil2" d="M5286.44 2119.72c-39.52,-84.75 -2.86,-185.51 81.89,-225.03 84.75,-39.52 185.51,-2.86 225.03,81.89l-306.92 143.14zm503.26 742.47l-338.66 0 0 0 -0.16 -24.05 -0.5 -24.01 -0.82 -23.99 -1.15 -23.99 -1.46 -23.92 -1.81 -23.88 -2.13 -23.9 -2.44 -23.82 -2.77 -23.78 -3.09 -23.72 -3.42 -23.66 -3.74 -23.63 -4.06 -23.58 -4.38 -23.51 -4.7 -23.45 -5.02 -23.39 -5.32 -23.29 -5.66 -23.22 -5.96 -23.16 -6.29 -23.06 -6.59 -23 -6.91 -22.9 -7.23 -22.84 -7.54 -22.73 -7.84 -22.61 -8.15 -22.48 -8.49 -22.46 -8.77 -22.32 -9.09 -22.19 -9.4 -22.11 -9.69 -21.96 -10.02 -21.86 306.92 -143.14 11.94 26.06 11.59 26.24 11.2 26.33 10.85 26.51 10.47 26.62 10.09 26.7 9.75 26.9 9.36 27.01 8.98 27.09 8.61 27.2 8.25 27.32 7.87 27.42 7.49 27.52 7.12 27.62 6.74 27.72 6.36 27.81 5.98 27.87 5.6 27.97 5.22 28.03 4.84 28.1 4.46 28.17 4.08 28.26 3.69 28.32 3.31 28.36 2.92 28.42 2.53 28.42 2.15 28.54 1.76 28.56 1.37 28.57 0.98 28.63 0.58 28.65 0.2 28.67 0 0zm-2095.51 2095.51l0 -338.66 0 0 90.58 -2.29 89.29 -6.79 87.92 -11.17 86.48 -15.45 84.94 -19.6 83.31 -23.67 81.57 -27.59 79.73 -31.44 77.77 -35.16 75.72 -38.79 73.57 -42.3 71.29 -45.7 68.88 -48.98 66.4 -52.19 63.78 -55.25 61.05 -58.2 58.2 -61.05 55.25 -63.78 52.19 -66.4 48.98 -68.88 45.7 -71.29 42.3 -73.57 38.79 -75.72 35.16 -77.77 31.44 -79.73 27.59 -81.57 23.67 -83.31 19.6 -84.94 15.45 -86.48 11.17 -87.92 6.79 -89.29 2.29 -90.58 338.66 0 -2.73 107.66 -8.07 106.35 -13.33 104.88 -18.43 103.22 -23.42 101.44 -28.25 99.51 -32.97 97.43 -37.54 95.21 -41.98 92.87 -46.29 90.38 -50.46 87.75 -54.5 85.03 -58.42 82.14 -62.19 79.14 -65.83 76 -69.36 72.73 -72.73 69.36 -76 65.83 -79.14 62.19 -82.14 58.42 -85.03 54.5 -87.75 50.46 -90.38 46.29 -92.87 41.98 -95.21 37.54 -97.43 32.97 -99.51 28.25 -101.44 23.42 -103.22 18.43 -104.88 13.33 -106.35 8.07 -107.66 2.73 0 0zm-2095.51 -2095.51l338.66 0 0 0 2.29 90.58 6.79 89.29 11.17 87.92 15.45 86.48 19.6 84.94 23.67 83.31 27.59 81.57 31.44 79.73 35.16 77.77 38.79 75.72 42.3 73.57 45.7 71.29 48.98 68.88 52.19 66.4 55.25 63.78 58.19 61.05 61.06 58.2 63.78 55.25 66.4 52.19 68.88 48.98 71.29 45.7 73.57 42.3 75.72 38.79 77.77 35.16 79.73 31.44 81.57 27.59 83.31 23.67 84.94 19.6 86.48 15.45 87.92 11.17 89.29 6.79 90.58 2.29 0 338.66 -107.66 -2.73 -106.35 -8.07 -104.88 -13.33 -103.22 -18.43 -101.44 -23.42 -99.51 -28.25 -97.43 -32.97 -95.21 -37.54 -92.87 -41.98 -90.38 -46.29 -87.75 -50.46 -85.03 -54.5 -82.14 -58.42 -79.14 -62.19 -76 -65.83 -72.74 -69.36 -69.35 -72.73 -65.83 -76 -62.19 -79.14 -58.42 -82.14 -54.5 -85.03 -50.46 -87.75 -46.29 -90.38 -41.98 -92.87 -37.54 -95.21 -32.97 -97.43 -28.25 -99.51 -23.42 -101.44 -18.43 -103.22 -13.33 -104.88 -8.07 -106.35 -2.73 -107.66 0 0zm2095.51 -2095.51l0 338.66 0 0 -90.58 2.29 -89.29 6.79 -87.92 11.17 -86.48 15.45 -84.94 19.6 -83.31 23.67 -81.57 27.59 -79.73 31.44 -77.77 35.16 -75.72 38.79 -73.57 42.3 -71.29 45.7 -68.88 48.98 -66.4 52.19 -63.79 55.25 -61.05 58.19 -58.19 61.05 -55.25 63.79 -52.19 66.4 -48.98 68.88 -45.7 71.29 -42.3 73.57 -38.79 75.72 -35.16 77.77 -31.44 79.73 -27.59 81.57 -23.67 83.31 -19.6 84.94 -15.45 86.48 -11.17 87.92 -6.79 89.29 -2.29 90.58 -338.66 0 2.73 -107.66 8.07 -106.35 13.33 -104.88 18.43 -103.22 23.42 -101.44 28.25 -99.51 32.97 -97.43 37.54 -95.21 41.98 -92.87 46.29 -90.38 50.46 -87.75 54.5 -85.03 58.42 -82.14 62.19 -79.14 65.83 -75.99 69.35 -72.75 72.75 -69.35 75.99 -65.83 79.14 -62.19 82.14 -58.42 85.03 -54.5 87.75 -50.46 90.38 -46.29 92.87 -41.98 95.21 -37.54 97.43 -32.97 99.51 -28.25 101.44 -23.42 103.22 -18.43 104.88 -13.33 106.35 -8.07 107.66 -2.73 0 0zm1201.93 378.96l-194.24 277.42 -27.85 -19.1 -28.18 -18.54 -28.49 -17.99 -28.79 -17.39 -29.11 -16.84 -29.36 -16.26 -29.64 -15.66 -29.93 -15.11 -30.16 -14.5 -30.47 -13.93 -30.68 -13.35 -30.89 -12.73 -31.16 -12.16 -31.34 -11.55 -31.57 -10.94 -31.79 -10.36 -31.95 -9.74 -32.13 -9.14 -32.3 -8.51 -32.5 -7.92 -32.63 -7.29 -32.79 -6.67 -32.91 -6.06 -33.03 -5.41 -33.19 -4.8 -33.29 -4.17 -33.38 -3.54 -33.48 -2.89 -33.57 -2.26 -33.62 -1.61 -33.73 -0.97 -33.78 -0.33 0 -338.66 40.28 0.39 40.19 1.15 40.16 1.93 40.03 2.7 39.94 3.45 39.84 4.22 39.69 4.97 39.55 5.72 39.43 6.47 39.27 7.22 39.09 7.95 38.93 8.71 38.72 9.42 38.56 10.17 38.35 10.9 38.11 11.62 37.87 12.34 37.65 13.06 37.42 13.79 37.12 14.48 36.91 15.21 36.58 15.91 36.27 16.59 36.04 17.32 35.69 18.01 35.38 18.7 35.04 19.4 34.67 20.06 34.35 20.77 33.97 21.43 33.6 22.1 33.23 22.8zm0 0c76.6,53.63 95.22,159.23 41.59,235.83 -53.63,76.6 -159.23,95.22 -235.83,41.59l194.24 -277.42z"/>
  </g>
  <path class="fil3" d="M3997.59 3047.07c-55.93,42.42 -113.3,71.83 -172.12,88.23 -58.82,16.39 -118.12,24.59 -177.9,24.59 -84.86,0 -164.41,-13.5 -238.66,-40.5 -74.25,-27 -139.82,-67.02 -196.71,-120.05 -56.89,-53.04 -101.73,-120.05 -134.51,-201.05 -32.79,-81 -49.18,-176.46 -49.18,-286.39 0,-90.64 13.02,-176.94 39.05,-258.9 26.04,-81.96 65.09,-153.8 117.16,-215.51 52.07,-61.72 118.12,-110.41 198.16,-146.09 80.03,-35.68 175.01,-53.51 284.93,-53.51 127.29,0 232.87,24.58 316.76,73.76 83.89,49.18 150.91,117.64 201.05,205.39 50.14,87.75 85.82,193.33 107.03,316.76 21.22,123.42 31.83,259.38 31.83,407.88 0,356.78 -55.45,627.25 -166.34,811.42 -110.89,184.18 -283.01,276.27 -516.36,276.27 -28.93,0 -70.39,-1.93 -124.39,-5.79 -54,-3.86 -107.52,-12.54 -160.55,-26.04 -53.03,-13.5 -99.8,-33.74 -140.3,-60.74 -40.5,-27 -60.75,-62.68 -60.75,-107.04 0,-32.78 12.54,-63.16 37.61,-91.12 25.07,-27.96 59.78,-41.94 104.14,-41.94 38.57,0 82.92,9.16 133.07,27.48 50.14,18.32 108.96,27.48 176.46,27.48 77.14,0 140.78,-15.43 190.92,-46.29 50.14,-30.85 89.68,-73.28 118.6,-127.28 28.93,-54 49.18,-118.12 60.75,-192.37 11.57,-74.25 18.32,-153.8 20.25,-238.65zm8.68 -361.6c0,-75.21 -5.3,-146.09 -15.91,-212.62 -10.61,-66.53 -29.41,-125.35 -56.41,-176.46 -27,-51.11 -63.16,-91.12 -108.48,-120.05 -45.32,-28.93 -101.73,-43.39 -169.23,-43.39 -57.85,0 -106.55,10.61 -146.08,31.82 -39.54,21.21 -71.84,49.66 -96.91,85.34 -25.07,35.67 -42.91,76.17 -53.52,121.49 -10.6,45.32 -15.91,92.09 -15.91,140.3 0,121.5 28.93,211.18 86.79,269.03 57.85,57.86 136.92,86.78 237.2,86.78 67.5,0 131.63,-12.05 192.37,-36.16 60.75,-24.1 109.45,-55.44 146.09,-94.01l0 -52.07z"/>
  <path class="fil4" d="M10373.26 15939.76c210.42,0 381,170.58 381,381 0,210.42 -170.58,381 -381,381 -210.42,0 -381,-170.58 -381,-381 0,-210.42 170.58,-381 381,-381z"/>
  <path class="fil5" d="M15283.93 1119.43c165.69,0 300,134.31 300,300 0,165.69 -134.31,300 -300,300 -165.69,0 -300,-134.31 -300,-300 0,-165.69 134.31,-300 300,-300z"/>
  <path class="fil6" d="M23275.26 2990.37l-2591.95 0c-116.86,-327.7 -427.33,-564.44 -794.71,-564.44l-3951.12 0c-367.39,0 -677.86,236.75 -794.71,564.44l-2591.95 0c-466.74,0 -846.67,379.93 -846.67,846.67l0 3668.89 -961.18 0c-343.54,0 -682.54,89.99 -980.47,260.45l-1520.11 868.44 -279.73 0 0 -282.99 0 -33.03c0,-3.09 -0.07,-6.26 0,-9.34 0,-140.46 -115.01,-255.39 -255.35,-255.39l-7887.31 0 -0.02 5971.84 0.01 0 0 84.73 5792.2 0 0 200.08 0.01 0.24 0 42.13c-2.68,14.75 -4.08,29.92 -4.08,45.41l0 0c0,140.47 114.89,255.4 255.41,255.4l1843.72 0c140.52,0 255.41,-114.93 255.41,-255.4l0 0 0 -42.37 0 -641.31 551.47 0 1195.59 797.06c325.63,217.32 704.73,331.83 1095.82,331.83l898.61 0 0 4233.33c0,466.74 379.93,846.67 846.67,846.67l10724.44 0c466.74,0 846.67,-379.93 846.67,-846.67l0 -15240c0,-466.74 -379.93,-846.67 -846.67,-846.67zm-15312.6 5361.46l0 0z"/>
  <path class="fil7" d="M23455.26 2790.37l-2591.95 0c-116.86,-327.7 -427.33,-564.44 -794.71,-564.44l-3951.12 0c-367.39,0 -677.86,236.75 -794.71,564.44l-2591.95 0c-466.74,0 -846.67,379.93 -846.67,846.67l0 3668.89 -961.18 0c-343.54,0 -682.54,89.99 -980.47,260.45l-1520.11 868.44 -1618.24 0 0 5080 1889.98 0 1195.59 797.06c325.63,217.32 704.73,331.83 1095.82,331.83l898.61 0 0 4233.33c0,466.74 379.93,846.67 846.67,846.67l10724.44 0c466.74,0 846.67,-379.93 846.67,-846.67l0 -15240c0,-466.74 -379.93,-846.67 -846.67,-846.67z"/>
  <path class="fil8" d="M14877.63 13977.91l0.64 0.5c-0.61,0.6 -1.27,1.15 -1.88,1.75 0,735.05 0,1470.09 0,2205.13 -273.79,25.27 -484.39,256.24 -484.39,531.59 0,294.43 239.4,533.83 533.83,533.83 1838.7,0 4085.7,-0.02 6297.29,-0.02 294.54,0 533.63,-239.26 533.63,-533.77 0.07,-0.01 0.13,-0.03 0.2,-0.04 0,-275.33 -210.61,-506.33 -484.4,-531.58 0.04,-735.08 0.08,-1470.16 0.12,-2205.24 -0.17,-0.17 -0.66,-0.41 -0.85,-0.59l0.57 -0.71c63.13,63.79 127.49,128.52 193.42,194.45 49.25,49.24 122.19,62.98 185.7,36.89 0.06,0 0.13,0 0.2,0 63.34,-26.33 105.22,-88.86 105.22,-157.49 0,-1009.17 0,-2018.36 0,-3027.53 0,-47.05 -19.1,-89.69 -49.95,-120.54 -30.72,-30.72 -73.37,-49.76 -120.53,-49.77 -0.01,-0.07 -0.03,-0.13 -0.04,-0.2 -982.86,0 -1965.73,0 -2948.58,0 -6.51,0 -8.1,0.26 -8.1,0.26 -145.11,-145.11 -289.57,-289.58 -434.68,-434.69 -31.79,-31.78 -76.01,-49.96 -120.95,-49.96 -45.06,0 -88.88,18.11 -120.75,49.96 -0.07,0 -0.12,0 -0.19,0 -145.08,145.11 -290.17,290.21 -435.24,435.32 0,0 -591.5,-0.13 -605.56,-0.09 0.27,-438.21 0,0 0.54,-799.07 0,-47.06 -19.12,-89.71 -49.98,-120.57 -3.37,0 -72.03,-49.97 -120.57,-49.97 -322.94,0 -645.87,0 -968.8,0 -46.94,0 -89.52,19.11 -120.38,49.97 -32.14,32.14 -50.16,75.06 -50.16,120.57 0,839.04 -0.63,530.23 0.53,798.25 -347.01,0 -694,0 -1041,0 -45.01,0 -88.61,18.15 -120.38,49.97 -0.07,0.07 -0.13,0.13 -0.2,0.2 -31.82,31.81 -49.96,75.37 -49.96,120.39 0.06,0 0.12,0 0.18,0 0.17,1009.18 0.32,2018.35 0.49,3027.52 -0.06,0 -0.13,0 -0.19,0 0,34.34 10.46,67.11 28.91,94.71 18.34,27.41 44.71,49.55 76.64,62.78 10.74,4.41 21.41,7.68 31.85,9.8 10.99,2.18 22.08,3.27 33.14,3.27 22.3,0 44.54,-4.46 65.35,-13.17 20.38,-8.46 39.23,-20.9 55.23,-36.98 66.15,-66.17 130.69,-131.12 194.03,-195.13z"/>
  <path class="fil9" d="M16194.03 16094.55c108.71,91.47 187.36,217.52 218.78,360.91 71.9,29.34 133.74,78.37 178.73,140.32 49.45,68.08 78.65,151.74 78.65,242.03 0,113.79 -46.29,216.99 -121.02,291.71 -74.73,74.73 -177.93,121.03 -291.73,121.03l-1332.11 0c-147.23,0 -280.69,-59.85 -377.34,-156.5 -96.65,-96.65 -156.5,-230.11 -156.5,-377.34 0,-147.22 59.86,-280.71 156.5,-377.35 85.7,-85.7 200.37,-142.47 327.9,-154.23l0 -1890.45c0,-46.93 19.11,-89.51 49.96,-120.37l0.2 -0.2c30.86,-30.85 73.44,-49.96 120.38,-49.96 46.84,0 89.41,19.1 120.36,49.97l0.2 0.2c30.88,30.95 49.97,73.53 49.97,120.36l0 1955.67c53.16,-85.37 125.31,-157.63 210.44,-210.76 100.43,-62.67 218.93,-98.93 345.64,-98.93 159.98,0 306.93,57.91 420.99,153.89zm-420.99 -2091.52l968.81 0c46.9,0 89.52,19.14 120.48,50.07l0.1 -0.1c30.86,30.86 49.97,73.51 49.97,120.59l0 1282.67 71.65 0c46.94,0 89.52,19.11 120.38,49.96l0.2 0.2c30.85,30.86 49.96,73.45 49.96,120.38 0,47.07 -19.11,89.72 -49.97,120.58 -30.85,30.85 -73.5,49.96 -120.57,49.96l-1453.21 0c-46.89,0 -89.51,-19.15 -120.47,-50.07l-0.1 0.1c-30.86,-30.86 -49.97,-73.51 -49.97,-120.58 0,-46.93 19.11,-89.52 49.97,-120.38l0.19 -0.2c30.86,-30.85 73.45,-49.96 120.38,-49.96l71.67 0 0 -1282.68c0,-47.07 19.11,-89.72 49.96,-120.57 30.86,-30.86 73.51,-49.97 120.57,-49.97zm170.54 1453.22l627.73 0 0 -385.52 -627.73 0 0 385.52zm0 -726.61l627.73 0 0 -385.52 -627.73 0 0 385.52zm3340.77 1745.49l0.09 -0.1c30.87,30.86 49.97,73.5 49.97,120.57l-0.18 0.03c-0.01,47.05 -19.06,89.63 -49.78,120.35l0 0.2c-30.85,30.85 -73.49,49.95 -120.54,49.95l-0.03 -0.19 -2009.27 0.01 0 314.05c0,47.07 -19.11,89.72 -49.97,120.58 -30.85,30.85 -73.5,49.96 -120.57,49.96 -46.93,0 -89.52,-19.11 -120.38,-49.96l-0.19 -0.2c-30.86,-30.86 -49.97,-73.44 -49.97,-120.38l0 -484.4c0,-47.07 19.11,-89.72 49.97,-120.57 30.86,-30.86 73.5,-49.97 120.57,-49.97l313.86 0 0 -2251.47c0,-47.07 19.11,-89.72 49.96,-120.57 30.86,-30.86 73.51,-49.97 120.58,-49.97l1211.01 0c46.84,0 89.42,19.1 120.37,49.97l0.2 0.2c30.88,30.95 49.97,73.53 49.97,120.37l0 2251.47 313.86 0c46.89,0 89.51,19.14 120.47,50.07zm-847.08 -1261.08l71.65 0 0 -869.93 -869.93 0 0 2080.94 869.93 0 0 -869.93 -71.65 0c-46.94,0 -89.52,-19.11 -120.38,-49.96l-0.2 -0.19c-30.85,-30.87 -49.96,-73.45 -49.96,-120.38 0,-46.94 19.11,-89.52 49.96,-120.38l0 -0.2c30.86,-30.86 73.51,-49.97 120.58,-49.97zm968.8 -1211.02l968.82 0c46.93,0 89.51,19.11 120.38,49.96l0.19 0c30.86,30.86 49.97,73.51 49.97,120.58l0 1282.87 71.66 -0.01 0 -0.19c46.84,0 89.42,19.11 120.37,49.97l0.2 0.2c30.88,30.95 49.97,73.54 49.97,120.37 0,47.07 -19.11,89.72 -49.97,120.58 -30.85,30.85 -73.5,49.96 -120.57,49.96l0 -0.19 -1453.21 0.01 0 0.19c-46.94,0 -89.52,-19.11 -120.38,-49.96l-0.2 -0.2c-30.85,-30.86 -49.96,-73.45 -49.96,-120.38 0,-46.93 19.11,-89.52 49.96,-120.38l0.2 -0.2c30.86,-30.85 73.44,-49.96 120.38,-49.96l71.66 0 0 -1282.68c0,-47.07 19.1,-89.72 49.96,-120.57 30.86,-30.86 73.5,-49.97 120.57,-49.97zm170.55 1453.22l627.73 0 0 -385.52 -627.73 0 0 385.52zm0 -726.61l627.73 0 0 -385.52 -627.73 0 0 385.52zm-1125.32 -2749.91c96.65,96.64 156.5,230.11 156.5,377.33 0,147.23 -59.85,280.7 -156.5,377.34 -96.64,96.65 -230.11,156.5 -377.33,156.5 -147.23,0 -280.7,-59.85 -377.34,-156.5 -96.65,-96.64 -156.5,-230.11 -156.5,-377.34 0,-147.22 59.85,-280.69 156.5,-377.33 96.64,-96.65 230.11,-156.5 377.34,-156.5 147.22,0 280.69,59.85 377.33,156.5zm-513.57 241.1c-34.89,34.89 -56.53,83.1 -56.53,136.23 0,53.13 21.64,101.34 56.53,136.23 35.02,35.01 83.24,56.73 136.24,56.73l0 -0.19c53.13,0 101.34,-21.64 136.23,-56.53 34.9,-34.89 56.53,-83.1 56.53,-136.24 0,-53.13 -21.63,-101.34 -56.53,-136.23 -34.89,-34.9 -83.1,-56.53 -136.23,-56.53 -53.14,0 -101.35,21.63 -136.24,56.53zm3334.31 2073.85l0 1890.46c127.52,11.75 242.2,68.52 327.9,154.23 96.64,96.64 156.5,230.12 156.5,377.34l-0.19 0.04c-0.01,147.32 -59.79,280.78 -156.31,377.3 -96.64,96.62 -230.1,156.48 -377.32,156.48l-1332.13 0 0 -0.19 -2422.04 0.01 0 0.19c-46.93,0 -89.52,-19.11 -120.38,-49.96l-0.19 -0.2c-30.86,-30.86 -49.96,-73.44 -49.96,-120.38 0,-46.88 19.13,-89.51 50.06,-120.46l-0.09 -0.1c30.86,-30.86 73.49,-49.97 120.56,-49.97l2016.32 0c-4.51,-23.43 -7.03,-47.32 -7.03,-71.66 0,-90.29 29.21,-173.95 78.65,-242.03 44.99,-61.94 106.84,-110.96 178.73,-140.31 31.41,-143.4 110.07,-269.44 218.79,-360.92 114.06,-95.98 261,-153.89 420.99,-153.89 126.7,0 245.2,36.26 345.63,98.93 85.14,53.13 157.28,125.4 210.44,210.76l0 -1955.67c0,-47.06 19.1,-89.71 49.96,-120.57l0.2 0c30.86,-30.85 73.43,-49.96 120.38,-49.96 46.84,0 89.42,19.1 120.37,49.97l0.19 0.2c30.88,30.95 49.97,73.53 49.97,120.36zm-897.14 2614.79l847.7 0c53.14,0 101.34,-21.63 136.23,-56.52 34.89,-34.9 56.52,-83.1 56.52,-136.23 0,-53.13 -21.63,-101.34 -56.53,-136.23 -34.89,-34.9 -83.1,-56.53 -136.23,-56.53 -46.75,0 -90.72,13.46 -126.62,36.96 -35.23,23.05 -62.66,55.61 -77.05,94.27 -14.42,38.66 -41.7,69.41 -75.45,88.59 -33.75,19.2 -74.1,26.9 -114.63,19.48 -40.58,-7.41 -75.59,-28.68 -100.36,-58.34 -24.94,-29.86 -39.73,-68.15 -39.73,-109.31 0,-86.49 -35.22,-164.96 -92.06,-221.81 -56.84,-56.83 -135.31,-92.06 -221.8,-92.06 -86.49,0 -164.97,35.23 -221.8,92.06 -56.85,56.85 -92.06,135.32 -92.06,221.81 0,46.89 -19.15,89.51 -50.07,120.47l0.1 0.1c-30.86,30.86 -73.5,49.97 -120.57,49.97 -19.79,0 -37.74,8.02 -50.73,20.94l0.1 0.1c-12.98,12.98 -21.04,30.91 -21.04,50.62 0,19.71 8.06,37.62 21.05,50.62 12.98,12.98 30.91,21.04 50.62,21.04l484.41 0zm-1089.93 -6055.06l2300.93 0 0.04 0.19c47.17,0.01 89.82,19.06 120.53,49.77 30.85,30.85 49.95,73.49 49.95,120.54l0 3027.54c0,34.26 -10.46,67.03 -28.9,94.67 -18.34,27.47 -44.61,49.64 -76.32,62.82l-0.2 0c-10.91,4.48 -21.58,7.74 -31.85,9.79l-0.2 0c-11.07,2.18 -22.14,3.28 -33.06,3.28 -22.25,0 -44.47,-4.47 -65.28,-13.1 -20.54,-8.62 -39.42,-20.99 -55.3,-36.86l-3391.8 -3391.81 -3390.41 3391.63c-16,16.09 -34.85,28.52 -55.23,36.99 -20.81,8.7 -43.06,13.17 -65.35,13.17 -11.06,0 -22.15,-1.09 -33.15,-3.28 -10.44,-2.12 -21.1,-5.39 -31.84,-9.79 -31.94,-13.23 -58.3,-35.38 -76.64,-62.79 -18.46,-27.6 -28.92,-60.37 -28.92,-94.7l0.19 0 -0.48 -3027.52 -0.19 0c0,-22.34 4.54,-44.48 13.09,-65.15l0 -0.2c8.41,-20.29 20.86,-39.05 36.87,-55.05l0.2 -0.19c15.98,-16.01 34.75,-28.47 55.04,-36.88l0.19 0c20.68,-8.55 42.82,-13.09 65.15,-13.09l1041 0c-1.16,-268.03 -0.52,40.78 -0.52,-798.26 0,-46.93 19.11,-89.51 49.96,-120.37l0.2 -0.2c30.86,-30.85 73.44,-49.96 120.37,-49.96l968.8 0c46.93,0 89.52,19.11 120.38,49.96l0.2 0c30.86,30.86 49.97,73.51 49.97,120.57 -0.53,799.07 -0.26,360.86 -0.53,799.07l54.92 0.18c46.84,0 89.42,19.1 120.37,49.97l0.19 0.2c30.88,30.95 49.97,73.54 49.97,120.37 0,47.07 -19.1,89.72 -49.97,120.58 -30.85,30.85 -73.49,49.96 -120.56,49.96l-395.44 -0.98c-0.03,-968.8 -0.03,-966.94 -0.03,-968.8l-627.73 0c0,5.5 0,0 0.02,968.81l-1211.03 0 0 2445.16 3220.08 -3220.68 0.2 0c16.26,-16.25 35.15,-28.55 55.36,-36.88 21.15,-8.74 43.4,-13.08 65.39,-13.08 21.98,0 44.24,4.34 65.39,13.07 20.44,8.43 39.4,20.74 55.55,36.89l3220.82 3220.82 0 -2445.3 -2130.39 0c-46.93,0 -89.51,-19.11 -120.37,-49.96l-0.2 -0.2c-30.85,-30.86 -49.96,-73.45 -49.96,-120.38 0,-47.07 19.11,-89.72 49.96,-120.57 30.86,-30.86 73.51,-49.97 120.57,-49.97zm-4359.64 6055.06l1332.11 0c19.84,0 37.75,-7.99 50.61,-20.86l0 -0.19c12.98,-12.99 21.04,-30.92 21.04,-50.63 0,-19.79 -8.01,-37.74 -20.94,-50.71l-0.1 0.09c-12.98,-12.98 -30.9,-21.04 -50.62,-21.04 -46.93,0 -89.51,-19.11 -120.37,-49.96l-0.2 -0.19c-30.85,-30.87 -49.96,-73.45 -49.96,-120.38 0,-86.49 -35.23,-164.97 -92.06,-221.8 -56.84,-56.84 -135.31,-92.06 -221.8,-92.06 -86.5,0 -164.97,35.21 -221.81,92.06 -56.84,56.83 -92.06,135.31 -92.06,221.8 0,41.16 -14.78,79.44 -39.74,109.32 -24.81,29.69 -59.86,50.97 -100.55,58.32 -40.66,7.32 -80.89,-0.36 -114.53,-19.49 -33.75,-19.17 -60.92,-49.89 -75.35,-88.57 -14.4,-38.67 -41.82,-71.23 -77.06,-94.29 -35.89,-23.48 -79.86,-36.95 -126.61,-36.95 -53.13,0 -101.34,21.63 -136.24,56.53 -34.89,34.89 -56.53,83.1 -56.53,136.23 0,53.14 21.64,101.34 56.53,136.24 34.91,34.9 83.11,56.53 136.24,56.53z"/>
  <path class="fil10" d="M23455.26 2790.37l-2591.95 0c-116.86,-327.7 -427.33,-564.44 -794.71,-564.44l-3951.12 0c-367.39,0 -677.86,236.75 -794.71,564.44l-2591.95 0c-466.74,0 -846.67,379.93 -846.67,846.67l0 3668.89 -961.18 0c-343.54,0 -682.54,89.99 -980.47,260.45l-1520.11 868.44 -1618.24 0 0 5080 1889.98 0 1195.59 797.06c325.63,217.32 704.73,331.83 1095.82,331.83l898.61 0 0 4233.33c0,466.74 379.93,846.67 846.67,846.67l10724.44 0c466.74,0 846.67,-379.93 846.67,-846.67l0 -15240c0,-466.74 -379.93,-846.67 -846.67,-846.67zm-9877.78 6773.34l564.45 0c622.6,0 1128.89,-506.29 1128.89,-1128.89 0,-622.6 -506.29,-1128.89 -1128.89,-1128.89l-564.45 0 0 -2822.22 1745.29 0c116.86,327.7 427.33,564.44 794.71,564.44l3951.12 0c367.39,0 677.86,-236.75 794.71,-564.44l1745.29 0 0 13546.67 -9031.12 0 0 -8466.67zm2257.78 -6491.11c0,-155.72 126.5,-282.22 282.22,-282.22l3951.12 -0.01c155.72,0 282.22,126.5 282.22,282.22l0 1128.89c0,155.72 -126.5,282.22 -282.22,282.22l-3951.12 0.01c-155.72,0 -282.22,-126.5 -282.22,-282.22l0 -1128.89zm-3386.66 564.44c0,-155.72 126.5,-282.22 282.22,-282.22l2540 0 0 564.44 -2257.78 0 0 3386.67 -564.44 0 0 -3668.89zm-1463.07 10442.22c-279.33,0 -549.98,-81.86 -782.59,-237.02l-1337.66 -891.87 -1696.69 0.01 0 -3951.11 1404 -0.01 1650.06 -942.85c212.91,-121.68 455.03,-186.04 700.32,-186.04l3218.96 0.01c311.3,0 564.44,253.15 564.44,564.44 0,311.29 -253.15,564.44 -564.44,564.44l-3386.67 0 0 282.22c0,778.04 -633.07,1411.11 -1411.11,1411.11l0 564.44c993.7,0 1818.05,-737.11 1955.57,-1693.33l584.43 0.01 0 4515.56 -898.62 -0.01zm12751.96 4797.78c0,155.72 -126.5,282.22 -282.22,282.22l-10724.45 0.01c-155.72,0 -282.22,-126.5 -282.22,-282.22l0 -9313.33 564.44 -0.01 0 9031.11 10160 0 0 -14675.56 -2257.78 0 0 -564.44 2540 0c155.72,0 282.22,126.5 282.22,282.22l0.01 15240zm0 0z"/>
  <path class="fil10" d="M16399.71 3354.82l564.44 0 0 564.44 -564.44 0 0 -564.44zm0 0z"/>
  <path class="fil10" d="M19221.93 3354.82l564.44 0 0 564.44 -564.44 0 0 -564.44zm0 0z"/>
  <path class="fil10" d="M15270.82 5612.6l6773.33 0 0 564.44 -6773.33 0 0 -564.44zm0 0z"/>
  <path class="fil10" d="M15835.26 7141.49l6208.89 0 0 564.44 -6208.89 0 0 -564.44zm0 0z"/>
  <path class="fil10" d="M15835.26 8670.38l6208.89 0 0 564.44 -6208.89 0 0 -564.44zm0 0z"/>
  <path class="fil11" d="M8142.66 8151.83l0 0c0,-140.46 -115.02,-254.64 -255.35,-255.39l-7887.31 -42.37 -0.02 5971.84 5792.21 42.37 0 242.44c5.19,155.82 90.46,300.81 251.34,300.81l1843.72 0c140.52,0 255.41,-114.94 255.41,-255.4l0 -6004.3z"/>
  <path class="fil10" d="M8142.66 8118.8c0,-3.09 -0.07,-6.26 0,-9.34 0,-140.46 -115.01,-255.39 -255.35,-255.39l-7887.31 0 0 510.79 7631.86 0 0 5578.25 -1328.87 0c0,-1644.04 0,-2526.24 0,-4170.49 0,-140.54 -114.93,-255.46 -255.41,-255.46l0 0c-140.45,0 -255.38,114.92 -255.38,255.46l0 3627.23 -5792.21 0 0 510.79 5792.21 0 0 242.45c-2.68,14.75 -4.08,29.92 -4.08,45.41l0 0c0,140.47 114.89,255.4 255.41,255.4l1843.72 0c140.52,0 255.41,-114.93 255.41,-255.4l0 0 0 -6079.7zm-2845.1 4586.9l0 0.08c0,140.45 -115,255.35 -255.36,255.35l-0.04 0c-140.36,0 -255.36,-114.98 -255.36,-255.35l0 -0.08c0,-140.37 114.92,-255.36 255.36,-255.36l0.04 0c140.44,0 255.36,114.91 255.36,255.36z"/>
  <g>
   <path class="fil4" d="M4458.87 17518.36c437.45,0 792.07,354.62 792.07,792.07 0,437.45 -354.62,792.07 -792.07,792.07 -437.45,0 -792.07,-354.62 -792.07,-792.07 0,-437.45 354.62,-792.07 792.07,-792.07zm350.57 441.5c-89.69,-89.68 -213.65,-145.17 -350.57,-145.17 -136.93,0 -260.88,55.49 -350.57,145.17 -89.68,89.68 -145.17,213.65 -145.17,350.57 0,136.93 55.49,260.89 145.17,350.57 89.68,89.68 213.64,145.17 350.57,145.17 136.92,0 260.89,-55.49 350.57,-145.17 89.68,-89.69 145.17,-213.64 145.17,-350.57 0,-136.92 -55.49,-260.88 -145.17,-350.57z"/>
  </g>
  <path class="fil4" d="M8805.65 3109.87l0.03 0c116.63,0 212.05,95.42 212.05,212.05l0 424.16c0,116.64 -95.42,212.06 -212.05,212.06l-0.03 0c-116.64,0 -212.05,-95.42 -212.05,-212.06l0 -424.16c0,-116.63 95.41,-212.05 212.05,-212.05zm212.56 1060.84l0 -0.03c0,-116.63 95.41,-212.05 212.05,-212.05l424.16 0c116.64,0 212.05,95.42 212.05,212.05l0 0.03c0,116.64 -95.41,212.05 -212.05,212.05l-424.16 0c-116.64,0 -212.05,-95.41 -212.05,-212.05zm-1273.37 0l0 -0.03c0,-116.63 95.41,-212.05 212.05,-212.05l424.16 0c116.63,0 212.05,95.42 212.05,212.05l0 0.03c0,116.64 -95.42,212.05 -212.05,212.05l-424.16 0c-116.64,0 -212.05,-95.41 -212.05,-212.05zm1060.81 212.53l0.03 0c116.63,0 212.05,95.42 212.05,212.06l0 424.16c0,116.63 -95.42,212.05 -212.05,212.05l-0.03 0c-116.64,0 -212.05,-95.42 -212.05,-212.05l0 -424.16c0,-116.64 95.41,-212.06 212.05,-212.06z"/>
  <path class="fil12" d="M26925.61 7334.44l0 0c100.57,0 182.84,82.27 182.84,182.83l0 365.66 365.65 0c100.56,0 182.83,82.28 182.83,182.84l0 0c0,100.55 -82.27,182.83 -182.83,182.83l-365.65 0 0 365.64c0,100.56 -82.27,182.85 -182.84,182.85l0 0c-100.54,0 -182.82,-82.29 -182.82,-182.85l0 -365.64 -365.66 0c-100.58,0 -182.85,-82.28 -182.85,-182.83l0 0c0,-100.56 82.27,-182.84 182.85,-182.84l365.66 0 0 -365.66c0,-100.56 82.28,-182.83 182.82,-182.83z"/>
  <path class="fil4" d="M27856.87 17108.84l0 0c116.45,0 211.7,95.26 211.7,211.68l0 423.37 423.35 0c116.42,0 211.68,95.25 211.68,211.68l0 0c0,116.43 -95.26,211.68 -211.68,211.68l-423.35 0 0 423.35c0,116.42 -95.25,211.7 -211.7,211.7l0 0c-116.4,0 -211.66,-95.28 -211.66,-211.7l0 -423.35 -423.37 0c-116.44,0 -211.7,-95.25 -211.7,-211.68l0 0c0,-116.43 95.26,-211.68 211.7,-211.68l423.37 0 0 -423.37c0,-116.42 95.26,-211.68 211.66,-211.68z"/>
 </g>
</svg>
