<svg height="512" viewBox="0 0 64 64" width="512" xmlns="http://www.w3.org/2000/svg"><path d="m25.36 50h-15.36v-46h38v4.26a1 1 0 0 0 2 0v-5.26a1 1 0 0 0 -1-1h-40a1 1 0 0 0 -1 1v48a1 1 0 0 0 1 1h16.36a1 1 0 0 0 0-2z"/><path d="m48 31.74v1.32a1 1 0 0 0 2 0v-1.32a1 1 0 1 0 -2 0z"/><path d="m42 34a13.89 13.89 0 0 0 -8.25 2.71 1 1 0 1 0 1.18 1.61 11.88 11.88 0 0 1 7.07-2.32 12 12 0 1 1 -12 12 11.88 11.88 0 0 1 2.32-7.07 1 1 0 1 0 -1.61-1.18 14 14 0 1 0 11.29-5.75z"/><path d="m37.05 53.05a1 1 0 0 0 1.41 1.41 5 5 0 0 1 7.08 0 1 1 0 0 0 .7.3 1 1 0 0 0 .76-1.71 7 7 0 0 0 -9.9 0z"/><path d="m48.89 42.55a1 1 0 0 0 -1.34-.44l-4 2a1 1 0 0 0 -.44 1.34 1 1 0 0 0 .89.55.93.93 0 0 0 .45-.11l4-2a1 1 0 0 0 .44-1.34z"/><circle cx="47" cy="47" r="1"/><path d="m40.45 44.11-4-2a1 1 0 1 0 -.9 1.78l4 2a.93.93 0 0 0 .45.11 1 1 0 0 0 .89-.55 1 1 0 0 0 -.44-1.34z"/><circle cx="37" cy="47" r="1"/><path d="m40 12a1 1 0 0 0 -1-1h-19v-2h19a1 1 0 0 0 0-2h-20a1 1 0 0 0 -1 1v4a1 1 0 0 0 1 1h20a1 1 0 0 0 1-1z"/><path d="m35 18a1 1 0 0 0 0-2h-13a1 1 0 0 0 0 2z"/><path d="m15 22a1 1 0 0 0 1 1h19a1 1 0 0 0 0-2h-19a1 1 0 0 0 -1 1z"/><path d="m38 27a1 1 0 0 0 -1-1h-21a1 1 0 0 0 0 2h21a1 1 0 0 0 1-1z"/><path d="m16 31a1 1 0 0 0 0 2h18a1 1 0 0 0 0-2z"/><path d="m27 36h-11a1 1 0 0 0 0 2h11a1 1 0 0 0 0-2z"/><path d="m25 43a1 1 0 0 0 0-2h-9a1 1 0 0 0 0 2z"/><path d="m38 20a9 9 0 1 0 9-9 9 9 0 0 0 -9 9zm16 0a7 7 0 1 1 -7-7 7 7 0 0 1 7 7z"/><path d="m44.88 16.46a1 1 0 0 0 -1.42 1.42l2.13 2.12-2.13 2.12a1 1 0 0 0 0 1.42 1 1 0 0 0 .71.29 1 1 0 0 0 .71-.29l2.12-2.13 2.12 2.13a1 1 0 0 0 .71.29 1 1 0 0 0 .71-.29 1 1 0 0 0 0-1.42l-2.13-2.12 2.13-2.12a1 1 0 0 0 -1.42-1.42l-2.12 2.13z"/></svg>