<svg height="480pt" viewBox="-48 0 480 480" width="480pt" xmlns="http://www.w3.org/2000/svg"><g fill="#231f20"><path d="m296 310.878906c-4.417969 0-8 3.582032-8 8v81.121094h-272v-360c0-13.253906 10.746094-24 24-24h224c13.253906 0 24 10.746094 24 24v24h-248c-4.417969 0-8 3.582031-8 8s3.582031 8 8 8h248v54.878906c0 4.417969 3.582031 8 8 8s8-3.582031 8-8v-94.878906c0-22.089844-17.910156-40-40-40h-224c-22.089844 0-40 17.910156-40 40v400c0 22.089844 17.910156 40 40 40h224c22.089844 0 40-17.910156 40-40v-121.121094c0-4.417968-3.582031-8-8-8zm-8 129.121094c0 13.253906-10.746094 24-24 24h-224c-13.253906 0-24-10.746094-24-24v-24h272zm0 0"/><path d="m40 48h40c4.417969 0 8-3.582031 8-8s-3.582031-8-8-8h-40c-4.417969 0-8 3.582031-8 8s3.582031 8 8 8zm0 0"/><path d="m264 40c0 4.417969-3.582031 8-8 8s-8-3.582031-8-8 3.582031-8 8-8 8 3.582031 8 8zm0 0"/><path d="m232 40c0 4.417969-3.582031 8-8 8s-8-3.582031-8-8 3.582031-8 8-8 8 3.582031 8 8zm0 0"/><path d="m200 40c0 4.417969-3.582031 8-8 8s-8-3.582031-8-8 3.582031-8 8-8 8 3.582031 8 8zm0 0"/><path d="m120 448h64c4.417969 0 8-3.582031 8-8s-3.582031-8-8-8h-64c-4.417969 0-8 3.582031-8 8s3.582031 8 8 8zm0 0"/><path d="m383.199219 113.761719c-1.652344-6.148438-5.683594-11.386719-11.199219-14.5625-5.519531-3.191407-12.082031-4.054688-18.238281-2.398438-6.148438 1.652344-11.386719 5.683594-14.5625 11.199219l-16 28-16 27.761719-76 131.277343c-.257813.535157-.445313 1.097657-.558594 1.679688v.722656l-9.121094 44.71875-13.519531 9.839844v-8c0-3.03125-1.710938-5.800781-4.421875-7.15625s-5.953125-1.0625-8.378906.757812l-18.480469 13.839844c-3.125 2.328125-7.214844 2.925782-10.878906 1.597656 1.519531-1.597656 2.960937-3.277343 4.398437-5.039062l.960938-1.199219c4.214843-5.25 5.828125-12.125 4.382812-18.703125-1.445312-6.574218-5.792969-12.140625-11.820312-15.136718l-1.441407-.960938c-9.765624-4.800781-21.570312-1.855469-27.941406 6.964844-6.371094 8.824218-5.449218 20.957031 2.179688 28.714844l4.480468 4.398437c-8.828124 5.117187-18.835937 7.847656-29.039062 7.921875-4.417969 0-8 3.582031-8 8s3.582031 8 8 8c14.496094.015625 28.679688-4.210938 40.800781-12.160156 9.800781 7.679687 23.535157 7.84375 33.519531.398437l5.679688-4.238281v8c.007812 3.011719 1.710938 5.765625 4.398438 7.121094 2.710937 1.375 5.964843 1.09375 8.402343-.722656l24-17.917969c1.703125-.101563 3.328125-.746094 4.640625-1.839844l37.917969-33.601563c.269531-.308593.488281-.660156.640625-1.039062.285156-.3125.527344-.664062.71875-1.039062l40.5625-70.242188c1.574219-2.480469 1.664062-5.625.234375-8.1875-1.433594-2.566406-4.15625-4.140625-7.09375-4.101562-2.941406.039062-5.621094 1.6875-6.980469 4.289062l-36.480468 63.28125-13.921876-8 68-117.839844 13.921876 8-15.441407 26.71875c-1.574219 2.480469-1.664062 5.625-.234375 8.191406 1.433594 2.566407 4.15625 4.140626 7.09375 4.101563s5.617188-1.6875 6.980469-4.292969l19.441406-33.597656 16-27.761719 16-27.679687c3.148438-5.476563 4.007813-11.972656 2.398438-18.078125zm-224.480469 223.039062-.957031 1.199219c-1.25 1.566406-2.585938 3.0625-4 4.480469l-5.839844-5.921875c-1.699219-1.660156-2.292969-4.152344-1.523437-6.398438.558593-1.730468 1.84375-3.132812 3.523437-3.839844.785156-.320312 1.628906-.484374 2.476563-.480468.945312 0 1.875.21875 2.722656.640625l1.519531.800781c1.699219.816406 2.914063 2.386719 3.28125 4.238281.410156 1.851563-.03125 3.789063-1.203125 5.28125zm81.921875-10.082031 3.121094-15.199219 8.476562 4.960938zm98.320313-154.238281-13.921876-8 8-13.839844 13.921876 8zm28-48.480469-12 20.800781-13.921876-8 12-20.800781c1.058594-1.855469 2.816407-3.207031 4.882813-3.761719 2.054687-.507812 4.226563-.222656 6.078125.800781 1.855469 1.058594 3.207031 2.816407 3.761719 4.882813.550781 2.050781.261719 4.238281-.800781 6.078125zm0 0"/><path d="m240 120c0-4.417969-3.582031-8-8-8h-160c-4.417969 0-8 3.582031-8 8s3.582031 8 8 8h152v16h-152c-4.417969 0-8 3.582031-8 8s3.582031 8 8 8h160c4.417969 0 8-3.582031 8-8zm0 0"/><path d="m184 192c4.417969 0 8-3.582031 8-8s-3.582031-8-8-8h-80c-4.417969 0-8 3.582031-8 8s3.582031 8 8 8zm0 0"/><path d="m240 216c0-4.417969-3.582031-8-8-8h-80c-4.417969 0-8 3.582031-8 8s3.582031 8 8 8h80c4.417969 0 8-3.582031 8-8zm0 0"/><path d="m72 216c0 4.417969 3.582031 8 8 8h40c4.417969 0 8-3.582031 8-8s-3.582031-8-8-8h-40c-4.417969 0-8 3.582031-8 8zm0 0"/><path d="m224 256c0-4.417969-3.582031-8-8-8h-168c-4.417969 0-8 3.582031-8 8s3.582031 8 8 8h168c4.417969 0 8-3.582031 8-8zm0 0"/><path d="m48 288c-4.417969 0-8 3.582031-8 8s3.582031 8 8 8h64c4.417969 0 8-3.582031 8-8s-3.582031-8-8-8zm0 0"/></g></svg>