<?xml version="1.0" encoding="UTF-8"?>
<!DOCTYPE svg PUBLIC "-//W3C//DTD SVG 1.1//EN" "http://www.w3.org/Graphics/SVG/1.1/DTD/svg11.dtd">
<!-- Creator: CorelDRAW 2018 (64-Bit) -->
<svg xmlns="http://www.w3.org/2000/svg" xml:space="preserve" width="297mm" height="210mm" version="1.1" style="shape-rendering:geometricPrecision; text-rendering:geometricPrecision; image-rendering:optimizeQuality; fill-rule:evenodd; clip-rule:evenodd"
viewBox="0 0 29700 21000"
 xmlns:xlink="http://www.w3.org/1999/xlink">
 <defs>
  <style type="text/css">
   <![CDATA[
    .fil6 {fill:#422131}
    .fil5 {fill:#DD3445}
    .fil1 {fill:#EADAFE}
    .fil8 {fill:#EADAFE}
    .fil10 {fill:#F4D5E1}
    .fil9 {fill:#FEFEFE}
    .fil0 {fill:#FFF4F4}
    .fil4 {fill:white}
    .fil7 {fill:#422131;fill-rule:nonzero}
    .fil3 {fill:#343743;fill-opacity:0.149020}
    .fil2 {fill:#EFC7D7;fill-opacity:0.501961}
   ]]>
  </style>
 </defs>
 <g id="Слой_x0020_1">
  <metadata id="CorelCorpID_0Corel-Layer"/>
  <path class="fil0" d="M7411.19 6225.8c939.87,0 1749.04,240.86 2675.59,240.86 2523.18,0 4836.87,-1272.4 6199.86,-3359.15 1343.04,-1869.3 3535.8,-3086.99 6013.27,-3086.99 4086.9,0 7400.09,3313.09 7400.09,7400.08 0,4086.99 -3313.19,7400.09 -7400.09,7400.09 -904.07,0 -1759.98,-212.36 -2671.68,-212.36 -2580.77,0 -4852.66,1321.42 -6176.88,3324.38l-12.13 -13.49c-1341.77,1880.58 -3541.66,3106.84 -6028.03,3106.84 -4086.9,0 -7400.09,-3313.09 -7400.09,-7400.08 0,-4086.99 3313.19,-7400.17 7400.09,-7400.17l0 -0.01z"/>
  <path class="fil1" d="M2574.06 15154.5c100.42,0 182.6,82.18 182.6,182.6l0 365.1c0,100.42 -82.18,182.51 -182.6,182.51 -100.41,0 -182.59,-82.09 -182.59,-182.51l0 -365.1c0,-100.42 82.18,-182.6 182.59,-182.6zm182.94 913.23c0,-100.41 82.18,-182.51 182.6,-182.51l365.1 0c100.42,0 182.51,82.1 182.51,182.51 0,100.42 -82.1,182.51 -182.51,182.51l-365.11 0c-100.41,0 -182.59,-82.09 -182.59,-182.51l0 0zm-1096.17 0c0,-100.41 82.18,-182.51 182.6,-182.51l365.1 0c100.42,0 182.6,82.1 182.6,182.51 0,100.42 -82.18,182.51 -182.6,182.51l-365.11 0c-100.41,0 -182.59,-82.09 -182.59,-182.51l0 0zm913.23 182.94c100.42,0 182.6,82.18 182.6,182.59l0 365.11c0,100.42 -82.18,182.51 -182.6,182.51 -100.41,0 -182.59,-82.1 -182.59,-182.51l0 -365.11c0,-100.41 82.18,-182.59 182.59,-182.59z"/>
  <path class="fil2" d="M20130.81 5793.52c-165.97,0 -300.56,134.6 -300.56,300.57 0,165.97 134.59,300.48 300.56,300.48 165.97,0 300.48,-134.51 300.48,-300.48 0,-165.97 -134.5,-300.57 -300.48,-300.57z"/>
  <path class="fil1" d="M11658.9 9281.84c-137.14,0 -261.3,55.55 -351.12,145.36 -89.89,89.82 -145.45,214.06 -145.45,351.2 0,137.14 55.55,261.3 145.45,351.2 89.82,89.81 213.98,145.36 351.12,145.36 137.22,0 261.38,-55.55 351.19,-145.36 89.82,-89.9 145.45,-214.06 145.45,-351.2 0,-137.14 -55.63,-261.3 -145.45,-351.2 -89.81,-89.81 -213.97,-145.36 -351.19,-145.36zm0 -296.92c-438.21,0 -793.4,355.27 -793.4,793.48 0,438.21 355.19,793.4 793.4,793.4 438.21,0 793.48,-355.19 793.48,-793.4 0,-438.21 -355.27,-793.48 -793.48,-793.48zm13707.31 1005.25c116.61,0 212.02,95.5 212.02,212.11l0 424.05 424.14 0c116.61,0 212.02,95.41 212.02,212.03 0,116.7 -95.41,212.11 -212.02,212.11l-424.14 -0.01 0 424.05c0,116.61 -95.41,212.11 -212.02,212.11 -116.61,0 -212.02,-95.49 -212.02,-212.11l0 -424.05 -424.14 0c-116.61,0 -212.02,-95.41 -212.02,-212.11 0,-116.61 95.41,-212.02 212.02,-212.02l424.14 0 0 -424.05c0,-116.61 95.41,-212.11 212.02,-212.11zm2166.3 -8183.9c210.84,0 381.73,170.9 381.73,381.65 0,210.84 -170.89,381.64 -381.73,381.64 -210.75,0 -381.64,-170.8 -381.64,-381.64 0,-210.75 170.89,-381.65 381.64,-381.65z"/>
  <path class="fil3" d="M12975.91 18844.66l360.78 0c120.94,0 220.34,99.23 220.34,220.42 0,121.2 -99.4,220.34 -220.34,220.34l-360.78 0c-120.94,0 -220.25,-99.14 -220.25,-220.34 0,-121.19 99.31,-220.42 220.25,-220.42zm-756.84 0.34l-221.19 0 0 -453.22c0,-1037.91 -276.73,-1839.02 -822.65,-2380.95 -684.16,-679.25 -1540.23,-692.31 -1602.06,-692.31l-1110.5 0 0 -670.42c0,-11.7 -1.19,-23.07 -2.97,-34.35 525.14,-216.94 907.04,-541.26 1180.89,-867.01 127.89,185.06 341.44,306.67 582.98,306.67 357.9,0 654.4,-266.89 701.55,-611.99 56.57,10.69 114.41,16.54 173.18,16.54 509.71,0 924.51,-414.72 924.51,-924.51 0,-207.45 -71.24,-403.78 -192.52,-561.95 329.83,-170.21 555.93,-514.12 555.93,-910.1 0,-317.44 -145.19,-601.56 -372.65,-789.49 296.92,-206.6 491.81,-550.08 491.81,-938.42 0,-625.65 -505.3,-1135.44 -1129.16,-1142.73l-41.3 -4.92c-233.14,-582.64 -531.84,-1181.4 -1067.59,-1682.63 -714.95,-668.89 -1711.12,-1008.05 -2960.97,-1008.05 -5.17,0 -10.17,0.42 -15.18,0.76 -5,-0.34 -10,-0.76 -15.18,-0.76 -1249.84,0 -2246.1,339.16 -2960.96,1007.97 -535.75,501.23 -834.45,1099.9 -1067.59,1682.63l-41.22 4.91c-623.95,7.21 -1129.16,517.09 -1129.16,1142.65 0,388.43 194.81,731.91 491.81,938.51 -227.54,187.93 -372.74,472.05 -372.74,789.49 0,395.98 226.11,739.97 555.93,910.1 -121.19,158.17 -192.43,354.5 -192.43,561.95 0,509.79 414.72,924.51 924.43,924.51 58.77,0 116.69,-5.85 173.26,-16.62 47.16,345.18 343.65,612.07 701.47,612.07 238.57,0 449.74,-118.65 578.14,-299.89 273.43,323.47 653.72,644.73 1175.22,860.23 -1.79,11.2 -2.97,22.65 -2.97,34.35l0 670.42 -1106.43 0c-37.82,0.59 -910.35,1.52 -1606.13,692.3 -545.92,542.02 -822.65,1343.05 -822.65,2380.95l0 453.23 -50.89 0c-122.21,0 -221.18,99.05 -221.18,221.18 0,122.13 98.97,221.18 221.18,221.18l9695.98 0.01c122.21,0 221.18,-98.98 221.18,-221.19 0,-122.04 -99.06,-221.1 -221.18,-221.1zm-4010.07 -5828.81c0,-122.21 -98.97,-221.18 -221.18,-221.18l-1403.78 0c-122.21,0 -221.18,98.97 -221.18,221.18 0,122.13 98.97,221.18 221.18,221.18l1403.78 0c122.21,0 221.18,-99.05 221.18,-221.18zm910.94 -2802.8c0,-145.79 -118.14,-264.01 -263.93,-264.01 -145.79,0 -264.01,118.22 -264.01,264.01 0,145.79 118.22,264.02 264.01,264.02 145.79,0 263.93,-118.23 263.93,-264.02zm-3140.08 0c0,-145.79 -118.23,-264.01 -264.02,-264.01 -145.79,0 -264.01,118.22 -264.01,264.01 0,145.79 118.22,264.02 264.01,264.02 145.79,0 264.02,-118.23 264.02,-264.02zm3592.46 5547.5c5.6,-0.08 724.28,0.93 1291.23,563.82 459.16,455.85 691.96,1151.38 691.96,2067.07l0 453.23 -3506.29 -0.01c-0.68,-15.86 -2.88,-31.8 -7.12,-47.66l-402.68 -1527.51 701.12 1203.2c34.6,59.28 94.65,99.22 162.75,108.04 9.5,1.19 19,1.79 28.41,1.79 58.35,0 114.67,-22.99 156.39,-64.8l747.18 -747.17c48.51,-48.51 71.83,-116.78 62.92,-184.8 -8.82,-68.02 -48.68,-128.15 -107.96,-162.67l-1502.41 -875.49c282.59,-169.03 488.59,-453.05 553.05,-787.12l1131.45 -0.01 0 0.09 0 0zm-2286.56 78.36c276.91,0 531.5,-96.42 732.76,-257.05 -23.16,384.1 -342.89,689.59 -732.76,689.59 -389.87,0 -709.6,-305.49 -732.76,-689.59 201.17,160.71 455.86,257.05 732.76,257.05zm-727.5 -1078.52c209.74,53.26 437.54,90.49 685.52,106.52 4.75,0.34 9.5,0.51 14.25,0.51l55.72 0c4.75,0 9.5,-0.17 14.24,-0.51 247.9,-16.03 475.53,-53.26 685.18,-106.44 -48.17,358.58 -355.95,636.07 -727.41,636.07 -371.55,0 -679.33,-277.58 -727.5,-636.16l0 0.01zm741.66 2956.72l297.26 1127.47 -594.51 0 297.26 -1127.47 -0.01 0zm801.88 -532.77l817.65 476.46 -341.19 341.19 -476.46 -817.65zm-3743 -3573.72c-146.63,0 -265.87,-119.24 -265.87,-265.88 0,-68.69 26.03,-133.83 73.36,-183.44 11.19,-11.71 20.77,-24.43 28.83,-37.74 1.61,-1.87 3.14,-3.56 4.75,-5.43 77.35,-94.56 63.35,-233.9 -31.21,-311.25 -94.48,-77.35 -233.82,-63.44 -311.25,31.13 -92.1,112.62 -228.23,177.17 -373.42,177.17 -265.79,0 -482.06,-216.27 -482.06,-482.15 0,-211.68 141.46,-401.74 343.99,-462.13 117.12,-34.85 183.7,-158.08 148.84,-275.12 -33.33,-111.78 -147.14,-177.42 -259.35,-152.66 -5.17,-0.42 -10.34,-0.85 -15.6,-0.85 -320.58,0 -581.38,-260.78 -581.38,-581.28 0,-320.58 260.79,-581.37 581.38,-581.37 122.21,0 221.18,-99.06 221.18,-221.19 0,-0.68 -0.08,-1.27 -0.08,-1.86 0,-0.68 0.08,-1.28 0.08,-1.95 0,-122.13 -98.97,-221.19 -221.18,-221.19 -386.23,0 -700.45,-314.13 -700.45,-700.44 0,-386.23 314.22,-700.36 700.45,-700.36 8.65,0 17.21,-0.51 25.86,-1.53l184.89 -21.8c81.42,-9.58 150.79,-63.35 180.47,-139.76 221.7,-572.22 497.07,-1167.42 1006.19,-1643.71 639.13,-597.91 1508.85,-888.55 2658.79,-888.55 5.08,0 10.17,-0.43 15.18,-0.77 5.09,0.34 10.09,0.77 15.18,0.77 1149.94,0 2019.58,290.64 2658.7,888.55 509.12,476.29 784.49,1071.49 1006.27,1643.7 29.6,76.41 98.97,130.18 180.39,139.77l184.97 21.79c8.57,1.02 17.13,1.53 25.78,1.53 386.23,0 700.45,314.13 700.45,700.36 0,386.31 -314.22,700.44 -700.45,700.44 -122.12,0 -221.18,99.06 -221.18,221.19 0,0.68 0.08,1.27 0.08,1.95 0,0.59 -0.08,1.18 -0.08,1.86 0,122.13 99.06,221.19 221.18,221.19 320.58,0 581.38,260.79 581.38,581.37 0,320.58 -260.79,581.29 -581.38,581.29 -5.25,0 -10.43,0.42 -15.6,0.84 -112.29,-24.76 -226.02,40.88 -259.27,152.66 -34.94,117.04 31.64,240.27 148.76,275.12 202.61,60.39 344.07,250.45 344.07,462.13 0,265.88 -216.26,482.15 -482.14,482.15 -145.19,0 -281.31,-64.55 -373.42,-177.17 -77.34,-94.57 -216.69,-108.48 -311.25,-31.13 -94.56,77.35 -108.47,216.69 -31.12,311.25 1.52,1.87 3.13,3.56 4.66,5.43 8.06,13.31 17.64,26.03 28.83,37.74 47.33,49.7 73.37,114.75 73.37,183.44 0,146.56 -119.25,265.88 -265.8,265.88 -146.63,0 -265.96,-119.24 -265.96,-265.88 0,-11.96 0.76,-23.83 2.37,-35.53 0.68,-5.52 1.02,-11.11 1.36,-16.62 365.61,-618.02 451.19,-1183.78 454.83,-1208.97 1.53,-10.6 2.29,-21.12 2.29,-31.8l0 -2378.92c4.58,-64.03 -18.57,-129.51 -68.95,-177l-465.09 -437.7 0 -514.38c0,-66.32 -29.77,-129.16 -81.08,-171.14 -57.76,-47.32 -619.03,-461.71 -2514.45,-461.71 -1895.41,0 -2456.68,414.39 -2514.44,461.71 -51.31,41.98 -81.08,104.82 -81.08,171.14l0 513.78 -469.59 437.54c-0.93,0.85 -1.61,1.78 -2.46,2.63 -3.05,2.8 -5.85,5.85 -8.65,8.9 -2.29,2.38 -4.58,4.75 -6.7,7.3 -2.37,2.8 -4.66,5.76 -6.95,8.82 -2.12,2.8 -4.33,5.59 -6.36,8.48 -2.04,2.88 -3.82,5.93 -5.68,8.9 -1.95,3.05 -3.9,6.19 -5.68,9.42 -1.79,3.05 -3.22,6.27 -4.84,9.41 -1.61,3.22 -3.22,6.44 -4.66,9.75 -1.53,3.39 -2.72,6.87 -4.07,10.35 -1.19,3.22 -2.46,6.36 -3.48,9.58 -1.19,3.65 -2.12,7.38 -3.14,11.11 -0.85,3.22 -1.78,6.36 -2.46,9.67 -0.76,3.64 -1.36,7.29 -2.04,11.1 -0.59,3.48 -1.18,6.96 -1.61,10.44 -0.42,3.47 -0.59,6.95 -0.85,10.43 -0.25,3.9 -0.51,7.8 -0.59,11.79 0,1.27 -0.17,2.46 -0.17,3.73l0 2394.86c0,10.69 0.76,21.29 2.29,31.8 3.65,25.45 91.17,603.34 466.88,1229.07 1.27,10.6 2.12,21.28 2.12,32.06 0,146.63 -119.33,265.87 -265.88,265.87l0 0.02zm3531.83 -4178.24c-70.06,20.52 -125.44,74.2 -148.08,143.58 -4.67,14.16 -59.45,186.33 -76.08,413.02 -309.81,-69.46 -579.25,-45.54 -772.78,-3.22 -16.97,-225.17 -71.24,-395.72 -75.82,-409.8 -22.65,-69.37 -78.03,-123.06 -148.08,-143.58 -370.62,-108.48 -751.93,-163.52 -1133.32,-163.52 -164.53,0 -315.91,10.35 -451.86,26.13 32.82,-39.44 51.22,-89.23 51.22,-141.21l0 -483.5c201.42,-96.77 808.15,-316.94 2153.15,-316.94 1344.49,0 1948.85,218.64 2153.16,317.44l0 483c0,52.92 19,103.72 53.01,143.49 -140.87,-17.13 -298.87,-28.41 -471.21,-28.41 -381.39,0 -762.69,55.05 -1133.31,163.52zm-2354.16 278.85c298.45,0 596.98,37.99 889.32,112.88 38.59,185.23 64.71,490.37 -66.92,681.19 -89.05,129.08 -244.67,197.86 -475.78,210.08 -174.62,9.24 -300.48,13.4 -408.1,13.4 -566.45,0 -769.31,-43.17 -820.96,-900.77 169.79,-48.51 480.11,-116.78 882.45,-116.78l-0.01 0zm2598.07 112.88c292.34,-74.89 590.95,-112.88 889.31,-112.88 399.12,0 711.47,68.78 882.45,117.21 -51.73,857.17 -254.6,900.26 -820.96,900.26 -107.62,0 -233.48,-4.07 -408.1,-13.32 -231.11,-12.21 -386.74,-80.99 -475.78,-210.07 -131.63,-190.91 -105.42,-496.23 -66.92,-681.2l0 0zm-3072.58 3357.29c-346.11,-531.17 -450.26,-1057.07 -466.2,-1147.65l0 -1090.57c196.08,163.43 479.01,227.88 879.22,227.88 115.77,0 248.83,-4.24 431.43,-13.9 373.17,-19.76 648.37,-155.21 817.99,-402.59 64.54,-94.14 107.03,-197.1 134,-301.67 106.95,-36.81 312.78,-87.7 573.06,-56.23l0 840.63c0,48.77 -39.69,88.46 -88.46,88.46l-114.06 0c-48.85,0 -88.54,-39.7 -88.54,-88.46 0,-122.21 -98.98,-221.19 -221.19,-221.19 -122.12,0 -221.18,98.98 -221.18,221.19 0,292.68 238.15,530.82 530.91,530.82l114.07 0.01c285.04,0 517.68,-226.02 529.72,-508.18 0.68,-7.47 1.1,-15.01 1.1,-22.65l0 -431.85c171.49,214.99 433.47,333.39 780.09,351.71 182.68,9.67 315.74,13.99 431.42,13.99l0.09 0c407.85,0 694.17,-66.66 890.67,-237.22l0 1099.82c-16.11,91.59 -120.43,616.99 -466.2,1147.64 -495.71,760.83 -1237.12,1179.29 -2203.44,1243.65l-41.14 0.01c-966.32,-64.45 -1707.73,-482.82 -2203.36,-1243.65l0 0zm-2045.7 5210.04c0,-2600.53 1903.05,-2630.89 1984.81,-2630.89l1129.66 0c65.05,337.37 274.62,623.69 561.53,791.96l-1493.93 870.57c-59.28,34.52 -99.14,94.65 -107.96,162.67 -8.82,68.1 14.42,136.37 62.93,184.88l747.17 747.09c41.73,41.81 98.13,64.8 156.39,64.8 9.5,0 19,-0.6 28.41,-1.79 68.11,-8.82 128.24,-48.76 162.75,-108.04l721.9 -1238.73 -412.17 1563.04c-4.16,15.86 -6.36,31.8 -7.04,47.58l-3534.45 0 0 -453.14zm3470.42 -1207.1l-476.37 817.65 -341.2 -341.19 817.57 -476.46z"/>
  <path class="fil4" d="M13096.17 18724.49l360.78 0c120.94,0 220.25,99.14 220.25,220.34l0 0.08c0,121.19 -99.31,220.34 -220.25,220.34l-360.78 -0.01c-120.94,0 -220.34,-99.14 -220.34,-220.33l0 -0.09c0,-121.19 99.4,-220.33 220.34,-220.33l0 0zm-756.93 0.25l-221.1 0 0 -453.22c0,-1037.91 -276.81,-1838.94 -822.65,-2380.87 -684.16,-679.33 -1540.23,-692.31 -1602.06,-692.31l-1110.59 0.01 0 -670.51c0,-11.62 -1.18,-23.07 -2.97,-34.26 525.23,-217.03 907.13,-541.26 1180.9,-867.1 127.89,185.14 341.44,306.68 582.98,306.68 357.9,0 654.39,-266.81 701.55,-611.99 56.56,10.77 114.49,16.62 173.26,16.62 509.71,0 924.43,-414.72 924.43,-924.51 0,-207.45 -71.24,-403.79 -192.43,-561.96 329.74,-170.21 555.93,-514.11 555.93,-910.09 0,-317.45 -145.2,-601.56 -372.75,-789.5 296.92,-206.59 491.82,-550.16 491.82,-938.5 0,-625.56 -505.22,-1135.44 -1129.16,-1142.73l-41.22 -4.84c-233.23,-582.73 -531.93,-1181.4 -1067.59,-1682.63 -714.95,-668.89 -1711.21,-1008.05 -2961.05,-1008.05 -5.09,0 -10.09,0.43 -15.18,0.77 -5,-0.34 -10.01,-0.77 -15.18,-0.77 -1249.84,0 -2246.02,339.16 -2960.97,1007.97 -535.66,501.14 -834.36,1099.9 -1067.5,1682.63l-41.3 4.83c-623.95,7.3 -1129.16,517.09 -1129.16,1142.73 0,388.35 194.89,731.91 491.82,938.51 -227.55,187.85 -372.75,471.97 -372.75,789.49 0,395.98 226.19,739.89 555.93,910.1 -121.19,158.09 -192.43,354.51 -192.43,561.95 0,509.79 414.72,924.52 924.43,924.52 58.77,0 116.7,-5.86 173.26,-16.63 47.16,345.18 343.65,611.99 701.55,611.99 238.49,0 449.66,-118.65 578.15,-299.89 273.34,323.55 653.63,644.81 1175.21,860.31 -1.78,11.2 -2.97,22.65 -2.97,34.27l0 670.5 -1106.51 0c-37.74,0.59 -910.35,1.53 -1606.13,692.3 -545.83,541.94 -822.65,1343.06 -822.65,2380.96l0 453.22 -50.89 0c-122.21,0 -221.18,98.98 -221.18,221.19 0,122.12 98.97,221.18 221.18,221.18l9695.97 0c122.21,0 221.18,-99.06 221.18,-221.18 0,-122.13 -98.97,-221.19 -221.18,-221.19z"/>
  <polygon class="fil5" points="2910.99,18940.71 2900.41,17935.29 3027.41,17067.46 3433.61,16196.64 4075.16,15702.21 4890.08,15395.29 6350.58,15384.71 6498.75,15892.7 6949.09,16411.55 5475.44,17509.15 6158.95,18150.22 7108.9,16595.67 7277.91,16850.64 6889.93,18848 7829.08,18833.9 7557.08,16670.59 8652.65,18269.13 9409.28,17522.52 7887.82,16547.93 8128.57,16167.88 8340.24,15130.71 8424.91,15437.63 9525.58,15416.46 10277,15543.46 11039.55,15886.34 11596.01,16572.18 11951.65,17696.14 11896.25,18930.13 "/>
  <path class="fil6" d="M13096.17 18724.49l360.78 0c120.94,0 220.25,99.14 220.25,220.34l0 0.08c0,121.19 -99.31,220.34 -220.25,220.34l-360.78 -0.01c-120.94,0 -220.34,-99.14 -220.34,-220.33l0 -0.09c0,-121.19 99.4,-220.33 220.34,-220.33l0 0zm-756.93 0.25l-221.1 0 0 -453.22c0,-1037.91 -276.81,-1838.94 -822.65,-2380.87 -684.16,-679.33 -1540.23,-692.31 -1602.06,-692.31l-1110.59 0.01 0 -670.51c0,-11.62 -1.18,-23.07 -2.97,-34.26 525.23,-217.03 907.13,-541.26 1180.9,-867.1 127.89,185.14 341.44,306.68 582.98,306.68 357.9,0 654.39,-266.81 701.55,-611.99 56.56,10.77 114.49,16.62 173.26,16.62 509.71,0 924.43,-414.72 924.43,-924.51 0,-207.45 -71.24,-403.79 -192.43,-561.96 329.74,-170.21 555.93,-514.11 555.93,-910.09 0,-317.45 -145.2,-601.56 -372.75,-789.5 296.92,-206.59 491.82,-550.16 491.82,-938.5 0,-625.56 -505.22,-1135.44 -1129.16,-1142.73l-41.22 -4.84c-233.23,-582.73 -531.93,-1181.4 -1067.59,-1682.63 -714.95,-668.89 -1711.21,-1008.05 -2961.05,-1008.05 -5.09,0 -10.09,0.43 -15.18,0.77 -5,-0.34 -10.01,-0.77 -15.18,-0.77 -1249.84,0 -2246.02,339.16 -2960.97,1007.97 -535.66,501.14 -834.36,1099.9 -1067.5,1682.63l-41.3 4.83c-623.95,7.3 -1129.16,517.09 -1129.16,1142.73 0,388.35 194.89,731.91 491.82,938.51 -227.55,187.85 -372.75,471.97 -372.75,789.49 0,395.98 226.19,739.89 555.93,910.1 -121.19,158.09 -192.43,354.51 -192.43,561.95 0,509.79 414.72,924.52 924.43,924.52 58.77,0 116.7,-5.86 173.26,-16.63 47.16,345.18 343.65,611.99 701.55,611.99 238.49,0 449.66,-118.65 578.15,-299.89 273.34,323.55 653.63,644.81 1175.21,860.31 -1.78,11.2 -2.97,22.65 -2.97,34.27l0 670.5 -1106.51 0c-37.74,0.59 -910.35,1.53 -1606.13,692.3 -545.83,541.94 -822.65,1343.06 -822.65,2380.96l0 453.22 -50.89 0c-122.21,0 -221.18,98.98 -221.18,221.19 0,122.12 98.97,221.18 221.18,221.18l9695.97 0c122.21,0 221.18,-99.06 221.18,-221.18 0,-122.13 -98.97,-221.19 -221.18,-221.19zm-4009.98 -5828.81c0,-122.13 -99.06,-221.19 -221.18,-221.19l-1403.86 0c-122.13,0 -221.18,99.06 -221.18,221.19 0,122.12 99.05,221.18 221.18,221.18l1403.86 0c122.12,0 221.18,-98.97 221.18,-221.18zm910.94 -2802.72c0,-145.79 -118.22,-264.01 -264.01,-264.01 -145.79,0 -264.02,118.22 -264.02,264.01 0,145.79 118.23,263.93 264.02,263.93 145.79,0 264.01,-118.14 264.01,-263.93zm-3140.17 0c0,-145.79 -118.22,-264.01 -264.01,-264.01 -145.79,0 -263.93,118.22 -263.93,264.01 0,145.79 118.14,263.93 263.93,263.93 145.79,0 264.01,-118.14 264.01,-263.93zm3592.47 5547.5c5.59,-0.08 724.36,0.94 1291.31,563.82 459.16,455.86 691.97,1151.3 691.97,2066.99l0 453.22 -3506.39 0c-0.59,-15.77 -2.88,-31.72 -7.04,-47.66l-402.67 -1527.51 701.12 1203.28c34.52,59.28 94.65,99.14 162.67,107.96 9.5,1.28 18.99,1.87 28.41,1.87 58.34,0 114.74,-23.07 156.47,-64.8l747.09 -747.17c48.6,-48.51 71.84,-116.78 63.02,-184.89 -8.82,-68.01 -48.69,-128.14 -107.97,-162.66l-1502.41 -875.41c282.59,-169.03 488.51,-453.14 552.97,-787.12l1131.45 0 0 0.08zm-2286.56 78.28c276.9,0 531.59,-96.34 732.75,-256.97 -23.15,384.1 -342.88,689.59 -732.75,689.59 -389.79,0 -709.52,-305.49 -732.68,-689.59 201.17,160.63 455.86,256.97 732.68,256.97zm-727.42 -1078.44c209.65,53.26 437.45,90.41 685.44,106.52 4.83,0.26 9.49,0.43 14.33,0.43l55.63 0c4.75,0 9.5,-0.09 14.34,-0.43 247.9,-16.03 475.53,-53.26 685.09,-106.43 -48.08,358.57 -355.86,635.99 -727.41,635.99 -371.56,0 -679.25,-277.5 -727.42,-636.08zm741.58 2956.73l297.34 1127.46 -594.6 0 297.26 -1127.46zm801.88 -532.78l817.65 476.38 -341.19 341.27 -476.46 -817.65 0 0zm-3743 -3573.8c-146.56,0 -265.88,-119.24 -265.88,-265.88 0,-68.61 26.12,-133.74 73.36,-183.36 11.28,-11.79 20.78,-24.51 28.92,-37.83 1.53,-1.78 3.14,-3.56 4.67,-5.34 77.34,-94.56 63.35,-233.9 -31.13,-311.34 -94.56,-77.26 -233.9,-63.35 -311.25,31.21 -92.1,112.55 -228.22,177.17 -373.5,177.17 -265.8,0 -482.06,-216.26 -482.06,-482.14 0,-211.69 141.46,-401.75 344.07,-462.13 117.04,-34.86 183.7,-158.08 148.75,-275.12 -33.32,-111.87 -147.05,-177.43 -259.26,-152.75 -5.26,-0.34 -10.43,-0.76 -15.69,-0.76 -320.5,0 -581.29,-260.79 -581.29,-581.37 0,-320.59 260.79,-581.29 581.29,-581.29 122.21,0 221.18,-99.06 221.18,-221.27 0,-0.59 -0.08,-1.18 -0.08,-1.86 0,-0.6 0.08,-1.28 0.08,-1.87 0,-122.13 -98.97,-221.18 -221.18,-221.18 -386.22,0 -700.44,-314.22 -700.44,-700.45 0,-386.22 314.22,-700.44 700.44,-700.44 8.65,0 17.3,-0.51 25.87,-1.53l184.97 -21.71c81.33,-9.58 150.79,-63.35 180.39,-139.76 221.77,-572.3 497.15,-1167.5 1006.18,-1643.7 639.21,-598 1508.94,-888.64 2658.79,-888.64 5.18,0 10.18,-0.43 15.18,-0.77 5.09,0.34 10.09,0.77 15.27,0.77 1149.85,0 2019.58,290.64 2658.7,888.64 509.03,476.2 784.5,1071.4 1006.19,1643.7 29.6,76.41 99.06,130.18 180.39,139.76l184.97 21.71c8.57,1.02 17.22,1.53 25.87,1.53 386.22,0 700.44,314.22 700.44,700.44 0,386.23 -314.22,700.45 -700.44,700.45 -122.22,0 -221.19,99.05 -221.19,221.18 0,0.68 0.08,1.27 0.08,1.87 0,0.68 -0.08,1.27 -0.08,1.86 0,122.21 98.97,221.27 221.19,221.27 320.49,0 581.37,260.71 581.37,581.29 0,320.58 -260.88,581.37 -581.37,581.37 -5.35,0 -10.44,0.42 -15.69,0.76 -112.29,-24.68 -225.94,40.88 -259.27,152.75 -34.94,117.04 31.72,240.18 148.76,275.12 202.61,60.38 344.07,250.44 344.07,462.13 0,265.79 -216.27,482.14 -482.06,482.14 -145.28,0 -281.4,-64.62 -373.42,-177.17 -77.43,-94.56 -216.77,-108.47 -311.33,-31.21 -94.48,77.44 -108.48,216.78 -31.13,311.34 1.53,1.78 3.14,3.56 4.66,5.34 8.15,13.32 17.73,26.04 28.92,37.83 47.24,49.62 73.37,114.75 73.37,183.36 0,146.64 -119.25,265.88 -265.88,265.88 -146.64,0 -265.88,-119.24 -265.88,-265.88 0,-11.87 0.76,-23.83 2.29,-35.45 0.76,-5.6 1.02,-11.11 1.36,-16.71 365.61,-617.92 451.19,-1183.77 454.83,-1208.96 1.53,-10.52 2.29,-21.12 2.29,-31.72l0 -2378.92c4.58,-64.03 -18.57,-129.59 -68.95,-177l-465.1 -437.7 0 -514.37c0,-66.32 -29.76,-129.17 -81.07,-171.24 -57.76,-47.24 -618.95,-461.7 -2514.45,-461.7 -1895.41,0 -2456.69,414.46 -2514.36,461.7 -51.39,41.99 -81.16,104.92 -81.16,171.24l0 513.69 -469.59 437.62c-0.85,0.85 -1.62,1.69 -2.46,2.54 -2.97,2.89 -5.77,5.85 -8.65,8.91 -2.21,2.37 -4.5,4.83 -6.62,7.29 -2.45,2.88 -4.66,5.85 -7.04,8.82 -2.12,2.88 -4.32,5.68 -6.36,8.57 -1.95,2.88 -3.81,5.85 -5.59,8.82 -1.95,3.14 -3.99,6.28 -5.77,9.5 -1.7,3.05 -3.22,6.19 -4.84,9.41 -1.52,3.22 -3.22,6.45 -4.58,9.67 -1.52,3.39 -2.8,6.95 -4.07,10.43 -1.27,3.22 -2.46,6.36 -3.56,9.58 -1.19,3.65 -2.12,7.38 -3.14,11.11 -0.76,3.22 -1.78,6.36 -2.46,9.58 -0.76,3.74 -1.35,7.38 -1.95,11.11 -0.59,3.48 -1.18,6.96 -1.61,10.52 -0.42,3.48 -0.68,6.87 -0.85,10.43 -0.25,3.9 -0.59,7.8 -0.59,11.71 -0.09,1.27 -0.26,2.54 -0.26,3.81l0 2394.86c0,10.6 0.77,21.21 2.29,31.72 3.65,25.53 91.17,603.43 466.97,1229.15 1.27,10.52 2.03,21.29 2.03,31.97 0,146.64 -119.24,265.88 -265.88,265.88l0.01 0.01zm3531.82 -4178.16c-69.97,20.53 -125.44,74.21 -148.08,143.59 -4.58,14.16 -59.45,186.24 -76.07,413.02 -309.73,-69.46 -579.25,-45.54 -772.79,-3.31 -16.87,-225.08 -71.15,-395.64 -75.82,-409.72 -22.64,-69.37 -78.02,-123.06 -148.08,-143.58 -370.62,-108.47 -751.92,-163.51 -1133.31,-163.51 -164.45,0 -315.84,10.34 -451.87,26.12 32.82,-39.44 51.23,-89.31 51.23,-141.21l0 -483.5c201.42,-96.77 808.15,-317.02 2153.23,-317.02 1344.49,0 1948.77,218.72 2153.16,317.53l0 482.99c0,52.84 18.99,103.64 52.92,143.5 -140.87,-17.14 -298.87,-28.41 -471.21,-28.41 -381.39,0 -762.69,55.04 -1133.31,163.51l0 0zm-2354.15 278.86c298.44,0 596.97,37.91 889.31,112.88 38.59,185.22 64.71,490.37 -66.83,681.19 -89.13,129.08 -244.76,197.86 -475.87,210.08 -174.62,9.15 -300.48,13.31 -408.1,13.31 -566.45,0 -769.23,-43.09 -820.96,-900.68 169.79,-48.6 480.11,-116.78 882.45,-116.78zm2598.15 112.88c292.34,-74.97 590.87,-112.88 889.32,-112.88 399.02,0 711.38,68.69 882.36,117.21 -51.74,857.17 -254.6,900.25 -820.88,900.25 -107.71,0 -233.56,-4.15 -408.19,-13.31 -231.1,-12.3 -386.73,-81 -475.78,-210.16 -131.63,-190.82 -105.42,-496.22 -66.83,-681.11l0 0zm-3072.66 3357.2c-346.11,-531.17 -450.26,-1056.99 -466.2,-1147.65l0 -1090.48c196.08,163.42 479.01,227.88 879.22,227.88 115.77,0 248.83,-4.33 431.43,-13.91 373.16,-19.76 648.37,-155.2 817.99,-402.59 64.62,-94.22 107.03,-197.18 134.08,-301.75 106.86,-36.73 312.7,-87.7 573.06,-56.23l0 840.63c0,48.86 -39.69,88.55 -88.54,88.55l-114.06 -0.01c-48.77,0 -88.46,-39.69 -88.46,-88.54 0,-122.13 -98.98,-221.18 -221.19,-221.18 -122.21,0 -221.18,99.05 -221.18,221.18 0,292.76 238.15,530.91 530.83,530.91l114.06 0c285.05,0 517.77,-226.02 529.72,-508.18 0.77,-7.47 1.19,-15.01 1.19,-22.73l0 -431.77c171.4,214.99 433.46,333.39 780.08,351.71 182.6,9.67 315.67,13.9 431.43,13.9 0.09,0 0,0 0,0 407.85,0 694.26,-66.66 890.76,-237.21l0 1099.81c-16.2,91.68 -120.43,616.99 -466.2,1147.74 -495.8,760.82 -1237.12,1179.19 -2203.53,1243.65l-41.13 0c-966.33,-64.45 -1707.65,-482.9 -2203.37,-1243.73l0.01 0zm-2045.62 5210.04c0,-2600.45 1902.97,-2630.81 1984.81,-2630.81l1129.58 0c65.14,337.29 274.7,623.61 561.53,791.96l-1493.93 870.57c-59.28,34.52 -99.14,94.65 -107.96,162.67 -8.82,68.01 14.42,136.29 63.01,184.8l747.17 747.17c41.73,41.73 98.05,64.8 156.39,64.8 9.42,0 18.92,-0.6 28.41,-1.87 68.02,-8.74 128.15,-48.68 162.67,-107.96l721.9 -1238.82 -412.09 1563.04c-4.24,15.95 -6.45,31.89 -7.04,47.67l-3534.45 0 0 -453.22zm3470.42 -1207.02l-476.46 817.66 -341.19 -341.28 817.65 -476.37 0 -0.01z"/>
  <path class="fil3" d="M13123.57 6139.89l6803.02 0c1317.27,0 2393.59,1076.32 2393.59,2393.59l0 1736.99c0,1317.27 -1076.32,2393.59 -2393.59,2393.59l-5048.82 0 -2082.67 1457.63c-193.63,94.22 -426.94,13.74 -521.25,-179.88 -66.49,-138.58 -2.63,-284.97 316.94,-1331.6l-242.64 -75.65c-961.83,-331.53 -1618.18,-1241.45 -1618.18,-2264.09l0 -1736.99c0,-1317.27 1076.33,-2393.59 2393.59,-2393.59l0.01 0z"/>
  <path class="fil4" d="M13323.88 6369.72l6803.11 0c1101.85,0 2003.47,901.87 2003.47,2003.47l0 1736.99c0,1101.68 -901.87,2003.46 -2003.47,2003.46l-5138.37 0 -2163.84 1497.24 499.1 -1497.24c-1101.93,0 -2003.46,-901.53 -2003.46,-2003.46l0 -1736.99c0,-1101.85 901.53,-2003.47 2003.46,-2003.47z"/>
  <path class="fil5" d="M13323.88 5979.6l6803.11 0c658.64,0 1257.14,269.18 1690.77,702.82 433.64,433.63 702.82,1032.13 702.82,1690.77l0 1736.99c0,658.63 -269.18,1257.14 -702.82,1690.77 -433.63,433.63 -1032.13,702.82 -1690.77,702.82l-5048.81 0 -2082.77 1457.62c-193.53,94.23 -426.93,13.74 -521.15,-179.88 -66.58,-138.58 -2.63,-284.96 316.85,-1331.51l-242.56 -75.74c-348.06,-119.92 -660.25,-318.12 -915.44,-573.31 -433.63,-433.63 -702.82,-1032.14 -702.82,-1690.77l0.01 -1736.99c0,-658.64 269.18,-1257.14 702.82,-1690.77 433.63,-433.64 1032.13,-702.82 1690.76,-702.82zm0 390.12l6803.11 0c1101.85,0 2003.47,901.62 2003.47,2003.47l0 1736.99c0,1101.93 -901.62,2003.46 -2003.47,2003.46l-5138.37 0 -2163.84 1497.24 499.1 -1497.24c-1101.93,0 -2003.46,-901.53 -2003.46,-2003.46l0 -1736.99c0,-1101.85 901.53,-2003.47 2003.46,-2003.47z"/>
  <path class="fil7" d="M13529.04 8518.89l-356.97 226.19c-30.61,18.83 -60.64,35.28 -90.06,49.44 -29.52,14.17 -60.73,21.21 -93.72,21.21 -40.03,0 -78.87,-13.57 -116.61,-40.62 -37.66,-27.14 -56.48,-67.77 -56.48,-121.96 0,-73.02 28.24,-126.03 84.81,-159.02l699.68 -427.61c18.83,-11.79 37.14,-20.01 54.78,-24.68 17.64,-4.75 35.88,-7.12 54.79,-7.12 58.86,0 108.3,18.91 148.42,56.57 40.03,37.65 60.04,83.62 60.04,137.81l0 2176.9c0,47.07 -18.83,89.48 -56.57,127.22 -37.65,37.66 -83.62,56.48 -137.81,56.48 -54.2,0 -100.08,-18.83 -137.82,-56.48 -37.66,-37.74 -56.48,-80.15 -56.48,-127.22l0 -1887.1 0 -0.01zm1816.37 -173.18c-136.63,0 -233.82,41.81 -291.57,125.43 -57.67,83.71 -86.51,192.6 -86.51,326.94l0 1038.92c0,122.55 31.8,220.85 95.41,295.06 63.61,74.21 157.83,111.35 282.67,111.35 122.55,0 216.18,-37.14 280.98,-111.35 64.79,-74.21 97.19,-172.51 97.19,-295.06l0 -1038.92c0,-134.34 -29.52,-243.23 -88.37,-326.94 -58.95,-83.62 -155.46,-125.43 -289.8,-125.43l0 0zm0 -346.28c131.97,0 246.21,21.8 342.8,65.3 96.6,43.59 176.07,102.54 238.49,176.75 62.51,74.2 108.39,161.98 137.9,263.24 29.43,101.35 44.1,208.55 44.1,321.6l0 1010.68c0,106.02 -16.45,204.99 -49.45,296.84 -32.99,91.93 -81.84,171.99 -146.63,240.35 -64.8,68.27 -144.94,121.87 -240.35,160.8 -95.41,38.84 -204.31,58.26 -326.86,58.26 -124.84,0 -234.41,-19.42 -328.64,-58.26 -94.22,-38.93 -173.77,-92.53 -238.57,-160.8 -64.79,-68.36 -113.64,-148.42 -146.64,-240.35 -32.99,-91.85 -49.44,-190.83 -49.44,-296.84l0 -1010.68c0,-113.05 14.67,-220.25 44.19,-321.6 29.43,-101.26 75.39,-189.04 137.81,-263.24 62.42,-74.21 141.3,-133.16 236.71,-176.75 95.41,-43.5 210.32,-65.3 344.58,-65.3l0 0zm1837.66 346.28c-136.71,0 -233.82,41.81 -291.57,125.43 -57.76,83.71 -86.59,192.6 -86.59,326.94l0 1038.92c0,122.55 31.8,220.85 95.41,295.06 63.61,74.21 157.83,111.35 282.75,111.35 122.47,0 216.1,-37.14 280.9,-111.35 64.79,-74.21 97.19,-172.51 97.19,-295.06l0 -1038.92c0,-134.34 -29.43,-243.23 -88.38,-326.94 -58.85,-83.62 -155.45,-125.43 -289.71,-125.43zm0 -346.28c131.88,0 246.12,21.8 342.72,65.3 96.6,43.59 176.15,102.54 238.57,176.75 62.42,74.2 108.39,161.98 137.82,263.24 29.43,101.35 44.18,208.55 44.18,321.6l0 1010.68c0,106.02 -16.53,204.99 -49.44,296.84 -32.99,91.93 -81.93,171.99 -146.72,240.35 -64.8,68.27 -144.86,121.87 -240.27,160.8 -95.41,38.84 -204.39,58.26 -326.86,58.26 -124.92,0 -234.41,-19.42 -328.72,-58.26 -94.22,-38.93 -173.69,-92.53 -238.48,-160.8 -64.8,-68.36 -113.65,-148.42 -146.64,-240.35 -32.99,-91.85 -49.53,-190.83 -49.53,-296.84l0 -1010.68c0,-113.05 14.76,-220.25 44.19,-321.6 29.43,-101.26 75.4,-189.04 137.81,-263.24 62.42,-74.21 141.38,-133.16 236.79,-176.75 95.42,-43.5 210.25,-65.3 344.59,-65.3l-0.01 0zm2798.82 2593.83c-87.19,0 -164.37,-15.27 -231.45,-45.97 -67.17,-30.62 -123.14,-72.43 -167.92,-125.44 -44.7,-53 -78.28,-115.42 -100.67,-187.26 -22.39,-71.83 -33.59,-150.2 -33.59,-235 0,-82.44 11.79,-159.62 35.37,-231.45 23.49,-71.92 57.67,-134.34 102.45,-187.35 44.78,-53 100.16,-94.81 166.06,-125.43 65.98,-30.62 142.56,-45.97 229.75,-45.97 84.81,0 160.8,15.35 227.88,45.97 67.17,30.62 123.14,72.43 167.92,125.43 44.78,53.01 78.88,115.43 102.46,187.35 23.57,71.83 35.36,149.01 35.36,231.45 0,84.8 -11.79,163.17 -35.36,235 -23.58,71.84 -57.68,134.26 -102.46,187.26 -44.78,53.01 -100.16,94.82 -166.14,125.44 -65.98,30.7 -142.48,45.97 -229.67,45.97l0.01 0zm-1039.01 -116.62c-21.2,40.03 -51.82,67.17 -91.85,81.25 -40.03,14.16 -82.43,15.35 -127.21,3.56 -44.79,-16.45 -77.18,-45.37 -97.2,-86.59 -20.01,-41.22 -24.17,-84.22 -12.38,-129l14.17 -35.28 1190.9 -2194.54c23.57,-37.74 54.78,-63.01 93.63,-75.99 38.92,-12.97 79.55,-13.57 121.95,-1.78 42.41,11.79 75.4,36.55 98.98,74.21 23.49,37.74 29.43,77.77 17.64,120.17 -2.38,7.04 -4.75,15.27 -7.04,24.68 -2.38,9.41 -5.94,16.54 -10.61,21.2l-1190.98 2198.1 0 0.01zm1039.01 -190.82c68.27,0 119.58,-25.36 153.67,-75.99 34.18,-50.63 51.31,-123.06 51.31,-217.28 0,-87.19 -17.13,-154.95 -51.31,-203.21 -34.09,-48.34 -85.4,-72.51 -153.67,-72.51 -70.74,0 -122.55,24.17 -155.55,72.51 -32.9,48.26 -49.44,116.02 -49.44,203.21 0,94.22 16.54,166.65 49.44,217.28 33,50.63 84.81,75.99 155.55,75.99zm-1205.07 -1378.24c68.36,0 119.58,-25.28 153.76,-76 34.1,-50.63 51.23,-123.05 51.23,-217.28 0,-87.18 -17.14,-154.95 -51.23,-203.2 -34.18,-48.26 -85.4,-72.43 -153.76,-72.43 -70.64,0 -122.46,24.17 -155.45,72.43 -33,48.25 -49.53,116.02 -49.53,203.2 0,94.23 16.54,166.65 49.53,217.28 32.99,50.72 84.81,76 155.45,76zm0 307.43c-87.18,0 -163.77,-15.27 -229.66,-45.88 -65.99,-30.62 -121.37,-72.43 -166.15,-125.44 -44.78,-53 -78.87,-115.51 -102.45,-187.34 -23.58,-71.84 -35.36,-150.2 -35.36,-235.01 0,-82.43 11.19,-159.61 33.58,-231.45 22.39,-71.83 55.98,-134.25 100.75,-187.34 44.7,-52.92 100.67,-94.82 167.84,-125.44 67.09,-30.61 144.26,-45.88 231.45,-45.88 87.18,0 163.77,15.27 229.67,45.88 65.98,30.62 121.36,72.52 166.14,125.44 44.78,53.09 78.87,115.51 102.45,187.34 23.58,71.84 35.37,149.02 35.37,231.45 0,84.81 -11.79,163.18 -35.37,235.01 -23.57,71.83 -57.67,134.34 -102.45,187.34 -44.78,53.01 -100.16,94.82 -166.14,125.44 -65.9,30.61 -142.49,45.88 -229.67,45.88l0 0z"/>
  <path class="fil8" d="M13882.3 15474.73c438.21,0 793.4,355.27 793.4,793.48 0,438.21 -355.19,793.4 -793.4,793.4 -438.21,0 -793.48,-355.19 -793.48,-793.4 0,-438.21 355.27,-793.48 793.48,-793.48zm351.19 442.29c-89.89,-89.82 -214.05,-145.45 -351.19,-145.45 -137.14,0 -261.3,55.63 -351.2,145.45 -89.81,89.81 -145.36,213.97 -145.36,351.19 0,137.14 55.55,261.3 145.36,351.12 89.9,89.89 214.06,145.45 351.2,145.45 137.14,0 261.3,-55.55 351.19,-145.45 89.82,-89.82 145.37,-213.98 145.37,-351.12 0,-137.22 -55.55,-261.38 -145.37,-351.19zm5814.8 -2915.33l0.09 0c100.33,0 182.51,82.09 182.51,182.51l0 365.19c0,100.33 -82.18,182.51 -182.51,182.51l-0.09 0c-100.42,0 -182.51,-82.18 -182.51,-182.51l0 -365.19c0,-100.42 82.1,-182.51 182.51,-182.51l0 0zm183.02 913.23l0 -0.08c0,-100.42 82.1,-182.51 182.51,-182.51l365.11 -0.01c100.41,0 182.6,82.1 182.6,182.51l0 0.09c0,100.33 -82.19,182.51 -182.6,182.51l-365.11 0c-100.41,0 -182.51,-82.18 -182.51,-182.51zm-1096.17 0l0 -0.08c0,-100.42 82.1,-182.51 182.51,-182.51l365.2 -0.01c100.33,0 182.51,82.1 182.51,182.51l0 0.09c0,100.33 -82.18,182.51 -182.51,182.51l-365.2 0c-100.41,0 -182.51,-82.18 -182.51,-182.51zm913.15 182.93l0.09 0c100.33,0 182.51,82.1 182.51,182.51l0 365.11c0,100.42 -82.18,182.6 -182.51,182.6l-0.09 0c-100.42,0 -182.51,-82.19 -182.51,-182.6l0 -365.11c0,-100.42 82.1,-182.51 182.51,-182.51l0 0z"/>
  <path class="fil2" d="M23429.92 17546.99c165.97,0 300.48,134.59 300.48,300.56 0,165.97 -134.51,300.48 -300.48,300.48 -165.98,0 -300.57,-134.5 -300.57,-300.48 0,-165.97 134.59,-300.56 300.57,-300.56z"/>
  <path class="fil1" d="M27458.47 15469.15c210.84,0 381.64,170.8 381.64,381.64 0,210.75 -170.8,381.64 -381.64,381.64 -210.75,0 -381.64,-170.89 -381.64,-381.64 0,-210.84 170.89,-381.64 381.64,-381.64z"/>
  <path class="fil2" d="M23429.92 17546.99c165.97,0 300.48,134.59 300.48,300.56 0,165.97 -134.51,300.48 -300.48,300.48 -165.98,0 -300.57,-134.5 -300.57,-300.48 0,-165.97 134.59,-300.56 300.57,-300.56z"/>
  <path class="fil1" d="M27458.47 15469.15c210.84,0 381.64,170.8 381.64,381.64 0,210.75 -170.8,381.64 -381.64,381.64 -210.75,0 -381.64,-170.89 -381.64,-381.64 0,-210.84 170.89,-381.64 381.64,-381.64z"/>
  <path class="fil3" d="M23587.75 7232.32l835.12 -835.12c29.94,-28.92 68.87,-43.25 107.62,-42.91 38.67,0.34 77.35,15.35 106.86,44.78l0.09 0.08c29.51,29.51 44.44,68.19 44.78,106.86 0.34,38.76 -13.91,77.69 -42.92,107.62l-835.04 835.21c-19.25,19.68 -43,33.5 -68.44,40.62 -25.61,7.13 -53.26,7.64 -79.97,0.6 -26.97,-7.04 -50.8,-20.95 -69.63,-39.78 -18.83,-18.91 -32.74,-42.83 -39.78,-69.63 -7.04,-26.71 -6.53,-54.28 0.68,-79.97 7.12,-25.45 20.95,-49.19 40.62,-68.36l0.01 0zm2024.32 -5014.72l1779.65 1779.73c437.37,12.22 830.8,196.17 1115.93,486.48 288.1,293.44 465.78,695.52 466.37,1138.48l2.38 1749.38c0,3.47 -0.08,6.87 -0.17,10.34l0 1.78 -0.34 8.48 -0.08 2.46 -0.51 8.31 -0.17 2.38c-0.17,3.05 -0.43,6.02 -0.68,8.99l-0.26 2.03c-0.17,2.63 -0.51,5.26 -0.76,7.89l-0.42 3.65 -0.85 6.53 -0.6 4.66 -0.85 5.77 -0.85 5.17 -0.25 1.28 -0.76 4.58 -0.08 0.25 -0.6 3.22 -1.27 6.62 -0.68 3.31 -1.53 7.12 -0.93 4.15 -1.53 6.11 -0.84 3.56 -2.04 7.55 -0.59 2.38 -2.55 8.65 -0.08 0.25c-0.94,3.22 -1.95,6.36 -2.97,9.5l-0.08 0.42 -0.09 0.17c-15.01,46.48 -36.98,90.07 -64.79,129.5 -41.39,58.52 -95.84,107.88 -160.12,143.5l-1.36 0.77 -6.02 3.22c-35.96,19.25 -74.72,34.09 -115.6,44.01l-1.27 0.26 -6.19 1.44 -1.27 0.34 -7.55 1.61 -0.51 0.09 -0.68 0.17c-3.39,0.68 -6.7,1.27 -10.09,1.95 -26.89,4.83 -54.28,7.38 -81.76,7.46l-0.25 0.01c-37.83,-0.17 -75.15,-4.84 -111.02,-13.91 -35.96,-9.08 -71.07,-22.65 -104.4,-40.46l-2.29 -1.35c-7.8,-5.01 -15.52,-10.1 -23.15,-15.27 -110.85,-67 -202.61,-174.2 -267.49,-289.8 -34.43,-60.3 -61.83,-124.84 -81.33,-192.35l-13.83 7.55 -4.41 2.21 -0.93 0.42 -0.85 0.51 -0.26 0.08 -0.68 0.34 -0.84 0.42 -0.94 0.43 -0.85 0.42 -0.93 0.51 -0.85 0.42 -0.93 0.43 -0.51 0.25 -0.34 0.17 -0.94 0.42 -0.93 0.43 -0.85 0.42 -0.93 0.42c-22.9,10.78 -46.48,19.76 -70.39,26.72 -52.75,15.77 -107.46,21.8 -161.48,18.06 -8.06,-0.51 -16.12,-1.27 -24.09,-2.29l-0.16 0.01 -5.43 -0.68 -3.31 -0.51 -0.08 0.01 -2.97 -0.43c-37.74,-5.51 -74.97,-15.94 -110.93,-31.2l-2.8 -1.19 -2.8 -1.27 -2.46 -1.02 -0.34 -0.17 -2.79 -1.27 -2.8 -1.28 -2.8 -1.35 -2.63 -1.19 -0.17 -0.08 -2.72 -1.36 -2.79 -1.35 -0.77 -0.43 -1.95 -0.93 -2.8 -1.44 -0.42 -0.17 -2.29 -1.19 -5.43 -2.97 -2.11 -1.27c-96.6,-61.49 -179.29,-140.53 -244.26,-231.96 -56.65,-79.72 -99.99,-168.77 -127.64,-263.92l-11.78 6.27c-18.24,9.33 -36.9,17.56 -55.72,24.34 -3.31,1.28 -6.7,2.46 -10.01,3.65l-4.5 1.61 -2.88 0.94c-99.91,33.75 -193.02,31.12 -278.09,3.05 -27.73,-8.65 -54.87,-19.93 -81,-33.93l-2.28 -1.27c-7.12,-4.58 -14.49,-9.5 -21.53,-14.25 -83.2,-51.22 -156.31,-126.11 -217.79,-211.09l-5.18 -7.12c-65.13,-91.68 -112.71,-195.66 -139.09,-306.84 -30.87,-116.62 -44.18,-238.83 -46.81,-357.65l-0.09 -2.54 0 -2.55 -0.08 -1.52 0 -3.48 -0.08 -2.55 0 -2.46 -0.09 -2.54c-64.11,28.92 -133.74,39.43 -201.51,32.31 -86.76,-9.08 -170.46,-47.07 -235.77,-112.29 -0.17,0 -1980.39,-1980.48 -1980.39,-1980.73 -65.22,-65.31 -103.13,-149.02 -112.29,-235.77 -7.12,-67.77 3.39,-137.31 32.31,-201.51l-7.54 -0.09 -2.4 0.08 -1.02 -0.08 -1.53 0 -2.46 -0.08 -2.54 -0.09c-118.57,-2.54 -240.35,-15.86 -356.71,-46.56 -107.63,-25.52 -208.47,-70.9 -298.03,-132.89l-0.59 -0.34 -8.57 -6.11c-3.13,-2.21 -6.27,-4.41 -9.32,-6.7 -79.13,-57.59 -148.68,-125.35 -198.63,-201.25 -8.48,-11.88 -16.7,-24.09 -24.59,-36.47l-1.36 -2.21c-17.05,-32.06 -30.19,-65.73 -39.1,-100.16 -28.32,-98.63 -22.39,-206.76 33.42,-321.17l0.42 -0.85c1.61,-3.39 3.31,-6.87 5.09,-10.18l6.11 -11.62 -8.91 -2.71 -0.68 -0.17 -0.08 0 -8.06 -2.55 -1.44 -0.42 -0.76 -0.25 -6.61 -2.12 -2.12 -0.68 -0.43 -0.09 -7.97 -2.71 -1.02 -0.34 -1.69 -0.59 -7.72 -2.63 -0.93 -0.34 -8.06 -2.97 -0.34 -0.09 -0.34 -0.08 -4.32 -1.61 -4.33 -1.61 -0.34 -0.17 -3.98 -1.53 -4.24 -1.61 -1.02 -0.43 -3.31 -1.27 -4.32 -1.78 -1.62 -0.59 -2.63 -1.11 -4.24 -1.78 -2.29 -0.93 -1.94 -0.85 -4.25 -1.78 -2.96 -1.28 -1.28 -0.51 -4.24 -1.86 -1.19 -0.51 -2.96 -1.36 -4.25 -1.86 -4.15 -1.95 -4.16 -1.87 -4.15 -1.95 -0.68 -0.34 -3.48 -1.61 -0.93 -0.51 -7.12 -3.39 -0.26 -0.17 -4.07 -2.04 -0.25 -0.08 -3.9 -1.95 -4.08 -2.04 -2.54 -1.27 -1.53 -0.85 -4.07 -2.12 -0.85 -0.42 -3.22 -1.7 -4.07 -2.2 -1.27 -0.68 -2.72 -1.45 -4.07 -2.2 -0.93 -0.59 -5.6 -3.06 -1.44 -0.85 -3.99 -2.28 -0.93 -0.43 -3.05 -1.86 -3.99 -2.29 -1.44 -0.85 -2.55 -1.44 -3.9 -2.38 -0.17 -0.08 -3.65 -2.21 -0.08 -0.08 -3.9 -2.38 -2.63 -1.61 -1.27 -0.76 -3.91 -2.46 -3.22 -1.95 -0.68 -0.51 -6.19 -3.99 -1.35 -0.85 -0.17 -0.08 -3.82 -2.55 -3.81 -2.45 -0.51 -0.34 -3.31 -2.21 -3.82 -2.63 -2.54 -1.69c-4.16,-2.89 -8.31,-5.77 -12.47,-8.74 -67.47,-47.85 -128.1,-105.48 -179.4,-170.28l-0.77 -0.85 -5.85 -7.55 -0.25 -0.34 -6.02 -7.89 -0.17 -0.17 -5.77 -7.8 -0.59 -0.76c-3.57,-4.84 -7.04,-9.76 -10.52,-14.68l-0.51 -0.68 -1.35 -2.03 -3.06 -4.41 -1.27 -1.79 -0.42 -0.59 -4.33 -6.45 -0.85 -1.18 -0.68 -1.1c-3.48,-5.18 -6.87,-10.44 -10.26,-15.69l-1.27 -2.12 -2.88 -5.43 -0.51 -1.02 -0.17 -0.17 -2.21 -4.32 -0.93 -1.95 -0.43 -0.85 -1.35 -2.72 -0.51 -1.18 -2.12 -4.41 -1.36 -2.8 -1.27 -2.72 -1.27 -2.88c-22.39,-49.95 -35.11,-102.54 -38.67,-155.46l0 -0.08 -0.17 -3.05 -0.17 -1.78 -0.09 -1.19 -0.08 -3.05 -0.08 -1.44 0 -0.26c-2.38,-52.41 4.32,-105.42 20.27,-156.56 6.61,-21.37 14.67,-42.48 24.34,-63.1l0.42 -0.93 0.42 -0.85 0.43 -0.93 0.42 -0.85 0.42 -0.93 0.42 -0.85 0.43 -0.94 0.42 -0.85 0.42 -0.93 0.43 -0.85 0.42 -0.85 0.42 -0.93 0.51 -0.85 0.85 -1.78 0.43 -0.85 1.35 -2.63 0.43 -0.85 0.51 -0.93 7.21 -13.49c-76.59,-22.13 -149.36,-54.45 -216.52,-95.66 -107.88,-64.97 -207.02,-153.51 -269.36,-258.93 -3.81,-5.76 -7.63,-11.61 -11.36,-17.47l-1.36 -2.12c-31.3,-58.18 -49.19,-121.78 -53.52,-186.33 -0.25,-4.07 -0.42,-8.05 -0.59,-12.12l-0.08 -0.68 0 -0.77c-0.09,-3.31 -0.17,-6.7 -0.26,-10.09l0 -10.68c0.68,-94.82 30.2,-183.87 80.24,-258.68 33.41,-50.8 75.9,-94.39 124.83,-128.91 72.26,-50.88 158.77,-81.92 250.7,-87.01l0.46 0.01c4.07,-0.26 8.14,-0.43 12.21,-0.51l0.68 0c4.07,-0.17 8.22,-0.17 12.38,-0.17l1749.71 2.37c442.97,0.6 844.96,178.19 1138.41,466.37 290.3,285.14 474.25,678.57 486.47,1115.93l-0.01 0zm-3014.54 2847.39c-18.56,7.63 -38.42,11.7 -58.5,11.7 -30.8,0 -60.31,-9.33 -85.08,-25.86 -24.59,-16.54 -44.51,-40.2 -56.31,-68.78 -11.88,-28.67 -14.51,-59.29 -8.82,-88.21 5.77,-29.09 20.01,-56.57 41.89,-78.45 0,-27.81 757.19,-776.35 835.3,-835.2 29.94,-29.01 68.78,-43.26 107.54,-42.92 38.76,0.34 77.51,15.35 107.03,44.86 29.43,29.52 44.36,68.11 44.7,106.86 0.34,38.76 -13.91,77.6 -42.84,107.63l-835.11 835.21c-14.34,14.33 -31.3,25.53 -49.71,33.16l-0.09 0zm-58.5 1204.13c-39.2,0 -78.38,-15.01 -108.32,-44.87l0 -0.17c-29.85,-29.85 -44.86,-69.03 -44.86,-108.13 0,-39.18 15.01,-78.37 44.86,-108.3l835.3 -835.04c29.94,-28.92 68.78,-43.17 107.54,-42.92 38.76,0.34 77.43,15.27 106.86,44.7l0.17 0.17c29.43,29.43 44.36,68.1 44.7,106.86 0.34,38.76 -13.91,77.6 -42.84,107.62l-835.11 835.21c-29.94,29.85 -69.12,44.86 -108.3,44.86l0 0.01zm2135.41 -1096.08c29.85,29.85 44.87,69.03 44.87,108.21 0,39.1 -15.02,78.28 -44.87,108.22l-1311.67 1311.75c-19.24,19.59 -42.91,33.42 -68.44,40.62 -25.61,7.13 -53.26,7.64 -79.97,0.68 -26.97,-7.12 -50.89,-21.03 -69.71,-39.86 -18.75,-18.82 -32.66,-42.65 -39.69,-69.54 -7.04,-26.71 -6.53,-54.28 0.68,-79.97l0 -0.09c7.04,-25.53 20.85,-49.19 40.61,-68.35l1311.76 -1311.67c29.86,-29.94 69.04,-44.87 108.13,-44.87 39.18,0 78.36,14.93 108.3,44.87zm1192.34 1408.94l-834.61 834.7c-19.17,19.59 -42.83,33.42 -68.44,40.54 -25.7,7.21 -53.26,7.72 -80.06,0.68 -26.8,-6.96 -50.62,-20.95 -69.46,-39.78l-0.08 -0.08c-18.83,-18.83 -32.83,-42.66 -39.78,-69.54 -7.04,-26.72 -6.53,-54.28 0.68,-79.98 7.12,-25.53 20.95,-49.19 40.62,-68.36l835.13 -835.12c30.03,-28.92 68.86,-43.25 107.62,-42.91 38.84,0.34 77.51,15.35 107.03,44.78 29.44,29.59 44.36,68.27 44.7,106.94 0.34,38.76 -14,77.69 -42.92,107.63l-0.43 0.51 0 -0.01z"/>
  <path class="fil9" d="M25692.22 2037.3l1779.65 1779.73c437.36,12.21 830.8,196.17 1115.93,486.47 288.1,293.45 465.77,695.53 466.37,1138.49l2.37 1749.37c-0.51,234.5 -169.28,432.7 -398.86,474.43 -26.88,4.83 -54.28,7.38 -81.75,7.46l-0.34 0c-292.51,-1.27 -516.32,-299.12 -589.6,-553.13l-13.83 7.55c-137.22,71.07 -297.68,73.36 -434.56,-0.68l-2.12 -1.36c-96.6,-61.4 -179.29,-140.44 -244.26,-231.87 -56.65,-79.72 -99.99,-168.77 -127.63,-263.92l-11.79 6.27c-18.24,9.33 -36.9,17.56 -55.72,24.34 -260.37,98.38 -476.12,-51.48 -623.18,-258.41 -139.01,-195.58 -183.02,-446.27 -186.24,-682.05 -64.21,28.92 -133.75,39.44 -201.51,32.32 -86.77,-9.08 -170.47,-47.07 -235.77,-112.29 -0.17,0 -1980.4,-1980.48 -1980.4,-1980.74 -65.22,-65.3 -103.21,-149.01 -112.29,-235.77 -7.12,-67.76 3.39,-137.31 32.32,-201.51 -235.69,-3.14 -485.97,-47.24 -681.54,-186.24 -225,-159.87 -376.64,-401.23 -234.07,-679.07l6.19 -11.62c-204.99,-59.45 -381.22,-191.59 -495.8,-371.72l-1.27 -2.12c-73.87,-137.14 -71.84,-297.6 -0.51,-434.99l7.21 -13.49c-242.05,-69.8 -533.62,-282.33 -552.11,-560.5 -18.07,-274.2 206.51,-509.2 480.53,-509.63l1749.71 2.38c442.88,0.59 844.96,178.19 1138.41,466.37 290.3,285.13 474.25,678.56 486.47,1115.93l-0.01 0z"/>
  <path class="fil5" d="M23667.89 7052.02l835.12 -835.12c29.94,-28.92 68.87,-43.26 107.63,-42.92 38.67,0.34 77.34,15.35 106.86,44.78l0.08 0.09c29.51,29.51 44.44,68.18 44.78,106.86 0.34,38.75 -13.91,77.59 -42.91,107.62l-835.13 835.21c-19.16,19.67 -42.91,33.5 -68.35,40.62 -25.7,7.12 -53.26,7.63 -79.98,0.59 -26.97,-7.04 -50.88,-20.95 -69.63,-39.77 -18.83,-18.92 -32.82,-42.83 -39.77,-69.63 -7.04,-26.72 -6.53,-54.37 0.68,-79.98 7.12,-25.44 20.94,-49.19 40.62,-68.36l0 0.01zm2024.33 -5014.72l1779.65 1779.73c437.36,12.21 830.8,196.17 1115.93,486.47 288.1,293.45 465.77,695.53 466.37,1138.49l2.37 1749.37c-0.17,101.78 -32.31,197.95 -88.2,277.08 -56.06,79.21 -136.03,141.63 -231.78,175.81 -25.62,9.41 -51.99,16.62 -78.88,21.54 -26.88,4.83 -54.28,7.38 -81.75,7.46l-0.34 0c-37.83,-0.17 -75.06,-4.83 -110.93,-13.91 -36.05,-9.07 -71.08,-22.64 -104.41,-40.45l-2.29 -1.36c-96.59,-61.57 -179.28,-140.78 -244.25,-232.38 -56.82,-79.97 -100.16,-169.53 -127.72,-265.03l-13.83 7.55c-18.83,9.67 -38.25,18.15 -58.17,25.27 -61.58,22.98 -126.63,32.14 -190.66,27.82 -64.37,-4.41 -127.81,-22.39 -185.73,-53.77l-2.12 -1.36c-96.6,-61.4 -179.29,-140.44 -244.25,-231.87 -56.65,-79.72 -99.99,-168.77 -127.64,-263.92l-11.79 6.27c-18.23,9.33 -36.89,17.56 -55.72,24.34 -61.57,23.33 -126.7,32.65 -190.9,28.5 -64.12,-4.24 -127.47,-22.05 -185.57,-53.18l-2.29 -1.27c-96.59,-61.66 -179.37,-140.87 -244.42,-232.46 -65.22,-91.68 -112.88,-195.83 -139.26,-307.19l0.16 0c-17.13,-71.07 -29.59,-142.73 -37.4,-214.65 -5.76,-53.01 -8.98,-106.52 -9.75,-160.21 -64.2,28.92 -133.74,39.44 -201.51,32.32 -86.76,-9.08 -170.47,-47.07 -235.77,-112.29 -0.17,0 -1980.39,-1980.48 -1980.39,-1980.74 -65.22,-65.3 -103.22,-149.01 -112.29,-235.77 -7.12,-67.76 3.39,-137.31 32.31,-201.51 -53.51,-0.68 -106.86,-3.9 -159.7,-9.67 -71.83,-7.8 -143.58,-20.27 -214.56,-37.31l0 0.08c-111.28,-26.38 -215.51,-74.12 -307.27,-139.34 -91.51,-65.05 -170.81,-147.74 -232.47,-244.43l-1.35 -2.2c-31.04,-58.27 -48.85,-121.79 -53.01,-185.99 -4.07,-64.29 5.35,-129.5 28.67,-191.16 6.78,-18.74 14.84,-37.15 24.08,-55.3l6.19 -11.61c-95.07,-27.57 -184.12,-70.91 -263.76,-127.47 -91.51,-64.97 -170.55,-147.66 -232.03,-244.26l-1.28 -2.11c-31.29,-58.1 -49.36,-121.62 -53.68,-185.99 -4.41,-64.21 4.75,-129.42 27.82,-191.16 7.21,-19.93 15.69,-39.27 25.36,-57.85l7.21 -13.48c-95.59,-27.56 -185.14,-70.98 -265.2,-127.89 -91.43,-64.97 -170.56,-147.57 -232.04,-244.17l-1.36 -2.12c-31.3,-58.18 -49.19,-121.79 -53.52,-186.33 -4.24,-64.45 5.18,-129.84 28.5,-191.67 34.43,-95.15 96.69,-174.62 175.64,-230.26 78.96,-55.63 174.88,-87.52 276.4,-87.69l1749.71 2.37c442.88,0.6 844.96,178.19 1138.4,466.37 290.31,285.14 474.26,678.57 486.47,1115.93l0 0.01zm551.35 3329.55l1055.2 -1055.55 -1186.99 -132.22 131.79 1187.76 0 0.01zm-913.57 -1968.78l-132.05 -1187.68 -1055.63 1055.04 1187.68 132.64zm1885.74 595.87l-1700.35 -1700.44 169.19 1522c0.26,2.38 1.36,4.5 2.97,6.19 1.62,1.62 3.82,2.72 6.19,2.97l1522 169.28zm-4089.61 -1410.3c1.27,21.46 7.29,42.66 17.72,62 41.31,58.69 92.79,108.81 151.47,148.42 59.11,39.86 125.35,68.95 195.83,85.15 81.76,17.38 164.61,29.09 247.9,35.19 83.36,6.02 167.16,6.36 250.61,1.02l1.1 0c26.04,-0.94 48.6,-1.02 70.48,-1.11l977.43 -977.26c49.62,-47.58 109.83,-80.57 174.2,-97.45 48.26,-12.64 98.89,-16.11 149.27,-9.92 -58.61,-300.82 -217.11,-561.95 -437.62,-750.74 -232.04,-198.71 -532.61,-317.35 -857.34,-317.95l-1749.29 -2.37c-36.81,0.51 -71.67,12.3 -100.42,32.65 -28.58,20.27 -51.31,49.27 -64.11,83.96l-0.34 0.94c-8.48,20.94 -11.96,43.42 -10.61,65.55 1.36,21.63 7.47,42.92 18.07,62.34 41.22,58.69 92.53,108.64 151.05,148.08 59.11,39.69 125.43,68.53 196.08,84.56l0.42 -0.01c61.06,14.42 122.47,24.76 183.87,30.96 62.08,6.19 124.41,8.39 186.66,6.36l1.53 0c45.72,0.68 90.83,0 135.95,-0.68l35.2 -0.51c39.09,-0.6 78.19,-1.19 104.06,-1.19l746.33 0c32.74,0 63.69,10.52 89.22,28.83 25.36,18.24 45.2,44.28 55.72,75.31 8.06,23.5 10.26,48.35 6.87,72.26 -3.39,23.75 -12.38,46.9 -26.63,67.26 -14,20.35 -32.57,36.63 -53.77,48 -21.21,11.28 -45.12,17.64 -69.88,17.98l-0.43 0.17 -1095.49 0 0 -0.17c-36.3,0.59 -70.73,12.47 -99.14,32.74 -28.58,20.35 -50.97,49.1 -63.36,83.45l-0.42 1.1c-8.31,20.87 -11.7,43.26 -10.17,65.39 1.44,21.63 7.71,43 18.48,62.51 40.88,58.52 92.02,108.55 150.29,147.99 58.86,39.86 125.09,68.87 195.4,84.98l0.42 0.08c44.7,10.95 89.73,19.25 135.02,25.02 44.61,5.77 89.65,9.08 134.68,9.84 12.38,-1.35 22.98,-1.35 32.48,-1.35l601.22 0c42.32,0 80.56,17.13 108.3,44.86 27.65,27.65 44.86,65.98 44.86,108.22 0,42.32 -17.21,80.65 -44.86,108.3 -27.9,27.73 -66.15,44.95 -108.3,44.95 -46.56,0 -89.99,0.42 -140.62,0.93l-184.97 1.7c-62.84,0.51 -116.87,0.76 -149.26,0.76l0 -0.08c-48.43,0 -96.94,0.59 -145.37,-0.6l0 0.09 -7.63 0c-30.87,5.42 -59.2,18.83 -82.69,38.16 -24.26,19.93 -43.26,46.31 -54.45,76.84l-0.42 1.18c-8.48,20.95 -11.96,43.34 -10.61,65.31l0.01 0zm2238.64 1126.7l-1138.83 -127.13 1699.93 1700.69 -126.03 -1138.91 -139.34 -15.61c-73.87,-7.88 -140.02,-41.05 -189.72,-90.66 -49.7,-49.53 -82.78,-115.76 -90.66,-189.72l-15.35 -138.66zm3202.08 3656.41c22.05,1.44 44.35,-1.95 65.22,-10.43l13.57 -5.43c29.26,-13.23 53.85,-33.84 71.83,-59.03 20.53,-28.83 32.49,-63.69 33,-100.59l-2.38 -1749.2c-0.59,-324.23 -118.9,-624.28 -317.02,-856.16 -188.27,-220.25 -448.64,-378.76 -748.78,-437.87 6.27,50.55 2.54,101.35 -10.52,149.61 -17.38,64.45 -51.31,124.5 -100.08,173.43l-977.35 977.61c-0.42,20.52 -0.42,44.69 -0.42,68.95l-0.08 2.12c-5.43,83.53 -5.01,167.33 1.01,250.78 6.02,83.37 17.73,166.31 35.03,248.16 16.29,70.3 45.29,136.46 85.07,195.4 39.6,58.6 89.64,110 148.16,151.21 19.25,10.44 40.45,16.37 61.91,17.73 21.96,1.36 44.27,-2.12 65.05,-10.43l1.1 -0.43c30.7,-11.19 57.16,-30.27 77.26,-54.61 19.42,-23.58 32.82,-52.16 38.33,-83.2l0 -12.04 0.09 -0.01c-1.11,-35.96 -1.53,-85.91 -1.53,-142.56 0,-56.82 0.42,-120.26 0.93,-183.36l0.6 -46.82c0.25,-18.74 0.51,-37.48 0.51,-69.88l0.08 -0.51c1.19,-64.12 1.19,-131.2 1.19,-172.25 0,-42.15 17.21,-80.4 44.86,-108.13l0 -0.08c27.73,-27.74 66.07,-44.87 108.3,-44.87 42.16,0 80.49,17.13 108.22,44.87l0.09 0c27.73,27.64 44.86,65.98 44.86,108.21l0 601.39 -0.42 16.62 -0.85 16.03c0.93,44.87 4.41,89.82 10.26,134.51 5.85,45.2 14.42,90.32 25.36,135.02l0.17 0.51c16.2,70.3 45.21,136.46 85.06,195.32 39.44,58.34 89.56,109.48 148.34,150.53 19.33,10.61 40.45,16.71 61.82,18.15 21.97,1.53 44.36,-1.78 65.48,-10.09l0.93 -0.34c34.69,-12.47 63.69,-34.94 83.96,-63.44 20.44,-28.66 32.32,-63.27 32.74,-99.82l-0.09 0 0 -1094.81c0,-24.43 5.94,-48.26 16.88,-69.71 10.94,-21.29 26.8,-40.12 46.81,-54.45 20.02,-14.51 42.92,-23.67 66.41,-27.23 23.41,-3.56 47.84,-1.61 71.33,6.19l0 -0.17c31.46,10.43 58.09,30.2 77.09,55.72 18.91,25.44 30.19,56.57 31.13,89.73l0.17 0.93 -0.01 745.82c0,26.29 -0.59,66.24 -1.18,105.76l-0.26 15.86c-0.59,25.78 -1.01,51.31 -1.27,76.33 -0.17,25.27 -0.17,50.55 0.17,75.9l0 1.45c-2.12,62.67 -0.08,125.34 6.11,187.68 6.19,61.91 16.54,123.82 31.04,185.14l0 0.25c16.03,70.48 44.95,136.72 84.73,195.83 39.69,58.94 90.15,110.51 149.35,151.81 18.83,10.17 39.6,16.03 60.64,17.38l-0.01 0.01zm-5924.73 -2449.91c-18.49,7.64 -38.34,11.71 -58.44,11.71 -30.79,0 -60.3,-9.33 -85.06,-25.87 -24.6,-16.54 -44.53,-40.2 -56.32,-68.78 -11.87,-28.66 -14.5,-59.28 -8.82,-88.2 5.77,-29.09 20.02,-56.57 41.9,-78.45 0,-27.82 757.18,-776.35 835.21,-835.29 30.02,-28.92 68.86,-43.17 107.62,-42.83 38.76,0.34 77.43,15.35 107.03,44.87 29.43,29.43 44.35,68.1 44.69,106.86 0.34,38.76 -13.9,77.6 -42.82,107.62l-835.13 835.21c-14.33,14.33 -31.29,25.53 -49.69,33.16l-0.17 -0.01zm-58.44 1204.13c-39.18,0 -78.36,-15.01 -108.3,-44.86l0 -0.17c-29.94,-29.85 -44.87,-69.04 -44.87,-108.13 0,-39.19 14.93,-78.37 44.87,-108.3l835.21 -835.04c30.02,-28.92 68.86,-43.26 107.62,-42.92 38.76,0.34 77.43,15.27 106.86,44.7l0.17 0.17c29.43,29.43 44.35,68.1 44.69,106.86 0.34,38.76 -13.9,77.59 -42.82,107.62l-835.13 835.21c-29.93,29.85 -69.12,44.86 -108.3,44.86l0 0zm2135.35 -1096.08c29.93,29.86 44.95,69.04 44.95,108.22 0,39.1 -15.01,78.28 -44.87,108.21l-1311.67 1311.76c-19.25,19.59 -42.91,33.41 -68.44,40.62 -25.61,7.13 -53.26,7.63 -79.97,0.59 -26.97,-7.04 -50.89,-20.94 -69.72,-39.77 -18.82,-18.83 -32.73,-42.66 -39.69,-69.54 -7.04,-26.72 -6.53,-54.37 0.59,-79.98l0 -0.08c7.13,-25.53 20.95,-49.19 40.71,-68.36l1311.76 -1311.67c29.85,-29.94 69.03,-44.86 108.13,-44.86 39.18,0 78.37,14.92 108.22,44.86l0 0zm1192.42 1408.95l-834.61 834.7c-19.17,19.59 -42.83,33.33 -68.44,40.54 -25.7,7.21 -53.26,7.71 -80.06,0.68 -26.8,-6.96 -50.63,-20.95 -69.46,-39.78l-0.17 -0.08c-18.74,-18.83 -32.74,-42.66 -39.69,-69.55 -7.04,-26.71 -6.53,-54.36 0.59,-79.97 7.21,-25.53 21.03,-49.19 40.71,-68.36l835.12 -835.12c30.02,-28.92 68.87,-43.26 107.62,-42.92 38.85,0.34 77.52,15.35 107.03,44.78 29.35,29.6 44.36,68.19 44.7,106.95 0.34,38.76 -14,77.69 -42.92,107.62l-0.42 0.51 0 0z"/>
  <path class="fil10" d="M10419.83 2502.73c100.75,0 183.19,82.35 183.19,183.1l0 366.3 366.29 0c100.67,0 183.1,82.43 183.1,183.19 0,100.67 -82.43,183.1 -183.1,183.1l-366.29 0 0 366.3c0,100.75 -82.44,183.19 -183.19,183.19 -100.67,0 -183.11,-82.44 -183.11,-183.19l0 -366.3 -366.29 0c-100.75,0 -183.19,-82.43 -183.19,-183.1 0,-100.75 82.43,-183.19 183.19,-183.19l366.29 0 0 -366.29c0,-100.76 82.44,-183.11 183.11,-183.11l0 0z"/>
  <path class="fil2" d="M15283.08 1012.96c165.97,0 300.48,134.51 300.48,300.48 0,165.98 -134.51,300.57 -300.48,300.57 -165.98,0 -300.49,-134.6 -300.49,-300.57 0,-165.97 134.51,-300.48 300.49,-300.48z"/>
  <path class="fil1" d="M19637.9 3174.43c438.21,0 793.39,355.26 793.39,793.48 0,438.13 -355.18,793.39 -793.39,793.39 -438.22,0 -793.48,-355.26 -793.48,-793.39 0,-438.22 355.26,-793.48 793.48,-793.48zm351.11 442.28c-89.81,-89.81 -213.98,-145.45 -351.11,-145.45 -137.23,0 -261.39,55.64 -351.2,145.45 -89.81,89.81 -145.45,213.98 -145.45,351.2 0,137.13 55.64,261.3 145.45,351.11 89.81,89.9 213.98,145.45 351.2,145.45 137.13,0 261.3,-55.55 351.11,-145.45 89.9,-89.81 145.45,-213.98 145.45,-351.11 0,-137.23 -55.55,-261.39 -145.45,-351.2zm7543.5 -1810.44c210.84,0 381.73,170.9 381.73,381.65 0,210.84 -170.89,381.64 -381.73,381.64 -210.75,0 -381.64,-170.8 -381.64,-381.64 0,-210.75 170.89,-381.65 381.64,-381.65z"/>
 </g>
</svg>
