<?xml version="1.0" encoding="UTF-8"?>
<!DOCTYPE svg PUBLIC "-//W3C//DTD SVG 1.1//EN" "http://www.w3.org/Graphics/SVG/1.1/DTD/svg11.dtd">
<!-- Creator: CorelDRAW 2018 (64-Bit) -->
<svg xmlns="http://www.w3.org/2000/svg" xml:space="preserve" width="297mm" height="210mm" version="1.1" style="shape-rendering:geometricPrecision; text-rendering:geometricPrecision; image-rendering:optimizeQuality; fill-rule:evenodd; clip-rule:evenodd"
viewBox="0 0 29700 21000"
 xmlns:xlink="http://www.w3.org/1999/xlink">
 <defs>
  <style type="text/css">
   <![CDATA[
    .fil4 {fill:#422131}
    .fil6 {fill:#D4B4FD}
    .fil5 {fill:#DD3445}
    .fil2 {fill:#EADAFE}
    .fil8 {fill:#EFC7D7}
    .fil9 {fill:#F4D5E1}
    .fil1 {fill:#FFF4F4}
    .fil3 {fill:white}
    .fil0 {fill:#343743;fill-opacity:0.149020}
    .fil7 {fill:#343743;fill-opacity:0.200000}
   ]]>
  </style>
 </defs>
 <g id="Слой_x0020_1">
  <metadata id="CorelCorpID_0Corel-Layer"/>
  <path class="fil0" d="M28746.61 16017.03l-2297.71 -2271.46c277.58,-481.54 423.16,-970.72 423.16,-1529.25 0,-1656.22 -1353.23,-2975.59 -2976.41,-2975.59 -1649.43,0 -2975.58,1343.92 -2975.58,2975.59 0,1673.97 1319.37,2975.58 2975.58,2975.58 558.57,0 1047.72,-144.73 1528.42,-422.3l2298.53 2271.46c278.44,279.27 735.43,280.13 1015.56,9.31 286.88,-287.74 298.76,-743.03 8.45,-1033.31l0 -0.03z"/>
  <path class="fil1" d="M7411.19 6225.8c939.87,0 1749.04,240.86 2675.59,240.86 2523.18,0 4836.87,-1272.4 6199.86,-3359.15 1343.04,-1869.3 3535.8,-3086.99 6013.27,-3086.99 4086.9,0 7400.09,3313.09 7400.09,7400.08 0,4086.99 -3313.19,7400.09 -7400.09,7400.09 -904.07,0 -1759.98,-212.36 -2671.68,-212.36 -2580.77,0 -4852.66,1321.42 -6176.88,3324.38l-12.13 -13.49c-1341.77,1880.58 -3541.66,3106.84 -6028.03,3106.84 -4086.9,0 -7400.09,-3313.09 -7400.09,-7400.08 0,-4086.99 3313.19,-7400.17 7400.09,-7400.17l0 -0.01z"/>
  <path class="fil2" d="M16548.92 17879.73c276.74,0 500.99,224.28 500.99,500.99 0,138.8 -56.71,264.9 -148.95,356.3l-352.04 -354.6 0 499.32 0 -499.32 -0.83 -0.84 -352.91 352.91c-90.54,-90.54 -147.25,-215.8 -147.25,-353.74 0,-276.74 224.28,-500.99 500.99,-500.99l0 -0.03z"/>
  <path class="fil0" d="M8581.85 15951l0 -256.42 674.49 0c507.77,0 921.62,-413.84 921.62,-921.62l-5.92 -1397.23 1042.63 0c113.39,0 204.79,-92.24 204.79,-205.66l0 -2675.16c16.07,1.7 32.17,4.23 48.23,6.79l5.92 0.83c16.93,1.69 33,4.22 49.1,6.78l2.52 0c16.07,2.53 32.17,4.23 49.1,6.79l8.45 0.83c15.23,1.7 29.63,3.39 44.87,5.09l5.92 0.83c34.69,4.23 69.38,8.45 104.11,11.84l0.83 0c16.07,2.53 33,4.23 49.93,5.92l2.52 0 3.4 0c16.06,1.7 32.99,3.4 49.09,5.09l1.7 0c16.93,1.7 33.86,3.39 50.79,5.09l0.83 0 1.7 0c16.06,1.7 32.16,3.39 48.23,4.23l5.92 0.83c34.69,2.53 68.55,5.09 102.41,7.61l0.83 0c16.93,1.7 33.86,2.53 49.93,3.4l2.53 0.83 0.83 0c51.62,3.39 103.24,5.92 154.87,8.45l1.69 0c34.7,1.69 68.56,3.39 102.42,5.09l0.83 0c137.1,5.09 272.51,7.61 405.36,7.61l33.86 0 0 0c44.87,0 88.88,-0.83 132.88,-0.83l0 0 16.93 -0.83 0 0 16.07 0 0 0c22.02,0 44.01,-0.83 65.16,-1.7l0 0 16.93 0 0 0 16.07 -0.83 16.06 0 0 0 16.07 -0.83 0 0 16.06 0 0 0 16.07 -0.83 0 0 16.07 0 16.06 -0.84 16.07 -0.83 0 0 16.07 -0.83 0 0 16.06 0 15.24 -0.83 0 0 16.06 -0.83 16.07 -0.84 0 0 16.06 -0.83 15.24 0 0 0 16.06 -0.83 15.24 -0.83 0 0 16.06 -0.83 15.24 -0.84 15.23 -0.83 16.07 -0.83 0 0 15.23 -0.83 15.24 -0.83 0 0 15.23 -0.84 15.23 -0.83 16.07 -0.83 15.23 -0.83 14.4 -1.7 15.24 -0.83 0 0 15.23 -0.83 15.24 -0.84 0 0 15.23 -0.83 15.23 -1.69 0 0 14.41 -0.84 0 0 15.23 -0.83 0 0 14.4 -0.83 0 0 15.24 -1.7 0 0 14.4 -0.83 0 0 15.23 -0.83 14.4 -1.7 14.41 -0.83 0 0 15.23 -1.7 0 0 14.4 -0.83 0 0 14.4 -0.83 0 0 14.41 -1.7 0 0 14.4 -0.83 0 0 14.4 -1.69 0 0 4.22 0 0 0 3.4 -0.84 0 0 4.22 0 0 0 4.22 -0.83 0 0 4.23 -0.83 0 0 3.39 -0.83 0 0 4.23 -0.83 0 0 3.39 -0.84 4.22 -0.83 0 0 3.4 -0.83 4.22 -1.7 3.39 -0.83 4.23 -1.7 3.39 -0.83 3.39 -1.69 4.23 -1.7 3.39 -0.83 3.39 -1.7 3.39 -1.69 3.4 -2.53 3.39 -1.7 3.39 -1.7 0 0 4.23 -1.69 0 0 2.52 -1.7 0 0 3.4 -2.53 0 0 3.39 -1.69 3.39 -2.53 3.39 -2.53 2.53 -1.7 3.39 -2.52 3.4 -2.53 2.53 -2.53 3.39 -2.53 2.53 -2.53 2.52 -2.53 3.4 -2.52 2.53 -3.4 0 0 2.52 -2.52 2.53 -2.53 2.53 -3.4 2.53 -2.52 2.53 -3.4 2.53 -2.52 2.52 -3.4 2.53 -3.39 1.7 -3.39 2.53 -2.53 1.69 -3.39 2.53 -3.39 1.7 -3.4 1.69 -3.39 2.53 -3.39 1.7 -3.39 1.69 -4.23 1.7 -3.39 1.7 -3.39 1.69 -3.4 0.84 -4.22 1.69 -3.39 1.7 -4.23 0.83 -3.39 1.7 -4.22 0.83 -3.4 0.83 -4.22 0.83 -3.39 1.7 -4.23 0 0 0 -4.22 0 0 0.83 -4.23 0.83 -3.39 0.83 -4.22 0 0 0 -3.4 0 -0.83 0.84 -3.39 0 0 0 -4.23 0.83 -4.22 0 -3.39 0 -4.23 0 0 0 -3.39 0 -4.22 0 -4.23 0 -3.39 0 0 0 -4.23 0 0 -0.83 -4.22 0 0 0 -3.39 0 0c-0.84,-2.53 -0.84,-5.09 -1.7,-7.62l0 -4.22 -0.83 -3.4c-0.83,-3.39 -0.83,-5.09 -1.7,-7.61l0 0 -0.83 -4.23c-0.83,-3.39 -1.7,-7.62 -3.39,-11.01l0 0c-0.83,-2.53 -1.7,-5.09 -2.53,-7.62l-0.83 -3.39c-1.7,-4.22 -3.4,-7.61 -4.23,-11.01l0 0c-1.69,-2.53 -2.53,-4.22 -3.39,-6.78l-1.7 -3.39 0 0 -1.69 -3.4 -2.53 -3.39 0 0 -1.7 -3.39 0 0 -1.69 -3.39 -2.53 -3.4 0 0c-0.83,-2.52 -2.53,-4.22 -4.23,-6.78l0 0 -1.69 -3.39 0 0 -2.53 -2.53 0 0 -2.53 -3.39 0 0 -2.53 -3.4 -2.53 -2.53 0 0 -2.52 -3.39 0 0 -2.53 -2.53 0 0 -2.53 -3.39 0 0 -2.53 -2.53 0 0 -3.39 -2.53 0 0 -2.53 -3.39 0 0 -3.39 -2.53 0 0 -2.53 -2.52 0 0 -3.39 -2.53 0 0 -2.53 -2.53 -3.39 -2.53 0 0 -3.4 -2.53 0 0 -3.39 -2.53 0 0 -3.39 -1.69 0 0 -2486.43 -1696.83 0 -11.84 -0.83 -11.01 -0.84 -12.7 -0.83 -12.71 -0.83 -12.71 -0.83 -13.53 -0.83 -14.4 -1.7 -14.41 -0.83 -14.4 -1.7 -15.23 -1.69 -15.24 -1.7 -16.06 0 0 -1.7 -16.07 -2.53 -16.93 -1.69 -16.93 0 0 -2.53 -17.76 0 0 -2.53 -17.76 0 0 -2.53 -17.77 0 0c-1.69,-5.92 -2.52,-12.7 -3.39,-18.62l0 0 -2.53 -18.63 -3.39 -19.46 -3.39 -19.46 0 0 -4.23 -19.45 -3.39 -20.33 0 0 -4.22 -20.32c-1.7,-6.78 -3.4,-13.54 -4.23,-20.32 -1.69,-6.79 -3.39,-14.4 -5.09,-21.16l0 0 -4.22 -21.15 0 0c-1.7,-6.79 -3.39,-14.4 -5.09,-21.16l0 0c-1.7,-7.61 -3.39,-15.23 -5.92,-22.01l0 0 -5.09 -22.02 0 0c-1.7,-7.62 -4.22,-15.24 -5.92,-22.85l-5.92 -22.02c-1.7,-7.62 -4.23,-15.24 -5.92,-22.85l0 0c-2.53,-7.62 -4.23,-15.24 -6.79,-22.85 -2.52,-7.62 -4.22,-16.07 -6.78,-23.69 -2.53,-7.61 -5.09,-15.23 -6.79,-23.68 -2.52,-7.62 -5.08,-15.23 -7.61,-22.85 -2.53,-8.45 -5.09,-16.07 -7.62,-24.55 -2.53,-7.62 -5.09,-16.07 -8.45,-23.68 -2.53,-8.45 -5.09,-16.07 -7.62,-24.55 -3.39,-7.62 -5.92,-16.07 -9.31,-24.55l0 0c-2.53,-7.61 -5.92,-16.06 -8.45,-24.54 -3.39,-8.45 -5.92,-16.07 -9.31,-24.55 -3.39,-8.45 -5.92,-16.93 -9.31,-25.38 -3.4,-8.45 -6.79,-16.07 -10.15,-24.55 -3.39,-8.45 -6.78,-16.93 -10.15,-25.38 -3.39,-8.45 -6.78,-16.93 -10.14,-25.38 -4.23,-8.44 -7.62,-17.76 -11.01,-26.24 -4.22,-8.45 -7.62,-16.93 -11.01,-25.38 -4.22,-8.45 -8.45,-16.93 -11.84,-26.24 -4.23,-8.45 -8.45,-16.93 -11.84,-25.38 -4.23,-9.31 -8.45,-17.76 -12.71,-26.24 -4.22,-9.32 -8.45,-17.77 -12.7,-26.25 -4.23,-8.45 -8.45,-17.76 -12.71,-26.24 -5.09,-9.31 -9.31,-17.76 -13.54,-26.24 -5.09,-9.32 -9.31,-17.77 -14.4,-27.08 -4.22,-8.45 -9.31,-17.76 -13.54,-26.24l0 0c-5.09,-9.32 -10.14,-17.77 -15.23,-27.08 -5.09,-8.45 -10.15,-17.76 -15.23,-26.24 -5.09,-9.31 -10.15,-17.76 -15.24,-27.08 -5.09,-8.45 -10.14,-17.76 -16.06,-26.24 -5.09,-9.31 -10.15,-18.63 -16.07,-27.08 -5.09,-9.31 -11.01,-17.76 -16.93,-27.07 -274.21,-435 -661.81,-794.66 -1152.66,-1068.04 -568.71,-316.52 -1278.76,-516.23 -2110.67,-595.79l-122.7 -442.62 -1.7 -4.22 -0.83 -4.23 -1.7 -3.39 -0.83 -4.22 -1.7 -4.23 -1.69 -3.39 -1.7 -4.22 -1.7 -4.23 -1.69 -3.39 -1.7 -4.23 -2.53 -3.39 -1.69 -3.39 -2.53 -3.39 0 0 -1.7 -4.23 -2.53 -3.39 -2.52 -3.39 -1.7 -3.4 -2.53 -3.39 -2.53 -3.39 -2.53 -3.39 -2.52 -2.53 0 0 -3.4 -3.39 -2.52 -3.4 0 0 -2.53 -2.52 -3.39 -3.4 -2.53 -2.52 0 0 -3.4 -2.53 -2.52 -3.4 0 0 -3.4 -2.52 0 0 -2.52 -2.53 0 0 -3.4 -2.53 -3.39 -2.53 0 0 -3.39 -2.53 -3.39 -2.53 -3.4 -1.69 -3.39 -2.53 0 0 -3.39 -2.53 0 0 -3.39 -1.69 -3.4 -2.53 -4.22 -1.7 -3.39 -1.7 -3.4 -1.69 -4.22 -1.7 -3.39 -1.69 -4.23 -1.7 0 0 -3.39 -1.7 0 0 -4.22 -1.69 -3.4 -0.83 -4.22 -1.7 0 0 -4.23 -0.83 -4.22 -1.7 -3.39 -0.83 -4.23 -0.83 -4.22 -0.84 -4.23 -0.83 -4.22 -0.83 0 0 -4.23 -0.83 0 0 -4.22 0 -4.22 -0.83 0 0 -3.4 -0.84 -5.09 0 -4.22 0 -4.22 0 -4.23 0 -1241.5 0 -5.09 0 -5.09 0 -5.09 0 -5.09 0.84 -5.09 0 -4.22 0.83 -5.09 0.83 -5.09 0.83 -4.22 0.83 -5.09 1.7 -4.23 0.83 -5.08 1.7 -4.23 0.83 -5.09 1.7 -4.22 1.69 -4.23 1.7 -4.22 1.7 -5.09 1.69 -4.22 2.53 -4.23 1.7 -4.22 2.52 -4.23 2.53 -3.39 1.7 -4.22 2.53 -4.23 2.53 -3.39 2.52 -4.23 3.4 -3.39 2.53 -4.22 3.39 -3.4 2.53 -3.39 3.39 0 0 -3.39 2.53 -3.39 3.39 -3.4 3.39 -3.39 3.39c-0.83,0.84 -2.53,2.53 -3.39,3.4l-2.53 3.39 0 0 -3.39 4.22 -3.39 3.4 -2.53 3.39 -2.53 4.22 -2.53 3.4 -2.53 4.22 -2.52 4.22 -2.53 4.23 0 0 -2.53 4.22 -2.53 3.4 0 0 -1.7 5.08 0 0 -2.52 4.23 -1.7 4.22 0 0 -1.7 4.23 0 0 -1.69 4.22 -1.7 5.09 -1.7 4.23 0 0 -1.69 5.08 0 0 -0.83 4.23 0 0 -1.7 5.09 0 0 -0.83 4.22 -0.83 5.09 0 0 -0.84 5.09 0 0 -0.83 4.22 0 0 -0.83 5.09 0 0 -0.83 5.09 0 0 0 5.09 0 0 -31.3 412.98 -11.84 1.7 -11.85 0.83 0 0 -11.01 1.7 -11.84 1.69 -11.84 0.83 -11.84 1.7 0 0 -11.84 1.7 0 0 -11.01 1.69 -11.84 0.83 -11.84 1.7 0 0 -11.01 1.7 -11.84 1.69 0 0 -11.85 1.7 0 0 -22.85 2.53 0 0 -11.01 1.69 -11.84 1.7 0 0c-11.01,1.7 -22.85,3.39 -33.86,5.09l0 0 -11.01 1.69 -22.85 3.4 0 0 -11.01 1.69 0 0 -22.85 4.23 0 0 -22.02 3.39 0 0 -11.01 1.7 0 0 -11.84 1.69 -11.01 2.53 0 0 -11.01 1.7 0 0 -22.02 4.22 0 0 -11.01 1.7 -11.01 1.69 -11 2.53 0 0 -11.01 1.7 -10.15 1.7 -11.01 2.52 0 0 -11.01 1.7 -11.01 2.53 -11.01 1.69 -10.14 2.53 -11.01 1.7 -11.01 2.53 -10.15 1.69 -11.01 2.53 0 0 -10.14 2.53 -11.01 1.7 -10.15 2.52 -11.01 2.53 -10.14 1.7 -11.01 2.53 -10.15 2.53 -10.14 2.52 -11.01 2.53 -10.15 1.7 -10.14 2.53 -10.15 2.53 -10.14 2.52 -11.01 2.53 -10.15 2.53 -10.14 2.53c-4.23,0.83 -7.62,1.69 -11.84,3.39 -469.69,130.32 -677.05,229.34 -776.9,279.27l-0.83 0 0 0c-15.24,7.62 -29.64,15.23 -44.87,22.85l0 0c-14.41,7.62 -28.78,15.23 -43.18,23.68l0 0c-14.4,7.62 -28.77,15.24 -43.17,23.69l0 0c-13.54,7.61 -27.94,15.23 -41.48,23.68l0 0c-13.54,7.62 -27.07,16.06 -40.61,24.55 -13.54,7.61 -27.08,16.06 -39.78,24.54 -12.71,8.45 -26.25,16.93 -38.92,25.38l0 0c-12.71,8.45 -25.38,16.93 -37.25,25.38 -25.38,16.93 -49.93,34.69 -72.78,51.62l-0.83 0c-11.01,9.32 -22.85,17.77 -34.69,27.08l0 0c-11.01,8.45 -22.85,17.76 -33.86,26.24l0 0c-11.01,9.32 -22.02,17.77 -33,27.08l0 0c-11.01,9.31 -22.02,18.62 -32.16,27.07 -11.01,9.32 -21.16,18.63 -32.17,27.94 -10.14,9.32 -20.32,18.63 -30.47,27.94 -10.14,9.32 -19.46,18.63 -29.63,27.94 -9.32,9.32 -19.46,18.63 -28.77,28.77 -9.32,9.32 -18.63,18.63 -27.94,27.94 -9.32,10.15 -17.77,19.46 -27.08,28.78l0 0c-9.31,10.14 -17.76,19.45 -26.24,28.77l0 0c-8.45,10.14 -17.76,19.46 -26.25,29.63 -7.61,9.32 -16.06,19.46 -24.54,28.77l0 0c-7.62,10.15 -16.07,20.33 -23.69,29.64l0 0c-8.45,10.15 -16.06,20.32 -23.68,29.64l0 0c-7.62,10.14 -15.23,20.32 -22.02,29.63 -7.61,10.15 -15.23,20.32 -22.02,30.47l0 0c-14.4,19.46 -27.94,39.78 -41.47,60.07 -6.79,9.31 -13.54,19.46 -19.46,29.64 -6.79,10.14 -12.71,20.32 -18.63,30.47 -6.78,10.14 -12.7,20.32 -18.63,30.46l0 0c-5.92,10.15 -11.84,20.33 -17.76,30.47 -5.92,10.15 -11.01,20.32 -16.93,30.47 -5.09,10.14 -11.01,20.32 -16.06,30.47l0 0c-5.09,10.14 -10.15,20.32 -15.24,30.46l0 0c-5.09,10.15 -10.14,20.33 -15.23,30.47 -5.09,10.15 -9.31,20.33 -14.4,30.47l0 0c-5.09,10.15 -9.32,20.32 -13.54,30.47 -5.09,10.14 -9.31,20.32 -13.54,30.47l0 0c-4.22,10.14 -8.45,20.32 -12.7,30.46l0 0c-4.23,10.15 -7.62,20.33 -11.85,30.47l0 0c-4.22,10.15 -7.61,19.46 -11.01,29.64l0 0c-4.22,10.14 -7.61,20.32 -11.01,30.47l0 0c-4.22,10.14 -7.61,20.32 -11,30.46 -3.4,10.15 -5.93,20.33 -9.32,29.64l0 0c-3.39,10.15 -6.78,20.32 -9.31,30.47l0 0c-3.39,10.14 -5.92,19.46 -9.31,29.63l0 0c-2.53,10.15 -5.09,20.33 -8.45,29.64l0 0c-2.53,10.14 -5.09,20.32 -7.62,29.63l0 0c-2.53,10.15 -5.09,20.33 -7.62,29.64l0 0c-1.69,10.15 -4.22,19.46 -6.78,29.64l0 0c-2.53,9.31 -4.23,19.46 -5.92,28.77l0 0c-2.53,10.14 -4.23,19.46 -6.79,28.77 -1.69,10.15 -3.39,19.46 -5.09,29.64l0 0c-1.69,9.31 -3.39,18.62 -5.08,27.94l0 0c-1.7,9.31 -3.4,19.45 -5.09,28.77l0 0c-1.7,9.31 -3.4,18.62 -4.23,27.94l0 0c-1.69,9.31 -3.39,18.62 -4.22,27.94l0 0c-1.7,9.31 -2.53,18.62 -4.23,27.94l0 0c-0.83,8.44 -1.69,17.76 -2.53,27.07l0 0c-1.69,9.31 -2.52,17.76 -3.39,27.08l0 0c-0.83,9.31 -1.69,17.76 -2.53,27.07l0 0c-0.83,8.45 -1.69,17.76 -2.52,26.25l0 0 -1.7 18.62 0 0 -0.83 18.63 0 0 -1.7 18.62 -0.83 18.63 0 0 -0.83 18.63 0 0 -0.84 18.62 0 0 -0.83 18.63 0 17.76 0 0 -0.83 18.63 0 0 0 17.76 0 0 0 17.76 0 17.77 0 17.76 0 0 0 17.76 0 0 0 16.93 0.83 0c0,11.84 0,23.68 0.83,34.69l0 17.77 0 0 0.84 16.93 0.83 16.93 0 0 0.83 16.93 0.83 16.06 0 0 1.7 16.93 0 0 0.83 16.07 0 0 1.7 16.06 0.83 16.07 0 0c0.83,11.01 1.7,22.02 3.39,32.16l0 0 1.7 16.07 0.83 15.23 0 0 1.7 15.24 0 0c2.52,15.23 4.22,30.47 5.92,44.87l0 0 1.69 15.23 0 0c1.7,10.15 2.53,19.46 4.23,28.77 1.69,10.15 2.53,19.46 4.22,28.78l0 0c2.53,13.53 4.23,27.93 6.79,41.47l0 0 2.53 12.71 0 0c1.69,9.31 2.52,17.76 4.22,26.24l0 0 2.53 13.54 0 0 2.53 12.7 0 0 2.53 11.85 0 0 2.52 12.7 0 0 1.7 11.84 0 0 2.53 11.84 0 0 5.09 23.69 0 0 2.53 11.01 0 0 2.52 11.01 2.53 11.01 0 0 2.53 10.14 0 0 2.53 11.01 0 0 2.53 10.15 0 0 2.53 10.14 0 0 2.52 9.31 0 0 1.7 10.15 0 0 2.53 9.31 0 0 2.53 8.45 -2083.6 1422.62 -3.39 1.69 -3.39 2.53 -3.4 2.53 -2.52 2.53 -3.4 2.53 -3.39 2.52 0 0 -2.53 2.53 -3.39 2.53 -2.53 3.39 -2.53 2.53 -3.39 2.53 -2.53 3.39 -2.53 2.53 -2.52 3.39 -2.53 2.53 0 0 -2.53 3.39 -2.53 3.4 -1.69 2.52 -2.53 3.4 0 0 -2.53 3.39 0 0 -1.7 3.39 0 0 -2.53 3.39 -1.69 3.4 -1.7 3.39 -1.69 3.39 -2.53 3.39 0 0 -1.7 3.4 -1.7 3.39 -0.83 3.39 0 0 -1.69 3.39 -1.7 4.23 -1.7 3.39 -0.83 3.39 0 0 -1.69 3.4 -0.84 4.22 -0.83 3.39 0 0 -1.69 4.23 -0.84 3.39 0 0 -0.83 4.22 -0.83 3.4 -0.83 3.39 0 4.22 -0.84 4.23 -0.83 3.39 0 4.23 -0.83 3.39 0 4.22 0 0 -0.83 4.23 0 3.39 0 4.22 0 3.4 0 4.22 0 4.23 0 3.39 0.83 4.22 0 4.23 0.83 3.39 0 4.22 0.83 4.23 0.84 3.39 0.83 4.23 0.83 4.22 0.83 3.39 0.84 4.23 0.83 4.22 1.69 3.39 0.84 4.23 0.83 3.39 1.69 4.23 1.7 3.39 1.7 4.22 0.83 3.39 1.69 3.4 1.7 3.39 1.7 4.22 2.53 3.4 1.69 3.39 1.7 3.39 1.69 3.39 2.53 3.4 1.7 3.39 2.53 3.39 2.53 2.53 1.69 3.39 2.53 3.39 2.53 2.53 2.53 3.39 2.52 2.53 2.53 3.4 2.53 2.52 2.53 2.53 0 0 3.39 3.39 2.53 2.53 2.53 2.53 3.39 2.53 2.53 2.53 3.39 2.53 2.53 2.52 3.39 2.53 3.4 1.7 2.52 2.53 3.4 1.69 3.39 2.53 0 0 3.39 1.7 0 0 3.39 2.53 0 0 3.4 1.69 0 0 3.39 1.7 3.39 1.7 3.39 2.52 3.4 1.7 3.39 0.83 4.22 1.7 3.39 1.69 3.4 1.7 4.22 0.83 3.39 1.7 3.4 0.83 4.22 1.7 3.39 0.83 0 0 4.23 0.83 4.22 0.83 0 0 3.4 0.84 0 0 4.22 0.83 0 0 3.39 0.83 0 0 4.23 0.83 0 0 4.22 0 0 0 4.23 0.83 0 0 3.39 0 0 0 12.7 0.84 0 0 12.71 1.69 0 0 11.84 0.83 0 0 12.71 0.84 0 0 12.7 0.83 12.71 1.69 0 0 11.84 0.84 0 0 12.7 0.83 0 0 12.71 0.83 0 0 12.71 0.83 0 0 12.7 0.84 0 0 12.71 1.69 12.7 0.83 13.54 0.84 0 0 12.71 0.83 0 0 12.7 0.83 12.71 0.83 13.54 0.83 12.7 0.84 13.54 0.83 12.7 0.83 0 0 13.54 0.83 12.71 0.83 0 0 13.54 0.84 13.53 0 12.71 0.83 13.54 0.83 13.53 0.83 13.54 0.84 13.54 0.83 13.54 0 13.54 0.83 12.7 0.83 14.4 0.83 13.54 0 0 0 13.54 0.84 13.54 0.83 13.53 0 13.54 0.83 13.54 0 14.4 0.83 13.54 0.83 13.54 0 14.4 0.84 13.54 0 14.4 0.83 13.54 0 14.4 0.83 14.4 0 13.54 0 14.4 0.83 13.54 0 14.4 0 14.4 0.83 14.4 0 14.4 0 13.54 0 14.4 0 14.41 0 14.4 0.84 14.4 0 14.4 0 14.4 0 14.4 0 40.62 0 2.53 0 1.69 0 41.48 -0.84 0 0 40.61 0 5.92 0 36.39 -0.83 9.32 0 35.55 -0.83 6.79 0 32.99 -0.83 11.01 -0.83 37.26 -0.84 3.39 0 3.39 0c12.71,-0.83 25.38,-1.69 38.08,-1.69l2.53 0 1.7 0 0 0c14.4,-0.83 27.94,-1.7 41.48,-1.7l1.69 0 2.53 -0.83 34.69 -1.7 15.24 -0.83 32.99 -1.69 10.15 0 34.69 -2.53 9.31 0c11.85,-0.84 22.86,-1.7 34.7,-2.53l11.01 -0.83 30.46 -1.7 20.33 -1.7 23.68 -1.69 22.02 -1.7 22.85 -1.69 22.85 -2.53 22.85 -1.7 26.25 -2.53 15.23 -0.83 27.07 -3.39 16.07 -0.83 30.47 -3.4 3.39 0 21.16 -2.52 21.15 -2.53 0.83 0 22.02 -2.53 0.83 0 19.46 -1.7 0.83 -0.83 22.02 -2.53 1.7 0 19.46 -2.53 22.02 -2.52 0.83 0 31.3 -4.23 16.93 -1.7 32.16 -5.08 11.01 -0.84c11.84,-1.69 23.69,-3.39 35.56,-5.08l5.09 -0.84c27.94,-4.22 55.84,-8.45 82.92,-12.7l9.31 -1.7 34.7 -5.09 1.69 -0.83 22.02 -3.39 22.02 -3.39 22.02 -4.23 1.69 0 19.46 -3.39 0 5603.34 -777.73 0 -5.09 0 -5.09 0 -5.08 0 -5.93 0.83 -5.08 0.83 -5.09 0.84 -5.09 0 -5.09 1.69 -4.22 0.83 -5.09 0.84 -5.09 1.69 -5.09 1.7 -5.09 0.83 -4.22 1.7 -5.09 2.53 -4.23 1.69 -5.09 1.7 -4.22 2.53 -4.22 1.69 -4.23 2.53 -4.22 2.53 -5.09 2.53 -3.39 2.53 -4.23 2.52 -4.22 3.4 -4.23 2.52 -4.22 2.53 -3.4 3.4 -3.39 3.39 -4.22 3.39 -3.39 3.39 -3.4 3.4 -3.39 3.39 -3.39 3.39 -3.39 3.39 -3.4 4.23 -3.39 3.39 -2.53 4.22 -2.53 4.23 -3.39 4.22 0 0 -2.53 4.23 -2.52 3.39 0 0 -2.53 5.09 -2.53 4.22 0 0 -2.53 4.23 -1.7 4.22 -2.52 4.23 0 0 -1.7 5.09 -1.7 4.22 -1.69 5.09 -2.53 4.22 0 0 -0.83 5.09 -1.7 5.09 0 0 -1.7 5.09 0 0 -0.83 4.22 -0.83 5.09 0 0 -0.83 5.09 0 0 -0.83 5.09 0 0 -0.84 5.09 0 0 -0.83 5.09 0 0 0 5.92 0 0 -0.83 5.09 0 0 0 5.09 0 0c0,1.69 0,3.39 0,5.08l0 0 0 1938.88 0 0c0,1.69 0,3.39 0,5.08l0 0 0 5.09 0 0 0.83 5.92 0 0 0 5.09 0 0 0.83 5.09 0 0 0.84 5.09 0 0 0.83 5.09 0 0 0.83 5.09 0 0 0.83 5.09 0 0 0.83 5.08 0 0 1.7 4.23 0 0 1.7 5.09 0 0 0.83 5.09 0.83 0 1.7 4.22 0 0 1.69 5.09 0 0 1.7 4.22 0 0 1.7 5.09 0 0 2.52 4.23 0 0 1.7 4.22 0 0 2.53 5.09 2.53 4.23 0 0 2.53 4.22 0 0 2.52 4.22 0 0 2.53 4.23 3.39 3.39 0 0 2.53 4.23 0 0 2.53 4.22 0 0 3.39 3.39 0 0 3.4 4.23 3.39 3.39 0 0 3.39 3.39 0 0 3.39 3.39 0 0 3.4 3.4 0 0c0.83,1.69 2.52,2.53 3.39,3.39l0 0 4.22 3.39 3.39 3.39 0 0 4.23 3.4 0 0 3.39 2.53 0 0 4.23 3.39 0 0 4.22 2.53 0 0 4.23 2.52 3.39 2.53 0 0 5.09 2.53 0 0 4.22 2.53 4.23 2.53 0 0 4.22 2.53 0 0 4.22 1.69 0 0 5.09 1.7 0 0 4.23 2.53 0 0 5.09 1.69 0 0 4.22 1.7 0 0 5.09 1.7 0 0 5.09 0.83 0 0 5.09 1.69 0 0 5.09 0.84 0 0 4.22 1.69 0 0 5.09 0.83 0 0 5.09 0.84 0 0 5.09 0 0 0 5.08 0.83 0 0 5.93 0.83 0 0 5.08 0 0 0 5.09 0 0 0 5.09 0 0 0c1887.25,0 5349.45,0 7236.7,0 51.63,0 99.86,-18.63 137.11,-51.62l2.53 -2.53 0 0 2.53 -1.7 0 0 1.69 -2.53 0 0 2.53 -2.52 0 0 2.53 -2.53 0 0 1.7 -1.7 0 0 2.52 -2.53 0 0 2.53 -2.52 0 0 1.7 -2.53 0 0 1.69 -2.53 0 0 2.53 -2.53 0 0 1.7 -2.53 0 0 2.53 -2.53 0 0 1.69 -3.39 0 0 1.7 -2.53 0 0 1.7 -2.53 0 0 1.69 -2.52 0.83 0 1.7 -3.4 0 0 1.7 -2.52 0 0 1.69 -2.53 0 0 0.83 -3.4 0.84 0 0.83 -2.52 0 0 1.7 -3.4 0 0 1.69 -2.52 0 0 1.7 -3.4 0 0c0.83,-2.53 2.53,-5.92 3.39,-8.45l0 0c1.7,-3.39 2.53,-5.92 4.22,-9.31l0 0c0.84,-3.39 1.7,-5.92 2.53,-9.31l0 0c0.84,-1.7 1.7,-4.23 1.7,-5.92l0 0c13.54,-48.23 8.45,-99.86 -14.4,-145.56l-969.02 -1938.87 -1.7 -3.39 0 0 -1.7 -3.39 0 0 -1.69 -3.4 0 0c-1.7,-1.69 -2.53,-3.39 -4.23,-5.92l0 0 -1.69 -2.53 0 0 -1.7 -3.39 0 0c-1.69,-1.69 -2.53,-4.22 -4.22,-5.92l0 0 -2.53 -2.53 0 0c-3.39,-5.09 -6.79,-10.14 -11.01,-14.4l0 0c-1.7,-2.53 -4.23,-5.09 -6.79,-7.62l0 0 -2.52 -2.52 0 0c-2.53,-2.53 -5.09,-5.09 -7.62,-6.79l0 0c-5.09,-4.22 -9.31,-7.62 -14.4,-11.01l0 0 -2.53 -2.53 0 0c-4.23,-3.39 -9.31,-6.78 -14.4,-9.31l0 0c-2.53,-1.7 -4.23,-2.53 -5.92,-3.39l0 0c-2.53,-1.7 -4.23,-2.53 -6.79,-3.4l0 0 -2.53 -1.69 0 0 -3.39 -1.7 0 0c-3.39,-0.83 -6.78,-2.53 -10.14,-4.22l0 0 -2.53 -0.83 0 0 -3.4 -1.7 0 0c-3.39,-0.83 -6.78,-1.7 -10.14,-3.39l0 0c-2.53,0 -5.09,-0.84 -6.79,-1.7l0 0c-2.52,-0.83 -5.08,-0.83 -6.78,-1.7l0 0c-15.23,-3.39 -30.47,-5.08 -46.53,-5.08l-358 0 -0.13 -0.23zm2074.28 -2094.57c438.39,0 803.14,316.52 878.45,732.89 203.96,39.78 372.37,186.2 437.53,389.3l437.53 1370.16 931.76 0c60.07,0 116.79,26.24 155.74,71.95 38.91,45.7 55.84,106.63 46.53,165.87l-123.57 765.06c-87.18,539.08 -546.69,930.94 -1093.42,930.94 -537.41,0 -996.09,-383.38 -1090.89,-912.31l-378.29 -2114.9c-30.47,-168.4 15.24,-339.37 125.27,-470.55 42.3,-50.79 92.23,-93.1 147.25,-126.1 -42.31,-222.59 -238.66,-391.83 -473.92,-391.83 -113.39,0 -204.79,-92.23 -204.79,-205.65 0,-113.39 91.4,-204.8 204.79,-204.8l0.03 -0.03z"/>
  <path class="fil3" d="M3895.91 9881.36c0,2257.92 0,3816.81 0,6057.8 1718.84,29.64 3206.61,5.92 4926.29,35.56 0,-358.83 0,-328.37 0,-687.2 192.12,4.23 558.57,3.4 780.29,16.07 356.3,1.7 595.79,-225.12 615.25,-671.96 -4.23,-616.94 10.14,-1102.73 9.31,-1706.97 417.24,5.09 833.61,11.01 1250.82,16.07 -7.62,-996.1 -15.24,-1993.02 -22.85,-2989.12 -1378.61,-242.88 -2185.15,-699.9 -2843.57,-1356.62 -1028.26,-4.23 -1658.74,25.38 -2638.77,28.77 -363.05,752.35 -1046.02,1135.73 -2076.81,1257.6l0.04 0z"/>
  <path class="fil4" d="M5455.66 12976.25c111.72,-17.76 216.67,58.41 234.43,170.1 85.48,534.86 358.83,1022.34 770.14,1373.56 411.29,351.21 936,544.16 1476.8,544.16l1559.72 0c281.83,0 511.17,-229.34 511.17,-512l-3.39 -710.87 -645.72 0c-112.56,0 -204.79,-92.24 -204.79,-205.66 0,-113.39 92.23,-204.8 204.79,-204.8l644.02 0 -1.69 -480.7c0,-113.39 91.4,-204.79 204.79,-204.79l0 0c2.53,0 5.09,-0.83 6.78,-0.83l1037.58 0 0 -2587.98c0,-112.56 91.4,-204.8 204.79,-204.8 113.39,0 204.8,92.24 204.8,204.8l0 2793.63c0,113.39 -91.41,204.8 -204.8,204.8l-1042.63 0 5.92 1397.23c0,508.61 -413.84,922.46 -921.62,922.46l-1559.72 0c-638.1,0 -1257.6,-228.51 -1743.36,-643.19 -484.92,-413.84 -808.2,-989.31 -908.91,-1619.82 -17.77,-111.73 58.4,-217.5 170.96,-235.27l-0.06 -0.03zm-1354.93 -2553.25l902.17 6.78c466.3,0 858.99,323.28 964.76,758.28 217.5,-74.48 374.9,-280.97 374.9,-523.01l0 -1214.43c0,-113.39 92.23,-205.66 205.65,-205.66l3171.07 7.62c113.39,0 205.65,91.4 205.65,204.79 0,113.39 -92.23,205.66 -205.65,205.66l-2966.27 -7.62 0 1009.64c0,530.62 -431.61,962.23 -962.24,962.23 -113.39,0 -205.66,-91.4 -205.66,-204.79 0,-321.58 -261.5,-583.12 -582.25,-583.12l-902.16 -5.92 0 4973.69c0,135.41 -91.4,245.44 -204.79,245.44 -113.39,0 -205.66,-109.16 -205.66,-245.44l0 -5793.76c0,-135.41 92.23,-245.44 205.66,-245.44 113.39,0 204.79,110.03 204.79,245.44l0 409.62 0.03 0zm4685.08 269.95c80.4,-80.39 209.88,-80.39 290.28,0 110.86,111.73 258.98,172.63 417.24,172.63 157.39,0 305.51,-60.93 417.23,-172.63 79.57,-80.39 209.89,-80.39 289.45,0 80.39,80.4 80.39,209.89 0,290.28 -188.73,188.73 -440.09,292.81 -706.65,292.81 -267.43,0 -518.79,-104.11 -707.52,-292.81 -80.39,-80.39 -80.39,-209.88 0,-290.28l-0.03 0z"/>
  <path class="fil5" d="M1367.17 9828.04l2083.59 -1421.78c-49.93,-192.12 -118.48,-541.64 -85.48,-943.61 46.53,-562.79 304.68,-1334.6 1269.44,-1817.83 101.55,-50.79 311.43,-150.64 789.61,-283.53 217.5,-53.31 454.45,-93.93 705.81,-122.7l31.3 -412.98c7.62,-107.47 97.33,-190.42 204.8,-190.42l1241.5 0c92.24,0 173.5,61.76 198.04,150.64l122.71 442.62c831.91,79.56 1541.95,279.26 2110.67,595.78 490.84,273.35 879.31,632.18 1152.66,1068.04 362.22,574.64 426.51,1125.59 436.69,1361.68l2486.43 1696c71.95,49.09 104.94,137.93 82.92,221.72 -22.01,83.79 -93.93,144.72 -180.24,152.34 -305.51,27.07 -644.02,44.87 -1002.85,44.87 -1062.95,0 -2300.23,-159.09 -3348.81,-719.36 -644.89,-344.42 -990.18,-720.19 -1128.98,-895.38l-2349.32 93.94c-122.71,154.86 -422.3,477.31 -974.95,771.81 -904.69,484.09 -1970.17,620.33 -2885.87,620.33 -308.04,0 -599.18,-15.23 -862.38,-38.08 -86.32,-7.62 -158.26,-68.55 -180.25,-152.34 -22.02,-83.79 11.01,-172.63 82.92,-221.73l0.04 -0.03z"/>
  <path class="fil4" d="M1367.17 9828.04l2083.59 -1421.78c-49.93,-192.12 -118.48,-541.64 -85.48,-943.61 46.53,-562.79 304.68,-1334.6 1269.44,-1817.83 101.55,-50.79 225.12,-10.15 275.04,91.4 50.79,101.55 10.15,224.29 -91.4,275.05 -1287.2,644.88 -1079.88,1885.55 -973.24,2284.16l2046.34 133.71 207.35 -2774.14c-204.79,26.24 -397.74,61.76 -576.33,104.94 -16.93,4.22 -32.99,5.92 -49.09,5.92 -92.24,0 -176.02,-62.63 -198.88,-155.73 -27.07,-110.87 39.79,-221.73 149.78,-248.8 217.5,-53.32 454.46,-93.94 705.82,-122.71l31.3 -412.98c7.62,-107.47 97.33,-190.42 204.8,-190.42l1241.5 0c92.24,0 173.49,61.77 198.04,150.64l122.7 442.62c831.92,79.56 1541.96,279.26 2110.67,595.79 490.85,273.34 879.32,632.17 1152.66,1068.04 362.23,574.63 426.52,1125.58 436.7,1361.67l2486.43 1696c71.95,49.09 104.94,137.94 82.92,221.72 -22.02,83.79 -93.93,144.72 -180.24,152.34 -305.52,27.08 -644.02,44.87 -1002.85,44.87 -1062.95,0 -2300.23,-159.09 -3348.82,-719.35 -644.88,-344.43 -990.17,-720.19 -1128.97,-895.38l-2349.33 93.93c-122.7,154.87 -422.29,477.31 -974.94,771.81 -904.69,484.09 -1970.17,620.33 -2885.87,620.33 -308.04,0 -599.18,-15.23 -862.38,-38.08 -86.32,-7.62 -158.26,-68.55 -180.25,-152.34 -22.02,-83.79 11.01,-172.63 82.92,-221.72l0.07 -0.07zm12023.36 124.4l-2022.66 -1380.3 -2304.45 149.78c486.62,466.3 1742.52,1326.15 4327.11,1230.52zm-4599.63 -1624.05l2421.27 -157.39c-22.02,-225.95 -99.02,-634.74 -367.28,-1060.43 -236.96,-376.59 -575.5,-688.88 -1005.41,-927.54 -483.23,-269.12 -1085.8,-446.84 -1792.45,-529.79l743.9 2675.15 -0.03 0zm-419.77 21.16l-919.09 -3303.94 -895.38 0 -254.72 3386.89 2069.19 -82.92 0 -0.03zm-3380.94 924.18c295.37,-154.03 508.61,-316.52 655.03,-449.37l-1897.4 -124.4 -1651.12 1127.28c899.6,23.68 1988.8,-80.39 2893.49,-553.48l0 -0.03z"/>
  <path class="fil6" d="M11774.93 14369.26c203.96,39.78 372.37,186.2 437.53,389.3l437.53 1369.3 931.76 0c60.08,0 116.79,26.24 155.74,71.94 38.91,46.54 55.84,106.64 46.53,165.88l-123.57 765.06c-87.18,539.94 -546.69,931.76 -1093.42,931.76 -537.41,0 -996.09,-383.37 -1090.89,-912.3l-378.29 -2114.9c-30.47,-168.41 15.24,-340.2 125.27,-470.56 42.31,-50.79 92.23,-93.1 147.25,-126.09l404.53 -69.39 0.03 0z"/>
  <path class="fil4" d="M10896.48 13635.54c437.53,0 803.15,317.35 878.45,733.72 203.96,39.78 372.37,186.2 437.53,389.3l437.53 1369.3 931.76 0c60.08,0 116.79,26.24 155.74,71.94 38.91,46.54 55.84,106.64 46.53,165.88l-123.57 765.06c-87.18,539.94 -546.69,931.76 -1093.42,931.76 -537.41,0 -996.09,-383.37 -1090.89,-912.3l-378.29 -2114.9c-30.47,-168.41 15.24,-340.2 125.27,-470.56 42.31,-50.79 92.23,-93.1 147.25,-126.09 -42.31,-223.42 -238.66,-392.69 -473.92,-392.69 -113.39,0 -205.66,-91.41 -205.66,-204.8 0,-113.39 92.24,-205.65 205.66,-205.65l0.03 0.03zm605.1 1326.98l379.16 2114.9c59.24,333.45 347.82,574.63 686.36,574.63 344.42,0 633.87,-246.27 688.88,-586.47l84.62 -527.24 -836.14 0c-2.52,0 -5.92,0 -9.31,0l-45.7 0 -15.23 320.75c-5.09,113.39 -101.55,200.57 -214.11,195.48 -113.39,-5.09 -200.57,-101.55 -195.48,-214.97l24.54 -516.23c5.09,-97.33 77.01,-176.89 170.97,-192.12l-398.61 -1247.46c-22.02,-69.38 -85.48,-115.08 -157.4,-115.08 -66.85,0 -108.33,37.25 -126.09,59.24 -18.63,22.01 -48.23,68.55 -36.39,134.57l-0.07 0z"/>
  <path class="fil5" d="M2912.52 15730.11l6267.68 0c77.86,0 148.95,44.01 183.64,113.39l969.02 1938.87c32.16,63.47 28.77,139.64 -8.45,199.74 -38.09,60.94 -104.11,97.32 -175.19,97.32 -1887.25,0 -5349.45,0 -7236.7,0 -113.39,0 -204.8,-91.4 -204.8,-204.79l0 -1938.87c0,-113.39 91.41,-205.66 204.8,-205.66z"/>
  <path class="fil4" d="M2912.52 15730.11l4692.72 0c77.87,0 148.12,44.01 183.64,113.39l969.02 1938.87c32.17,63.47 28.78,139.64 -9.31,199.74 -37.25,60.94 -103.24,97.32 -174.33,97.32l-1810.21 0c-113.39,0 -204.79,-91.4 -204.79,-204.79 0,-113.39 91.4,-205.66 204.79,-205.66l1478.49 0 -764.19 -1528.42 -4360.11 0 0 1528.42 2962.04 0c113.39,0 205.66,92.24 205.66,205.66 0,113.39 -92.24,204.79 -205.66,204.79l-3167.7 0c-113.39,0 -204.79,-91.4 -204.79,-204.79l0 -1938.87c0,-113.39 91.4,-205.66 204.79,-205.66l-0.06 0z"/>
  <path class="fil4" d="M8460.01 15730.11l720.19 0c77.86,0 148.95,44.01 183.64,113.39l969.02 1938.87c32.16,63.47 28.77,139.64 -8.45,199.74 -38.09,60.94 -104.11,97.32 -175.19,97.32l-909.78 0c-112.56,0 -204.8,-91.4 -204.8,-204.79 0,-113.39 92.24,-205.66 204.8,-205.66l578.02 0 -764.19 -1528.42 -593.26 0c-113.39,0 -204.79,-91.4 -204.79,-204.79 0,-113.39 91.4,-205.66 204.79,-205.66z"/>
  <path class="fil7" d="M24987.34 3177.85l-9188.25 0c-797.22,0 -1446.33,642.35 -1446.33,1430.23l-59.23 8090.6 -1793.32 0c-126.96,0 -224.29,112.56 -224.29,239.49l0 1113.74c0,1041.8 834.45,1894 1841.55,1941.4l0 12.71 7736.86 0 0 -14.41c57.55,1.7 93.1,14.41 132.02,14.41l5.92 0c1073.96,-5.92 1938.87,-881.01 1933.78,-1954.94l0 -7076.75 2335.79 0c126.96,0 223.42,-115.08 223.42,-242.04l0 -2042.95c1.7,-830.22 -667.73,-1505.57 -1497.95,-1511.49l0 0 0.03 0z"/>
  <path class="fil3" d="M25247.98 2977.28l-9188.24 0c-798.06,0 -1446.33,643.18 -1446.33,1430.23l-59.24 8090.6 -1793.32 0c-126.96,0 -224.29,112.56 -224.29,239.49l0 1113.74c0,1041.8 834.45,1894.87 1840.69,1941.4l0 13.54 7737.69 0 0 -15.23c57.55,2.52 92.24,15.23 132.02,15.23l5.09 0c1073.96,-6.79 1939.7,-881.84 1933.78,-1954.94l0 -7076.74 2335.79 0c126.96,0 224.28,-115.09 224.28,-242.05l0 -2042.95c1.7,-831.05 -667.73,-1506.4 -1497.95,-1512.32l0 0 0.03 0z"/>
  <path class="fil4" d="M25247.98 2977.28l-9188.24 0c-798.06,0 -1446.33,643.18 -1446.33,1430.23l-59.24 8090.6 -1793.32 0c-126.96,0 -224.29,112.56 -224.29,239.49l0 1113.74c0,1041.8 834.45,1894.87 1840.69,1941.4l0 13.54 7737.69 0 0 -15.23c57.55,2.52 92.24,15.23 132.02,15.23l5.09 0c1073.96,-6.79 1939.7,-881.84 1933.78,-1954.94l0 -7076.74 2335.79 0c126.96,0 224.28,-115.09 224.28,-242.05l0 -2042.95c1.7,-831.05 -667.73,-1506.4 -1497.95,-1512.32l0 0 0.03 0zm-10769.95 12368.62l-0.83 0c-819.21,0 -1480.19,-676.18 -1480.19,-1494.56l0 -892.85 7306.08 0 0 888.63c-1.69,517.92 203.1,1015.55 568.72,1382 38.91,38.91 79.56,59.24 121,116.78l-6514.78 0zm9247.49 -1495.42c0,819.21 -654.2,1495.39 -1473.41,1495.39l-5.09 0c-822.6,-5.92 -1486.11,-675.35 -1483.55,-1498.79l0 -1109.48c0,-128.63 -101.55,-235.26 -230.2,-239.49l-5518.69 0 59.24 -8088.91c0,-534.85 441.75,-971.54 985.95,-971.54l8101.61 0c-262.34,287.74 -435.83,651.63 -435.83,1057.86l0 9354.96 -0.03 0zm2560.04 -9357.49l0 1821.23 -2099.66 0 0 -1819.53c0,-575.5 479,-1057.03 1055.33,-1057.03l5.92 0c577.16,5.92 1041.8,476.47 1038.41,1053.63l0 1.7zm0 0z"/>
  <path class="fil4" d="M22115.01 9376.98l-5522.95 0c-126.96,0 -229.34,103.24 -229.34,230.2 0,126.96 102.41,230.21 229.34,230.21l5522.95 0c126.96,0 230.2,-103.25 230.2,-230.21 0,-126.96 -103.24,-230.2 -230.2,-230.2l0 0zm0 0z"/>
  <path class="fil4" d="M20608.61 11175.35l-4076.62 0c-93.93,0 -169.27,102.41 -169.27,230.21 0,126.96 75.3,230.2 169.27,230.2l4076.62 0c93.93,0 170.1,-103.24 170.1,-230.2 0,-127.8 -76.17,-230.21 -170.1,-230.21l0 0zm0 0z"/>
  <path class="fil4" d="M22115.01 5610.09l-5522.95 0c-126.96,0 -229.34,103.25 -229.34,230.21 0,126.96 102.41,230.21 229.34,230.21l5522.95 0c126.96,0 230.2,-103.25 230.2,-230.21 0,-126.96 -103.24,-230.21 -230.2,-230.21l0 0zm0 0z"/>
  <path class="fil4" d="M22115.01 7505.79l-5522.95 0c-126.96,0 -229.34,103.25 -229.34,230.21 0,126.96 102.41,230.2 229.34,230.2l5522.95 0c126.96,0 230.2,-103.24 230.2,-230.2 0,-126.96 -103.24,-230.21 -230.2,-230.21l0 0zm0 0z"/>
  <path class="fil3" d="M28938.7 15774.98l-2297.71 -2272.32c277.58,-480.71 422.3,-969.86 422.3,-1528.42 0,-1656.22 -1352.4,-2975.58 -2975.58,-2975.58 -1649.43,0 -2975.58,1343.91 -2975.58,2975.58 0,1673.14 1318.53,2975.58 2975.58,2975.58 557.7,0 1046.85,-144.72 1528.42,-422.3l2297.7 2271.46c278.43,279.27 735.42,280.13 1015.55,9.32 286.89,-287.75 298.76,-743.91 9.32,-1033.32z"/>
  <path class="fil5" d="M28938.7 15774.98l-2297.71 -2272.32c277.58,-480.71 422.3,-969.86 422.3,-1528.42 0,-1656.22 -1352.4,-2975.58 -2975.58,-2975.58 -1649.43,0 -2975.58,1343.91 -2975.58,2975.58 0,1673.14 1318.53,2975.58 2975.58,2975.58 557.7,0 1046.85,-144.72 1528.42,-422.3l2297.7 2271.46c278.43,279.27 735.42,280.13 1015.55,9.32 286.89,-287.75 298.76,-743.91 9.32,-1033.32z"/>
  <path class="fil3" d="M24076.73 10157.24c1008.8,0 1826.31,817.51 1826.31,1826.31 0,1007.94 -817.51,1825.45 -1826.31,1825.45 -1007.94,0 -1825.45,-817.51 -1825.45,-1825.45 0,-1008.8 817.51,-1826.31 1825.45,-1826.31z"/>
  <path class="fil4" d="M24087.74 13966.43c1091.72,0 1991.33,-887.76 1991.33,-1992.19 0,-1091.73 -886.93,-1991.33 -1991.33,-1991.33 -1104.43,0 -1992.19,899.6 -1992.19,1991.33 0,1104.43 899.6,1992.19 1992.19,1992.19zm0 -2647.22c173.49,0 340.2,68.55 462.94,192.12 123.57,122.7 192.12,288.58 192.12,462.94 0,91.4 73.64,164.18 165.01,164.18 90.54,0 164.18,-72.78 164.18,-164.18 0,-261.51 -104.11,-510.31 -288.58,-695.64 -185.33,-185.34 -434.13,-288.58 -695.64,-288.58 -91.4,0 -165.01,73.64 -165.01,164.18 0,91.4 73.64,165.01 165.01,165.01l-0.03 -0.03zm4850.96 4455.77l-2297.71 -2272.32c277.58,-480.71 422.3,-969.86 422.3,-1528.42 0,-1656.22 -1352.4,-2975.58 -2975.58,-2975.58 -1649.43,0 -2975.58,1343.91 -2975.58,2975.58 0,1673.14 1318.53,2975.58 2975.58,2975.58 557.7,0 1046.85,-144.72 1528.42,-422.3l2297.7 2271.46c278.43,279.27 735.42,280.13 1015.55,9.32l9.32 -9.32c276.74,-277.57 282.66,-729.5 11.01,-1013.02l-11.01 -11.01 0 0.03zm-4850.96 -6447.96c1450.55,0 2646.39,1179.73 2646.39,2647.22 0,1459.86 -1187.36,2647.22 -2646.39,2647.22 -1451.39,0 -2647.22,-1179.74 -2647.22,-2647.22 0,-1451.39 1178.9,-2647.22 2647.22,-2647.22zm4618.22 7240.09l0 0c-154.03,153.17 -405.36,153.17 -559.4,0l5.09 -5.09c-794.66,-726.11 -1493.73,-1457.33 -2258.75,-2222.36 218.33,-176.02 382.51,-340.2 559.4,-559.4l2253.69 2226.62c153.18,154.04 154.87,404.53 0,560.26l-0.03 -0.03zm-4618.22 -6255.84c921.62,0 1662.96,751.52 1662.96,1662.97 0,917.39 -746.43,1662.96 -1662.96,1662.96 -912.31,0 -1662.97,-740.51 -1662.97,-1662.96 0,-911.48 740.51,-1662.97 1662.97,-1662.97z"/>
  <path class="fil8" d="M24433.86 16596.72c165.88,0 300.43,133.71 300.43,300.42 0,165.88 -134.58,300.42 -300.43,300.42 -165.87,0 -300.42,-134.58 -300.42,-300.42 0,-166.71 134.58,-300.42 300.42,-300.42z"/>
  <path class="fil2" d="M11902.72 2613.36l0 0c104.11,0 188.73,84.62 188.73,187.86l0 376.59 376.59 0c103.25,0 187.87,84.62 187.87,187.87l0 0c0,104.11 -84.62,188.73 -187.87,188.73l-376.59 0 0 376.59c0,103.24 -84.62,187.86 -188.73,187.86l0 0c-103.24,0 -187.86,-84.62 -187.86,-187.86l0 -376.59 -376.59 0c-103.25,0 -187.87,-84.62 -187.87,-188.73l0 0c0,-103.25 84.62,-187.87 187.87,-187.87l376.59 0 0 -376.59c0,-103.24 84.62,-187.86 187.86,-187.86z"/>
  <path class="fil2" d="M1716.72 12209.53c110.86,0 200.56,89.71 200.56,200.57 0,110.86 -89.7,199.74 -200.56,199.74 -110.87,0 -200.57,-88.88 -200.57,-199.74 0,-110.86 89.7,-200.57 200.57,-200.57z"/>
  <path class="fil9" d="M2778.8 18825.87l0 0c79.57,0 143.86,65.16 143.86,143.85l0 286.89 286.89 0c79.56,0 143.85,65.16 143.85,143.86l0 0c0,78.7 -64.32,143.86 -143.85,143.86l-286.89 0 0 286.88c0,79.56 -64.33,143.86 -143.86,143.86l0 0c-78.69,0 -143.02,-64.33 -143.02,-143.86l0 -286.88 -287.75 0c-78.7,0 -143.03,-65.16 -143.03,-143.86l0 0c0,-78.7 64.33,-143.86 143.03,-143.86l287.75 0 0 -286.89c0,-78.69 64.33,-143.85 143.02,-143.85z"/>
  <path class="fil2" d="M27754.74 1097.64l0 0c85.48,0 154.86,70.25 154.86,155.74l0 310.6c0,85.48 -69.38,154.86 -154.86,154.86l0 0c-85.49,0 -155.74,-69.38 -155.74,-154.86l0 -310.6c0,-85.49 70.25,-155.74 155.74,-155.74zm155.7 776.9l0 0c0,-85.48 69.38,-154.86 154.86,-154.86l310.6 0c85.49,0 155.74,69.38 155.74,154.86l0 0c0,85.49 -70.25,155.74 -155.74,155.74l-310.6 0c-85.48,0 -154.86,-70.25 -154.86,-155.74zm-932.6 0l0 0c0,-85.48 70.25,-154.86 154.86,-154.86l310.6 0c85.49,0 155.74,69.38 155.74,154.86l0 0c0,85.49 -70.25,155.74 -155.74,155.74l-310.6 0c-84.61,0 -154.86,-70.25 -154.86,-155.74zm776.9 155.7l0 0c85.48,0 154.86,70.25 154.86,155.74l0 309.73c0,85.48 -69.38,155.73 -154.86,155.73l0 0c-85.49,0 -155.74,-70.25 -155.74,-155.73l0 -309.73c0,-85.49 70.25,-155.74 155.74,-155.74z"/>
 </g>
</svg>
