<?xml version="1.0" encoding="UTF-8"?>
<!DOCTYPE svg PUBLIC "-//W3C//DTD SVG 1.1//EN" "http://www.w3.org/Graphics/SVG/1.1/DTD/svg11.dtd">
<!-- Creator: CorelDRAW 2018 (64-Bit) -->
<svg xmlns="http://www.w3.org/2000/svg" xml:space="preserve" width="297mm" height="210mm" version="1.1" style="shape-rendering:geometricPrecision; text-rendering:geometricPrecision; image-rendering:optimizeQuality; fill-rule:evenodd; clip-rule:evenodd"
viewBox="0 0 29700 21000"
 xmlns:xlink="http://www.w3.org/1999/xlink">
 <defs>
  <style type="text/css">
   <![CDATA[
    .fil4 {fill:#422131}
    .fil6 {fill:#D4B4FD}
    .fil3 {fill:#DD3445}
    .fil8 {fill:#EADAFE}
    .fil9 {fill:#EFC7D7}
    .fil7 {fill:#F4D5E1}
    .fil2 {fill:#FEFEFE}
    .fil0 {fill:#FFF4F4}
    .fil5 {fill:#422131;fill-rule:nonzero}
    .fil1 {fill:#343743;fill-opacity:0.149020}
   ]]>
  </style>
 </defs>
 <g id="Слой_x0020_1">
  <metadata id="CorelCorpID_0Corel-Layer"/>
  <path class="fil0" d="M7411.19 6225.8c939.87,0 1749.04,240.86 2675.59,240.86 2523.18,0 4836.87,-1272.4 6199.86,-3359.15 1343.04,-1869.3 3535.8,-3086.99 6013.27,-3086.99 4086.9,0 7400.09,3313.09 7400.09,7400.08 0,4086.99 -3313.19,7400.09 -7400.09,7400.09 -904.07,0 -1759.98,-212.36 -2671.68,-212.36 -2580.77,0 -4852.66,1321.42 -6176.88,3324.38l-12.13 -13.49c-1341.77,1880.58 -3541.66,3106.84 -6028.03,3106.84 -4086.9,0 -7400.09,-3313.09 -7400.09,-7400.08 0,-4086.99 3313.19,-7400.17 7400.09,-7400.17l0 -0.01z"/>
  <path class="fil1" d="M20962.73 4590.85l-12377.47 0c-468.14,0 -849.1,380.96 -849.1,849.93l0 8545.13c0,469 380.96,849.94 849.1,849.94l4241.22 0 0 617.99c0,567.19 -460.52,1028.57 -1027.71,1028.57l-934.61 0c-179.47,0 -324.23,144.77 -324.23,324.24 2.53,69.41 13.54,66.88 193.01,66.88l8082.05 0c179.47,0 192.18,0 193.87,-66.88 0,-179.47 -145.59,-324.24 -324.23,-324.24l-935.45 0c-566.35,0 -1027.7,-461.38 -1027.7,-1028.57l0 -617.99 4241.22 0c468.14,0 849.94,-380.97 849.94,-849.94l0 -8545.13c0,-469 -381.8,-849.93 -849.94,-849.93l0.03 0z"/>
  <path class="fil1" d="M24269.38 6394.86l-343.7 0c-916.82,0 -1689.73,-894.82 -2675.11,-966.76l655.23 -2424.53c245.51,-904.97 -1179.27,-1321.47 -1451.83,-312.39l-805.92 2981.57c-593.44,597.67 -1191.1,1191.11 -1786.24,1787.08 -294.59,293.76 -284.44,798.3 25.39,1078.51 72.8,57.56 104.14,55.04 108.36,74.5 54.17,242.95 116.82,510.46 426.65,510.46l293.76 0 -73.66 272.6c-16.94,60.09 -25.39,122.74 -25.39,185.39 0,264.11 146.46,491.86 359.77,614.6l-60.95 244.65 377.57 93.96 60.95 -242.12c341.17,0 631.54,-186.26 723.8,-525.7l143.9 -531.62c826.25,320.84 2149.41,465.61 2964.64,62.65 228.58,-114.29 484.25,-174.38 739.04,-174.38l343.7 0 0 389.42 5410.34 0 0 -3508.11 -5410.34 0 0 390.25 0.04 -0.03zm-3543.68 974.4l424.99 0c107.5,0 195.54,87.21 195.54,194.71 0,107.5 -88.04,194.71 -195.54,194.71l-529.96 0 104.97 -389.42z"/>
  <path class="fil2" d="M21263.25 4310.63l-12377.48 0c-468.14,0 -849.93,380.96 -849.93,849.1l0 8545.97c0,468.13 381.79,849.93 849.93,849.93l4241.23 0 0 618c0,567.18 -461.39,1027.7 -1027.71,1027.7l-934.61 0c-179.47,0 -325.07,145.6 -325.07,325.07 2.53,69.41 14.4,66.05 193.87,66.05l8082.05 0c179.47,0 192.18,0.83 193.88,-66.05 0,-179.47 -145.6,-325.07 -325.07,-325.07l-934.61 0c-566.36,0 -1027.71,-460.52 -1027.71,-1027.7l0 -618 4241.23 0c468.13,0 849.93,-381.8 849.93,-849.93l0 -8545.97c0,-468.14 -381.8,-849.1 -849.93,-849.1z"/>
  <path class="fil3" d="M21263.25 4310.63l-12377.48 0c-468.14,0 -849.93,380.96 -849.93,849.1l0 7228.72 14077.34 42.33 0 -7271.05c0,-468.14 -381.8,-849.1 -849.93,-849.1z"/>
  <path class="fil4" d="M8885.77 4700.05c-253.13,0 -459.68,206.55 -459.68,459.68l0 8545.97c0,253.13 206.55,459.68 459.68,459.68l0 1.7c4126.1,0 8250.51,-1.7 12377.48,-1.7 253.13,0 459.68,-206.55 459.68,-459.68l0 -8545.97c0,-252.27 -207.41,-459.68 -459.68,-459.68 -1.7,0 -11345.54,0 -12377.48,0zm4631.51 9855.61l0 618c0,391.11 -159.14,745.82 -415.67,1002.32 -10.15,9.31 -19.47,19.46 -29.65,27.95l4005.06 0c-10.15,-8.46 -20.33,-18.64 -29.64,-27.95 -256.5,-256.5 -415.67,-611.21 -415.67,-1002.32l0 -618 0 0 -3114.47 0 0.04 0zm7745.97 -10245.03l-12377.48 0c-468.14,0 -849.93,380.96 -849.93,849.1l0 8545.97c0,468.13 381.79,849.93 849.93,849.93l4241.23 0 0 618c0,567.18 -461.39,1027.7 -1027.71,1027.7l-934.61 0c-179.47,0 -325.07,145.6 -325.07,325.07 2.53,69.41 14.4,66.05 193.87,66.05l8082.05 0c179.47,0 192.18,0.83 193.88,-66.05 0,-179.47 -145.6,-325.07 -325.07,-325.07l-934.61 0c-566.36,0 -1027.71,-460.52 -1027.71,-1027.7l0 -618 4241.23 0c468.13,0 849.93,-381.8 849.93,-849.93l0 -8545.97c0,-468.14 -381.8,-849.1 -849.93,-849.1z"/>
  <path class="fil1" d="M10626.3 7875.5c722.97,0 1445.9,0 2169.71,0l0 0c91.43,0 165.06,73.66 165.06,165.06l0 3053.51c0,91.43 -73.67,165.93 -165.06,165.93l-2169.71 0 0 597.66c0,91.44 -74.5,165.93 -165.93,165.93 -2110.45,0 -4220.92,0 -6332.24,0 -1353.64,0 -2455.84,-1102.2 -2455.84,-2455.84 0,-1354.47 1102.2,-2455.85 2455.84,-2455.85l6332.24 0c91.43,0 165.93,73.67 165.93,165.07l0 598.5 0 0.03z"/>
  <path class="fil2" d="M10846.4 7554.65c722.96,0 1446.76,0 2169.7,0l0 0c91.43,0 165.06,74.5 165.06,165.93l0 3053.51c0,91.43 -73.66,165.07 -165.06,165.07l-2169.7 0 0 598.49c0,91.44 -73.67,165.07 -165.07,165.07 -2111.31,0 -4221.76,0 -6332.24,0 -1354.47,0 -2455.84,-1101.37 -2455.84,-2455.85 0,-1353.64 1101.37,-2455.84 2455.84,-2455.84l6332.24 0c91.43,0 165.07,74.49 165.07,165.93l0 597.66 0 0.03z"/>
  <path class="fil4" d="M10846.4 7554.65l2169.7 0c91.43,0 165.06,74.5 165.06,165.93l0 3053.51c0,91.43 -73.66,165.07 -165.06,165.07l-2169.7 0 0 598.49c0,91.44 -73.67,165.07 -165.07,165.07l-6332.24 0c-1354.47,0 -2455.84,-1101.37 -2455.84,-2455.85 0,-1353.64 1101.37,-2455.84 2455.84,-2455.84l6332.24 0c91.43,0 165.07,74.49 165.07,165.93l0 597.66 0 0.03zm1945.38 390.25l-1945.38 0c-215.04,0 -390.25,-174.38 -390.25,-390.25l0 -375.01 -6107.06 0 0 1.7c-569.71,0 -1086.13,231.94 -1460.31,606.12 -374.18,374.18 -606.12,890.56 -606.12,1459.45 0,569.71 231.94,1086.13 606.12,1460.31 374.18,374.17 890.56,605.28 1460.31,605.28l6107.06 0 0 -373.34c0,-215.04 175.24,-389.42 390.25,-389.42l1945.38 0 0 -2604.84z"/>
  <path class="fil4" d="M11479.63 8548.49l738.21 0 0 389.42 -738.21 0 0 -389.42zm0 0z"/>
  <path class="fil4" d="M11479.63 9557.6l738.21 0 0 389.42 -738.21 0 0 -389.42zm0 0z"/>
  <path class="fil4" d="M10456.15 11212.62l0 -3909.4 390.25 0 0 3909.4 -390.25 0zm0 0z"/>
  <path class="fil4" d="M8035.84 12265.71l14077.34 0 0 389.42 -14077.34 0 0 -389.42zm0 0z"/>
  <path class="fil4" d="M15074.94 13115.65c141.37,0 254.8,114.29 254.8,254.8 0,141.37 -113.43,255.66 -254.8,255.66 -141.37,0 -254.8,-114.29 -254.8,-255.66 0,-140.54 113.43,-254.8 254.8,-254.8z"/>
  <path class="fil2" d="M18158.1 11318.42l-277.66 0c-20.33,0 -38.93,-11.84 -48.24,-29.64l-309 -618.83 165.06 -264.98c151.52,-242.95 231.94,-522.33 231.94,-808.44 0,-316.62 -257.36,-573.98 -573.97,-573.98 -316.62,0 -573.98,257.36 -573.98,573.98l0 67.71c0,235.33 55.86,471.53 160.84,682.31l151.52 302.21 -402.96 644.21c-9.31,16.07 -27.08,25.39 -44.88,25.39l-247.18 0c-24.56,0 -45.72,-16.94 -51.64,-40.63l-99.05 -394.5c-48.24,-194.71 -222.66,-330.16 -423.29,-330.16 -200.63,0 -374.17,135.45 -423.28,330.16l-98.19 394.5c-5.92,23.69 -27.95,40.63 -52.47,40.63l-573.98 0 0 382.63 573.98 0c200.63,0 375.01,-136.28 423.29,-330.16l99.05 -394.51c11.84,-48.24 92.26,-48.24 104.14,0l98.18 394.51c49.11,193.88 222.66,330.16 423.29,330.16l247.18 0c150.69,0 289.53,-77.03 369.95,-204.86l278.52 -446.14 204.86 409.74c74.49,149 223.49,241.26 390.25,241.26l448.67 0c325.07,1.7 1107.3,-376.71 1355.34,-1517.04 60.09,-242.12 -317.45,-338.61 -378.41,-93.96 -248.87,1070.03 -871.96,1235.12 -1147.92,1228.34l0.04 0.09zm-794.07 -1115.74l-41.49 66.04 -47.42 -93.13c-78.72,-158.3 -120.21,-335.24 -120.21,-511.32l0 -67.71c0,-105.81 85.51,-191.31 191.32,-191.31 105.8,0 191.31,85.5 191.31,191.31 0,214.17 -60.09,424.12 -173.55,606.12l0.04 0z"/>
  <path class="fil2" d="M9977 5639.75l7500.48 0c107.51,0 194.71,88.04 194.71,195.54l0 0c0,106.67 -87.2,194.71 -194.71,194.71l-7500.48 0c-106.67,0 -194.71,-88.04 -194.71,-194.71l0 0c0,-107.5 88.04,-195.54 194.71,-195.54z"/>
  <path class="fil5" d="M5497.01 9583.82c0,125.3 -15.24,237.89 -45.71,338.61 -31.31,100.75 -77.89,187.09 -140.54,258.19 -62.65,70.27 -141.38,126.14 -236.2,165.06 -95.66,38.93 -209.12,58.43 -340.31,58.43 -78.72,0 -154.08,-7.62 -227.71,-23.69 -72.8,-16.07 -137.98,-37.27 -195.54,-65.18 -56.73,-27.08 -102.45,-60.09 -136.29,-96.52 -33.87,-37.27 -50.8,-77.03 -50.8,-119.38 0,-40.63 15.24,-75.33 45.71,-104.98 30.48,-29.64 69.41,-44.88 115.99,-44.88 29.64,0 52.47,5.09 68.57,14.41 16.07,10.15 35.57,22.02 58.43,36.4 49.11,30.47 97.35,53.33 144.77,70.27 48.24,16.93 101.57,25.38 160.83,25.38 80.42,0 148.16,-11.84 203.16,-34.7 55.03,-23.69 99.05,-57.56 132.06,-101.58 33.01,-44.88 56.73,-99.05 71.97,-162.53 14.4,-63.49 22.02,-134.62 22.02,-213.34l0 -161.7 -543.5 0c-49.11,0 -88.9,-16.94 -121.04,-49.11 -32.18,-33.01 -47.41,-72.8 -47.41,-119.38 0,-46.55 16.93,-85.51 50.8,-115.99 33.87,-31.31 72.8,-46.55 117.69,-46.55l543.49 0 0 -161.7c0,-78.72 -7.62,-149.82 -22.02,-213.34 -15.24,-63.48 -38.93,-117.68 -71.97,-161.7 -33,-44.89 -77.02,-78.72 -132.06,-102.45 -55.03,-22.85 -122.74,-34.7 -203.16,-34.7 -93.12,0 -173.54,20.33 -242.12,60.96 -28.78,16.93 -59.25,35.56 -89.73,56.72 -31.31,21.17 -64.35,32.18 -100.75,32.18 -46.55,0 -85.51,-15.24 -115.98,-44.89 -30.48,-29.64 -45.72,-66.04 -45.72,-108.36 0,-39.8 16.94,-78.72 50.81,-115.99 33.87,-36.4 79.58,-69.4 136.28,-98.18 57.56,-28.79 122.74,-50.81 195.54,-66.88 73.66,-16.07 148.99,-23.69 227.71,-23.69 131.23,0 244.65,19.46 340.31,58.42 94.83,39.8 173.55,94.83 236.2,165.93 62.65,71.1 109.2,157.44 140.54,259.06 30.48,101.58 45.71,214.17 45.71,336.91l0 654.39 -0.03 0.07zm530.79 794.93c-48.24,0 -89.73,-16.07 -123.6,-49.1 -33.87,-33.01 -50.81,-71.11 -50.81,-115.99l0 -1936.07c0,-46.55 16.94,-86.34 50.81,-119.38 33.87,-33.01 75.33,-49.11 123.6,-49.11 49.11,0 90.57,16.07 124.44,49.11 33.87,33.01 50.81,72.8 50.81,119.38l0 1776.93 772.04 0 0 -1776.93c0,-46.55 17.77,-86.34 52.47,-119.38 35.57,-33.01 76.19,-49.11 122.74,-49.11 48.25,0 89.74,16.07 123.61,49.11 33.87,33.01 50.8,72.8 50.8,119.38l0 1776.93 79.59 0c46.55,0 88.04,16.93 122.74,49.11 34.7,33 52.47,71.96 52.47,116.82l0 492.69c0,46.55 -17.77,86.34 -52.47,118.51 -34.7,33.01 -76.19,49.95 -122.74,49.95 -46.55,0 -87.21,-16.94 -121.91,-49.95 -35.57,-32.17 -52.47,-71.96 -52.47,-118.51l0 -334.39 -155.78 0 -3.39 0 -1042.95 0zm3281.26 -136.31c0,44.02 -16.94,83.81 -50.81,117.68 -33.87,33.87 -75.33,50.81 -124.43,50.81 -46.55,0 -87.21,-16.94 -121.91,-50.81 -35.57,-33.87 -52.47,-73.66 -52.47,-117.68l0 -1780.29 -772.91 0 0 1780.29c0,44.02 -16.94,83.81 -50.81,117.68 -33.87,33.87 -75.33,50.81 -123.6,50.81 -49.11,0 -90.57,-16.94 -124.44,-50.81 -33.87,-33.87 -50.81,-73.66 -50.81,-117.68l0 -1939.46c0,-44.89 16.94,-83.81 50.81,-117.69 33.87,-33.87 75.33,-50.8 124.44,-50.8l1121.7 0c46.54,0 88.03,16.93 122.74,50.8 34.7,33.88 52.47,72.8 52.47,117.69l0 1939.46 0.03 0z"/>
  <path class="fil2" d="M13925.32 6781.74l3552.16 0c107.51,0 194.71,87.21 194.71,194.71l0 0c0,107.51 -87.2,194.71 -194.71,194.71l-3552.16 0c-107.5,0 -195.54,-87.2 -195.54,-194.71l0 0c0,-107.5 88.04,-194.71 195.54,-194.71z"/>
  <path class="fil2" d="M13925.32 7943.21l3552.16 0c107.51,0 194.71,87.2 194.71,194.7l0 0c0,107.51 -87.2,194.71 -194.71,194.71l-3552.16 0c-107.5,0 -195.54,-87.2 -195.54,-194.71l0 0c0,-107.5 88.04,-194.7 195.54,-194.7z"/>
  <path class="fil2" d="M24659.62 6044.4l-343.7 0c-254.79,0 -509.62,-60.95 -738.2,-175.24l-1169.95 -584.13c-237.89,-119.38 -501.14,-187.92 -766.98,-207.41l656.09 -2424.54c244.65,-904.97 -1180.1,-1321.47 -1452.69,-312.39l-805.09 2981.58c-594.27,597.66 -1191.11,1191.1 -1787.07,1787.07 -84.65,84.65 -143.91,187.92 -179.47,298.85 -35.57,88.04 -40.63,283.61 -19.47,390.25 33.01,151.52 111.76,286.97 224.35,389.42 72.8,57.56 104.15,55.03 108.37,74.49 23.69,105.81 61.79,229.41 91.43,315.75 67.71,115.99 192.18,194.71 335.25,194.71l293.76 0 -73.66 272.6c-16.94,60.09 -24.56,122.74 -24.56,185.39 0,264.12 145.6,491.86 358.94,614.6l-60.95 244.65 378.4 93.96 60.09 -242.12 37.26 0c320.85,0 602.76,-215.87 686.57,-525.7l143.9 -531.62c826.25,320.85 2149.41,465.61 2965.48,62.65 228.58,-114.29 483.37,-174.38 738.2,-174.38l343.7 0 0 389.42 3508.11 0 0 -3508.11 -3508.11 0 0 390.25zm-3542.81 974.38l424.99 0c106.67,0 194.71,87.2 194.71,194.7 0,107.51 -88.04,194.71 -194.71,194.71l-530.79 0 105.8 -389.41z"/>
  <polygon class="fil6" points="24894.13,5770.11 29687.33,5770.11 29687.33,8985.32 24894.13,8985.32 "/>
  <path class="fil6" d="M19613.32 9709.12l-508.77 -122.74 243.82 -989.61 1094.59 34.7 -292.9 869.4 -536.71 208.25 -0.03 0zm0 -2101.99l1059.88 -43.19 1483.17 -5042.92 -176.94 -406.35 -494.39 -194.7 -406.35 318.31 -1465.4 5368.85 0.03 0z"/>
  <path class="fil4" d="M24659.62 6044.4l-343.7 0c-254.79,0 -509.62,-60.95 -738.2,-175.24l-1169.95 -584.13c-237.89,-119.38 -501.14,-187.92 -766.98,-207.41l656.09 -2424.54c244.65,-904.97 -1180.1,-1321.47 -1452.69,-312.39l-805.09 2981.58c-594.27,597.66 -1191.11,1191.1 -1787.07,1787.07 -84.65,84.65 -143.91,187.92 -179.47,298.85 -35.57,88.04 -40.63,283.61 -19.47,390.25 33.01,151.52 111.76,286.97 224.35,389.42 72.8,57.56 104.15,55.03 108.37,74.49 23.69,105.81 61.79,229.41 91.43,315.75 67.71,115.99 192.18,194.71 335.25,194.71l293.76 0 -73.66 272.6c-16.94,60.09 -24.56,122.74 -24.56,185.39 0,264.12 145.6,491.86 358.94,614.6l-60.95 244.65 378.4 93.96 60.09 -242.12 37.26 0c320.85,0 602.76,-215.87 686.57,-525.7l143.9 -531.62c826.25,320.85 2149.41,465.61 2965.48,62.65 228.58,-114.29 483.37,-174.38 738.2,-174.38l343.7 0 0 389.42 5030.24 0 0 -3508.11 -5030.24 0 0 390.25zm1744.76 1900.5c141.37,0 255.66,114.29 255.66,254.8 0,141.37 -114.29,255.66 -255.66,255.66 -140.54,0 -254.8,-114.29 -254.8,-255.66 0,-140.54 114.29,-254.8 254.8,-254.8zm-574.81 827.94l3850.98 0 0 -2728.44 -3850.98 0c0,909.19 0,1818.39 0,2728.44zm-390.25 -2728.44l-389.41 0 0 2728.44 389.41 0c0,-910.05 0,-1819.25 0,-2728.44zm-4322.51 974.38l424.99 0c106.67,0 194.71,87.2 194.71,194.7 0,107.51 -88.04,194.71 -194.71,194.71l-530.79 0 105.8 -389.41zm-509.62 389.41l-728.03 0c343.7,-1273.22 687.4,-2546.44 1031.97,-3819.66l668.76 222.65c-324.23,1198.73 -648.47,2398.29 -972.67,3597.01l-0.03 0zm-2054.59 499.48c-79.58,-66.04 -129.52,-162.53 -129.52,-270.9 0,-93.96 38.09,-185.39 104.14,-252.27l1307.09 -1307.09 -358.94 1330.78 -77.89 0c-364.03,0 -678.08,203.16 -844.88,499.48zm2684.43 -5524.62c108.36,-403.83 799.16,-260.76 683.17,168.45l-238.73 882.94 -668.76 -222.65 224.35 -828.78 -0.03 0.04zm-1517.87 7169.46c-177.78,0 -321.68,-143.9 -321.68,-321.68 0,-27.94 3.39,-56.72 11.01,-83.81l101.58 -374.18c233.64,0 492.7,-14.4 723.8,16.08l-142.2 526.56c-37.27,138.84 -165.07,237.03 -309.83,237.03l-62.65 0 -0.03 0zm4596.76 -1169.95c-314.92,0 -630.67,74.5 -912.58,215.87 -689.93,344.54 -1938.6,206.56 -2628.56,-69.4 -552.82,-221.79 -1361.26,-146.47 -1962.32,-146.47 0,-321.67 262.42,-584.12 584.96,-584.12l2144.31 0c321.68,0 584.13,-262.42 584.13,-584.96 0,-322.54 -262.42,-584.95 -584.13,-584.95l-320.01 0 315.76 -1166.56c240.42,5.93 480.84,64.35 695.85,171.85l1169.94 584.96c281.92,140.54 597.67,215.04 912.59,215.04l343.7 0 0 1948.78 -343.7 0 0.06 -0.04z"/>
  <path class="fil7" d="M4194.18 14768.97l0 0c78.72,0 143.07,64.35 143.07,143.9l0 286.97 287.83 0c78.73,0 143.07,64.35 143.07,143.91l0 0c0,78.72 -64.34,143.07 -143.07,143.07l-287.83 0 0 286.97c0,79.58 -64.35,143.9 -143.07,143.9l0 0c-79.59,0 -143.9,-64.35 -143.9,-143.9l0 -286.97 -286.98 0c-79.58,0 -143.9,-64.35 -143.9,-143.07l0 0c0,-79.59 64.35,-143.91 143.9,-143.91l286.98 0 0 -286.97c0,-79.58 64.34,-143.9 143.9,-143.9z"/>
  <path class="fil8" d="M14915.8 1423.88l0 0c104.14,0 188.79,84.64 188.79,188.78l0 375.88 376.7 0c103.28,0 187.92,84.64 187.92,188.78l0 0c0,103.28 -84.64,187.93 -187.92,187.93l-376.7 0 0 376.7c0,103.28 -84.65,187.92 -188.79,187.92l0 0c-103.28,0 -187.92,-84.64 -187.92,-187.92l0 -376.7 -376.71 0c-103.27,0 -187.92,-84.65 -187.92,-187.93l0 0c0,-104.14 84.65,-188.78 187.92,-188.78l376.71 0 0 -375.88c0,-104.14 84.64,-188.78 187.92,-188.78z"/>
  <path class="fil9" d="M8680.08 2354.26c165.93,0 299.69,134.62 299.69,300.52 0,165.93 -133.76,300.51 -299.69,300.51 -165.92,0 -300.51,-134.62 -300.51,-300.51 0,-165.93 134.62,-300.52 300.51,-300.52z"/>
  <path class="fil8" d="M24500.48 11908.47c110.9,0 200.63,89.74 200.63,199.8 0,110.9 -89.73,200.63 -200.63,200.63 -110.06,0 -199.79,-89.73 -199.79,-200.63 0,-110.06 89.73,-199.8 199.79,-199.8z"/>
  <g id="_90862792864">
   <g>
    <path class="fil8" d="M16621.59 17527.89c276.83,0 501.15,223.49 501.15,500.31 0,276.83 -224.36,500.31 -501.15,500.31 -137.14,0 -261.58,-55.03 -351.32,-144.76l-2.53 -1.7c-90.56,-90.57 -146.46,-215.87 -146.46,-353.85 0,-276.82 224.35,-500.31 500.31,-500.31zm1.7 499.48l-0.83 0.83 1.69 0 -0.83 -0.83 -0.03 0zm-0.83 0.83l0 0 0.83 0.83 0.83 -0.83 -1.66 0zm0 0l-0.83 0 0 1.7 0.83 0 0.83 -0.83 -1.7 0.83 -0.83 -0.83 -353.02 353.01 353.85 -352.15 0 0 0.84 0 -0.84 0 -351.32 353.85 352.19 -355.58zm-354.72 353.88l353.85 -352.15 -353.85 352.15zm353.85 -353.88l-0.83 0.83 0.83 -0.83zm0.87 0l0 0z"/>
   </g>
  </g>
  <path class="fil8" d="M24696.02 2556.59l0 0c85.51,0 155.78,69.41 155.78,154.92l0 310.69c0,85.51 -70.27,154.92 -155.78,154.92l0 0c-85.5,0 -154.91,-69.41 -154.91,-154.92l0 -310.69c0,-85.51 69.41,-154.92 154.91,-154.92zm155.78 776.27l0 0c0,-85.51 70.27,-154.91 155.78,-154.91l309.83 0c85.51,0 155.78,69.4 155.78,154.91l0 0c0,85.51 -70.27,155.78 -155.78,155.78l-309.83 0c-85.51,0 -155.78,-70.27 -155.78,-155.78zm-932.05 0l0 0c0,-85.51 69.41,-154.91 154.92,-154.91l310.69 0c85.51,0 155.78,69.4 155.78,154.91l0 0c0,85.51 -70.27,155.78 -155.78,155.78l-310.69 0c-85.51,0 -154.92,-70.27 -154.92,-155.78zm776.27 155.78l0 0c85.51,0 155.78,70.27 155.78,155.78l0 309.83c0,85.51 -70.27,155.78 -155.78,155.78l0 0c-85.5,0 -154.91,-70.27 -154.91,-155.78l0 -309.83c0,-85.51 69.41,-155.78 154.91,-155.78z"/>
 </g>
</svg>
